<svg version="1.1" id="svg2" xmlns="http://www.w3.org/2000/svg" x="0" y="0" viewBox="-250 343.5 110 107.5" style="enable-background:new -250 343.5 110 107.5" xml:space="preserve"><style>.st1{fill:#207245}.st2{fill:#fff}</style><path style="fill:#e6ffed" d="M-250 343.5h110V451h-110z"/><path id="path10" class="st1" d="M-193.3 361.2h5v6.7h25.2c1.4.1 3 0 4.2.8.9 1.2.8 2.8.8 4.2v43.7c0 2.4.2 4.9-.3 7.3-.3 1.7-2.4 1.8-3.8 1.8h-26.1v7.5h-5.2c-12.8-2.3-25.6-4.5-38.4-6.7v-58.7c12.9-2.1 25.7-4.3 38.6-6.6z"/><path id="path48" class="st2" d="M-188.3 370.4h27.7v52.8h-27.7v-5h6.7v-5.9h-6.7v-3.4h6.7V403h-6.7v-3.4h6.7v-5.9h-6.7v-3.4h6.7v-5.9h-6.7V381h6.7v-5.9h-6.7v-4.7z"/><path id="path58" class="st1" d="M-178.2 375.4h11.7v5.9h-11.7v-5.9z"/><path id="path72" class="st2" d="M-207.1 383.3c1.9-.1 3.8-.3 5.7-.3-2.2 4.6-4.5 9.2-6.8 13.7 2.3 4.7 4.7 9.4 7 14.1-2-.1-4-.2-6.1-.4-1.4-3.5-3.2-6.9-4.2-10.5-1.1 3.4-2.8 6.6-4.1 10-1.8 0-3.7-.1-5.5-.2 2.2-4.2 4.2-8.5 6.5-12.7-1.9-4.3-4-8.6-5.9-12.8 1.8-.1 3.7-.2 5.5-.3 1.2 3.3 2.6 6.5 3.6 9.9 1.3-3.7 2.9-7 4.3-10.5z"/><path id="path90" class="st1" d="M-178.2 384.7h11.7v5.9h-11.7v-5.9z"/><path id="path108" class="st1" d="M-178.2 393.9h11.7v5.9h-11.7v-5.9z"/><path id="path114" class="st1" d="M-178.2 403.1h11.7v5.9h-11.7v-5.9z"/><path id="path120" class="st1" d="M-178.2 412.3h11.7v5.9h-11.7v-5.9z"/></svg>