<svg xmlns="http://www.w3.org/2000/svg" viewBox="-250 343.5 110 107.5" style="enable-background:new -250 343.5 110 107.5" xml:space="preserve"><path style="fill:#ffe8e6" d="M-250 343.5h110V451h-110z"/><path d="M-219.6 426.1h49.2c2 0 3.5-1.6 3.5-3.5v-50.7c0-2-1.6-3.5-3.5-3.5h-49.2c-2 0-3.5 1.6-3.5 3.5v50.7c0 1.9 1.6 3.5 3.5 3.5z" style="fill:#e56353"/><path d="M-206.6 411.8c-.9 0-1.7-.5-2-.9-1.1-1.3-1.1-2.5-.9-3.2.1-.7.5-1.3 1.1-1.7.9-.7 3.3-2.3 6.8-3.8 1.9-3.4 3.1-6.2 4-8.4-1.5-2.8-2-5.1-2.1-6.2-.1-.9-.1-1.9.2-2.7.7-2.1 2.1-2.2 2.7-2.1.1 0 2.5.3 2.9 3.7 0 .1.3 2.3-1.5 7.3 1.1 1.9 2.7 4.1 5.2 6.2 2.3 0 4.9.2 7.6.9.6.1 1.1.5 1.5.9.7.7.8 1.7.5 2.6 0 0-.1.5-.5.9-.7 1-2.1 1.3-3.3.7-2.5-1.3-4.7-2.7-6.4-4.2-3.5.1-6.7.9-9.2 1.9-1.1 2.1-2.5 4.4-4.2 6.9-.3.5-.7.9-1.3 1.1-.4 0-.8.1-1.1.1zm3.3-6.8c-2 1.1-3.4 2-3.9 2.5-.2.2-.4.4-.4.6-.1.5.1.9.5 1.5 0 0 .4.3.8.2.1-.1.3-.1.3-.3 1-1.6 1.9-3.1 2.7-4.5zm15.6-3.2c1.2.8 2.5 1.7 4 2.4.3.1.6.1.8-.2.2-.3.3-.5.3-.5.1-.3.1-.5-.1-.7-.1-.1-.3-.3-.6-.3-1.4-.4-2.9-.6-4.4-.7zm-8.7-6c-.7 1.5-1.5 3.3-2.5 5.3 1.8-.5 3.7-1 5.9-1.2-1.4-1.4-2.5-2.8-3.4-4.1zm-.6-11.2c-.3 0-.5.3-.7.9-.2.5-.2 1.1-.1 1.8.1.8.4 2.1 1.1 3.9 1-3.2.9-4.6.9-4.6-.2-1.8-1.2-2-1.2-2z" style="fill:#fafafa"/></svg>