<svg version="1.1" id="svg2" xmlns="http://www.w3.org/2000/svg" x="0" y="0" viewBox="-250 343.5 110 107.5" style="enable-background:new -250 343.5 110 107.5" xml:space="preserve"><style>.st1{fill:#d24625}.st2{fill:#fff}</style><path style="fill:#ffefe9" d="M-250 343.5h110V451h-110z"/><path class="st1" d="M-193.1 361.2h4.8v7.5c9 .1 17.9-.1 26.9 0 1.9-.2 3.4 1.3 3.2 3.2.1 15.7 0 31.3.1 47-.1 1.7.2 3.6-.8 5.1-1.2.9-2.8.8-4.3.8h-25.2v8.4h-5.2c-12.8-2.3-25.6-4.5-38.4-6.7v-58.7c13-2.1 26-4.4 38.9-6.6z"/><path class="st2" d="M-188.3 371.3h27.7v51.2h-27.7v-6.7h20.1v-3.4h-20.1v-4.2h20.1v-3.4h-20.1v-4.9c3.3 1 7.1 1 10.1-1 3.2-1.9 4.9-5.5 5.2-9.2h-11c0-3.6 0-7.3-.1-10.9-1.4.3-2.8.6-4.1.8l-.1-8.3z"/><path class="st1" d="M-182.4 377c5.8.3 10.7 5.2 11 11h-11v-11z"/><path class="st2" d="M-218.4 383.3c4.6.2 10.1-1.8 13.8 1.6 3.6 4.4 2.7 12.5-2.7 15.1-1.9 1-4.1.8-6.2.8v9.8c-1.7-.1-3.3-.3-5-.4 0-8.9 0-17.9.1-26.9z"/><path class="st1" d="M-213.5 387.9c1.7-.1 3.7-.4 4.8 1.2 1 1.6.9 3.8.1 5.5-1 1.7-3.1 1.6-4.8 1.8-.1-2.9-.1-5.7-.1-8.5z"/></svg>