<svg version="1.1" id="svg2" xmlns="http://www.w3.org/2000/svg" x="0" y="0" viewBox="-250 343.5 110 107.5" style="enable-background:new -250 343.5 110 107.5" xml:space="preserve"><style>.st2{fill:#fff}</style><path style="fill:#e3f6ff" d="M-250 343.5h110V451h-110z"/><g id="g3103" transform="translate(-21.016)"><path id="path6" d="M-172.3 361.5h5v6.7c8.9 0 17.8-.1 26.7 0 1.9-.2 3.4 1.3 3.2 3.2.1 16.4 0 32.8.1 49.1-.1 1.7.2 3.5-.8 5-1.2.9-2.8.8-4.2.8h-25v6.7h-5.2c-12.7-2.3-25.3-4.4-38-6.7v-58.2c12.7-2.2 25.4-4.3 38.2-6.6z" style="fill:#2a5699"/><path id="path46" class="st2" d="M-167.3 370.6h27.4v53.2h-27.4v-6.7h21.6v-3.3h-21.6v-4.2h21.6v-3.3h-21.6v-4.2h21.6v-3.3h-21.6v-4.2h21.6v-3.3h-21.6v-4.2h21.6v-3.3h-21.6v-4.2h21.6v-3.3h-21.6v-5.7z"/><path id="path88" class="st2" d="M-193.4 385.3c1.6-.1 3.2-.2 4.7-.2 1.1 5.6 2.2 11.2 3.4 16.8.9-5.8 2-11.5 3-17.3 1.7-.1 3.3-.1 5-.2-1.9 8.1-3.5 16.2-5.6 24.2-1.4.7-3.5 0-5.1.1-1.1-5.5-2.4-11-3.4-16.5-1 5.4-2.2 10.7-3.4 16l-4.8-.3c-1.4-7.3-3-14.6-4.3-21.9 1.4-.1 2.9-.1 4.3-.2.9 5.3 1.8 10.6 2.6 15.9 1.3-5.5 2.5-10.9 3.6-16.4z"/></g></svg>