<?xml version="1.0" encoding="UTF-8"?><svg id="Layer_1" xmlns="http://www.w3.org/2000/svg" viewBox="0 0 500 500"><path d="m376.19,186.13c1.11,1.97,2.9,2.42,4.36,3.27,15.9,9.19,19.72,24.86,16.3,41.32-3.73,17.94-6.41,35.99-8.7,54.15-4.38,34.77-10.89,69.15-19.56,103.12-.85,3.34-2.27,4.61-5.8,4.61-75.14-.09-150.27-.11-225.41.04-4.75,0-5.3-2.72-6.12-6.04-7.8-31.4-14.11-63.09-18.33-95.18-2.75-20.94-5.89-41.78-9.9-62.56-3.35-17.36,1.21-31.23,18.34-40.27,4.08-2.15,4.54-4.32,2.23-7.67-2.01-2.89-2.34-6.03-2.22-9.41.5-13.86-1.1-27.79.98-41.6,1.77-11.74,6.23-14.97,17.74-17.42,24.17-5.16,48.6-4.09,73.01-4.75,37.72-1.02,75.42.41,113.13.35,13.49-.02,26.58,3.24,39.73,5.69,5.72,1.07,9.15,5.4,10.75,10.93,1.28,4.4,1.95,8.93,2.06,13.54.3,12.77-.5,25.55.45,38.32.26,3.46-1.6,6.66-3.05,9.57Z" fill="#3e6d23" stroke-width="0"/><path d="m238.03,306.51c3.69.45,6.48,1.08,9.27,1.09,42.92.16,85.83-.49,128.74-1.31,4.68-.09,6.33-1.65,7.07-6.42,3.77-24.29,6.3-48.73,11.41-72.86,3.17-14.93-2.14-27.97-16.74-35.88-3.07-1.66-6.02-2.34-9.48-1.46-5.67,1.44-11.48,1.96-17.35,1.96-67.23-.02-134.45-.02-201.68,0-6.18,0-12.29-.59-18.27-2.2-2.08-.56-3.92-.59-5.93.36-15.94,7.58-22.84,19.79-19.4,37.07,5,25.1,7.73,50.47,11.88,75.66.71,4.33.65,8.87,2.97,14.18,2.44-7.2,4.17-13.39,6.97-19.2,4.87-10.13,11.25-19.37,16.58-29.21,7.22-13.32,17.56-23.83,28.8-33.57,4.88-4.23,10.19-7.99,16.15-10.66,5.68-2.55,6.86-1.93,7.66,4.23,2.49,19.24.61,38.08-5.77,56.4-1.36,3.92-3.6,7.53-5.42,11.26,1.06.71,1.69.1,2.34-.27,17.35-9.8,36.02-11.87,55.44-9.34,5.43.71,6.09,1.92,3.39,6.62-2.49,4.34-5.37,8.46-8.63,13.55Z" fill="#fff" stroke-width="0"/><path d="m321.81,143.08c-2.25-2.36-2.48-5.01-2.02-7.9,1-6.22-.07-12.2-1.98-18.16-1.47-4.59-4.14-6.57-9.04-6.44-25.08.64-50.16-1.08-75.25-.32-14.04.43-28.09.41-42.14.3-4.9-.04-7.55,1.89-9.02,6.47-1.87,5.8-2.99,11.65-2.05,17.69,1.12,7.22.36,14.51,1.01,21.74.1,1.08.09,2.26-2.01,2.87-2.38-7.74-.34-15.79-1.73-23.54-1.46-8.15.3-16.21,3.62-23.88-7.77-1.53-10.54-.47-14.42,5.2-3.19,4.66-3.37,10.06-3.82,15.41-1.41,16.63,3.27,32.91,2.84,49.51-.14,5.17,2.25,6.5,8.31,6.5,50.51.01,101.01.01,151.52,0,7.17,0,8.74-1.55,9.03-8.91.25-6.3-.61-12.68.86-18.88,2.18-9.19,1.75-18.5,1.66-27.79-.04-4.27-.32-8.59-2.06-12.54-2.54-5.76-6.69-11.24-16.03-7.91,4.87,9.8,3.9,20.17,2.72,30.58Z" fill="#d2e869" stroke-width="0"/><path d="m209.87,334.59c2.2,2.44,4.42,2.83,6.48,3.51,8.83,2.91,17.69,5.71,26.48,8.73,2.49.86,5.11,2.05,5.35,5.32.22,3.09-2.25,4.26-4.25,5.75-4.79,3.59-9.55,7.22-13.9,11.94,1.1.21,1.55.38,2.01.38,44.16.08,88.32-.38,132.38,3.43,3.26.28,4.71-1.01,5.49-4.27,2.84-11.96,5.95-23.87,7.92-36,1.27-7.85,3.19-15.66,3.29-24.11-8.11-.34-15.77.29-23.45.41-25.86.4-51.73.68-77.6.65-14.01-.02-28.07,1.07-42.04-.96-1.75-.25-3.06.48-4.08,1.84-6.68,8.97-13.46,17.85-24.07,23.4Z" fill="#edf2b0" stroke-width="0"/><path d="m192.6,226.3c-2.36-.17-4.23,1.12-6.05,2.27-5.6,3.55-10.82,7.58-15.91,11.86-16.1,13.54-25.68,31.76-36.24,49.32-5.02,8.35-6.55,18.08-10.49,26.73-4.46,9.79-.86,18.3.6,27.4,46.36-7.69,79.85-72.04,68.1-117.58Z" fill="#66a147" stroke-width="0"/><path d="m367.42,376.8c-8.89-.73-17.33-1.73-25.81-2.07-54.09-2.21-108.2-1.99-162.31-.81-14.49.32-28.96,1.68-43.43,2.56-1.57.1-3.16-.06-3.33,2.32-.5,7.03,2.8,10.81,9.68,10.81,71.79,0,143.57,0,215.36,0,1.73,0,3.47-.07,5.2-.12,1.39-.04,2.52-.59,2.86-2.01.81-3.33,2.12-6.58,1.78-10.67Z" fill="#fff" stroke-width="0"/><path d="m175.14,367.88c2-.86,3.88-.7,5.79.38,3.76,2.14,7.77,2.92,12.15,2.68,7.55-.42,15.13-.46,22.69-.61,2.55-.05,5-.41,7.37-1.43,8.68-3.73,15.16-10.48,22.63-15.79-1.36-3.1-3.94-3.79-6.24-4.56-11.49-3.87-22.82-8.53-34.6-11.15-26.57-5.9-52.32-3.35-76.32,10.56-1.2.69-2.84,1.16-2.53,2.98.77,4.52,1.62,8.85,5.92,11.82,10.21,7.07,20.97,11.38,33.69,8.82,3.05-.61,6.28-.35,9.43-.52.44-.02.87-.24,1.33-.38-.27-.96-1.72-1.06-1.31-2.81Z" fill="#66a147" stroke-width="0"/><path d="m333.49,111.83c2.2,3.61,3.83,5.9,4.57,8.67,3.16,11.82,2.79,23.89.92,35.65-1.69,10.63.29,21.33-2.7,32.05,9.64.95,18.58.98,27.46-.53,6.93-1.18,12.19-6.73,12.3-13.72.21-14.33.81-28.7-.89-42.98-1.2-10.15-4.76-13.57-14.77-15.34-3.25-.57-6.43-1.62-9.7-2.06-5.25-.71-10.55-1.09-17.19-1.74Z" fill="#ccd647" stroke-width="0"/><path d="m244.19,289.43c-19.71-2.88-38.39-.84-55.81,9.25-4.73,2.74-8.47,6.3-11.37,11.06-4.94,8.11-10.83,15.51-18.45,21.37-.69.53-1.69,1.01-1.2,2.22.15.09.3.26.42.24,15.22-2.71,30.42-2.48,45.6.41,1.85.35,3.39-.41,4.88-1.36,16.14-10.19,25.9-25.91,35.92-41.4.14-.22.02-.6.02-1.8Z" fill="#66a147" stroke-width="0"/><path d="m150.34,114.32c-3.78-.35-6.95.74-10.16,1.28-10.76,1.78-14.39,6.01-15.36,16.85-1.21,13.52-.75,27.06-.71,40.59.01,5.08,2.22,10.22,6.17,12.67,5.26,3.26,11.81,3.37,18.14,2.34-2.9-16.78-1.76-61.58,1.92-73.73Z" fill="#edf2b0" stroke-width="0"/><path d="m166.7,112.27c-9.07-1.41-14.47,2.26-15.77,10.14-.28,1.7-.27,3.45-.4,5.17-1.3,16.98-.77,33.97-.6,50.97.09,8.56,1.6,12.06,13.12,9.14.28-17.4-3.23-34.46-2.85-51.79.18-8.29.4-16.4,6.5-23.63Z" fill="#f8f8f6" stroke-width="0"/><path d="m130.05,364.55c.44,9.51,3.51,11.19,11.82,7.59-3.56-2.76-8.1-3.53-11.82-7.59Z" fill="#3e6d23" stroke-width="0"/><path d="m368.87,242.34c3.43,4.71,1.52,22.13-3.02,26.46,1.32-9.47,2.18-17.95,3.02-26.46Z" fill="#3e6d23" stroke-width="0"/><path d="m259.24,134.01c-1.59-3.64-1.49-5.93.49-9.03,1.91,3.31,1.84,5.68-.49,9.03Z" fill="#3e6d23" stroke-width="0"/><path d="m240.16,125.17c2.46,4,2.48,4.53.52,8.15-2.43-2.6-1.84-5.02-.52-8.15Z" fill="#3e6d23" stroke-width="0"/><path d="m186.07,153.99c2.11,3.72,1.64,6.17.17,9.7-1.97-3.7-1.57-6.15-.17-9.7Z" fill="#3e6d23" stroke-width="0"/><path d="m157.68,351.12c-3.01,1.01-5.97,1.71-9.44-.59,3.73-1.36,6.65-1.63,9.44.59Z" fill="#3e6d23" stroke-width="0"/></svg>