<?xml version="1.0" encoding="UTF-8"?><svg xmlns="http://www.w3.org/2000/svg" viewBox="0 0 500 500"><g isolation="isolate"><g id="Layer_1"><path d="m126.82,289.28c6.18,12.35,14.69,23.43,21.16,35.65,6.88,12.98,14.29,24.7,23.01,36.52,5.35,7.25,12.88,14.48,18.64,22.28,1.94,5.06,4.11,9.96,7.11,14.02,1.79,2.43,5.91.11,4.12-2.41-6.14-8.61-8.95-21.11-13.38-30.86,1.45,2.42,3.02,4.77,4.74,6.99,1.63,2.11,4.4-.58,3.45-2.66-4.9-10.61-10.12-21.11-15.3-31.63-.49-3-.97-5.99-1.5-8.9-2.35-12.93-1.22-26.19-3.85-39.11-2.6-12.76-7.17-25-11.59-37.21-9.16-25.32-17.1-52.36-21.17-79.04-2.03-13.29-2.6-26.17-5.69-39.37-1.45-6.18-2.76-12.44-3.97-18.67-1.23-6.3.26-12.45-.79-18.75-.3-1.78-3.13-2.59-4.26-1.12-3.08,3.97-3.87,8.32-4.9,13.16-1.46,6.9-3.23,13.8-4.22,20.78-1.9,13.36-2.53,27.32-2.45,40.81.04,6.66,1.03,13.31.86,19.95-.17,6.69-.98,13.38-1.22,20.08-.5,14.3.35,28.37,2.42,42.53,1.82,12.46,3.1,25.54,8.79,36.94Z" fill="#90c73e" stroke-width="0"/><path d="m199.97,406.53c-2.27-1.59-4.62-3.06-6.96-4.65-6.08-4.12-11.33-9.14-16.37-14.44-10.07-10.57-21.46-21.23-30-33.07-7.78-10.78-13.32-22.16-23.12-31.42-5.76-5.44-15.52-16.06-24.32-15.17-1.75.18-2.69,1.45-2.42,3.17,2.07,13.08,11.08,25.9,17.8,37.03,6.75,11.19,13.47,22.75,21.99,32.72,7.84,9.18,16.67,14.79,27.86,18.94,12.59,4.66,27.72,6.39,38.42,14.97,2.39,1.92,5.76-1.22,3.45-3.45-1.89-1.82-4.03-3.33-6.32-4.63Z" fill="#90c73e" stroke-width="0"/><path d="m400.58,240.11c-8.65.87-19,9.14-26.17,13.34-10.74,6.28-21.4,12.86-31.82,19.7,13.17-11.34,24.2-24.74,33.95-39.26,10.99-16.36,21.62-36.28,23.65-56.19,1.13-11.14.49-22.55.4-33.73-.05-6.3-.32-12.69.06-18.99.37-6,1.89-11.8,2.09-17.81.11-3.36-4.33-3.42-5.43-.74-7.92,19.39-23.78,34.32-33.07,53.27-4.07,8.32-7.34,16.76-9.69,25.72-2.81,10.7-7.76,20.63-12.49,30.59-9.17,19.27-19.5,37.9-31.23,55.73-5.87,8.92-11.74,17.78-19.41,25.28-3.58,3.5-7.79,6.31-11.35,9.67-1.3,1.23-2,1.09-2.38,2.98-.05.24,0,.44.08.62-2.32,2.02-4.58,4.14-6.75,6.45-2.32,2.46,1.27,6.07,3.72,3.72,7.55-7.26,15.24-13.72,24-19.19,4.93-1.37,8.99-4.15,13.17-7.48,2.63-1.46,5.26-2.95,7.85-4.47-1.08.85-2.15,1.71-3.21,2.58-.47-.33-1.25-.26-1.36.43-.06.33-.18.65-.31.98-4.64,3.89-9.12,7.98-13.4,12.33-9.35,9.51-19.21,18.59-26.65,29.73-.79,1.18,1.07,2.21,1.88,1.1,2.83-3.87,5.97-7.47,9.27-10.92-3.09,3.92-5.53,7.6-7.71,12.38-2.05,4.5-5.23,9.27-6.13,14.09-.36,1.96,1.09,3.39,2.82,3.25-1.47.79-2.94,1.59-4.41,2.38-3.1,1.67-.38,6.08,2.72,4.66,15.77-7.23,30.19-16.53,45.44-24.68,12.28-6.56,24.71-12.96,35.12-22.38,10.68-9.66,18.81-21.75,26.88-33.56,8.39-12.28,17.15-24.18,22.42-38.2.57-1.52-.93-3.54-2.57-3.37Z" fill="#90c73e" stroke-width="0"/><path d="m371.14,318.16c-15.85,4.93-30.98,12.29-45.39,20.86-.24-.27-.61-.4-.97-.14-6.98,5.03-15.3,8.42-21.96,13.77-2,1.61-3.75,3.29-5.34,5.05-1.61,1.16-3.22,2.32-4.81,3.49-.83.61-.07,1.99.83,1.41.02-.01.04-.03.07-.04-2.67,3.68-4.98,7.62-7.52,11.79-1.99,3.27,3.63,5.03,4.49,2.15,9.52-1.76,18.42-5.13,27.35-8.84,7.69-3.2,15.69-6.18,22.51-11.05,6.88-4.9,12.71-11.58,18.64-17.57,5.5-5.55,10.59-10.93,14.61-17.63.97-1.62-.65-3.83-2.5-3.25Z" fill="#90c73e" stroke-width="0"/><path d="m199.21,395.19c-3.01-11-12.44-19.93-19.06-28.89-7.85-10.62-16.06-21.37-22.15-33.11-6.14-11.84-12.28-23.3-19.34-34.63-7.41-11.89-11.12-22.96-13.38-36.7-2.32-14.08-4.17-28.11-4.15-42.4.01-13.66,1.65-27.09.76-40.72-.85-13.12,0-26.44.97-39.54.53-7.11,1.69-14,3.14-20.96,1.35-6.42,1.49-14.78,5.52-20.14-1.55-.2-3.1-.41-4.66-.61,1.26,6.19-.1,12.39,1.18,18.64,1.27,6.21,2.62,12.46,4.07,18.64,3.2,13.61,3.54,27.26,6.02,40.89,4.97,27.34,12.28,54.38,21.6,80.53,4.49,12.6,9.1,25.36,11.09,38.63,1.87,12.5,1.04,25.23,3.66,37.65,2.47,11.66,3.33,23.44,8.52,34.3,4.65,9.74,7.31,22.26,13.73,30.95,1.79,2.43,5.91.11,4.12-2.41-6.18-8.68-8.99-21.31-13.48-31.1-5.05-11-6.36-24.05-8.52-35.96-2.35-12.93-1.22-26.19-3.85-39.11-2.6-12.76-7.17-25-11.59-37.21-9.16-25.32-17.1-52.36-21.17-79.04-2.03-13.29-2.6-26.17-5.69-39.37-1.45-6.18-2.76-12.44-3.97-18.67-1.23-6.3.26-12.45-.79-18.75-.3-1.78-3.13-2.59-4.26-1.12-3.08,3.97-3.87,8.32-4.9,13.16-1.46,6.9-3.23,13.8-4.22,20.78-1.9,13.36-2.53,27.32-2.45,40.81.04,6.66,1.03,13.31.86,19.95-.17,6.69-.98,13.38-1.22,20.08-.5,14.3.35,28.37,2.42,42.53,1.82,12.46,3.1,25.54,8.79,36.94,6.18,12.35,14.69,23.43,21.16,35.65,6.88,12.98,14.29,24.7,23.01,36.52,8.03,10.88,20.99,21.69,25.47,34.51.6,1.72,3.25,1.04,2.76-.76h0Z" fill="#3c1f0b" stroke-width="0"/><path d="m205.48,411.01c-3.78-3.69-8.14-6.2-12.48-9.13-6.08-4.12-11.33-9.14-16.37-14.44-10.07-10.57-21.46-21.23-30-33.07-7.78-10.78-13.32-22.16-23.12-31.42-5.76-5.44-15.52-16.06-24.32-15.17-1.75.18-2.69,1.45-2.42,3.17,2.07,13.08,11.08,25.9,17.8,37.03,6.75,11.19,13.47,22.75,21.99,32.72,7.84,9.18,16.67,14.79,27.86,18.94,12.59,4.66,27.72,6.39,38.42,14.97,2.39,1.92,5.76-1.22,3.45-3.45-7.19-6.91-17.86-9.45-27.08-12.31-13.25-4.11-25.48-7.64-35.48-17.91-9.29-9.54-16.07-21.4-22.98-32.69-7.07-11.55-16.91-25.06-19.14-38.64-.81,1.06-1.61,2.11-2.42,3.17,5.9-.63,13.86,7.21,17.53,10.53,5.15,4.65,9.94,9.26,14,14.94,6.57,9.2,11.64,19.01,19.55,27.2,8.54,8.85,16.99,17.91,25.78,26.51,3.4,3.33,6.93,6.55,10.75,9.4,5.47,4.08,11.9,6.71,16.86,11.47,1.2,1.15,3.03-.66,1.83-1.83h0Z" fill="#3c1f0b" stroke-width="0"/><path d="m279.62,310.2c.44-1.78,6.7-5.05,8.22-6.33,3.76-3.16,7.48-6.46,10.82-10.06,6.45-6.96,11.8-14.93,17.21-22.7,12.53-17.97,23.13-37.17,32.68-56.86,8.63-17.79,12.73-37.05,21.83-54.55,9.53-18.31,24.47-32.71,32.27-51.8-1.81-.25-3.62-.49-5.43-.74-.36,10.8-2.19,21.14-2.07,32.05.12,10.81.6,21.69.12,32.49-1.01,22.54-12.65,43.8-25.11,62.07-12.77,18.74-28.24,35.38-47.54,47.52-18.07,11.37-36.69,19.66-51.58,35.43-2.32,2.46,1.27,6.07,3.72,3.72,8.88-8.54,17.94-15.99,28.74-22,10.01-5.57,20.19-10.91,29.49-17.63,17.6-12.73,31.53-29,43.57-46.93,10.99-16.36,21.62-36.28,23.65-56.19,1.13-11.14.49-22.55.4-33.73-.05-6.3-.32-12.69.06-18.99.37-6,1.89-11.8,2.09-17.81.11-3.36-4.33-3.42-5.43-.74-7.92,19.39-23.78,34.32-33.07,53.27-4.07,8.32-7.34,16.76-9.69,25.72-2.81,10.7-7.76,20.63-12.49,30.59-9.17,19.27-19.5,37.9-31.23,55.73-5.87,8.92-11.74,17.78-19.41,25.28-3.58,3.5-7.79,6.31-11.35,9.68-1.3,1.23-2,1.09-2.38,2.98-.25,1.24,1.61,1.78,1.92.53h0Z" fill="#3c1f0b" stroke-width="0"/><path d="m276.71,336.46c7.76-10.63,17.87-19.21,27.3-28.3,9.99-9.63,20.95-18.01,32.56-25.59,11.34-7.41,22.98-14.45,34.63-21.35,5.47-3.24,11.01-6.36,16.58-9.42,3.07-1.69,9.07-6.01,12.79-6.36-.86-1.12-1.71-2.25-2.57-3.37-5.16,13.5-13.89,25.03-21.99,36.86-8.4,12.27-16.86,24.77-28.34,34.42-11.17,9.4-24.53,15.31-37.15,22.41-13.28,7.46-26.56,14.66-39.97,21.89-3.1,1.67-.38,6.08,2.72,4.66,15.77-7.23,30.19-16.53,45.44-24.68,12.28-6.56,24.71-12.96,35.12-22.38,10.68-9.66,18.81-21.75,26.88-33.56,8.39-12.28,17.15-24.18,22.42-38.2.57-1.52-.93-3.54-2.57-3.37-8.65.87-19,9.14-26.16,13.34-13.6,7.96-27.09,16.37-40.12,25.23-11.78,8.02-22.82,16.78-32.82,26.95-9.35,9.51-19.21,18.59-26.65,29.73-.79,1.18,1.07,2.21,1.88,1.1h0Z" fill="#3c1f0b" stroke-width="0"/><path d="m293.5,362.6c11.96-7.75,23.89-15.56,36.5-22.24,12.89-6.84,28-14.66,42.32-17.92-.83-1.08-1.67-2.17-2.5-3.25-4.31,6.69-9.6,12.13-15.27,17.7-5.95,5.85-11.81,12.51-18.92,16.96-13.88,8.69-31.3,14-47,18.33-2.92.81-1.66,4.97,1.23,4.47,9.78-1.72,18.88-5.18,28.02-8.98,7.69-3.2,15.69-6.18,22.51-11.05,6.88-4.9,12.71-11.58,18.64-17.57,5.5-5.55,10.59-10.93,14.61-17.63.97-1.62-.65-3.83-2.5-3.25-28.48,8.85-54.61,25.56-78.46,43.03-.83.61-.07,1.99.83,1.41h0Z" fill="#3c1f0b" stroke-width="0"/><path d="m127.87,106.04c-.25,12.31-4.17,24.37-2.82,36.77,1.35,12.45,2.59,24.89,3.9,37.36,2.45,23.32,8.86,45.78,15.54,68.19,3.24,10.88,5.27,21.76,7.68,32.84,2.24,10.32,6.13,20.34,10.23,30.06,4.33,10.25,9.77,19.98,14.14,30.24,4.37,10.28,8.79,21.06,15.67,29.96,1.63,2.11,4.4-.58,3.45-2.66-8.86-19.22-18.8-38.06-27.66-57.31-9.74-21.18-13.12-43.71-20.02-65.74-7.1-22.68-13.22-45.19-16.31-68.8-1.49-11.45-2.63-22.9-4.13-34.34-1.61-12.32,2.03-24.27,1.34-36.58-.04-.64-.99-.65-1.01,0h0Z" fill="#3c1f0b" stroke-width="0"/><path d="m119.02,197.11c-.42,9.07,4.91,18.26,8.36,26.44,4.14,9.8,8.71,19.45,12.52,29.38,2.9,7.56,5.18,15.27,8.35,22.73,3.61,8.48,7.51,17.15,10.8,25.76.67,1.75,3.47,1.06,2.86-.79-5.06-15.43-12.25-30.42-17.94-45.66-3.15-8.45-7.18-16.59-10.92-24.79-4.56-9.99-12.02-22.06-12.84-33.07-.06-.76-1.16-.78-1.2,0h0Z" fill="#3c1f0b" stroke-width="0"/><path d="m121.78,254.37c.6.08,7.56,14.78,8.42,16.02,3.74,5.43,7.59,10.96,11.72,16.1,4.58,5.7,9.36,11.22,13.78,17.05,3.58,4.72,5.7,12.26,10.15,16.06,1.06.91,2.99.07,2.51-1.46-8.09-25.43-36-39.32-45.28-64.57-.1-.28-.35-.53-.67-.51-.15,0-.3.02-.44.03-.68.05-.95,1.18-.17,1.28h0Z" fill="#3c1f0b" stroke-width="0"/><path d="m158.62,244.98c-.57,21.44.95,41.82,5.19,62.83.36,1.76,3,1.01,2.68-.74-3.83-20.72-5.89-41.02-6.48-62.1-.02-.89-1.37-.9-1.39,0h0Z" fill="#3c1f0b" stroke-width="0"/><path d="m166.25,268.91c-.42,10.18-1.44,20.33-1.75,30.52-.19,6.33-1.27,13.19,1.42,19.1.55,1.21,2.41.34,2.09-.88-3.97-15.3.47-33.05-.45-48.73-.05-.84-1.27-.85-1.31,0h0Z" fill="#3c1f0b" stroke-width="0"/><path d="m102.11,312.75c.19,0,8.18,11.24,8.74,11.91,4.12,4.91,8.14,9.88,12.06,14.94,7.68,9.9,14.75,20.3,21.83,30.63,5.99,8.73,12.66,17.4,20.62,24.45,8.16,7.23,17.18,8.54,27.3,11.55,2.06.61,3.56-2.67,1.5-3.56-9.93-4.31-19.17-5.03-27.49-12.78-8.75-8.14-15.52-17.89-22.6-27.43-5.89-7.94-11.73-15.93-18.04-23.56-7.54-9.12-16.15-17.52-23-27.17-.18-.26-.45-.38-.76-.31-.11.02-.22.05-.34.07-.71.15-.54,1.26.17,1.26h0Z" fill="#3c1f0b" stroke-width="0"/><path d="m125.03,362.74c3.4,3.29,7.46,4.95,11.71,7.04,5.01,2.46,10.49,5.41,15.05,8.6.94.66,2.11-.85,1.24-1.6-3.69-3.2-9.33-5.68-13.71-7.88-4.56-2.29-9.08-4.84-13.56-7.1-.59-.3-1.24.45-.73.94h0Z" fill="#3c1f0b" stroke-width="0"/><path d="m135.22,378.09c2.08.6,3.79,2.27,5.76,3.16,2.19.98,4.55,1.48,6.87,2.06,3.6.9,7.07,3.88,10.88,3.47,1.39-.15,1.44-2.12,0-2.21-3.97-.23-8.11-2.4-12.02-3.26-4.08-.91-7.3-3.28-11.17-4.4-.76-.22-1.08.96-.33,1.18h0Z" fill="#3c1f0b" stroke-width="0"/><path d="m156.15,371.5c2.7,1.93,2.46,6.28,3.15,9.18.39,1.62.94,3.23,1.56,4.77.56,1.4,1.75,2.57,2.21,3.97.39,1.16,2.01.68,1.81-.5-.33-1.91-1.82-3.44-2.58-5.23-.83-1.96-1.43-3.87-1.93-5.93-.68-2.79-1.25-5.42-3.74-7.12-.53-.36-1,.48-.5.85h0Z" fill="#3c1f0b" stroke-width="0"/><path d="m164.65,379.83c.2,2.27.62,4.51.94,6.77.27,1.84.54,3.55,1.92,4.89.74.71,1.78-.36,1.12-1.12-2.18-2.51-2.67-7.35-2.97-10.53-.06-.64-1.06-.65-1.01,0h0Z" fill="#3c1f0b" stroke-width="0"/><path d="m396.35,117.38c-3.23,7.45-4.43,15.07-6.06,22.97-1.93,9.32-5.44,18.12-8.47,27.1-6.01,17.79-9.11,36.01-18.8,52.39-8.65,14.61-17.99,28.39-28.33,41.87-5.38,7.02-10.16,14.77-16.93,20.57-7.09,6.07-14.75,13.93-24.18,15.4-2.49.39-1.92,4.62.6,4.42,7.78-.63,13.21-4.61,19.14-9.43,7.04-5.72,13.08-10.96,18.66-18.19,11.12-14.4,21.13-29.01,30.83-44.32,10.16-16.03,14.98-32.65,19.68-50.86,2.68-10.37,6.5-20.41,8.98-30.84,2.41-10.14,2.57-20.71,6.09-30.58.25-.69-.9-1.19-1.2-.5h0Z" fill="#3c1f0b" stroke-width="0"/><path d="m366.12,161.05c-4.44,3.65-5.3,13.2-6.1,18.62-1.73,11.77-4.45,23.02-7.76,34.44-2.99,10.34-6.74,20.38-10.82,30.34-3.97,9.69-7.01,19.56-11.75,28.98-.7,1.38,1.2,3.14,2.29,1.77,5.21-6.53,7.4-14.89,10.01-22.65,3.36-9.99,7.93-19.56,11.11-29.63,3.15-9.99,5.5-20.26,7.37-30.56.77-4.27,1.26-8.38,1.69-12.68.45-4.47,1.19-14.43,4.84-17.74.61-.55-.27-1.39-.89-.89h0Z" fill="#3c1f0b" stroke-width="0"/><path d="m347.27,211.54c-2.85,12.12-7.35,24.61-11.65,36.28-5.09,13.82-10.01,26.08-21.08,36.21-1.65,1.51.86,4.04,2.47,2.47,9.74-9.53,14.01-19.48,18.66-32.02,5.05-13.59,10.2-28.32,12.82-42.6.14-.78-1.02-1.13-1.21-.33h0Z" fill="#3c1f0b" stroke-width="0"/><path d="m396.31,180.6c-2.81,8.39-5.27,15.21-10.96,22.09-3.31,4-6.75,7.82-9.84,12-7.72,10.43-15.99,21.26-24.79,30.8-1.53,1.66.93,4.14,2.49,2.49,9.1-9.68,17.31-20.88,24.97-31.73,3.89-5.51,8.58-10.41,12.36-15.99,4.07-6.01,5.33-12.34,6.98-19.33.19-.79-.95-1.1-1.21-.33h0Z" fill="#3c1f0b" stroke-width="0"/><path d="m379.97,220.29c-2.84,8.01-13.92,14.37-20.09,19.61-5.73,4.87-11.43,9.57-16.71,14.96-1.55,1.58.86,4,2.43,2.43,6.49-6.51,13.23-12.63,20.15-18.67,5.35-4.67,13.47-10.8,15.43-17.99.21-.79-.94-1.09-1.21-.33h0Z" fill="#3c1f0b" stroke-width="0"/><path d="m394.42,244.99c-.49-.11-10.13,11.68-11.34,12.92-4.2,4.3-8.71,8.27-12.82,12.65-7.82,8.33-16.32,16.26-24.7,24.03-19.15,17.77-42.51,32.28-63.73,47.48-2.59,1.85-.11,6.17,2.52,4.31,11.48-8.17,22.98-16.3,34.22-24.8,10.6-8.02,21.88-15.42,31.41-24.72,8.91-8.7,17.34-17.73,25.78-26.85,7.04-7.61,16.59-15.21,19.86-25.39.13-.4-.22-.87-.64-.85-.13,0-.25.02-.38.02-.66.04-.87,1.04-.16,1.2h0Z" fill="#3c1f0b" stroke-width="0"/><path d="m375.46,256.21c-18.22,18.74-34.63,39.39-53.78,57.14-1.48,1.37.71,3.51,2.2,2.2,19.48-17.14,35.67-38.72,52.47-58.45.52-.61-.32-1.47-.89-.89h0Z" fill="#3c1f0b" stroke-width="0"/><path d="m347.23,274.57c-3.23,9.13-11.22,16.91-16.52,24.88-5.3,7.98-10.47,15.75-17.86,22-1.61,1.37.74,3.74,2.33,2.33,7.48-6.64,12.57-14.58,17.88-22.95,5.1-8.04,13.43-16.37,15.46-25.9.18-.84-1-1.16-1.29-.35h0Z" fill="#3c1f0b" stroke-width="0"/><path d="m374.27,285.97c-8.47,6.82-17.18,14.79-26.96,19.65-11.09,5.5-23.32,7.3-34.82,11.61-1.64.62-1.01,2.95.72,2.63,12.08-2.25,24.7-5.88,35.64-11.59,9.93-5.19,18.32-13.7,26.34-21.37.62-.59-.28-1.44-.93-.93h0Z" fill="#3c1f0b" stroke-width="0"/><path d="m369.2,324.49c-12.06,7.09-22.75,16.81-34.78,24.17-13.6,8.33-27.47,13.74-42.49,18.92-2.19.75-1.32,4.06.96,3.49,29.9-7.33,54.24-25.74,76.96-45.73.47-.41-.13-1.17-.66-.86h0Z" fill="#3c1f0b" stroke-width="0"/><path d="m324.79,338.88c-6.98,5.03-15.3,8.42-21.96,13.77-7.68,6.17-11.78,13.48-16.78,21.7-2.18,3.57,4.76,5.35,4.61,1.25,0-.19-.01-.39-.02-.58-.06-1.71-1.69-2.43-3.14-1.8-.19.08-.37.16-.56.24,1.13,1.13,2.25,2.25,3.38,3.38,4.76-8.68,9.05-17.25,17.36-23.25,6.27-4.53,12.48-8.03,18.11-13.43.65-.63-.22-1.84-.99-1.28h0Z" fill="#3c1f0b" stroke-width="0"/><path d="m315.2,292.32c-.52,3.07-5.06,6.19-7.16,8.31-2.13,2.15-4.21,4.37-6.3,6.55-5.15,5.35-9.72,10.95-14.41,16.7-3.74,4.58-6.56,8.58-9.04,14.03-2.05,4.5-5.23,9.27-6.13,14.09-.44,2.35,1.74,3.98,3.88,2.98,2.95-1.39,5.75-.28,8.82-.85,2.5-.46,4.98-1.78,7.28-2.82,1.98-.9,1.06-4.51-1.14-4.21-5.95.79-12.17.75-17.62,3.33,1.29.99,2.58,1.99,3.88,2.98.94-5.47,4.96-12.67,7.53-17.63,3.49-6.76,8.87-13.2,13.59-19.17,4.53-5.74,9.42-11.3,14.27-16.77,2.18-2.45,4.19-3.9,4.28-7.28.03-.96-1.55-1.22-1.71-.23h0Z" fill="#3c1f0b" stroke-width="0"/><path d="m184.51,235.07c-5.79,4.05-6.18,12.33-5.99,19.39,1.37,51.44,2.74,102.89,4.11,154.33.11,3.98,2.22,8.2,5.36,10.64s6.96,3.83,10.74,5.1c17.26,5.82,35.17,10.12,53.37,10.89,18.2.77,36.76-2.08,53.18-9.98,6.87-3.3,13.6-7.76,17.19-14.49,3.31-6.22,3.52-13.57,3.65-20.62.9-48.05,1.8-96.09,2.7-144.14.05-2.41.07-4.91-.93-7.11-1.01-2.19-3.37-3.96-5.73-3.47-46.12-2.38-91.55-3.29-137.64-.56Z" fill="#ff8c58" stroke-width="0"/><path d="m322.16,235.62c-21.94-1.13-43.72-1.91-65.49-2.15-.08,0-.15,0-.23,0-.56.02-1.2,0-1.89-.04-1.8-.02-3.59-.01-5.39-.02-1.93.21-3.64.81-4.54,2.32-2.26,3.77,1.09,4.69,3.89,5.96,10.97,4.98,23.15,8.21,34.51,12.24,1.63.58,3.33,1.21,4.44,2.53,2.86,3.41-.16,8.75-4.03,10.95-3.87,2.19-8.59,2.94-11.86,5.95-5.9,5.44-4.03,15.54.93,21.85,4.96,6.31,12.19,10.44,17.62,16.34,8.01,8.7,11.58,20.77,12.13,32.58.56,11.82-1.63,23.57-3.8,35.2-.58,3.12-1.26,6.43-3.44,8.74-3.57,3.79-9.55,3.46-14.75,3.21-25.44-1.24-50.41,6.21-74.79,13.59-7.43,2.25-15.15,4.7-21.91,8.43.92,2.41,2.48,4.61,4.43,6.13,3.14,2.44,6.96,3.83,10.74,5.1,17.26,5.82,35.17,10.12,53.37,10.89,18.2.77,36.76-2.08,53.18-9.98,6.87-3.3,13.6-7.76,17.19-14.49,3.31-6.22,3.52-13.57,3.65-20.62.9-48.05,1.8-96.09,2.7-144.14.05-2.41.07-4.91-.93-7.11-1.01-2.19-3.37-3.96-5.73-3.47Z" fill="#ff8c58" mix-blend-mode="multiply" opacity=".43" stroke-width="0"/><path d="m315.92,225.78c3.09.68,6.32,1.5,8.59,3.69,2.28,2.19,3.11,6.2.91,8.48-1.44,1.49-3.66,1.82-5.71,2.06-38.65,4.54-77.7,5.33-116.55,3.18-4.07-.22-21.14,1.22-21.24-5.81-.07-5.37,14.49-7.68,18.01-8.64,17.68-4.83,35.92-7.62,54.23-8.37,20.7-.84,41.52.94,61.76,5.39Z" fill="#ffac85" stroke-width="0"/><path d="m191.36,212.29c-.12,6.33,1.05,12.59,1.85,18.87,5.5,42.9-6.03,86.49-1.76,129.53.4,4.03,2.13,9.15,6.18,9.09,2.36-.04,4.29-2.11,4.96-4.37s.37-4.69.08-7.03c-5.16-41.82-3.97-84.42,3.51-125.89,1.24-6.86,2.65-13.83,1.77-20.74-.61-4.75-3.68-14.48-9.21-15.91-5.85-1.51-7.29,11.9-7.38,16.45Z" fill="#ff8c58" mix-blend-mode="screen" stroke-width="0"/><path d="m203.27,79.09c-.73,3.63,0,7.37.72,11,3.44,17.21,6.89,34.42,10.33,51.63.77,3.85,1.75,8.05,4.89,10.41,2.66,2,6.22,2.17,9.54,2.26,16.8.46,33.76.91,50.27-2.2,3.17-.6,6.44-1.39,8.91-3.46,2.43-2.04,3.77-5.05,5.03-7.96,2.3-5.3,4.63-10.71,5.2-16.46.68-6.91-1.24-13.83-1.01-20.76.25-7.63,3.09-14.93,4.24-22.48.54-3.54.61-7.46-1.52-10.34-2.53-3.42-7.25-4.22-11.5-4.57-25.56-2.16-49.99,2.61-75.24,5.23-5.15.53-8.68,1.79-9.87,7.69Z" fill="#ffce7b" stroke-width="0"/><path d="m279.03,152.2c3.17-.6,6.44-1.39,8.91-3.46,2.43-2.04,3.77-5.05,5.03-7.96,2.3-5.3,4.63-10.71,5.2-16.46.68-6.91-1.24-13.83-1.01-20.76.25-7.63,3.09-14.93,4.24-22.48.54-3.54.61-7.46-1.52-10.34-2.53-3.42-7.25-4.22-11.5-4.57-4.54-.38-9.03-.54-13.51-.54-4.71,4.06-9.12,8.84-11.64,13.81-5.08,10,10.06,8.4,13.78,13.6,2.45,3.42,1.04,8.24-1.13,11.85s-5.08,7.02-5.58,11.2c-.56,4.7,2.09,9.36,1.43,14.05-.57,4.08-3.63,7.46-7.22,9.48-3.59,2.02-7.69,2.89-11.72,3.74-11.3,2.37-22.59,4.75-33.89,7.12-.37.08-.75.17-1.12.26.42.51.88.98,1.42,1.39,2.66,2,6.22,2.17,9.54,2.26,16.8.46,33.76.91,50.27-2.2Z" fill="#e7b067" stroke-width="0"/><path d="m299.87,70.74c-2.53-3.42-7.25-4.22-11.5-4.57-25.56-2.16-49.99,2.61-75.24,5.23-3.33.35-5.97,1-7.76,3.01-.16.76-.27,1.55-.26,2.41.02,3.46,2.54,6.53,5.6,8.14,3.06,1.62,6.59,2.04,10.04,2.32,25.68,2.08,51.54-2.4,76.17-9.95,1.66-.51,3.51-1.32,4.56-2.58-.25-1.45-.74-2.82-1.62-4.02Z" fill="#ffdca0" stroke-width="0"/><path d="m198.95,111.4c3.7,1.63,6.79,3.81,10.81,5.1,5.17,1.65,9.71,1.29,15.06,1.58,9.78.53,19.55,1.13,29.36,1,9.37-.12,18.95-.85,28.11-2.86,5.74-1.26,15.01-2.16,19.34-6.6.27-.28.08-.81-.33-.79-5.74.27-11.65,2.65-17.42,3.42-9.84,1.31-19.78,1.95-29.7,2.02-8.65.06-17.39-.04-26.01-.67-4.91-.36-9.85.09-14.7-.64-4.69-.71-9.29-2.17-13.95-2.9-.74-.12-1.4.98-.57,1.34h0Z" fill="#3c1f0b" stroke-width="0"/><path d="m206.71,101.73c-14.23.52-24.47,14.44-18.13,27.68,7.55,15.78,28.64,14.89,43.75,14.09,1.56-.08,1.56-2.34,0-2.43-10.42-.55-28.31.63-36.24-6.89-12.79-12.13-3.85-27.56,10.8-31.17.71-.17.57-1.31-.17-1.28h0Z" fill="#3c1f0b" stroke-width="0"/><path d="m243.17,143.46c1.83.14,3.57.38,5.42.29,1.24-.06,1.25-1.87,0-1.93-1.84-.09-3.59.15-5.42.29-.88.07-.88,1.3,0,1.36h0Z" fill="#3c1f0b" stroke-width="0"/><path d="m259.23,142c.98.17,1.9.35,2.85,0,.68-.25.68-1.14,0-1.39-.95-.35-1.87-.17-2.85,0-.69.12-.69,1.27,0,1.39h0Z" fill="#3c1f0b" stroke-width="0"/><path d="m270.45,141.02c3.97-1.08,8.9-.06,13.02-.56,4.3-.51,8.67-1.47,12.87-2.51,6.37-1.57,14.73-4.12,18.75-9.88,8.75-12.54-1.85-27.48-14.73-30.16-2.61-.54-3.74,3.44-1.11,4.02,10.42,2.31,17,11.22,13.23,21.66-1.91,5.28-6.97,7.67-12.06,9.53-6.51,2.38-13.42,4-20.31,4.89-3.24.42-7.51-.24-10.23,1.68-.64.45-.28,1.55.56,1.32h0Z" fill="#3c1f0b" stroke-width="0"/><path d="m296.89,112.03c1.95-6.91,4.5-13.81,5.42-21.2.64-5.13,4.71-15.1,1.47-19.85-3.8-5.56-15.74-6.27-21.74-7.07-10.03-1.33-20.46-.75-30.55-.13-9.34.57-18.73,2.26-28.01,3.34-6.39.74-13.97,1.49-18.88,6.12-12.73,12,15.82,13.21,21.11,14.19,1.04.19,1.5-1.36.44-1.6-4.56-1.04-11.88-.7-15.59-3.38-12.17-8.81,6.26-10.83,12.07-11.55,14.03-1.73,27.99-3.01,42.11-3.8,7.87-.44,15.63-.59,23.41,1.06,2.23.47,4.9,1.24,7.01,2.11,5.72,2.36,5.93,4.97,4.87,10.4-1.21,6.16-1.68,12.4-2.81,18.6-.75,4.12-2.04,8.34-2.39,12.49-.1,1.2,1.75,1.39,2.06.28h0Z" fill="#3c1f0b" stroke-width="0"/><path d="m236.27,87.42c1.92.1,3.89.19,5.81.39,1.69.17,3.32.77,5.03.62,1.03-.09,1.06-1.69,0-1.64-1.7.08-3.33-.38-5.03-.36-1.94.03-3.88.29-5.81.38-.39.02-.39.58,0,.6h0Z" fill="#3c1f0b" stroke-width="0"/><path d="m255.2,88.37c8.62-2.28,18.02-.53,26.8-3.07,6.35-1.84,15.59-5.09,19.91-10.34.81-.98.61-2.07-.36-2.82-.12-.1-.25-.19-.37-.29-1.41-1.09-3.12.97-2.33,2.33.07.11-19.15,8.95-20.88,9.36-7.44,1.74-16.04.7-23.18,3.31-.94.34-.58,1.79.42,1.52h0Z" fill="#3c1f0b" stroke-width="0"/><path d="m202.37,77.51c1.82,4.5,1.03,11.39,2,16.27,1.32,6.65,1.07,14.01,2.95,20.45.69,2.38,4.27,1.39,3.71-1.02-1.65-7.01-1.63-14.32-3.45-21.38-1.17-4.54-1.01-11.05-3.51-15.03-.53-.84-2.1-.3-1.69.71h0Z" fill="#3c1f0b" stroke-width="0"/><path d="m209.15,121.11c-.05,1.25.49,2.5.3,3.75-.16,1.06,1.4,1.26,1.45.2.06-1.38-.62-2.59-.71-3.94-.04-.66-1.01-.67-1.04,0h0Z" fill="#3c1f0b" stroke-width="0"/><path d="m210.66,129.35c-.25,1.12.08,2.19.32,3.29.17.76.13,1.48.22,2.24.1.85.51,1.62.51,2.49,0,1.2,1.78,1.18,1.85,0,.05-.73-.13-1.3-.34-2-.23-.77-.18-1.52-.34-2.29-.26-1.24-1.18-2.31-1.21-3.6-.01-.55-.86-.71-.99-.13h0Z" fill="#3c1f0b" stroke-width="0"/><path d="m213.6,145.38c1.02,6.96,2.49,11.36,10.02,12.52,10.47,1.61,21.97.39,32.52-.05,9.29-.39,19.46-1.25,28.42-3.87,6.98-2.04,9.31-8.45,10.88-15.21.47-2-2.46-2.81-3.07-.85-.84,2.67-2.15,7.33-3.95,9.62-2.36,3.01-6.15,3.78-9.72,4.34-7.87,1.23-15.79,2.29-23.74,2.47-6.57.15-13.24-.71-19.7-.26-3.99.27-9.46,1.36-13.41.02-4.48-1.53-5-5.69-7.3-9.12-.34-.51-1.03-.17-.95.4h0Z" fill="#3c1f0b" stroke-width="0"/><path d="m294.99,136.67c.35-1.91.28-3.94.92-5.78.55-1.58,1.37-3.05.83-4.74-.33-1.02-2.06-1.53-2.57-.34-.66,1.55-1.38,3.39-1.72,5.05-.41,1.97-.03,3.87.38,5.81.22,1.05,1.96,1.08,2.15,0h0Z" fill="#3c1f0b" stroke-width="0"/><path d="m297.27,120.15c.61-.84.96-1.48.43-2.49-.37-.7-1.63-.59-1.77.23-.09.51-.38.98-.56,1.46-.45,1.18,1.26,1.67,1.89.8h0Z" fill="#3c1f0b" stroke-width="0"/><path d="m215.52,92.75c-.07.41-.72.71-.97,1.04-.41.52-.57,1.15-.66,1.79-.18,1.25.07,2.61.89,3.61,1.72,2.09,4.9,1.67,6.57-.2,1.94-2.17,2-5.3-.19-7.34-1.3-1.21-5.19-2.21-5.7.4-.05.26.12.59.43.57.51-.04,1.05-.25,1.55-.26.81-.02,1.48.77,1.98,1.35,1.12,1.3,1.12,3.14-.45,4.12-1.47.91-2.88-.36-2.71-1.92.13-1.21,1.18-1.84.79-3.15-.2-.69-1.39-.81-1.52,0h0Z" fill="#3c1f0b" stroke-width="0"/><path d="m216.28,93.09c.18,0,.18-.27,0-.27s-.18.27,0,.27h0Z" fill="#3c1f0b" stroke-width="0"/><path d="m214.12,94.94c-.04.54-.08,1.05-.01,1.59.03.24.35.25.38,0,.07-.54.03-1.05-.01-1.59-.02-.23-.34-.23-.35,0h0Z" fill="#3c1f0b" stroke-width="0"/><path d="m234.79,96.12c-2.1-.78-2.69,1.89-2.37,3.39.47,2.19,3.29,3.12,5.23,2.24.92-.42,1.49-1.56,1.78-2.48.3-.96.11-2-.57-2.75-1.29-1.42-3.9-1.61-5.5-.63-1.12.69-.37,2.32.87,2.07.86-.17,1.84-.29,2.66.13.19.1.37.21.41.37.09.33-.19,1.1-.44,1.31-.3.26-.95.18-1.31.11-.32-.06-.65-.18-.89-.4-.1-.09-.05-.03-.1-.18-.13-.36-.2-.8-.16-1.18.01-.13.02-.26.08-.37.03-.07-.24,0,.09.03,1.01.09,1.05-1.35.22-1.66h0Z" fill="#3c1f0b" stroke-width="0"/><path d="m256.56,101.12c.04-.07.08-.15.12-.22.45-.82.4-2.02-.35-2.67-.06-.05-.11-.1-.17-.15-.78-.7-1.85-.88-2.78-.36-.06.03-.12.06-.17.1-1.13.62-1.51,2.51-.44,3.39.63.52,1.18.8,2,.79l-1.56-.65c.07.06.15.12.22.18.96.76,2.46.83,3.12-.4h0Z" fill="#3c1f0b" stroke-width="0"/><path d="m227.41,108c2.47,0,2.48-3.84,0-3.84s-2.48,3.84,0,3.84h0Z" fill="#3c1f0b" stroke-width="0"/><path d="m242.12,109.4c1.72,0,1.72-2.67,0-2.67s-1.72,2.67,0,2.67h0Z" fill="#3c1f0b" stroke-width="0"/><path d="m272.56,92.56c.13-1.06-.82-1.46-1.68-.98-1.18.66-1.54,2.09-1.62,3.34-.08,1.26.02,2.5,1.19,3.24,1.5.95,3.32.8,4.97.45,1.14-.24,1.99-.6,2.45-1.74.61-1.53.8-3.17-.24-4.55-1.66-2.2-5.67-3.39-7.64-.89-.57.73-.08,2.15,1.02,1.75,1.21-.44,2.29-.83,3.5-.14.55.31,1.12.82,1.28,1.44.07.29-.08,1.66-.15,1.72-.28.24-1.14.27-1.48.33-.69.1-2.18.25-2.62-.46-.23-.36-.15-1.15-.14-1.55.01-.45.13-.81.2-1.24.04-.06.07-.12.11-.18.3-.27.19-.34-.32-.21.29.64,1.1.22,1.17-.32h0Z" fill="#3c1f0b" stroke-width="0"/><path d="m264.45,115.62c.02-1.08-.17-2.29.33-3.27.61-1.18,1.81-1.52,3.06-1.62.84-.07,2.17-.2,2.92.24,1.31.76,1.27,2.16,1.22,3.46-.06,1.49,2.24,1.48,2.32,0,.11-2.05.06-3.27-1.54-4.74-1.39-1.28-3.12-1.23-4.91-1.08-1.61.13-3.17.64-4.27,1.88-1.32,1.49-.96,3.32-.83,5.14.07,1.09,1.7,1.12,1.72,0h0Z" fill="#3c1f0b" stroke-width="0"/><path d="m285.33,88.58c-.01.1-.02.2-.04.31-.02.17.11.36.25.44,1,.54,2.41.22,3.48.09,1.92-.23,3.52-.32,5.33-1.09,1-.43.49-2.1-.55-2.03-1.03.07-1.75.62-2.73.89-.75.21-1.53.32-2.28.52-1.12.29-2.27.47-3.38.76-.06.02-.08.06-.09.12h0Z" fill="#3c1f0b" stroke-width="0"/><path d="m287.39,94.1c.47-.37,1.67.12,2.16.25,1.63.44,1.72-2.4,0-2-.57.13-1.16.1-1.73.25-.59.15-.85.43-1.2.9-.36.49.37.91.77.59h0Z" fill="#3c1f0b" stroke-width="0"/><path d="m286.64,98.58c.53.04,1.06.11,1.59.1,1.23-.03,1.23-1.88,0-1.91-.53-.01-1.06.05-1.59.1-1.1.09-1.11,1.63,0,1.72h0Z" fill="#3c1f0b" stroke-width="0"/><path d="m280.28,106.66c3.04.21,6.42-.23,9.4-.83,1.23-.25.71-2.21-.52-1.89-2.83.72-5.98,1.28-8.88,1.55-.75.07-.76,1.12,0,1.17h0Z" fill="#3c1f0b" stroke-width="0"/><path d="m283.61,109.78c.91.17,2.07-.04,2.58-.88.25-.41.07-.92-.31-1.17-.34-.22-.66-.28-1.06-.18-.33.08-.62.36-.96.36-1.04,0-1.34,1.67-.25,1.87h0Z" fill="#3c1f0b" stroke-width="0"/><path d="m241.32,75.67c5.47.14,11.15-.84,16.63-1.25,5.12-.38,10.34-.49,15.41-1.27,1.09-.17.67-1.66-.24-1.77-10.5-1.25-21.42,2.01-31.8,3.08-.75.08-.79,1.18,0,1.2h0Z" fill="#3c1f0b" stroke-width="0"/><path d="m254.58,77.57c4.96-.88,10-.35,14.97-.85,1.11-.11,1.09-1.58,0-1.72-4.86-.62-10.52.42-15.25,1.54-.67.16-.38,1.14.28,1.02h0Z" fill="#3c1f0b" stroke-width="0"/><path d="m261.6,80.85c2.87.12,6.14-.09,8.97-.59,1.02-.18.64-1.56-.22-1.66-2.84-.32-5.89.92-8.75,1.03-.79.03-.79,1.19,0,1.23h0Z" fill="#3c1f0b" stroke-width="0"/><path d="m215.38,77.16c1.42-.64,4.18-.55,5.8-.79,2.33-.34,4.69-.83,7.02-1.12.75-.09.76-1.09,0-1.17-2.39-.24-5.08.34-7.44.78-1.91.35-4.26.36-5.98,1.29-.67.37-.08,1.32.59,1.01h0Z" fill="#3c1f0b" stroke-width="0"/><path d="m219.89,79.48c.68-.61,1.91-.46,2.76-.45,1.19.03,2.38.05,3.57.05,1.07,0,1.07-1.65,0-1.66-2.02-.02-5.64-.5-7.19,1.19-.54.58.28,1.39.87.87h0Z" fill="#3c1f0b" stroke-width="0"/><path d="m223.44,82.14c.33,0,.64.03.97.09,1.34.27,1.35-1.88,0-1.6-.33.07-.64.09-.97.09-.91.02-.91,1.4,0,1.42h0Z" fill="#3c1f0b" stroke-width="0"/><path d="m218.24,127.23c7.01,1.21,14.23,1.72,21.3.66.88-.13.65-1.54-.21-1.53-6.92.09-14.2-.09-21.07.69-.09.01-.13.15-.02.17h0Z" fill="#3c1f0b" stroke-width="0"/><path d="m226.22,132.14c1.11.08,2.23.09,3.32.31.88.18,1.73.45,2.64.44,1.27-.02,1.26-1.9,0-1.96-.94-.05-1.87-.22-2.8-.27-1.06-.06-2.11.13-3.16.23-.8.08-.81,1.19,0,1.25h0Z" fill="#3c1f0b" stroke-width="0"/><path d="m231.22,136.08c.86.19,1.89.39,2.73.05.63-.26.63-1.03,0-1.29-.84-.34-1.87-.14-2.73.05-.58.13-.58,1.05,0,1.18h0Z" fill="#3c1f0b" stroke-width="0"/><path d="m257.23,128.42c8.66.57,17.21-.16,25.84-.81,1.59-.12,1.63-2.58,0-2.51-8.63.37-17.22,1.76-25.84,2.37-.61.04-.62.91,0,.95h0Z" fill="#3c1f0b" stroke-width="0"/><path d="m265.81,132.49c3.15.48,6.54.26,9.7-.05,1.18-.12,1.2-1.76,0-1.85-3.16-.26-6.58.21-9.7.75-.57.1-.58,1.07,0,1.16h0Z" fill="#3c1f0b" stroke-width="0"/><path d="m271.76,135.33c.73.13,1.43.36,2.09-.08.41-.28.41-.83,0-1.11-.65-.44-1.36-.21-2.09-.08-.62.11-.62,1.15,0,1.26h0Z" fill="#3c1f0b" stroke-width="0"/><path d="m236.48,151.95c.78-.38,4.26.28,5.2.21,2.53-.19,5.04-.45,7.57-.62,3.46-.24,6.83-1.06,10.24-1.55,1.11-.16.86-2.11-.27-1.98-4.41.5-8.73,1.3-13.18,1.66-2.46.2-4.87.81-7.35.85-1.19.02-1.86-.33-2.85.33-.69.46-.09,1.47.65,1.11h0Z" fill="#3c1f0b" stroke-width="0"/><path d="m266.6,149.21c.92.19,1.47-.16,2.34-.34.88-.19.48-1.43-.36-1.31-.62.09-1.18.43-1.81.43-.69,0-.87,1.08-.17,1.23h0Z" fill="#3c1f0b" stroke-width="0"/><path d="m202.61,139.76c-11.34,8.88-5.25,18.85,6.68,22.52,7.46,2.3,15.16,2.18,22.9,2.14,10.11-.05,19.81.64,29.91-.42,7.25-.76,14.45-1.12,21.66-2.44,6.28-1.16,14.68-2.4,20.27-5.5,10.17-5.63,4.03-19.57-5.36-22.03-2.12-.55-3.02,2.83-.9,3.26,4.13.84,8.08,4.26,8.36,8.58.56,8.67-4.87,8.37-9.69,9.65-4.28,1.14-8.59,2.09-12.93,2.97-8.99,1.82-18.46,2.58-27.6,3.34-5.35.44-10.53-.05-15.86-.28-5.86-.26-11.82.59-17.66.13-4.81-.38-10.56-1.23-14.92-3.13-6.19-2.7-9.75-4.99-6.3-13.48.58-1.43,1.79-3.08,2.63-4.39.51-.79-.57-1.42-1.2-.92h0Z" fill="#3c1f0b" stroke-width="0"/><path d="m197.5,148.25c-1.04,6.4-7.58,7.92-11.16,12.3-2.14,2.62-3.58,6.17-5.02,9.24-3.36,7.17-4.38,16.89-4.12,24.79.06,1.94,3.02,1.95,3.02,0,.03-5.79.92-10.07,2.52-15.52,1.27-4.35,1.31-9.32,3.75-13.46,3.49-5.91,12.32-9.59,12.62-17.14.04-.9-1.46-1.14-1.61-.22h0Z" fill="#3c1f0b" stroke-width="0"/><path d="m180.23,179.42c-.31,8.39-2.75,16.36-3.13,24.68-.42,9.05.89,18.23,1.07,27.28.21,10.41-.15,20.83-.15,31.24,0,10.11,1.08,20.34.43,30.42-1.26,19.51-.38,39.36-.13,58.9.11,8.95.98,17.81.86,26.76-.14,10.04-.52,20.05-.07,30.06.09,1.91,3.09,1.91,2.97,0-.58-9.56-.1-19.08,0-28.68.09-8.88-.56-17.69-.49-26.56.15-20.08-.71-40.43.66-60.47.65-9.53-.45-19.2-.52-28.76-.08-10.44.18-20.88-.15-31.31-.29-9.18-1.64-18.31-1.85-27.48-.19-8.76,1.54-17.23,1.24-26.08-.02-.47-.72-.47-.74,0h0Z" fill="#3c1f0b" stroke-width="0"/><path d="m179.43,402.44c-.82,15.98,11.03,23.44,25.35,26.7,10.16,2.31,20.36,4.27,30.53,6.52,9.85,2.18,20.51.89,30.57.57,2.02-.07,2.01-3.02,0-3.13-8.9-.48-18.41,1.56-27.11.07-7.83-1.34-15.97-2.57-23.66-4.52-6.94-1.76-13.28-3.32-19.79-6.27-9.63-4.36-14-8.77-14.83-19.93-.05-.68-1.03-.69-1.06,0h0Z" fill="#3c1f0b" stroke-width="0"/><path d="m307.89,147.51c.3,7.56,9.12,11.2,12.62,17.14,2.5,4.24,2.53,8.97,3.75,13.46,1.45,5.34,2.49,9.81,2.52,15.52,0,1.95,2.96,1.94,3.02,0,.26-7.92-.77-17.63-4.12-24.79-1.38-2.96-2.84-6.57-4.89-9.14-3.59-4.5-10.24-5.86-11.3-12.41-.15-.91-1.64-.69-1.61.22h0Z" fill="#3c1f0b" stroke-width="0"/><path d="m326.02,178.47c-.29,8.42,1.26,16.34,1.24,24.68-.01,9.09-1.46,18.19-1.79,27.28-.39,10.41-.15,20.83-.2,31.24-.05,10.1-1.22,20.35-.53,30.42,1.34,19.52.47,39.33.65,58.9.08,8.94-.64,17.82-.5,26.76.16,10.04.62,20.07.02,30.06-.12,1.9,2.88,1.91,2.97,0,.43-9.57.02-19.08-.05-28.68-.07-8.9.7-17.67.82-26.56.28-20.06,1.18-40.45-.12-60.47-.61-9.53.41-19.2.43-28.76.03-10.44-.34-20.88-.18-31.31.14-9.15,1.36-18.34,1.17-27.48-.18-8.8-2.86-17.23-3.19-26.08-.02-.47-.72-.47-.74,0h0Z" fill="#3c1f0b" stroke-width="0"/><path d="m326.49,401.48c-.83,11.17-5.2,15.57-14.83,19.93-6.51,2.95-12.85,4.51-19.79,6.27-7.7,1.95-15.83,3.18-23.66,4.52-8.7,1.49-18.21-.55-27.11-.07-2.01.11-2.03,3.07,0,3.13,10.04.32,20.75,1.68,30.57-.57,10.15-2.32,20.37-4.22,30.53-6.52,14.33-3.24,26.17-10.72,25.35-26.7-.04-.69-1.01-.68-1.06,0h0Z" fill="#3c1f0b" stroke-width="0"/><path d="m195.02,171.29c-6.2.37-7.36,9.44-3.07,12.95,4.56,3.72,11.54-.65,11.32-6.17-.22-5.62-7.29-8.63-10.94-3.92-1.66,2.14-2.48,5.8-1.15,8.25,1.32,2.43,4.13,3.53,6.75,2.88.94-.23.54-1.65-.4-1.45-5.37,1.18-6.53-5.77-3.12-8.7,1.17-1,3.42-1.63,4.7-.63,1.36,1.05,2.2,2.89,1.9,4.58-.61,3.41-5.2,5.85-7.96,3.12-2.72-2.7-1.87-8.79,2.11-9.77.62-.15.5-1.16-.15-1.12h0Z" fill="#3c1f0b" stroke-width="0"/><path d="m194.44,195.7c-2.93,7.36-3.21,12.35-2.34,20.37.94,8.69-.62,16.92-1.1,25.58-.97,17.71-.99,36.2-.43,53.91.54,17.01-.73,33.94-.87,50.89-.04,4.4-.7,25.43,7.97,25.38,7.32-.04,7.64-19.21,7.63-23.37-.01-7.68-2-15.7-3.35-23.25-1.6-8.94-1.89-18.27-1.3-27.34,1.15-17.62,2.86-35.18,4.68-52.73.77-7.43,1.09-14.94,1.75-22.36.67-7.53,2.45-12.52-.39-19.78-1.83-4.68-7.88-13.95-12.64-7.31-2.05,2.87-3.06,8.43-2.93,11.88.3,8.17,2.07,15.77,1.23,24.05-.11,1.08,1.58,1.07,1.69,0,.86-8.67-1.45-17.61-.21-26.16.42-2.93,1.31-9.96,5.85-8.47,5.16,1.7,6.4,13.51,6.02,17.46-2.42,24.97-4.37,50.06-6.35,75.13-.92,11.61-1.57,23.23.4,34.77,1.26,7.38,3.21,15.2,3.34,22.69.06,3.35-.1,15.34-2.64,18.07-.87.22-1.74.43-2.61.65-2.22,1.46-3.39.9-3.52-1.68-1.28-1.77-1.55-5.13-1.8-7.22-.35-2.95-.28-5.92-.3-8.88-.04-7.17-.58-14.06.05-21.21,1.16-13.09-.15-26.1.39-39.17.64-15.31-.4-30.66.29-45.95.32-7.06,1.79-14.11,1.35-21.19-.56-8.99-1.9-15.72,1.28-24.43.27-.73-.88-1.02-1.16-.32h0Z" fill="#3c1f0b" stroke-width="0"/><path d="m262.03,169.99c7.58.51,16.21-.44,23.7-1.77,4.28-.76,9.67-1.98,13.12-4.82.74-.61-.23-1.86-1.02-1.33-4.35,2.96-10.37,3.9-15.43,4.64-6.58.96-13.76,2.27-20.37,2.49-.51.02-.51.76,0,.79h0Z" fill="#3c1f0b" stroke-width="0"/><path d="m280.45,171.03c4.37,1.51,8.85-.63,13.28-.65,1,0,.99-1.51,0-1.55-4.27-.2-8.81,2.38-12.99,1.16-.68-.2-.95.82-.29,1.05h0Z" fill="#3c1f0b" stroke-width="0"/><path d="m285.12,174.89c1.81.14,3.62-.08,5.43-.07.9,0,.89-1.44,0-1.39-1.84.1-3.6.67-5.43.83-.4.04-.41.59,0,.63h0Z" fill="#3c1f0b" stroke-width="0"/><path d="m286.15,177.18c.95,1.23,3.37,1.05,4.48.18.73-.57-.33-1.7-1.04-1.04-.55.51-2.19.72-2.76.18-.46-.43-1.04.2-.67.67h0Z" fill="#3c1f0b" stroke-width="0"/><path d="m289.1,180.38c.23.03.46.1.68.2,1.22.72,1.22-1.85,0-1.13-.22.1-.44.16-.68.2-.36.07-.36.66,0,.74h0Z" fill="#3c1f0b" stroke-width="0"/><path d="m306.41,241.29c.15,0,.3.02.45.03.81.05.81-1.3,0-1.25-.15,0-.3.02-.45.03-.77.05-.77,1.15,0,1.2h0Z" fill="#3c1f0b" stroke-width="0"/><path d="m221.73,201.92c8.81.93,17.87,1.3,26.72,1.07,1.02-.03,1.02-1.56,0-1.58-8.88-.19-17.86-.11-26.72-.74-.81-.06-.79,1.17,0,1.25h0Z" fill="#3c1f0b" stroke-width="0"/><path d="m231.24,207.29c3.19-.04,6.26,1.17,9.51,1.04.89-.04.9-1.36,0-1.39-3.14-.09-6.39-.99-9.51-.77-.71.05-.73,1.13,0,1.12h0Z" fill="#3c1f0b" stroke-width="0"/><path d="m233.05,213.19c1.81,0,3.62.15,5.43.15.93,0,.93-1.44,0-1.44-1.81,0-3.62.15-5.43.15-.74,0-.74,1.14,0,1.14h0Z" fill="#3c1f0b" stroke-width="0"/><path d="m233.5,216.38c.9.02,1.7.17,2.54.51.8.33,1.2-1.02.36-1.31-.96-.33-1.89-.43-2.9-.4-.77.02-.77,1.18,0,1.2h0Z" fill="#3c1f0b" stroke-width="0"/><path d="m237.13,219.21c.91,0,.91-1.42,0-1.42s-.91,1.42,0,1.42h0Z" fill="#3c1f0b" stroke-width="0"/><path d="m188.39,411.55c.85-.23,1.66-.53,2.46-.89.83-.37.1-1.7-.73-1.25-.67.36-1.35.67-2.07.92-.75.27-.46,1.42.33,1.21h0Z" fill="#3c1f0b" stroke-width="0"/><path d="m203.17,406.92c7.54-.43,14.95-2.98,22.62-3.51,8.58-.6,17.36-1.41,25.95-1.54,8.55-.13,17.11.1,25.65.06,5.48-.03,14.09-.42,19.17,1.62,1.33.53,2.2-1.62.97-2.29-3.76-2.04-9.54-1.57-13.76-1.91-9.54-.76-19.3-.26-28.89-.24-9.2.01-18.48,1.16-27.66,1.87-8.48.66-15.98,3.36-24.19,4.95-.56.11-.43,1.02.13.99h0Z" fill="#3c1f0b" stroke-width="0"/><path d="m307.22,404.47c.59,1.06,1.87,1.07,2.97,1.16,1.91.17,3.81.09,5.72.06.82-.01.83-1.28,0-1.28-2.62.01-5.38.24-7.83-.81-.55-.23-1.19.26-.86.86h0Z" fill="#3c1f0b" stroke-width="0"/><path d="m208.9,421.91c12.12,3.51,23.93,8.3,36.83,7.85,1.5-.05,1.48-2.2,0-2.32-12.55-.95-24.27-5.68-36.68-6.66-.66-.05-.76.95-.15,1.12h0Z" fill="#3c1f0b" stroke-width="0"/><path d="m293.42,421.9c1.08-.23,2.13-.52,3.18-.88.71-.24.41-1.36-.31-1.13-1.05.34-2.1.65-3.16.93-.7.18-.4,1.23.3,1.08h0Z" fill="#3c1f0b" stroke-width="0"/><path d="m240.3,410.98c21.27-2.54,45.18-3.68,66.24.23,1.51.28,2.18-1.98.64-2.34-10.09-2.33-20.87-1.83-31.25-1.89-12.21-.07-23.82.4-35.76,3.04-.53.12-.42,1.03.13.96h0Z" fill="#3c1f0b" stroke-width="0"/><path d="m180.6,237.9c5,3.87,13.41,5.4,19.47,6.43,9.26,1.57,18.63,2.45,28,2.84,18.68.78,38.66,1.22,57.22-1.17,1.08-.14,1.16-1.77,0-1.74-34.05.83-71.57,4.55-104.32-6.98-.34-.12-.67.4-.37.64h0Z" fill="#3c1f0b" stroke-width="0"/><path d="m289.63,245.36c.84-.08,1.62-.36,2.47-.39.82-.02,1.63.08,2.46.03,1.46-.1,2.93-.31,4.31-.81.82-.3.46-1.61-.36-1.31-2.99,1.08-6.11.21-9.05,1.22-.64.22-.59,1.33.17,1.26h0Z" fill="#3c1f0b" stroke-width="0"/><path d="m305.09,243.65c.86.49,1.91.46,2.71-.14,1.02-.76-.11-2.24-1.07-1.39-.39.34-1.16.28-1.64.51-.4.2-.36.81,0,1.01h0Z" fill="#3c1f0b" stroke-width="0"/><path d="m314.06,241.79c1.89-.04,3.58-1.16,5.36-1.7,1.84-.55,3.63-1.4,5.12-2.62.88-.72-.39-2-1.25-1.25-1.34,1.15-2.97,2.18-4.54,2.99-1.58.81-2.95,1.82-4.74,2.15-.24.05-.18.43.06.43h0Z" fill="#3c1f0b" stroke-width="0"/><path d="m181.4,237.94c.52-1.09.52-2.52.11-3.64-.23-.63-1.06-.63-1.29,0-.41,1.12-.41,2.55.11,3.64.19.4.87.4,1.06,0h0Z" fill="#3c1f0b" stroke-width="0"/><path d="m183.1,234.93c2-1.46,4.68-1.77,6.38-3.66.42-.47-.2-1.04-.67-.67-1.95,1.5-4.55,1.76-6.33,3.52-.41.4.14,1.17.63.81h0Z" fill="#3c1f0b" stroke-width="0"/><path d="m198.36,229.51c18.51-4.76,39.28-5.68,58.39-6.04,10-.19,19.91.99,29.92.72,9.05-.24,19.75-.65,28.36,2.35.81.28,1.37-1.02.59-1.39-6.94-3.31-16.78-2.83-24.3-3.25-10.86-.61-22.2-.87-33.07-.81-10.18.05-20.32,1.01-30.42,2.22-10.17,1.21-20.04,1.93-29.77,5.1-.7.23-.41,1.29.3,1.1h0Z" fill="#3c1f0b" stroke-width="0"/><path d="m318.83,228.38c.23.96.74,1.34,1.63,1.65.3.1.51.08.69.41.1.18.11.44.18.64.17.49.43.89.81,1.24.8.72,1.87-.37,1.18-1.18-.53-.62-.96-1.3-1.53-1.89-.47-.49-1.21-.89-1.54-1.46-.45-.77-1.63-.25-1.42.6h0Z" fill="#3c1f0b" stroke-width="0"/><path d="m324.07,233.52c-.1.33-.18.62-.23.96-.14,1.1,1.86,1.11,1.72,0-.04-.35-.13-.63-.23-.96-.19-.62-1.07-.62-1.26,0h0Z" fill="#3c1f0b" stroke-width="0"/><path d="m216.47,237.68c6.95,3.34,17.07,2.28,24.58,2.71,9.84.56,20.24,1.22,30.06.58,1.25-.08,1.27-1.92,0-1.96-9.89-.31-19.78-.46-29.67-.83-7.77-.29-17.08,1.11-24.57-1.45-.55-.19-.93.69-.4.95h0Z" fill="#3c1f0b" stroke-width="0"/><path d="m278.99,240.68c.44.03.71.07,1.07-.2.36-.26.36-.7,0-.96-.36-.26-.64-.23-1.07-.2-.88.06-.88,1.31,0,1.36h0Z" fill="#3c1f0b" stroke-width="0"/><path d="m257.71,256.25c12.43,1.07,24.58.36,37.04-.2,1.38-.06,1.39-2.11,0-2.15-12.28-.34-24.74,1.13-37.04,1.37-.64.01-.62.93,0,.98h0Z" fill="#3c1f0b" stroke-width="0"/><path d="m275.02,259.94c1.43-.91,3.66-.19,5.24-.07,2.51.2,5.12.18,7.61-.16.79-.11.79-1.49,0-1.6-2.86-.39-5.71-.12-8.58-.2-1.65-.05-3.62-.3-5.02.76-.73.55-.08,1.79.74,1.27h0Z" fill="#3c1f0b" stroke-width="0"/><path d="m278.99,263.94c2.88.23,5.78.37,8.67.31,1.3-.03,1.3-1.99,0-2.02-2.89-.06-5.79.09-8.67.31-.89.07-.89,1.32,0,1.39h0Z" fill="#3c1f0b" stroke-width="0"/><path d="m283.72,267.55c1.73.03,3.26.06,4.93-.42.79-.23.68-1.61-.2-1.5-1.56.19-3.16.38-4.73.39-.98,0-.98,1.51,0,1.53h0Z" fill="#3c1f0b" stroke-width="0"/><path d="m245.36,379.97c10.52,3.04,22.75,2.76,33.56,1.82,11.06-.97,23.32-1.99,33.86-5.55,1.37-.46.83-2.51-.6-2.18-10.94,2.52-22.11,4.27-33.26,5.51-10.46,1.17-22.99,1.96-33.29-.57-.63-.16-.89.79-.27.97h0Z" fill="#3c1f0b" stroke-width="0"/><path d="m283.32,374.99c9.65.09,19.98-1.17,29.43-3.19,1.31-.28.72-2.15-.54-1.97-9.59,1.35-19.21,3.32-28.89,3.9-.8.05-.81,1.25,0,1.25h0Z" fill="#3c1f0b" stroke-width="0"/><path d="m292.39,370.64c5.93-.44,11.75-1.36,17.58-2.48,1.16-.22.68-2.03-.49-1.79-5.66,1.2-11.34,2.34-17.09,3.04-.76.09-.8,1.29,0,1.23h0Z" fill="#3c1f0b" stroke-width="0"/><path d="m297.9,364.99c1.91-.15,3.7-.74,5.56-1.15,2.15-.48,4.33-.79,6.48-1.31,1.01-.24.58-1.77-.43-1.55-2.02.45-4.05.79-6.05,1.33-1.92.52-3.73,1.36-5.69,1.75-.52.1-.41.98.13.94h0Z" fill="#3c1f0b" stroke-width="0"/><path d="m301.45,358.7c1.93.12,3.81.14,5.73-.12.98-.13.59-1.78-.42-1.52-1.75.44-3.51.58-5.31.67-.63.03-.63.94,0,.98h0Z" fill="#3c1f0b" stroke-width="0"/><path d="m308.15,353.25c.75,0,1.4-.18,2.06-.52,1.09-.57.12-2.22-.96-1.65-.36.19-.69.26-1.09.26-1.23,0-1.23,1.92,0,1.91h0Z" fill="#3c1f0b" stroke-width="0"/><path d="m257.32,307.98c11.26.26,22.43-.37,33.6-1.83,8.51-1.12,17.61-1.25,25.75-4.16.95-.34.87-1.88-.25-1.85-8.01.27-16.27,2.2-24.25,3.39-11.52,1.73-23.22,2.81-34.86,3.25-.77.03-.77,1.18,0,1.2h0Z" fill="#3c1f0b" stroke-width="0"/><path d="m300.65,297.93c1.12,1.01,2.63.86,4.05.77,2.49-.16,4.86-.78,7.24-1.46,1.15-.33.67-2.05-.49-1.79-1.72.39-3.39.96-5.12,1.32-1.16.24-3.93,1-4.99.26-.53-.37-1.17.46-.69.9h0Z" fill="#3c1f0b" stroke-width="0"/><path d="m305.39,290.95c2.51.13,4.88-.36,7.3-.95.97-.24.55-1.79-.41-1.5-2.25.68-4.52,1.32-6.89,1.41-.67.03-.67,1,0,1.04h0Z" fill="#3c1f0b" stroke-width="0"/><path d="m310.79,282.04c.45-.48,1.28-.58,1.87-.82.55-.22,1.04-.56,1.42-1.02.47-.58-.27-1.35-.83-.83-.5.46-1.21.63-1.81.94-.55.3-.91.73-1.27,1.24-.26.37.32.8.62.48h0Z" fill="#3c1f0b" stroke-width="0"/><path d="m316.9,276.73c.13-.13.26-.26.39-.39.62-.62-.34-1.58-.96-.96-.13.13-.26.26-.39.39-.62.62.34,1.58.96.96h0Z" fill="#3c1f0b" stroke-width="0"/><path d="m305.57,308.38c.73.94,1.81.76,2.89.7,1.99-.1,3.99-.19,5.99-.19.93,0,.93-1.44,0-1.44-1.49,0-2.94.13-4.41.3-.97.11-3.28.75-4.1.16-.3-.22-.55.23-.36.47h0Z" fill="#3c1f0b" stroke-width="0"/><path d="m310.12,313.33c1.75.19,3.57.12,5.31-.15.79-.12.61-1.45-.19-1.39-1.75.12-3.5.43-5.24.68-.52.08-.33.81.12.86h0Z" fill="#3c1f0b" stroke-width="0"/><path d="m312.3,316.69c.84.33,1.63.75,2.54.78.71.03.89-1.13.17-1.26-.83-.15-1.58-.51-2.36-.81-.8-.31-1.15.98-.35,1.29h0Z" fill="#3c1f0b" stroke-width="0"/><path d="m311.98,319.99c-.03.81.46,1.8,1.39,1.73.84-.06,1.4-.71,1.52-1.5.16-1.08-1.29-1.52-1.66-.46,0,.02,0,.04.01.05.23.09.45.19.68.28-.05-.04-.1-.07-.15-.11-.11-1.13-1.75-1.18-1.8,0h0Z" fill="#3c1f0b" stroke-width="0"/><path d="m290.42,199.22c11.77.74,22.96-.15,34.21-4.16,1.47-.52.81-2.9-.64-2.34-10.75,4.12-22.11,5.97-33.57,5.3-.77-.05-.77,1.15,0,1.2h0Z" fill="#3c1f0b" stroke-width="0"/><path d="m302.63,203.15c5.83.45,11.75-.84,17.19-2.84,1.1-.41.68-2.11-.49-1.79-5.57,1.53-10.93,2.9-16.7,3.46-.75.07-.76,1.11,0,1.17h0Z" fill="#3c1f0b" stroke-width="0"/><path d="m310.65,206.59c1.25-.43,2.66-.28,3.97-.48,1.53-.23,3.01-.64,4.57-.74,1.1-.07,1.06-1.82,0-1.69-1.47.18-2.87.57-4.31.92-1.51.37-3.01.5-4.49,1.01-.61.21-.35,1.19.27.97h0Z" fill="#3c1f0b" stroke-width="0"/><path d="m314.06,210.25c1.71-.06,3.41-.4,5.12-.38.81.01.76-1.13,0-1.23-1.76-.21-3.38.24-5.12.41-.75.07-.78,1.22,0,1.2h0Z" fill="#3c1f0b" stroke-width="0"/><path d="m315.96,213.31c.82,1.39,2.55,1.01,3.85.72.8-.18.84-1.5,0-1.66-.4-.07-.82-.15-1.23-.16-.21,0-.41.03-.62.02-.24,0-.41-.14-.27.06-.72-1.04-2.38-.11-1.72,1h0Z" fill="#3c1f0b" stroke-width="0"/><path d="m202.79,150.3c9.76,3.99,20.99,3.91,31.15,1.22,1.28-.34.72-2.14-.54-1.94-9.87,1.53-20.74,3.41-30.32-.35-.67-.26-.95.81-.3,1.08h0Z" fill="#3c1f0b" stroke-width="0"/><path d="m209.64,156.68c7.15.92,14.07,1.29,21.28.84,1.35-.08,1.38-2.17,0-2.13-7.15.24-14.12.17-21.28.06-.81-.01-.76,1.13,0,1.23h0Z" fill="#3c1f0b" stroke-width="0"/><path d="m292.39,148.75c3.42-.32,6.82-.44,10.25-.58,1-.04,1-1.51,0-1.55-3.46-.16-6.99.51-10.4,1.01-.63.09-.49,1.18.15,1.12h0Z" fill="#3c1f0b" stroke-width="0"/><path d="m294.21,152.66c.94.14,1.8.06,2.73-.05,1.24-.14,2.48,0,3.72-.04,1.09-.04,1.09-1.65,0-1.69-1.06-.04-2.14-.03-3.2.13-1.04.15-2.05.5-3.11.55-.59.03-.8,1-.15,1.1h0Z" fill="#3c1f0b" stroke-width="0"/><path d="m301.45,171.98c5.66-.16,11.97-1.39,17.22-3.5,1.2-.48.7-2.44-.54-1.97-2.72,1.03-5.49,1.8-8.31,2.47-2.74.65-5.55,1.68-8.36,1.91-.69.06-.71,1.11,0,1.09h0Z" fill="#3c1f0b" stroke-width="0"/><path d="m304.43,176.4c1.34.35,2.6,0,3.95-.14,2.02-.22,4.06-.34,6.08-.59,1.34-.17,1.4-2.29,0-2.15-3.4.33-6.67,1.14-10.02,1.63-.66.1-.58,1.11,0,1.26h0Z" fill="#3c1f0b" stroke-width="0"/><path d="m214.96,183.15c12.89,3.39,26,2.64,39.2,1.77,1.62-.11,1.64-2.62,0-2.53-13.12.73-25.77,1.29-38.82-.6-.88-.13-1.28,1.13-.38,1.37h0Z" fill="#3c1f0b" stroke-width="0"/><path d="m229.34,190.18c6.31.01,12.62,1,18.91.76,1.28-.05,1.28-1.94,0-1.99-6.38-.27-12.55-.24-18.91-.03-.8.03-.81,1.25,0,1.25h0Z" fill="#3c1f0b" stroke-width="0"/><path d="m246.68,194.5c.45,0,.88-.01,1.33-.09.52-.09.52-.96,0-1.05-.45-.08-.87-.09-1.33-.09-.79,0-.79,1.23,0,1.23h0Z" fill="#3c1f0b" stroke-width="0"/><path d="m208.27,284c6.51,1.82,13.63,1.36,20.32,1.25,7.94-.14,16.05.14,23.9-1.22,1.43-.25.8-2.36-.59-2.15-7.64,1.14-15.6,1.05-23.3,1.33-6.51.23-13.56,1-19.96-.52-.85-.2-1.21,1.08-.36,1.31h0Z" fill="#3c1f0b" stroke-width="0"/><path d="m223.26,289.07c5.17,1.27,10.6,1.95,15.93,2.01,1.33.01,1.33-2.08,0-2.07-5.01.04-10.71.06-15.6-1.15-.78-.19-1.12,1.02-.33,1.21h0Z" fill="#3c1f0b" stroke-width="0"/><path d="m233.72,293.14c.92,1.15,3.04.69,4.29.58.68-.06.69-1.03,0-1.06-.94-.05-2.89.57-3.59-.21-.43-.48-1.08.21-.69.69h0Z" fill="#3c1f0b" stroke-width="0"/><path d="m216.15,341.93c18.03,3.83,38.24,4.44,56.05-.75,1.43-.42.83-2.49-.61-2.21-18.29,3.56-36.6,4.86-55.07,1.62-.87-.15-1.25,1.15-.37,1.34h0Z" fill="#3c1f0b" stroke-width="0"/><path d="m234.73,346.83c5.82,1.19,11.49,1.73,17.46,1.81,1.39.02,1.39-2.17,0-2.15-3.21.05-6.44.18-9.65.03-2.54-.11-5.16-.65-7.69-.6-.5.01-.65.8-.12.91h0Z" fill="#3c1f0b" stroke-width="0"/><path d="m254.16,350.23c.66,0,1.31-.02,1.97-.03.86-.01.86-1.32,0-1.34-.66,0-1.31-.02-1.97-.03-.89-.01-.9,1.4,0,1.39h0Z" fill="#3c1f0b" stroke-width="0"/><path d="m256.53,353.32c.81,0,.81-1.25,0-1.25s-.81,1.25,0,1.25h0Z" fill="#3c1f0b" stroke-width="0"/></g></g></svg>