<?xml version="1.0" encoding="UTF-8"?><svg id="Layer_1" xmlns="http://www.w3.org/2000/svg" viewBox="0 0 500 500"><path d="m250.86,33.51c19.92,1.53,40.57-.06,61.23.03,4.59.02,9.18.04,13.76.57,4.85.56,6.08,2.01,4.83,6.79-.47,1.81-.42,3.26.32,4.88,1.01,2.17.98,4.53.53,6.77-2.25,11.14-3.18,22.44-4.56,33.7-2.27,18.56-5.64,36.99-7.57,55.58-2.35,22.6-3.69,45.3-5.44,67.96-2.69,34.68-2.33,69.52-5.26,104.19-.64,7.55-1.16,15.11-1.98,22.64-.39,3.62.59,7.08.58,10.62-.02,14.58.05,29.16-.13,43.74-.05,3.99-.77,7.97-1.34,11.94-.27,1.9-1.67,3.26-3.05,4.47-1.36,1.19-2.11,2.26-.79,4.04,1.05,1.42,1.08,3.22,1.13,4.96.36,11.73-.68,23.39-1.96,35.03-.32,2.94-1.94,4.75-4.5,6.02-7.9,3.92-16.38,6.15-24.97,7.47-14.93,2.3-30.01,2.31-44.91-.28-8.1-1.41-16.16-3.43-23.6-7.28-2.57-1.33-4.01-3.22-4.33-6.13-1.23-11.3-2.29-22.61-1.93-34,.04-1.26-.23-2.79.38-3.71,2.3-3.46.36-5.43-1.71-8.12-2.79-3.64-2.55-8.55-2.65-12.89-.35-15.38-.72-30.79-.02-46.14.48-10.52-.85-20.81-1.51-31.2-1.4-22.11-3.11-44.23-3.38-66.38-.24-19.09-1.88-38.05-3.36-57.04-1.24-15.91-1.97-31.87-3.76-47.71-2.2-19.37-5.54-38.61-7.84-57.98-.92-7.73-2.03-15.45-2.71-23.21-.24-2.74-.59-5.48-1.42-8.12-.74-2.34-1.1-4.85-.38-7.13.87-2.77,1.13-5.34.64-8.24-.62-3.71.4-4.67,4.17-5.13,8.81-1.08,17.67-.85,26.49-.57,16.76.53,33.51.81,51.01-.11Z" fill="#3e6d23" stroke-width="0"/><path d="m190.47,260.04c.32.14.65.29.97.43,2-2.59,4.02-5.17,6-7.78,1.89-2.5,2.94-2.42,4.22.53,1,2.31,1.67,4.77,2.7,7.07,6.14,13.61,10.37,27.52,6.78,42.67-.41,1.73-.1,2.8,1.99,3.08,8.08,1.09,16.11,2.47,23.93-1.47,2.33-1.17,4.95-1.89,7.52-2.44,10.88-2.34,21.78-4.55,32.69-6.78,4.24-.87,4.81-.2,3.94,4.19-.56,2.86-2.05,5.51-2.2,8.76,9.05.43,17.71.12,26.32-1.51,1.61-.31,1.96-1.4,2.03-2.73.16-2.98.16-5.97.45-8.94,2.79-28.92,1.54-58.04,4.42-86.97,2.06-20.67,2.07-41.57,4.8-62.13,4.15-31.27,7.47-62.65,12.6-93.79.22-1.34.19-2.77-.03-4.11-.43-2.6-1.82-3.82-4.75-3.74-22.15.56-44.3.38-66.45,1.3-18.02.74-36.03-.82-54.06-1.01-9.97-.1-19.96.71-29.93-.27-2.08-.2-3.16.94-3.73,2.81-.67,2.17-.45,4.28.04,6.45.59,2.57,1.22,5.15,1.49,7.76.98,9.23,2.09,18.46,3.15,27.68,2.98,25.88,7.98,51.5,9.35,77.59,1.47,27.84,5.47,55.52,5.12,83.47-.04,3.3.41,6.6.64,9.9Z" fill="#fff" stroke-width="0"/><path d="m279.35,297.06c-5.22,1.07-9.77,2.12-14.35,2.92-12.44,2.19-24.91,4.32-36.19,10.43-17.46,9.46-30.14,22.75-33.5,43.17-.97,5.91-.24,11.91-.46,17.86-.14,3.92.81,4.88,4.71,3.89,6.71-1.69,13.64-1.88,20.32-3.3,19.34-4.11,31.95-17.03,41.62-33.36,5.5-9.29,9.88-19.14,14.01-29.1,1.57-3.79,3.21-7.56,3.83-12.51Z" fill="#66a147" stroke-width="0"/><path d="m194.67,379.27c-.45,5.66.28,11.57.69,17.49.59,8.47,5.84,12.73,13.27,15.14.76.25,1.54.47,2.29.73,9.71,3.33,19.8,3.52,29.9,3.7,13.18.24,26.33.2,39.47-1.44,8.19-1.02,13.19-5.58,16.82-12.45.96-1.82.74-2.67-1.01-3.83-12.49-8.31-26.25-13.98-40.03-19.66-12.28-5.06-25.11-5.9-37.84-3.63-7.73,1.38-15.68,1.38-23.56,3.96Z" fill="#66a147" stroke-width="0"/><path d="m306.53,309.18c-.74-.05-1.44-.25-2.06-.12-7.6,1.6-15.31,1.52-22.98,1.24-3.25-.12-4.76,1.07-5.84,3.88-4.64,12.16-10.67,23.61-17.98,34.38-.25.37-.49.78.06,1.39.53-.1,1.2-.15,1.83-.36,10.18-3.33,20.58-3.06,31.01-1.78,3.96.48,4.64,1.89,2.42,5.19-5.96,8.9-12.75,17.09-21.31,23.67-1.61,1.24-3.5,2.23-4.41,4.6.24.14.52.37.84.47,10.51,3.36,19.46,9.7,28.95,15.01,3.73,2.09,4.1,2.94,1.86,6.69-1.25,2.09-2.57,4.15-3.85,6.22,4.28-1.72,7.69-3.89,8.76-8.78,2.3-10.47,1.26-21.02,1.38-31.55.19-16.72-1.17-33.47.94-50.16.41-3.22,1.41-6.52.38-9.98Z" fill="#edf2b0" stroke-width="0"/><path d="m199.13,425.55c-.17,5.4.29,10.78.75,16.15.14,1.6.49,2.78,2.22,3.44,5.76,2.19,11.79,2.85,17.84,3.46,1.06.11,1.87-.25,2.1-1.31,1.13-5.2,5.25-7.5,9.36-9.9,6.1-3.57,12.74-5.47,19.7-5.22,7.69.28,14.77,3.02,21.18,7.38,2.56,1.74,4.63,3.81,5.4,6.86.45,1.79,1.38,2.44,3.21,2.14,3.73-.61,7.51-.96,11.22-1.67,7.45-1.43,7.58-1.59,8.35-9.05.79-7.67.51-15.36.41-23.05-.04-3.62-1.19-4.14-4.43-2.69-7.19,3.22-14.76,5.08-22.58,5.71-13.63,1.1-27.29.81-40.95.46-10.18-.26-20.08-2.02-29.44-6.21-3.1-1.39-4.17-.91-4.32,2.49-.17,3.66-.04,7.34-.04,11.01Z" fill="#d2e869" stroke-width="0"/><path d="m199.24,253.97c-2.16,2.78-3.86,5.22-5.83,7.43-2.3,2.58-2.8,5.37-2.64,8.81.96,19.83,2.27,39.64,3.82,59.44.25,3.25.66,6.49,1.07,10.42.84-.99,1.21-1.28,1.38-1.66,4.43-9.95,8.49-19.97,11.29-30.61,5.06-19.28-.57-36.37-9.09-53.83Z" fill="#66a147" stroke-width="0"/><path d="m229.17,372.52c2.03,0,3.61.04,5.2,0,7.1-.22,14.19.68,20.41,3.89,6.66,3.43,11.54,3.04,17.09-2.32,6.87-6.64,13.34-13.5,18.81-21.31.45-.64.94-1.32.67-2.2-.43-.62-1.11-.8-1.79-.88-8-.93-16-1.2-23.95.47-4.93,1.04-10.09,1.81-13.88,5.49-6.54,6.34-13.27,12.33-21.92,15.66-.15.06-.21.37-.64,1.21Z" fill="#66a147" stroke-width="0"/><path d="m224.31,448.45c6.21,2.03,44.9,2.05,51.41.03.28-2.83-1.32-4.73-3.36-6.3-13.37-10.32-31.26-10.32-44.66-.02-2.04,1.57-3.64,3.46-3.39,6.29Z" fill="#ccd647" stroke-width="0"/><path d="m276.05,451.71c-.58-.2-.8-.34-1.01-.33-16.37.81-32.73.97-49.1-.02-.79-.05-1.58-.12-2.05.82-1.42,2.89,2.13,10.32,5.26,10.75,13.92,1.91,27.85,1.88,41.77.02,1.1-.15,1.9-.57,2.56-1.48,2.1-2.9,3.02-6.08,2.55-9.76Z" fill="#d2e869" stroke-width="0"/><path d="m225.78,35.96c-10.76.47-20.84-.39-30.94-.39-1.39,0-3.8-.75-3.59,1.78.17,2.11-.22,5.22,3.53,5.16,20.09-.31,40.13,1.25,60.21,1.4,3.08.02,3.9-1.01,3.87-3.97-.02-2.85-.61-4.11-3.79-4.05-9.98.18-19.96.06-29.29.06Z" fill="#fff" stroke-width="0"/><path d="m298.96,447.12c-6.14,2.18-12.3,2.82-18.42,3.68-1.08.15-2.15.33-2.18,1.69-.07,2.95-1.01,5.76-1.76,9.17,6.6-1.52,12.7-2.86,18.37-5.72,4.02-2.02,4.72-3.49,3.99-8.83Z" fill="#ccd647" stroke-width="0"/><path d="m223.46,461.56c-.87-3.36-1.71-6.2-1.81-9.17-.03-.76-.49-1.32-1.25-1.43-6.51-.95-13.05-1.7-19.74-3.83.09,3.11-.32,5.87,2.13,7.45,6.16,3.96,13.19,5.45,20.66,6.98Z" fill="#d2e869" stroke-width="0"/><path d="m205.59,325.36c5.86-6.05,12.31-11.1,19.15-15.83-4.28-.34-8.21-.94-12.17-1.39-1.02-.12-2.2-.27-2.45,1.15-.98,5.48-3.07,10.64-4.53,16.07Z" fill="#edf2b0" stroke-width="0"/><path d="m295.74,36.12c-5.89,0-11.34-.12-16.79.05-2.91.09-2.19,2.71-2.45,4.46-.29,1.94,1.09,2.25,2.61,2.22,4.68-.08,9.36-.18,14.05-.26,1.31-.02,2.2-.43,2.25-1.94.04-1.36.2-2.71.34-4.53Z" fill="#fff" stroke-width="0"/><path d="m309.7,41.79c6.05.98,12,1.28,17.9.29,1.66-.28,1.47-2.65,1.53-4.21.07-1.64-1.31-1.69-2.44-1.75-3.78-.21-7.56-.33-11.35-.5-1.4-.06-2.74.29-2.8,1.84-.08,2.03-1.25,3.12-2.85,4.32Z" fill="#fff" stroke-width="0"/><path d="m174.13,42.56c1.91,0,3.6.08,3.1-2.01-.41-1.73.46-4.58-2.84-4.46-1.56.06-3.73-.44-3.5,2.39.19,2.33.65,4.4,3.23,4.08Z" fill="#fff" stroke-width="0"/><path d="m264.46,40.21c-.74-1.19,1.02-4.46-2.27-3.94-2.74.43-1.07,3.17-1.34,4.86-.22,1.39.32,2.45,2.07,2.29,2.08-.19,1.82-1.58,1.54-3.22Z" fill="#fff" stroke-width="0"/><path d="m269.99,39.54c-.48-1.13.73-3.32-1.98-3.38-1.39-.03-1.89.93-1.52,2.04.54,1.63-.9,4.43,1.95,4.7,2.01.19,1.2-1.98,1.55-3.36Z" fill="#fff" stroke-width="0"/><path d="m305.33,39.21c.32,1.09-.48,3.29,1.19,2.96,2.47-.48.68-3.26,1.55-4.84.45-.81-.11-1.67-1.11-1.57-2.36.24-1.23,2.22-1.62,3.44Z" fill="#fff" stroke-width="0"/><path d="m189.43,42.54c.89-2.27-.36-4.18-.23-6.12.03-.48-.54-.68-1.02-.68-.61,0-1.26.26-1.2.91.19,2.09-.16,4.46,2.45,5.89Z" fill="#fff" stroke-width="0"/><path d="m181.12,42.35c.37-2.29.49-4.34-.89-6.17-.12-.15-1.1,0-1.19.22-.84,2.08-.12,3.95.95,5.74.08.13.42.09,1.13.21Z" fill="#fff" stroke-width="0"/><path d="m272.98,42.86c2.06-1.49,1.43-3.43,1.59-5.11.07-.73-.27-1.37-1.11-1.41-.85-.04-1.22.59-1.22,1.31,0,1.63-.54,3.34.74,5.21Z" fill="#fff" stroke-width="0"/><path d="m299.06,42.23c1.24-2.1,1.05-4.1-.24-6.51-1.34,2.51-1.69,4.54.24,6.51Z" fill="#fff" stroke-width="0"/><path d="m184.04,36.06c-.96,2.26-1.2,4.41,1.1,6.02.38-2.13.1-4.14-1.1-6.02Z" fill="#fff" stroke-width="0"/><path d="m293.52,102.99c2.79,14.42-1.94,27.92-4.68,41.66.15-14.05,5.02-27.57,4.68-41.66Z" fill="#3e6d23" stroke-width="0"/><path d="m295.04,98.58c4.9-10,10.46-19.64,14.98-29.81-2.67,11.08-8.54,20.6-14.98,29.81Z" fill="#3e6d23" stroke-width="0"/><path d="m194.25,57.48c1.86,2.2,1.68,4,1.04,6.59-1.88-2.32-2.2-4.06-1.04-6.59Z" fill="#3e6d23" stroke-width="0"/><path d="m206.69,362.44c1.99-1.81,4.27-2.26,7.7-2.02-2.75,2.44-5.08,2.86-7.7,2.02Z" fill="#3e6d23" stroke-width="0"/><path d="m218.97,348.95c-2.06,2.19-4.53,2.08-6.65,3.56.25-3.13,2.47-4.22,6.65-3.56Z" fill="#3e6d23" stroke-width="0"/><path d="m209.1,365.75c2.54-1.11,4.25-1.95,6.59-.71-1.98,1.64-3.71,2.25-6.59.71Z" fill="#3e6d23" stroke-width="0"/><path d="m222.64,359.64c1.67-2.15,3.57-2.36,5.47-2.6-.81,2.27-2.42,3.08-5.47,2.6Z" fill="#3e6d23" stroke-width="0"/><path d="m210.31,401.08c2.48-1.13,4.58-.06,6.68,1.07-2.48,1.51-4.63.53-6.68-1.07Z" fill="#3e6d23" stroke-width="0"/><path d="m223.49,395.45c-2.1,1.41-4.23,1.24-7.3.19,3.02-1.52,5.15-1.37,7.3-.19Z" fill="#3e6d23" stroke-width="0"/><path d="m251.14,399.5c-1.9,1.4-3.83,2.2-6.12,1.29,1.8-1.55,3.75-2.5,6.12-1.29Z" fill="#3e6d23" stroke-width="0"/><path d="m205.55,400.85c-2.8.31-4.4-.58-5.83-2.91,2.81-.4,4.26.78,5.83,2.91Z" fill="#3e6d23" stroke-width="0"/><path d="m272.62,362.98c-.31,3.1-1.41,4.36-4.29,5.24.33-2.35.95-3.13,4.29-5.24Z" fill="#3e6d23" stroke-width="0"/></svg>