<?xml version="1.0" encoding="UTF-8"?><svg id="Layer_1" xmlns="http://www.w3.org/2000/svg" viewBox="0 0 500 500"><path d="m160.54,312.43c-.39-17.84-.61-39.66-.1-61.41.57-24.27,9.56-45.1,31.86-58.15,6.9-4.04,13.91-7.83,21.14-11.2,3.76-1.75,3.64-5.98,6.16-8.56,1.09-1.11-1.04-2.19-2.45-2.32-3.75-.36-4.51-2.65-4.72-6.02-.73-12.08,1.22-23.82,3.7-35.57,1.37-6.51,5.11-10.35,11.18-12.08,3.11-.89,4.08-2.46,3.8-5.61-.97-10.85-1.81-21.71-2.51-32.58-.2-3.05-1.99-3.38-4.29-3.51-2.68-.15-4.9-.79-4.68-4.24.23-3.61,2.62-4,5.48-3.98,18.45.12,36.7-2.33,55-4.17,15.5-1.56,30.61.29,45.38,5.17,2.47.82,5.01,1.46,7.45,2.38,1.7.64,4.62.61,3.84,3.5-.78,2.88-1.82,6.23-5.98,5.73-3.8-.46-7.6-1.04-11.35-1.82-13.64-2.82-27.44-2.75-41.26-2.64-4.4.03-6.56,1.73-6.77,6.55-.42,9.96-1.46,19.89-2.14,29.84-.12,1.7-.83,4.05,1.77,4.59,10.59,2.19,13.16,10.34,14.6,19.36,1.53,9.55,2.9,19.09,2.25,28.83-.24,3.54-.96,5.88-4.93,6.35-2.85.34-2.65,1.61-1.47,4.12,2.86,6.09,8.41,8.25,13.81,10.83,9.48,4.52,18.16,10.23,25.91,17.35,10.11,9.28,14.29,21.53,17.09,34.41,1.6,7.36,1.6,14.84,1.56,22.37-.19,39.44.09,78.89-.2,118.34-.09,12.15-2.79,24.07-6.91,35.5-2.65,7.36-8.69,11.63-15.78,14.53-15.25,6.25-31.14,9.19-47.58,9.05-17.79-.15-35.6.82-53.37-.82-12.19-1.13-23.82-4.36-34.96-9.28-7.89-3.49-12.92-9.51-15.12-18-3.47-13.41-5.78-26.89-5.49-40.85.36-17.34.09-34.69.09-55.98Z" fill="#3e6d23" stroke-width="0"/><path d="m310.98,323.07c.36-.02.72-.04,1.09-.06.2,1.02.41,2.04.59,3.07,1.31,7.62.63,15.31.79,22.97.09,4.62,1.71,5.89,6.12,4.98,4.2-.87,8.39-1.75,12.57-2.71,3.88-.9,4.91-2.94,4.89-6.78-.15-30.22-.11-60.45-.06-90.67,0-4.62-.14-9.21-1.03-13.74-2.67-13.57-6.95-26.28-17.77-35.95-9.76-8.72-21.14-14.63-32.81-20.13-2.48-1.17-4.17-2.15-4.66-5.4-.8-5.35-4.15-7.77-9.67-8.11-13.79-.85-27.59-.87-41.38-.03-6.91.42-7.44.94-9.77,8.38,4.86,0,9.68.01,14.5,0,4.91-.01,9.82-.07,14.73-.07q11.77,0,14.15,2.6c-8.69,0-16.79.49-24.81-.11-14.25-1.06-26.57,3.58-38.85,10.26-21.55,11.72-34.14,29.23-35.81,53.63-1.02,14.96-.26,30.05-.26,45.08,0,.35.46.7.7,1.05,4.7-3.28,5.42-3.23,7.12.83,6.38,15.18,10.71,30.94,13.45,47.19.96,5.71.07,11.52.99,17.11,1.57.29,1.97-.71,2.49-1.38,7.77-10.14,17.53-17.96,28.36-24.57,17.41-10.62,37.12-13.05,56.69-15.91,4.08-.6,3.26,1.93,2.03,4.3-5.72,11.03-9.9,22.8-16.19,33.55-.51.87-1.27,1.8-.55,3.06.35.14.75.44,1.17.46,16.08.86,32.17,1.47,48.24-.32,2.61-.29,3.05-1.76,3.01-4.12-.13-9.48-.05-18.97-.05-28.45Z" fill="#fff" stroke-width="0"/><path d="m272.47,317.97c-5.47-.3-9.61.93-13.8,1.61-19.03,3.08-37,8.7-52.2,21.26-23.27,19.24-35.24,43.53-33.5,74.05.28,4.91,7.76,11.15,11.32,9.26,2.5-1.32,5.22-1.74,7.74-2.82,8.13-3.49,16.81-5.88,23.41-12.34,10.34-10.13,19.28-21.42,27.84-33.04,7.43-10.09,11.67-21.89,17.55-32.81,4.26-7.91,7.59-16.32,11.64-25.16Z" fill="#66a147" stroke-width="0"/><path d="m336.92,353.31c-6.54,1.3-12.19,2.69-17.92,3.48-3.69.51-4.71,2.06-4.69,5.66.08,10.26.57,20.55-.58,30.79-.15,1.35.46,3.18-1.74,3.98-1.61-1.7-.84-3.78-.68-5.6.83-9.65.34-19.31.36-28.97,0-2.42-.09-4.81-3.64-4.28-13.59,2.04-27.27,1.02-40.88.58-7.6-.25-11.94,1.25-15.71,8.76-7.37,14.71-18.67,26.87-29.73,39-.93,1.02-2.48,1.7-2.48,3.61,33.18-9.94,62.61-2.2,90.18,17.41,11.94-2.7,20.52-9.11,23.15-22.45,1.24-6.31,2.5-12.61,3.56-18.95,1.8-10.8.42-21.64.8-33.02Z" fill="#edf2b0" stroke-width="0"/><path d="m187.78,426c4.43,2.69,8.98,4.24,13.76,5.35,13.27,3.1,26.76,3.45,40.26,3.4,18.85-.07,37.77.95,56.38-3.33,2.57-.59,4.57-1.46,5.29-4.61-14.68-8.16-29.08-16.75-46.42-17.67-15.45-.82-30.77-.76-44.52,8.01-1.14.73-2.51,1.53-3.79,1.56-7.79.17-13.49,5.98-20.96,7.28Z" fill="#66a147" stroke-width="0"/><path d="m169.28,409.8c.49-1.39.76-1.78.75-2.17-.47-14.22,4.1-27.14,10.12-39.71,1.34-2.79,1.87-5.77,2.18-8.87,1.87-19-3.63-36.76-9.08-54.52-1.22-3.97-3.17-7.71-4.82-11.62-4.1,2.31-5.14,5.33-5.12,9.21.1,24.09.18,48.17-.02,72.26-.08,8.99,1.81,17.65,3.39,26.37.5,2.77,1.55,5.45,2.61,9.04Z" fill="#66a147" stroke-width="0"/><path d="m252.03,74.81c-1.09,0-1.87.05-2.63,0-7.46-.58-10.19-.87-10.41,10.6-.17,8.95,1.89,17.66,3,26.48.2,1.58.55,2.99,2.68,3.02,6.13.1,12.26.28,18.39.52,2.35.09,3.34-.96,3.49-3.2.72-10.55,1.41-21.11,2.26-31.65.29-3.64-1.36-4.94-4.72-5.15-4.13-.26-8.24-.94-12.07-.61Z" fill="#fff" stroke-width="0"/><path d="m328.43,76.81c2.43.11,4.12.36,4.72-1.58.42-1.37-.67-1.9-1.73-2.25-11.37-3.75-22.8-7.24-34.9-7.67-10.29-.37-20.49.84-30.72,1.69-13.43,1.11-26.81,3.23-40.35,2.51-1.35-.07-3.03-.24-3.33,1.6-.39,2.38,1.75,2.03,3.08,2.44,4,1.22,7.94.09,11.84-.53,15.21-2.42,30.39,1.38,45.73-.37,13.17-1.5,26.63.23,39.73,3.16,2.24.5,4.53.77,5.92,1Z" fill="#fff" stroke-width="0"/><path d="m267.62,165.89c-2.86-.68-2.31-2.16-2.49-3.25-1.72-10.42-2.87-20.92-3.86-31.43-.18-1.88-.09-4.5-3.02-4.15-2.79.34-1.78,2.83-1.65,4.45.68,8.54,1.46,17.08,2.29,25.61,1.07,10.93,1.1,10.81,12.21,10.88,3.4.02,4.41-1.27,3.85-4.38-1.97-10.99-3.96-21.98-5.87-32.99-.64-3.71-2.54-4.47-5.89-2.94,1.47,12.69,2.93,25.25,4.43,38.2Z" fill="#fff" stroke-width="0"/><path d="m237.03,127.18c-2.57-.22-4.83-.91-5.48,2.2-2.43,11.69-4.68,23.41-6.26,35.24-.18,1.37-.18,3.1,1.69,3.19,4.28.22,8.85.71,12.71-.94,3-1.28.99-5.27,1.57-7.99.22-1.04.25-2.13.34-3.19.74-8.39,1.5-16.77,2.18-25.16.12-1.44.5-3.28-1.79-3.53-2.09-.22-2.5,1.37-2.81,2.92-.18.9-.19,1.83-.3,2.74-1.25,10.33-2.51,20.65-3.78,30.98-.11.88-.04,1.93-1.4,1.95-.23-.17-.68-.37-.66-.52,1.29-12.44,2.61-24.87,3.99-37.88Z" fill="#fff" stroke-width="0"/><path d="m278.61,124.5c-8.33-9.37-50.9-9.06-56.2-.04,18.6-.9,36.87-.92,56.2.04Z" fill="#fff" stroke-width="0"/><path d="m229.8,127.72c-3.99-.93-4.24-1-4.91,1.38-3.31,11.77-5.68,23.74-6.83,35.93-.14,1.47,0,2.79,1.93,2.97,1.95.18,2.73-.77,2.91-2.62.61-6.39,1.74-12.69,3.15-18.95,1.4-6.21,2.51-12.48,3.75-18.7Z" fill="#fff" stroke-width="0"/><path d="m270.85,127.5c-.57,1.32.03,2.48.26,3.63,2.14,11.08,5.05,22.02,6.19,33.29.19,1.86.22,3.9,2.97,3.55,2.93-.37,1.99-2.62,1.82-4.28-1.14-11.41-3.46-22.61-6.33-33.71-.73-2.83-2.14-3.85-4.91-2.49Z" fill="#fff" stroke-width="0"/><path d="m239.44,114.83c-.94-12.99-5.21-25.69-1.68-38.65-5.47-1-6.48-.37-6.2,4.68.58,10.38,1.47,20.75,2.13,31.13.23,3.62,2.22,3.88,5.75,2.84Z" fill="#fff" stroke-width="0"/><path d="m249.59,146.11c-.09,0-.19,0-.28-.01,0-5.52.01-11.04-.01-16.56,0-1.09-.09-2.34-1.48-2.47-1.48-.15-1.61,1.08-1.69,2.19-.86,11.15-1.77,22.3-2.55,33.46-.11,1.66-.7,4.11,2.16,4.19,2.8.08,2.94-2.29,3.06-4.26.34-5.51.53-11.02.79-16.53Z" fill="#fff" stroke-width="0"/><path d="m253.76,126.28c-2.28,2.35-1.83,4.09-1.86,5.67-.12,5.65.39,11.39-.42,16.93-.72,4.96-.01,9.73.11,14.58.04,1.7.6,3.47,2.84,3.48,2.55.01,2.38-1.99,2.3-3.62-.22-4.57-.53-9.15-.91-13.71-.61-7.4-1.3-14.8-2.06-23.33Z" fill="#fff" stroke-width="0"/><path d="m215.7,166.69c2.01-14.04,3.79-26.74,6.92-40.03-4.97,2.88-9.59,31.07-6.92,40.03Z" fill="#fff" stroke-width="0"/><path d="m278.22,127.45c2.82,12.57,4.18,25.34,6.43,38.63,2.66-7.64-1.87-36.25-6.43-38.63Z" fill="#fff" stroke-width="0"/><path d="m295.13,203.21c3.01,1.61,4.18,3.72,5.28,5.83,3.79,7.22,6.21,14.85,8.04,22.85,4.67,20.39,5.04,40.93,3.55,61.62-.11,1.48-.33,2.94-.54,4.78-1.61-1.77-1.09-3.52-1.1-5.1-.06-9.95.55-19.94-.14-29.85-1.19-17.25-3.43-34.39-10.23-50.53-1.28-3.03-2.97-5.88-4.86-9.59Z" fill="#3e6d23" stroke-width="0"/><path d="m195.47,400.95c-.38,3.65-.75,6.29-4.02,8.22-.67-3.89.31-6.22,4.02-8.22Z" fill="#3e6d23" stroke-width="0"/><path d="m217.26,387c-.24,3.95-1.8,5.66-4.52,7.2-.7-3.7,1.43-5.09,4.52-7.2Z" fill="#3e6d23" stroke-width="0"/><path d="m220.52,429.58c3.17-1.04,3.72-6.24,9.14-5.24-3.33,2.43-4.34,6.72-9.14,5.24Z" fill="#3e6d23" stroke-width="0"/><path d="m170.11,341.64c1.34,3.24,2.28,5.37.01,7.78-2.42-2.54-1.8-4.63-.01-7.78Z" fill="#3e6d23" stroke-width="0"/></svg>