<?xml version="1.0" encoding="UTF-8"?><svg xmlns="http://www.w3.org/2000/svg" viewBox="0 0 500 500"><g isolation="isolate"><g id="Layer_1"><path d="m441.97,279.57c-12.13,48.74-75.49,6.97-100.29,37.94,2.33-3.46,4.99-6.74,7.58-9.94,7.01-8.65,15.37-14.93,24.16-21.67,7.35-5.64,15.21-12.27,19.78-20.48,4.98-8.95,6.61-19.56,8.02-29.55,2.23-15.79-.93-33.67-19.79-35.84-10.88-1.25-31.48,7.66-26.4,21.09.39,1.03,2.05.6,1.67-.46-1.7-4.8.65-8.89,4.39-11.98-.08.29.1.63.47.51,5.96-2.07,12.97-4.01,18.74-.48,6.3,3.85,7.88,12.27,7.98,19.24.15,10.58-4.24,25.6-13.74,31.55-12.63,7.91-30.98,1.57-41.34,13.16-4.92-5.05-8.77-11.25-14.2-15.78-5.45-4.55-12.85-6.8-19.91-7.06-8.3-.31-13.93,4.1-18.97,10.34-9.44,11.67-12.28,29.98-5.37,43.51,3.49,6.83,8.6,11.11,14.45,14.3-5.58-.03-10.89.93-17.08,2.34-13.23,3.03-32.38,3.24-40.52-9.61-.49-.78-1.93-1-2.36,0-2.18,5,3.91,14.29,6.57,17.76,6.24,8.13,13.65,12.7,23.12,16.45,7.23,2.87,16.36,4.97,24.56,4.08-5.56,3.52-10.4,8-14.03,13.66-7.4,11.53-6.91,26.63,3.21,35.05,0,.48.28.93.92,1.03.19.03.38.06.57.09,1.28.91,2.67,1.74,4.22,2.44,15.35,6.86,29.65-.44,33.38-17.05,1.27-5.66,1.66-10.1-1.06-14.8.04-.04.07-.08.1-.14,1.61-3.46,4.96-6.03,7.32-8.99,2.34-2.93,4.34-5.93,5.92-9.33.88-1.89,1.93-3.94,2.89-6.06-.02.59-.03,1.13-.05,1.6-.31,7.82.55,17.09,5.53,23.47,5.79,7.42,14.92,11.92,19.84,20.23,8.52,14.4-.69,24.61-8,36.3-.74,1.19.71,2.49,1.86,1.86,9.38-5.18,15.07-9.98,19.28-20.03,3.93-9.39,5.24-17.76,3.29-27.84-2.95-15.27-11.7-28.32-23.04-38.59,15.64,4.92,35.7,1.5,47.07-7.74,5.78-4.69,10.19-10.52,15.62-15.52,5.5-5.06,12.54-8.54,18.73-12.68,8.07-5.4,16.75-15.94,17.22-26.06.06-1.32-1.98-1.59-2.3-.31Z" fill="#ffe63f" stroke-width="0"/><path d="m294.78,262.66c5.94-1.45,15.37-2.96,20.27,1.83.83.82,2.11-.46,1.28-1.28-5.44-5.42-15.33-3.73-21.88-1.74-.76.23-.44,1.38.33,1.19Z" fill="#ffe63f" stroke-width="0"/><path d="m310.64,265.84c-1.93-1.13-4.19-1.19-6.37-1.15-.76.01-.76,1.17,0,1.18,2.13.03,3.9.41,5.92,1.05.64.21,1.03-.75.46-1.08Z" fill="#ffe63f" stroke-width="0"/><path d="m312.79,269.4c-.7-.33-1.31.71-.61,1.04.43.2.65.43.86.86.33.7,1.37.09,1.04-.61-.28-.58-.7-1.01-1.29-1.29Z" fill="#ffe63f" stroke-width="0"/><path d="m319.38,328.14c-14.29-9.33-33.37-10.34-41.18-27.59-7.77-17.16,2.33-49.74,25.25-46.2,17.71,2.73,22.56,21.21,38.09,27.24,10.82,4.2,23.61-1.16,32-7.87.42-.34-.13-1.06-.58-.75-8.64,6.01-22.08,11.06-32.3,5.51-9.26-5.02-13.8-15.05-21.65-21.6-5.45-4.55-12.85-6.8-19.91-7.06-8.3-.31-13.93,4.1-18.97,10.34-9.44,11.67-12.28,29.98-5.37,43.51,8.83,17.29,27.98,18.25,43.44,26.52,1.35.72,2.46-1.21,1.19-2.04h0Z" fill="#3c1f0b" stroke-width="0"/><path d="m374.69,272.16c-10.77,9.22-23.53,15.96-38.18,12.79-5.99-1.3-11.97-3.7-17.32-6.64-4.26-2.34-7.16-5.56-11.73-7.36-7.88-3.1-17.8-2.56-25.31,1.67-6.61,3.73-9.02,7.5-8.85,15.05.04,1.63,2.4,1.6,2.51,0,1.04-14.41,19.38-18.07,30.53-13.45,4.49,1.86,7.84,5.34,12.19,7.47,3.9,1.91,8,3.58,12.15,4.82,16.77,5.02,33.33-.68,45.08-13.26.68-.73-.34-1.72-1.08-1.08h0Z" fill="#3c1f0b" stroke-width="0"/><path d="m303.14,272.09c-11.91-.24-10.25,12.26-3.1,18.19,3.33,2.77,7.49,3.11,11.2,5.11,5.4,2.9,8.83,7.93,11.2,13.43,2.18,5.05,5.19,10.88.09,15.69-1.41,1.33-2.77,1.76-4,3.3-.56.71-.65,1.39-.28,2.21,2.26,5.07,12.92,4.71,16.18.84,4.71-5.57.35-9.78-5.42-10.79-5.47-.96-13.84.87-13.51,8.36.29,6.41,8.54,8.67,13.57,6.68,4.97-1.97,10.87-8.58,8.09-14.14-3.42-6.85-14.07-5.79-18.3-.75-3.86,4.6-3.85,11.33,1.06,15.28,6.71,5.39,13.4-1.04,16.28-7.06.7-1.45-1.39-2.73-2.19-1.28-.89,1.78-1.99,3.42-3.31,4.91-3.5-2.67-7.01-5.34-10.51-8.02,7.28-6.96,11.69-6.02,13.23,2.81-1.25,2.28-3.12,3.66-5.63,4.14-4.1,2.84-6.29.79-6.55-6.17,1.54-1.39,3.24-1.85,5.09-1.37,1.15.07,2.29.23,3.41.51,3.2,1.63,3.51,3.06.94,4.29-1.81,2.58-8.04,1.26-8.01,1.18-.04.13,2.32-2.43,1.8-1.72,1.88-2.55,4.49-4.48,4.79-7.88.48-5.4-4.27-14.29-7.31-18.48-2.55-3.52-5.55-6.23-9.46-8.11-2.31-1.11-4.8-1.57-7.12-2.62-3.03-.71-5.34-2.54-6.96-5.48-3.69-4.66-2.11-8.61,4.73-11.86.75-.1.8-1.19,0-1.21h0Z" fill="#3c1f0b" stroke-width="0"/><path d="m334.46,328.08c.15,0,.15-.23,0-.23s-.15.23,0,.23h0Z" fill="#3c1f0b" stroke-width="0"/><path d="m334.77,328.51c2.67-1.93,2.66-3.86,4.35-6.89,2.8-5.01,6.54-9.6,10.14-14.04,7.01-8.65,15.37-14.93,24.16-21.67,7.35-5.64,15.21-12.27,19.78-20.48,4.98-8.95,6.61-19.56,8.02-29.55,2.23-15.79-.93-33.67-19.79-35.84-10.88-1.25-31.48,7.66-26.4,21.09.39,1.03,2.05.6,1.67-.46-3.41-9.66,9.54-16.47,17.38-17.99,9.72-1.88,20.48,3.68,23.57,13.26,2.86,8.88.65,19.46-.96,28.36-1.5,8.29-3.58,16.77-8.7,23.62-9,12.03-22.62,18.97-33.13,29.42-4.23,4.21-7.86,8.97-11.37,13.78-1.98,2.72-3.85,5.51-5.42,8.49-1.24,2.36-2.05,6.22-4.07,7.93-.54.46.18,1.41.76.99h0Z" fill="#3c1f0b" stroke-width="0"/><path d="m361.57,209.19c5.96-2.07,12.97-4.01,18.74-.48,6.31,3.85,7.88,12.27,7.98,19.24.15,10.58-4.24,25.6-13.74,31.55-12.88,8.07-31.71,1.3-41.95,13.85-1.05,1.29.76,3.14,1.85,1.85,8.57-10.16,24.05-6.19,35.51-10.52,9.65-3.64,14.67-11.07,17.78-20.56,3.41-10.45,4.98-24.57-2.5-33.83-6.04-7.48-16.21-5.02-23.89-1.9-.48.2-.29.98.22.8h0Z" fill="#3c1f0b" stroke-width="0"/><path d="m326.16,283.58c-2.73,4.06-3.85,8.13-4.07,12.96-.29,6.18,2.5,10.98,3.73,16.86.33,1.57,2.73.9,2.4-.66-1.04-4.98-3.68-9.35-3.83-14.53-.14-4.73.62-9.75,2.86-13.99.38-.72-.64-1.3-1.09-.63h0Z" fill="#3c1f0b" stroke-width="0"/><path d="m340.03,322.42c14.81-21.91,47.58-12.77,69.45-14.57,17.22-1.42,30.33-10.79,34.75-27.66-.77-.1-1.53-.21-2.3-.31-.63,13.28-13.5,21.94-23.23,28.37-8.57,5.67-14.65,12.15-22.12,19.13-10.12,9.47-20.85,12.69-34.58,13.19-9.59.35-22.04-2.75-28.83-10.09-1.5-1.62-3.91.8-2.42,2.42,14.48,15.65,46.36,13.9,61.93,1.25,5.78-4.69,10.19-10.52,15.62-15.52,5.5-5.06,12.54-8.55,18.73-12.68,8.07-5.4,16.75-15.94,17.22-26.06.06-1.32-1.98-1.59-2.3-.31-12.63,50.75-80.82,3.36-103.16,42.15-.46.79.71,1.45,1.22.71h0Z" fill="#3c1f0b" stroke-width="0"/><path d="m342.13,318.26c-1.38,1.16-2.84,2.25-4.09,3.56-.62.64-1.25,1.28-1.85,1.93-.4.44-.85,1.33-1.42,1.52-1.22.39-1.09,2.46.32,2.34,1.73-.14,2.4-1.91,3.32-3.16,1.42-1.95,2.75-3.74,4.53-5.39.54-.5-.25-1.26-.8-.8h0Z" fill="#3c1f0b" stroke-width="0"/><path d="m330.87,332.91c-4.08,1.7-3.84,9.96-3.98,13.57-.31,7.82.55,17.09,5.53,23.47,5.79,7.42,14.92,11.92,19.84,20.23,8.52,14.4-.69,24.61-8,36.3-.74,1.19.71,2.49,1.86,1.86,9.38-5.18,15.07-9.98,19.28-20.03,3.93-9.39,5.24-17.76,3.29-27.84-3.97-20.56-18.46-37.11-35.61-48.25-1.66-1.08-3.2,1.58-1.55,2.65,15.06,9.72,28.4,23.97,33.27,41.62,2.44,8.83,2.95,17.62-.21,26.32-4.07,11.23-9.49,17.4-19.85,23.17.62.62,1.24,1.24,1.86,1.86,4.62-7.47,10.22-13.4,11.58-22.46.98-6.47-1.3-13.48-5.13-18.72-5.47-7.48-14.76-12.05-19.79-19.67-2.91-4.4-3.7-10.13-4.17-15.27-.33-3.66-1.5-15.83,2.29-17.61.67-.32.19-1.51-.51-1.22h0Z" fill="#3c1f0b" stroke-width="0"/><path d="m316.08,330.67c-5.58,7.95-18.97,11.22-27.39,15.38-7.76,3.84-14.51,9.23-19.23,16.59-8.61,13.42-6.58,31.67,8.92,38.61,15.35,6.86,29.65-.44,33.38-17.05,1.42-6.32,1.75-11.13-2.14-16.47-1.92-2.64-5.56-8.39-9.37-5.77-.35.24-.57.66-.44,1.09.98,3.44,4.22,5.83,5.47,9.34,1.98,5.57.79,15.82-3.02,20.07-7.63,8.54-18.41,5.36-27.98,3.79-1.61-.27-2.31,2.2-.68,2.47,11.12,1.83,28,4.65,32.98-9.29,2.15-6,1.99-15.57-.97-21.26-.18-.35-2.24-3.18-2.26-3.13.63-1.71,3.63,2.64,4.14,3.43,3.54,5.39,3.76,10.29,2.16,16.41-1.71,6.55-6.45,13.59-12.95,16.06-5.8,2.21-13.71.12-19.13-2.88-14.51-8.04-12.53-26.37-3.24-37.74,6.62-8.11,15.77-12.42,25.06-16.72,6.02-2.79,14.69-5.87,18.06-12.12.49-.91-.79-1.62-1.37-.8h0Z" fill="#3c1f0b" stroke-width="0"/><path d="m272.3,396.62c6.7,3.85,12.59-.57,18.32-4.29,7.44-4.82,13.29-10.79,15.97-19.4.35-1.12-1.3-1.79-1.88-.79-3.26,5.57-5.31,10.78-10.48,15.12-5.34,4.49-13.92,11.4-21.12,7.99-.91-.43-1.7.85-.8,1.37h0Z" fill="#3c1f0b" stroke-width="0"/><path d="m310.8,369.26c1.61-3.46,4.96-6.03,7.32-8.99,2.34-2.93,4.34-5.93,5.92-9.33,2.3-4.95,5.78-10.94,5.62-16.46-.03-1.19-1.93-1.57-2.17-.29-1.2,6.34-3.89,13.27-7,18.95-2.93,5.35-9.43,9.71-10.86,15.62-.16.67.85,1.18,1.17.49h0Z" fill="#3c1f0b" stroke-width="0"/><path d="m299.88,319.22c-10.16-2.28-17.82-1.19-27.77,1.09-13.23,3.03-32.38,3.24-40.52-9.61-.49-.78-1.93-1-2.36,0-2.18,5,3.91,14.29,6.57,17.76,6.24,8.13,13.65,12.7,23.12,16.45,8.76,3.47,20.31,5.85,29.62,3.09,8.74-2.59,18.97-7.13,25.86-13.08,1.03-.89-.47-2.38-1.49-1.49-6.29,5.46-15.54,9.48-23.47,11.62-7.79,2.1-14.68.99-22.53-.52-8.12-1.56-17.19-5.48-23.33-11.19-4.1-3.81-8.07-8.7-10.14-13.95-.59-1.49-2.49-5.85-1.84-7.31h-2.36c6.04,9.55,16.62,12.14,27.39,12.36,6.74.14,13.38-1,19.84-2.79,7.92-2.2,15.13-2.12,23.22-1.05.79.1.95-1.21.19-1.38h0Z" fill="#3c1f0b" stroke-width="0"/><path d="m327.62,291.56c-1.01,4.95-.85,9.81-.49,14.82.3,4.06.33,9.93,2.86,13.26.54.71,1.7.33,1.49-.63-1.9-8.74-4.16-18.1-2.71-27.13.12-.75-1.01-1.09-1.16-.32h0Z" fill="#3c1f0b" stroke-width="0"/><path d="m332.91,300.29c-.41,4.24-.63,8.44-.58,12.71.02,1.51.76,4.97-.15,6.19-.51.69.44,1.31,1.05,1.05,1.62-.71,1-3.98.94-5.25-.23-4.88-.43-9.83.04-14.7.08-.84-1.23-.83-1.31,0h0Z" fill="#3c1f0b" stroke-width="0"/><path d="m336.65,311.23c-.89,3.25-2.79,6.46-3.23,9.78-.14,1.06,1.66,1.12,1.71,0,.07-1.66.84-3.37,1.31-4.96.44-1.51.86-3.01,1.18-4.55.13-.63-.8-.9-.97-.27h0Z" fill="#3c1f0b" stroke-width="0"/><path d="m357.85,312.71c-4.18.12-8.14,3.2-11.55,5.35-4.46,2.8-7.88,6.43-11.57,10.19-.78.8.43,2.01,1.23,1.23,6.55-6.39,13.27-13.04,21.92-16.61.08-.03.08-.16-.02-.16h0Z" fill="#3c1f0b" stroke-width="0"/><path d="m376.61,319.27c-6.8,11.88-32.91,19.46-45.01,13.67-1.24-.59-2.3,1.14-1.09,1.87,7.87,4.68,19,1.51,26.93-1.22,7.76-2.67,16.15-6.07,20.23-13.69.37-.7-.67-1.31-1.06-.62h0Z" fill="#3c1f0b" stroke-width="0"/><path d="m353.63,326.59c-6.29,4.17-15.02,3.86-22.22,4.21-1.05.05-1.25,1.49-.25,1.83,3.66,1.22,8.34.19,12.03-.65,4.02-.91,7.69-1.98,11.01-4.39.59-.43.05-1.42-.58-1h0Z" fill="#3c1f0b" stroke-width="0"/><path d="m349.38,324.51c-4.99,3.39-11.92,3.99-17.46,6.1-.94.36-.59,1.77.42,1.53,5.71-1.35,12.77-3.2,17.55-6.76.51-.38.04-1.24-.51-.87h0Z" fill="#3c1f0b" stroke-width="0"/><path d="m352.82,372.41c-8.18-12.01-15.45-24.76-21.51-38.03-.52-1.14-2.53-.31-2.04.86,5.54,13.39,13.49,26.43,22.19,37.97.6.79,1.95.06,1.37-.8h0Z" fill="#3c1f0b" stroke-width="0"/><path d="m342.47,345.68c-1.92-2.26-3.22-4.9-5.18-7.15-1.69-1.94-2.65-4.54-4.76-6.07-.79-.57-1.51.61-.97,1.26,1.69,2.04,2.99,4.32,4.84,6.24,1.95,2.01,3.4,4.43,5.39,6.39.44.44,1.07-.21.68-.68h0Z" fill="#3c1f0b" stroke-width="0"/><path d="m336.87,357.69c-3.06-7.6-4.14-15.65-6.87-23.3-.32-.9-1.74-.54-1.45.4,2.37,7.92,3.87,15.72,7.47,23.26.22.47,1.05.13.85-.36h0Z" fill="#3c1f0b" stroke-width="0"/><path d="m305.61,347.56c2.97-1.86,5.46-4.74,7.75-7.36,1.44-1.65,4.29-4.35,4.2-6.68-.04-.92-1.24-1.03-1.55-.21-.95,2.51-2.91,4.86-4.62,6.87-1.92,2.25-3.87,4.76-6.32,6.45-.57.39-.05,1.31.55.93h0Z" fill="#3c1f0b" stroke-width="0"/><path d="m316.83,342.15c2.22-2.85,5.35-5.79,6.75-9.15.3-.72-.79-1.28-1.28-.75-1.19,1.31-2.06,2.96-3.07,4.41-1.1,1.59-2.23,3.16-3.33,4.76-.37.55.51,1.25.93.72h0Z" fill="#3c1f0b" stroke-width="0"/><path d="m322.29,340.88c1.15-.31,1.71-1.52,2.37-2.4.91-1.21,1.87-2.27,1.76-3.9-.06-.91-1.4-.93-1.43,0-.04,1.11-.94,2.07-1.49,2.99-.39.65-.76,1.88-1.53,2.15-.72.25-.44,1.37.32,1.16h0Z" fill="#3c1f0b" stroke-width="0"/><path d="m281.25,328.34c7.92,2.85,16.46,3.29,24.8,2.69,3.54-.25,11.32.69,13.32-3.12.49-.93-.7-1.91-1.48-1.14-2.84,2.79-13.44,2.76-17.3,2.83-6.41.11-12.91-.42-19.04-2.35-.7-.22-.98.85-.3,1.09h0Z" fill="#3c1f0b" stroke-width="0"/><path d="m299.95,314.61c2.73,2.81,5.54,5.56,8.72,7.86,3.36,2.44,6.74,3.52,10.44,5.15,1.19.52,2.25-1.21,1.04-1.78-3.19-1.49-6.52-2.22-9.59-4.08-3.62-2.19-6.82-4.97-9.84-7.92-.5-.49-1.25.26-.76.76h0Z" fill="#3c1f0b" stroke-width="0"/><path d="m311.36,315.7c1.49,1.16,2.39,2.81,3.62,4.22,1.14,1.31,2.79,2.4,4.45,2.9.88.27,1.26-.92.59-1.4-.74-.54-1.63-.82-2.42-1.28-.86-.51-1.55-1.19-2.2-1.94-1.06-1.22-1.99-2.48-3.33-3.41-.53-.37-1.22.5-.7.91h0Z" fill="#3c1f0b" stroke-width="0"/><path d="m316.75,315.67c1.42,1.72,2.09,3.86,3.95,5.23.54.4,1.36-.4.95-.95-.66-.88-1.54-1.54-2.19-2.43-.65-.88-1.19-1.81-1.96-2.6-.48-.5-1.17.23-.75.75h0Z" fill="#3c1f0b" stroke-width="0"/><path d="m321.84,316.9c.12.6.36,1.13.73,1.62.63.84,1.85-.09,1.14-.88-.29-.33-.47-.67-.59-1.09-.24-.83-1.46-.48-1.28.35h0Z" fill="#3c1f0b" stroke-width="0"/><path d="m294.78,262.66c5.94-1.45,15.37-2.96,20.27,1.83.83.82,2.11-.46,1.28-1.28-5.44-5.42-15.33-3.73-21.88-1.74-.76.23-.44,1.38.33,1.19h0Z" fill="#3c1f0b" stroke-width="0"/><path d="m304.26,265.87c2.13.03,3.9.41,5.92,1.05.64.21,1.03-.75.46-1.08-1.93-1.13-4.19-1.19-6.37-1.15-.76.01-.76,1.17,0,1.18h0Z" fill="#3c1f0b" stroke-width="0"/><path d="m312.18,270.45c.43.2.65.43.86.86.33.7,1.37.09,1.04-.61-.28-.58-.7-1.01-1.29-1.29-.7-.33-1.31.71-.61,1.04h0Z" fill="#3c1f0b" stroke-width="0"/><path d="m380.32,159.61c-.24-1.02-1.46-1.72-2.46-1.4-13.1,4.28-23.76,14.24-33.89,23.21-12,10.62-23.8,23.03-32.89,36.27-10.04,14.63-19.34,29.57-26.68,45.75-6.06,13.35-16.21,27.74-15.85,42.9.03,1.08,1.68,1.09,1.68,0,0-.54.05-1.08.07-1.62.26.62.85,1.07,1.76.96,6.89-.79,14.86-3.5,21.21-6.26,8.13-3.54,15.99-6.46,23.84-10.52,3.56-1.84,7.08-2.7,10.4-5.03,3.05-2.14,6.14-4.55,9.04-6.88,6.8-5.47,11.72-12.98,16.34-20.28,4.67-7.36,9.76-14.1,13.33-22.08,3.41-7.64,7.41-13.35,7.87-21.89.54-10.07,1.05-20.36,2.97-30.3,1.33-6.91,4.88-15.8,3.25-22.83Z" fill="#559e00" stroke-width="0"/><path d="m270.24,306.33c0-15.31,11.48-30.73,18.03-44.14,6.94-14.21,15.63-27.31,24.57-40.33,8.66-12.62,19.72-24.4,30.95-34.8,10.27-9.51,21.68-20.38,35.13-24.99-.82-.47-1.64-.93-2.46-1.4,1.66,6.72-2.01,15.58-3.04,22.23-1.19,7.69-2.31,15.63-2.71,23.4-.23,4.49.2,9.24-1.19,13.58-1.23,3.81-3.86,7.15-5.57,10.75-3.54,7.45-7.52,13.7-12.1,20.55-9.65,14.45-18.82,25.81-34.77,33.29-3.51,1.64-6.59,3.92-10.18,5.39-3.25,1.34-6.66,2.2-9.93,3.52-7.79,3.15-16.48,7.29-24.9,8.25-2.56.29-2.59,4.34,0,4.05,6.89-.79,14.86-3.5,21.21-6.26,8.13-3.54,15.99-6.46,23.84-10.52,3.56-1.84,7.08-2.7,10.4-5.03,3.05-2.14,6.14-4.55,9.04-6.88,6.8-5.47,11.72-12.99,16.34-20.28,4.67-7.36,9.76-14.1,13.33-22.08,3.41-7.64,7.41-13.35,7.87-21.89.54-10.07,1.05-20.36,2.97-30.3,1.33-6.91,4.88-15.8,3.25-22.83-.24-1.02-1.46-1.72-2.46-1.4-13.1,4.28-23.76,14.24-33.89,23.21-12,10.62-23.8,23.03-32.89,36.27-10.04,14.63-19.34,29.57-26.68,45.75-6.06,13.35-16.21,27.74-15.85,42.9.03,1.08,1.68,1.09,1.68,0h0Z" fill="#3c1f0b" stroke-width="0"/><path d="m375.35,159.6c-3.44,4.71-4.98,10.45-7.69,15.59-3.51,6.66-7.56,13.05-11.42,19.51-8.16,13.65-16.57,27.39-27.63,38.99-9.3,9.76-18.75,18.42-26.62,29.46-9.2,12.92-18.62,28.5-31.67,37.9-1.8,1.3-.16,4.29,1.78,3.04,11.84-7.65,19.76-20.79,28.05-31.8,5.24-6.96,9.97-14.2,15.82-20.67,4.83-5.34,10.23-10.16,15.09-15.49,19.94-21.87,33.43-49.22,45.36-75.9.32-.73-.59-1.27-1.06-.62h0Z" fill="#3c1f0b" stroke-width="0"/><path d="m326.94,198.45c-4.45,8.55-6.01,19.87-8.61,29.17-2.99,10.68-7.41,20.48-11.57,30.67-.4.98,1.03,1.35,1.56.66,5.69-7.39,8.33-19.02,10.96-27.74,1.48-4.89,2.63-9.72,3.88-14.64,1.37-5.4,2.3-12.52,4.67-17.59.28-.59-.58-1.12-.89-.52h0Z" fill="#3c1f0b" stroke-width="0"/><path d="m370.6,217.85c-.87,2-7.14,6.25-8.78,7.46-2.55,1.89-5.27,3.67-7.91,5.43-5.35,3.58-10.87,7.33-16.49,10.45-5.19,2.89-10.33,5.76-15.66,8.34-4.97,2.41-9.31,6.43-14.44,8.44-1.15.45-.69,2.32.52,1.89,5.29-1.87,9.84-5.83,14.96-8.24,6.68-3.14,13.55-6.57,19.69-10.69,6.13-4.12,12.29-8.19,18.22-12.62,3.55-2.65,9.3-5.85,10.81-10.07.19-.53-.69-.91-.92-.39h0Z" fill="#3c1f0b" stroke-width="0"/><path d="m367.81,201.14c-5.01,6.02-12.52,9.97-18.63,14.7-4.38,3.39-8.8,6.66-13.14,10.1-.81.64.25,2.02,1.11,1.44,5.13-3.49,9.73-7.6,14.66-11.38,5.69-4.37,12.32-8.39,16.8-14.07.44-.56-.33-1.36-.8-.8h0Z" fill="#3c1f0b" stroke-width="0"/><path d="m342.9,188.61c-.39,9.55-3.04,19.27-6.22,28.22-2.02,5.67-5.57,11.19-6.56,17.19-.16.98,1.19,1.75,1.72.73,7.07-13.55,11.91-30.79,12.37-46.14.02-.84-1.27-.84-1.31,0h0Z" fill="#3c1f0b" stroke-width="0"/><path d="m355.24,184.45c-1.35,3.88-1.59,7.98-2.95,11.89-1.11,3.19-2.48,7.48-2.55,10.86-.02.8,1.09.88,1.33.18,1.34-3.82,2.08-7.9,3.18-11.77,1.01-3.56.82-7.38,1.86-10.92.17-.56-.68-.79-.87-.24h0Z" fill="#3c1f0b" stroke-width="0"/><path d="m352.61,246.8c-10.43,6.24-20.65,12.99-31.51,18.53-10.01,5.1-22.47,9.14-31.01,16.51-1.29,1.12.56,2.87,1.85,1.85,9.54-7.56,22.24-12.07,32.89-17.88,9.83-5.36,19.17-11.69,28.25-18.21.48-.34.05-1.12-.47-.8h0Z" fill="#3c1f0b" stroke-width="0"/><path d="m295.69,255.53c-2.3,6.28-4.08,12.68-6.35,18.94-1.24,3.41-1.7,7.09-3.03,10.43-.47,1.18,1.42,1.93,2.02.85,1.83-3.29,2.45-7.8,3.3-11.48,1.42-6.18,3.25-12.36,5.22-18.42.24-.75-.9-1.04-1.16-.32h0Z" fill="#3c1f0b" stroke-width="0"/><path d="m77.22,221.97c-1.04-.11-2.11.82-2.12,1.87-.23,13.78,5.71,27.11,10.88,39.61,6.12,14.81,14,30.01,23.55,42.92,10.55,14.27,21.64,27.93,34.54,40.15,10.65,10.09,20.93,24.37,35.38,28.98,1.03.33,1.58-1.24.55-1.59-.51-.18-1-.4-1.5-.6.68-.05,1.29-.45,1.49-1.35,1.5-6.77,1.54-15.18,1-22.09-.69-8.84-.89-17.22-2.17-25.97-.58-3.97-.24-7.58-1.36-11.47-1.03-3.58-2.29-7.28-3.55-10.79-2.95-8.21-8.45-15.31-13.83-22.06-5.43-6.82-10.14-13.82-16.52-19.81-6.1-5.72-10.2-11.36-18.13-14.58-9.35-3.8-18.9-7.64-27.67-12.69-6.09-3.51-13.35-9.77-20.52-10.53Z" fill="#559e00" stroke-width="0"/><path d="m179.94,373.89c-13.89-4.83-23.56-19.33-33.71-29.38-11.88-11.76-22.05-24.74-31.98-38.16-8.73-11.79-15.79-25.22-21.94-38.53-6.14-13.27-13.24-29.01-13.21-43.86-.67.67-1.33,1.33-2,2,6.74.61,14.18,7.11,20,10.19,6.85,3.63,14.04,7.28,21.23,10.17,3.65,1.46,7.58,2.53,10.95,4.61,3.31,2.05,5.43,5.18,8.04,7.96,6.08,6.46,11.58,12.48,16.97,19.58,10.31,13.59,18.88,26.18,20.28,43.62.25,3.16,1.17,6.19,1.58,9.33.56,4.33.09,8.64.31,13,.42,8.38,1.49,18.06-.36,26.33-.57,2.54,3.34,3.62,3.9,1.08,1.83-8.22,1.2-17.59.61-25.95-.32-4.47.15-8.96-.24-13.42-.37-4.28-1.54-8.39-1.84-12.69-1.2-17.02-11.02-30.39-21.04-43.45-5.34-6.95-10.5-12.9-16.67-19.11-5.36-5.4-8.99-9.51-16.2-12.32-9.11-3.56-18.49-7.55-26.99-12.46-6.17-3.57-13.28-9.69-20.53-10.46-1.09-.12-1.98,1.01-2,2-.25,14.57,6.35,29.02,12.02,42.15,6.71,15.53,15.19,30.91,25.51,44.31,10.5,13.63,21.19,26.44,33.73,38.26,10.17,9.58,19.38,22.41,33.13,26.83,1.04.33,1.46-1.27.45-1.62h0Z" fill="#3c1f0b" stroke-width="0"/><path d="m75.54,226.58c2.82,4.06,6.88,6.88,10.32,10.39,5.69,5.81,10.76,12.19,16,18.4,10.21,12.11,20.4,24.49,27.95,38.52,6.76,12.56,12.12,24.98,20.31,36.75,8.92,12.82,20.37,26.39,24.94,41.59.65,2.17,3.93,1.27,3.39-.94-3.47-14.11-13.81-26.15-21.67-37.95-4.61-6.92-9.63-13.35-13.65-20.65-3.47-6.31-6.26-12.97-9.71-19.31-14.14-25.94-35.62-47.63-56.91-67.56-.49-.46-1.38.15-.97.75h0Z" fill="#3c1f0b" stroke-width="0"/><path d="m96.55,285.13c6.45,6.82,16.41,11.75,24.11,17.15,9.25,6.48,17.28,13.94,25.72,21.33.69.61,1.9-.18,1.34-1.04-4.97-7.56-14.64-13.75-21.83-18.92-4.45-3.2-9.05-6.01-13.54-9.11-4.68-3.23-11-6.2-15.08-10.15-.48-.46-1.18.25-.73.73h0Z" fill="#3c1f0b" stroke-width="0"/><path d="m129.14,250.2c3.34,3.06,4.27,11.28,5.45,15.56,1.63,5.91,2.87,11.86,4.52,17.75,2.07,7.4,2.94,15.35,4.09,22.93.83,5.47,2.97,11.19,3.2,16.69.05,1.25,1.97,1.27,1.96,0-.04-6.39-2.35-13.26-3.17-19.64-.94-7.3-2.22-14.82-4.26-21.88-1.8-6.24-3.17-12.54-5.16-18.74-1.3-4.07-2.49-10.65-5.91-13.38-.49-.4-1.2.26-.71.71h0Z" fill="#3c1f0b" stroke-width="0"/><path d="m112.42,247.4c3.6,5.95,5.05,13.48,7.06,20.04,1.83,6,3.86,11.97,5.94,17.89.39,1.1,2.08.67,1.77-.49-1.87-6.89-4.7-13.45-6.8-20.25-1.81-5.89-3.65-12.55-6.99-17.76-.39-.61-1.36-.06-.98.57h0Z" fill="#3c1f0b" stroke-width="0"/><path d="m92.46,266.82c8.89,3.35,17.31,9.21,24.67,15.12,4.64,3.73,8.8,8.94,14.1,11.81.94.51,1.89-.69,1.14-1.48-10.42-11.02-25.28-21.52-39.57-26.71-.79-.29-1.13.97-.35,1.26h0Z" fill="#3c1f0b" stroke-width="0"/><path d="m92.55,253.8c3.43,2.47,7.21,4.32,10.51,6.96,1.39,1.11,3.01,1.91,4.52,2.86,1.52.95,2.92,2.46,4.69,2.8.59.11,1.24-.67.66-1.13-6.17-4.92-13.37-8-19.93-12.26-.5-.32-.92.45-.46.78h0Z" fill="#3c1f0b" stroke-width="0"/><path d="m150.61,276.65c2.39,11.43,5.34,22.82,7.02,34.4,1.67,11.53,1.28,25.04,5.6,35.88.61,1.53,3.09.92,2.52-.69-3.91-11.14-4.14-24.14-6.02-35.76-1.87-11.53-4.88-22.9-8.22-34.07-.17-.58-1.02-.34-.9.25h0Z" fill="#3c1f0b" stroke-width="0"/><path d="m140.19,333.21c4.38,3.61,8.93,7.04,13.49,10.37,2.07,1.52,4.01,3.22,6.15,4.65,1.58,1.05,3.62,2.02,4.99,3.37.87.85,2.48-.28,1.74-1.34-2.02-2.91-6.99-5.22-9.95-7.08-5.34-3.36-10.65-7.07-15.69-10.92-.54-.41-1.26.51-.73.95h0Z" fill="#3c1f0b" stroke-width="0"/><path d="m155.35,221.61c51.64-14.24,107.35-13.37,158.52,2.48,9.54,37.3,16.39,78.89,4.34,115.46-12.04,36.57-44.98,68.39-83.48,68.81-39.58.43-73.83-32.55-85.5-70.37-11.67-37.82-5.66-78.59,6.11-116.38Z" fill="#ffceac" stroke-width="0"/><path d="m311.06,223.27c-50.4-15.03-105.01-15.65-155.72-1.67-.58,1.86-1.14,3.73-1.69,5.6,11.04,6.79,25.12,9.41,37.64,10.94,38.61,4.72,78.32.23,114.9-12.99,1.63-.59,3.26-1.21,4.87-1.89Z" fill="#ffe3d0" stroke-width="0"/><path d="m156.04,291.36c-.12,4.8.85,10.88,5.49,12.12,5.48,1.47,9.3-5.25,10.97-10.67,10.53-34.19,21.07-68.38,31.6-102.57,2.1-6.81,3.85-15.21-1.17-20.26-4.51-4.54-12.59-3.52-17.4.7-12.85,11.26-9.03,34.64-14.71,49.7-8.64,22.93-14.19,46.39-14.78,70.99Z" fill="#ffceac" mix-blend-mode="screen" stroke-width="0"/><path d="m161.97,319.3c-4.04,3.98-4.69,10.93-1.46,15.6,3.22,4.67,9.93,6.54,15.11,4.23,5.18-2.31,8.27-8.53,7.01-14.06-2.25-9.85-13.8-12.53-20.66-5.78Z" fill="#ffceac" mix-blend-mode="screen" stroke-width="0"/><path d="m318.21,339.55c12.04-36.57,5.19-78.16-4.34-115.46-.71-.22-1.43-.41-2.15-.62-17.77,9.38-37.9,14.36-57.99,13.95-1.36-.03-2.68.56-3.5,1.64-.02.02-.03.05-.05.07-1.84,2.42-.75,5.92,2.16,6.79l25.65,7.71c1.55.47,3.05,1.15,4.32,2.17,6.02,4.87,2.27,11.7-2.36,15.46-3.67,2.99-8.18,5.25-10.56,9.35-3.03,5.21-1.69,11.93,1.07,17.29,2.76,5.36,6.8,10,9.4,15.44,6.43,13.41,2.94,30.18-6.25,41.87-9.19,11.69-23.21,18.8-37.63,22.43s-29.42,4.11-44.27,4.74c-4.37.19-9.11.56-12.66,2.92,15.39,14.19,34.79,23.28,55.68,23.05,38.5-.42,71.44-32.24,83.48-68.81Z" fill="#ffceac" mix-blend-mode="multiply" opacity=".51" stroke-width="0"/><path d="m187.67,76.96c-.68,3.35,0,6.8.66,10.15,3.18,15.87,6.35,31.74,9.53,47.61.71,3.55,1.62,7.42,4.51,9.6,2.45,1.84,5.73,2,8.8,2.08,15.5.43,31.13.84,46.37-2.03,2.92-.55,5.94-1.28,8.22-3.19,2.24-1.88,3.48-4.66,4.64-7.34,2.12-4.89,4.27-9.88,4.79-15.18.62-6.37-1.15-12.75-.93-19.15.23-7.04,2.85-13.77,3.91-20.73.5-3.26.56-6.88-1.4-9.53-2.33-3.16-6.69-3.89-10.6-4.22-23.57-1.99-46.1,2.41-69.39,4.82-4.75.49-8,1.65-9.1,7.09Z" fill="#ffce7b" stroke-width="0"/><path d="m257.54,144.38c2.92-.55,5.94-1.28,8.22-3.19,2.24-1.88,3.48-4.66,4.64-7.34,2.12-4.89,4.27-9.88,4.79-15.18.62-6.37-1.15-12.75-.93-19.15.23-7.04,2.85-13.77,3.91-20.73.5-3.26.56-6.88-1.4-9.53-2.33-3.16-6.69-3.89-10.6-4.22-4.18-.35-8.33-.5-12.46-.49-4.35,3.74-8.41,8.15-10.73,12.74-4.68,9.23,9.28,7.75,12.71,12.55,2.26,3.16.96,7.6-1.04,10.93-2,3.33-4.68,6.47-5.14,10.33-.52,4.33,1.93,8.63,1.32,12.96-.53,3.76-3.35,6.88-6.66,8.74s-7.09,2.67-10.8,3.45c-10.42,2.19-20.84,4.38-31.26,6.56-.34.07-.69.15-1.03.24.39.47.81.91,1.31,1.28,2.45,1.84,5.73,2,8.8,2.08,15.5.43,31.13.84,46.37-2.03Z" fill="#e7b067" stroke-width="0"/><path d="m276.77,69.26c-2.33-3.16-6.69-3.89-10.6-4.22-23.57-1.99-46.1,2.41-69.39,4.82-3.07.32-5.51.92-7.15,2.78-.15.7-.25,1.43-.24,2.22.02,3.19,2.34,6.02,5.16,7.51,2.82,1.49,6.08,1.88,9.26,2.14,23.68,1.92,47.53-2.21,70.25-9.17,1.53-.47,3.24-1.22,4.21-2.38-.23-1.34-.68-2.61-1.49-3.7Z" fill="#ffdca0" stroke-width="0"/><path d="m183.69,106.75c3.41,1.5,6.26,3.52,9.97,4.7,4.77,1.52,8.96,1.19,13.89,1.46,9.02.49,18.03,1.04,27.08.92,8.64-.11,17.48-.78,25.92-2.64,5.3-1.17,13.85-1.99,17.83-6.09.25-.25.08-.75-.3-.73-5.29.25-10.74,2.45-16.06,3.16-9.07,1.21-18.25,1.8-27.39,1.86-7.98.05-16.04-.03-23.99-.62-4.53-.33-9.08.09-13.55-.59-4.33-.65-8.57-2-12.87-2.67-.68-.11-1.29.9-.52,1.24h0Z" fill="#3c1f0b" stroke-width="0"/><path d="m190.85,97.84c-13.12.48-22.57,13.31-16.72,25.53,6.96,14.56,26.41,13.74,40.35,12.99,1.44-.08,1.44-2.16,0-2.24-9.61-.51-26.11.58-33.42-6.35-11.8-11.19-3.55-25.42,9.96-28.75.65-.16.52-1.21-.16-1.18h0Z" fill="#3c1f0b" stroke-width="0"/><path d="m224.47,136.32c1.69.13,3.3.35,5,.26,1.15-.06,1.15-1.73,0-1.78-1.7-.08-3.31.14-5,.26-.81.06-.81,1.2,0,1.26h0Z" fill="#3c1f0b" stroke-width="0"/><path d="m239.28,134.98c.9.16,1.75.32,2.63,0,.63-.23.63-1.05,0-1.28-.88-.32-1.72-.16-2.63,0-.64.11-.64,1.17,0,1.28h0Z" fill="#3c1f0b" stroke-width="0"/><path d="m249.63,134.07c3.66-1,8.21-.06,12.01-.51,3.97-.47,8-1.36,11.87-2.31,5.87-1.45,13.58-3.8,17.29-9.11,8.07-11.56-1.7-25.35-13.58-27.81-2.41-.5-3.45,3.17-1.02,3.71,9.61,2.13,15.68,10.35,12.2,19.97-1.76,4.87-6.43,7.08-11.12,8.79-6,2.19-12.37,3.69-18.73,4.51-2.99.39-6.93-.22-9.44,1.55-.59.42-.25,1.43.51,1.22h0Z" fill="#3c1f0b" stroke-width="0"/><path d="m274.01,107.33c1.8-6.38,4.15-12.74,5-19.55.59-4.73,4.34-13.93,1.35-18.31-3.5-5.13-14.52-5.78-20.05-6.52-9.25-1.23-18.87-.69-28.17-.12-8.61.52-17.27,2.08-25.84,3.08-5.89.68-12.88,1.37-17.41,5.64-11.74,11.07,14.59,12.18,19.47,13.09.96.18,1.38-1.26.41-1.48-4.21-.96-10.95-.64-14.38-3.12-11.22-8.13,5.78-9.99,11.13-10.65,12.94-1.6,25.81-2.77,38.83-3.5,7.26-.41,14.41-.54,21.59.98,2.06.44,4.52,1.14,6.46,1.95,5.28,2.18,5.47,4.58,4.49,9.59-1.11,5.69-1.55,11.44-2.59,17.15-.69,3.8-1.88,7.69-2.2,11.52-.09,1.11,1.61,1.28,1.9.26h0Z" fill="#3c1f0b" stroke-width="0"/><path d="m218.11,84.63c1.78.09,3.59.18,5.36.36,1.56.16,3.06.71,4.64.58.95-.08.98-1.55,0-1.51-1.57.07-3.07-.35-4.64-.33-1.79.02-3.58.27-5.36.35-.36.02-.36.54,0,.55h0Z" fill="#3c1f0b" stroke-width="0"/><path d="m235.57,85.51c7.95-2.1,16.62-.49,24.71-2.83,5.86-1.7,14.38-4.69,18.37-9.53.74-.9.56-1.91-.34-2.61-.12-.09-.23-.18-.35-.27-1.3-1.01-2.88.89-2.15,2.15.06.1-17.66,8.26-19.26,8.63-6.86,1.61-14.8.65-21.38,3.05-.87.32-.53,1.65.39,1.41h0Z" fill="#3c1f0b" stroke-width="0"/><path d="m186.84,75.5c1.68,4.15.95,10.5,1.85,15.01,1.22,6.14.99,12.92,2.72,18.86.64,2.19,3.94,1.28,3.42-.94-1.53-6.47-1.51-13.2-3.18-19.72-1.08-4.18-.93-10.19-3.24-13.86-.49-.78-1.94-.28-1.56.66h0Z" fill="#3c1f0b" stroke-width="0"/><path d="m193.1,115.71c-.05,1.16.45,2.31.28,3.45-.15.98,1.29,1.16,1.33.18.06-1.27-.57-2.39-.66-3.63-.04-.61-.93-.62-.96,0h0Z" fill="#3c1f0b" stroke-width="0"/><path d="m194.49,123.31c-.23,1.03.07,2.02.29,3.03.15.7.12,1.36.2,2.06.09.79.47,1.49.47,2.3,0,1.11,1.64,1.09,1.71,0,.04-.67-.12-1.2-.32-1.84-.21-.71-.17-1.4-.32-2.11-.24-1.14-1.09-2.13-1.12-3.32-.01-.51-.8-.65-.91-.12h0Z" fill="#3c1f0b" stroke-width="0"/><path d="m197.2,138.09c.94,6.42,2.3,10.48,9.24,11.55,9.65,1.49,20.26.36,29.99-.05,8.56-.36,17.95-1.15,26.21-3.57,6.44-1.88,8.59-7.79,10.04-14.03.43-1.84-2.27-2.59-2.84-.78-.77,2.46-1.99,6.76-3.64,8.87-2.17,2.78-5.67,3.49-8.97,4-7.25,1.13-14.56,2.11-21.89,2.28-6.06.14-12.21-.65-18.16-.24-3.68.25-8.73,1.26-12.37.02-4.13-1.41-4.61-5.24-6.74-8.41-.32-.47-.95-.16-.87.37h0Z" fill="#3c1f0b" stroke-width="0"/><path d="m272.26,130.06c.32-1.76.26-3.64.85-5.33.51-1.46,1.27-2.81.76-4.37-.3-.94-1.9-1.41-2.37-.31-.61,1.43-1.27,3.13-1.59,4.65-.38,1.82-.03,3.57.35,5.36.2.97,1.8,1,1.99,0h0Z" fill="#3c1f0b" stroke-width="0"/><path d="m274.36,114.82c.56-.78.89-1.36.4-2.3-.34-.64-1.5-.55-1.63.21-.08.47-.35.91-.51,1.35-.41,1.09,1.16,1.54,1.75.74h0Z" fill="#3c1f0b" stroke-width="0"/><path d="m198.97,89.55c-.06.38-.66.65-.9.96-.37.48-.53,1.06-.61,1.65-.16,1.16.07,2.41.82,3.33,1.58,1.93,4.52,1.54,6.06-.18,1.79-2,1.85-4.88-.18-6.77-1.2-1.11-4.78-2.04-5.26.37-.05.24.11.55.4.52.47-.04.96-.23,1.43-.24.74-.02,1.37.71,1.83,1.24,1.03,1.2,1.03,2.9-.41,3.8-1.36.84-2.65-.33-2.5-1.77.12-1.12,1.09-1.7.73-2.9-.19-.64-1.28-.75-1.41,0h0Z" fill="#3c1f0b" stroke-width="0"/><path d="m199.67,89.87c.16,0,.16-.25,0-.25s-.16.25,0,.25h0Z" fill="#3c1f0b" stroke-width="0"/><path d="m197.67,91.58c-.04.5-.08.97-.01,1.47.03.23.32.23.35,0,.06-.5.03-.97-.01-1.47-.02-.21-.31-.21-.33,0h0Z" fill="#3c1f0b" stroke-width="0"/><path d="m216.74,92.66c-1.94-.72-2.48,1.75-2.18,3.12.43,2.02,3.04,2.88,4.82,2.06.84-.38,1.37-1.43,1.64-2.28.28-.88.1-1.85-.53-2.53-1.19-1.31-3.6-1.49-5.07-.58-1.03.64-.34,2.14.8,1.91.79-.16,1.7-.27,2.45.12.17.09.34.2.38.34.09.3-.17,1.01-.4,1.21-.27.24-.87.16-1.21.1-.29-.06-.6-.16-.82-.37-.09-.08-.05-.03-.09-.17-.12-.33-.18-.74-.15-1.09.01-.12.02-.24.07-.34.03-.06-.22,0,.08.03.93.09.97-1.24.21-1.53h0Z" fill="#3c1f0b" stroke-width="0"/><path d="m236.82,97.27l.11-.2c.41-.76.37-1.86-.32-2.47-.05-.05-.1-.09-.16-.14-.72-.64-1.71-.81-2.57-.33-.05.03-.11.06-.16.09-1.04.58-1.39,2.31-.4,3.13.58.48,1.09.74,1.85.73-.48-.2-.96-.4-1.44-.6.07.05.14.11.2.16.88.7,2.26.76,2.88-.37h0Z" fill="#3c1f0b" stroke-width="0"/><path d="m209.94,103.61c2.28,0,2.28-3.54,0-3.54s-2.28,3.54,0,3.54h0Z" fill="#3c1f0b" stroke-width="0"/><path d="m223.5,104.91c1.58,0,1.59-2.46,0-2.46s-1.59,2.46,0,2.46h0Z" fill="#3c1f0b" stroke-width="0"/><path d="m251.58,89.38c.12-.98-.76-1.35-1.55-.91-1.09.61-1.42,1.93-1.49,3.08-.07,1.16.02,2.31,1.09,2.99,1.38.88,3.06.74,4.59.41,1.05-.22,1.84-.55,2.26-1.6.57-1.42.74-2.93-.22-4.2-1.54-2.03-5.23-3.12-7.04-.82-.53.67-.07,1.98.94,1.62,1.12-.4,2.11-.76,3.23-.13.51.29,1.03.76,1.18,1.33.07.27-.07,1.53-.14,1.58-.26.22-1.05.25-1.37.3-.64.1-2.01.23-2.42-.42-.21-.33-.14-1.06-.13-1.43.01-.41.12-.75.18-1.15.03-.06.07-.11.1-.17.27-.25.17-.31-.3-.19.26.59,1.02.2,1.08-.29h0Z" fill="#3c1f0b" stroke-width="0"/><path d="m244.09,110.64c.01-.99-.16-2.11.31-3.02.56-1.08,1.67-1.4,2.82-1.5.77-.06,2-.18,2.69.22,1.21.7,1.17,1.99,1.12,3.19-.06,1.38,2.06,1.37,2.14,0,.1-1.89.06-3.02-1.42-4.38-1.28-1.18-2.88-1.13-4.53-1-1.49.12-2.92.59-3.94,1.74-1.21,1.37-.88,3.06-.77,4.74.07,1.01,1.57,1.03,1.58,0h0Z" fill="#3c1f0b" stroke-width="0"/><path d="m263.35,85.71c-.01.09-.02.19-.03.28-.02.15.1.33.23.41.92.5,2.22.2,3.21.09,1.77-.21,3.25-.29,4.91-1,.92-.39.45-1.94-.51-1.87-.95.07-1.61.57-2.51.82-.69.19-1.41.29-2.1.48-1.03.27-2.09.43-3.11.7-.05.01-.08.06-.08.11h0Z" fill="#3c1f0b" stroke-width="0"/><path d="m265.25,90.8c.44-.34,1.54.11,1.99.23,1.5.41,1.59-2.21,0-1.84-.52.12-1.07.09-1.59.23-.55.14-.79.4-1.11.83-.33.45.34.84.71.55h0Z" fill="#3c1f0b" stroke-width="0"/><path d="m264.56,94.93c.49.04.98.1,1.47.09,1.13-.02,1.13-1.73,0-1.76-.49-.01-.98.05-1.47.09-1.02.08-1.02,1.5,0,1.58h0Z" fill="#3c1f0b" stroke-width="0"/><path d="m258.7,102.38c2.8.19,5.92-.21,8.67-.77,1.13-.23.66-2.04-.48-1.74-2.61.67-5.51,1.18-8.19,1.43-.69.06-.7,1.03,0,1.08h0Z" fill="#3c1f0b" stroke-width="0"/><path d="m261.76,105.26c.84.16,1.91-.03,2.38-.82.23-.38.07-.85-.28-1.08-.31-.21-.61-.26-.98-.17-.31.08-.57.33-.89.34-.96,0-1.24,1.54-.23,1.73h0Z" fill="#3c1f0b" stroke-width="0"/><path d="m222.77,73.8c5.05.13,10.28-.78,15.34-1.15,4.72-.35,9.53-.46,14.21-1.17,1-.15.62-1.53-.22-1.63-9.69-1.15-19.75,1.86-29.33,2.84-.69.07-.73,1.09,0,1.11h0Z" fill="#3c1f0b" stroke-width="0"/><path d="m235,75.55c4.58-.81,9.23-.33,13.8-.78,1.03-.1,1.01-1.46,0-1.58-4.48-.57-9.7.39-14.06,1.42-.62.15-.35,1.05.26.95h0Z" fill="#3c1f0b" stroke-width="0"/><path d="m241.47,78.58c2.65.11,5.66-.08,8.27-.55.94-.17.59-1.44-.21-1.53-2.62-.3-5.43.85-8.07.95-.73.03-.73,1.1,0,1.13h0Z" fill="#3c1f0b" stroke-width="0"/><path d="m198.84,75.18c1.31-.59,3.86-.51,5.35-.73,2.15-.32,4.33-.77,6.47-1.03.69-.08.7-1.01,0-1.08-2.2-.22-4.68.32-6.86.72-1.76.33-3.93.33-5.51,1.19-.62.34-.08,1.21.55.93h0Z" fill="#3c1f0b" stroke-width="0"/><path d="m203,77.31c.63-.56,1.76-.43,2.54-.41,1.1.02,2.19.05,3.29.04.99,0,.99-1.52,0-1.53-1.86-.02-5.2-.46-6.63,1.1-.49.54.26,1.28.8.8h0Z" fill="#3c1f0b" stroke-width="0"/><path d="m206.27,79.77c.31,0,.59.02.9.09,1.24.25,1.24-1.73,0-1.48-.3.06-.59.08-.9.09-.84.02-.84,1.29,0,1.31h0Z" fill="#3c1f0b" stroke-width="0"/><path d="m201.48,121.35c6.46,1.11,13.12,1.59,19.64.61.81-.12.6-1.42-.19-1.41-6.39.08-13.09-.09-19.43.64-.08,0-.12.14-.02.16h0Z" fill="#3c1f0b" stroke-width="0"/><path d="m208.84,125.88c1.02.08,2.06.08,3.06.29.81.17,1.6.42,2.44.41,1.17-.02,1.16-1.75,0-1.81-.87-.04-1.72-.2-2.59-.25-.97-.06-1.95.12-2.91.21-.74.07-.75,1.1,0,1.16h0Z" fill="#3c1f0b" stroke-width="0"/><path d="m213.45,129.52c.79.18,1.74.36,2.51.05.58-.24.58-.95,0-1.19-.77-.31-1.72-.13-2.51.05-.54.12-.54.97,0,1.09h0Z" fill="#3c1f0b" stroke-width="0"/><path d="m237.43,122.45c7.99.53,15.87-.15,23.83-.75,1.47-.11,1.5-2.38,0-2.31-7.96.35-15.88,1.62-23.83,2.18-.56.04-.57.84,0,.88h0Z" fill="#3c1f0b" stroke-width="0"/><path d="m245.35,126.21c2.9.44,6.04.24,8.95-.05,1.09-.11,1.11-1.62,0-1.71-2.92-.24-6.07.2-8.95.69-.52.09-.53.99,0,1.07h0Z" fill="#3c1f0b" stroke-width="0"/><path d="m250.84,128.82c.67.12,1.32.33,1.92-.07.38-.26.38-.76,0-1.02-.6-.4-1.25-.19-1.92-.07-.58.1-.58,1.06,0,1.16h0Z" fill="#3c1f0b" stroke-width="0"/><path d="m218.3,144.15c.72-.36,3.93.26,4.79.19,2.33-.18,4.65-.41,6.98-.57,3.19-.22,6.3-.98,9.44-1.43,1.03-.15.8-1.95-.25-1.83-4.07.46-8.05,1.2-12.16,1.53-2.27.18-4.49.74-6.77.78-1.09.02-1.72-.3-2.63.31-.63.42-.09,1.36.6,1.02h0Z" fill="#3c1f0b" stroke-width="0"/><path d="m246.08,141.63c.85.18,1.36-.14,2.15-.32.81-.18.44-1.32-.33-1.21-.57.08-1.09.4-1.67.39-.64,0-.8,1-.15,1.14h0Z" fill="#3c1f0b" stroke-width="0"/><path d="m187.06,132.91c-10.46,8.19-4.84,17.38,6.16,20.77,6.88,2.12,13.98,2.01,21.12,1.98,9.32-.04,18.27.59,27.58-.39,6.69-.7,13.33-1.03,19.98-2.25,5.79-1.07,13.54-2.22,18.7-5.07,9.38-5.19,3.71-18.05-4.95-20.32-1.95-.51-2.78,2.61-.83,3,3.81.78,7.46,3.93,7.71,7.92.52,8-4.5,7.72-8.93,8.9-3.95,1.05-7.92,1.93-11.93,2.74-8.29,1.68-17.03,2.38-25.45,3.08-4.94.41-9.71-.04-14.62-.26-5.4-.24-10.9.55-16.29.12-4.44-.35-9.74-1.13-13.76-2.88-5.71-2.49-8.99-4.6-5.81-12.43.53-1.32,1.65-2.84,2.43-4.05.47-.73-.52-1.31-1.11-.85h0Z" fill="#3c1f0b" stroke-width="0"/><path d="m181.41,141.6c2.32,5.22-3.84,14.73-6.36,19.1-2.99,5.17-6.35,10.06-9.01,15.42-5.3,10.68-10.89,21.98-14.57,33.29-7.9,24.29-10.78,52.31-10.09,77.77.64,23.83.4,51.39,12.48,72.74,5.08,8.97,12.09,17.72,19.76,24.48,3.36,2.96,6.88,6,10.65,8.47,4.51,2.96,9.73,4.03,14.53,6.53,8.73,4.56,17.82,4.2,27.42,6.39,12.13,2.76,23.96,1.45,35.2-4.09,1.77-.87.22-3.36-1.52-2.6-6.09,2.63-14.42,5.14-21.03,5-6.18-.13-11.92-1.99-17.92-3.08-4-.73-8.16-.65-12.03-1.63-3.71-.94-6.95-2.68-10.38-4.34-4.4-2.13-9.06-3.37-13.18-6.1-4.08-2.7-7.86-6.53-11.45-9.85-8.65-7.98-16.47-18.87-20.71-29.95-4.5-11.75-5.39-24.56-6.46-37-1.1-12.84-1.7-26.08-.92-38.95,1.54-25.52,4.15-50.74,14.49-74.29,5.16-11.76,10.04-23.25,16.16-34.54,2.93-5.4,9.47-17.13,5.84-23.28-.34-.57-1.13-.07-.87.51h0Z" fill="#3c1f0b" stroke-width="0"/><path d="m283.7,141.1c-2.98,5.04,1.41,14.17,3.57,18.87,4.69,10.23,10.45,19.82,14.87,30.23,4.54,10.69,9.55,21.17,11.91,32.63,2.7,13.12,4.3,26.3,5.33,39.64,1.94,25.25,2.32,53.31-3.87,78.05-2.9,11.58-8.74,20.77-15.78,30.2-6.25,8.36-15.84,17.57-25.54,21.7-8.28,3.53-15.54,6.93-24.46,7.9-6.27.68-12.21,2.67-18.47,3.36-8.4.92-17.39-1.21-25.16-4.57-1.74-.75-3.29,1.73-1.52,2.6,9.76,4.81,20.46,6.75,31.2,4.96,5.73-.96,11.13-2.74,16.99-3.2,3.16-.25,5.53-.36,8.53-1.34,19.89-6.45,34.17-18.84,46.42-35.5,14.24-19.37,15.44-44.49,16.32-67.67,1-26.55-.34-53.77-6.57-79.73-3.22-13.4-9.54-25.82-15.25-38.29-2.73-5.96-5.9-11.53-9.35-17.09-3.11-5-11-16.19-8.3-22.26.26-.58-.53-1.08-.87-.51h0Z" fill="#3c1f0b" stroke-width="0"/><path d="m183.67,171.73c-.99,6.3-3.73,12.65-5.46,18.83-2.18,7.79-4.47,15.54-7.15,23.17-5.23,14.88-9.6,29.78-12.4,45.33-1.2,6.7-2.14,13.45-2.21,20.27-.06,5.74-.91,12.7.67,18.33,2,7.11,7.29,7.15,11.59,1.99,8.81-10.57,13.03-22.46,14.18-35.88,1.31-15.2,5.08-29.84,10.07-44.27,5.05-14.61,13.61-25.99,15.44-41.7.88-7.6-4.05-14.59-11.84-15.7-10.41-1.48-14.05,7.77-15.7,16.29-.84,4.37-2.56,8.39-3.54,12.69-1.06,4.64-.7,7.65-3.17,12.15-2.91,5.3-3.34,11.11-5.08,16.92-.46,1.52,1.9,2.16,2.37.65,1.86-5.92,2.78-11.58,5.54-17.07,2.68-5.34,2.97-10.64,4.61-16.27,1.62-5.56,2.03-15.78,6.65-19.94,5.78-5.22,15.24-1.04,17.19,5.87.66,2.36-.94,8.31-1.28,11.25-.67,5.72-2.51,10.2-5.05,15.33-2.87,5.8-6.03,11.43-8.26,17.53-4.17,11.44-8.47,24.44-9.75,36.54-.8,7.63-.4,15.96-2.83,23.28-2.19,6.58-6.28,13.18-10.35,18.77-1.67,4.31-4.39,4.58-8.15.81-.38-1.71-.55-3.43-.51-5.17-.2-3.65-.14-7.39-.14-11.05,0-8.52,1.2-16.9,2.83-25.25,2.84-14.57,7-28.49,11.57-42.58,2.34-7.22,4.32-14.55,6.22-21.9,1.61-6.21,4.23-12.61,5.15-18.92.12-.79-1.09-1.14-1.21-.33h0Z" fill="#3c1f0b" stroke-width="0"/><path d="m159.6,318.52c-.18,7.32-.52,16.71,8.05,19.43,7.24,2.29,14.07-4.95,14.88-11.72.89-7.49-7.91-14.98-15.25-13.08-4.19,1.08-7.72,5.78-8.42,9.91-.75,4.43,1.43,7.38,5.05,9.65.95.6,2.33-.64,1.62-1.62-2.03-2.78-4.58-4.57-3.46-8.46,1.26-4.38,5.56-7.68,10.03-6.17,6.16,2.08,9.47,7.72,6.2,13.68-2.85,5.18-9.24,7.89-13.91,3.12-3.66-3.74-3.14-9.94-3.22-14.75-.02-1.02-1.56-1.02-1.58,0h0Z" fill="#3c1f0b" stroke-width="0"/><path d="m259.14,384.75c.85.21,1.67.47,2.56.4.94-.08.94-1.38,0-1.46-.89-.07-1.71.19-2.56.4-.32.08-.32.58,0,.65h0Z" fill="#3c1f0b" stroke-width="0"/><path d="m270.77,385.77c.5,0,.98.03,1.47.1,1.05.15,1.06-1.41,0-1.26-.5.07-.97.1-1.47.1-.68,0-.68,1.06,0,1.06h0Z" fill="#3c1f0b" stroke-width="0"/><path d="m155.45,226c1.71-.16,4,.39,5.32,1.54.61.53,1.51-.38.89-.89-1.59-1.32-4.16-2-6.21-1.76-.69.08-.72,1.17,0,1.11h0Z" fill="#3c1f0b" stroke-width="0"/><path d="m195.81,232.54c9.28.03,18.21,4.92,27.7,5.45,11.02.61,21.91,1.38,32.95.11,9.03-1.03,18.33-2.18,27.25-3.93,8.15-1.6,18.92-3.67,25.61-8.89.87-.68-.24-1.91-1.13-1.46-8.54,4.27-18.55,7-27.95,8.56-10.03,1.67-20.75,3.32-30.87,3.94-9.28.57-18.99.12-28.27-.57-8.53-.63-16.82-4.42-25.3-4.22-.65.01-.65,1,0,1.01h0Z" fill="#3c1f0b" stroke-width="0"/><path d="m311.13,218.22c-1.13.09-2.28-.34-3.36-.63-1.04-.28-2.05-.62-3.07-.97-.64-.22-1.1.83-.46,1.1,2.18.94,4.62,2.16,7.06,1.73.69-.12.54-1.29-.17-1.23h0Z" fill="#3c1f0b" stroke-width="0"/><path d="m297.13,216.56c-1.65,0-3.29,0-4.94.01-.81,0-.81,1.25,0,1.26,1.65,0,3.29,0,4.94.01.82,0,.83-1.28,0-1.28h0Z" fill="#3c1f0b" stroke-width="0"/><path d="m272.41,215.01c-25.05-1.04-48.95-2.7-73.67,2.54-1.73.37-.97,2.9.72,2.62,12.53-2.11,24.7-4.31,37.5-4.35,11.84-.04,23.63.15,35.45.3.71,0,.71-1.08,0-1.11h0Z" fill="#3c1f0b" stroke-width="0"/><path d="m164.82,218.34c-.58.53-1.2.65-1.96.56-.98-.12-1,1.47,0,1.56,1.16.1,2.16-.28,2.99-1.09.67-.66-.34-1.66-1.03-1.03h0Z" fill="#3c1f0b" stroke-width="0"/><path d="m216.13,229.2c3.4,1.86,6.74,2.11,10.55,2.08,5.5-.04,10.9.94,16.36.85,5.11-.08,10.39-.64,15.45-1.18,5.58-.6,11.27.48,16.65-1.33,1.13-.38.67-2.1-.49-1.79-4.89,1.27-9.41.3-14.33.68-4.05.31-8.15.79-12.22,1.15-5.28.46-9.97.02-15.2-.13-5.61-.16-10.81,1.44-16.22-1.27-.62-.31-1.16.6-.55.93h0Z" fill="#3c1f0b" stroke-width="0"/><path d="m256.76,254.84c15.15-.85,31.78-1.83,46.4-6.17,1.25-.37.71-2.35-.54-1.96-13.97,4.37-31.32,6.15-45.86,7.01-.72.04-.73,1.17,0,1.13h0Z" fill="#3c1f0b" stroke-width="0"/><path d="m306.19,248.46c2.05,0,2.06-3.19,0-3.19s-2.06,3.19,0,3.19h0Z" fill="#3c1f0b" stroke-width="0"/><path d="m265.99,258.16c6.36-1.17,13.09-1.71,19.55-1.85,2.35-.05,5.79.64,7.2-1.7.27-.45-.19-1.18-.74-.96-3.47,1.39-7.79,1.06-11.51,1.42-4.99.48-9.93.89-14.84,1.91-.78.16-.44,1.33.33,1.19h0Z" fill="#3c1f0b" stroke-width="0"/><path d="m278.6,262.93c1.67-1.74,4.97-1.7,7.21-1.9,2.56-.22,5.17-.17,7.53-1.24.61-.28.3-1.26-.34-1.24-3.04.12-6.14.68-9.16,1.14-2.18.33-4.49.75-6.08,2.41-.53.55.31,1.38.84.84h0Z" fill="#3c1f0b" stroke-width="0"/><path d="m280.65,266.33c3.04.02,6.02-.72,9.06-.6.97.04.97-1.54,0-1.51-3.06.1-6,1.03-9.06,1.05-.68,0-.68,1.05,0,1.06h0Z" fill="#3c1f0b" stroke-width="0"/><path d="m285.75,270.48c1.11-.16,1.98-.83,3.14-.75.71.04.85-1.06.17-1.23-1.37-.34-2.33.62-3.62.87-.74.15-.41,1.22.31,1.11h0Z" fill="#3c1f0b" stroke-width="0"/><path d="m285.59,274.65c.82,0,1.65.06,2.47.03.81-.03.81-1.22,0-1.26-.82-.03-1.65.03-2.47.03-.78,0-.78,1.21,0,1.21h0Z" fill="#3c1f0b" stroke-width="0"/><path d="m285.59,274.44c.52,0,.52-.8,0-.8s-.52.8,0,.8h0Z" fill="#3c1f0b" stroke-width="0"/><path d="m206,331.4c-.22.29-.44.58-.66.87-.17.23-.08.58.1.76,2.4,2.59,7.45,2.36,10.75,2.61,8.16.62,16.44.34,24.62.38,15.89.08,31.44-1.5,47.26-2.33,1.48-.08,1.49-2.39,0-2.31-12.84.65-25.52,2.41-38.4,2.63-5.91.1-11.82.08-17.73.13-3.12.03-6.24.1-9.35.08-2-.01-16.08-1.42-15.54-2.2.45-.65-.58-1.21-1.04-.61h0Z" fill="#3c1f0b" stroke-width="0"/><path d="m227.93,341.17c12.35,1.03,25.79,2.49,38.07.25.87-.16.49-1.43-.36-1.31-12.34,1.79-25.31,1.19-37.71.25-.52-.04-.51.76,0,.8h0Z" fill="#3c1f0b" stroke-width="0"/><path d="m233.7,345.45c5.06.23,10.14,1.11,15.03-.66.9-.33.53-1.75-.4-1.45-4.71,1.52-9.76.87-14.63.99-.73.02-.73,1.1,0,1.13h0Z" fill="#3c1f0b" stroke-width="0"/><path d="m239.47,350.36c1.59.16,2.98.96,4.58,1.11,1.77.17,3.53,0,5.3-.06.98-.03.99-1.52,0-1.53-1.76-.02-3.54.13-5.3.03-1.55-.08-3.02-.64-4.58-.63-.71,0-.68,1.01,0,1.08h0Z" fill="#3c1f0b" stroke-width="0"/><path d="m244.28,353.57c2.27.68,4.08.26,6.13-.86.54-.29.06-1.12-.48-.82-1.83,1.01-3.35,1.39-5.4.79-.58-.17-.82.73-.25.9h0Z" fill="#3c1f0b" stroke-width="0"/><path d="m170.27,363.56c13.02,1.16,26.54,1.01,39.54-.48,1.13-.13,1.13-1.93,0-1.78-12.98,1.72-26.49,2.12-39.54,1.16-.71-.05-.7,1.04,0,1.11h0Z" fill="#3c1f0b" stroke-width="0"/><path d="m184.28,366.83c1.1,0,2.2,0,3.3.01.7,0,.7-1.08,0-1.08-1.1,0-2.2,0-3.3.01-.68,0-.68,1.05,0,1.06h0Z" fill="#3c1f0b" stroke-width="0"/><path d="m195.81,286.18c18.32.1,36.91.51,55.19-.67.97-.06.98-1.46,0-1.51-18.32-.84-36.85.81-55.19.97-.78,0-.78,1.2,0,1.21h0Z" fill="#3c1f0b" stroke-width="0"/><path d="m207.34,293.62c3.71.04,7.37-.63,11.07-.61,4.02.02,7.96.76,11.99.68.91-.02.91-1.38,0-1.41-4-.12-7.98-.92-11.99-.82-3.71.09-7.36.84-11.07.9-.81.01-.81,1.25,0,1.26h0Z" fill="#3c1f0b" stroke-width="0"/><path d="m213.11,299.29c3.84.03,7.69.06,11.53.09.81,0,.81-1.26,0-1.26-3.84.03-7.69.06-11.53.09-.7,0-.7,1.08,0,1.08h0Z" fill="#3c1f0b" stroke-width="0"/><path d="m220.52,302.69c.75-.06,1.46.11,2.05.6.58.48,1.36-.27.84-.84-.79-.86-1.73-1.2-2.89-1.05-.79.1-.84,1.35,0,1.28h0Z" fill="#3c1f0b" stroke-width="0"/><path d="m226.29,307.38c.27-.01.55-.03.82-.04.45-.02.45-.68,0-.7-.27-.01-.55-.03-.82-.04-.5-.02-.5.8,0,.78h0Z" fill="#3c1f0b" stroke-width="0"/><path d="m274.89,303.36c13.73-.42,27.14-2.04,40.59-4.61.94-.18.74-1.76-.23-1.68-13.48,1.09-26.73,4.49-40.36,5.31-.62.04-.64,1,0,.98h0Z" fill="#3c1f0b" stroke-width="0"/><path d="m294.65,308.33c3.1.12,6.74.29,9.4-1.59.69-.49.04-1.64-.67-1.15-2.52,1.71-5.79,1.7-8.72,1.71-.67,0-.66,1.01,0,1.03h0Z" fill="#3c1f0b" stroke-width="0"/><path d="m300.42,311.65c.91-.04,1.52-.38,1.97-1.17.22-.39-.27-.73-.59-.46-.39.33-.87.53-1.38.55-.69.03-.7,1.11,0,1.08h0Z" fill="#3c1f0b" stroke-width="0"/><path d="m307.83,310.89c.55.03,1.1.06,1.65.09.89.05.89-1.43,0-1.38-.55.03-1.1.06-1.65.09-.78.04-.78,1.16,0,1.21h0Z" fill="#3c1f0b" stroke-width="0"/><path d="m234.52,166.73c7.16-.69,14.33-1.2,21.51-1.67,4.13-.27,12.99-2.75,16.76-.63,1.02.57,1.83-.89.9-1.54-3.43-2.41-9.84-.27-13.64.07-8.52.75-17.04,1.54-25.53,2.58-.74.09-.76,1.25,0,1.18h0Z" fill="#3c1f0b" stroke-width="0"/><path d="m243.58,172.43c9.3-1,20.1-3.58,29.4-2.07,1.23.2,1.73-1.69.51-1.87-9.73-1.37-20.41,1.5-30.05,2.9-.58.08-.45,1.1.14,1.04h0Z" fill="#3c1f0b" stroke-width="0"/><path d="m252.65,178.13c10.18.18,20.3-1.08,30.48-1.09,1.31,0,1.31-2.07,0-2.04-10.2.24-20.3,1.63-30.48,2.2-.59.03-.6.92,0,.93h0Z" fill="#3c1f0b" stroke-width="0"/><path d="m258.41,184c8.51.22,17.03-.4,25.54-.58,1.03-.02,1.04-1.6,0-1.61-8.53-.04-17.01,1.06-25.54,1.06-.73,0-.73,1.11,0,1.13h0Z" fill="#3c1f0b" stroke-width="0"/><path d="m272.41,190.81c1.79.09,3.57.39,4.76-1.24.5-.69-.59-1.5-1.16-.9-.89.94-2.44.59-3.59.56-1.02-.03-1.01,1.53,0,1.58h0Z" fill="#3c1f0b" stroke-width="0"/><path d="m277.13,192.49c1.28.24,2.45,0,3.3-1.04.68-.83-.42-2.01-1.21-1.21-.53.54-1.14.67-1.87.57-.95-.12-1.17,1.5-.23,1.68h0Z" fill="#3c1f0b" stroke-width="0"/><path d="m215.23,193.91c2.35,1.15,4.7.53,7.2.3,4.56-.42,9.18-.53,13.75-.76,1.23-.06,1.22-1.99,0-1.91-3.76.25-7.51.59-11.27.86-2.77.2-6.39,1.43-8.98.32-.8-.34-1.51.8-.7,1.19h0Z" fill="#3c1f0b" stroke-width="0"/><path d="m222.17,198.1c3.32-.09,6.56-.37,9.88-.08.57.05.82-.86.3-1.1-3.18-1.44-6.83-.24-10.18-.16-.86.02-.86,1.35,0,1.33h0Z" fill="#3c1f0b" stroke-width="0"/><path d="m229.58,200.54c.81,0,.81-1.26,0-1.26s-.81,1.26,0,1.26h0Z" fill="#3c1f0b" stroke-width="0"/><path d="m227.37,200.47c.83.83,1.65,1.64,2.55,2.39.67.56,1.52-.29.96-.96-.75-.9-1.56-1.72-2.39-2.55-.72-.72-1.84.4-1.12,1.12h0Z" fill="#3c1f0b" stroke-width="0"/><path d="m196.39,394.37c6.51.22,13.16-1.09,19.7-1.42,7.28-.37,14.57.12,21.85-.31,12.56-.74,25.52-3.42,38.06-1.93.75.09.89-1.13.18-1.31-12.53-3.12-25.56-.95-38.24-.16-14.26.89-27.64,1.03-41.76,3.57-.91.16-.65,1.53.21,1.55h0Z" fill="#3c1f0b" stroke-width="0"/><path d="m213.74,398.39c18.64-3.56,38.14-1.02,56.72.04,1.56.09,1.73-2.16.35-2.62-8.03-2.64-18.09-2.65-26.49-2.14-10.21.62-21.02.72-31.01,3.14-1.03.25-.59,1.77.43,1.58h0Z" fill="#3c1f0b" stroke-width="0"/><path d="m272.97,397.22c.15,0,.15-.23,0-.23s-.15.23,0,.23h0Z" fill="#3c1f0b" stroke-width="0"/><path d="m239.72,401.84c3.85.28,7.73.31,11.59.41,1.44.04,1.44-2.28,0-2.24-3.86.1-7.74.14-11.59.41-.9.07-.91,1.34,0,1.41h0Z" fill="#3c1f0b" stroke-width="0"/><path d="m253.32,401.91c1,0,1-1.56,0-1.56s-1,1.56,0,1.56h0Z" fill="#3c1f0b" stroke-width="0"/><path d="m282.05,349.35c-2.74-10.6-18.46-26.63-29.16-17.07-.82.73.17,2.13,1.03,1.4,3.87-3.3,8.53-2.59,12.76-.2-.3.03-.55.33-.31.62,4.07,4.81,8.39,10.67,7.17,17.32-1.33,7.27-8.62,11.76-15.09,14.36-9.82,3.94-25.41,5.24-34.38-1.49-11.92-8.94-12.59-28.35-27.12-33.86,2.95-6.41,7.35-12.23,9.63-18.92,2.29-6.73,1.73-14.44-.56-21.12-2.69-7.86-8.83-11.53-16.46-14-14.28-4.62-32.39-.7-42.53,10.61-5.12,5.71-7.28,12.02-8.16,18.62-1.98-5.22-4.77-9.83-8.32-15.1-7.58-11.26-14.64-29.06-5.58-41.26.55-.74.24-2.16-.85-2.2-5.45-.24-11.93,8.78-14.21,12.51-5.35,8.74-6.95,17.3-7.05,27.48-.08,7.78,1.23,17.05,5.01,24.39-5.28-3.93-11.2-6.83-17.78-8.19-13.42-2.76-27.33,3.11-31.56,15.58-.45.18-.77.59-.64,1.23.04.19.08.38.12.57-.38,1.52-.67,3.11-.76,4.81-.9,16.79,11.06,27.52,27.9,25.03,5.74-.85,10.02-2.08,13.43-6.31.05.02.1.04.17.04,3.81.26,7.41,2.47,11.02,3.6,3.58,1.13,7.09,1.92,10.83,2.18,2.08.14,4.37.39,6.69.52-.56.2-1.07.38-1.51.53-7.41,2.51-15.75,6.65-19.92,13.58-4.85,8.06-5.77,18.2-11.76,25.78-10.38,13.13-23.22,8.19-36.75,5.56-1.37-.27-2.07,1.55-1.07,2.4,8.2,6.89,14.73,10.48,25.61,10.8,10.17.3,18.45-1.49,27.16-6.92,13.2-8.23,22.23-21.09,27.75-35.36,1.03,16.36,11.41,33.85,24.12,41.15,6.45,3.71,13.48,5.73,20.09,9.01,6.69,3.32,12.48,8.64,18.56,12.93,7.93,5.59,20.9,9.91,30.51,6.71,1.25-.42.77-2.42-.53-2.26-49.85,6.18-33.61-67.96-71.42-79.98,4.06.94,8.08,2.23,11.99,3.51,10.59,3.44,19.45,8.99,28.9,14.77,7.9,4.84,16.91,9.79,26.21,11.11,10.14,1.43,20.63-.86,30.46-3.13,15.54-3.59,31.1-12.95,26.35-31.34Zm-94.65-43.38c-.15,1.92-.74,3.77-1.22,5.63-1.34,5.14-2.02,10.71-1.93,16.02-7.01,0-14.53,1.67-20.78,4.86,3.32-5.01,5.35-10.86,5.87-16.85.26-3.07.14-6.19.78-9.21.64-3.02,2.21-6.04,4.95-7.46,1.81-.95,3.69-1.39,5.73-1.2,2.04.19,4.08,1.08,5.3,2.72,1.15,1.54,1.46,3.57,1.31,5.49Zm6.08-15.74c4.21,5.4,9.34,14.02,6.23,21.05-.47,1.07-2.12.34-1.65-.73,2.72-6.3-2.09-14.55-5.57-19.58-.45-.65.5-1.36.99-.73Zm-1.56,21.62c-.53.56-1.48-.19-.94-.75.32-.34.45-.63.49-1.11.06-.77,1.25-.58,1.19.19-.05.64-.29,1.19-.74,1.66Zm3.29-4.95c-.11.65-1.13.64-1.17-.04-.12-2.11-.41-3.9-1.14-5.9-.26-.71.82-1.13,1.1-.42.82,2.02,1.57,4.15,1.21,6.36Z" fill="#ffe63f" stroke-width="0"/><path d="m140.19,337.55c3.47-16.2-2.21-34.12,10.04-47.56,11.74-12.88,45.32-17.63,52.28,2.83,6.16,18.12-8.78,29.42-10.7,46.28-1.42,12.47,8.66,23.51,18.61,29.31.54.31.99-.48.48-.82-10.68-7.25-19.66-19.47-15.43-33,2.84-9.08,9.7-16.48,11.96-25.75,3.52-14.4-3.41-27.52-17.05-32.22-15.08-5.2-34.67-.84-44.72,11.98-11.3,14.42-5.7,31.91-7.78,48.64-.17,1.32,2.04,1.61,2.32.31h0Z" fill="#3c1f0b" stroke-width="0"/><path d="m212.4,368.99c-11.87-6.42-22.07-15.04-25.34-28.78-1.61-6.77-1.4-15.18-.18-22.01.94-5.25,2.91-9.56,2.44-15.04-.64-7.56-4.81-15.28-10.53-20.3-5.63-4.94-10.37-5.82-17.23-3-1.45.6-.92,2.91.67,2.42,11.04-3.36,19.63,5.52,22.69,15.87,2.09,7.07-.28,12.55-1.45,19.35-.78,4.52-.69,9.52-.43,14.09,1.02,18.19,12.11,32.07,28.77,38.81.81.33,1.34-.99.59-1.4h0Z" fill="#3c1f0b" stroke-width="0"/><path d="m186.71,302.2c-4.26-11.77-15.96-4.68-18.38,4.62-.97,3.71-.07,7.49-.55,11.26-.81,6.33-4.22,11.04-8.62,15.42-3.6,3.59-8.28,7.88-13.82,5.77-2.12-.81-3.2-2.17-5.38-2.85-.61-.19-1.33.02-1.77.47-4.1,4.11-.14,13.44,4.7,15.46,6.04,2.52,9.28-1.87,8.56-7.43-.77-5.89-5.25-13.96-12.72-11.07-6.73,2.61-4.89,12.19-.56,15.96,4.26,3.7,12.52,6.33,15.99.35,3.25-5.6-.39-13.58-6.03-15.81-6.39-2.52-14.45.65-14.97,8.3-.5,7.39,6.95,10.14,13.04,10.59,1.41.1,1.76-2.3.34-2.49-5.61-.76-6.68-.64-7.38-6.99-2.39-5.78,0-7.97,7.18-6.56,6.67,3.74,6.77,8.04.31,12.9-1.21-.44-2.43-.87-3.64-1.31-5.54-2.45-5.73-6.24-.59-11.38-.07,0,10.92,10.16,3.36,11.61-2.32.45-6.28-4.83-5.37-7.03,1.16-2.82-1.32-.2.53-.47,2.58-.37,5.74,2.49,8.58,2.39,7-.25,14.73-10.08,17.78-15.73,1.7-3.15,2.76-6.34,3.02-9.92.18-2.5-.47-4.96-.32-7.4.09-4.02,1.51-7.42,4.28-10.18,5.94-2.82,9.72-2.15,11.35,1.99.32.59,1.34.19,1.1-.46h0Z" fill="#3c1f0b" stroke-width="0"/><path d="m145.79,351.55c.15,0,.15-.23,0-.23s-.15.23,0,.23h0Z" fill="#3c1f0b" stroke-width="0"/><path d="m145.47,351.98c3.09,2.01,6.57,1.34,10.2,2.02,5.17.97,10.23,2.54,15.22,4.19,11.25,3.72,20.21,9.92,30.28,15.83,7.44,4.36,16.05,8.81,24.71,9.87,10.47,1.28,21.51-1.1,31.61-3.61,15.51-3.85,29.89-14.4,24.14-32.3-3.29-10.25-18.49-24.86-28.84-15.61-.84.75.39,1.94,1.23,1.23,8.95-7.65,22.02,5.9,24.88,13.88,3.26,9.08.04,19.01-8.01,24.26-7.13,4.65-16.7,6.27-24.93,7.81-8.66,1.62-17.59,2.69-26.14-.02-13.86-4.39-24.87-14.08-37.97-19.96-5.83-2.62-12.01-4.49-18.2-6.05-2.55-.64-5.09-1.2-7.7-1.55-3.01-.41-7.16.41-9.84-1.06-.71-.39-1.31.64-.63,1.08h0Z" fill="#3c1f0b" stroke-width="0"/><path d="m266.42,334.14c5.76,6.81,10.91,15.06,3.81,23.86-3.43,4.26-9.14,7.03-14.23,8.65-10.16,3.23-24.2,3.88-32.86-3.19-11.44-9.35-12.1-28.46-27.23-33.43-1.61-.53-2.27,1.97-.69,2.52,12.49,4.32,14.34,20.41,22.51,29.45,7.57,8.38,17.51,9.88,28.3,8.86,9.71-.92,20.47-4.34,26.51-12.53,6.48-8.79,1-17.8-5.54-24.77-.37-.39-.93.18-.59.59h0Z" fill="#3c1f0b" stroke-width="0"/><path d="m184.3,327.77c-5.53-1.26-10.65-.59-15.87,1.62-4.76,2.01-7.79,5.93-12.04,8.67-1.34.86-.1,3.02,1.26,2.15,3.49-2.25,6.16-5.61,9.79-7.6,5.07-2.78,10.92-4.3,16.7-3.61.7.08.85-1.08.17-1.23h0Z" fill="#3c1f0b" stroke-width="0"/><path d="m152.89,354.63c24.49,5.66,29.25,37.54,37.41,56.98,7.02,16.7,20.96,27.18,39.37,25.13-.1-.77-.21-1.53-.31-2.3-12.45,4.12-24.71-4.34-34.21-11-3.55-2.49-7.04-5.24-10.8-7.41-5.32-3.07-11.31-4.56-16.77-7.34-11.09-5.64-17.34-13.58-22.55-24.67-4.38-9.3-6.98-22.86-2.13-32.72.97-1.97-1.98-3.7-2.95-1.72-9.41,19.13,3.35,48.3,20.86,58.36,6.47,3.72,13.45,5.74,20.1,9.01,6.25,3.07,11.9,8.04,17.52,12.12,8.19,5.94,21.4,11,31.56,7.62,1.17-.39,1.07-2.47-.31-2.3-52.46,6.51-31.99-74.16-76.41-81.13-.87-.14-1.27,1.15-.37,1.36h0Z" fill="#3c1f0b" stroke-width="0"/><path d="m157.66,355.14c-1.63-.9-3.22-1.89-4.94-2.6-.81-.34-1.62-.71-2.44-1.02-.66-.25-1.51-.34-1.97-.9-.88-1.08-2.51.3-1.87,1.45.73,1.32,2.29,1.31,3.61,1.67,2.46.66,4.75,1.25,7.05,2.38.65.32,1.21-.62.57-.98h0Z" fill="#3c1f0b" stroke-width="0"/><path d="m139.82,349.79c-3.39-3.55-12.92.74-16.41,2.11-6.64,2.6-13.9,6.51-17.65,12.85-5.12,8.68-5.93,19.65-13.1,27.24-10.41,11.02-22.4,6.46-35.17,3.98-1.2-.23-2.45,1.32-1.32,2.27,8.12,6.83,14.77,10.58,25.59,10.91,10.09.3,18.54-1.44,27.17-6.84,17.75-11.1,28.1-30.47,32.34-50.49.41-1.93-2.55-2.75-2.96-.82-3.66,17.54-12.09,35.17-26.81,46.08-7.35,5.45-15.39,9.09-24.63,9.34-11.86.31-19.69-2.51-28.78-10.1-.44.76-.88,1.51-1.32,2.27,8.39,1.58,15.54,4.48,24.24,2.93,6.81-1.21,12.83-5.74,16.59-11.53,4.8-7.39,5.99-16.49,10.27-24.01,3.03-5.32,8.63-8.46,13.96-11.09,3.02-1.49,13.95-7.13,17.05-4.16.62.59,1.53-.32.94-.94h0Z" fill="#3c1f0b" stroke-width="0"/><path d="m136.75,335.28c-9.13-2.29-16.7-12.84-23.19-19.02-6.9-6.56-14.87-11.44-24.35-13.19-15.26-2.8-31.01,5.65-31.95,22.17-.93,16.33,10.12,27.25,26.85,25.36,7.24-.82,12-2.47,15.92-8.61,1.85-2.9,5.47-7.72,1.63-10.36-.26-.18-.72-.19-.98,0-3.24,2.43-4.24,6.61-7.86,9.09-5.37,3.68-14.78,6.31-20.81,3.14-9.09-4.78-9.82-15.68-11.61-24.3-.33-1.61-2.81-.93-2.47.68,2.46,11.89,6.74,29.24,22.75,26.97,6.75-.96,13.28-4.61,18.07-9.24-.23.23,2.26-3.83,1.88-.85-.15,1.13-1.74,2.79-2.42,3.8-3.82,5.68-10,7.84-16.79,8.03-7.51.21-16.48-3.19-19.77-10.26-2.28-4.89-2.57-12.48-1.2-17.79,3.99-15.41,21.63-18.25,34.71-13.57,10.79,3.86,18.43,12.29,26.44,20.06,3.91,3.8,9.33,8.71,14.93,9.43.89.12,1.06-1.34.21-1.55h0Z" fill="#3c1f0b" stroke-width="0"/><path d="m59.41,317.99c-1.01,6.49,3.16,10.14,7.98,13.77,8.09,6.11,15.96,10.19,26.32,9.82,1.35-.05,1.3-1.92,0-2.06-7.69-.83-14.12-1.77-20.72-6.18-5.49-3.66-12.59-7.6-12.02-15.14.07-.88-1.42-1.1-1.56-.21h0Z" fill="#3c1f0b" stroke-width="0"/><path d="m98.86,344.19c6.61.45,12.89,4.83,19.63,5.6,6,.69,13.61,1.45,19.39-.45,1.37-.45.8-2.38-.59-2.13-7.23,1.31-16.33,1.13-23.45-.47-4.83-1.09-10.03-4.47-14.99-3.83-.8.1-.84,1.22,0,1.28h0Z" fill="#3c1f0b" stroke-width="0"/><path d="m141.52,315.91c-.69-4.7-1.65-9.29-3.5-13.69-2.21-5.26-6-9.16-8.91-14.02-6.74-11.25-12.7-27.43-4.01-39.13.66-.89-.25-2.02-1.18-2.06-4.73-.21-10.99,7.83-13.17,11.18-5.88,9.01-7.76,18.06-7.88,28.71-.11,9.53,1.81,21,7.69,28.78,5.52,7.3,13.39,15.18,21.45,19.49,1.2.64,2.27-1.18,1.07-1.82-7.31-3.89-14.46-11.06-19.3-17.68-5.31-7.27-7.58-16.15-8.28-25.15-.69-8.81.57-17.83,4.52-25.72,1.75-3.49,8.34-15.33,13.91-15.04-.39-.69-.79-1.37-1.18-2.06-6.97,9.36-5.09,20.83-1.09,31.1,2.28,5.84,5.44,11.14,9.15,16.15,4.91,6.62,7.45,13.39,9.36,21.34.22.9,1.49.5,1.36-.37h0Z" fill="#3c1f0b" stroke-width="0"/><path d="m177.37,331.98c-4.94.59-9.57,2.76-14.03,4.86-3.73,1.75-9.21,3.9-11.45,7.55-.42.68.43,1.57,1.12,1.12,7.37-4.85,15.59-10.89,24.52-12.33.66-.11.52-1.27-.16-1.18h0Z" fill="#3c1f0b" stroke-width="0"/><path d="m171.12,340.03c-4.13,1.14-8.14,2.46-12.12,4.05-1.33.53-4.41,2.54-5.76,2.1-.77-.25-1.23.74-.75,1.28,1.18,1.31,3.79-.29,4.99-.81,4.56-2,9.18-4.03,13.99-5.36.81-.22.47-1.49-.35-1.26h0Z" fill="#3c1f0b" stroke-width="0"/><path d="m162.24,347.47c-1.86.18-3.71.21-5.58.25-1.56.03-3.15-.14-4.68.23-1.07.26-.59,2,.45,1.65,1.64-.55,3.61-.46,5.34-.6,1.54-.13,3.07-.28,4.59-.53.55-.09.43-1.04-.13-.99h0Z" fill="#3c1f0b" stroke-width="0"/><path d="m168.42,367.8c-1.46-3.48-5.12-5.86-8.05-8.07-4.58-3.47-9.41-5.62-14.68-7.89-1.01-.43-1.9,1.03-.88,1.5,8.41,3.86,16.94,7.68,23.47,14.54.05.05.17,0,.13-.08h0Z" fill="#3c1f0b" stroke-width="0"/><path d="m169.1,387.67c-8.64-1.33-14.57-8.56-19.68-15.03-4.9-6.19-9.93-14.02-9.28-22.26.1-1.2-1.92-1.49-2.12-.29-1.34,7.85,3.74,15.88,8.35,21.87,5.65,7.34,12.82,15.7,22.58,16.92.68.09.85-1.1.16-1.21h0Z" fill="#3c1f0b" stroke-width="0"/><path d="m153.89,368.79c-6.31-4.48-8.7-12.73-11.9-19.31-.42-.86-1.73-.41-1.73.47-.03,3.77,2.85,7.99,4.87,11,2.33,3.46,4.67,6.57,8.18,8.84.63.41,1.18-.57.58-1h0Z" fill="#3c1f0b" stroke-width="0"/><path d="m154.31,364.08c-2.52-1.75-4.76-4.87-6.67-7.27-1.8-2.28-3.36-4.72-5.31-6.88-.59-.66-1.76.21-1.24.96,3.39,4.95,7.59,10.83,12.72,14.06.55.35,1.03-.5.51-.87h0Z" fill="#3c1f0b" stroke-width="0"/><path d="m110.96,384.44c8.24-11.9,17.48-23.18,27.63-33.54,1.01-1.03-.54-2.57-1.58-1.58-10.5,9.97-19.78,22.08-27.41,34.33-.55.88.79,1.63,1.37.8h0Z" fill="#3c1f0b" stroke-width="0"/><path d="m132.11,365.32c1.38-2.53,3.35-4.6,4.69-7.16,1.21-2.31,3.41-4.27,4.09-6.82.23-.87-1.02-1.43-1.47-.62-2.63,4.69-5.98,9.16-8.13,14.12-.24.55.52,1.04.82.48h0Z" fill="#3c1f0b" stroke-width="0"/><path d="m118.97,364.31c3.48-3.24,7.2-5.85,10.99-8.68,2.73-2.04,5.79-3.84,8.32-6.12.73-.66-.33-1.67-1.07-1.07-3.16,2.58-6.9,5.03-10.24,7.39-3.23,2.29-5.95,4.95-8.67,7.82-.41.44.22,1.07.66.66h0Z" fill="#3c1f0b" stroke-width="0"/><path d="m117.21,331.59c2.66,1.97,5.98,3.15,9.05,4.34,2.25.87,5.76,2.57,8.21,1.76.82-.28.72-1.56-.21-1.56-2.71.02-5.57-.95-8.11-1.83-2.85-.99-5.89-1.95-8.39-3.64-.59-.39-1.09.53-.55.93h0Z" fill="#3c1f0b" stroke-width="0"/><path d="m126.3,340.11c3.45,1.05,7.18,2.77,10.8,2.99.91.06.98-1.23.2-1.51-3.38-1.2-7.2-1.8-10.69-2.63-.74-.18-1.04.92-.31,1.14h0Z" fill="#3c1f0b" stroke-width="0"/><path d="m129.32,344.66c.69.94,1.88,1.07,2.93,1.36,1.61.44,2.95.95,4.57.24.74-.33.21-1.56-.55-1.31-1.17.38-2.43-.14-3.61-.32-.74-.11-1.87-.08-2.39-.7-.44-.51-1.35.18-.95.73h0Z" fill="#3c1f0b" stroke-width="0"/><path d="m126.33,301.86c.18,8.04,2.53,16.09,5.97,23.33,1.54,3.23,3.64,11.62,8.27,12.16.91.11,1.31-1.38.48-1.76-4.12-1.87-6.85-10.35-8.5-14.2-2.66-6.18-4.66-12.8-5.08-19.53-.04-.72-1.15-.73-1.13,0h0Z" fill="#3c1f0b" stroke-width="0"/><path d="m145.9,314.38c-1.77,3.85-3.47,7.76-4.46,11.88-.9,3.71-.76,7.11-.84,10.88-.03,1.33,2,1.32,2.06,0,.16-3.6-.3-6.82.38-10.44.76-4.07,2.17-7.98,3.8-11.78.27-.63-.64-1.18-.93-.55h0Z" fill="#3c1f0b" stroke-width="0"/><path d="m148.91,325.56c-.6,1.9-1.93,3.37-2.78,5.14-.7,1.46-1,3.18-.94,4.79.03.83,1.31,1.08,1.51.2.43-1.97.38-3.73,1.38-5.58.75-1.39,1.56-2.7,1.95-4.24.18-.72-.89-1.02-1.11-.31h0Z" fill="#3c1f0b" stroke-width="0"/><path d="m150.93,330.45c-1.08,1.92-2.87,3.34-3.47,5.55-.21.77.85,1.19,1.26.53.58-.92.88-1.99,1.47-2.91.56-.88,1.2-1.68,1.64-2.63.28-.61-.57-1.13-.91-.53h0Z" fill="#3c1f0b" stroke-width="0"/><path d="m151.64,335.65c-.57.37-1.01.81-1.37,1.39-.5.8.83,1.57,1.26.74.2-.39.44-.71.78-.97.66-.5.07-1.63-.67-1.15h0Z" fill="#3c1f0b" stroke-width="0"/><path d="m192.46,290.91c3.43,4.96,8.33,13.34,5.65,19.55-.45,1.05,1.09,1.98,1.56.91,3.16-7.15-1.94-15.68-6.25-21.21-.43-.55-1.36.17-.97.75h0Z" fill="#3c1f0b" stroke-width="0"/><path d="m192.88,300.91c.73,1.99,1.04,3.78,1.16,5.9.04.62,1.05.85,1.16.16.36-2.22-.35-4.32-1.18-6.37-.28-.69-1.41-.41-1.14.31h0Z" fill="#3c1f0b" stroke-width="0"/><path d="m191.47,310.09c-.03.4-.17.67-.44.96-.53.56.32,1.42.85.85.5-.53.74-1.09.79-1.81.06-.77-1.15-.77-1.21,0h0Z" fill="#3c1f0b" stroke-width="0"/></g></g></svg>