<?xml version="1.0" encoding="UTF-8"?><svg xmlns="http://www.w3.org/2000/svg" viewBox="0 0 500 500"><g isolation="isolate"><g id="Layer_1"><path d="m238.27,352.15c-.45-7.37,1.03-14.69.08-22.03-1.07-8.26-1.95-16.41-3.39-24.63-1.34-7.63-2.88-14.49-6.07-21.51-2.7-5.95-4.53-13.14-9.34-17.76-5.21-5-12.39-8.08-18.63-11.51-7.72-4.25-15.24-8.68-23.26-12.39-7.04-3.26-15.56-5.08-23.22-6.37-5.99-1.01-13.1-3.73-19.18-3.37-.76.04-1.63.58-1.58,1.47.4,6.45,1.13,13.09,2.14,19.48,1.29,8.2,1.57,16.69,3.8,24.7,4.01,14.38,10.68,24.3,21.79,34.09,5.23,4.6,10.3,9.13,16.1,13.04,6.8,4.58,14.29,7.71,21.68,11.19,6.96,3.28,13.99,6.4,20.95,9.69,4.23,2,9.27,4.54,13.94,5.07.82.09,1.45-.38,1.8-1.03.06.69.12,1.38.21,2.08.17,1.22,2.25,1.05,2.17-.2Z" fill="#7eae36" stroke-width="0"/><path d="m238.27,352.11c-.45-7.38,1.04-14.72.06-22.06-1.1-8.27-1.94-16.41-3.4-24.65-1.41-7.98-3.21-15.03-6.48-22.4-2.82-6.37-4.8-13.5-10.42-17.97-5.59-4.45-12.04-7.39-18.21-10.89-7.33-4.16-14.56-8.32-22.23-11.85-7.01-3.23-15.59-5.08-23.21-6.35-6.02-1.01-13.07-3.72-19.19-3.36-.78.05-1.58.66-1.52,1.52.42,6.9,1.24,14.02,2.4,20.85,1.33,7.77,1.43,15.72,3.56,23.34,4,14.34,10.73,24.37,21.83,34.07,4.94,4.32,9.72,8.58,15.12,12.33,7.08,4.92,14.9,8.22,22.66,11.88,7.06,3.33,14.2,6.48,21.25,9.82,4.18,1.98,9.04,4.39,13.66,4.9,1.86.21,2.54-2.31,1.44-3.48-.1-.11-.2-.22-.31-.32-1.8-1.91-4.68.97-2.88,2.88.1.11.2.22.31.32.48-1.16.96-2.32,1.44-3.48-5.49-.61-11.5-4.24-16.47-6.51-6.27-2.86-12.63-5.55-18.91-8.39-13.22-5.98-23.98-12.81-35-22.26-11.04-9.47-17.91-19.53-21.52-33.84-1.7-6.75-1.9-13.86-2.98-20.73-1.09-6.94-2.12-14.37-2.55-21.4-.51.51-1.02,1.02-1.52,1.52,5.49-.33,11.82,2.56,17.28,3.46,8.05,1.32,16.99,3.45,24.34,6.96,6.89,3.29,13.48,6.98,20.04,10.86,6.17,3.65,12.98,6.49,18.49,11.18,5.55,4.73,7.91,13,10.75,19.6,3.08,7.16,4.34,14.91,5.79,22.57,1.3,6.86,2.29,13.75,3.31,20.65,1.05,7.13-.08,14.33.9,21.49.17,1.22,2.24.94,2.16-.29h0Z" fill="#3c1f0b" stroke-width="0"/><path d="m136.1,235.9c5.84,3.03,10.93,9.41,15.57,14.03,4.23,4.2,8.23,8.62,11.98,13.26,7.7,9.52,15.24,19.15,22.94,28.69,8.17,10.12,16.16,19.95,24.71,29.74,4.01,4.6,8.1,9.09,12.27,13.55,1.88,2.01,3.78,4.01,5.59,6.08,2.04,2.33,2.82,4.85,4.61,7.25,1.25,1.67,4.1.04,2.83-1.66-2.81-3.77-4.61-7.43-7.9-11.01-4.46-4.86-8.92-9.71-13.22-14.71-9.26-10.79-18.4-21.59-27.52-32.52-8.63-10.33-16.99-20.94-25.96-30.97-4.7-5.26-9.79-10.07-15.06-14.77-3.26-2.91-6.32-6.28-10.46-7.88-.53-.21-.89.66-.39.92h0Z" fill="#3c1f0b" stroke-width="0"/><path d="m169.12,242.06c-.28,3.23.97,6.66,1.65,9.82.96,4.48,2.08,8.94,3.07,13.41,1.6,7.2,3.52,13.31,7.53,19.38.65.98,2.14.12,1.58-.92-3.32-6.14-5.71-12.09-7.45-18.92-1.87-7.33-4.88-15.27-5.7-22.77-.05-.43-.64-.44-.68,0h0Z" fill="#3c1f0b" stroke-width="0"/><path d="m179.6,250.05c1.41,2.8-.29,7.88-.17,10.88.16,3.95,1.19,7.84,1.8,11.73,1.09,6.96,1.84,13.34,5.67,19.27.65,1.01,2.25.09,1.62-.95-4.16-6.77-4.78-14.94-6.36-22.59-.97-4.7-1.46-8.89-1.32-13.64.05-1.84.48-3.51-.42-5.18-.29-.53-1.08-.06-.81.47h0Z" fill="#3c1f0b" stroke-width="0"/><path d="m199.29,256.47c-.8,12.29-.08,24.42,1.39,36.65,1.11,9.25,2.51,17.31,6.96,25.55.73,1.35,2.79.15,2.06-1.21-4.54-8.45-5.82-17.66-6.99-27.07-1.4-11.31-2.24-22.53-2.48-33.91-.01-.61-.9-.6-.94,0h0Z" fill="#3c1f0b" stroke-width="0"/><path d="m210.27,290.45c-1.49,5.55-.77,10.84-.71,16.49.07,5.85.42,9.66,2.5,15.31.48,1.31,2.54.79,2.12-.59-2.83-9.47-5.33-21.06-3.15-31,.11-.5-.63-.71-.77-.21h0Z" fill="#3c1f0b" stroke-width="0"/><path d="m146.58,274c9.65,4.74,18.46,11.13,27.33,17.13,7.59,5.13,16.04,9.11,24.55,12.44.83.32,1.6-.98.89-1.53-7.05-5.46-16.75-7.86-24.38-12.72-9.04-5.76-18.03-11.84-27.86-16.23-.61-.27-1.15.61-.53.91h0Z" fill="#3c1f0b" stroke-width="0"/><path d="m159.25,292.04c15.01,5.86,28.99,14.17,44.21,19.7,1.16.42,1.92-1.42.84-1.99-7.09-3.73-15.21-6-22.58-9.16-7.37-3.15-14.63-6.88-22.24-9.41-.55-.18-.76.65-.24.86h0Z" fill="#3c1f0b" stroke-width="0"/><path d="m154.63,301.66c9.19,4.3,17.32,8.97,27.15,11.93,10.67,3.21,21.55,6.39,32.31,9.1,1.16.29,1.84-1.29.81-1.93-8.56-5.3-18.89-5.84-28.48-8.29-5.77-1.47-11.55-2.71-17.05-5.03-4.85-2.04-9.31-4.87-14.06-6.97-.79-.35-1.48.8-.69,1.17h0Z" fill="#3c1f0b" stroke-width="0"/><path d="m220.09,311.8c.3,3.8-.38,7.56-.15,11.36.21,3.43.74,6.68,1.94,9.92.32.87,1.84.84,1.75-.24-.26-3.12-1.06-6.2-1.67-9.27-.78-3.94-.29-7.82-.79-11.78-.09-.67-1.13-.7-1.08,0h0Z" fill="#3c1f0b" stroke-width="0"/><path d="m186.88,322.49c11.84,4.72,25.6,12.34,38.52,12.87.99.04,1.02-1.29.22-1.61-12.39-4.96-25.89-7.53-38.43-12.36-.69-.27-.98.84-.31,1.11h0Z" fill="#3c1f0b" stroke-width="0"/><path d="m263.61,366.97c7.32-.91,14.73.12,21.99-1.28,8.18-1.58,16.26-2.96,24.38-4.91,7.53-1.8,14.28-3.77,21.1-7.39,5.77-3.06,12.83-5.33,17.15-10.42,4.67-5.51,7.3-12.87,10.34-19.31,3.77-7.97,7.72-15.74,10.93-23.98,2.82-7.23,4.11-15.84,4.93-23.57.64-6.04,2.91-13.3,2.18-19.35-.09-.75-.68-1.59-1.56-1.48-6.41.79-13,1.94-19.31,3.34-8.1,1.8-16.56,2.59-24.42,5.32-14.1,4.89-23.6,12.16-32.68,23.85-4.27,5.5-8.48,10.84-12.02,16.87-4.16,7.07-6.82,14.74-9.83,22.33-2.84,7.15-5.52,14.36-8.38,21.5-1.74,4.35-3.96,9.53-4.2,14.23-.04.82.47,1.43,1.14,1.73-.69.1-1.37.21-2.06.34-1.21.24-.91,2.31.33,2.16Z" fill="#7eae36" stroke-width="0"/><path d="m263.58,366.97c7.33-.91,14.73.11,22-1.27,8.18-1.56,16.26-2.96,24.37-4.91,7.53-1.8,14.29-3.77,21.11-7.39,5.76-3.06,12.82-5.32,17.14-10.4,4.67-5.49,7.3-12.86,10.34-19.29,3.48-7.37,7.1-14.58,10.18-22.15,3.1-7.62,4.56-16.18,5.58-24.36.79-6.25,3.06-14.11,2.3-20.38-.09-.74-.63-1.63-1.52-1.52-6.42.79-13.01,1.95-19.33,3.33-8.09,1.77-16.59,2.6-24.42,5.32-12.94,4.49-22.84,11.02-31.18,21.87-9.63,12.51-16.84,24.45-22.59,39.2-2.99,7.66-5.92,15.35-8.96,22.99-1.78,4.47-4.15,9.84-4.39,14.69-.09,1.76,2.3,2.7,3.48,1.44.1-.11.2-.22.31-.32,1.79-1.91-1.08-4.8-2.88-2.88-.1.11-.2.22-.3.32,1.16.48,2.32.96,3.48,1.44.27-5.48,3.48-11.81,5.42-16.86,2.22-5.79,4.25-11.65,6.48-17.44,5.12-13.29,10.46-25,19.27-36.31,4.99-6.41,9.42-13.45,16.58-17.71,5.37-3.19,11.43-5.98,17.34-7.88,6.66-2.15,13.7-2.69,20.51-4.26,6.83-1.57,14.22-3.03,21.19-3.9-.51-.51-1.02-1.02-1.52-1.52.63,5.19-1.78,11.19-2.25,16.43-.79,8.82-2.66,18.7-6,26.87-2.89,7.06-6.27,13.76-9.65,20.57-3.04,6.13-5.42,12.84-9.57,18.36-4.27,5.67-11.88,7.99-17.92,11.28-6.79,3.7-14.28,5.44-21.75,7.35-7.21,1.85-14.41,3.37-21.68,4.9-7.07,1.48-14.33.81-21.43,2.24-1.2.24-.95,2.32.29,2.16h0Z" fill="#3c1f0b" stroke-width="0"/><path d="m373.36,257.79c-2.67,6.01-8.7,11.48-13.01,16.39-3.93,4.48-8.09,8.74-12.49,12.77-9.35,8.57-18.77,17.04-28.19,25.56-9.94,9-19.55,17.93-29.09,27.35-4.21,4.15-8.12,8.59-12.21,12.86-3.65,3.82-7.68,6.39-11.62,9.74-1.61,1.37.72,3.67,2.32,2.32,3.45-2.92,6.91-4.89,10.19-8.29,4.57-4.75,9.13-9.5,13.86-14.1,10.2-9.92,20.42-19.7,30.77-29.48,9.78-9.25,19.87-18.27,29.32-27.84,4.97-5.02,9.46-10.41,13.82-15.96,2.68-3.4,5.92-6.75,7.25-10.94.17-.53-.69-.92-.92-.39h0Z" fill="#3c1f0b" stroke-width="0"/><path d="m369.24,291.16c-6.95-.18-14.87,3.91-21.54,5.77-7.52,2.1-14.04,4.42-20.21,9.06-.91.69-.1,2.22.92,1.58,6.78-4.23,13.39-7.04,21.05-9.41,6.48-2.01,13.23-5.18,19.87-6.33.39-.07.28-.66-.09-.67h0Z" fill="#3c1f0b" stroke-width="0"/><path d="m361.93,302.09c-2.72,1.59-7.85.21-10.85.51-3.92.39-7.75,1.64-11.58,2.51-6.88,1.55-13.18,2.62-18.89,6.83-.96.7-.05,2.32.95,1.62,6.48-4.56,14.67-5.67,22.15-7.76,4.53-1.26,8.82-2.12,13.55-2.18,1.81-.02,3.56.27,5.15-.73.51-.32.05-1.11-.47-.81h0Z" fill="#3c1f0b" stroke-width="0"/><path d="m356.73,322.16c-11.98-.03-23.73,1.25-35.52,3.46-9.43,1.77-17.8,3.57-26.01,8.67-1.3.81-.11,2.88,1.21,2.06,7.85-4.86,16.44-6.67,25.42-8.5,11.52-2.35,23.2-3.78,34.91-4.75.59-.05.61-.94,0-.94h0Z" fill="#3c1f0b" stroke-width="0"/><path d="m323.5,335.22c-10.09-2.05-22.53-.27-31.85,3.84-1.13.5-.32,2.44.85,2.01,9.2-3.38,20.81-6.63,30.79-5.08.5.08.72-.66.21-.77h0Z" fill="#3c1f0b" stroke-width="0"/><path d="m335.92,270.73c-4.29,10.3-10.52,19.5-15.95,29.19-4.31,7.67-7.63,15.91-10.31,24.27-.33,1.03,1.11,1.52,1.67.7,2.8-4.12,3.95-9.37,5.92-13.93,1.91-4.45,3.89-8.82,6.33-13.02,5-8.61,9.85-17.57,13.36-26.93.24-.64-.76-.89-1.02-.28h0Z" fill="#3c1f0b" stroke-width="0"/><path d="m318.74,284.37c-4.91,15.33-12.35,29.79-16.92,45.31-.34,1.15,1.48,1.99,1.99.84,2.97-6.6,4.5-13.97,6.92-20.81,2.95-8.31,6.61-16.59,8.87-25.1.15-.56-.68-.78-.86-.24h0Z" fill="#3c1f0b" stroke-width="0"/><path d="m308.8,280.49c-3.89,9.87-8,18.54-10.5,28.99-2.48,10.39-4.8,21.02-6.76,31.47-.21,1.11,1.33,1.93,1.93.81,4.97-9.25,4.86-20.16,6.79-30.29,1.03-5.42,1.86-10.87,3.69-16.1,1.74-4.99,4.34-9.59,6.16-14.52.31-.83-.99-1.16-1.31-.36h0Z" fill="#3c1f0b" stroke-width="0"/><path d="m302.66,346.36c-3.81.53-7.62.02-11.43.56-3.42.49-6.57,1.19-9.75,2.59-1,.44-.22,1.76.69,1.63,3.49-.52,6.84-1.75,10.26-2.58,3.44-.84,7.04-.49,10.52-1.16.69-.13.38-1.13-.29-1.04h0Z" fill="#3c1f0b" stroke-width="0"/><path d="m290.06,313.81c-3.99,12.13-10.74,26.24-10.47,39.22.02.94,1.32,1.09,1.61.22,4.2-12.69,5.92-26.32,9.97-39.14.22-.71-.88-1-1.11-.31h0Z" fill="#3c1f0b" stroke-width="0"/><path d="m277.72,370.54c5.82,1.91,11.02,5.29,16.98,6.81,6.7,1.7,13.27,3.52,20.05,4.92,6.3,1.3,12.07,2.21,18.47,1.9,5.42-.27,11.53.53,16.57-1.78,5.45-2.49,10.03-7.09,14.59-10.86,5.65-4.66,11.36-9.1,16.68-14.16,4.67-4.44,8.68-10.45,12.03-15.97,2.61-4.32,6.88-8.97,8.47-13.77.2-.6.05-1.44-.65-1.67-5.1-1.67-10.45-3.13-15.69-4.31-6.72-1.51-13.36-3.9-20.23-4.63-12.33-1.3-22.03.8-32.98,6.38-5.15,2.63-10.2,5.15-14.99,8.43-5.62,3.85-10.33,8.67-15.28,13.31-4.66,4.37-9.22,8.84-13.89,13.2-2.84,2.65-6.34,5.76-8.18,9.21-.32.61-.15,1.24.24,1.7-.55-.17-1.11-.33-1.67-.47-1-.25-1.5,1.42-.51,1.74Z" fill="#7eae36" stroke-width="0"/><path d="m277.79,370.76c6.49,2.27,12.18,5.55,18.84,7.3,6.95,1.82,13.73,3.71,20.81,5.07,6.58,1.27,12.13,1.43,18.79,1.3,4.9-.09,10.1.15,14.54-2.18,5.21-2.73,9.49-7,14.03-10.65,5.17-4.16,10.27-8.27,15.15-12.79,4.74-4.38,8.31-9.7,11.92-15.03,3.36-4.96,7.29-10.47,9.83-15.89.43-.91.08-1.91-.91-2.24-5.71-1.87-11.76-3.38-17.62-4.67-5.95-1.31-11.68-3.44-17.75-4.17-11.46-1.37-21.45.12-31.64,5.35-11.75,6.03-21.3,12.39-30.91,21.47-7.78,7.35-17.49,14.59-23.43,23.59-.92,1.4.64,3.65,2.3,2.99.11-.05.23-.09.34-.14,2.41-.96,1.36-4.9-1.08-3.93-.11.05-.23.09-.34.14.77,1,1.53,2,2.3,2.99,5.73-8.69,15.07-15.86,22.51-23.05,8.6-8.32,17.24-14.6,27.82-20.13,10.51-5.49,20.2-7.65,32.13-6.2,6.4.78,12.89,3.03,19.18,4.49,5.12,1.19,10.4,2.58,15.39,4.21-.3-.75-.61-1.49-.91-2.24-2.06,4.39-5.49,8.29-8,12.44-3.56,5.87-8,12.05-13.01,16.7-4.28,3.98-8.75,7.69-13.38,11.25-4.63,3.57-8.9,8.16-14.11,10.87-10.7,5.55-25.86,2.87-37.18.78-6.08-1.12-12.05-2.52-18.06-3.94-5.85-1.38-11.11-4.34-16.96-5.81-1.39-.35-1.91,1.66-.59,2.12h0Z" fill="#3c1f0b" stroke-width="0"/><path d="m398.63,327.25c-3.87,3.04-9.27,4.8-13.74,6.79-5.57,2.47-11.25,4.67-17.1,6.37-11.12,3.23-22.1,6.93-33.27,10.03-10.21,2.84-20.01,6.28-29.92,9.98-4.28,1.6-8.49,3.4-12.75,5.03-3.5,1.34-6.69,1.56-10.17,2.51-2.03.55-1.17,3.71.87,3.16,3.98-1.07,7.38-1.36,11.38-2.91,4.18-1.62,8.35-3.26,12.58-4.76,11.37-4.03,22.76-7.73,34.22-11.52,11.31-3.74,22.8-7.19,33.95-11.38,7.95-2.99,18.65-6.47,24.65-12.61.47-.48-.22-1.1-.71-.71h0Z" fill="#3c1f0b" stroke-width="0"/><path d="m383.93,350.84c-5.54-2.92-14.93-2.94-21.09-3.85-5.61-.82-10.31-1.03-15.75.16-.99.22-.79,1.91.24,1.79,6.08-.67,11.59-.7,17.75.13,6.06.81,12.67.9,18.59,2.39.36.09.61-.44.26-.62h0Z" fill="#3c1f0b" stroke-width="0"/><path d="m374.55,356.43c-2.7.02-5.85-2.61-8.43-3.51-4.33-1.51-9.05-2.11-13.49-3.21-4.4-1.1-8.45-1.4-12.83-.52-1.19.24-.68,2.01.5,1.81,6.41-1.11,13.08.99,19.37,2.03,3.93.65,7.27,1.58,10.94,3.17,1.36.59,2.41,1.24,3.94,1.17.6-.03.61-.94,0-.94h0Z" fill="#3c1f0b" stroke-width="0"/><path d="m363.6,369.7c-8.41-4.07-16.96-6.82-25.9-9.49-8.13-2.43-16.4-4.59-24.92-3.24-1.52.24-.87,2.54.64,2.3,9.04-1.41,18.26,1.62,26.85,4.07,7.78,2.22,15.37,4.45,22.98,7.21.5.18.84-.62.36-.86h0Z" fill="#3c1f0b" stroke-width="0"/><path d="m333.92,367.74c-3.83-2.88-8.13-4-12.55-5.68-4.58-1.74-7.58-2.69-12.65-2.78-1.44-.03-1.39,2.07,0,2.2,8.11.76,17.81,2.29,24.79,6.95.43.29.8-.39.4-.69h0Z" fill="#3c1f0b" stroke-width="0"/><path d="m366.01,323.67c-12.39,11.13-27.13,18.49-38.64,30.83-.69.74.2,2.01,1.11,1.43,6.98-4.4,12.83-11.47,19.54-16.46,6.46-4.81,12.96-9.39,18.74-15.06.49-.48-.24-1.2-.75-.75h0Z" fill="#3c1f0b" stroke-width="0"/><path d="m348.29,327.86c-4.64,5.15-10.53,9.62-15.63,14.37-4.59,4.28-9.05,8.85-13.14,13.6-.92,1.07.47,2.44,1.54,1.54,4.79-3.99,8.63-9.29,13.03-13.71,4.96-4.98,10.33-9.77,14.82-15.17.36-.43-.24-1.06-.63-.63h0Z" fill="#3c1f0b" stroke-width="0"/><path d="m342.17,321.4c-6.27,5.88-12.48,10.9-17.92,17.7-5.66,7.07-11.56,14.31-16.6,21.78-.58.86.58,2.04,1.44,1.44,6.97-4.85,10.53-12.9,15.37-19.66,5.64-7.89,11.89-13.62,18.67-20.31.62-.62-.32-1.56-.96-.96h0Z" fill="#3c1f0b" stroke-width="0"/><path d="m314.41,368.76c-2.87-.89-5.39-2.56-8.23-3.52-2.91-.97-5.72-1.68-8.8-1.67-1.03,0-1.18,1.44-.24,1.75,2.95.98,6.07,1.1,9.09,1.76,2.73.59,5.18,2.06,7.9,2.72.67.16.95-.83.29-1.04h0Z" fill="#3c1f0b" stroke-width="0"/><path d="m316.32,339.84c-4.39,4.64-8.89,9.17-13.12,13.96-3.13,3.54-6.95,7.59-8.73,11.99-.32.8.83,1.33,1.37.8,3.81-3.74,6.59-8.58,9.96-12.71,3.64-4.47,7.43-8.98,11.34-13.22.5-.54-.3-1.35-.81-.81h0Z" fill="#3c1f0b" stroke-width="0"/><path d="m202.49,221.36c41.07-12.99,85.71-14.51,127.56-4.33-5.39,8.87-10.5,19.45-13.78,29.3-3.28,9.85-4.25,20.81-.64,30.54,4.89,13.22,17.12,22.03,26.2,32.81,15.75,18.71,21.77,46.99,9.59,68.2-8.14,14.18-23.16,23.43-38.94,27.72-15.78,4.29-32.41,4.14-48.73,3.19-11.28-.65-22.53-1.67-33.74-3.04-18.02-2.21-37.44-6.17-49.35-19.88-8.47-9.76-11.75-23.35-10.52-36.21,1.23-12.86,6.65-25.04,13.79-35.8,6.02-9.07,13.29-17.27,19.35-26.31,6.06-9.05,10.99-19.26,11.5-30.14.67-14.47-3.32-24.68-12.29-36.04Z" fill="#ffa64f" stroke-width="0"/><path d="m210.77,204.42c-.04,6.68-.07,13.42,1.36,19.94,1.43,6.52,4.46,12.9,9.59,17.16,3.94-3.58,4.41-9.5,4.61-14.82.37-9.82.74-19.64,1.1-29.47.14-3.8.25-7.77-1.36-11.21-2.77-5.91-9.53-7.51-12.41-1.28-2.79,6.06-2.85,13.13-2.89,19.68Z" fill="#ffa64f" mix-blend-mode="screen" stroke-width="0"/><path d="m216.15,291.49c2.04.8,4.4-.16,6.01-1.64,3.59-3.29,10.06-16.9-.03-14.44-5.4,1.32-14.33,12.79-5.98,16.08Z" fill="#ffa64f" mix-blend-mode="screen" stroke-width="0"/><path d="m184.67,338.39c-5.67,12.6-7.04,27.93-.18,39.93,1.04,1.82,2.48,3.69,4.54,4.04,2.41.42,4.72-1.5,5.66-3.76.93-2.26.84-4.79.85-7.24.04-14.49,4.18-28.95,11.8-41.28,2.6-4.2,5.64-8.28,6.78-13.08.69-2.91.67-9.79-2.7-11.41-3.43-1.65-7.95,5.7-9.96,8.03-6.53,7.57-12.66,15.62-16.78,24.78Z" fill="#ffa64f" mix-blend-mode="screen" stroke-width="0"/><path d="m341.83,309.68c-9.08-10.78-21.31-19.59-26.2-32.81-3.6-9.73-2.63-20.69.64-30.54,2.75-8.27,6.8-17.04,11.22-24.9-17.89,8.72-39.07,12.17-57.82,8.39,5.31,1.78,10.82,3.67,14.85,7.56,4.03,3.89,6.13,10.39,3.31,15.23-3.59,6.16-13.81,8.22-13.9,15.35-.06,4.73,4.69,7.88,8.84,10.15,12.9,7.06,26.05,14.92,34.21,27.15,8.16,12.24,9.79,30.06-.12,40.93-4.73,5.19-11.76,8.62-14.34,15.15-2.16,5.47-.59,11.82-2.44,17.4-2.25,6.78-9.13,11.05-16.05,12.82-6.92,1.77-14.18,1.6-21.24,2.68-12.89,1.97-24.86,8.05-37.72,10.26-.66.11-1.32.2-1.98.29,2.31.35,4.62.66,6.9.94,11.21,1.38,22.47,2.39,33.74,3.04,16.32.95,32.95,1.1,48.73-3.19,15.78-4.29,30.8-13.54,38.94-27.72,12.18-21.2,6.16-49.49-9.59-68.2Z" fill="#ffa64f" mix-blend-mode="multiply" opacity=".62" stroke-width="0"/><path d="m220.31,102.59c-.63,3.12,0,6.34.62,9.46,2.96,14.79,5.92,29.59,8.88,44.38.66,3.31,1.51,6.92,4.21,8.95,2.28,1.72,5.35,1.86,8.2,1.94,14.44.4,29.02.79,43.22-1.89,2.72-.51,5.54-1.19,7.66-2.97,2.09-1.75,3.24-4.34,4.33-6.84,1.98-4.56,3.98-9.21,4.47-14.15.58-5.94-1.07-11.89-.87-17.85.22-6.56,2.66-12.84,3.64-19.33.46-3.04.52-6.41-1.3-8.89-2.18-2.94-6.24-3.62-9.88-3.93-21.97-1.85-42.97,2.24-64.67,4.5-4.42.46-7.46,1.54-8.49,6.61Z" fill="#ffce7b" stroke-width="0"/><path d="m285.44,165.43c2.72-.51,5.54-1.19,7.66-2.97,2.09-1.75,3.24-4.34,4.33-6.84,1.98-4.56,3.98-9.21,4.47-14.15.58-5.94-1.07-11.89-.87-17.85.22-6.56,2.66-12.84,3.64-19.33.46-3.04.52-6.41-1.3-8.89-2.18-2.94-6.24-3.62-9.88-3.93-3.9-.33-7.77-.46-11.61-.46-4.05,3.49-7.84,7.6-10,11.87-4.37,8.6,8.65,7.22,11.85,11.69,2.1,2.94.89,7.09-.97,10.19-1.86,3.1-4.37,6.03-4.79,9.63-.48,4.04,1.8,8.05,1.23,12.08-.49,3.5-3.12,6.41-6.21,8.15-3.08,1.74-6.61,2.49-10.07,3.21-9.71,2.04-19.42,4.08-29.13,6.12-.32.07-.64.14-.96.22.36.43.76.84,1.22,1.19,2.28,1.72,5.35,1.86,8.2,1.94,14.44.4,29.02.79,43.22-1.89Z" fill="#e7b067" stroke-width="0"/><path d="m303.36,95.41c-2.18-2.94-6.24-3.62-9.88-3.93-21.97-1.85-42.97,2.24-64.67,4.5-2.86.3-5.14.86-6.67,2.59-.14.65-.23,1.33-.23,2.07.01,2.97,2.18,5.61,4.81,7s5.67,1.75,8.63,1.99c22.07,1.79,44.31-2.06,65.48-8.55,1.42-.44,3.02-1.14,3.92-2.21-.21-1.25-.63-2.43-1.39-3.45Z" fill="#ffdca0" stroke-width="0"/><path d="m216.6,130.36c3.18,1.4,5.84,3.28,9.29,4.38,4.44,1.42,8.35,1.11,12.95,1.36,8.41.46,16.81.97,25.24.86,8.05-.1,16.29-.73,24.16-2.46,4.94-1.09,12.91-1.86,16.62-5.68.23-.24.07-.7-.28-.68-4.93.23-10.01,2.28-14.97,2.94-8.46,1.13-17.01,1.68-25.53,1.73-7.44.05-14.95-.03-22.36-.57-4.22-.31-8.47.08-12.63-.55-4.03-.61-7.98-1.87-11.99-2.49-.64-.1-1.2.84-.49,1.16h0Z" fill="#3c1f0b" stroke-width="0"/><path d="m223.27,122.05c-12.23.45-21.03,12.41-15.59,23.8,6.49,13.57,24.62,12.8,37.61,12.11,1.34-.07,1.34-2.01,0-2.08-8.96-.48-24.34.55-31.15-5.92-11-10.43-3.31-23.69,9.28-26.8.61-.15.49-1.13-.15-1.1h0Z" fill="#3c1f0b" stroke-width="0"/><path d="m254.61,157.92c1.57.12,3.07.32,4.66.25,1.07-.05,1.07-1.61,0-1.66-1.59-.08-3.08.13-4.66.25-.75.06-.75,1.12,0,1.17h0Z" fill="#3c1f0b" stroke-width="0"/><path d="m268.42,156.66c.84.15,1.63.3,2.45,0,.59-.22.59-.98,0-1.2-.82-.3-1.61-.15-2.45,0-.59.1-.59,1.09,0,1.2h0Z" fill="#3c1f0b" stroke-width="0"/><path d="m278.07,155.82c3.41-.93,7.65-.05,11.2-.48,3.7-.44,7.46-1.26,11.07-2.15,5.48-1.35,12.66-3.54,16.12-8.49,7.52-10.78-1.59-23.62-12.66-25.92-2.25-.47-3.21,2.96-.95,3.46,8.96,1.98,14.62,9.65,11.37,18.62-1.64,4.54-5.99,6.6-10.37,8.19-5.59,2.04-11.53,3.44-17.46,4.2-2.78.36-6.46-.21-8.79,1.44-.55.39-.24,1.33.48,1.13h0Z" fill="#3c1f0b" stroke-width="0"/><path d="m300.79,130.9c1.68-5.94,3.87-11.88,4.66-18.23.55-4.41,4.05-12.98,1.26-17.06-3.26-4.78-13.53-5.39-18.69-6.07-8.62-1.14-17.59-.64-26.26-.11-8.03.49-16.1,1.94-24.08,2.87-5.49.64-12.01,1.28-16.23,5.26-10.94,10.32,13.6,11.35,18.14,12.2.89.17,1.29-1.17.38-1.38-3.92-.9-10.21-.6-13.4-2.91-10.46-7.58,5.38-9.31,10.37-9.93,12.06-1.49,24.06-2.59,36.2-3.27,6.76-.38,13.43-.5,20.13.91,1.92.41,4.21,1.07,6.03,1.81,4.92,2.03,5.1,4.27,4.19,8.94-1.04,5.3-1.45,10.66-2.41,15.99-.64,3.54-1.76,7.17-2.05,10.73-.09,1.03,1.5,1.19,1.77.24h0Z" fill="#3c1f0b" stroke-width="0"/><path d="m248.68,109.74c1.65.08,3.35.17,5,.33,1.45.15,2.85.66,4.32.54.89-.07.91-1.45,0-1.41-1.46.07-2.87-.33-4.32-.31-1.67.02-3.33.25-5,.33-.33.02-.33.5,0,.52h0Z" fill="#3c1f0b" stroke-width="0"/><path d="m264.95,110.56c7.41-1.96,15.49-.45,23.03-2.64,5.46-1.58,13.4-4.38,17.12-8.89.69-.84.53-1.78-.31-2.43-.11-.08-.21-.17-.32-.25-1.22-.94-2.68.83-2,2,.06.1-16.46,7.7-17.95,8.04-6.39,1.5-13.79.6-19.93,2.84-.81.3-.5,1.54.36,1.31h0Z" fill="#3c1f0b" stroke-width="0"/><path d="m219.54,101.22c1.57,3.87.89,9.79,1.72,13.99,1.13,5.72.92,12.04,2.54,17.58.6,2.04,3.67,1.19,3.18-.88-1.42-6.03-1.4-12.31-2.97-18.38-1-3.9-.86-9.5-3.02-12.92-.46-.72-1.81-.26-1.46.61h0Z" fill="#3c1f0b" stroke-width="0"/><path d="m225.37,138.7c-.05,1.08.42,2.15.26,3.22-.14.91,1.2,1.09,1.24.17.05-1.18-.53-2.23-.61-3.39-.04-.57-.87-.58-.89,0h0Z" fill="#3c1f0b" stroke-width="0"/><path d="m226.67,145.79c-.21.96.06,1.89.27,2.83.14.65.11,1.27.19,1.92.08.73.44,1.39.43,2.14,0,1.03,1.53,1.02,1.59,0,.04-.62-.12-1.12-.3-1.72-.2-.66-.16-1.3-.3-1.97-.23-1.07-1.02-1.98-1.04-3.09-.01-.47-.74-.61-.85-.12h0Z" fill="#3c1f0b" stroke-width="0"/><path d="m229.2,159.57c.88,5.98,2.14,9.77,8.61,10.76,9,1.39,18.89.34,27.96-.04,7.98-.34,16.73-1.07,24.43-3.33,6-1.75,8-7.26,9.36-13.08.4-1.72-2.11-2.41-2.64-.73-.72,2.29-1.85,6.3-3.39,8.27-2.03,2.59-5.28,3.25-8.36,3.73-6.76,1.05-13.57,1.97-20.41,2.12-5.65.13-11.38-.61-16.93-.23-3.43.23-8.13,1.17-11.53.01-3.85-1.31-4.3-4.89-6.28-7.84-.29-.44-.89-.15-.81.34h0Z" fill="#3c1f0b" stroke-width="0"/><path d="m299.15,152.09c.3-1.64.24-3.39.79-4.97.48-1.36,1.18-2.62.71-4.08-.28-.88-1.77-1.31-2.2-.29-.57,1.34-1.18,2.92-1.48,4.34-.35,1.7-.02,3.33.33,5,.19.9,1.68.93,1.85,0h0Z" fill="#3c1f0b" stroke-width="0"/><path d="m301.11,137.88c.53-.72.83-1.27.37-2.14-.31-.6-1.4-.51-1.52.2-.07.43-.32.84-.48,1.25-.39,1.01,1.08,1.44,1.63.69h0Z" fill="#3c1f0b" stroke-width="0"/><path d="m230.84,114.32c-.06.35-.62.61-.84.89-.35.44-.49.99-.57,1.54-.15,1.08.06,2.24.77,3.1,1.48,1.8,4.21,1.44,5.65-.17,1.67-1.86,1.72-4.55-.17-6.31-1.11-1.04-4.46-1.9-4.9.34-.04.23.1.51.37.49.44-.04.9-.22,1.33-.22.69-.01,1.27.66,1.7,1.16.96,1.11.96,2.7-.38,3.54-1.26.79-2.47-.31-2.33-1.65.11-1.04,1.01-1.58.68-2.71-.18-.6-1.2-.7-1.31,0h0Z" fill="#3c1f0b" stroke-width="0"/><path d="m231.5,114.62c.15,0,.15-.23,0-.23s-.15.23,0,.23h0Z" fill="#3c1f0b" stroke-width="0"/><path d="m229.64,116.21c-.04.47-.07.9-.01,1.37.03.21.3.21.33,0,.06-.47.02-.9-.01-1.37-.01-.2-.29-.2-.3,0h0Z" fill="#3c1f0b" stroke-width="0"/><path d="m247.41,117.22c-1.81-.67-2.31,1.63-2.04,2.91.4,1.89,2.83,2.68,4.5,1.92.79-.36,1.28-1.34,1.53-2.13.26-.82.09-1.72-.49-2.36-1.11-1.22-3.35-1.39-4.73-.54-.96.59-.32,1.99.75,1.78.74-.15,1.59-.25,2.28.11.16.08.32.18.35.32.08.28-.16.94-.38,1.13-.25.22-.81.15-1.12.09-.27-.05-.56-.15-.76-.35-.08-.08-.04-.03-.09-.15-.11-.31-.17-.69-.14-1.01.01-.11.02-.22.07-.32.03-.06-.2,0,.07.03.87.08.91-1.16.19-1.43h0Z" fill="#3c1f0b" stroke-width="0"/><path d="m266.12,121.52c.03-.06.07-.13.1-.19.38-.7.34-1.73-.3-2.3-.05-.04-.1-.09-.15-.13-.67-.6-1.59-.75-2.39-.31-.05.03-.1.05-.15.08-.97.54-1.3,2.16-.38,2.92.54.45,1.01.69,1.72.68-.45-.19-.89-.37-1.34-.56.06.05.13.1.19.15.82.65,2.11.71,2.69-.35h0Z" fill="#3c1f0b" stroke-width="0"/><path d="m241.06,127.43c2.13,0,2.13-3.3,0-3.3s-2.13,3.3,0,3.3h0Z" fill="#3c1f0b" stroke-width="0"/><path d="m253.71,128.64c1.48,0,1.48-2.3,0-2.3s-1.48,2.3,0,2.3h0Z" fill="#3c1f0b" stroke-width="0"/><path d="m279.88,114.16c.11-.91-.71-1.26-1.44-.84-1.02.57-1.33,1.8-1.39,2.87-.06,1.09.02,2.15,1.02,2.78,1.29.82,2.85.69,4.28.38.98-.21,1.71-.51,2.11-1.49.53-1.32.69-2.73-.2-3.91-1.43-1.89-4.88-2.91-6.57-.77-.49.62-.07,1.85.88,1.51,1.04-.38,1.96-.71,3.01-.12.47.27.96.71,1.1,1.24.06.25-.07,1.42-.13,1.47-.24.2-.98.24-1.28.28-.59.09-1.87.21-2.25-.4-.2-.31-.13-.99-.12-1.33.01-.39.11-.7.17-1.07.03-.05.06-.1.09-.15.25-.23.16-.29-.28-.18.25.55.95.19,1-.27h0Z" fill="#3c1f0b" stroke-width="0"/><path d="m272.9,133.98c.01-.92-.15-1.97.28-2.81.52-1.01,1.56-1.31,2.63-1.4.72-.06,1.86-.17,2.51.21,1.13.66,1.09,1.86,1.05,2.98-.06,1.28,1.92,1.28,1.99,0,.09-1.76.05-2.81-1.32-4.08-1.2-1.1-2.68-1.06-4.22-.93-1.39.11-2.73.55-3.67,1.62-1.13,1.28-.82,2.85-.72,4.41.06.94,1.46.96,1.48,0h0Z" fill="#3c1f0b" stroke-width="0"/><path d="m290.85,110.74c-.01.09-.02.18-.03.26-.02.14.09.31.22.38.86.46,2.07.19,2.99.08,1.65-.2,3.03-.27,4.58-.94.86-.37.42-1.81-.47-1.75-.89.06-1.5.53-2.34.76-.64.18-1.31.27-1.96.44-.96.25-1.95.4-2.9.65-.05.01-.07.05-.08.1h0Z" fill="#3c1f0b" stroke-width="0"/><path d="m292.62,115.48c.41-.32,1.44.1,1.86.22,1.4.38,1.48-2.06,0-1.72-.49.11-1,.09-1.49.21-.51.13-.73.37-1.03.78-.31.42.32.78.66.51h0Z" fill="#3c1f0b" stroke-width="0"/><path d="m291.98,119.34c.45.04.91.09,1.37.08,1.05-.02,1.06-1.62,0-1.64-.46,0-.91.05-1.37.08-.95.08-.95,1.4,0,1.48h0Z" fill="#3c1f0b" stroke-width="0"/><path d="m286.52,126.28c2.61.18,5.52-.2,8.08-.72,1.06-.21.61-1.9-.45-1.63-2.43.62-5.14,1.1-7.64,1.33-.64.06-.65.96,0,1.01h0Z" fill="#3c1f0b" stroke-width="0"/><path d="m289.37,128.96c.78.15,1.78-.03,2.22-.76.22-.35.06-.79-.26-1.01-.29-.19-.57-.24-.91-.15-.28.07-.53.31-.83.31-.89,0-1.15,1.43-.22,1.61h0Z" fill="#3c1f0b" stroke-width="0"/><path d="m253.03,99.64c4.7.12,9.59-.73,14.3-1.07,4.4-.32,8.89-.42,13.25-1.09.94-.14.58-1.43-.21-1.52-9.03-1.07-18.41,1.73-27.34,2.65-.65.07-.68,1.01,0,1.03h0Z" fill="#3c1f0b" stroke-width="0"/><path d="m264.42,101.27c4.27-.75,8.6-.3,12.86-.73.96-.1.94-1.36,0-1.48-4.18-.53-9.04.36-13.11,1.32-.58.14-.33.98.24.88h0Z" fill="#3c1f0b" stroke-width="0"/><path d="m270.45,104.09c2.47.1,5.28-.08,7.71-.51.87-.15.55-1.34-.19-1.43-2.44-.28-5.06.79-7.52.88-.68.03-.68,1.03,0,1.05h0Z" fill="#3c1f0b" stroke-width="0"/><path d="m230.73,100.93c1.22-.55,3.6-.48,4.99-.68,2-.29,4.04-.72,6.04-.96.64-.08.65-.94,0-1.01-2.05-.21-4.37.29-6.39.67-1.64.3-3.67.31-5.14,1.11-.58.32-.07,1.13.51.87h0Z" fill="#3c1f0b" stroke-width="0"/><path d="m234.6,102.92c.59-.52,1.64-.4,2.37-.38,1.02.02,2.04.04,3.07.04.92,0,.92-1.42,0-1.43-1.73-.02-4.84-.43-6.18,1.03-.46.5.24,1.2.75.75h0Z" fill="#3c1f0b" stroke-width="0"/><path d="m237.65,105.2c.29,0,.55.02.84.08,1.15.23,1.16-1.61,0-1.38-.28.06-.55.07-.84.08-.78.02-.78,1.2,0,1.22h0Z" fill="#3c1f0b" stroke-width="0"/><path d="m233.19,143.96c6.03,1.04,12.23,1.48,18.31.57.75-.11.56-1.32-.18-1.31-5.95.08-12.2-.08-18.11.59-.08,0-.11.13-.02.15h0Z" fill="#3c1f0b" stroke-width="0"/><path d="m240.04,148.19c.95.07,1.92.07,2.86.27.76.16,1.49.39,2.27.38,1.09-.02,1.08-1.63,0-1.69-.81-.04-1.6-.19-2.41-.23-.91-.05-1.81.11-2.72.2-.69.07-.7,1.03,0,1.08h0Z" fill="#3c1f0b" stroke-width="0"/><path d="m244.34,151.58c.74.17,1.62.34,2.34.05.54-.22.54-.89,0-1.11-.72-.29-1.6-.12-2.34.05-.5.11-.5.9,0,1.02h0Z" fill="#3c1f0b" stroke-width="0"/><path d="m266.69,144.99c7.45.49,14.79-.14,22.21-.7,1.37-.1,1.4-2.22,0-2.16-7.42.32-14.8,1.51-22.21,2.03-.53.04-.53.79,0,.82h0Z" fill="#3c1f0b" stroke-width="0"/><path d="m274.08,148.49c2.7.41,5.63.23,8.34-.04,1.02-.1,1.03-1.51,0-1.59-2.72-.22-5.66.18-8.34.64-.49.08-.5.92,0,.99h0Z" fill="#3c1f0b" stroke-width="0"/><path d="m279.19,150.93c.62.11,1.23.31,1.79-.07.35-.24.35-.71,0-.95-.56-.38-1.17-.18-1.79-.07-.54.09-.54.99,0,1.08h0Z" fill="#3c1f0b" stroke-width="0"/><path d="m248.86,165.21c.67-.33,3.67.24,4.47.18,2.17-.16,4.33-.39,6.5-.54,2.97-.21,5.87-.91,8.8-1.33.96-.14.74-1.81-.23-1.7-3.79.43-7.5,1.12-11.33,1.43-2.11.17-4.19.69-6.31.73-1.02.02-1.6-.28-2.45.29-.59.39-.08,1.26.56.95h0Z" fill="#3c1f0b" stroke-width="0"/><path d="m274.75,162.87c.79.16,1.27-.13,2.01-.3.75-.16.41-1.23-.31-1.13-.53.08-1.02.37-1.55.37-.59,0-.75.93-.14,1.06h0Z" fill="#3c1f0b" stroke-width="0"/><path d="m219.74,154.74c-9.75,7.64-4.52,16.2,5.74,19.36,6.41,1.97,13.03,1.87,19.68,1.84,8.69-.04,17.03.55,25.71-.36,6.24-.65,12.42-.96,18.62-2.1,5.4-.99,12.62-2.07,17.43-4.73,8.74-4.84,3.46-16.83-4.61-18.94-1.82-.48-2.59,2.43-.77,2.8,3.55.73,6.95,3.67,7.19,7.38.48,7.45-4.19,7.2-8.33,8.3-3.68.98-7.38,1.8-11.12,2.55-7.73,1.56-15.87,2.22-23.72,2.87-4.6.38-9.05-.04-13.63-.24-5.04-.22-10.16.51-15.18.11-4.14-.33-9.08-1.06-12.82-2.69-5.32-2.32-8.38-4.29-5.42-11.59.5-1.23,1.54-2.64,2.26-3.78.44-.68-.49-1.22-1.03-.79h0Z" fill="#3c1f0b" stroke-width="0"/><path d="m216.68,159.59c-3.52,3.5-6.4,7.73-9.55,11.58-2.24,2.74-4.82,5.43-6.07,8.8-3.83,10.35-5.48,21.73-4.18,32.76,1.2,10.14,6.76,17.94,11.8,26.48,7.95,13.49,6.01,28.96-2.35,41.54-12.7,19.1-32.34,36.44-36.14,60.17-1.54,9.6-2.9,20.18.8,29.43,3.57,8.93,10.97,18.25,17.98,24.78,9.22,8.59,21.22,10.68,33.07,13.37,11.81,2.68,24.17,2.49,36.19,1.21,1.51-.16,1.54-2.53,0-2.39-10.56.95-20.43.31-30.88-.78-10.39-1.09-23.17-3.8-31.84-9.81-8.56-5.93-16.69-16.32-21.07-25.75-4.83-10.41-3.29-25.87.37-36.51,7.51-21.84,25.46-36.96,36.75-56.57,4.42-7.68,6.06-15.4,4.64-24.19-1.69-10.43-6.77-16.8-11.41-25.9-6.34-12.44-7.74-26.89-3.44-40.32,1.67-5.21,2.7-9.13,6.12-13.55,3.34-4.32,6.56-9.3,10.22-13.34.6-.67-.35-1.64-.99-.99h0Z" fill="#3c1f0b" stroke-width="0"/><path d="m311,160.59c5.54,6.12,12.54,14.45,14.67,22.23,3.18,11.61,6.15,23.44,2.38,35.47-3.01,9.61-10.32,16.87-13.43,26.27-2.9,8.77-4.02,18.58-.52,27.31,7.91,19.74,26.55,33.51,35.71,52.64,4.96,10.36,7.57,21.94,7.29,33.47-.31,12.65-8.13,22.43-16.06,31.59-8.97,10.36-21.23,13.38-34.12,16.01-12.04,2.46-24.2,2.83-36.48,1.73-1.54-.14-1.51,2.23,0,2.39,11.06,1.18,21.99,1.19,32.95-.55,10.02-1.59,21.47-3.85,30.16-9.33,8.09-5.1,14.5-13.43,19.73-21.33,6.06-9.15,7.36-18.22,6.15-29.01-1.18-10.54-3.42-20.45-8.84-29.73-6.41-10.96-14.69-20.64-22.33-30.71-9.22-12.15-15.76-23.43-12.2-39.18,2.48-10.96,10.6-19.11,14.16-29.72,4.24-12.64,1.01-24.9-2.07-37.18-2.17-8.68-9.9-17.13-16.18-23.36-.65-.64-1.6.33-.99.99h0Z" fill="#3c1f0b" stroke-width="0"/><path d="m244.26,410.32c3.69-.96,9.43,0,13.33-.05,5.04-.06,9.89.63,14.89.83,9.01.37,19.22-1.37,28.05-2.88.82-.14.61-1.44-.19-1.43-10.31.16-20.73,1.47-31.01.97-5.38-.26-8.69-.37-13.84.4-3.86.58-8.09-.5-11.66,1.12-.59.27-.17,1.18.43,1.03h0Z" fill="#3c1f0b" stroke-width="0"/><path d="m210.29,186.05c-1.29,9.74-3.67,18.77-.72,28.17,2.5,7.95,3.07,16.64,6,24.47,4.52,12.08,12.48-.1,13.01-7.34.27-3.68-.66-6.4-1.66-9.86-1.4-4.86-1.82-9.79-1.62-14.84.24-5.95,3.6-15.19.64-21.02-1.28-2.52-7.29-7.19-10.31-6.44-4.85,1.2-6.5,9.18-6.54,13.22-.01,1.27,1.78,1.2,1.92,0,.34-2.92,1.99-10.1,6.82-9.99,2.77.06,5.51,3.83,6.17,6.42,1.1,4.34-.33,9.44-.9,13.72-.51,3.85-.59,8-.2,11.87.52,5.32,3.37,10.26,3.38,15.58.07,1.88-.22,3.73-.86,5.55-.23,3.2-1.74,4.16-4.54,2.86-3.93-.43-3.24-.68-4.09-3.96-1.26-4.89-2.68-9.77-3.82-14.69-1.33-5.77-3.54-10.8-3.16-16.81.36-5.6,1.06-11.34,1.7-16.91.09-.8-1.14-.78-1.24,0h0Z" fill="#3c1f0b" stroke-width="0"/><path d="m215.26,276.95c-1.87,3.59-4.19,9.46-.09,12.51,3.65,2.72,9.23-.51,11.42-3.7,2.42-3.52,2.46-9.92-2.27-11.68-1.08-.4-2.16-.11-3.26.08-1.22.21-2.92.56-4.02,1.01-2.08.85-3.57,2.86-4.51,4.8-.6,1.24,1.09,2.26,1.86,1.09.76-1.16,1.74-2.8,3.06-3.38.81-.35,1.96-.29,2.85-.55,1.8-.53,3.78-1.03,4.89.98.98,1.77.7,4.11-.22,5.83-1.36,2.53-5.66,5.72-8.56,4.02-3.48-2.04-1.83-7.73-.52-10.65.19-.42-.41-.79-.63-.37h0Z" fill="#3c1f0b" stroke-width="0"/><path d="m204.45,306.06c-5.12,10.66-14.5,18.86-19.11,29.83-3.7,8.8-6.34,19.37-5.11,28.97.66,5.11,2.99,16.53,9.07,18.31,4.85,1.42,7.28-4.28,8.01-8.2.89-4.82-.66-9.61-.7-14.43-.05-6.73,1.84-13.22,4.58-19.3,3.76-8.35,9.75-15.73,11.73-24.83.72-3.3,1.97-12.32-3.4-12.77-1.37-.12-1.74.2-2.88,1-2.47,1.74-4.28,6.62-5.88,9.3-.63,1.06.97,1.97,1.64.96,1.28-1.95,2.99-5.29,4.53-7,3.06-3.41,3.97,1.65,4.1,5.03.22,5.96-4.02,12.82-6.94,17.82-6.22,10.66-10.8,21.87-9.5,34.42.34,3.27,1.34,7.28.1,10.48-.33.91-.67,1.81-1,2.72-2.19-.02-4.38-.04-6.56-.06-1.15-.7-1.99-4.56-2.47-5.87-3.21-8.7-2.9-17.3-.63-26.22,1.97-7.76,5.1-14.42,9.6-21.02,4.07-5.97,8.87-11.93,11.88-18.52.32-.7-.71-1.33-1.05-.61h0Z" fill="#3c1f0b" stroke-width="0"/><path d="m202.3,222.99c.92.2,2.07.4,2.72,1.15.46.54,1.25-.25.78-.78-.78-.89-2.1-1.17-3.21-1.39-.66-.13-.95.87-.28,1.02h0Z" fill="#3c1f0b" stroke-width="0"/><path d="m230.24,226.98c6.19,2.78,15.26,1.65,21.91,2.31,10.94,1.09,21.8.5,32.8.52,9.54.01,18.13-1.44,27.4-3.3,5.11-1.03,12.98-1.72,16.21-6.56.62-.92-.82-1.69-1.46-.85-4.02,5.29-14.91,5.71-20.88,7.03-8.86,1.96-17.82,1.97-26.85,1.87-8.29-.09-16.42.75-24.69-.03-7.35-.69-17.28,1-24.21-1.54-.32-.12-.55.42-.23.56h0Z" fill="#3c1f0b" stroke-width="0"/><path d="m327.49,217.69c-.18-.12-.28-.52-.37-.69-.17-.29-.43-.57-.65-.83-.49-.6-1.05-1.06-1.81-1.23-1-.23-1.39,1.38-.42,1.51.69.1,1.04.54,1.5,1.01.21.21.42.42.71.51.39.13.59,0,.97-.01.15,0,.2-.2.08-.28h0Z" fill="#3c1f0b" stroke-width="0"/><path d="m321.06,214.46c-.71-.04-1.41-.2-2.12-.23-.71-.04-1.41-.01-2.12.01-.8.03-.8,1.21,0,1.24.71.02,1.41.05,2.12.01.71-.04,1.41-.2,2.12-.23.51-.03.51-.77,0-.8h0Z" fill="#3c1f0b" stroke-width="0"/><path d="m311.74,214.36c-1.37,0-2.75.08-4.12-.03-1.49-.12-2.84-.45-4.35-.27-.39.05-.58.69-.1.76,2.93.4,5.61.61,8.58.55.65-.01.65-1.01,0-1.01h0Z" fill="#3c1f0b" stroke-width="0"/><path d="m302.42,215.92c1.91,0,1.92-2.97,0-2.97s-1.92,2.97,0,2.97h0Z" fill="#3c1f0b" stroke-width="0"/><path d="m228.28,217.05c11.56.27,23.36-2.64,34.86-3.6,9.82-.82,19.32.9,29.11.92,1.02,0,1-1.49,0-1.57-10.46-.79-19.88-2.38-30.52-1.27-11.23,1.17-22.48,2.98-33.47,5.37-.08.02-.06.15.02.15h0Z" fill="#3c1f0b" stroke-width="0"/><path d="m296.65,214.62c.13-.05.25-.11.38-.16.44-.18.44-.72,0-.9-.13-.05-.25-.11-.38-.16-1.01-.42-1.02,1.64,0,1.22h0Z" fill="#3c1f0b" stroke-width="0"/><path d="m206.67,217.69c-2.75-.14-4.8,1.9-7.43,2.28-1.07.15-.64,1.86.45,1.65,2.5-.49,4.43-2.53,6.97-2.8.71-.08.74-1.09,0-1.12h0Z" fill="#3c1f0b" stroke-width="0"/><path d="m210.68,400.71c18.17-2.6,37.53-1.36,55.86-1.98,8.41-.28,16.97-2.07,25.36-1.43,8.21.63,16.69,1.04,24.91.84,1.44-.03,1.45-2.27,0-2.25-8.19.14-16.75-.36-24.91-1.01-9.28-.73-18.98,1.13-28.29,1.49-17.44.68-36.15-.4-53.33,2.88-.96.18-.53,1.58.4,1.45h0Z" fill="#3c1f0b" stroke-width="0"/><path d="m282.08,402.4c3.33.1,6.61.57,9.91,1.08,1.24.19,1.77-1.72.52-1.9-3.46-.5-6.93-.73-10.43-.61-.92.03-.92,1.4,0,1.43h0Z" fill="#3c1f0b" stroke-width="0"/><path d="m301.14,403.59c.81,0,.82-1.26,0-1.26s-.82,1.26,0,1.26h0Z" fill="#3c1f0b" stroke-width="0"/><path d="m274.03,233.72c12.43.43,23.35,2.24,35.44-1.77,1.25-.42.73-2.38-.55-1.99-11.82,3.64-22.81,2.32-34.89,2.47-.83.01-.83,1.26,0,1.29h0Z" fill="#3c1f0b" stroke-width="0"/><path d="m283.77,239.26c5.79.19,11.58.25,17.37.33,1.3.02,1.3-2.03,0-2.01-5.79.07-11.58.14-17.37.33-.87.03-.88,1.33,0,1.36h0Z" fill="#3c1f0b" stroke-width="0"/><path d="m288.86,242.7c3.92.31,7.93.33,11.86.28,1.3-.02,1.3-2,0-2.01-3.93-.05-7.95-.03-11.86.28-.93.07-.93,1.38,0,1.45h0Z" fill="#3c1f0b" stroke-width="0"/><path d="m288.86,248.54c2.51.29,5.11.08,7.63-.12,1.19-.09,1.22-1.93,0-1.87-2.54.12-5.11.4-7.63.73-.81.11-.82,1.17,0,1.26h0Z" fill="#3c1f0b" stroke-width="0"/><path d="m289.08,254.57c1.53.43,3.28.66,4.86.74,1.36.07,1.36-2.19,0-2.11-1.54.09-3.14-.31-4.66-.13-.81.09-1.09,1.25-.2,1.5h0Z" fill="#3c1f0b" stroke-width="0"/><path d="m292.32,259.7c1.09.97,2.25.77,3.58.57,1.14-.17.74-1.8-.26-1.89-.47-.04-1.39.09-1.76-.24-1.06-.94-2.62.62-1.56,1.56h0Z" fill="#3c1f0b" stroke-width="0"/><path d="m294.22,346.73c17.43,4.54,34.08,3.1,51.66-.07,1.18-.21.67-1.97-.49-1.78-17.19,2.7-33.74,5.18-50.87.77-.7-.18-1,.9-.3,1.08h0Z" fill="#3c1f0b" stroke-width="0"/><path d="m320.21,355.19c10.15.92,21.01,1.72,30.45-2.86.74-.36.22-1.64-.57-1.35-9.86,3.6-19.51,3.8-29.88,3.15-.68-.04-.67.99,0,1.05h0Z" fill="#3c1f0b" stroke-width="0"/><path d="m326.99,362c6.05.54,11.6-.18,17.55-1.19.74-.13.57-1.34-.18-1.31-5.87.26-11.41,1.71-17.37,1.38-.73-.04-.71,1.06,0,1.12h0Z" fill="#3c1f0b" stroke-width="0"/><path d="m332.07,366.23c2.71.06,5.36-.09,8.05-.39.73-.08.77-1.21,0-1.17-2.68.14-5.36.4-8.05.46-.71.01-.71,1.08,0,1.1h0Z" fill="#3c1f0b" stroke-width="0"/><path d="m331.22,370.46c1.64.06,3.2-.19,4.81-.42.64-.09.49-1.17-.15-1.13-1.56.1-3.1.4-4.66.45-.71.02-.71,1.08,0,1.1h0Z" fill="#3c1f0b" stroke-width="0"/><path d="m330.22,374.7c.73.29,1.48.49,2.2.04.83-.52-.05-1.74-.84-1.09-.25.21-.78,0-1.05-.06-.73-.18-.98.84-.31,1.11h0Z" fill="#3c1f0b" stroke-width="0"/><path d="m243.38,291.22c17.02,4.24,36.03,3.57,52.96-.76,1.35-.34.78-2.39-.57-2.08-16.79,3.9-35.09,5.14-52.1,1.78-.69-.14-.99.89-.29,1.06h0Z" fill="#3c1f0b" stroke-width="0"/><path d="m263.02,296.29c8.1.65,15.97,1.83,24.15,1.53.99-.04,1-1.51,0-1.55-8.07-.27-16.08-.61-24.15-1.01-.67-.03-.65.98,0,1.03h0Z" fill="#3c1f0b" stroke-width="0"/><path d="m269.79,304.74c4.95.15,9.88-.16,14.83-.11,1.04.01,1.04-1.63,0-1.62-4.95.08-9.88.61-14.83.74-.63.02-.63.96,0,.98h0Z" fill="#3c1f0b" stroke-width="0"/><path d="m269.1,309.8c1.58,1.18,3.52.94,5.39.81,2.64-.18,5.17-.49,7.74-1.15.71-.18.4-1.23-.3-1.08-2.27.46-4.57.61-6.86.87-1.79.2-3.83.72-5.42-.37-.58-.4-1.09.52-.54.93h0Z" fill="#3c1f0b" stroke-width="0"/><path d="m269.97,313.99c2.52,1.25,5.18.69,7.87.77,1,.03.99-1.6,0-1.55-2.39.12-5.11,1.04-7.38-.08-.57-.28-1.06.57-.5.85h0Z" fill="#3c1f0b" stroke-width="0"/><path d="m271.26,319.47c1.44.63,2.7.38,4.2.17.65-.09.5-1.19-.16-1.15-1.26.07-2.44.5-3.69.15-.48-.14-.84.62-.35.83h0Z" fill="#3c1f0b" stroke-width="0"/><path d="m235.07,249.45c5.76,2.64,11.96,3,18.2,3.13,1.12.02,1.11-1.68,0-1.73-5.89-.28-11.9-.42-17.38-2.8-.94-.41-1.77.96-.82,1.4h0Z" fill="#3c1f0b" stroke-width="0"/><path d="m237.6,256.51c4.81.51,9.13,1.09,13.98.56.91-.1.89-1.29,0-1.41-2.35-.31-4.65.08-7.01.02-2.33-.06-4.65-.26-6.97-.31-.74-.01-.7,1.05,0,1.12h0Z" fill="#3c1f0b" stroke-width="0"/><path d="m241.26,260.73c1.77.66,3.6,1.1,5.45,1.47,1.09.22,1.33-1.39.21-1.52-1.82-.21-3.6-.5-5.36-1.04-.7-.22-.97.84-.3,1.08h0Z" fill="#3c1f0b" stroke-width="0"/><path d="m245.05,264.63c.78.27,1.64.39,2.33.88.79.58,1.65-.81.78-1.34-.85-.51-1.82-.57-2.76-.81-.83-.21-1.14.99-.35,1.26h0Z" fill="#3c1f0b" stroke-width="0"/><path d="m264.13,184.92c6.52,1.21,12.23,2.97,18.95,2.94,7.39-.02,14.66-1.19,21.72-3.35,1.28-.39.74-2.39-.55-2.01-6.91,2.06-13.94,3.44-21.17,3.59-6.41.13-12.36-1.41-18.64-2.3-.73-.1-1.06.99-.31,1.13h0Z" fill="#3c1f0b" stroke-width="0"/><path d="m279.11,191.7c8.43.11,16.56.32,24.99-.31.87-.06.87-1.29,0-1.36-8.21-.61-16.73.62-24.99.54-.72,0-.72,1.11,0,1.12h0Z" fill="#3c1f0b" stroke-width="0"/><path d="m283.06,195.87c2.03,1.47,4.27.78,6.59.5,4.08-.49,8.12-.55,12.15-1.42,1.1-.24.64-1.94-.47-1.69-3.3.73-6.63,1.03-9.98,1.4-2.14.24-5.88,1.51-7.71.22-.61-.43-1.17.56-.58.99h0Z" fill="#3c1f0b" stroke-width="0"/><path d="m291.24,198.91c3.11.45,6.32,1.2,9.48.95.87-.07.88-1.3,0-1.36-3.11-.22-6.21-.47-9.32-.77-.66-.06-.83,1.08-.16,1.17h0Z" fill="#3c1f0b" stroke-width="0"/><path d="m307.92,176.91c3.11.27,6.2.82,9.32.93.88.03.86-1.3,0-1.36-3.11-.23-6.21-.59-9.32-.77-.77-.04-.76,1.13,0,1.19h0Z" fill="#3c1f0b" stroke-width="0"/><path d="m313.69,182.82c1.7.44,3.15-.25,4.82-.38.79-.06.81-1.25,0-1.24-1.51.02-3,.77-4.5.47-.75-.15-1.07.96-.32,1.15h0Z" fill="#3c1f0b" stroke-width="0"/><path d="m318.26,186.25c.14-.02.27-.05.4-.07.55-.09.55-1.02,0-1.11-.13-.02-.27-.05-.4-.07-1.04-.17-1.05,1.42,0,1.24h0Z" fill="#3c1f0b" stroke-width="0"/><path d="m221.02,370.62c10.89-.19,21.97,1.51,32.87,1.96,9.84.41,21.84,1.43,31.2-2.29,1.09-.44.66-2.21-.5-1.81-20.13,6.97-42.93-.12-63.57,1.13-.64.04-.65,1.02,0,1.01h0Z" fill="#3c1f0b" stroke-width="0"/><path d="m240.71,376.44c4.86,1.38,9.74,1.58,14.75,2.03,6.38.57,12.71,1.62,19.12,1.11.84-.07.85-1.25,0-1.31-10.92-.79-22.94-.33-33.62-2.73-.59-.13-.83.74-.25.9h0Z" fill="#3c1f0b" stroke-width="0"/><path d="m245.83,383.81c6.18,1.75,13.56,2.17,19.94,2.36.71.02.9-1.13.17-1.27-6.53-1.19-13.41-.47-19.84-2.07-.63-.16-.89.79-.27.97h0Z" fill="#3c1f0b" stroke-width="0"/><path d="m250.86,386.66c2.62,1.66,5.18,2.61,8.31,2.44.82-.04.83-1.27,0-1.29-2.85-.05-5.35-.5-7.83-1.96-.52-.31-.98.49-.47.81h0Z" fill="#3c1f0b" stroke-width="0"/><path d="m255.5,391.92c.24,0,.49,0,.73-.01.66-.01.66-1.02,0-1.03-.24,0-.49,0-.73-.01-.68-.01-.68,1.06,0,1.05h0Z" fill="#3c1f0b" stroke-width="0"/><path d="m213.57,338.26c16.07,2.34,33.29,5.22,49.5,1.9,1.12-.23.63-1.86-.47-1.69-16.19,2.53-32.83,1.01-48.92-1.05-.48-.06-.6.78-.12.85h0Z" fill="#3c1f0b" stroke-width="0"/><path d="m225.43,345.7c8.52.68,17.13,1.24,25.68,1.06,1.1-.02,1.1-1.68,0-1.71-8.56-.21-17.12-.14-25.68-.41-.69-.02-.67,1,0,1.05h0Z" fill="#3c1f0b" stroke-width="0"/><path d="m231.29,351.56c4.42.07,8.81.34,13.2.85.71.08.86-1.1.17-1.24-4.43-.92-8.88-.71-13.37-.64-.66.01-.66,1.02,0,1.03h0Z" fill="#3c1f0b" stroke-width="0"/><path d="m237.16,356.7c.98.06,1.95.11,2.93.09.8-.02.8-1.22,0-1.24-.99-.02-1.95.03-2.93.09-.68.04-.68,1.01,0,1.05h0Z" fill="#3c1f0b" stroke-width="0"/><path d="m178.73,319.39c-.42-.24-.86-.54-1.32-.97-.26-.23-.49-.6-.43-.97-1.82-1.38-4.35-1.85-7.09-1.87-7.94,2.01-16.31,2.21-24.33,3.97-6.69,1.47-22,2.56-22.48,11.16-.42,7.66,4.74,15.63,8.5,21.84,1.14,1.88,2.34,3.7,3.67,5.45,2.02,2.65,2.4,2.85,6.17,3.68,4.19.92,3.69.99,6.35-1.06,1.39-1.07,2.79-2.1,4.1-3.27,6.27-5.59,11.18-12.65,16.94-18.74,4-4.24,14.22-12.47,9.93-19.23Z" fill="#ff8700" stroke-width="0"/><path d="m121.2,283.48c-2.05,4.08-2.85,8.83-3.12,13.33-.2,3.3-1.43,11.74.31,14.62,3.45,5.73,10.58,2.98,15.77,2.11,9.4-1.57,18.86-2.51,27.97-5.28,3.23-.98,5.98-2.32,8.97-3.8,1.03-.51,9.35-4.25,10.33-5.69-4.56-2.04-9.15-4.04-13.83-5.89-9.53-3.78-18.64-8.37-27.87-12.71-.13.14-.32.23-.56.16-6.44-1.91-13.8-5.13-17.95,3.15Z" fill="#ff8700" stroke-width="0"/><path d="m211.73,320.19c.57,4.59,11.18,11.97,13.06,13.42,4.99,3.84,10.37,6.73,15.9,9.71,4.39,2.36,8.74,4.92,13.46,6.57,4.56,1.59,9.56,2.97,12.9-1.53-.02.03,3.39-7.02,3.96-6.53-.36-.31-.49-.74-.47-1.17-1.37-.28-2.73-.57-4.07-.95-8.62-2.44-14.7-6.95-21.65-12.28-5.74-4.4-12.81-8.01-19.81-10.74-.2.09-.43.13-.7.1-1.31-.14-2.33-.54-3.64-.35-1.04.15-2.07.42-3.1.62-2.28.46-4.18,1.52-5.83,3.12Z" fill="#ff8700" stroke-width="0"/><path d="m155.27,374.5c.43-.41,1.2-.22,1.53.21.38.5.23,1.13-.21,1.53-.77.69-1.72,1.24-2.29,2.13-.02.03-.05.05-.07.07.09.12.18.24.28.37,1.34,1.61,3.9,2.52,5.69,3.5.07.04.14.07.21.11-.34-.35-.45-.93.05-1.33.67-.54,1.37-1.06,2.05-1.6.96-.78,2.16.79,1.16,1.53-.7.51-1.42.99-2.12,1.5-.21.15-.42.19-.62.17,3.72,1.9,7.57,2.78,11.6,3.92,5.92,1.69,14.65,4.22,20.96,2.5,6.23-1.7,5.69-7.7,5.74-13.09.04-4.6.53-8.94-.76-13.42-.96-3.34-2.08-6.42-2.85-9.81-1.11-4.86-3.9-8.8-5.5-13.49-.28-.82-1.14-5.25-1.82-5.76-1.45.3-2.9.6-4.35.89-.12.83-.29,1.64-.51,2.45-1.89,3.1-2.75,5.69-5.26,8.61-5.08,5.9-11.25,10.91-16.58,16.64-.07.08-.16.12-.24.18-2.06,2.34-4.06,4.72-5.9,7.2-1.66,2.24-2.98,4.51-2.26,6.96.61-.72,1.37-1.29,2.07-1.96Z" fill="#ff8700" stroke-width="0"/><path d="m179.39,306.77c1.34,1.36,3.96,1.93,5.74,2.6.77.29.92,1.23.49,1.86-1.19,1.76-5.78,3.19-5.28,5.24,0,.01,0,.02.01.04.36.35.67.7.95,1.07,1.09.47,2.81.29,4.02,1.06,1.46.93,1.19,1.8,2.23,2.77,2.78,2.57,3.27.96,5.57-.12.39-.18.93-.11,1.25.17.31.27.74.83,1.07,1.09,1.22,2.87,3.23,3.52,6.02,1.93.26-.65.53-1.31.79-1.96,1.01-1.66,5.88-10.75,4.53-11.95-.25-.22-.39-.47-.45-.73-5.46-2.23-10.82-4.64-16.17-7.08-.35.13-.78.01-.88-.4-.02,0-.03-.01-.05-.02-.15,1.41-6.06,1.5-7.22,1.81-1.2,0-2.25.37-3.15,1.1-1.59.56-1.41,1.07.53,1.54Z" fill="#ff8700" stroke-width="0"/><path d="m184.95,300.38c-.11.19-.27.38-.43.58.49-.05.96-.09,1.44-.12-.34-.15-.67-.3-1.01-.46Z" fill="#ff8700" stroke-width="0"/><path d="m229.68,382.37c.38.16.45.53.33.83,3.41-1.7,6.54-4.58,9.42-7.05,2.63-2.25,6.23-4.52,8.27-7.33,3.81-5.25.52-6.72-2.38-9.91-2.69-2.95-5.15-5.88-8.47-8.18-5.7-3.97-11.14-8.29-16.86-12.24-3.39-2.34-15.77-12.95-18.45-6.86-1.62,3.66,1.78,7.91.7,11.72-.12.43-.39.64-.69.72,1.2,3.63,2.43,7.26,3.7,10.9,2.39,6.89,3.8,13.59,6.99,20.2,1.54,3.19,2.53,7.6,5.96,9.23,3.15,1.5,7.87.56,11.03-.81-.01,0-.02,0-.04,0-.77-.32-.28-1.51.49-1.2Z" fill="#ff8700" stroke-width="0"/><path d="m288.49,346.07c-.78-1.1-3.3-2.04-5.96-2.77-.03.06-.06.12-.09.16-2.75,3.84-4.52,8.22-7.14,12.11-2.9,4.31-5.56,7.29-9.41,10.64-4.56,3.97-8.12,9.03-12.57,13.13-3.51,3.23-7.19,4.87-11.43,6.9-18.57,8.91-38.35,16.49-59.46,13.18-9.71-1.52-19.8-5.17-28.38-9.93-7.9-4.39-16.51-8.85-23-15.21-6.2-6.08-12.23-13.62-16.3-21.32-4.56-8.62-5.68-18.33-5.78-27.92-.12-10.27-.7-20.23.13-30.52.38-4.66,2.61-8.83,4.17-13.18,1.41-3.92,2.82-7.16,5.01-10.43-1.13-.64-2.35-1.33-3.09-1.3-3.07.14-.71-.2-2.82,1.66-2.86,2.52-4.49,8-5.28,11.56-1.5,6.79-4.86,14.42-4.07,21.39.11.96-.7,1.45-1.43,1.36-.35,7.02.19,13.93,1.31,21.08,1.75,11.11,4.39,22.34,10.44,31.97,2.62,4.17,5.38,8.9,8.96,12.3,3.19,3.03,7.1,5.2,10.48,7.99,3.84,3.17,7.16,6.64,11.33,9.43,3.52,2.35,7.25,4.02,10.98,5.97,8.31,4.34,16.41,6.33,25.71,7.2,9.34.87,18.59,2.32,27.97,1.15,8.94-1.12,16.4-4.23,24.1-8.7,7.91-4.59,15.84-9.06,23.59-13.92,7.58-4.76,13.76-10.62,19.8-17.17,2.59-2.81,14.81-13.14,12.23-16.8Z" fill="#ff8700" stroke-width="0"/><path d="m112.07,303.56c-.35,6.44.26,12.65.46,19.06.19,6.05.21,11.75,1.72,17.65,3.11,12.11,10.9,23.03,19.83,31.73,4.06,3.96,8.63,6.24,13.43,9.09,4.99,2.96,9.48,6.26,14.85,8.61,12.02,5.24,23.6,7.81,36.73,6.68,12.74-1.09,23.93-4.47,35.34-10.16,5.12-2.55,10.87-4.64,15.32-8.27,4.63-3.77,8.12-8.75,12.32-12.94,4.41-4.4,8.73-8.01,11.81-13.65.78-1.42,5.61-9.07,5.75-8.77,0,0,0,0,0-.01-1.78-.41-3.36-.71-4.17-.9-.61-.14-1.21-.27-1.82-.39-1.17,5.79-5.77,14.31-12.61,14.06-4.15-.15-9.85-2.98-13.47-4.84-4.54-2.33-8.97-4.93-13.46-7.36-4.74-2.55-8.56-5.56-12.78-8.86-3.43-2.67-8.37-5.3-10.61-9.21-2.06-3.6-.36-9.04,4.17-9.4.05,0,.1,0,.15.01.35-.17.7-.33,1.07-.45.79-.28,1.59-.59,2.4-.87-2.79-.94-5.54-1.94-8.26-3,.31,3.37-3.21,7.24-4.6,10.23-.63,1.36-1.17,2.84-1.8,4.1,4.45.36,9.89,4.27,12.54,6.01,8.47,5.57,16.97,11.64,24.83,18.03,3.59,2.92,6.75,6.67,9.87,10.02,1.71,1.83,3.55,3.51,3.01,6.24-.6,3.04-4.81,5.87-6.88,7.71-4.24,3.79-8.7,8.09-13.5,11.15-4.9,3.12-13.44,5.2-18.51,1.49-2.85-2.09-3.67-5.28-4.89-8.35-1.85-4.62-4.08-8.46-5.02-13.43-1.88-9.94-5.15-19.73-7.59-29.59-.07-.28.16-.46.4-.5-.45-2.16-.58-4.29.32-6.02-.31-.11-.63-.25-.97-.42-2.46-1.25-2.83-3.71-5.27-3.17-1.44.32-2.25,2.11-4.12,1.67-1.88-.44-1.65-1.8-2.61-3.01-.93-1.17-1.74-1.88-2.48-2.35,1.81,9.56-13.62,21.73-18.31,27.12-5.46,6.27-11,12.73-18.19,17.11-4.56,2.78-7.99.99-11.29-2.76-4.92-5.62-9.57-12.87-12.26-19.86-1.99-5.15-4.95-13.05-.79-17.53,2.49-2.69,5.44-4.08,8.6-5,.07-.26.26-.5.6-.63,9.58-3.7,18.23-4.73,28.39-5.63,6.17-.54,13.06-2.47,18.5.87,1.23-1.51,2.99-2.35,4.38-3.72-2.82-.87-6.43-2.22-7.82-4.71-.22.1-.45.19-.65.29-2.87,1.32-5.39,3.18-8.33,4.3-6.09,2.32-13.33,3.31-19.78,4.25-7.69,1.12-16.68,3.52-24.45,3.18-5.83-.25-5.89-3.9-6.24-8.89-.44-6.31-.66-12.95.79-19.17.96-4.12,2.68-11.38,6.92-13.54,2.54-1.29,5.03-1.35,7.48-.83-3.42-1.48-6.88-2.89-10.42-4.16-.14-.05-.31-.13-.48-.21-2.22,4.85-3.7,9.71-5.33,14.86-1.87,5.92-1.89,10.96-2.22,17.06Zm43.13,61.61c2.69-3.35,5.46-6.53,8.55-9.51,5.86-5.66,12.14-12.07,16.59-19.23.27-.76.5-1.55.68-2.36.94-4.39,4.03-9.39,8.5-4.65,2.17,2.3,2.65,5.73,3.63,8.62,1.39,4.12,3.96,7.75,5.1,11.93,2.01,7.41,4.23,14.48,3.81,22.19-.33,6.05,1.6,14.37-4.48,18.23-4.24,2.69-9.93,1.97-14.64,1.41-8.02-.95-16.77-2.96-23.88-6.79-4.05-2.18-10.37-5.16-9.6-10.63.5-3.48,3.67-6.62,5.74-9.2Z" fill="#ffb067" stroke-width="0"/><path d="m112.18,267.32c-5.73,3.89-8.71,13.73-10.34,20.04-2.57,9.9-4.49,20.3-3.42,30.54,2.05,19.61,6.33,41.66,21.28,55.97,3.7,3.55,8.29,6.06,12.12,9.47,3.68,3.27,7.06,6.39,11.21,9.1,7.35,4.79,15.71,8.83,24.21,11.03,9.28,2.41,19.41,2.86,28.95,3.56,9.49.7,20.15-.65,28.89-4.47,9.31-4.07,18.43-9.77,27.11-15.05,7.8-4.75,15.22-9.54,21.83-15.89,3.99-3.84,27.68-24.79,16.39-29.35-10.46-4.23-22.14-4.74-32.24-9.9-4.19-2.14-7.52-5.28-11.23-8.1-4.44-3.38-9.53-5.71-14.47-8.26-8.66-4.47-18.18-6.58-27.19-10.22-11.49-4.64-22.4-10.53-33.77-15.41-10.4-4.47-20.24-10.28-30.7-14.57-4.7-1.93-9.38-4.14-14.16-5.87-3.43-1.24-8.15-4.02-11.65-4.36-5.39-.52-8.39,7.97-9.79,12.13-1.7,5.08-2.88,10.76-3.93,16.06-.73,3.67-1.49,7.28-.89,11.01.25,1.6,3.03,1.24,2.85-.39-.74-6.67,2.35-14.57,3.99-20.98.93-3.63,2.19-9.14,5.19-11.82,2.71-2.42,3.45-1.12,6.75.19,7.25,2.87,14.72,5.42,21.82,8.66,7.91,3.62,15.28,8.29,23.37,11.51,16.66,6.64,32.3,15.72,49.43,21.25,8.53,2.75,16.22,6,24.14,10.22,7.31,3.9,12.85,10.11,20.43,13.58,7.21,3.3,14.96,4,22.43,6.42.57.18,8.15,2.28,8.29,3.3.36,2.57-6.04,8.64-7.74,10.38-5.43,5.54-10.37,11.27-16.27,16.32-7.5,6.41-16.47,11.39-25.08,16.18-7.32,4.07-14.5,9.12-22.69,11.24-8.9,2.31-17.86,2.28-26.89,1.36-8.56-.87-17.09-1.31-25.37-3.8-8.34-2.51-17.4-7.44-24.32-12.78-8.33-6.43-17.87-13.58-23.79-22.18-6.02-8.74-9.99-17.92-12.22-28.31-2.41-11.26-3.97-22.62-2.61-34.1.72-6.04,1.82-12.38,3.58-18.2,1.29-4.28,3.57-11.63,7.24-14.55.54-.43-.17-1.34-.74-.96h0Z" fill="#3c1f0b" stroke-width="0"/><path d="m119.52,269.02c-12.59,16.21-11.05,35.78-10.86,55.05.19,19.98,7.41,35.6,21.57,49.83,6.62,6.66,15.35,11.14,23.46,15.72,9.1,5.14,20.13,9,30.49,10.3,22.12,2.77,41.76-5.87,61.14-14.99,9.42-4.43,16.66-13.95,24.05-21.07,5.88-5.67,8.69-13.84,13.37-20.43.35-.49.28-1.23,0-1.73-.1-.18-.2-.35-.3-.53-1.09-1.92-3.87-.23-2.93,1.71-.65-1.34-.47-.02-1.62,1.27-1.26,1.43-2.28,3.23-3.22,4.87-2.54,4.45-5.16,9.02-8.96,12.57-7.52,7.04-13.94,15.93-23.41,20.42-13.13,6.22-24.91,12.16-39.59,13.77-13.3,1.45-25-.08-37.4-5.11-22.32-9.06-44.73-26.33-50.83-50.7-2.41-9.61-2.6-21.29-2.41-31.21.27-13.77,2.47-26.44,8.51-38.9.31-.64-.56-1.47-1.07-.82h0Z" fill="#3c1f0b" stroke-width="0"/><path d="m190.62,302.54c.06-.11.13-.22.19-.34.27-.48.05-1.25-.55-1.36-4.01-.7-12.12.53-15.44,2.82-.59.4-.84,1.01-.69,1.7.81,3.87,6.94,5.54,10.17,6.47l-.84-2.05c-1.87,3.08-5.65,3.33-6.63,7.39-.11.45-.01.96.34,1.28,2.83,2.6,5.6.61,8.03,4.75.83,1.43.5,2.61,2.29,3.33,1.64.65,2.41-.45,3.89-.8,2.67-.63.42-1.53,3.03.13.62.39,1.13,1.12,1.75,1.58,4.86,3.59,6.86.55,8.9-4,1.91-4.26,8.18-10.87,3.76-15.17-1.51-1.47-3.79.8-2.32,2.32,1.45,1.49-2.81,8.4-3.73,10.04-1.7,3.04-2.25,6.04-6.01,3.42-.82-.57-1.29-1.94-2.12-2.64-.54-.46-1.13-.52-1.76-.23-2.25,1.06-2.51,2.52-5.1.31-1.17-1-.66-1.89-2.22-2.94-2.48-1.67-5.64.39-3.95-3.01,1.05-2.1,3.01-2.48,4.27-4.33.55-.81-.06-1.75-.84-2.05-1.7-.65-5.71-1.7-6.89-3.01-1.66-.29-1.52-.58.42-.89,1.18-.46,2.39-.78,3.64-.97,1.05-.24,7.13-.37,6.92-2.15.09.73,1.06,1.16,1.48.4h0Z" fill="#3c1f0b" stroke-width="0"/><path d="m139.5,279.3c-5.15-2.11-11.02-5.66-16.68-2.55-4.01,2.21-5.52,8.68-6.64,12.67-1.94,6.91-1.87,15.13-1.01,22.22.53,4.39,1.55,6.83,6.39,7.04,8,.35,17.13-2.11,25.03-3.28,6.81-1.01,14.67-1.96,21.05-4.78,3.28-1.45,26.23-10.78,14.8-15.41-1.89-.76-3.05,2.25-1.36,3.23.96.56-7.83,4.72-8.54,5.06-3.6,1.73-6.9,3.5-10.74,4.63-9.85,2.91-20.03,3.89-30.12,5.63-2.48.43-8.24,2.17-10.11,1.37-2.91-1.25-3.06-5.17-3.22-7.72-.3-4.75-.45-9.59.23-14.32.53-3.7,2.45-12.01,5.71-13.99,4.33-2.63,10.5.04,14.92,1.32.74.22.99-.85.31-1.13h0Z" fill="#3c1f0b" stroke-width="0"/><path d="m170.06,313.98c-5.99,1.24-12.3,1.18-18.37,1.95-6.23.79-12.33,2.24-18.47,3.53-7.23,1.51-14.22,4.77-13.03,13.02,1.46,10.13,6.24,19.19,12.39,27.29,4.18,5.5,8.15,9.56,14.76,5.3,10.07-6.48,16.88-16.55,25.03-25.08,4.66-4.88,13.84-13.02,10.25-21.11-3.39-7.65-12.84-6.09-19.27-5.27-5.55.71-11.22.32-16.77,1.2-5.24.83-10.25,2.68-15.19,4.59-1.46.56-.84,2.93.65,2.37,7.24-2.71,14.15-4.13,21.88-4.45,6.4-.26,19.29-3.58,24.17,1.51,6.05,6.3-6.92,16.77-10.28,20.43-6.01,6.55-11.26,13.9-18.16,19.56-3.79,3.11-7.45,5.96-12.09,1.69-2.19-2.01-3.93-4.99-5.48-7.51-3.61-5.88-12.39-19.11-7.67-25.73,4.07-5.7,16.37-6.55,22.9-7.88,7.66-1.56,15.62-1.82,23.17-3.84,1.03-.27.59-1.79-.44-1.58h0Z" fill="#3c1f0b" stroke-width="0"/><path d="m183.35,330.66c-5.97,12.38-16.79,20.65-25.5,30.87-3.61,4.23-11.21,11.12-7.63,17.2,4.79,8.14,19.89,11.04,28.2,12.66,6.11,1.19,15.21,2.85,20.41-1.63,2.23-1.92,3.02-4.49,3.29-7.34.53-5.58.95-12.82-.01-18.31-.91-5.17-2.48-11.51-4.32-16.41-1.35-3.59-3.35-6.87-4.63-10.52-.69-1.96-1.05-4.08-2.05-5.91-3.04-5.54-8.46-4.87-10.08,1.09-1.15,4.22-1.39,6.72-4.29,10.32-2.07,2.57-4.29,4.38-6.79,6.59-3.92,3.47-7.41,7.15-10.36,11.48-.84,1.24,1.04,2.66,2.06,1.59,5.36-5.63,11.53-10.73,16.58-16.59,1.85-2.15,3.7-4.3,4.8-6.95.49-1.18.53-4.1,1.25-4.81,2.9-2.89,4.19,2.35,5.24,4.2,4.24,7.49,6.83,16.78,8.96,25.07,1.18,4.61.52,9.25.54,13.94.03,6.19-1.15,11.46-8.29,11.98-7.04.52-13.88-1.78-20.57-3.53-4.48-1.17-8.57-2.55-12.55-5.01-6.15-3.79-5.01-6.65-1.41-11.68,9.32-13.02,22.14-22.54,28.23-37.86.24-.61-.78-1.05-1.07-.45h0Z" fill="#3c1f0b" stroke-width="0"/><path d="m197.62,335.05c2.66,11.19,5.23,22.53,8.27,33.58,1.1,4.01,3.21,8.21,4.91,11.97,1.19,2.62,3.03,5.73,5.79,7.04,5.29,2.5,12.81.11,17.43-2.73,4.17-2.57,8.11-6.46,11.81-9.66,2.52-2.17,6.68-4.88,7.95-8,.93-2.28.59-3.77-.77-5.79-2.48-3.69-7.03-7.78-10.29-10.74-7.35-6.67-16.22-12.3-24.39-17.95-3.81-2.63-13.11-9.93-18.32-6.48-5.26,3.49-.89,12.07-.31,16.6.18,1.4,2.47,2.1,2.76.37.57-3.41-2.39-8.59-.7-11.58,2.98-5.27,14.24,4.36,17.4,6.56,5.76,4,11.29,8.29,16.99,12.37,3.62,2.59,6.12,5.47,9.12,8.66,3.19,3.38,5.41,5.36,2.08,9.52-3.42,4.27-9.01,8.31-13.4,11.49-3.37,2.43-7.37,4.86-11.76,4.45-6.82-.65-7.42-5.04-9.76-9.69-3.11-6.2-4.33-12.37-6.61-18.84-2.52-7.16-4.94-14.17-7.19-21.42-.2-.65-1.17-.38-1.02.28h0Z" fill="#3c1f0b" stroke-width="0"/><path d="m214.95,315.57c-4.57.48-6.58,5.63-4.49,9.48,1.85,3.4,6.11,6,9.1,8.35,4.36,3.43,8.41,6.66,13.29,9.37,7.95,4.43,18.5,11.97,27.87,12.76,7.04.6,12.05-8.29,13.13-14.18.13-.71-.07-1.58-.79-1.94-.11-.06-.23-.11-.34-.17-1.6-.79-3.51,1.28-2.02,2.61-.05-.05-4.98,7.68-5.02,7.72-4.02,3.5-7.71,1.37-11.66,0-5.11-1.77-9.79-4.67-14.54-7.22-5.92-3.17-10.83-6.32-16.18-10.34-2.07-1.56-18.78-12.05-8.18-15.05.75-.21.64-1.49-.19-1.4h0Z" fill="#3c1f0b" stroke-width="0"/><path d="m211.24,320.77c1.78-1.77,3.69-3.01,6.15-3.49,1.29-.25,2.64-.63,3.95-.68,1.07-.04,2.06.32,3.14.43,2.1.23,2.08-3.06,0-3.28-1.41-.15-2.47-.62-3.89-.27-1.65.41-3.31,1.09-4.89,1.72-2.28.91-4.25,2.67-5.3,4.91-.25.53.39,1.11.85.65h0Z" fill="#3c1f0b" stroke-width="0"/><path d="m127.66,282.19c1,.12,2,.14,2.97.41,1.18.33,1.69-1.57.5-1.83-1.15-.25-2.31-.24-3.48-.32-1.13-.08-1.08,1.61,0,1.73h0Z" fill="#3c1f0b" stroke-width="0"/><path d="m135.5,285.04c-.18.17-.06.05.16.03.25-.01.5.01.75.06.27.05.53.12.79.21.07.03.65.35.38.12.73.64,2.01.04,1.7-.99-.58-1.93-4.1-2.39-5.46-1.1-1.11,1.06.55,2.7,1.67,1.67h0Z" fill="#3c1f0b" stroke-width="0"/><path d="m143.47,289.34c.56-.08,1.4-.54,1.93-.4,1.53.4,2.02-1.74.64-2.3-1.07-.44-2.16.2-3.21.38-.64.11-1,.9-.84,1.48.19.69.84.94,1.48.84h0Z" fill="#3c1f0b" stroke-width="0"/><path d="m150.08,291.14c.47.04.94.07,1.41.11,1.38.11,1.38-2.07,0-2.16l-1.41-.09c-1.38-.08-1.36,2.03,0,2.13h0Z" fill="#3c1f0b" stroke-width="0"/><path d="m157.16,293.1c.41.17.82.35,1.23.52.51.22,1.12-.23,1.25-.71.17-.58-.2-1.05-.71-1.25l-1.24-.5c-.51-.2-1.1.22-1.24.7-.17.58.2,1.03.7,1.24h0Z" fill="#3c1f0b" stroke-width="0"/><path d="m162.52,295.31c1.71.56,3.51.9,5.28,1.25,1.31.25,1.87-1.75.55-2.01-1.77-.35-3.52-.85-5.29-1.18-1.27-.24-1.78,1.53-.54,1.94h0Z" fill="#3c1f0b" stroke-width="0"/><path d="m124.63,287.45c.56-.06,1,0,1.53.2,1.14.45,1.97-1.51.84-1.99-.77-.33-1.52-.51-2.37-.44-1.43.12-1.41,2.38,0,2.23h0Z" fill="#3c1f0b" stroke-width="0"/><path d="m131.71,291.07c.63-.01,1.22-.11,1.81-.32,1.06-.38.58-2.1-.47-1.69-.44.17-.87.28-1.34.31-1.09.06-1.11,1.74,0,1.71h0Z" fill="#3c1f0b" stroke-width="0"/><path d="m136.84,293.26c.92.27,1.95.29,2.79.79,1.1.65,2.12-1.14.99-1.7-1.07-.53-2.18-.52-3.32-.76-1.09-.23-1.54,1.36-.46,1.67h0Z" fill="#3c1f0b" stroke-width="0"/><path d="m144.97,295.79c.75.15,1.28.04,1.88-.42.76-.59-.09-1.62-.85-1.47-.17.08-.34.06-.49-.05-1.2-.48-1.83,1.68-.54,1.94h0Z" fill="#3c1f0b" stroke-width="0"/><path d="m153.79,297.59c.81-.28,1.58.02,2.36.28,1.1.37,1.59-1.39.48-1.74-1.2-.38-2.28-.56-3.46-.02-.83.38-.24,1.78.62,1.48h0Z" fill="#3c1f0b" stroke-width="0"/><path d="m157.61,297.4c1.23.64,2.38,1.47,3.71,1.86.71.21,1.17-.84.51-1.2-1.22-.66-2.62-.89-3.95-1.3-.38-.12-.63.46-.27.64h0Z" fill="#3c1f0b" stroke-width="0"/><path d="m165.21,300.87c1.77.15,3.49.59,5.25.84,1.12.16,1.35-1.41.21-1.54-1.82-.21-3.62-.62-5.45-.73-.92-.05-.91,1.35,0,1.43h0Z" fill="#3c1f0b" stroke-width="0"/><path d="m125.25,294.36c.29-.13.88.34,1.1.48.38.23.73.51,1.1.75.96.62,1.76-1.13.61-1.46-.54-.15-1.08-.42-1.64-.46-.65-.05-.76.25-1.25.56-.08.05-.01.17.08.13h0Z" fill="#3c1f0b" stroke-width="0"/><path d="m137.39,299.3c.43-.15.82-.23,1.28-.24,1.5-.02,1.49-2.41,0-2.32-.65.04-1.26.15-1.87.39-1.31.52-.79,2.65.6,2.17h0Z" fill="#3c1f0b" stroke-width="0"/><path d="m147.24,301.94c.65.18,1.36.08,1.95.44,1.15.71,2.25-1.22,1.05-1.8-.43-.21-.84-.36-1.32-.4-.39-.03-.8.03-1.19-.03-1.15-.19-1.66,1.46-.49,1.78h0Z" fill="#3c1f0b" stroke-width="0"/><path d="m153.91,304.94c.34.16.62.25,1,.26.93.02,1.45-1.22.77-1.86-.27-.26-.53-.39-.87-.52-1.22-.44-2.09,1.57-.89,2.12h0Z" fill="#3c1f0b" stroke-width="0"/><path d="m161.84,307.12c.66-.04,1.33-.09,1.99-.13,1.45-.1,1.46-2.39,0-2.27-.66.05-1.32.1-1.99.16-1.43.11-1.45,2.35,0,2.25h0Z" fill="#3c1f0b" stroke-width="0"/><path d="m123.24,301.74c1.41.5,3,.44,4.47.52,1.48.08,1.5-2.33,0-2.32-1.32,0-2.67.3-3.96-.06-1.21-.33-1.67,1.45-.51,1.85h0Z" fill="#3c1f0b" stroke-width="0"/><path d="m134.32,304.66c.17-.18.67.05.88.14,1.34.6,2.18-1.38.79-1.86-1.08-.38-2.32-.36-2.99.7-.5.81.66,1.71,1.32,1.02h0Z" fill="#3c1f0b" stroke-width="0"/><path d="m140.14,306.36c.98.25,1.84.12,2.75-.31,1.03-.49.27-1.97-.74-1.76-.44.09-1.01.16-1.46.08-1.29-.25-1.85,1.65-.55,1.99h0Z" fill="#3c1f0b" stroke-width="0"/><path d="m147.99,308.78c.08.04.17.08.25.12.58.27,1.27.16,1.62-.42.3-.51.16-1.35-.42-1.62-.08-.04-.17-.08-.25-.12-1.56-.72-2.55,1.59-.92,2.18.09.03.17.06.26.09,1.43.52,2.05-1.77.63-2.28-.09-.03-.17-.06-.26-.09-1.24-.45-2.11,1.58-.9,2.14h0Z" fill="#3c1f0b" stroke-width="0"/><path d="m154.28,310.14c.44.02.84.06,1.26-.1.86-.31,1.06-1.73,0-1.94-.54-.11-.99-.01-1.53.08-1.14.21-.81,1.92.26,1.96h0Z" fill="#3c1f0b" stroke-width="0"/><path d="m125.53,309.32c.19-.08.39-.15.58-.23,1.45-.57.62-2.63-.84-1.99-.19.08-.38.17-.58.25-1.11.48-.31,2.42.83,1.97h0Z" fill="#3c1f0b" stroke-width="0"/><path d="m133.66,310.88c.08.04.16.08.25.12,1.17.57,2.2-1.18,1.02-1.75-.08-.04-.16-.08-.25-.12-1.34-.65-2.21,1.4-.79,1.88.09.03.17.06.26.09,1.24.42,1.77-1.54.54-1.95-.09-.03-.17-.06-.26-.09-1.06-.36-1.79,1.32-.77,1.82h0Z" fill="#3c1f0b" stroke-width="0"/><path d="m130.16,328.25c1.07.32,2-.2,2.96-.62,1.22-.54.17-2.42-1.06-1.82-.38.18-.92.61-1.36.5-1.26-.32-1.78,1.57-.54,1.94h0Z" fill="#3c1f0b" stroke-width="0"/><path d="m143.37,325.01l.37.04c.33.04.78-.22.92-.53.14-.32.38-.27.73-.36,1.26-.33.71-2.14-.53-1.92-.88.15-1.58.37-2.03,1.21l1.2-.49c-.12-.02-.24-.05-.36-.07-1.52-.3-1.85,1.93-.29,2.12h0Z" fill="#3c1f0b" stroke-width="0"/><path d="m150.04,324c1.09-.49,2.38-.25,3.51-.66,1.57-.58.67-2.82-.9-2.14-.57.24-1.22.27-1.83.37-.66.1-1.26.29-1.85.59-1.24.64-.15,2.39,1.08,1.84h0Z" fill="#3c1f0b" stroke-width="0"/><path d="m158.76,323.55c.69-.27,1.35-.54,1.99-.89,1.09-.6.35-2.37-.85-2.01-.71.21-1.36.49-2.04.79-1.19.52-.33,2.6.89,2.12h0Z" fill="#3c1f0b" stroke-width="0"/><path d="m167.39,322.05c.57-.18,1.16-.09,1.75-.07,1.2.04,1.21-1.89,0-1.87-.75,0-1.5-.04-2.22.22-1.06.38-.64,2.06.47,1.72h0Z" fill="#3c1f0b" stroke-width="0"/><path d="m173.83,321.68c.12.03.24.06.36.09.41.11,1.02-.06,1.2-.49.17-.39.24-.66.15-1.08-.07-.34-.49-.7-.86-.65-.42.05-.66.15-.97.44.25-.1.5-.21.75-.31-.12,0-.24-.02-.37-.02-1.17-.07-1.39,1.73-.27,2.02h0Z" fill="#3c1f0b" stroke-width="0"/><path d="m137.6,331.77c.95-.3,1.69-.84,2.45-1.47.52-.42.44-1.3,0-1.74-.51-.51-1.22-.42-1.74,0-.42.34-.85.65-1.38.81-1.53.47-.87,2.88.66,2.39h0Z" fill="#3c1f0b" stroke-width="0"/><path d="m145.42,329.74c.09-.16.55-.11.89-.12,1.58-.03,1.34-2.41-.3-2.19-1.11.15-1.97.41-2.41,1.54-.41,1.05,1.3,1.76,1.82.77h0Z" fill="#3c1f0b" stroke-width="0"/><path d="m153.4,329.53c.78-.29,1.6-.57,2.43-.68.67-.08,1.24-.51,1.24-1.24,0-.61-.57-1.33-1.24-1.24-1.21.15-2.22.53-3.32,1.04-1.18.55-.34,2.57.89,2.12h0Z" fill="#3c1f0b" stroke-width="0"/><path d="m160.71,328.25c.89-.13,1.6-.34,2.34-.85.75-.51.57-1.98-.51-1.88-.85.08-1.64.25-2.48.4-.64.11-1,.9-.84,1.48.19.69.84.94,1.48.84h0Z" fill="#3c1f0b" stroke-width="0"/><path d="m167.2,327.35c1.24-.43,2.59-.37,3.88-.54,1.59-.21,1.3-2.49-.3-2.19-1.37.26-2.81.29-4.11.83-1.14.47-.7,2.32.52,1.9h0Z" fill="#3c1f0b" stroke-width="0"/><path d="m127.87,336.22l.26.1c1.47.55,2.2-2.03.65-2.36-.09-.02-.18-.04-.27-.06-1.3-.27-2.04,1.4-.9,2.14.08.05.15.1.23.15,1.35.87,2.65-1.48,1.23-2.11-.08-.04-.17-.07-.25-.11-1.62-.72-2.62,1.62-.95,2.25h0Z" fill="#3c1f0b" stroke-width="0"/><path d="m136.43,337.94c.49-.18.95-.39,1.42-.62,1.11-.55.33-2.42-.85-2.01-.49.17-.97.35-1.44.58-1.14.54-.33,2.49.87,2.06h0Z" fill="#3c1f0b" stroke-width="0"/><path d="m144.62,336.37c.94.13,1.65-.21,2.25-.94,1.03-1.24-1.04-2.51-1.68-.98-.06.15-.17.38-.36.38-.86-.01-1.1,1.42-.21,1.54h0Z" fill="#3c1f0b" stroke-width="0"/><path d="m152.82,335.48c.79-.23,1.63-.51,2.46-.61.65-.08,1.22-.5,1.22-1.22,0-.59-.56-1.3-1.22-1.22-1.23.16-2.2.5-3.28,1.1-1.05.59-.34,2.28.82,1.95h0Z" fill="#3c1f0b" stroke-width="0"/><path d="m160.63,332.94c.59-.23,1.24-.4,1.86-.46,1.49-.15,1.49-2.16,0-2.32-.98-.11-1.88.27-2.71.77-1.03.61-.35,2.48.85,2.01h0Z" fill="#3c1f0b" stroke-width="0"/><path d="m168.35,331.82c.41-.17,1.08-.63,1.53-.5,1.5.45,2.1-1.82.64-2.33-1.14-.39-2.08.24-3.06.73-1.14.57-.33,2.59.88,2.1h0Z" fill="#3c1f0b" stroke-width="0"/><path d="m131.47,342.57c.8.26,1.53.06,2.22-.37.94-.58.11-1.99-.86-1.48-.27.14-.61.32-.93.26-1.03-.19-1.45,1.26-.44,1.58h0Z" fill="#3c1f0b" stroke-width="0"/><path d="m139.29,342.28c.47-.08,1.01-.07,1.46.06,1.37.39,1.94-1.87.58-2.1-.99-.16-1.83-.03-2.72.44-.94.49-.25,1.76.68,1.61h0Z" fill="#3c1f0b" stroke-width="0"/><path d="m146.52,342.44c.95-.15,1.89-.21,2.82-.52,1.72-.57.71-3.11-.97-2.31-.86.41-1.76.56-2.59,1.05-1,.59-.29,1.95.75,1.78h0Z" fill="#3c1f0b" stroke-width="0"/><path d="m154.98,340.42s-.16,0,.12.02c.23.01.5-.02.73-.08.54-.14.97-.5,1.22-.99.75-1.46-1.49-2.45-2.1-.88.12-.3.23-.23-.14-.16-.23.04-.46.11-.67.21-.49.25-.76.63-.94,1.14-.36,1.05,1.24,1.7,1.78.75h0Z" fill="#3c1f0b" stroke-width="0"/><path d="m160.35,337.75c.36.13.63.3,1.01.35.33.05.66.02,1,.06.82.11.83-1.38-.17-1.24-.3.04-.58.11-.85.25-.32.16-.58.44-.97.43-.09,0-.1.12-.02.15h0Z" fill="#3c1f0b" stroke-width="0"/><path d="m168.31,336.62c.19-.08.39-.15.58-.23,1.55-.61.66-2.8-.89-2.12-.19.08-.38.17-.58.25-1.18.52-.33,2.58.88,2.1h0Z" fill="#3c1f0b" stroke-width="0"/><path d="m135.89,349.73c.58-.19,1.38-.55,2-.43,1.33.24,1.81-1.54.55-2.01-1.07-.4-2.12-.03-3.14.34-1.29.48-.77,2.54.58,2.1h0Z" fill="#3c1f0b" stroke-width="0"/><path d="m143.08,349.79c.71-.21,1.45-.35,2.19-.46,1.31-.18,1.01-2.43-.31-2.32-1.12.09-2.03.25-2.92.98-.85.7.07,2.1,1.05,1.8h0Z" fill="#3c1f0b" stroke-width="0"/><path d="m153.18,348.63c.35-.14.67-.31.99-.52.06-.04.48-.32.14-.17.16-.07.43-.03.61-.06.63-.1.97-1.01.62-1.51-.44-.62-1.1-.88-1.85-.65-.6.18-.85.64-1.32.99-.43.31-.65.8-.43,1.32.19.44.75.8,1.24.61h0Z" fill="#3c1f0b" stroke-width="0"/><path d="m158.5,345.73c1.04-.15,2.04-.25,2.98-.76.99-.54.12-1.99-.87-1.5-.79.4-1.65.6-2.5.84-.94.26-.52,1.55.39,1.42h0Z" fill="#3c1f0b" stroke-width="0"/><path d="m137.61,355.48c.53-.02,1.05-.07,1.58-.1.5-.03,1.04-.17,1.54-.09.52.09,1.01-.09,1.23-.6.18-.44.05-1.09-.43-1.3-.65-.3-1.36-.51-2.09-.48-.71.02-1.43.23-2.14.33-1.28.18-.97,2.31.31,2.25h0Z" fill="#3c1f0b" stroke-width="0"/><path d="m147.35,355.98c.76-.27,1.33-.38,1.84-1.05.6-.78-.25-1.63-.99-1.73-.65-.08-1.19.33-1.76.61-1.19.58-.36,2.6.91,2.16h0Z" fill="#3c1f0b" stroke-width="0"/><path d="m144.26,358.66c-.02.09-.04.17-.05.26-.12.61.17,1.24.8,1.41.28.08.53.15.82.19,1.83.25,2.2-2.37.34-2.51-.39-.03-.77.04-1.16.1.49.37.97.74,1.46,1.11,0-.09,0-.18,0-.27.01-1.24-1.95-1.57-2.21-.3h0Z" fill="#3c1f0b" stroke-width="0"/><path d="m154.52,378.33c.55-.84,1.57-1.4,2.31-2.07,1.21-1.09-.61-2.92-1.79-1.79-.89.86-1.94,1.55-2.54,2.68-.71,1.34,1.2,2.44,2.02,1.18h0Z" fill="#3c1f0b" stroke-width="0"/><path d="m161.74,372.84c.62-.76,1.29-1.31,1.65-2.25.5-1.28-1.76-1.95-2.08-.57-.15.66-.66,1.15-1.01,1.72-.53.86.76,1.92,1.43,1.11h0Z" fill="#3c1f0b" stroke-width="0"/><path d="m166.25,367.8c.96-.43,1.45-1.34,2.3-1.89,1.27-.83.17-2.69-1.18-2.02-.49.24-.89.58-1.23,1.01-.3.38-.57.77-.98,1.02-1.23.74-.15,2.44,1.1,1.88h0Z" fill="#3c1f0b" stroke-width="0"/><path d="m172.97,360.53c1.76.11,2.87-2,3.39-3.36.35-.91-1.04-1.41-1.52-.64-.28.46-.62.88-.92,1.33-.18.27-.57,1.07-.96,1.08-1.03.05-1.02,1.53,0,1.59h0Z" fill="#3c1f0b" stroke-width="0"/><path d="m179.15,353.78c.36-.67.97-1.17,1.33-1.85.81-1.51-1.59-2.84-2.27-1.32-.31.7-.88,1.23-1.19,1.93-.63,1.41,1.36,2.66,2.12,1.24h0Z" fill="#3c1f0b" stroke-width="0"/><path d="m183.04,347.21c-.19-.42.57-1.56.73-1.96.39-.96-1.21-1.62-1.67-.7-.57,1.13-1.3,2.29-.58,3.55.58,1,1.98.12,1.52-.89h0Z" fill="#3c1f0b" stroke-width="0"/><path d="m186.24,341.92c.17-.41.34-.82.51-1.24.22-.52-.23-1.14-.73-1.28-.6-.17-1.07.21-1.28.73-.17.41-.34.82-.51,1.24-.22.52.23,1.14.73,1.28.6.17,1.07-.21,1.28-.73h0Z" fill="#3c1f0b" stroke-width="0"/><path d="m161.53,382.69c.7-.51,1.42-.98,2.12-1.49,1.29-.94-.09-2.77-1.35-1.75-.67.54-1.36,1.06-2.03,1.6-.91.74.3,2.33,1.26,1.64h0Z" fill="#3c1f0b" stroke-width="0"/><path d="m170.8,373.95c.31-.63.62-1.25.85-1.92.47-1.31-1.67-2.24-2.27-.96-.3.64-.52,1.29-.75,1.96-.42,1.26,1.57,2.12,2.16.91h0Z" fill="#3c1f0b" stroke-width="0"/><path d="m172.12,369.54c.54-.2.96-.51,1.37-.91.16-.16.31-.35.48-.5.18-.16-.07.03.1-.1.08-.06.26-.06.12-.03,1.18-.21,1.05-1.97,0-2.26-.74-.2-1.37.09-1.92.58-.37.33-.62.87-1.07,1.09-1.19.57-.35,2.59.9,2.14h0Z" fill="#3c1f0b" stroke-width="0"/><path d="m179.51,362.29c.4-.44.97-.63,1.27-1.17.45-.81.05-1.55-.62-2.05-1.17-.86-2.46,1.34-1.14,1.94.26.16.26.05.01-.35-.04-.46-.11-.56-.21-.3-.04.02-.12.21-.16.25-.16.23-.36.42-.49.66-.44.81.66,1.76,1.32,1.02h0Z" fill="#3c1f0b" stroke-width="0"/><path d="m183.99,355.61c.02-.67.18-1.3.38-1.93.38-1.18-1.52-2.02-2.03-.86-.4.91-.59,1.79-.6,2.79-.01,1.45,2.2,1.44,2.25,0h0Z" fill="#3c1f0b" stroke-width="0"/><path d="m189.06,346.23c-.04-.33-.09-.66-.13-.99-.14-1.02-1.68-1.11-1.66,0,0,.33,0,.66.01.99.02,1.17,1.93,1.11,1.78,0h0Z" fill="#3c1f0b" stroke-width="0"/><path d="m189.83,349.48c-.33.82-.48,1.68-.52,2.56-.06,1.64,2.54,1.65,2.55,0,0-.67.13-1.27.36-1.9.23-.63-.26-1.36-.87-1.53-.71-.19-1.28.24-1.53.87h0Z" fill="#3c1f0b" stroke-width="0"/><path d="m186.16,361.33c-1.06,1.2-1.55,2.83-2.54,4.1-1.31,1.67,1.03,3.51,2.32,1.79,1.06-1.41,2.01-3.31,2.1-5.11.05-.93-1.25-1.48-1.88-.78h0Z" fill="#3c1f0b" stroke-width="0"/><path d="m178.37,373.37c-.43.85-.93,1.69-1.54,2.43-1,1.22.76,2.61,1.73,1.33.7-.93,1.21-1.91,1.59-3.01.35-1.03-1.28-1.74-1.78-.75h0Z" fill="#3c1f0b" stroke-width="0"/><path d="m174.77,380.72c-.7.54-1.29,1.28-2.06,1.73-1.17.67-.4,2.61.93,2.2,1.28-.39,1.86-1.41,2.74-2.32,1.04-1.09-.48-2.48-1.61-1.61h0Z" fill="#3c1f0b" stroke-width="0"/><path d="m176.08,369.33c-1.33.48-1.69,1.78-2.14,2.98-.45,1.21,1.51,1.76,1.94.54.15-.41.38-1.49.72-1.62,1.17-.44.68-2.33-.52-1.9h0Z" fill="#3c1f0b" stroke-width="0"/><path d="m169.95,379.36c-.13.34-.37.61-.64.85-.31.27-.55.58-.83.87-.76.78.04,1.83.98,1.68,1.45-.22,2.32-1.45,2.66-2.81.36-1.44-1.64-1.91-2.17-.6h0Z" fill="#3c1f0b" stroke-width="0"/><path d="m183.94,375.12c-.38.81-.8,1.63-1.3,2.38-.79,1.19.97,2.49,1.95,1.5.73-.74,1.33-1.53,1.76-2.48.3-.69.2-1.5-.5-1.91-.61-.35-1.59-.18-1.91.5h0Z" fill="#3c1f0b" stroke-width="0"/><path d="m181.43,382.88c-.94.29-1.61.94-1.84,1.91-.37,1.61,2.03,2.29,2.48.69.07-.24.07-.24.3-.35,1.27-.59.37-2.65-.95-2.25h0Z" fill="#3c1f0b" stroke-width="0"/><path d="m191.48,363.32c-.42.93-.78,1.78-1.01,2.78-.25,1.11,1.23,1.76,1.84.78.54-.87.89-1.72,1.24-2.68.44-1.2-1.54-2.05-2.08-.88h0Z" fill="#3c1f0b" stroke-width="0"/><path d="m192.69,372.3c-1.03.3-1.62,1.13-1.9,2.13-.4,1.41,1.94,1.98,2.15.59.06-.42.11-.74.51-.93,1.03-.46.29-2.11-.76-1.8h0Z" fill="#3c1f0b" stroke-width="0"/><path d="m188.56,383.43c.11.42-.23,1.1-.3,1.55-.09.54.06,1.08.56,1.38.43.25,1.15.23,1.48-.19.82-1.03,1.4-2.11.88-3.45-.62-1.6-3.07-1.01-2.62.72h0Z" fill="#3c1f0b" stroke-width="0"/><path d="m194.19,381.74c.25-.24.23-.32-.04-.23-1.35.18-.74,2.57.57,2.06,1.13-.44,1.81-1.62.97-2.7-.68-.88-1.95-.16-1.5.87h0Z" fill="#3c1f0b" stroke-width="0"/><path d="m196.4,362.49c-.19.4-.38.8-.57,1.2-.61,1.28,1.32,2.11,1.8.76.15-.42.29-.84.44-1.25.34-.97-1.22-1.64-1.67-.7h0Z" fill="#3c1f0b" stroke-width="0"/><path d="m204.55,343.02c.25,1.05.29,2.05.85,3,.57.98,2.35.32,1.91-.8-.35-.89-.5-1.84-.86-2.72-.46-1.15-2.2-.74-1.9.52h0Z" fill="#3c1f0b" stroke-width="0"/><path d="m207.51,353.39c.35,1.1.62,2.24.85,3.37.3,1.48,2.64.86,2.28-.63-.3-1.24-.75-2.37-1.33-3.5-.51-.99-2.13-.3-1.8.76h0Z" fill="#3c1f0b" stroke-width="0"/><path d="m208.95,363.34c.03.1.01.2-.04.28-.55,1.71,2.21,2.48,2.69.74.2-.74.15-1.38-.31-2.01-.84-1.13-2.67-.5-2.33.98h0Z" fill="#3c1f0b" stroke-width="0"/><path d="m210.52,370.2c.2.5.38,1,.56,1.51.26.69,1.02.91,1.59.42.98-.85.54-2.24-.13-3.1-.73-.93-2.45.08-2.02,1.17h0Z" fill="#3c1f0b" stroke-width="0"/><path d="m213.75,376.32c.59,1.24,1.05,2.55,1.66,3.78.65,1.3,2.76.06,1.94-1.14-.78-1.13-1.38-2.36-2.07-3.54-.58-1.01-2.03-.12-1.54.9h0Z" fill="#3c1f0b" stroke-width="0"/><path d="m207.33,336.89c-.61,2.14.85,4.1,1.7,5.93.56,1.21,2.69.34,2.18-.92-.32-.78-.69-1.5-1.13-2.22-.38-.63-.96-1.48-.84-2.26.2-1.24-1.56-1.79-1.92-.53h0Z" fill="#3c1f0b" stroke-width="0"/><path d="m214.24,346.84c-1.08,1.34-.74,2.97,0,4.39.65,1.24,2.43.35,2.16-.91-.16-.74-.53-1.62-.25-2.36.4-1.05-1.21-2-1.92-1.12h0Z" fill="#3c1f0b" stroke-width="0"/><path d="m214.94,357.37c-.27-.26-.11-.28-.07,0,.02.15.08.29.12.44.08.31.12.62.18.93.1.51.19,1.03.31,1.54.37,1.67,2.87.95,2.55-.7-.27-1.4-.37-3.14-1.77-3.91-1.06-.59-2.23.83-1.32,1.71h0Z" fill="#3c1f0b" stroke-width="0"/><path d="m217.47,367.97c.03,1.19.4,2.36.87,3.44.62,1.42,3.06.41,2.53-1.06-.42-1.14-.46-2.28-1.24-3.27-.69-.88-2.19-.13-2.16.89h0Z" fill="#3c1f0b" stroke-width="0"/><path d="m219.86,376.62c.06.42.01.87.09,1.29.08.41.29.72.53,1.05.42.56,1.35.41,1.37-.37.03-.96-.22-1.67-.67-2.52-.42-.79-1.43-.19-1.33.56h0Z" fill="#3c1f0b" stroke-width="0"/><path d="m223.43,383.62c.05.13.11.25.16.38.2.48.54.8,1.08.82.1,0,.2,0,.29.03,1.98.46,1.96-2.83,0-2.35-.19.05-.39.08-.59.12.42.17.84.34,1.26.51-.09-.11-.17-.23-.26-.34-.32-.43-.8-.66-1.33-.44-.44.18-.82.77-.62,1.26h0Z" fill="#3c1f0b" stroke-width="0"/><path d="m215.18,341.24c.17.38.34.77.51,1.15.39.89,1.95.25,1.58-.67l-.46-1.17c-.47-1.19-2.15-.5-1.63.69h0Z" fill="#3c1f0b" stroke-width="0"/><path d="m220.19,348.42c.41.73,0,1.99-.08,2.77-.14,1.33,2.08,1.63,2.35.32.3-1.49.83-2.96-.14-4.33-.9-1.28-2.9-.17-2.12,1.24h0Z" fill="#3c1f0b" stroke-width="0"/><path d="m221.39,359.2c.51,1.45.28,3.15.42,4.67.12,1.34,1.9,1.3,2.06,0,.24-1.91.35-3.72-.42-5.54-.5-1.16-2.48-.33-2.06.87h0Z" fill="#3c1f0b" stroke-width="0"/><path d="m222.29,369.42c.01.33.03.66.04.99.06,1.54,2.53,1.49,2.37,0-.04-.33-.07-.66-.11-.99-.16-1.43-2.35-1.51-2.3,0h0Z" fill="#3c1f0b" stroke-width="0"/><path d="m225.4,378.09c-.16.56-.19,1.13-.24,1.71-.13,1.38,2.17,1.7,2.44.33.12-.61.03-1.13.04-1.74,0-1.29-1.87-1.53-2.23-.3h0Z" fill="#3c1f0b" stroke-width="0"/><path d="m229.43,383.72c.96,0,.97-1.5,0-1.5s-.97,1.5,0,1.5h0Z" fill="#3c1f0b" stroke-width="0"/><path d="m227.51,356.78c-.54,1.49-.61,2.94-.47,4.5.13,1.52,2.53,1.53,2.39,0-.12-1.31-.2-2.65.11-3.94.32-1.34-1.57-1.82-2.03-.56h0Z" fill="#3c1f0b" stroke-width="0"/><path d="m227.23,368.37c.18.61.45,1.3.28,1.93-.44,1.57,2,2.24,2.44.67.31-1.12-.08-2.18-.5-3.21-.54-1.32-2.64-.85-2.21.61h0Z" fill="#3c1f0b" stroke-width="0"/><path d="m229.71,376.56c.08.19.15.39.23.58.57,1.44,2.6.61,1.97-.83-.08-.19-.17-.38-.25-.58-.48-1.09-2.39-.3-1.95.82h0Z" fill="#3c1f0b" stroke-width="0"/><path d="m232.85,358.27c.03.8,0,1.6-.08,2.4-.14,1.28,1.96,1.32,2.04,0,.05-.8.04-1.6-.03-2.4-.11-1.21-1.97-1.25-1.92,0h0Z" fill="#3c1f0b" stroke-width="0"/><path d="m234.19,367.86c.04.15.07.29.11.44.37-.49.74-.98,1.12-1.47-.1,0-.19,0-.29,0-1.22.03-1.58,1.94-.3,2.21.09.02.19.04.28.06.84.18,1.68-.53,1.42-1.42-.04-.15-.08-.29-.13-.44-.41-1.42-2.57-.83-2.21.61h0Z" fill="#3c1f0b" stroke-width="0"/><path d="m235.61,373.75c.04.12.08.25.12.37.46,1.46,2.77.84,2.3-.64-.04-.12-.08-.25-.12-.37-.53-1.69-3.09-.65-2.25.95.06.11.12.23.18.34.72,1.36,2.78.15,2.06-1.21l-.18-.34c-.61-1.16-2.51-.36-2.12.89h0Z" fill="#3c1f0b" stroke-width="0"/><path d="m226.84,349.41c.16.39.32.78.47,1.17.63,1.54,2.78.66,2.12-.89-.17-.39-.33-.77-.5-1.16-.51-1.18-2.59-.32-2.1.88h0Z" fill="#3c1f0b" stroke-width="0"/><path d="m239.34,358.88c.15.43.24.82.25,1.27.03,1.49,2.4,1.49,2.32,0-.03-.65-.14-1.27-.38-1.88-.52-1.34-2.69-.79-2.19.6h0Z" fill="#3c1f0b" stroke-width="0"/><path d="m240.49,367.43c.68.5.88,1.31,1.7,1.71,1.04.51,2.32-.85,1.32-1.71-.68-.59-1.17-1.35-1.97-1.8-1.2-.68-2.1,1.02-1.05,1.8h0Z" fill="#3c1f0b" stroke-width="0"/><path d="m216.88,324.74c-.12-.02-.51-.32.09.11.08.06.17.11.26.17.23.17.44.37.65.56.24.21.47.43.69.65.12.12.49.46.48.46.78,1.05,2.42.45,2.14-.9-.17-.86-.75-1.57-1.38-2.15-.59-.54-1.37-1.16-2.19-1.28-.55-.08-1.09.05-1.39.57-.27.46-.21,1.13.19,1.5.13.12.28.27.47.3h0Z" fill="#3c1f0b" stroke-width="0"/><path d="m226.78,331.72c.46.25.64.53,1.09.89.46.37.97.65,1.48.95.54.31,1.25.12,1.57-.41.35-.59.08-1.19-.41-1.57-.46-.35-.87-.72-1.4-.95-.54-.24-1.11-.31-1.67-.49-.94-.3-1.53,1.11-.67,1.58h0Z" fill="#3c1f0b" stroke-width="0"/><path d="m235.34,339.36c.41,0,.83-.07,1.2.14,1.38.76,2.63-1.41,1.23-2.1-.8-.4-1.55-.45-2.43-.4-1.51.09-1.53,2.4,0,2.37h0Z" fill="#3c1f0b" stroke-width="0"/><path d="m242.88,342.88c.62.32,1.22.63,1.87.87,1.19.46,2.05-1.56.88-2.08-.64-.28-1.28-.49-1.94-.7-1.11-.36-1.86,1.37-.8,1.91h0Z" fill="#3c1f0b" stroke-width="0"/><path d="m249.86,346.24c.56.6,1.25.75,2.03.85.49.06.97-.4,1.1-.83.15-.52-.12-.97-.52-1.28-.54-.42-1.12-.68-1.81-.65-.98.04-1.47,1.2-.8,1.92h0Z" fill="#3c1f0b" stroke-width="0"/><path d="m256.27,348.57c.39-.14.67.16,1.06.27.59.16,1.1.04,1.65-.2,1.31-.56.18-2.56-1.14-1.94-.12.06-.64-.1-.86-.13-.53-.08-.97.01-1.46.25-.97.47-.29,2.12.74,1.76h0Z" fill="#3c1f0b" stroke-width="0"/><path d="m260.88,349.86c.84.69,1.79.87,2.65.07.6-.56.4-1.53-.25-1.94-.13-.08-.25-.16-.38-.24-1.14-.73-2.51,1-1.46,1.89.11.1.23.19.34.29v-1.75c.17-.05.35-.11.52-.16-1.11-.68-2.47.98-1.42,1.84h0Z" fill="#3c1f0b" stroke-width="0"/><path d="m222.57,321.08c.53.87,1.37,1.45,2.34,1.74,1.15.35,1.65-1.56.49-1.78-.54-.1-1.1-.32-1.44-.78-.61-.8-1.96-.1-1.4.82h0Z" fill="#3c1f0b" stroke-width="0"/><path d="m231.07,327.17c.39.21.78.41,1.17.62,1.22.64,2.05-1.33.73-1.73-.42-.13-.85-.26-1.27-.38-.88-.27-1.46,1.06-.63,1.5h0Z" fill="#3c1f0b" stroke-width="0"/><path d="m237.72,332.73c.48.45.93.5,1.55.59.7.1,1.3.44,1.93.73,1.43.68,2.33-1.4.85-2.01-.62-.26-1.24-.56-1.9-.68-.57-.11-1.1.13-1.64.02-.74-.15-1.42.76-.79,1.35h0Z" fill="#3c1f0b" stroke-width="0"/><path d="m244.7,335.64c.27.22.94.43,1.05.78.42,1.32,2.54.7,2.06-.57-.43-1.13-1.33-1.59-2.51-1.65-.69-.03-1.16.97-.6,1.44h0Z" fill="#3c1f0b" stroke-width="0"/><path d="m251.18,339.73c.62.25,1.2.62,1.8.9,1.19.56,1.96-1.23.7-1.67-.7-.25-1.42-.42-2.1-.7-.91-.37-1.3,1.1-.4,1.47h0Z" fill="#3c1f0b" stroke-width="0"/><path d="m258.07,344.1c.74.23,1.52.17,2.25.36.7.18,1.33-.75.74-1.27-.37-.32-.78-.61-1.27-.69-.49-.08-1,.01-1.5-.05-.98-.12-1.09,1.39-.22,1.66h0Z" fill="#3c1f0b" stroke-width="0"/><path d="m263.75,344.74c.47,0,.94,0,1.41,0,.6,0,.78-.99.15-1.08-.46-.07-.92-.13-1.38-.2-.96-.14-1.11,1.29-.17,1.29h0Z" fill="#3c1f0b" stroke-width="0"/><path d="m237.46,325.64c.53.23.89.51,1.25.97.8,1.03,2.33-.44,1.46-1.46-.54-.62-1.18-1.02-1.95-1.31-1.03-.39-1.78,1.35-.76,1.8h0Z" fill="#3c1f0b" stroke-width="0"/></g></g></svg>