<?xml version="1.0" encoding="utf-8"?>
<!-- Generator: Adobe Illustrator 25.2.0, SVG Export Plug-In . SVG Version: 6.00 Build 0)  -->
<svg version="1.1" id="Layer_1" xmlns="http://www.w3.org/2000/svg" xmlns:xlink="http://www.w3.org/1999/xlink" x="0px" y="0px"
	 viewBox="0 0 500 500" style="enable-background:new 0 0 500 500;" xml:space="preserve">
<style type="text/css">
	.st0{fill:#6F42F5;}
	.st1{fill:#5B3BE2;}
	.st2{fill:#3A3458;}
	.st3{fill:#FFFFFF;}
	.st4{fill:#E6E6E6;}
	.st5{fill:#3F3E3C;}
	.st6{fill:#9882F4;}
</style>
<g>
	<g>
		<g>
			<path class="st0" d="M112.8,236.5c-14.4,0-27.9-2-40.1-5.9c-14.4-4.7-27.1-12.1-37.7-22.1c-0.6-0.6-0.9-1.4-0.9-2.2
				c0.1-2,3.5-49.6,5.4-59.3c1.4-7.1,3.9-9.2,10.5-9.2c1.3,0,2.7,0.1,4.4,0.1c2.3,0.1,5.2,0.2,8.6,0.2c0.6,0,1.1,0,1.7,0
				c7.8-0.1,26-3.6,47.6-9.2c20.3-5.2,37.9-10.8,43.7-13.8c3.5-1.8,7.3-2.7,11.3-2.7c5.1,0,10.2,1.5,14.6,4.2
				c4.3,2.7,7.3,6.3,8.3,9.9c0.4,1.4,1.4,5.5-0.1,49.7c-0.7,21.7-1.8,42.7-1.8,42.9c-0.1,1.1-0.7,2-1.7,2.4
				c-0.4,0.2-8.8,3.8-22.2,7.5C152.4,232.4,133.4,236.5,112.8,236.5z"/>
		</g>
		<path d="M193.1,125.8c-2.4-8.9-13.8-16.2-25.5-16.2v5.6v-5.6c-4.5,0-8.7,1-12.6,3c-5.6,2.9-23.3,8.5-43.2,13.6
			c-21.4,5.5-39.4,9-47,9.1c-0.6,0-1.1,0-1.7,0c-3.4,0-6.2-0.1-8.5-0.2c-1.7-0.1-3.2-0.1-4.5-0.1c-3.1,0-6.3,0.3-9,2.6
			c-2.6,2.3-3.6,5.6-4.2,8.8c-2,9.8-5.3,57.6-5.4,59.7c-0.1,1.7,0.5,3.3,1.7,4.4c11,10.3,24,18,38.8,22.7c12.4,4,26.2,6.1,40.9,6.1
			c9.2,0,18.9-0.8,28.8-2.4c7.9-1.3,15.9-3,23.8-5.2c13.6-3.8,22.2-7.5,22.5-7.7c1.9-0.8,3.2-2.7,3.3-4.8c0-0.2,1-21.2,1.8-42.9
			c0.4-12.8,0.7-23.3,0.8-31.3C194,131.1,193.5,127.5,193.1,125.8z M185.8,218.9c0,0-33.8,14.8-73,14.8c-25.6,0-53.6-6.3-75.9-27.3
			c0,0,3.4-49.3,5.3-58.9c1.2-5.9,2.7-7,7.8-7c2.9,0,7.1,0.4,13.1,0.4c0.6,0,1.2,0,1.8,0c17.9-0.2,80-16.7,92.6-23.3
			c3.3-1.7,6.7-2.4,10-2.4c9.7,0,18.6,6,20.1,12.1C189.8,135.3,185.8,218.9,185.8,218.9z"/>
	</g>
	<g>
		<g>
			<path class="st1" d="M48.2,206.4c0,0,3.4-49.3,5.3-58.9c0.9-4.4,1.9-6.1,4.5-6.7c-11.9-0.4-14.2-1.5-15.8,6.7
				c-1.9,9.6-5.3,58.9-5.3,58.9c24,22.5,54.5,28.1,81.6,27.2C94.4,232.7,68.9,225.9,48.2,206.4z"/>
		</g>
	</g>
	<g>
		<g>
			<path class="st0" d="M257.4,344.2c-0.6,0-57.6-1.9-115.2-5.3c-33.9-2-61.3-4.1-81.5-6.2c-34.5-3.6-41.4-6.6-43.5-9.1
				c-3-3.4-4.2-10.3-3.7-21.7c0.3-8.4,1.6-19.2,3.8-32c3.4-20.3,8-39.5,8.7-42.3c0-2.5,0.1-13.6,3.7-18.9c0.5-0.8,1.4-1.2,2.3-1.2
				c0.4,0,0.8,0.1,1.1,0.2c0.3,0.1,32.2,14.4,54.1,17.5c2,0.3,3.9,0.6,5.9,0.9c7.9,1.2,16.1,2.5,25.4,2.5c19.2,0,38.5-5.5,60.7-17.4
				c16.9-9,30.8-13.6,41.3-13.6s14.6,4.5,15.9,6.4c3.4,2.4,24.4,17,48.1,31.7c33.8,21.1,57.6,32.9,68.7,34.3
				c27.9,3.4,107.8,15.9,108.6,16c1.1,0.2,2,1,2.3,2.1c0.1,0.3,1.5,6.9-4.6,14.8c-5.7,7.4-16.1,13.4-30.9,17.9
				c-19.3,5.9-46.1,9.1-79.5,9.6L258,344.1C257.7,344.2,257.6,344.2,257.4,344.2L257.4,344.2z"/>
		</g>
		<path d="M466.7,287.6c-0.5-2.2-2.3-3.9-4.5-4.2c-0.8-0.1-80.7-12.7-108.7-16c-4-0.5-12.1-2.8-28.5-11.3c-10.9-5.6-24-13.2-39-22.6
			c-22.9-14.3-43.3-28.4-47.6-31.4c-0.7-1-1.9-2.2-3.7-3.4c-3.7-2.5-8.4-3.7-14.2-3.7c-11,0-25.3,4.7-42.6,13.9
			c-21.8,11.6-40.7,17-59.4,17c-9.1,0-17.2-1.2-25-2.4c-2-0.3-4-0.6-5.9-0.9c-21.6-3.1-53.1-17.1-53.4-17.3
			c-0.7-0.3-1.5-0.5-2.3-0.5c-1.8,0-3.6,0.9-4.6,2.5c-2,2.9-3.2,7.3-3.8,13.3c-0.3,3-0.3,5.6-0.3,6.8c-0.9,3.7-5.3,22.4-8.6,42.1
			c-2.2,13-3.5,23.9-3.8,32.4c-0.5,12.3,0.9,19.6,4.4,23.7c1.9,2.2,5.4,4,16.4,6.1c7,1.3,16.7,2.6,28.9,3.9
			c20.3,2.1,47.8,4.2,81.7,6.2c57.6,3.4,114.7,5.3,115.3,5.3c0.1,0,0.1,0,0.2,0c0.3,0,0.6,0,0.8-0.1l90.9-13.7
			c33.6-0.5,60.6-3.8,80.1-9.7c15.3-4.7,26.2-11,32.3-18.8C468.4,296,466.9,288.4,466.7,287.6z M348.7,327.7l-91.3,13.7
			c0,0-227.6-7.6-238.3-19.6c-10.6-12,9.5-93.8,9.5-93.8s-0.2-12.6,3.2-17.7c0,0,32.2,14.5,54.9,17.7c9.6,1.4,19.7,3.4,31.7,3.4
			c16.2,0,35.8-3.7,62-17.7c19.3-10.3,31.9-13.2,40-13.2c11.1,0,13.8,5.6,13.8,5.6s90.3,63.4,118.5,66.8s108.5,16,108.5,16
			S470,326,348.7,327.7z"/>
	</g>
	<g>
		<path d="M159.4,338.5c-0.3,0-0.5-0.2-0.6-0.4l-0.8-2.4c-0.1-0.3,0.1-0.7,0.4-0.8c0.3-0.1,0.7,0.1,0.8,0.4l0.8,2.4
			c0.1,0.3-0.1,0.7-0.4,0.8C159.5,338.5,159.5,338.5,159.4,338.5z M157.8,333.7c-0.3,0-0.5-0.2-0.6-0.4l-0.8-2.4
			c-0.1-0.3,0.1-0.7,0.4-0.8c0.3-0.1,0.7,0.1,0.8,0.4l0.8,2.4c0.1,0.3-0.1,0.7-0.4,0.8C157.9,333.7,157.8,333.7,157.8,333.7z
			 M156.1,328.9c-0.3,0-0.5-0.2-0.6-0.4l-0.8-2.4c-0.1-0.3,0.1-0.7,0.4-0.8c0.3-0.1,0.7,0.1,0.8,0.4l0.8,2.4
			c0.1,0.3-0.1,0.7-0.4,0.8C156.3,328.9,156.2,328.9,156.1,328.9z M154.5,324c-0.3,0-0.5-0.2-0.6-0.4l-0.8-2.4
			c-0.1-0.3,0.1-0.7,0.4-0.8c0.3-0.1,0.7,0.1,0.8,0.4l0.8,2.4c0.1,0.3-0.1,0.7-0.4,0.8C154.6,324,154.5,324,154.5,324z M152.8,319.2
			c-0.3,0-0.5-0.2-0.6-0.4l-0.8-2.4c-0.1-0.3,0.1-0.7,0.4-0.8c0.3-0.1,0.7,0.1,0.8,0.4l0.8,2.4c0.1,0.3-0.1,0.7-0.4,0.8
			C153,319.2,152.9,319.2,152.8,319.2z M151.2,314.3c-0.3,0-0.5-0.2-0.6-0.4l-0.8-2.4c-0.1-0.3,0.1-0.7,0.4-0.8
			c0.3-0.1,0.7,0.1,0.8,0.4l0.8,2.4c0.1,0.3-0.1,0.7-0.4,0.8C151.3,314.3,151.3,314.3,151.2,314.3z M149.6,309.5
			c-0.3,0-0.5-0.2-0.6-0.4l-0.8-2.4c-0.1-0.3,0.1-0.7,0.4-0.8c0.3-0.1,0.7,0.1,0.8,0.4l0.8,2.4c0.1,0.3-0.1,0.7-0.4,0.8
			C149.7,309.4,149.6,309.5,149.6,309.5z M147.9,304.6c-0.3,0-0.5-0.2-0.6-0.4l-0.8-2.4c-0.1-0.3,0.1-0.7,0.4-0.8
			c0.3-0.1,0.7,0.1,0.8,0.4l0.8,2.4c0.1,0.3-0.1,0.7-0.4,0.8C148,304.6,148,304.6,147.9,304.6z M146.3,299.7c-0.3,0-0.5-0.2-0.6-0.4
			l-0.8-2.4c-0.1-0.3,0.1-0.7,0.4-0.8c0.3-0.1,0.7,0.1,0.8,0.4l0.8,2.4c0.1,0.3-0.1,0.7-0.4,0.8
			C146.4,299.7,146.3,299.7,146.3,299.7z M144.6,294.9c-0.3,0-0.5-0.2-0.6-0.4l-0.8-2.4c-0.1-0.3,0.1-0.7,0.4-0.8
			c0.3-0.1,0.7,0.1,0.8,0.4l0.8,2.4c0.1,0.3-0.1,0.7-0.4,0.8C144.8,294.9,144.7,294.9,144.6,294.9z M143,290c-0.3,0-0.5-0.2-0.6-0.4
			l-0.8-2.4c-0.1-0.3,0.1-0.7,0.4-0.8c0.3-0.1,0.7,0.1,0.8,0.4l0.8,2.4c0.1,0.3-0.1,0.7-0.4,0.8C143.1,290,143,290,143,290z
			 M141.3,285.2c-0.3,0-0.5-0.2-0.6-0.4l-0.8-2.4c-0.1-0.3,0.1-0.7,0.4-0.8c0.3-0.1,0.7,0.1,0.8,0.4l0.8,2.4
			c0.1,0.3-0.1,0.7-0.4,0.8C141.5,285.2,141.4,285.2,141.3,285.2z M139.7,280.3c-0.3,0-0.5-0.2-0.6-0.4l-0.8-2.4
			c-0.1-0.3,0.1-0.7,0.4-0.8c0.3-0.1,0.7,0.1,0.8,0.4l0.8,2.4c0.1,0.3-0.1,0.7-0.4,0.8C139.8,280.3,139.8,280.3,139.7,280.3z
			 M138.1,275.5c-0.3,0-0.5-0.2-0.6-0.4l-0.8-2.4c-0.1-0.3,0.1-0.7,0.4-0.8c0.3-0.1,0.7,0.1,0.8,0.4l0.8,2.4
			c0.1,0.3-0.1,0.7-0.4,0.8C138.2,275.5,138.1,275.5,138.1,275.5z M136.4,270.6c-0.3,0-0.5-0.2-0.6-0.4l-0.8-2.4
			c-0.1-0.3,0.1-0.7,0.4-0.8c0.3-0.1,0.7,0.1,0.8,0.4l0.8,2.4c0.1,0.3-0.1,0.7-0.4,0.8C136.5,270.6,136.5,270.6,136.4,270.6z
			 M134.8,265.8c-0.3,0-0.5-0.2-0.6-0.4l-0.8-2.4c-0.1-0.3,0.1-0.7,0.4-0.8c0.3-0.1,0.7,0.1,0.8,0.4l0.8,2.4
			c0.1,0.3-0.1,0.7-0.4,0.8C134.9,265.7,134.8,265.8,134.8,265.8z M133.1,260.9c-0.3,0-0.5-0.2-0.6-0.4l-0.8-2.4
			c-0.1-0.3,0.1-0.7,0.4-0.8c0.3-0.1,0.7,0.1,0.8,0.4l0.8,2.4c0.1,0.3-0.1,0.7-0.4,0.8C133.3,260.9,133.2,260.9,133.1,260.9z
			 M131.5,256c-0.3,0-0.5-0.2-0.6-0.4l-0.8-2.4c-0.1-0.3,0.1-0.7,0.4-0.8c0.3-0.1,0.7,0,0.8,0.4c0,0,0,0,0,0.1l0.8,2.4
			c0.1,0.3-0.1,0.7-0.4,0.8C131.6,256,131.5,256,131.5,256z M133.1,252.7c-0.3,0-0.5-0.2-0.6-0.4c-0.1-0.3,0-0.7,0.4-0.8l2.4-0.9
			c0.3-0.1,0.7,0,0.8,0.4c0.1,0.3,0,0.7-0.4,0.8l-2.4,0.9C133.2,252.7,133.1,252.7,133.1,252.7z M137.9,250.9
			c-0.3,0-0.5-0.2-0.6-0.4c-0.1-0.3,0-0.7,0.4-0.8l2.4-0.9c0.3-0.1,0.7,0,0.8,0.4c0.1,0.3,0,0.7-0.4,0.8l-2.4,0.9
			C138,250.9,137.9,250.9,137.9,250.9z M142.7,249.2c-0.3,0-0.5-0.2-0.6-0.4c-0.1-0.3,0-0.7,0.4-0.8l2.4-0.9c0.3-0.1,0.7,0,0.8,0.4
			c0.1,0.3,0,0.7-0.4,0.8l-2.4,0.9C142.8,249.1,142.8,249.2,142.7,249.2z M147.5,247.4c-0.3,0-0.5-0.2-0.6-0.4
			c-0.1-0.3,0-0.7,0.4-0.8l2.4-0.9c0.3-0.1,0.7,0,0.8,0.4c0.1,0.3,0,0.7-0.4,0.8l-2.4,0.9C147.6,247.4,147.6,247.4,147.5,247.4z
			 M152.3,245.6c-0.3,0-0.5-0.2-0.6-0.4c-0.1-0.3,0-0.7,0.4-0.8l2.4-0.9c0.3-0.1,0.7,0,0.8,0.4c0.1,0.3,0,0.7-0.4,0.8l-2.4,0.9
			C152.4,245.6,152.4,245.6,152.3,245.6z M157.1,243.8c-0.3,0-0.5-0.2-0.6-0.4c-0.1-0.3,0-0.7,0.4-0.8l2.4-0.9
			c0.3-0.1,0.7,0,0.8,0.4c0.1,0.3,0,0.7-0.4,0.8l-2.4,0.9C157.2,243.8,157.2,243.8,157.1,243.8z M161.9,242c-0.3,0-0.5-0.2-0.6-0.4
			c-0.1-0.3,0-0.7,0.4-0.8l2.4-0.9c0.3-0.1,0.7,0,0.8,0.4c0.1,0.3,0,0.7-0.4,0.8l-2.4,0.9C162,242,162,242,161.9,242z M166.7,240.2
			c-0.3,0-0.5-0.2-0.6-0.4c-0.1-0.3,0-0.7,0.4-0.8l2.4-0.9c0.3-0.1,0.7,0,0.8,0.4c0.1,0.3,0,0.7-0.4,0.8l-2.4,0.9
			C166.9,240.2,166.8,240.2,166.7,240.2z M171.5,238.5c-0.3,0-0.5-0.2-0.6-0.4c-0.1-0.3,0-0.7,0.4-0.8l2.4-0.9
			c0.3-0.1,0.7,0,0.8,0.4c0.1,0.3,0,0.7-0.4,0.8l-2.4,0.9C171.7,238.4,171.6,238.5,171.5,238.5z M176.3,236.7
			c-0.3,0-0.5-0.2-0.6-0.4c-0.1-0.3,0-0.7,0.4-0.8l2.4-0.9c0.3-0.1,0.7,0,0.8,0.4c0.1,0.3,0,0.7-0.4,0.8l-2.4,0.9
			C176.5,236.7,176.4,236.7,176.3,236.7z M181.1,234.9c-0.3,0-0.5-0.2-0.6-0.4c-0.1-0.3,0-0.7,0.4-0.8l2.4-0.9
			c0.3-0.1,0.7,0,0.8,0.4c0.1,0.3,0,0.7-0.4,0.8l-2.4,0.9C181.3,234.9,181.2,234.9,181.1,234.9z M185.9,233.1
			c-0.3,0-0.5-0.2-0.6-0.4c-0.1-0.3,0-0.7,0.4-0.8l2.4-0.9c0.3-0.1,0.7,0,0.8,0.4c0.1,0.3,0,0.7-0.4,0.8l-2.4,0.9
			C186.1,233.1,186,233.1,185.9,233.1z M190.7,231.3c-0.3,0-0.5-0.2-0.6-0.4c-0.1-0.3,0-0.7,0.4-0.8l2.4-0.9c0.3-0.1,0.7,0,0.8,0.4
			c0.1,0.3,0,0.7-0.4,0.8l-2.4,0.9C190.9,231.3,190.8,231.3,190.7,231.3z M195.5,229.5c-0.3,0-0.5-0.2-0.6-0.4
			c-0.1-0.3,0-0.7,0.4-0.8l2.4-0.9c0.3-0.1,0.7,0,0.8,0.4c0.1,0.3,0,0.7-0.4,0.8l-2.4,0.9C195.7,229.5,195.6,229.5,195.5,229.5z"/>
	</g>
	<g>
		<g>
			<path class="st2" d="M139.8,344.8c-0.1,0-0.2,0-0.3,0L19.9,330.9c-0.8-0.1-1.5-0.5-1.9-1.1c-0.7-0.9-3.9-6.7-2.2-30.4
				c0.8-11.3,2.1-23.6,3.2-34.4c1.3-12.4,2.4-23.2,2.5-29.3c0-0.9,0.5-1.8,1.3-2.3c0.5-0.3,1-0.4,1.5-0.4c0.4,0,0.8,0.1,1.1,0.2
				c0.4,0.2,38.3,17.1,56.8,23.2c1.2,0.4,2.3,0.7,3.4,1.1c8.4,2.7,15.6,5.1,21.5,9.3c6.4,4.6,10.7,10.9,13.8,20.5
				c6.5,19.9,21.3,53.4,21.5,53.8c0.4,0.9,0.3,2-0.3,2.8C141.6,344.4,140.7,344.8,139.8,344.8z"/>
		</g>
		<path d="M144.9,339.8c-0.1-0.3-14.9-33.7-21.4-53.5c-3.3-10-8-17-14.9-21.9c-6.2-4.4-13.6-6.8-22.3-9.6c-1.1-0.4-2.2-0.7-3.4-1.1
			c-18.3-6-56.1-22.9-56.5-23.1c-0.7-0.3-1.5-0.5-2.3-0.5c-1,0-2.1,0.3-3,0.9c-1.6,1-2.5,2.7-2.6,4.6c-0.1,6-1.2,16.7-2.5,29
			c-1.1,10.9-2.4,23.2-3.2,34.5c-0.7,10.3-0.6,18.6,0.3,24.5c0.7,4.5,1.7,6.7,2.5,7.8c0.9,1.3,2.3,2.1,3.9,2.2l119.6,13.9
			c0.2,0,0.4,0,0.6,0c1.8,0,3.4-0.8,4.5-2.3C145.5,343.7,145.7,341.6,144.9,339.8z M20.2,328.2c0,0-3.4-4.7-1.7-28.6
			c1.7-23.9,5.6-52.1,5.8-63.9c0,0,38.2,17.1,57,23.3c18.8,6.2,30.3,8.8,36.9,29c6.6,20.3,21.6,54,21.6,54L20.2,328.2z"/>
	</g>
	<g>
		<g>
			<g>
				<path class="st2" d="M101.4,266.5c-5.5-2.9-12.2-4.9-20.1-7.5c-4.1-1.3-9.1-3.2-14.4-5.3c9.6,4,19.5,7.9,26.6,10.2
					C96.3,264.8,98.9,265.6,101.4,266.5z"/>
			</g>
		</g>
		<g>
			<g>
				<path class="st2" d="M18.3,318.9L18.3,318.9c0,0.2,0,0.4,0,0.5l0,0c0,0.2,0,0.3,0,0.5l0,0c0,0.2,0,0.3,0,0.5l0,0
					c0.2,1.9,0.4,3.3,0.7,4.4l0,0c0,0.1,0,0.2,0.1,0.3l0,0c0,0.1,0,0.2,0.1,0.2l0,0c0,0.1,0,0.2,0.1,0.2l0,0c0,0.1,0,0.1,0.1,0.2
					l0,0c0,0.1,0,0.1,0.1,0.2l0,0c0,0.1,0,0.1,0.1,0.2l0,0c0.2,0.6,0.3,1,0.5,1.3l0,0v0.1l0,0c0,0,0,0,0,0.1l0,0c0,0,0,0,0,0.1l0,0
					c0,0,0,0,0,0.1l0,0l0,0l0,0l0,0l0,0l0,0l0,0l0,0l0,0l0,0l0,0l0,0l0,0l0,0l0,0L139.8,342c0,0-2.9-6.6-6.8-15.7l-93.3-10.8
					c-5.4-0.6-9.4-5.4-9.1-10.9v-0.1c1.7-23.6,5.5-51.5,5.8-63.4c-7.2-3.1-12.2-5.3-12.2-5.3c-0.2,11.7-4.1,39.9-5.8,63.9
					c-0.1,1.8-0.2,3.4-0.3,4.9v0.1c0,0.3,0,0.5,0,0.8v0.1c0,0.3,0,0.5,0,0.8v0.1c0,0.2,0,0.5,0,0.7v0.1c0,0.2,0,0.5,0,0.7v0.1
					c0,0.2,0,0.5,0,0.7v0.1c0,0.2,0,0.5,0,0.7v0.1c0,0.2,0,0.5,0,0.7c0,0,0,0,0,0.1c0,0.2,0,0.5,0,0.7l0,0c0,2.8,0.1,5.1,0.2,7l0,0
					C18.3,318.5,18.3,318.7,18.3,318.9z"/>
			</g>
		</g>
	</g>
	<g>
		<g>
			<path class="st2" d="M286.9,273.8c-0.3,0-0.5,0-0.8-0.1c-25.4-7.5-36.4-19.6-43.7-27.6c-1.3-1.4-2.5-2.7-3.6-3.9
				c-6.8-6.8-10.2-8.6-30.5-11.6c-10.3-1.5-17.8-2.6-22.7-7.5s-6.7-12.8-6.1-27.6c1-26.9-24.8-77.6-25.1-78.1
				c-0.4-0.8-0.4-1.7,0-2.5s1.1-1.3,2-1.5c0.1,0,3.6-0.7,8.6-0.7c5.1,0,12.6,0.7,19.5,4.3c8,4.1,13.5,10.9,16.3,20.2
				c4.1,13.7,4.4,30.1,4.7,43.3c0.1,6.2,0.2,11.6,0.7,15.7c0.5,4.9,1.4,6,1.6,6.2c0,0,0.1,0,0.2,0c2.3-0.6,5.2-0.9,8.5-0.9
				c11.2,0,30,3.7,35.9,13.8c4.6,8,24.8,19,32.2,22.5c0.9,0.4,1.4,1.2,1.6,2.2l3.6,30.8c0.1,0.9-0.3,1.8-1,2.4
				C288.2,273.6,287.5,273.8,286.9,273.8z"/>
		</g>
		<path d="M292.4,270.4l-3.6-30.8c-0.2-1.9-1.4-3.5-3.1-4.4c-0.1,0-6.7-3.2-14-7.6c-12.5-7.6-16.1-12.1-17-13.7
			c-1.6-2.8-4.1-5.3-7.4-7.4c-2.7-1.7-6-3.2-9.8-4.5c-6.5-2.1-14.2-3.3-21.1-3.3c-2.6,0-5,0.2-7,0.5c-0.2-0.9-0.5-2.5-0.7-4.9
			c-0.3-3.8-0.4-8.7-0.5-13.9c-0.2-13.4-0.6-30-4.8-44.1c-1.6-5.3-4-9.9-7.3-13.7c-2.9-3.3-6.4-6.1-10.4-8.1
			c-7.4-3.8-15.4-4.6-20.7-4.6c-5.2,0-8.8,0.7-9.2,0.8c-1.7,0.3-3.1,1.5-3.9,3c-0.8,1.6-0.7,3.4,0.1,4.9
			c0.3,0.5,25.8,50.5,24.8,76.7c-0.3,7.6,0,13.2,1,17.8c1.1,5.1,3,9,6,11.9c5.6,5.5,13.8,6.7,24.3,8.3c19.6,2.9,22.5,4.4,28.9,10.8
			c1.1,1.1,2.3,2.4,3.5,3.8c7.5,8.2,18.9,20.7,45,28.4c0.5,0.2,1,0.2,1.6,0.2c1.3,0,2.6-0.5,3.6-1.3
			C291.9,274.1,292.6,272.2,292.4,270.4z M240.8,240.3c-7.7-7.7-12-9.4-32-12.4c-20.1-3-27.6-4.3-26.5-32.2
			c1.1-28-25.4-79.4-25.4-79.4s3.3-0.7,8.1-0.7c10.3,0,27.3,3.1,33.1,22.5c8.3,27.6,0.7,67.2,9.6,67.2c0.3,0,0.6,0,0.9-0.1
			c2.1-0.5,4.8-0.8,7.8-0.8c11.8,0,28.6,4,33.5,12.4c6.1,10.6,33.4,23.6,33.4,23.6l3.6,30.8C257.8,262.5,248.4,248,240.8,240.3z"/>
	</g>
	<g>
		<g>
			<path class="st2" d="M307.9,347.7c-1,0-1.9-0.5-2.4-1.3c-0.6-0.9-0.5-2.1,0-3l28.5-43.8c0.5-0.8,1.4-1.3,2.3-1.3
				c0.3,0,0.6,0,0.9,0.1l6.1,2c1.1,0.4,1.9,1.4,1.9,2.6c0,9.3,4.5,9.3,6.5,9.3l0,0c5.1,0,11.2-3.5,12.9-4.5c1.1-0.7,2-1.4,2.9-2.2
				c2.2-1.9,4.7-4,11-5.6c6.6-1.8,16.8-3,31.8-3.7c20-1,32.3-3.8,39.1-5.9c7.1-2.3,9.9-4.4,10.1-4.5c0.5-0.5,1.1-0.7,1.8-0.7
				c0.6,0,1.2,0.2,1.7,0.6c11.4,8.6,15.1,17.1,16.2,22.7c1.2,6.3-0.3,10.5-0.5,10.9c-0.2,0.6-0.7,1.1-1.3,1.4
				c-0.8,0.4-19.9,10.2-53.4,14.5c-33,4.2-115.1,12.1-115.9,12.2C308.1,347.7,308,347.7,307.9,347.7z"/>
		</g>
		<path d="M482,308.1c-0.8-4-2.5-7.9-4.9-11.7c-3-4.5-7.1-8.8-12.4-12.7c-1-0.8-2.3-1.2-3.4-1.2c-1.2,0-2.5,0.4-3.5,1.4
			c-0.4,0.3-3.2,2.2-9.8,4.2c-6.6,2-18.5,4.7-37.8,5.6c-15.3,0.7-25.6,1.9-32.4,3.8c-6.9,1.8-9.7,4.3-12,6.2
			c-0.9,0.7-1.6,1.4-2.6,1.9c-3.3,2-8,4.1-11.5,4.1c-1.7,0-2.2-0.5-2.4-0.7c-0.4-0.4-1.3-1.9-1.3-5.8c0-2.4-1.6-4.5-3.8-5.3l-6.1-2
			c-0.6-0.2-1.2-0.3-1.7-0.3c-1.8,0-3.6,0.9-4.7,2.5l-28.5,43.8c-1.2,1.8-1.2,4.1-0.1,5.9c1,1.7,2.8,2.7,4.7,2.7c0.2,0,0.4,0,0.5,0
			c0.8-0.1,83-8,116-12.2c33.9-4.3,53.5-14.4,54.3-14.8c1.2-0.6,2.1-1.6,2.6-2.9C481.6,320.1,483.4,315.2,482,308.1z M476.2,318.5
			c0,0-19.1,9.9-52.4,14.2S308,345,308,345l28.5-43.8l6.1,2c0,9.3,4.2,12.1,9.3,12.1c5,0,10.8-2.8,14.3-4.9c7-4.3,4.3-9.2,44.4-11.1
			c40.2-1.9,50.8-11.1,50.8-11.1C482.1,303.7,476.2,318.5,476.2,318.5z"/>
	</g>
	<g>
		<g>
			<path class="st2" d="M257.4,344.2c-1.1,0-2.1-0.6-2.5-1.6c-0.5-1-0.3-2.1,0.4-3c0.2-0.3,22.6-26.8,25.3-46.5
				c2.7-20.2,0-54.2,0-54.6c-0.1-1,0.4-1.9,1.2-2.5c0.5-0.3,1-0.5,1.6-0.5c0.4,0,0.8,0.1,1.1,0.2c6.8,3,66.2,29.7,73.8,36.9
				c3.4,3.2,5,6.4,4.9,9.6c-0.2,5.1-4.6,9.7-11.7,15.3c-10.2,8.1-33.1,44.8-33.3,45.2c-0.5,0.8-1.4,1.3-2.4,1.3
				C315.8,344.2,257.4,344.2,257.4,344.2z"/>
		</g>
		<path d="M360.2,270.7c-1.5-1.4-4.6-3.7-15.8-9.5c-6.4-3.3-14.8-7.5-24.9-12.3c-17.2-8.1-33.7-15.5-33.8-15.6
			c-0.7-0.3-1.5-0.5-2.3-0.5c-1.1,0-2.3,0.3-3.2,1c-1.6,1.1-2.5,3-2.3,5c0,0.3,2.7,34.1,0,54c-2.5,18.9-24.4,44.8-24.6,45
			c-1.4,1.6-1.7,4-0.8,5.9c0.9,2,2.9,3.2,5,3.2l0,0l58.4-0.1c1.9,0,3.7-1,4.7-2.6c6.3-10.2,24.6-38,32.7-44.5
			c7.7-6.1,12.5-11.2,12.7-17.4C366.1,278.4,364.2,274.5,360.2,270.7z M349.8,295.5c-10.7,8.5-34,45.9-34,45.9l-58.4,0.1
			c0,0,23.1-27.2,25.9-47.9c2.8-20.7,0-55.2,0-55.2s65.6,29.3,73,36.4S360.5,286.9,349.8,295.5z"/>
	</g>
	<g>
		<path class="st3" d="M263.6,387.6c-18.3,0-32.8-0.3-39.8-0.5c-1.6,0-2.9-0.1-3.7-0.1c-5.1-0.1-50.7-0.8-86.7-0.8
			c-18.7,0-31.6,0.2-38.3,0.6c-3.6,0.2-7.8,0.3-12.5,0.3c-22.8,0-53.3-2.4-62.3-3.7c-5.5-0.8-7.7-3.9-8.5-6.3c-1.4-4.1,0.2-9,1.5-11
			c0.6-2.7,1.3-18-0.1-28.6c-0.7-5.4,0.1-9.6,2.3-12.3c2.1-2.6,4.7-2.8,5-2.8c0.1,0,0.1,0,0.2,0s0.3,0,0.4,0
			c0.5,0.1,50.5,7.9,111.6,10c29.1,1,51.2,3,72.7,5c24.5,2.2,47.6,4.4,78.9,4.8c3.1,0,6.4,0.1,9.6,0.1c48.6,0,105.8-5.4,153.1-14.5
			c11-2.1,19.3-4.2,24.8-6.3c3.4-1.3,5-2.3,5.6-2.9c-0.6-0.8-0.8-1.9-0.4-2.8c0.4-1.1,1.5-1.7,2.6-1.7c0.3,0,0.5,0,0.8,0.1
			c4,1.2,6.4,7.1,7,8.9c1.7,4.8,2,9.8,0.9,13.9c-0.2,0.8-0.3,1.6-0.4,2.4c-0.6,4.5-1.7,8.3-9.2,13.2c-8.1,5.4-23.3,11.5-47.8,19.4
			C390.7,384.9,317.7,387.6,263.6,387.6z"/>
	</g>
	<g>
		<path class="st4" d="M25,379.9c-1.4-4.1,0.2-9,1.5-11c0.6-2.7,1.3-18-0.1-28.6c-0.7-5.4,0.1-9.6,2.3-12.3c2.1-2.6,4.7-2.8,5-2.8
			c0.1,0,0.1,0,0.2,0c0.1,0,0.3,0,0.4,0c0.5,0.1,50.5,7.9,111.6,10c29.1,1,51.2,3,72.7,5c24.5,2.2,47.6,4.4,78.9,4.8
			c3.1,0,6.4,0.1,9.6,0.1c48.6,0,105.8-5.4,153.1-14.5c11-2.1,19.3-4.2,24.8-6.3c0.9-0.4,1.7-0.7,2.4-1c0-0.1,0-0.1-0.1-0.2
			c-0.6-1.8-3-7.7-7-8.9c-0.3-0.1-0.5-0.1-0.8-0.1c-1.1,0-2.1,0.7-2.6,1.7c-0.4,1-0.2,2.1,0.4,2.8c-0.7,0.6-2.2,1.6-5.6,2.9
			c-5.5,2.1-13.8,4.2-24.8,6.3c-47.2,9.1-104.4,14.5-153.1,14.5c-3.2,0-6.4,0-9.6-0.1c-31.3-0.5-54.4-2.6-78.9-4.8
			c-21.4-2-43.6-4-72.7-5c-61-2.1-111.1-9.9-111.6-10c-0.1,0-0.3,0-0.4,0s-0.1,0-0.2,0c-0.3,0-2.9,0.3-5,2.8
			c-2.2,2.7-3,6.8-2.3,12.3c1.4,10.6,0.7,25.9,0.1,28.6c-1.3,2-2.9,6.8-1.5,11c0.8,2.5,2.9,5.5,8.5,6.3c1.9,0.3,4.7,0.6,8.2,0.9
			C26.5,383.1,25.5,381.4,25,379.9z"/>
	</g>
	<g>
		<path class="st5" d="M485.3,326.3c-1.7,7.6,3.5,13.6-55.4,32.6c-60.2,19.4-196.1,15.2-209.7,15c-13.7-0.2-101.9-1.5-125.2-0.2
			s-64.1-1.9-74.3-3.4c-2.5-0.4-4.1-1.3-5.1-2.5c-1.2,2-4.4,11.5,5.1,12.9c10.3,1.5,51,4.7,74.3,3.4c23.3-1.3,111.5,0,125.2,0.2
			s149.5,4.5,209.7-15s53.4-25.2,55.5-33.1C486.3,333.1,486.1,329.6,485.3,326.3z"/>
	</g>
	<g>
		<g>
			<path class="st5" d="M346.4,371.9c-1.1,0.1-2.3,0.2-3.4,0.2v10.5c1.1-0.1,2.3-0.2,3.4-0.2V371.9z"/>
		</g>
		<g>
			<path class="st5" d="M330.6,372.8c-1.1,0.1-2.3,0.1-3.4,0.2v10.5c1.1-0.1,2.3-0.1,3.4-0.2V372.8z"/>
		</g>
		<g>
			<path class="st5" d="M362.2,370.6c-1.1,0.1-2.3,0.2-3.4,0.3v10.5c1.1-0.1,2.3-0.2,3.4-0.3V370.6z"/>
		</g>
		<g>
			<path class="st5" d="M156.7,373.2c-1.1,0-2.3,0-3.4,0v10.5c1.1,0,2.3,0,3.4,0V373.2z"/>
		</g>
		<g>
			<path class="st5" d="M378,369c-1.1,0.1-2.3,0.3-3.4,0.4v10.5c1.1-0.1,2.3-0.3,3.4-0.4V369z"/>
		</g>
		<g>
			<path class="st5" d="M393.8,366.9c-1.1,0.2-2.3,0.3-3.4,0.5v10.5c1.1-0.2,2.3-0.3,3.4-0.5V366.9z"/>
		</g>
		<g>
			<path class="st5" d="M314.8,373.5c-1.1,0-2.3,0.1-3.4,0.1v10.5c1.1,0,2.3-0.1,3.4-0.1V373.5z"/>
		</g>
		<g>
			<path class="st5" d="M232.3,384.6c1.1,0,2.2,0,3.4,0.1v-10.5c-1.2,0-2.3,0-3.4-0.1V384.6z"/>
		</g>
		<g>
			<path class="st5" d="M267.3,384.9v-10.5c-1.2,0-2.3,0-3.4,0v10.5C265.1,384.9,266.2,384.9,267.3,384.9z"/>
		</g>
		<g>
			<path class="st5" d="M283.2,374.3c-1.1,0-2.3,0-3.4,0v10.5c1.1,0,2.3,0,3.4,0V374.3z"/>
		</g>
		<g>
			<path class="st5" d="M299,374c-1.1,0-2.3,0.1-3.4,0.1v10.5c1.1,0,2.3-0.1,3.4-0.1V374z"/>
		</g>
		<g>
			<path class="st5" d="M251.5,374.4c-1.2,0-2.3,0-3.4,0v10.5c1.1,0,2.3,0,3.4,0V374.4z"/>
		</g>
		<g>
			<path class="st5" d="M46.1,372.6c-1.2-0.1-2.3-0.2-3.4-0.2v10.5c1.1,0.1,2.3,0.2,3.4,0.2V372.6z"/>
		</g>
		<g>
			<path class="st5" d="M90.1,384.3c1.2,0,2.3-0.1,3.4-0.1v-10.5c-1.1,0.1-2.2,0.1-3.4,0.1V384.3z"/>
		</g>
		<g>
			<path class="st5" d="M26.9,381.4c1.1,0.1,2.2,0.2,3.4,0.3v-10.5c-1.2-0.1-2.4-0.2-3.4-0.3V381.4z"/>
		</g>
		<g>
			<path class="st5" d="M105.9,383.8c1.1,0,2.2,0,3.4-0.1v-10.5c-1.2,0-2.3,0-3.4,0.1V383.8z"/>
		</g>
		<g>
			<path class="st5" d="M77.7,373.9c-1.1,0-2.3,0-3.4-0.1v10.5c1.1,0,2.3,0,3.4,0.1V373.9z"/>
		</g>
		<g>
			<path class="st5" d="M61.9,373.4c-1.1-0.1-2.3-0.1-3.4-0.2v10.5c1.1,0.1,2.3,0.1,3.4,0.2V373.4z"/>
		</g>
		<g>
			<path class="st5" d="M204.1,373.6c-1.1,0-2.2,0-3.4,0v10.5c1.2,0,2.3,0,3.4,0V373.6z"/>
		</g>
		<g>
			<path class="st5" d="M172.5,373.3c-1.1,0-2.3,0-3.4,0v10.5c1.1,0,2.3,0,3.4,0V373.3z"/>
		</g>
		<g>
			<path class="st5" d="M125.1,373.1c-1.2,0-2.3,0-3.4,0v10.5c1.1,0,2.3,0,3.4,0V373.1z"/>
		</g>
		<g>
			<path class="st5" d="M188.3,373.4c-1.1,0-2.3,0-3.4,0v10.5c1.2,0,2.3,0,3.4,0V373.4z"/>
		</g>
		<g>
			<path class="st5" d="M219.9,373.9c-0.9,0-2,0-3.4-0.1v10.5c1.4,0,2.5,0,3.4,0.1V373.9z"/>
		</g>
		<g>
			<path class="st5" d="M137.5,383.6c1.1,0,2.3,0,3.4,0v-10.5c-1.1,0-2.3,0-3.4,0V383.6z"/>
		</g>
	</g>
	<g>
		<g>
			<path class="st4" d="M21.8,344h-0.1c-3.4-0.3-5.3-0.5-5.3-0.5c-0.8-0.1-1.4-0.8-1.3-1.6c0.1-0.8,0.8-1.4,1.6-1.3
				c0,0,1.9,0.2,5.3,0.5c0.8,0.1,1.4,0.8,1.3,1.6C23.2,343.5,22.5,344,21.8,344z"/>
		</g>
		<g>
			<path class="st4" d="M239.4,357.3c-2.2,0-4.5,0-6.8,0c-0.8,0-1.5-0.7-1.5-1.5s0.7-1.5,1.5-1.5l0,0c2.3,0,4.6,0,6.8,0
				c1.3,0,2.5,0,3.8,0c0.8,0,1.5,0.7,1.5,1.5s-0.7,1.5-1.5,1.5C241.9,357.3,240.6,357.3,239.4,357.3z M247.4,357.2
				c-0.8,0-1.5-0.7-1.5-1.5s0.7-1.5,1.5-1.5h0.8c3.2,0,6.5-0.1,9.8-0.1l0,0c0.8,0,1.5,0.7,1.5,1.5s-0.7,1.5-1.5,1.5
				c-3.3,0-6.6,0.1-9.8,0.1H247.4L247.4,357.2z M228.4,357.2L228.4,357.2c-3.4,0-7-0.1-10.6-0.2c-0.8,0-1.5-0.7-1.5-1.5
				s0.7-1.5,1.5-1.5c3.6,0.1,7.2,0.1,10.5,0.2c0.8,0,1.5,0.7,1.5,1.5C229.8,356.5,229.2,357.2,228.4,357.2z M262.1,357
				c-0.8,0-1.5-0.7-1.5-1.5s0.7-1.5,1.5-1.5l10.6-0.1l0,0c0.8,0,1.5,0.7,1.5,1.5s-0.7,1.5-1.5,1.5L262.1,357
				C262.2,357,262.1,357,262.1,357z M276.9,356.9c-0.8,0-1.5-0.7-1.5-1.5s0.7-1.5,1.5-1.5c3.5,0,7-0.1,10.6-0.1
				c0.8,0,1.5,0.7,1.5,1.5s-0.7,1.5-1.5,1.5C284,356.8,280.4,356.9,276.9,356.9L276.9,356.9z M213.6,356.9L213.6,356.9
				c-3.5-0.1-7-0.2-10.6-0.3c-0.8,0-1.5-0.7-1.4-1.5c0-0.8,0.7-1.5,1.5-1.4c3.6,0.1,7.1,0.2,10.5,0.3c0.8,0,1.5,0.7,1.5,1.5
				C215,356.2,214.4,356.9,213.6,356.9z M291.7,356.7c-0.8,0-1.5-0.7-1.5-1.5s0.6-1.5,1.5-1.5c3.8-0.1,7.2-0.1,10.5-0.2l0,0
				c0.8,0,1.5,0.7,1.5,1.5s-0.6,1.5-1.5,1.5C298.9,356.6,295.5,356.7,291.7,356.7L291.7,356.7z M306.4,356.5c-0.8,0-1.5-0.6-1.5-1.5
				c0-0.8,0.6-1.5,1.5-1.5c3.6-0.1,7.2-0.2,10.5-0.2c0.8,0,1.5,0.6,1.5,1.5c0,0.8-0.6,1.5-1.5,1.5
				C313.7,356.3,310.1,356.4,306.4,356.5C306.5,356.5,306.5,356.5,306.4,356.5z M198.8,356.4L198.8,356.4c-3.5-0.1-7-0.3-10.6-0.4
				c-0.8,0-1.5-0.7-1.4-1.6c0-0.8,0.7-1.5,1.6-1.4c3.6,0.2,7.1,0.3,10.5,0.4c0.8,0,1.5,0.7,1.4,1.5
				C200.3,355.8,199.6,356.4,198.8,356.4z M321.2,356.1c-0.8,0-1.5-0.6-1.5-1.5c0-0.8,0.6-1.5,1.5-1.5c3.6-0.1,7.2-0.2,10.5-0.4
				c0.8,0,1.5,0.6,1.6,1.4c0,0.8-0.6,1.5-1.4,1.6C328.4,355.9,324.9,356,321.2,356.1C321.3,356.1,321.2,356.1,321.2,356.1z
				 M184,355.8L184,355.8c-3.5-0.2-7.1-0.3-10.6-0.5c-0.8,0-1.5-0.7-1.4-1.6c0-0.8,0.7-1.5,1.6-1.4c3.6,0.2,7.1,0.3,10.5,0.5
				c0.8,0,1.5,0.7,1.4,1.6C185.5,355.2,184.8,355.8,184,355.8z M336,355.6c-0.8,0-1.5-0.6-1.5-1.4s0.6-1.5,1.4-1.6
				c3.6-0.2,7.1-0.3,10.5-0.5c0.8,0,1.5,0.6,1.6,1.4c0,0.8-0.6,1.5-1.4,1.6C343.2,355.3,339.7,355.4,336,355.6L336,355.6z
				 M169.3,355.1C169.2,355.1,169.2,355.1,169.3,355.1c-3.5-0.2-7.1-0.4-10.6-0.6c-0.8,0-1.5-0.8-1.4-1.6c0-0.8,0.8-1.5,1.6-1.4
				c3.6,0.2,7.1,0.4,10.6,0.6c0.8,0,1.5,0.7,1.4,1.6C170.7,354.5,170,355.1,169.3,355.1z M350.8,354.8c-0.8,0-1.4-0.6-1.5-1.4
				c0-0.8,0.6-1.5,1.4-1.6c3.6-0.2,7.1-0.4,10.5-0.7c0.8-0.1,1.5,0.6,1.6,1.4s-0.6,1.5-1.4,1.6C358,354.4,354.5,354.6,350.8,354.8
				L350.8,354.8z M154.5,354.3C154.4,354.3,154.4,354.3,154.5,354.3c-3.5-0.2-7.1-0.4-10.6-0.6c-0.8-0.1-1.5-0.8-1.4-1.6
				c0.1-0.8,0.8-1.5,1.6-1.4c3.6,0.2,7.1,0.4,10.5,0.6c0.8,0,1.5,0.8,1.4,1.6S155.3,354.3,154.5,354.3z M365.5,353.9
				c-0.8,0-1.4-0.6-1.5-1.4s0.6-1.5,1.4-1.6c3.6-0.3,7.1-0.6,10.5-0.9c0.8-0.1,1.6,0.5,1.6,1.4c0.1,0.8-0.5,1.6-1.4,1.6
				c-3.4,0.3-7,0.6-10.5,0.9C365.6,353.9,365.6,353.9,365.5,353.9z M139.7,353.4L139.7,353.4c-3.5-0.2-7.1-0.5-10.6-0.7
				c-0.8-0.1-1.4-0.8-1.4-1.6c0.1-0.8,0.8-1.4,1.6-1.4c3.5,0.2,7.1,0.5,10.5,0.7c0.8,0.1,1.4,0.8,1.4,1.6
				C141.2,352.8,140.5,353.4,139.7,353.4z M380.3,352.6c-0.8,0-1.4-0.6-1.5-1.3c-0.1-0.8,0.5-1.6,1.3-1.6c3.6-0.4,7.1-0.7,10.5-1.1
				c0.8-0.1,1.6,0.5,1.7,1.3s-0.5,1.6-1.3,1.7c-3.4,0.4-7,0.8-10.5,1.1C380.4,352.6,380.3,352.6,380.3,352.6z M125,352.4L125,352.4
				c-3.6-0.2-7.1-0.5-10.6-0.7c-0.8-0.1-1.4-0.8-1.4-1.6c0.1-0.8,0.8-1.4,1.6-1.4c3.5,0.3,7.1,0.5,10.5,0.7c0.8,0.1,1.4,0.8,1.4,1.6
				C126.4,351.8,125.7,352.4,125,352.4z M110.2,351.4L110.2,351.4c-3.6-0.3-7.1-0.5-10.6-0.8c-0.8-0.1-1.4-0.8-1.4-1.6
				c0.1-0.8,0.8-1.4,1.6-1.4c3.5,0.3,7.1,0.5,10.5,0.8c0.8,0.1,1.4,0.8,1.4,1.6C111.6,350.8,111,351.4,110.2,351.4z M394.9,350.9
				c-0.7,0-1.4-0.6-1.5-1.3c-0.1-0.8,0.5-1.6,1.3-1.7c3.5-0.5,7-0.9,10.4-1.5c0.8-0.1,1.6,0.4,1.7,1.3c0.1,0.8-0.4,1.6-1.3,1.7
				c-3.4,0.5-6.9,1-10.5,1.5C395.1,350.9,395,350.9,394.9,350.9z M95.5,350.3L95.5,350.3c-3.7-0.3-7.2-0.5-10.6-0.8
				c-0.8-0.1-1.4-0.8-1.4-1.6c0.1-0.8,0.8-1.4,1.6-1.4c3.4,0.3,6.9,0.5,10.5,0.8c0.8,0.1,1.4,0.8,1.4,1.6
				C96.9,349.7,96.2,350.3,95.5,350.3z M80.7,349.1L80.7,349.1c-3.7-0.3-7.2-0.6-10.6-0.9c-0.8-0.1-1.4-0.8-1.4-1.6
				c0.1-0.8,0.8-1.4,1.6-1.4c3.4,0.3,6.9,0.6,10.5,0.9c0.8,0.1,1.4,0.8,1.4,1.6C82.1,348.6,81.5,349.1,80.7,349.1z M409.6,348.8
				c-0.7,0-1.4-0.5-1.5-1.3s0.4-1.6,1.2-1.7c3.5-0.6,7-1.2,10.4-1.8c0.8-0.2,1.6,0.4,1.7,1.2c0.2,0.8-0.4,1.6-1.2,1.7
				c-3.4,0.6-6.9,1.3-10.4,1.8C409.7,348.8,409.6,348.8,409.6,348.8z M66,347.9L66,347.9c-3.8-0.3-7.3-0.6-10.6-0.9
				c-0.8-0.1-1.4-0.8-1.4-1.6c0.1-0.8,0.8-1.4,1.6-1.4c3.4,0.3,6.9,0.6,10.5,0.9c0.8,0.1,1.4,0.8,1.4,1.6
				C67.4,347.4,66.7,347.9,66,347.9z M51.2,346.7L51.2,346.7c-3.9-0.3-7.4-0.6-10.6-0.9c-0.8-0.1-1.4-0.8-1.4-1.6
				c0.1-0.8,0.8-1.4,1.6-1.4c3.2,0.3,6.8,0.6,10.5,0.9c0.8,0.1,1.4,0.8,1.4,1.6C52.7,346.1,52,346.7,51.2,346.7z M424.1,346.1
				c-0.7,0-1.3-0.5-1.5-1.2c-0.2-0.8,0.4-1.6,1.2-1.8c3.5-0.7,6.9-1.5,10.3-2.3c0.8-0.2,1.6,0.3,1.8,1.1c0.2,0.8-0.3,1.6-1.1,1.8
				c-3.3,0.8-6.8,1.6-10.4,2.3C424.3,346.1,424.2,346.1,424.1,346.1z M36.5,345.4L36.5,345.4c-3.7-0.3-7.3-0.6-10.6-1
				c-0.8-0.1-1.4-0.8-1.4-1.6c0.1-0.8,0.8-1.4,1.6-1.4c3.4,0.3,6.9,0.6,10.5,1c0.8,0.1,1.4,0.8,1.4,1.6
				C37.9,344.8,37.3,345.4,36.5,345.4z M438.5,342.8c-0.7,0-1.3-0.4-1.4-1.1c-0.2-0.8,0.3-1.6,1.1-1.8c3.5-0.9,6.9-1.8,10.1-2.8
				c0.8-0.2,1.6,0.2,1.9,1c0.2,0.8-0.2,1.6-1,1.9c-3.3,1-6.7,2-10.2,2.9C438.8,342.8,438.6,342.8,438.5,342.8z M452.7,338.7
				c-0.6,0-1.2-0.4-1.4-1c-0.3-0.8,0.2-1.6,1-1.9c3.4-1.1,6.7-2.3,9.9-3.5c0.8-0.3,1.6,0.1,1.9,0.9s-0.1,1.6-0.9,1.9
				c-3.2,1.2-6.6,2.4-10,3.5C453,338.7,452.8,338.7,452.7,338.7z M466.6,333.7c-0.6,0-1.1-0.4-1.4-0.9c-0.3-0.8,0.1-1.6,0.8-2
				c3.3-1.3,6.5-2.8,9.5-4.3c0.7-0.4,1.6-0.1,2,0.7s0.1,1.6-0.7,2c-3.1,1.5-6.4,3-9.7,4.3C467,333.6,466.8,333.7,466.6,333.7z"/>
		</g>
		<g>
			<path class="st4" d="M479.7,327.6c-0.5,0-1.1-0.3-1.3-0.8c-0.4-0.7-0.1-1.6,0.6-2c1.6-0.8,3.1-1.7,4.6-2.5c0.7-0.4,1.6-0.2,2,0.6
				c0.4,0.7,0.2,1.6-0.6,2c-1.5,0.9-3.1,1.7-4.7,2.6C480.2,327.5,480,327.6,479.7,327.6z"/>
		</g>
	</g>
	<path d="M489.8,322.2c-0.8-2.3-1.9-4.5-3.1-6.2c-1.7-2.3-3.6-3.9-5.7-4.5c-0.5-0.2-1-0.2-1.6-0.2c-2.2,0-4.2,1.3-5.1,3.4
		c-0.4,0.9-0.5,1.9-0.4,2.8c-1,0.5-2.5,1.2-4.8,2c-5.3,1.8-13,3.7-22.7,5.6c-47,9.1-104.1,14.5-152.5,14.5c-3.2,0-6.4,0-9.5-0.1
		c-31.2-0.5-54.3-2.6-78.7-4.8c-21.5-2-43.7-4-72.8-5c-31.8-1.1-60.3-3.7-78.7-5.8c-19.9-2.2-32.4-4.2-32.6-4.2
		c-0.3,0-0.6-0.1-0.9-0.1c-0.1,0-0.3,0-0.4,0c-2,0.1-4.8,1.2-7,3.8c-2.7,3.3-3.7,8.1-2.9,14.4c1.3,9.8,0.7,23.8,0.2,27.3
		c-0.9,1.5-1.4,3.3-1.6,4.2c-0.5,2.2-1,5.4,0.1,8.6c0.9,2.6,3.4,7.2,10.7,8.2c8.8,1.3,38.9,3.8,62.7,3.8c4.7,0,9-0.1,12.7-0.3
		c6.7-0.4,19.5-0.6,38.1-0.6c36,0,81.6,0.7,86.6,0.8c0.8,0,2.1,0,3.7,0.1c7,0.2,21.5,0.5,39.9,0.5c54.4,0,127.6-2.7,168-15.8
		c24.7-8,40.1-14.2,48.4-19.8c3.9-2.6,6.5-5.1,8.2-8c1.6-2.8,1.9-5.2,2.2-7.2c0.1-0.8,0.2-1.5,0.4-2.1
		C492,333.1,491.7,327.4,489.8,322.2z M485.4,336.3c-2.1,7.9,4.7,13.7-55.5,33.1c-41.2,13.3-117.6,15.5-166.3,15.5
		c-22.5,0-39.1-0.5-43.4-0.5c-9.2-0.1-52.5-0.8-86.7-0.8c-16.5,0-30.9,0.1-38.4,0.6c-3.7,0.2-7.9,0.3-12.4,0.3
		c-23.2,0-53.3-2.5-61.9-3.7c-10.3-1.5-5.8-12.4-4.9-13.2c0.9-0.9,1.7-18.8,0.2-30.3s4.7-12,4.7-12s50,7.9,111.9,10
		s92.5,9,151.6,9.8c3.2,0,6.4,0.1,9.6,0.1c56.2,0,113.8-6.9,153.6-14.6c42.1-8.1,32-13.7,32-13.7
		C483.1,317.9,487.5,328.4,485.4,336.3z"/>
	<g>
		<g>
			<path class="st2" d="M114.6,231.8L114.6,231.8c-3.6-0.1-7-0.2-10.4-0.2c-6.3-0.1-12.3-0.1-18-0.9c-18.4-2.6-42.7-12.4-52.3-16.5
				c-1.1-0.5-1.8-1.7-1.7-2.9l3.8-31.5c0.1-1,0.8-1.9,1.8-2.3c5.6-2.1,136.8-51.7,157.7-54c0.2,0,0.4,0,0.5,0c1,0,2.5,0.3,4.1,1.9
				c3.2,3.3,5.8,11.9,7.7,25.5c1.6,11.1,2.3,22,2.1,26.7c-0.2,5.7-9.8,9.3-31.5,16.8c-12.8,4.4-27.2,9.5-39.1,15.5
				c-13,6.6-20.4,13.2-22,19.7C117,231,115.9,231.8,114.6,231.8z"/>
		</g>
		<path d="M210.6,150.6c-0.9-6-1.9-11.2-3-15.4c-1.6-5.7-3.3-9.4-5.4-11.6c-2.2-2.3-4.5-2.8-6.1-2.8c-0.3,0-0.6,0-0.8,0
			c-5.2,0.6-16.4,3.7-34.4,9.6c-13.9,4.6-31.8,10.8-53.1,18.4c-36.3,13-70.5,26-70.8,26.1c-1.9,0.7-3.3,2.5-3.6,4.5L29.5,211
			c-0.3,2.4,1.1,4.8,3.3,5.8c9.7,4.1,34.3,14,53,16.7c5.8,0.8,11.9,0.9,18.3,0.9c3.3,0,6.7,0.1,10.2,0.2c0.1,0,0.2,0,0.2,0
			c2.5,0,4.8-1.7,5.4-4.2c0.7-2.8,2.8-5.8,6.2-8.8c3.4-3,8.2-6.1,14.3-9.1c11.7-5.9,26.1-10.9,38.8-15.3c8.4-2.9,15.7-5.5,21.3-7.9
			c3.2-1.4,5.6-2.7,7.4-4c3-2.2,4.6-4.7,4.7-7.4C212.9,173,212.2,161.8,210.6,150.6z M207.1,177.6c-0.4,10.5-85.7,24-92.5,51.5
			c-10.1-0.4-19.6,0.1-28-1.1c-18.3-2.6-42.8-12.6-51.6-16.3l3.8-31.5c0,0,136.3-51.5,157-53.8c0.1,0,0.2,0,0.2,0
			C203.6,126.3,207.5,167.2,207.1,177.6z"/>
	</g>
	<g>
		<g>
			<path class="st2" d="M97.6,228c-18.3-2.6-42.8-12.6-51.6-16.3l3.8-31.5c0,0,113.2-42.8,148.9-52.1c-0.9-1.2-1.8-1.8-2.8-1.7
				c-20.7,2.3-157,53.8-157,53.8l-3.8,31.5c8.8,3.7,33.3,13.7,51.6,16.3c8.4,1.2,17.9,0.7,28,1.1c0-0.1,0-0.1,0.1-0.2
				C108.6,228.8,102.9,228.7,97.6,228z"/>
		</g>
	</g>
	<g>
		<path d="M109.6,238.5c-0.4,0-0.8,0-1.2,0c-0.4,0-0.6-0.3-0.6-0.6c0-0.4,0.3-0.6,0.6-0.6c0.9,0,1.7,0,2.5,0l0,0
			c0.3,0,0.6,0.3,0.6,0.6c0,0.4-0.3,0.6-0.6,0.6C110.5,238.5,110.1,238.5,109.6,238.5z M105.8,238.5L105.8,238.5
			c-0.9,0-1.7-0.1-2.6-0.1c-0.4,0-0.6-0.3-0.6-0.7s0.3-0.6,0.7-0.6c0.9,0,1.7,0.1,2.6,0.1c0.4,0,0.6,0.3,0.6,0.7
			C106.5,238.2,106.2,238.5,105.8,238.5z M113.5,238.5c-0.3,0-0.6-0.3-0.6-0.6c0-0.4,0.3-0.7,0.6-0.7l0,0c0.8,0,1.7-0.1,2.5-0.1
			c0.4,0,0.7,0.2,0.7,0.6c0,0.4-0.2,0.7-0.6,0.7C115.3,238.4,114.4,238.4,113.5,238.5L113.5,238.5
			C113.6,238.5,113.5,238.5,113.5,238.5z M100.7,238.2L100.7,238.2c-0.9-0.1-1.8-0.1-2.6-0.2c-0.4,0-0.6-0.3-0.6-0.7
			s0.3-0.6,0.7-0.6c0.8,0.1,1.7,0.2,2.5,0.2c0.4,0,0.6,0.3,0.6,0.7C101.3,237.9,101,238.2,100.7,238.2z M118.7,238.2
			c-0.3,0-0.6-0.3-0.6-0.6c0-0.4,0.2-0.7,0.6-0.7c0.8-0.1,1.7-0.1,2.5-0.2c0.4,0,0.7,0.2,0.7,0.6c0,0.4-0.2,0.7-0.6,0.7
			C120.4,238,119.6,238.1,118.7,238.2L118.7,238.2z M95.6,237.7L95.6,237.7c-0.9-0.1-1.8-0.2-2.6-0.3c-0.4,0-0.6-0.4-0.6-0.7
			c0-0.4,0.4-0.6,0.7-0.6c0.8,0.1,1.7,0.2,2.5,0.3c0.4,0,0.6,0.4,0.6,0.7C96.2,237.5,95.9,237.7,95.6,237.7z M123.8,237.7
			c-0.3,0-0.6-0.2-0.6-0.6c0-0.4,0.2-0.7,0.6-0.7c0.8-0.1,1.7-0.2,2.5-0.3c0.4,0,0.7,0.2,0.7,0.6c0,0.4-0.2,0.7-0.6,0.7
			C125.6,237.5,124.7,237.6,123.8,237.7L123.8,237.7z M90.5,237.1L90.5,237.1c-0.9-0.1-1.8-0.3-2.6-0.4c-0.3-0.1-0.6-0.4-0.5-0.7
			s0.4-0.6,0.7-0.5c0.8,0.1,1.7,0.3,2.5,0.4c0.4,0.1,0.6,0.4,0.5,0.7C91.1,236.8,90.8,237.1,90.5,237.1z M128.9,237
			c-0.3,0-0.6-0.2-0.6-0.5c-0.1-0.4,0.2-0.7,0.5-0.7c0.8-0.1,1.7-0.2,2.5-0.4c0.3-0.1,0.7,0.2,0.7,0.5c0.1,0.3-0.2,0.7-0.5,0.7
			C130.7,236.8,129.8,236.9,128.9,237L128.9,237z M85.5,236.3L85.5,236.3c-0.9-0.1-1.8-0.3-2.6-0.5c-0.3-0.1-0.6-0.4-0.5-0.7
			s0.4-0.6,0.7-0.5c0.8,0.2,1.7,0.3,2.5,0.5c0.3,0.1,0.6,0.4,0.5,0.7C86,236,85.8,236.3,85.5,236.3z M133.9,236.2
			c-0.3,0-0.6-0.2-0.6-0.5c-0.1-0.3,0.2-0.7,0.5-0.7c0.8-0.1,1.7-0.3,2.5-0.5c0.3-0.1,0.7,0.2,0.7,0.5c0.1,0.3-0.2,0.7-0.5,0.7
			C135.7,235.9,134.8,236,133.9,236.2C134,236.2,134,236.2,133.9,236.2z M80.4,235.3L80.4,235.3c-0.9-0.2-1.8-0.3-2.6-0.5
			c-0.3-0.1-0.6-0.4-0.5-0.8c0.1-0.3,0.4-0.6,0.8-0.5c0.8,0.2,1.7,0.4,2.5,0.5c0.3,0.1,0.6,0.4,0.5,0.8
			C81,235.1,80.7,235.3,80.4,235.3z M139,235.3c-0.3,0-0.6-0.2-0.6-0.5c-0.1-0.3,0.2-0.7,0.5-0.8c0.8-0.2,1.7-0.3,2.5-0.5
			c0.3-0.1,0.7,0.1,0.8,0.5c0.1,0.3-0.1,0.7-0.5,0.8c-0.8,0.2-1.7,0.4-2.5,0.5C139.1,235.3,139,235.3,139,235.3z M75.4,234.2
			L75.4,234.2c-0.9-0.2-1.8-0.4-2.6-0.6c-0.3-0.1-0.6-0.4-0.5-0.8c0.1-0.3,0.4-0.6,0.8-0.5c0.8,0.2,1.7,0.4,2.5,0.6
			c0.3,0.1,0.6,0.4,0.5,0.8C76,234,75.7,234.2,75.4,234.2z M144,234.2c-0.3,0-0.6-0.2-0.6-0.5c-0.1-0.3,0.1-0.7,0.5-0.8
			c0.8-0.2,1.7-0.4,2.5-0.6c0.3-0.1,0.7,0.1,0.8,0.5c0.1,0.3-0.1,0.7-0.5,0.8c-0.8,0.2-1.7,0.4-2.5,0.6
			C144.1,234.2,144,234.2,144,234.2z M70.4,233c-0.1,0-0.1,0-0.2,0c-0.8-0.2-1.7-0.4-2.5-0.7c-0.3-0.1-0.5-0.4-0.5-0.8
			c0.1-0.3,0.4-0.5,0.8-0.5c0.8,0.2,1.7,0.4,2.5,0.6c0.3,0.1,0.5,0.4,0.5,0.8C71,232.8,70.7,233,70.4,233z M149,233
			c-0.3,0-0.5-0.2-0.6-0.5s0.1-0.7,0.5-0.8c0.8-0.2,1.7-0.4,2.5-0.6c0.3-0.1,0.7,0.1,0.8,0.5c0.1,0.3-0.1,0.7-0.5,0.8
			c-0.8,0.2-1.7,0.4-2.5,0.6C149.1,233,149,233,149,233z M65.5,231.7c-0.1,0-0.1,0-0.2,0c-0.8-0.2-1.7-0.5-2.5-0.7
			c-0.3-0.1-0.5-0.5-0.4-0.8s0.5-0.5,0.8-0.4c0.8,0.2,1.6,0.5,2.5,0.7c0.3,0.1,0.5,0.4,0.4,0.8C66,231.5,65.7,231.7,65.5,231.7z
			 M153.9,231.7c-0.3,0-0.5-0.2-0.6-0.5s0.1-0.7,0.4-0.8c0.8-0.2,1.7-0.5,2.5-0.7c0.3-0.1,0.7,0.1,0.8,0.4c0.1,0.3-0.1,0.7-0.4,0.8
			c-0.8,0.2-1.6,0.5-2.5,0.7C154,231.7,154,231.7,153.9,231.7z M60.5,230.3c-0.1,0-0.1,0-0.2,0c-0.8-0.3-1.7-0.5-2.5-0.8
			c-0.3-0.1-0.5-0.5-0.4-0.8s0.5-0.5,0.8-0.4c0.8,0.3,1.6,0.5,2.4,0.8c0.3,0.1,0.5,0.5,0.4,0.8C61.1,230.1,60.8,230.3,60.5,230.3z
			 M158.9,230.2c-0.3,0-0.5-0.2-0.6-0.5s0.1-0.7,0.4-0.8c0.8-0.3,1.6-0.5,2.4-0.8c0.3-0.1,0.7,0.1,0.8,0.4c0.1,0.3-0.1,0.7-0.4,0.8
			c-0.8,0.3-1.6,0.5-2.5,0.8C159,230.2,158.9,230.2,158.9,230.2z M55.6,228.7c-0.1,0-0.1,0-0.2,0c-0.8-0.3-1.6-0.5-2.4-0.8
			c-0.3-0.1-0.5-0.5-0.4-0.8s0.5-0.5,0.8-0.4c0.8,0.3,1.6,0.5,2.4,0.8c0.3,0.1,0.5,0.5,0.4,0.8C56.2,228.6,55.9,228.7,55.6,228.7z
			 M163.8,228.7c-0.3,0-0.5-0.2-0.6-0.4c-0.1-0.3,0.1-0.7,0.4-0.8c0.8-0.3,1.6-0.5,2.4-0.8c0.3-0.1,0.7,0.1,0.8,0.4
			c0.1,0.3-0.1,0.7-0.4,0.8c-0.8,0.3-1.6,0.5-2.4,0.8C163.9,228.7,163.8,228.7,163.8,228.7z M50.8,227.1c-0.1,0-0.1,0-0.2,0
			c-0.8-0.3-1.6-0.6-2.4-0.8c-0.3-0.1-0.5-0.5-0.4-0.8s0.5-0.5,0.8-0.4c0.8,0.3,1.6,0.6,2.4,0.8c0.3,0.1,0.5,0.5,0.4,0.8
			C51.3,226.9,51,227.1,50.8,227.1z M168.6,227.1c-0.3,0-0.5-0.2-0.6-0.4c-0.1-0.3,0.1-0.7,0.4-0.8c0.8-0.3,1.6-0.6,2.4-0.9
			c0.3-0.1,0.7,0.1,0.8,0.4c0.1,0.3-0.1,0.7-0.4,0.8c-0.8,0.3-1.6,0.6-2.4,0.9C168.8,227.1,168.7,227.1,168.6,227.1z M45.9,225.4
			c-0.1,0-0.1,0-0.2,0c-0.8-0.3-1.6-0.6-2.4-0.9c-0.3-0.1-0.5-0.5-0.4-0.8s0.5-0.5,0.8-0.4c0.8,0.3,1.6,0.6,2.4,0.9
			c0.3,0.1,0.5,0.5,0.4,0.8C46.4,225.2,46.2,225.4,45.9,225.4z M173.4,225.3c-0.3,0-0.5-0.2-0.6-0.4c-0.1-0.3,0-0.7,0.4-0.8
			c0.8-0.3,1.6-0.6,2.4-0.9c0.3-0.1,0.7,0,0.8,0.4c0.1,0.3,0,0.7-0.4,0.8c-0.8,0.3-1.6,0.6-2.4,0.9
			C173.6,225.3,173.5,225.3,173.4,225.3z M41.1,223.6c-0.1,0-0.2,0-0.2,0c-0.8-0.3-1.6-0.6-2.4-0.9c-0.3-0.1-0.5-0.5-0.4-0.8
			s0.5-0.5,0.8-0.4c0.8,0.3,1.6,0.6,2.4,0.9c0.3,0.1,0.5,0.5,0.4,0.8C41.6,223.4,41.4,223.6,41.1,223.6z M178.2,223.5
			c-0.3,0-0.5-0.2-0.6-0.4c-0.1-0.3,0-0.7,0.4-0.8c0.8-0.3,1.6-0.7,2.4-1c0.3-0.1,0.7,0,0.8,0.3s0,0.7-0.3,0.8
			c-0.7,0.3-1.6,0.6-2.4,1C178.4,223.5,178.3,223.5,178.2,223.5z M36.4,221.7c-0.1,0-0.2,0-0.2,0c-0.8-0.3-1.6-0.7-2.4-1
			c-0.3-0.1-0.5-0.5-0.3-0.8c0.1-0.3,0.5-0.5,0.8-0.3c0.8,0.3,1.6,0.7,2.4,1c0.3,0.1,0.5,0.5,0.3,0.8
			C36.9,221.5,36.6,221.7,36.4,221.7z M31.6,219.7c-0.1,0-0.2,0-0.3-0.1c-1.5-0.7-2.4-1.1-2.4-1.1c-0.3-0.2-0.5-0.5-0.3-0.9
			c0.2-0.3,0.5-0.5,0.9-0.3c0,0,0.8,0.4,2.3,1.1c0.3,0.1,0.5,0.5,0.3,0.8C32.1,219.5,31.9,219.7,31.6,219.7z"/>
	</g>
	<g>
		<path d="M265.4,340.7c-0.1,0-0.2,0-0.3-0.1c-0.3-0.2-0.4-0.6-0.2-0.9c0.4-0.6,0.8-1.3,1.4-2.2c0.2-0.3,0.6-0.4,0.9-0.2
			c0.3,0.2,0.4,0.6,0.2,0.9c-0.5,0.8-1,1.6-1.4,2.2C265.8,340.6,265.6,340.7,265.4,340.7z M268.1,336.3c-0.1,0-0.2,0-0.3-0.1
			c-0.3-0.2-0.4-0.6-0.2-0.9c0.4-0.7,0.9-1.4,1.3-2.2c0.2-0.3,0.6-0.4,0.9-0.2c0.3,0.2,0.4,0.6,0.2,0.9c-0.5,0.8-0.9,1.5-1.3,2.2
			C268.5,336.2,268.3,336.3,268.1,336.3z M270.7,331.9c-0.1,0-0.2,0-0.3-0.1c-0.3-0.2-0.4-0.6-0.2-0.9c0.4-0.7,0.9-1.5,1.3-2.2
			c0.2-0.3,0.6-0.4,0.9-0.2c0.3,0.2,0.4,0.6,0.2,0.9c-0.4,0.8-0.9,1.5-1.3,2.2C271.2,331.8,271,331.9,270.7,331.9z M273.3,327.5
			c-0.1,0-0.2,0-0.3-0.1c-0.3-0.2-0.4-0.6-0.2-0.9c0.4-0.7,0.8-1.5,1.3-2.2c0.2-0.3,0.6-0.4,0.9-0.2c0.3,0.2,0.4,0.6,0.2,0.9
			c-0.4,0.8-0.9,1.5-1.3,2.2C273.8,327.3,273.6,327.5,273.3,327.5z M275.9,323c-0.1,0-0.2,0-0.3-0.1c-0.3-0.2-0.4-0.6-0.2-0.9
			c0.4-0.7,0.8-1.5,1.3-2.2c0.2-0.3,0.6-0.4,0.9-0.2c0.3,0.2,0.4,0.6,0.2,0.9c-0.4,0.8-0.8,1.5-1.3,2.2
			C276.3,322.9,276.1,323,275.9,323z M278.4,318.5c-0.1,0-0.2,0-0.3-0.1c-0.3-0.2-0.4-0.6-0.3-0.9c0.4-0.8,0.8-1.5,1.2-2.3
			c0.2-0.3,0.6-0.4,0.9-0.3c0.3,0.2,0.4,0.6,0.3,0.9c-0.4,0.8-0.8,1.5-1.2,2.3C278.8,318.4,278.6,318.5,278.4,318.5z M280.8,314
			c-0.1,0-0.2,0-0.3-0.1c-0.3-0.2-0.4-0.6-0.3-0.9c0.4-0.8,0.8-1.5,1.2-2.3c0.2-0.3,0.5-0.4,0.9-0.3c0.3,0.2,0.4,0.5,0.3,0.9
			c-0.4,0.7-0.8,1.5-1.2,2.3C281.2,313.8,281,314,280.8,314z M283.1,309.4c-0.1,0-0.2,0-0.3-0.1c-0.3-0.2-0.4-0.5-0.3-0.9
			c0.4-0.8,0.8-1.6,1.1-2.3c0.2-0.3,0.5-0.5,0.9-0.3c0.3,0.2,0.5,0.5,0.3,0.9c-0.4,0.7-0.7,1.5-1.1,2.3
			C283.6,309.3,283.3,309.4,283.1,309.4z M285.3,304.7c-0.1,0-0.2,0-0.3-0.1c-0.3-0.1-0.5-0.5-0.3-0.8c0.4-0.8,0.7-1.6,1-2.3
			c0.1-0.3,0.5-0.5,0.8-0.3c0.3,0.1,0.5,0.5,0.3,0.8c-0.3,0.8-0.7,1.6-1,2.4C285.8,304.6,285.5,304.7,285.3,304.7z M287.2,300
			c-0.1,0-0.1,0-0.2,0c-0.3-0.1-0.5-0.5-0.4-0.8c0.3-0.9,0.6-1.7,0.8-2.4c0.1-0.3,0.5-0.5,0.8-0.4s0.5,0.5,0.4,0.8
			c-0.2,0.8-0.5,1.6-0.8,2.5C287.7,299.8,287.5,300,287.2,300z M288.7,295.1h-0.1c-0.3-0.1-0.6-0.4-0.5-0.8s0.2-0.9,0.2-1.2
			c0-0.4,0.1-0.8,0.1-1.2c0-0.4,0.3-0.6,0.7-0.6c0.4,0,0.6,0.3,0.6,0.7c0,0.5-0.1,0.9-0.1,1.3s-0.1,0.9-0.2,1.4
			C289.3,294.9,289,295.1,288.7,295.1z M289.2,290L289.2,290c-0.4,0-0.7-0.3-0.6-0.7c0-0.8,0.1-1.6,0.1-2.5c0-0.4,0.3-0.6,0.7-0.6
			c0.4,0,0.6,0.3,0.6,0.7c0,0.9,0,1.8-0.1,2.6C289.8,289.7,289.5,290,289.2,290z M289.3,284.8L289.3,284.8c-0.4,0-0.6-0.3-0.6-0.6
			c0-0.4,0-0.7,0-1.1c0-0.5,0-1,0-1.4s0.3-0.6,0.6-0.6l0,0c0.4,0,0.6,0.3,0.6,0.6c0,0.5,0,1,0,1.4s0,0.8,0,1.1
			C289.9,284.6,289.6,284.8,289.3,284.8z M289.2,279.7c-0.3,0-0.6-0.3-0.6-0.6c0-0.8,0-1.7,0-2.6c0-0.4,0.3-0.6,0.6-0.7
			c0.4,0,0.6,0.3,0.7,0.6c0,0.9,0,1.7,0,2.6C289.9,279.4,289.6,279.7,289.2,279.7C289.3,279.7,289.3,279.7,289.2,279.7z
			 M289.1,274.6c-0.3,0-0.6-0.3-0.6-0.6c0-0.8,0-1.7-0.1-2.6c0-0.4,0.3-0.6,0.6-0.7c0.4,0,0.6,0.3,0.7,0.6c0,0.9,0,1.7,0.1,2.6
			C289.8,274.3,289.5,274.6,289.1,274.6C289.2,274.6,289.2,274.6,289.1,274.6z M289,269.4c-0.3,0-0.6-0.3-0.6-0.6
			c0-0.9-0.1-1.7-0.1-2.6c0-0.4,0.3-0.7,0.6-0.7c0.4,0,0.7,0.3,0.7,0.6c0,0.9,0.1,1.7,0.1,2.6C289.7,269.1,289.4,269.4,289,269.4
			L289,269.4z M288.8,264.3c-0.3,0-0.6-0.3-0.6-0.6c0-0.9-0.1-1.7-0.1-2.6c0-0.4,0.3-0.7,0.6-0.7c0.4,0,0.7,0.3,0.7,0.6
			c0,0.8,0.1,1.7,0.1,2.6C289.5,264,289.2,264.3,288.8,264.3L288.8,264.3z M288.6,259.2c-0.3,0-0.6-0.3-0.6-0.6
			c0-0.9-0.1-1.7-0.1-2.6c0-0.4,0.3-0.7,0.6-0.7c0.4,0,0.7,0.3,0.7,0.6c0,0.8,0.1,1.7,0.1,2.6C289.2,258.9,289,259.2,288.6,259.2
			L288.6,259.2z M288.3,254.1c-0.3,0-0.6-0.3-0.6-0.6c0-0.9-0.1-1.7-0.1-2.6c0-0.4,0.3-0.7,0.6-0.7c0.4,0,0.7,0.3,0.7,0.6
			c0,0.8,0.1,1.7,0.1,2.6C289,253.7,288.7,254,288.3,254.1C288.4,254.1,288.4,254.1,288.3,254.1z M288.1,248.9
			c-0.3,0-0.6-0.3-0.6-0.6c0-0.9-0.1-1.8-0.1-2.6c0-0.4,0.3-0.7,0.6-0.7c0.4,0,0.7,0.3,0.7,0.6c0,0.8,0.1,1.6,0.1,2.6
			C288.7,248.6,288.5,248.9,288.1,248.9L288.1,248.9z M287.8,243.8c-0.3,0-0.6-0.3-0.6-0.6c-0.1-1.6-0.2-2.6-0.2-2.6
			c0-0.4,0.2-0.7,0.6-0.7s0.7,0.2,0.7,0.6c0,0,0.1,0.9,0.2,2.6C288.5,243.5,288.2,243.8,287.8,243.8L287.8,243.8z"/>
	</g>
	<g>
		<path d="M310.7,341.1c-0.1,0-0.2,0-0.3-0.1c-0.3-0.2-0.4-0.6-0.2-0.9c0.4-0.6,0.8-1.4,1.3-2.2c0.2-0.3,0.6-0.4,0.9-0.2
			c0.3,0.2,0.4,0.6,0.2,0.9c-0.5,0.8-1,1.6-1.3,2.2C311.1,341,310.9,341.1,310.7,341.1z M313.3,336.7c-0.1,0-0.2,0-0.3-0.1
			c-0.3-0.2-0.4-0.6-0.2-0.9c0.4-0.7,0.9-1.4,1.4-2.2c0.2-0.3,0.6-0.4,0.9-0.2c0.3,0.2,0.4,0.6,0.2,0.9c-0.5,0.8-1,1.5-1.4,2.1
			C313.8,336.6,313.5,336.7,313.3,336.7z M316.2,332.4c-0.1,0-0.2,0-0.4-0.1c-0.3-0.2-0.4-0.6-0.2-0.9c0.5-0.7,0.9-1.4,1.4-2.1
			c0.2-0.3,0.6-0.4,0.9-0.2c0.3,0.2,0.4,0.6,0.2,0.9c-0.5,0.7-1,1.4-1.4,2.1C316.6,332.3,316.4,332.4,316.2,332.4z M319.1,328.2
			c-0.1,0-0.3,0-0.4-0.1c-0.3-0.2-0.4-0.6-0.2-0.9c0.5-0.7,1-1.4,1.5-2.1c0.2-0.3,0.6-0.4,0.9-0.2c0.3,0.2,0.4,0.6,0.2,0.9
			c-0.5,0.7-1,1.4-1.5,2.1C319.5,328.1,319.3,328.2,319.1,328.2z M322,324c-0.1,0-0.3,0-0.4-0.1c-0.3-0.2-0.4-0.6-0.2-0.9
			c0.5-0.7,1-1.4,1.5-2.1c0.2-0.3,0.6-0.4,0.9-0.2c0.3,0.2,0.4,0.6,0.2,0.9c-0.5,0.7-1,1.4-1.5,2.1C322.4,323.9,322.2,324,322,324z
			 M325,319.8c-0.1,0-0.3,0-0.4-0.1c-0.3-0.2-0.4-0.6-0.1-0.9c0.5-0.7,1-1.4,1.5-2.1c0.2-0.3,0.6-0.4,0.9-0.1
			c0.3,0.2,0.4,0.6,0.1,0.9c-0.5,0.7-1,1.4-1.5,2.1C325.4,319.7,325.2,319.8,325,319.8z M328,315.6c-0.1,0-0.3,0-0.4-0.1
			c-0.3-0.2-0.3-0.6-0.1-0.9c0.5-0.7,1-1.4,1.5-2.1c0.2-0.3,0.6-0.3,0.9-0.1c0.3,0.2,0.3,0.6,0.1,0.9c-0.5,0.7-1,1.4-1.5,2.1
			C328.4,315.5,328.2,315.6,328,315.6z M331,311.5c-0.1,0-0.3,0-0.4-0.1c-0.3-0.2-0.3-0.6-0.1-0.9c0.5-0.7,1-1.4,1.5-2.1
			c0.2-0.3,0.6-0.3,0.9-0.1c0.3,0.2,0.3,0.6,0.1,0.9c-0.5,0.7-1,1.4-1.5,2.1C331.4,311.4,331.2,311.5,331,311.5z M334.1,307.4
			c-0.1,0-0.3,0-0.4-0.1c-0.3-0.2-0.3-0.6-0.1-0.9c0.5-0.7,1-1.4,1.5-2.1c0.2-0.3,0.6-0.3,0.9-0.1c0.3,0.2,0.3,0.6,0.1,0.9
			c-0.5,0.7-1,1.4-1.5,2C334.5,307.3,334.3,307.4,334.1,307.4z M337.2,303.3c-0.1,0-0.3,0-0.4-0.1c-0.3-0.2-0.3-0.6-0.1-0.9
			c0.5-0.7,1-1.4,1.6-2c0.2-0.3,0.6-0.3,0.9-0.1c0.3,0.2,0.3,0.6,0.1,0.9c-0.5,0.7-1,1.3-1.6,2C337.6,303.2,337.4,303.3,337.2,303.3
			z M340.3,299.2c-0.1,0-0.3,0-0.4-0.1c-0.3-0.2-0.3-0.6-0.1-0.9c0.5-0.7,1.1-1.4,1.6-2c0.2-0.3,0.6-0.3,0.9-0.1
			c0.3,0.2,0.3,0.6,0.1,0.9c-0.5,0.7-1,1.3-1.6,2C340.7,299.1,340.5,299.2,340.3,299.2z M343.5,295.2c-0.1,0-0.3,0-0.4-0.1
			c-0.3-0.2-0.3-0.6-0.1-0.9c0.6-0.7,1.1-1.4,1.6-2c0.2-0.3,0.6-0.3,0.9-0.1c0.3,0.2,0.3,0.6,0.1,0.9c-0.5,0.6-1.1,1.3-1.6,2
			C343.9,295.1,343.7,295.2,343.5,295.2z M346.8,291.2c-0.1,0-0.3-0.1-0.4-0.2c-0.3-0.2-0.3-0.6-0.1-0.9c0.5-0.6,1-1.2,1.5-1.7
			c0.1-0.1,0.1-0.1,0.2-0.2c0.2-0.3,0.6-0.3,0.9-0.1c0.3,0.2,0.3,0.6,0.1,0.9c-0.1,0.1-0.1,0.1-0.2,0.2c-0.5,0.5-1,1.1-1.5,1.7
			C347.2,291.1,347,291.2,346.8,291.2z M350.1,287.3c-0.1,0-0.3,0-0.4-0.1c-0.3-0.2-0.3-0.6-0.1-0.9c0.5-0.7,1-1.4,1.4-2.1
			c0.2-0.3,0.6-0.4,0.9-0.2c0.3,0.2,0.4,0.6,0.2,0.9c-0.4,0.7-0.9,1.4-1.5,2.2C350.5,287.2,350.3,287.3,350.1,287.3z M352.7,282.9
			c-0.1,0-0.2,0-0.3-0.1c-0.3-0.1-0.5-0.5-0.3-0.8c0.4-0.8,0.6-1.6,0.9-2.3c0.1-0.3,0.5-0.5,0.8-0.4s0.5,0.5,0.4,0.8
			c-0.2,0.8-0.6,1.7-0.9,2.5C353.2,282.8,353,282.9,352.7,282.9z M354.1,278L354.1,278c-0.4,0-0.7-0.4-0.6-0.7
			c0-0.4,0.1-0.8,0.1-1.2c0-0.4,0-0.8-0.1-1.2c0-0.4,0.2-0.7,0.6-0.7s0.7,0.2,0.7,0.6s0.1,0.9,0.1,1.4c0,0.4,0,0.9-0.1,1.3
			C354.7,277.8,354.5,278,354.1,278z M353.6,273c-0.3,0-0.5-0.2-0.6-0.4c-0.5-1.3-1.1-2.1-1.1-2.1c-0.2-0.3-0.2-0.7,0.1-0.9
			c0.3-0.2,0.7-0.2,0.9,0.1c0,0,0.8,0.9,1.3,2.4c0.1,0.3,0,0.7-0.4,0.8C353.7,272.9,353.6,273,353.6,273z"/>
	</g>
	<g>
		<path d="M308.3,339.2c-0.1,0-0.2,0-0.3-0.1c-0.3-0.2-0.4-0.6-0.2-0.9c0.4-0.6,0.8-1.4,1.3-2.2c0.2-0.3,0.6-0.4,0.9-0.2
			c0.3,0.2,0.4,0.6,0.2,0.9c-0.5,0.8-1,1.6-1.3,2.2C308.7,339,308.5,339.2,308.3,339.2z M311,334.8c-0.1,0-0.2,0-0.3-0.1
			c-0.3-0.2-0.4-0.6-0.2-0.9c0.4-0.7,0.9-1.4,1.4-2.2c0.2-0.3,0.6-0.4,0.9-0.2c0.3,0.2,0.4,0.6,0.2,0.9c-0.5,0.8-1,1.5-1.4,2.1
			C311.4,334.7,311.2,334.8,311,334.8z M313.8,330.5c-0.1,0-0.2,0-0.4-0.1c-0.3-0.2-0.4-0.6-0.2-0.9c0.5-0.7,0.9-1.4,1.4-2.1
			c0.2-0.3,0.6-0.4,0.9-0.2c0.3,0.2,0.4,0.6,0.2,0.9c-0.5,0.7-1,1.4-1.4,2.1C314.2,330.4,314,330.5,313.8,330.5z M316.7,326.3
			c-0.1,0-0.3,0-0.4-0.1c-0.3-0.2-0.4-0.6-0.2-0.9c0.5-0.7,1-1.4,1.5-2.1c0.2-0.3,0.6-0.4,0.9-0.2c0.3,0.2,0.4,0.6,0.2,0.9
			c-0.5,0.7-1,1.4-1.5,2.1C317.1,326.2,316.9,326.3,316.7,326.3z M319.7,322c-0.1,0-0.3,0-0.4-0.1c-0.3-0.2-0.4-0.6-0.2-0.9
			c0.5-0.7,1-1.4,1.5-2.1c0.2-0.3,0.6-0.4,0.9-0.2c0.3,0.2,0.4,0.6,0.2,0.9c-0.5,0.7-1,1.4-1.5,2.1C320.1,322,319.9,322,319.7,322z
			 M322.6,317.9c-0.1,0-0.3,0-0.4-0.1c-0.3-0.2-0.4-0.6-0.1-0.9c0.5-0.7,1-1.4,1.5-2.1c0.2-0.3,0.6-0.4,0.9-0.1
			c0.3,0.2,0.4,0.6,0.1,0.9c-0.5,0.7-1,1.4-1.5,2.1C323,317.8,322.8,317.9,322.6,317.9z M325.7,313.7c-0.1,0-0.3,0-0.4-0.1
			c-0.3-0.2-0.3-0.6-0.1-0.9c0.5-0.7,1-1.4,1.5-2.1c0.2-0.3,0.6-0.3,0.9-0.1c0.3,0.2,0.3,0.6,0.1,0.9c-0.5,0.7-1,1.4-1.5,2.1
			C326,313.6,325.8,313.7,325.7,313.7z M328.7,309.6c-0.1,0-0.3,0-0.4-0.1c-0.3-0.2-0.3-0.6-0.1-0.9c0.5-0.7,1-1.4,1.5-2.1
			c0.2-0.3,0.6-0.3,0.9-0.1c0.3,0.2,0.3,0.6,0.1,0.9c-0.5,0.7-1,1.4-1.5,2.1C329.1,309.5,328.9,309.6,328.7,309.6z M331.8,305.4
			c-0.1,0-0.3,0-0.4-0.1c-0.3-0.2-0.3-0.6-0.1-0.9c0.5-0.7,1-1.4,1.5-2.1c0.2-0.3,0.6-0.3,0.9-0.1c0.3,0.2,0.3,0.6,0.1,0.9
			c-0.5,0.7-1,1.4-1.5,2C332.1,305.4,332,305.4,331.8,305.4z M334.9,301.4c-0.1,0-0.3,0-0.4-0.1c-0.3-0.2-0.3-0.6-0.1-0.9
			c0.5-0.7,1-1.4,1.6-2c0.2-0.3,0.6-0.3,0.9-0.1c0.3,0.2,0.3,0.6,0.1,0.9c-0.5,0.7-1,1.3-1.6,2C335.2,301.3,335,301.4,334.9,301.4z
			 M338,297.3c-0.1,0-0.3,0-0.4-0.1c-0.3-0.2-0.3-0.6-0.1-0.9c0.5-0.7,1.1-1.4,1.6-2c0.2-0.3,0.6-0.3,0.9-0.1
			c0.3,0.2,0.3,0.6,0.1,0.9c-0.5,0.7-1,1.3-1.6,2C338.4,297.2,338.2,297.3,338,297.3z M341.2,293.3c-0.1,0-0.3,0-0.4-0.1
			c-0.3-0.2-0.3-0.6-0.1-0.9c0.6-0.7,1.1-1.4,1.6-2c0.2-0.3,0.6-0.3,0.9-0.1c0.3,0.2,0.3,0.6,0.1,0.9c-0.5,0.6-1.1,1.3-1.6,2
			C341.6,293.2,341.4,293.3,341.2,293.3z M344.4,289.3c-0.1,0-0.3-0.1-0.4-0.2c-0.3-0.2-0.3-0.6-0.1-0.9c0.5-0.6,1-1.2,1.5-1.7
			c0.1-0.1,0.1-0.1,0.2-0.2c0.2-0.3,0.6-0.3,0.9-0.1c0.3,0.2,0.3,0.6,0.1,0.9c-0.1,0.1-0.1,0.1-0.2,0.2c-0.5,0.5-1,1.1-1.5,1.7
			C344.8,289.2,344.6,289.3,344.4,289.3z M347.7,285.4c-0.1,0-0.3,0-0.4-0.1c-0.3-0.2-0.3-0.6-0.1-0.9c0.5-0.7,1-1.4,1.4-2.1
			c0.2-0.3,0.6-0.4,0.9-0.2c0.3,0.2,0.4,0.6,0.2,0.9c-0.4,0.7-0.9,1.4-1.5,2.2C348.1,285.3,347.9,285.4,347.7,285.4z M350.4,281
			c-0.1,0-0.2,0-0.3-0.1c-0.3-0.1-0.5-0.5-0.3-0.8c0.4-0.8,0.6-1.6,0.9-2.3c0.1-0.3,0.5-0.5,0.8-0.4s0.5,0.5,0.4,0.8
			c-0.2,0.8-0.6,1.7-0.9,2.5C350.9,280.9,350.6,281,350.4,281z M351.8,276.1C351.8,276.1,351.7,276.1,351.8,276.1
			c-0.4,0-0.7-0.4-0.6-0.7c0-0.4,0.1-0.8,0.1-1.2c0-0.4,0-0.8-0.1-1.2c0-0.4,0.2-0.7,0.6-0.7s0.7,0.2,0.7,0.6s0.1,0.9,0.1,1.4
			c0,0.4,0,0.9-0.1,1.3C352.4,275.8,352.1,276.1,351.8,276.1z M351.2,271c-0.3,0-0.5-0.2-0.6-0.4c-0.5-1.3-1.1-2.1-1.1-2.1
			c-0.2-0.3-0.2-0.7,0.1-0.9c0.3-0.2,0.7-0.2,0.9,0.1c0,0,0.8,0.9,1.3,2.4c0.1,0.3,0,0.7-0.4,0.8C351.4,271,351.3,271,351.2,271z"/>
	</g>
	<g>
		<path d="M342.2,300.9c-0.1,0-0.2,0-0.3-0.1l-2.3-1.1c-0.3-0.2-0.5-0.5-0.3-0.9c0.2-0.3,0.5-0.5,0.9-0.3l2.3,1.1
			c0.3,0.2,0.5,0.5,0.3,0.9C342.7,300.8,342.4,300.9,342.2,300.9z M337.6,298.6c-0.1,0-0.2,0-0.3-0.1l-2.3-1.1
			c-0.3-0.2-0.5-0.5-0.3-0.9c0.2-0.3,0.5-0.5,0.9-0.3l2.3,1.1c0.3,0.2,0.5,0.5,0.3,0.9C338.1,298.5,337.8,298.6,337.6,298.6z
			 M333,296.4c-0.1,0-0.2,0-0.3-0.1l-2.3-1.1c-0.3-0.2-0.5-0.5-0.3-0.9c0.2-0.3,0.5-0.5,0.9-0.3l2.3,1.1c0.3,0.2,0.5,0.5,0.3,0.9
			C333.4,296.3,333.2,296.4,333,296.4z M328.4,294.2c-0.1,0-0.2,0-0.3-0.1l-2.3-1.1c-0.3-0.2-0.5-0.5-0.3-0.9
			c0.2-0.3,0.5-0.5,0.9-0.3l2.3,1.1c0.3,0.2,0.5,0.5,0.3,0.9C328.8,294,328.6,294.2,328.4,294.2z M323.8,291.9c-0.1,0-0.2,0-0.3-0.1
			l-2.3-1.1c-0.3-0.2-0.5-0.5-0.3-0.9c0.2-0.3,0.5-0.5,0.9-0.3l2.3,1.1c0.3,0.2,0.5,0.5,0.3,0.9C324.2,291.8,324,291.9,323.8,291.9z
			 M319.2,289.7c-0.1,0-0.2,0-0.3-0.1l-2.3-1.1c-0.3-0.2-0.5-0.5-0.3-0.9c0.2-0.3,0.5-0.5,0.9-0.3l2.3,1.1c0.3,0.2,0.5,0.5,0.3,0.9
			C319.6,289.5,319.4,289.7,319.2,289.7z M314.5,287.4c-0.1,0-0.2,0-0.3-0.1l-2.3-1.1c-0.3-0.2-0.5-0.5-0.3-0.9
			c0.2-0.3,0.5-0.5,0.9-0.3l2.3,1.1c0.3,0.2,0.5,0.5,0.3,0.9C315,287.3,314.8,287.4,314.5,287.4z M309.9,285.2c-0.1,0-0.2,0-0.3-0.1
			l-2.3-1.1c-0.3-0.2-0.5-0.5-0.3-0.9c0.2-0.3,0.5-0.5,0.9-0.3l2.3,1.1c0.3,0.2,0.5,0.5,0.3,0.9C310.4,285,310.2,285.2,309.9,285.2z
			 M305.3,282.9c-0.1,0-0.2,0-0.3-0.1l-2.3-1.1c-0.3-0.2-0.5-0.5-0.3-0.9c0.2-0.3,0.5-0.5,0.9-0.3l2.3,1.1c0.3,0.2,0.5,0.5,0.3,0.9
			C305.8,282.8,305.6,282.9,305.3,282.9z M300.7,280.7c-0.1,0-0.2,0-0.3-0.1l-2.3-1.1c-0.3-0.2-0.5-0.5-0.3-0.9
			c0.2-0.3,0.5-0.5,0.9-0.3l2.3,1.1c0.3,0.2,0.5,0.5,0.3,0.9C301.2,280.6,301,280.7,300.7,280.7z M296.1,278.5c-0.1,0-0.2,0-0.3-0.1
			l-2.3-1.1c-0.3-0.2-0.5-0.5-0.3-0.9c0.2-0.3,0.5-0.5,0.9-0.3l2.3,1.1c0.3,0.2,0.5,0.5,0.3,0.9
			C296.6,278.3,296.4,278.5,296.1,278.5z M291.5,276.2c-0.1,0-0.2,0-0.3-0.1l-2.3-1.1c-0.3-0.2-0.5-0.5-0.3-0.9
			c0.2-0.3,0.5-0.5,0.9-0.3l2.3,1.1c0.3,0.2,0.5,0.5,0.3,0.9C292,276.1,291.7,276.2,291.5,276.2z M286.9,274c-0.1,0-0.2,0-0.3-0.1
			l-2.3-1.1c-0.3-0.2-0.5-0.5-0.3-0.9c0.2-0.3,0.5-0.5,0.9-0.3l2.3,1.1c0.3,0.2,0.5,0.5,0.3,0.9C287.4,273.8,287.1,274,286.9,274z"
			/>
	</g>
	<g>
		<circle class="st6" cx="194.3" cy="208.1" r="7.5"/>
	</g>
	<g>
		<circle class="st6" cx="188.8" cy="170.6" r="5.9"/>
	</g>
	<g>
		<circle class="st6" cx="227.8" cy="215.6" r="7.5"/>
	</g>
	<g>
		
			<ellipse transform="matrix(0.7071 -0.7071 0.7071 0.7071 -88.4959 243.7037)" class="st6" cx="249.9" cy="228.7" rx="7.3" ry="6.5"/>
	</g>
	<g>
		
			<ellipse transform="matrix(0.7071 -0.7071 0.7071 0.7071 -93.8106 261.8676)" class="st6" cx="269.2" cy="244.2" rx="7.3" ry="6.5"/>
	</g>
	<g>
		
			<ellipse transform="matrix(0.7071 -0.7071 0.7071 0.7071 -92.6255 285.4041)" class="st6" cx="298.2" cy="254.5" rx="7.3" ry="6.5"/>
	</g>
	<g>
		
			<ellipse transform="matrix(0.7071 -0.7071 0.7071 0.7071 -95.054 302.1365)" class="st6" cx="317.2" cy="265.8" rx="7.3" ry="6.5"/>
	</g>
	<g>
		
			<ellipse transform="matrix(0.7071 -0.7071 0.7071 0.7071 -92.3176 318.8978)" class="st6" cx="338.8" cy="270.9" rx="7.3" ry="6.5"/>
	</g>
	<g>
		<g>
			<path d="M189.5,202.5c4.8-5,16.5-14.3,32.8-10l0,0c0,0,5.3,2.6,10.3,9l0,0c0,0-12.2-3.8-17.7-1.7c-4.7,1.8-14.1,10.9-16.9,13.7
				c-0.6,0.6-1.4,0.9-2.3,1c-1.8,0-4.8-0.3-6.8-2.9C186.8,208.9,187.1,205,189.5,202.5z"/>
		</g>
		<g>
			<path d="M233,202.4c0,0-10.5,9.8-11.5,12.2c-1.1,2.3,2.8,7.9,8.3,6.6c5.6-1.3,10.5-11.1,15.4-10.5s5.8,2.3,5.8,2.3
				S235.5,197.9,233,202.4z"/>
		</g>
		<g>
			<path d="M249.6,221.4c0,0-10,6.6-4.1,11.5c6,4.9,15.2-4.5,17.3-4.5s8.5,1.1,11.3,4.1c0,0-4.5-9-10.5-12.6
				C257.7,216.2,249.6,221.4,249.6,221.4z"/>
		</g>
		<g>
			<path d="M266.1,239.3c0,0-5.3,4.3-1.5,9.2s10.9-2.8,13.2-4.7c2.3-1.9,9.6-8.3,13.9-5.8c4.3,2.6,7.5,6.4,7.5,6.4
				s-6.6-10.7-15.6-12C274.6,231.2,268,237.6,266.1,239.3z"/>
		</g>
		<g>
			<path d="M296.8,248.5c0,0-6.4,4.9-3.2,9.8c3.2,4.9,12.4-2.6,12.8-3s7.3-7,11.7-1.1c0,0,1.5-5.1-5.1-9.8
				C306.4,239.7,296.8,248.5,296.8,248.5z"/>
		</g>
		<g>
			<path d="M313.9,260.7c0,0-5.3,7.3-0.6,9.8c4.7,2.6,9.8-1.7,12.4-4.3c2.6-2.6,7.9-6.6,10-5.6c2.1,1.1-1.7-4.9-7.3-6
				C322.9,253.6,318.4,256.2,313.9,260.7z"/>
		</g>
		<g>
			<path d="M346.6,269.9c0,0-5.1,8.3-11.1,5.8c-6-2.6,1.5-8.5,2.1-10.9c0.6-2.3-4.4-7.8-4.4-7.8S350,265.4,346.6,269.9z"/>
		</g>
	</g>
	<g>
		<path d="M268.4,340.7c-0.1,0-0.2,0-0.3-0.1c-0.3-0.2-0.4-0.6-0.2-0.9c0.4-0.6,0.8-1.3,1.4-2.2c0.2-0.3,0.6-0.4,0.9-0.2
			c0.3,0.2,0.4,0.6,0.2,0.9c-0.5,0.8-1,1.6-1.4,2.2C268.8,340.6,268.6,340.7,268.4,340.7z M271.1,336.3c-0.1,0-0.2,0-0.3-0.1
			c-0.3-0.2-0.4-0.6-0.2-0.9c0.4-0.7,0.9-1.4,1.3-2.2c0.2-0.3,0.6-0.4,0.9-0.2c0.3,0.2,0.4,0.6,0.2,0.9c-0.5,0.8-0.9,1.5-1.3,2.2
			C271.5,336.2,271.3,336.3,271.1,336.3z M273.7,331.9c-0.1,0-0.2,0-0.3-0.1c-0.3-0.2-0.4-0.6-0.2-0.9c0.4-0.7,0.9-1.5,1.3-2.2
			c0.2-0.3,0.6-0.4,0.9-0.2c0.3,0.2,0.4,0.6,0.2,0.9c-0.4,0.8-0.9,1.5-1.3,2.2C274.2,331.8,273.9,331.9,273.7,331.9z M276.3,327.5
			c-0.1,0-0.2,0-0.3-0.1c-0.3-0.2-0.4-0.6-0.2-0.9c0.4-0.7,0.8-1.5,1.3-2.2c0.2-0.3,0.6-0.4,0.9-0.2c0.3,0.2,0.4,0.6,0.2,0.9
			c-0.4,0.8-0.9,1.5-1.3,2.2C276.8,327.3,276.5,327.5,276.3,327.5z M278.9,323c-0.1,0-0.2,0-0.3-0.1c-0.3-0.2-0.4-0.6-0.2-0.9
			c0.4-0.7,0.8-1.5,1.3-2.2c0.2-0.3,0.6-0.4,0.9-0.2c0.3,0.2,0.4,0.6,0.2,0.9c-0.4,0.8-0.8,1.5-1.3,2.2
			C279.3,322.9,279.1,323,278.9,323z M281.4,318.5c-0.1,0-0.2,0-0.3-0.1c-0.3-0.2-0.4-0.6-0.3-0.9c0.4-0.8,0.8-1.5,1.2-2.3
			c0.2-0.3,0.6-0.4,0.9-0.3c0.3,0.2,0.4,0.6,0.3,0.9c-0.4,0.8-0.8,1.5-1.2,2.3C281.8,318.4,281.6,318.5,281.4,318.5z M283.8,314
			c-0.1,0-0.2,0-0.3-0.1c-0.3-0.2-0.4-0.6-0.3-0.9c0.4-0.8,0.8-1.5,1.2-2.3c0.2-0.3,0.5-0.4,0.9-0.3c0.3,0.2,0.4,0.5,0.3,0.9
			c-0.4,0.7-0.8,1.5-1.2,2.3C284.2,313.8,284,314,283.8,314z M286.1,309.4c-0.1,0-0.2,0-0.3-0.1c-0.3-0.2-0.4-0.5-0.3-0.9
			c0.4-0.8,0.8-1.6,1.1-2.3c0.2-0.3,0.5-0.5,0.9-0.3c0.3,0.2,0.5,0.5,0.3,0.9c-0.4,0.7-0.7,1.5-1.1,2.3
			C286.6,309.3,286.3,309.4,286.1,309.4z M288.3,304.7c-0.1,0-0.2,0-0.3-0.1c-0.3-0.1-0.5-0.5-0.3-0.8c0.4-0.8,0.7-1.6,1-2.3
			c0.1-0.3,0.5-0.5,0.8-0.3c0.3,0.1,0.5,0.5,0.3,0.8c-0.3,0.8-0.7,1.6-1,2.4C288.8,304.6,288.5,304.7,288.3,304.7z M290.2,300
			c-0.1,0-0.1,0-0.2,0c-0.3-0.1-0.5-0.5-0.4-0.8c0.3-0.9,0.6-1.7,0.8-2.4c0.1-0.3,0.5-0.5,0.8-0.4s0.5,0.5,0.4,0.8
			c-0.2,0.8-0.5,1.6-0.8,2.5C290.7,299.8,290.5,300,290.2,300z M291.7,295.1h-0.1c-0.3-0.1-0.6-0.4-0.5-0.8s0.2-0.9,0.2-1.2
			c0-0.4,0.1-0.8,0.1-1.2c0-0.4,0.3-0.6,0.7-0.6c0.4,0,0.6,0.3,0.6,0.7c0,0.5-0.1,0.9-0.1,1.3s-0.1,0.9-0.2,1.4
			C292.3,294.9,292,295.1,291.7,295.1z M292.2,290C292.2,290,292.1,290,292.2,290c-0.4,0-0.7-0.3-0.6-0.7c0-0.8,0.1-1.6,0.1-2.5
			c0-0.4,0.3-0.6,0.7-0.6c0.4,0,0.6,0.3,0.6,0.7c0,0.9,0,1.8-0.1,2.6C292.8,289.7,292.5,290,292.2,290z M292.3,284.8L292.3,284.8
			c-0.4,0-0.6-0.3-0.6-0.6c0-0.4,0-0.7,0-1.1c0-0.5,0-1,0-1.4s0.3-0.6,0.6-0.6l0,0c0.4,0,0.6,0.3,0.6,0.6c0,0.5,0,1,0,1.4
			s0,0.8,0,1.1C292.9,284.6,292.6,284.8,292.3,284.8z M292.2,279.7c-0.3,0-0.6-0.3-0.6-0.6c0-0.8,0-1.7,0-2.6c0-0.4,0.3-0.6,0.6-0.7
			c0.3,0,0.6,0.3,0.7,0.6c0,0.9,0,1.7,0,2.6C292.9,279.4,292.6,279.7,292.2,279.7L292.2,279.7z M292.1,274.6c-0.3,0-0.6-0.3-0.6-0.6
			c0-0.8,0-1.7-0.1-2.6c0-0.4,0.3-0.6,0.6-0.7c0.4,0,0.6,0.3,0.7,0.6c0,0.9,0,1.7,0.1,2.6C292.8,274.3,292.5,274.6,292.1,274.6
			L292.1,274.6z M292,269.4c-0.3,0-0.6-0.3-0.6-0.6c0-0.9-0.1-1.7-0.1-2.6c0-0.4,0.3-0.7,0.6-0.7c0.4,0,0.7,0.3,0.7,0.6
			c0,0.9,0.1,1.7,0.1,2.6C292.6,269.1,292.4,269.4,292,269.4L292,269.4z M291.8,264.3c-0.3,0-0.6-0.3-0.6-0.6c0-0.9-0.1-1.7-0.1-2.6
			c0-0.4,0.3-0.7,0.6-0.7c0.3,0,0.7,0.3,0.7,0.6c0,0.8,0.1,1.7,0.1,2.6C292.5,264,292.2,264.3,291.8,264.3L291.8,264.3z
			 M291.6,259.2c-0.3,0-0.6-0.3-0.6-0.6c0-0.9-0.1-1.7-0.1-2.6c0-0.4,0.3-0.7,0.6-0.7c0.4,0,0.7,0.3,0.7,0.6c0,0.8,0.1,1.7,0.1,2.6
			C292.2,258.9,292,259.2,291.6,259.2L291.6,259.2z M291.3,254.1c-0.3,0-0.6-0.3-0.6-0.6c0-0.9-0.1-1.7-0.1-2.6
			c0-0.4,0.3-0.7,0.6-0.7c0.4,0,0.7,0.3,0.7,0.6c0,0.8,0.1,1.7,0.1,2.6C292,253.7,291.7,254,291.3,254.1
			C291.4,254.1,291.3,254.1,291.3,254.1z M291.1,248.9c-0.3,0-0.6-0.3-0.6-0.6c0-0.9-0.1-1.8-0.1-2.6c0-0.4,0.3-0.7,0.6-0.7
			c0.4,0,0.7,0.3,0.7,0.6c0,0.8,0.1,1.6,0.1,2.6C291.7,248.6,291.5,248.9,291.1,248.9L291.1,248.9z M290.8,243.8
			c-0.3,0-0.6-0.3-0.6-0.6c-0.1-1.6-0.2-2.6-0.2-2.6c0-0.4,0.2-0.7,0.6-0.7s0.7,0.2,0.7,0.6c0,0,0.1,0.9,0.2,2.6
			C291.4,243.5,291.2,243.8,290.8,243.8L290.8,243.8z"/>
	</g>
	<g>
		<circle cx="188.9" cy="170.6" r="4.4"/>
	</g>
	<g>
		<circle class="st6" cx="186.4" cy="140.5" r="5.9"/>
	</g>
	<g>
		<circle cx="186.5" cy="140.5" r="4.4"/>
	</g>
	<g>
		<path class="st6" d="M42.9,179.5c12.1-5.1,24.3-9.9,36.6-14.6c3.1-1.2,6.1-2.4,9.2-3.5l9.2-3.5c6.2-2.3,12.3-4.5,18.5-6.8
			c6.2-2.2,12.4-4.4,18.6-6.5l4.7-1.6l4.7-1.6l4.7-1.5l4.7-1.5c1.6-0.5,3.1-1,4.7-1.5l2.4-0.7l2.4-0.7c1.6-0.5,3.1-1,4.7-1.4
			l2.4-0.7c0.8-0.2,1.6-0.5,2.4-0.7c3.2-0.9,6.3-1.7,9.5-2.5l2.4-0.6c0.8-0.2,1.6-0.4,2.4-0.5c1.6-0.4,3.2-0.6,4.8-0.9
			c-1.6,0.4-3.2,0.7-4.8,1.2c-0.8,0.2-1.6,0.4-2.4,0.6l-2.4,0.7c-3.2,0.9-6.3,1.9-9.4,2.9c-1.6,0.5-3.1,1-4.7,1.5
			c-1.6,0.5-3.1,1-4.7,1.5l-2.3,0.8l-2.3,0.8c-1.6,0.5-3.1,1-4.7,1.6c-6.2,2.1-12.4,4.3-18.6,6.5c-6.2,2.2-12.4,4.4-18.5,6.6
			c-6.2,2.2-12.4,4.4-18.5,6.7l-18.5,6.7C67.6,170.6,55.3,175.1,42.9,179.5z"/>
	</g>
	<g>
		<path class="st6" d="M25.7,236.2c6.6,2.3,13.1,4.8,19.6,7.3c1.6,0.6,3.3,1.2,4.9,1.9l4.9,1.9l9.7,3.9l9.7,3.9
			c3.2,1.3,6.5,2.6,9.7,4c6.4,2.7,12.9,5.4,19.3,8.1c-6.7-2.1-13.2-4.4-19.8-6.9l-2.5-0.9l-2.4-0.9l-4.9-1.9
			c-3.3-1.3-6.5-2.6-9.7-3.8c-3.2-1.3-6.5-2.6-9.7-3.9c-3.2-1.3-6.4-2.7-9.7-4.1C38.4,241.9,32,239.1,25.7,236.2z"/>
	</g>
	<g>
		<path class="st6" d="M316.9,339.6c3.1-5.6,6.4-11.1,9.9-16.4l1.3-2c0.4-0.7,0.9-1.3,1.3-2c0.9-1.3,1.8-2.7,2.7-4
			c0.5-0.7,0.9-1.3,1.4-2s0.9-1.3,1.4-1.9s0.9-1.3,1.4-1.9l0.7-1c0.2-0.3,0.5-0.6,0.8-0.9l0.8-0.9c0.3-0.3,0.5-0.6,0.8-0.9
			c0.5-0.6,1.1-1.2,1.6-1.8c0.5-0.6,1.1-1.2,1.6-1.8c0.5-0.6,1.1-1.2,1.7-1.8c2.2-2.3,4.6-4.5,7-6.6c0.6-0.5,1.2-1.1,1.8-1.6
			c0.6-0.5,1.1-1.1,1.7-1.6c1.2-1.1,2.4-2.1,3.4-3.3c0.2-0.3,0.5-0.6,0.7-0.9s0.4-0.7,0.5-1c0.3-0.7,0.5-1.5,0.5-2.2
			c0.1-0.8,0-1.6-0.1-2.3c-0.1-0.8-0.3-1.6-0.5-2.3c0.6,1.5,1,3.1,1,4.7c0,0.8-0.1,1.7-0.4,2.4c-0.1,0.4-0.3,0.8-0.5,1.2
			c-0.2,0.4-0.4,0.7-0.6,1.1c-0.9,1.4-2.2,2.5-3.2,3.6c-0.5,0.6-1.1,1.2-1.7,1.7c-0.6,0.6-1.1,1.1-1.7,1.7l-1.7,1.7
			c-0.6,0.6-1.1,1.1-1.7,1.7c-1.1,1.1-2.2,2.3-3.3,3.4c-1.1,1.2-2.2,2.3-3.2,3.5c-0.5,0.6-1,1.2-1.6,1.8c-0.5,0.6-1,1.2-1.5,1.8
			c-2,2.4-3.9,5-5.7,7.6c-1.9,2.6-3.7,5.2-5.5,7.8C324.3,329.2,320.6,334.4,316.9,339.6z"/>
	</g>
	<g>
		<path class="st6" d="M114.7,229.2c0.2-1.1,0.6-2.1,1-3.1c0.5-1,1-1.9,1.6-2.9c1.2-1.8,2.6-3.5,4.1-5.1s3.2-3,4.9-4.4l0.6-0.5
			c0.2-0.2,0.4-0.3,0.7-0.5l1.3-1c0.9-0.6,1.8-1.2,2.7-1.8c3.7-2.4,7.6-4.3,11.6-6.1s8.1-3.2,12.2-4.7c4.1-1.5,8.2-2.9,12.3-4.3
			c4.1-1.4,8.2-2.8,12.3-4.2l6.2-2.1c2.1-0.7,4.1-1.4,6.1-2.1c2-0.7,4.1-1.5,6.1-2.3l1.5-0.6l0.4-0.2l0.4-0.2l0.7-0.4
			c0.5-0.2,1-0.5,1.4-0.8c0.1-0.1,0.2-0.1,0.4-0.2l0.3-0.2l0.7-0.5c-1.7,1.4-3.6,2.5-5.5,3.4c-1,0.5-2,0.9-3,1.4
			c-0.5,0.2-1,0.4-1.5,0.7l-1.5,0.6c-4,1.6-8.1,3.2-12.2,4.7l-3.1,1.1l-3.1,1.1l-6.1,2.2l-12.2,4.4l-3.1,1.1l-1.5,0.5l-1.5,0.6
			l-1.5,0.6l-1.5,0.6c-0.5,0.2-1,0.4-1.5,0.6l-1.5,0.6c-2,0.8-3.9,1.7-5.9,2.7c-1.9,1-3.8,2-5.7,3.1c-0.9,0.5-1.8,1.1-2.7,1.7
			l-1.3,0.9c-0.4,0.3-0.9,0.6-1.3,0.9c-1.7,1.3-3.4,2.6-5,4.1s-3,3-4.3,4.8c-0.6,0.9-1.2,1.8-1.7,2.7
			C115.5,227.1,115,228.1,114.7,229.2z"/>
	</g>
	<g>
		<path d="M277.4,266.1c-0.1,0-0.2,0-0.3-0.1c-0.8-0.4-1.6-0.7-2.3-1.1c-0.3-0.2-0.4-0.5-0.3-0.9c0.2-0.3,0.5-0.4,0.9-0.3
			c0.8,0.4,1.5,0.8,2.3,1.1c0.3,0.1,0.5,0.5,0.3,0.8C277.9,265.9,277.7,266.1,277.4,266.1z M272.9,263.8c-0.1,0-0.2,0-0.3-0.1
			c-0.7-0.4-1.5-0.8-2.2-1.3c-0.3-0.2-0.4-0.6-0.2-0.9c0.2-0.3,0.6-0.4,0.9-0.2c0.7,0.4,1.5,0.9,2.2,1.3c0.3,0.2,0.4,0.6,0.3,0.9
			C273.3,263.6,273.1,263.8,272.9,263.8z M268.4,261.2c-0.1,0-0.2,0-0.3-0.1c-0.7-0.5-1.4-0.9-2.2-1.4c-0.3-0.2-0.4-0.6-0.2-0.9
			c0.2-0.3,0.6-0.4,0.9-0.2c0.7,0.5,1.4,0.9,2.1,1.4c0.3,0.2,0.4,0.6,0.2,0.9C268.9,261,268.7,261.2,268.4,261.2z M264.2,258.3
			c-0.1,0-0.3,0-0.4-0.1c-0.7-0.5-1.4-1-2.1-1.5c-0.3-0.2-0.3-0.6-0.1-0.9c0.2-0.3,0.6-0.3,0.9-0.1c0.7,0.5,1.4,1,2.1,1.5
			c0.3,0.2,0.4,0.6,0.1,0.9C264.6,258.2,264.4,258.3,264.2,258.3z M260.1,255.2c-0.1,0-0.3,0-0.4-0.1c-0.7-0.5-1.3-1.1-2-1.6
			c-0.3-0.2-0.3-0.6-0.1-0.9c0.2-0.3,0.6-0.3,0.9-0.1c0.7,0.5,1.3,1.1,2,1.6c0.3,0.2,0.3,0.6,0.1,0.9
			C260.5,255.1,260.3,255.2,260.1,255.2z M256.1,251.9c-0.1,0-0.3-0.1-0.4-0.2c-0.6-0.5-1.3-1.1-1.9-1.7c-0.3-0.2-0.3-0.6-0.1-0.9
			c0.2-0.3,0.6-0.3,0.9-0.1c0.6,0.6,1.3,1.1,1.9,1.7c0.3,0.2,0.3,0.6,0.1,0.9C256.5,251.9,256.3,251.9,256.1,251.9z M252.3,248.5
			c-0.2,0-0.3-0.1-0.4-0.2c-0.6-0.6-1.2-1.1-1.9-1.7c-0.3-0.2-0.3-0.6,0-0.9c0.2-0.3,0.6-0.3,0.9,0c0.6,0.6,1.3,1.2,1.9,1.7
			c0.3,0.2,0.3,0.6,0,0.9C252.7,248.5,252.5,248.5,252.3,248.5z M248.6,245c-0.2,0-0.3-0.1-0.4-0.2c-0.6-0.6-1.2-1.2-1.8-1.8
			c-0.3-0.2-0.3-0.7,0-0.9c0.2-0.3,0.7-0.3,0.9,0c0.6,0.6,1.2,1.2,1.8,1.8c0.3,0.2,0.3,0.7,0,0.9C248.9,245,248.7,245,248.6,245z
			 M244.9,241.5c-0.2,0-0.3-0.1-0.4-0.2c-0.6-0.6-1.2-1.2-1.8-1.8c-0.3-0.2-0.3-0.7,0-0.9c0.2-0.3,0.7-0.3,0.9,0
			c0.6,0.6,1.2,1.2,1.8,1.8c0.3,0.2,0.3,0.7,0,0.9C245.2,241.4,245,241.5,244.9,241.5z M241.2,237.9c-0.2,0-0.3-0.1-0.4-0.2
			c-0.7-0.7-1.3-1.2-1.9-1.7c-0.3-0.2-0.3-0.6,0-0.9c0.2-0.3,0.6-0.3,0.9,0c0.6,0.5,1.2,1.1,1.9,1.8c0.3,0.2,0.3,0.6,0,0.9
			C241.5,237.8,241.4,237.9,241.2,237.9z M237.4,234.5c-0.1,0-0.3,0-0.4-0.1c-0.7-0.6-1.4-1.1-2-1.6c-0.3-0.2-0.4-0.6-0.1-0.9
			c0.2-0.3,0.6-0.4,0.9-0.1c0.6,0.5,1.3,1,2.1,1.6c0.3,0.2,0.3,0.6,0.1,0.9C237.7,234.4,237.6,234.5,237.4,234.5z M233.2,231.5
			c-0.1,0-0.2,0-0.3-0.1c-0.7-0.3-1.4-0.7-2.3-1c-0.3-0.1-0.5-0.5-0.4-0.8s0.5-0.5,0.8-0.4c0.9,0.3,1.7,0.7,2.4,1.1
			c0.3,0.2,0.4,0.5,0.3,0.9C233.7,231.4,233.4,231.5,233.2,231.5z M228.4,229.7c-0.1,0-0.1,0-0.2,0c-0.7-0.2-1.6-0.5-2.4-0.7
			c-0.3-0.1-0.5-0.4-0.5-0.8c0.1-0.3,0.4-0.5,0.8-0.5c0.9,0.2,1.7,0.5,2.5,0.7c0.3,0.1,0.5,0.5,0.4,0.8
			C229,229.5,228.7,229.7,228.4,229.7z M223.5,228.3h-0.1c-0.8-0.2-1.6-0.4-2.5-0.6c-0.3-0.1-0.6-0.4-0.5-0.8
			c0.1-0.3,0.4-0.6,0.8-0.5c0.9,0.2,1.7,0.4,2.5,0.6c0.3,0.1,0.6,0.4,0.5,0.8C224,228.1,223.8,228.3,223.5,228.3z M218.5,227.2h-0.1
			c-0.8-0.2-1.7-0.3-2.5-0.5c-0.3-0.1-0.6-0.4-0.5-0.8c0.1-0.3,0.4-0.6,0.8-0.5c0.8,0.2,1.7,0.3,2.5,0.5c0.3,0.1,0.6,0.4,0.5,0.8
			C219,227,218.8,227.2,218.5,227.2z M213.4,226.2h-0.1l-2.5-0.5c-0.3-0.1-0.6-0.4-0.5-0.8c0.1-0.3,0.4-0.6,0.8-0.5l2.5,0.5
			c0.3,0.1,0.6,0.4,0.5,0.8C214,226,213.7,226.2,213.4,226.2z M208.4,225.2h-0.1c-0.8-0.2-1.7-0.3-2.5-0.5c-0.3-0.1-0.6-0.4-0.5-0.8
			c0.1-0.3,0.4-0.6,0.8-0.5c0.8,0.2,1.7,0.3,2.5,0.5c0.3,0.1,0.6,0.4,0.5,0.8C209,225,208.7,225.2,208.4,225.2z M203.4,224.2h-0.1
			c-0.9-0.2-1.7-0.4-2.5-0.6c-0.3-0.1-0.6-0.4-0.5-0.8c0.1-0.3,0.4-0.6,0.8-0.5c0.8,0.2,1.6,0.4,2.5,0.6c0.3,0.1,0.6,0.4,0.5,0.8
			C203.9,224,203.7,224.2,203.4,224.2z M198.4,223c-0.1,0-0.1,0-0.2,0c-0.9-0.2-1.7-0.5-2.5-0.7c-0.3-0.1-0.5-0.5-0.4-0.8
			s0.5-0.5,0.8-0.4c0.8,0.2,1.6,0.5,2.5,0.7c0.3,0.1,0.5,0.4,0.5,0.8C198.9,222.8,198.7,223,198.4,223z M193.5,221.5
			c-0.1,0-0.1,0-0.2,0c-0.9-0.3-1.7-0.6-2.4-1c-0.3-0.1-0.5-0.5-0.3-0.8c0.1-0.3,0.5-0.5,0.8-0.3c0.7,0.3,1.5,0.6,2.3,0.9
			c0.3,0.1,0.5,0.5,0.4,0.8S193.7,221.5,193.5,221.5z M189.1,219.1c-0.2,0-0.4-0.1-0.5-0.2c-0.5-0.6-1-1.4-1.4-2.3
			c-0.1-0.3,0-0.7,0.3-0.8s0.7,0,0.8,0.3c0.4,0.8,0.8,1.5,1.2,2c0.2,0.3,0.2,0.7-0.1,0.9C189.4,219,189.2,219.1,189.1,219.1z
			 M186.9,214.4c-0.3,0-0.5-0.2-0.6-0.5c-0.2-0.8-0.4-1.6-0.5-2.6c-0.1-0.3,0.2-0.7,0.5-0.7c0.3-0.1,0.7,0.2,0.7,0.5
			c0.1,0.9,0.3,1.7,0.5,2.4c0.1,0.3-0.1,0.7-0.5,0.8C187.1,214.4,187,214.4,186.9,214.4z M186.1,209.4c-0.3,0-0.6-0.2-0.6-0.6
			c-0.1-0.8-0.2-1.7-0.2-2.6c0-0.4,0.3-0.7,0.6-0.7c0.4,0,0.7,0.3,0.7,0.6c0,0.9,0.1,1.7,0.2,2.5C186.7,209,186.5,209.4,186.1,209.4
			L186.1,209.4z M185.8,204.3c-0.3,0-0.6-0.3-0.6-0.6c0-0.5,0-1,0-1.5c0-0.4,0-0.7,0-1.1c0-0.4,0.3-0.6,0.6-0.6
			c0.4,0,0.6,0.3,0.6,0.6s0,0.7,0,1.1c0,0.5,0,1,0,1.5C186.4,204,186.1,204.3,185.8,204.3L185.8,204.3z M185.8,199.1L185.8,199.1
			c-0.4,0-0.7-0.3-0.6-0.7c0-0.8,0.1-1.7,0.1-2.6c0-0.4,0.3-0.6,0.7-0.6s0.6,0.3,0.6,0.7c-0.1,0.9-0.1,1.7-0.1,2.5
			C186.5,198.9,186.2,199.1,185.8,199.1z M186.1,194L186.1,194c-0.4,0-0.7-0.3-0.6-0.7c0.1-1.6,0.3-2.5,0.3-2.6
			c0-0.4,0.4-0.6,0.7-0.6c0.4,0,0.6,0.4,0.6,0.7c0,0-0.1,1-0.3,2.5C186.8,193.8,186.5,194,186.1,194z"/>
	</g>
	<g>
		<g>
			<path class="st2" d="M461.4,288.1c0,0-4.1,3.5-16.9,6.7c11.9,13,7.6,24,7.6,24s-19.1,9.9-52.4,14.2c-21.4,2.7-63.1,7-90.2,9.7
				L308,345c0,0,82.5-7.9,115.8-12.2c33.3-4.3,52.4-14.2,52.4-14.2S482.1,303.7,461.4,288.1z"/>
		</g>
	</g>
	<g>
		<path d="M350.6,320.6L350.6,320.6c-0.9,0-1.8-0.1-2.7-0.3c-0.3-0.1-0.6-0.4-0.5-0.8c0.1-0.3,0.4-0.6,0.8-0.5
			c0.8,0.2,1.6,0.3,2.4,0.3c0.4,0,0.6,0.3,0.6,0.6C351.3,320.3,351,320.6,350.6,320.6z M353.2,320.4c-0.3,0-0.6-0.2-0.6-0.5
			c-0.1-0.3,0.2-0.7,0.5-0.7c0.7-0.1,1.4-0.3,2.1-0.5c0.1,0,0.2-0.1,0.3-0.1c0.3-0.1,0.7,0.1,0.8,0.4c0.1,0.3-0.1,0.7-0.4,0.8
			c-0.1,0-0.2,0.1-0.3,0.1c-0.8,0.2-1.5,0.4-2.2,0.5C353.2,320.4,353.2,320.4,353.2,320.4z M345.6,319.5c-0.1,0-0.2,0-0.3-0.1
			c-0.8-0.3-1.6-0.8-2.3-1.3c-0.3-0.2-0.4-0.6-0.2-0.9c0.2-0.3,0.6-0.4,0.9-0.2c0.7,0.5,1.4,0.9,2.1,1.2c0.3,0.1,0.5,0.5,0.3,0.8
			C346.1,319.4,345.9,319.5,345.6,319.5z M358.1,318.9c-0.3,0-0.5-0.2-0.6-0.4c-0.1-0.3,0-0.7,0.4-0.8c0.8-0.3,1.5-0.7,2.3-1
			c0.3-0.2,0.7,0,0.9,0.3c0.2,0.3,0,0.7-0.3,0.9c-0.8,0.4-1.6,0.7-2.4,1.1C358.2,318.8,358.1,318.9,358.1,318.9z M341.4,316.7
			c-0.2,0-0.3-0.1-0.4-0.2c-1.1-1.1-1.7-2-1.8-2.1c-0.2-0.3-0.1-0.7,0.2-0.9c0.3-0.2,0.7-0.1,0.9,0.2l0,0c0,0,0.5,0.8,1.6,1.8
			c0.3,0.2,0.3,0.7,0,0.9C341.8,316.6,341.6,316.7,341.4,316.7z M362.7,316.6c-0.2,0-0.4-0.1-0.6-0.3c-0.2-0.3-0.1-0.7,0.2-0.9
			c0.7-0.4,1.4-0.8,2.2-1.3c0.3-0.2,0.7-0.1,0.9,0.2c0.2,0.3,0.1,0.7-0.2,0.9c-0.8,0.5-1.5,0.9-2.2,1.3
			C362.9,316.6,362.8,316.6,362.7,316.6z M367,313.9c-0.2,0-0.4-0.1-0.5-0.3c-0.2-0.3-0.1-0.7,0.2-0.9c0.5-0.3,0.9-0.6,1.4-0.9
			l0.7-0.5c0.3-0.2,0.7-0.1,0.9,0.2c0.2,0.3,0.1,0.7-0.2,0.9l-0.7,0.5c-0.5,0.3-0.9,0.6-1.4,0.9C367.2,313.8,367.1,313.9,367,313.9z
			 M371.3,311c-0.2,0-0.4-0.1-0.5-0.3c-0.2-0.3-0.1-0.7,0.2-0.9c0.8-0.5,1.6-1,2.2-1.3c0.3-0.2,0.7-0.1,0.9,0.3
			c0.2,0.3,0.1,0.7-0.3,0.9c-0.7,0.4-1.4,0.8-2.2,1.3C371.5,311,371.4,311,371.3,311z M375.8,308.6c-0.3,0-0.5-0.2-0.6-0.4
			c-0.1-0.3,0-0.7,0.4-0.8c0.8-0.3,1.5-0.6,2.3-0.8c0.1,0,0.2,0,0.2-0.1c0.3-0.1,0.7,0.1,0.8,0.5c0.1,0.3-0.1,0.7-0.5,0.8
			c-0.1,0-0.1,0-0.2,0c-0.7,0.2-1.4,0.4-2.1,0.7C375.9,308.6,375.8,308.6,375.8,308.6z M380.7,307.4c-0.3,0-0.6-0.2-0.6-0.5
			c-0.1-0.4,0.2-0.7,0.5-0.7c0.7-0.1,1.6-0.2,2.6-0.3c0.4,0,0.7,0.2,0.7,0.6s-0.2,0.7-0.6,0.7C382.4,307.2,381.6,307.3,380.7,307.4
			C380.8,307.4,380.8,307.4,380.7,307.4z M385.8,306.7c-0.3,0-0.6-0.2-0.6-0.6s0.2-0.7,0.6-0.7c0.8-0.1,1.7-0.2,2.6-0.3
			c0.4,0,0.7,0.2,0.7,0.6s-0.2,0.7-0.6,0.7C387.6,306.5,386.7,306.6,385.8,306.7C385.9,306.7,385.9,306.7,385.8,306.7z M390.9,306.2
			c-0.3,0-0.6-0.2-0.6-0.6s0.2-0.7,0.6-0.7c0.8-0.1,1.7-0.2,2.6-0.3c0.4,0,0.7,0.2,0.7,0.6s-0.2,0.7-0.6,0.7
			C392.7,306,391.8,306.1,390.9,306.2C391,306.2,391,306.2,390.9,306.2z M396.1,305.6c-0.3,0-0.6-0.2-0.6-0.6s0.2-0.7,0.6-0.7
			c0.8-0.1,1.7-0.2,2.6-0.3c0.4,0,0.7,0.2,0.7,0.6s-0.2,0.7-0.6,0.7C397.8,305.5,397,305.6,396.1,305.6L396.1,305.6z M401.2,305.1
			c-0.3,0-0.6-0.2-0.6-0.6s0.2-0.7,0.6-0.7l2.6-0.3c0.4,0,0.7,0.2,0.7,0.6s-0.2,0.7-0.6,0.7L401.2,305.1L401.2,305.1z M406.3,304.6
			c-0.3,0-0.6-0.2-0.6-0.6s0.2-0.7,0.6-0.7l2.6-0.3c0.4,0,0.7,0.2,0.7,0.6s-0.2,0.7-0.6,0.7L406.3,304.6L406.3,304.6z M411.4,304.1
			c-0.3,0-0.6-0.2-0.6-0.6s0.2-0.7,0.6-0.7c0.9-0.1,1.7-0.2,2.6-0.3c0.4,0,0.7,0.2,0.7,0.6s-0.2,0.7-0.6,0.7
			C413.2,303.9,412.3,304,411.4,304.1L411.4,304.1z M416.5,303.6c-0.3,0-0.6-0.2-0.6-0.6s0.2-0.7,0.6-0.7c0.9-0.1,1.7-0.2,2.6-0.3
			c0.4,0,0.7,0.2,0.7,0.6s-0.2,0.7-0.6,0.7C418.3,303.4,417.4,303.5,416.5,303.6L416.5,303.6z M421.6,303c-0.3,0-0.6-0.2-0.6-0.6
			s0.2-0.7,0.6-0.7c0.9-0.1,1.7-0.2,2.6-0.3c0.4,0,0.7,0.2,0.7,0.6s-0.2,0.7-0.6,0.7C423.4,302.8,422.5,302.9,421.6,303L421.6,303z
			 M426.7,302.4c-0.3,0-0.6-0.2-0.6-0.6s0.2-0.7,0.6-0.7c0.9-0.1,1.7-0.2,2.5-0.3c0.4,0,0.7,0.2,0.7,0.6s-0.2,0.7-0.6,0.7
			C428.5,302.2,427.6,302.3,426.7,302.4C426.8,302.4,426.7,302.4,426.7,302.4z M431.8,301.8c-0.3,0-0.6-0.2-0.6-0.6s0.2-0.7,0.6-0.7
			c0.9-0.1,1.7-0.2,2.5-0.3c0.4,0,0.7,0.2,0.7,0.6s-0.2,0.7-0.6,0.7C433.6,301.6,432.8,301.7,431.8,301.8
			C431.9,301.8,431.8,301.8,431.8,301.8z M436.9,301.2c-0.3,0-0.6-0.2-0.6-0.6c-0.1-0.4,0.2-0.7,0.5-0.7c0.9-0.1,1.7-0.3,2.5-0.4
			c0.4-0.1,0.7,0.2,0.7,0.5c0.1,0.3-0.2,0.7-0.5,0.7C438.7,300.9,437.9,301,436.9,301.2C437,301.2,436.9,301.2,436.9,301.2z
			 M442,300.3c-0.3,0-0.6-0.2-0.6-0.5c-0.1-0.3,0.2-0.7,0.5-0.7c0.9-0.2,1.8-0.3,2.5-0.5c0.3-0.1,0.7,0.1,0.8,0.5
			c0.1,0.3-0.1,0.7-0.5,0.8c-0.7,0.2-1.6,0.3-2.5,0.5C442,300.3,442,300.3,442,300.3z M447,299.2c-0.3,0-0.5-0.2-0.6-0.5
			s0.1-0.7,0.4-0.8c0.8-0.2,1.6-0.5,2.4-0.8c0.3-0.1,0.7,0,0.8,0.4c0.1,0.3,0,0.7-0.4,0.8c-0.8,0.3-1.6,0.6-2.5,0.8
			C447.1,299.2,447,299.2,447,299.2z M451.8,297.4c-0.3,0-0.5-0.1-0.6-0.4s0-0.7,0.3-0.8c0.8-0.3,1.6-0.7,2.3-1
			c0.3-0.2,0.7,0,0.9,0.3c0.2,0.3,0,0.7-0.3,0.9c-0.8,0.4-1.6,0.7-2.4,1.1C451.9,297.4,451.9,297.4,451.8,297.4z M456.4,295.2
			c-0.2,0-0.5-0.1-0.6-0.3c-0.2-0.3,0-0.7,0.3-0.9c0.7-0.4,1.5-0.8,2.2-1.2c0.3-0.2,0.7-0.1,0.9,0.2c0.2,0.3,0.1,0.7-0.2,0.9
			c-0.7,0.4-1.5,0.9-2.3,1.3C456.6,295.2,456.5,295.2,456.4,295.2z M460.8,292.6c-0.2,0-0.4-0.1-0.5-0.3c-0.2-0.3-0.1-0.7,0.2-0.9
			c0.9-0.6,1.6-1.1,2.1-1.4c0.3-0.2,0.7-0.2,0.9,0.1s0.2,0.7-0.1,0.9c-0.6,0.5-1.4,1-2.1,1.5C461.1,292.6,460.9,292.6,460.8,292.6z"
			/>
	</g>
	<g>
		<path d="M351.2,323.7c-0.4,0-0.6-0.3-0.6-0.6c0-0.4,0.3-0.6,0.6-0.6c0.8,0,1.6-0.1,2.5-0.2c0.3-0.1,0.7,0.2,0.7,0.5
			c0.1,0.3-0.2,0.7-0.5,0.7C353,323.6,352.1,323.7,351.2,323.7L351.2,323.7z M348.7,323.6C348.7,323.6,348.6,323.6,348.7,323.6
			c-1-0.1-1.8-0.3-2.7-0.6c-0.3-0.1-0.5-0.5-0.4-0.8s0.5-0.5,0.8-0.4c0.8,0.2,1.6,0.4,2.4,0.5c0.4,0,0.6,0.4,0.5,0.7
			C349.3,323.3,349,323.6,348.7,323.6z M356.3,322.9c-0.3,0-0.5-0.2-0.6-0.4c-0.1-0.3,0.1-0.7,0.4-0.8c0.5-0.1,0.9-0.3,1.4-0.5
			c0.3-0.1,0.6-0.3,1-0.4c0.3-0.1,0.7,0,0.8,0.3c0.1,0.3,0,0.7-0.3,0.8c-0.3,0.1-0.7,0.3-1,0.4c-0.5,0.2-1,0.4-1.5,0.5
			C356.4,322.9,356.3,322.9,356.3,322.9z M343.8,322.2c-0.1,0-0.2,0-0.3-0.1c-0.8-0.3-1.6-0.7-2.4-1.2c-0.3-0.2-0.4-0.6-0.2-0.9
			c0.2-0.3,0.6-0.4,0.9-0.2c0.7,0.4,1.5,0.8,2.2,1.1c0.3,0.1,0.5,0.5,0.3,0.8C344.3,322,344,322.2,343.8,322.2z M361,320.9
			c-0.2,0-0.5-0.1-0.6-0.4c-0.2-0.3,0-0.7,0.3-0.9c0.7-0.4,1.5-0.8,2.2-1.2c0.3-0.2,0.7-0.1,0.9,0.3c0.2,0.3,0.1,0.7-0.3,0.9
			c-0.8,0.4-1.5,0.8-2.3,1.2C361.2,320.9,361.1,320.9,361,320.9z M339.3,319.6c-0.1,0-0.3,0-0.4-0.1c-1.3-1-2-1.7-2-1.7
			c-0.2-0.3-0.2-0.7,0-0.9c0.3-0.2,0.7-0.2,0.9,0c0,0,0.7,0.7,1.9,1.6c0.3,0.2,0.3,0.6,0.1,0.9C339.7,319.5,339.5,319.6,339.3,319.6
			z M365.5,318.4c-0.2,0-0.4-0.1-0.6-0.3c-0.2-0.3-0.1-0.7,0.2-0.9c0.7-0.4,1.4-0.8,2.2-1.3c0.3-0.2,0.7-0.1,0.9,0.2
			c0.2,0.3,0.1,0.7-0.2,0.9c-0.8,0.5-1.5,1-2.2,1.4C365.7,318.4,365.6,318.4,365.5,318.4z M369.8,315.7c-0.2,0-0.4-0.1-0.5-0.3
			c-0.2-0.3-0.1-0.7,0.2-0.9c0.7-0.5,1.5-0.9,2.2-1.4c0.3-0.2,0.7-0.1,0.9,0.2c0.2,0.3,0.1,0.7-0.2,0.9c-0.7,0.4-1.4,0.9-2.2,1.4
			C370.1,315.7,369.9,315.7,369.8,315.7z M374.2,313c-0.2,0-0.4-0.1-0.6-0.3c-0.2-0.3-0.1-0.7,0.2-0.9c0.8-0.5,1.6-0.9,2.3-1.2
			c0.3-0.2,0.7,0,0.9,0.3c0.2,0.3,0,0.7-0.3,0.9c-0.7,0.3-1.4,0.7-2.2,1.2C374.4,313,374.3,313,374.2,313z M378.8,310.9
			c-0.3,0-0.5-0.2-0.6-0.4c-0.1-0.3,0.1-0.7,0.4-0.8c0.5-0.2,1-0.3,1.6-0.5c0.3-0.1,0.6-0.1,1-0.2c0.3-0.1,0.7,0.2,0.7,0.5
			c0.1,0.3-0.2,0.7-0.5,0.7c-0.4,0.1-0.7,0.1-0.9,0.2c-0.5,0.1-1,0.3-1.5,0.4C379,310.9,378.9,310.9,378.8,310.9z M383.8,309.8
			c-0.3,0-0.6-0.2-0.6-0.6s0.2-0.7,0.5-0.7c0.7-0.1,1.6-0.2,2.6-0.3c0.4,0,0.7,0.2,0.7,0.6s-0.2,0.7-0.6,0.7
			C385.5,309.6,384.7,309.7,383.8,309.8C383.9,309.8,383.9,309.8,383.8,309.8z M389,309.2c-0.3,0-0.6-0.2-0.6-0.6s0.2-0.7,0.6-0.7
			c0.8-0.1,1.7-0.2,2.6-0.3c0.4,0,0.7,0.2,0.7,0.6s-0.2,0.7-0.6,0.7C390.7,309,389.8,309.1,389,309.2L389,309.2z M394.1,308.7
			c-0.3,0-0.6-0.2-0.6-0.6s0.2-0.7,0.6-0.7c0.8-0.1,1.7-0.2,2.6-0.3c0.4,0,0.7,0.2,0.7,0.6s-0.2,0.7-0.6,0.7
			C395.8,308.5,395,308.6,394.1,308.7L394.1,308.7z M399.2,308.1c-0.3,0-0.6-0.2-0.6-0.6s0.2-0.7,0.6-0.7l2.6-0.3
			c0.4,0,0.7,0.2,0.7,0.6s-0.2,0.7-0.6,0.7L399.2,308.1L399.2,308.1z M404.3,307.6c-0.3,0-0.6-0.2-0.6-0.6s0.2-0.7,0.6-0.7l2.6-0.3
			c0.4,0,0.7,0.2,0.7,0.6s-0.2,0.7-0.6,0.7L404.3,307.6L404.3,307.6z M409.4,307.1c-0.3,0-0.6-0.2-0.6-0.6s0.2-0.7,0.6-0.7l2.6-0.3
			c0.4,0,0.7,0.2,0.7,0.6s-0.2,0.7-0.6,0.7L409.4,307.1L409.4,307.1z M414.5,306.6c-0.3,0-0.6-0.2-0.6-0.6s0.2-0.7,0.6-0.7
			c0.9-0.1,1.7-0.2,2.6-0.3c0.4,0,0.7,0.2,0.7,0.6s-0.2,0.7-0.6,0.7C416.3,306.4,415.4,306.5,414.5,306.6L414.5,306.6z M419.6,306
			c-0.3,0-0.6-0.2-0.6-0.6s0.2-0.7,0.6-0.7c0.9-0.1,1.7-0.2,2.6-0.3c0.4,0,0.7,0.2,0.7,0.6s-0.2,0.7-0.6,0.7
			C421.4,305.9,420.5,306,419.6,306C419.7,306,419.6,306,419.6,306z M424.7,305.5c-0.3,0-0.6-0.2-0.6-0.6s0.2-0.7,0.6-0.7
			c0.9-0.1,1.7-0.2,2.5-0.3c0.4,0,0.7,0.2,0.7,0.6s-0.2,0.7-0.6,0.7C426.5,305.3,425.6,305.4,424.7,305.5
			C424.8,305.5,424.7,305.5,424.7,305.5z M429.8,304.9c-0.3,0-0.6-0.2-0.6-0.6s0.2-0.7,0.6-0.7c0.9-0.1,1.7-0.2,2.5-0.3
			c0.4,0,0.7,0.2,0.7,0.6s-0.2,0.7-0.6,0.7C431.6,304.7,430.8,304.8,429.8,304.9C429.9,304.9,429.8,304.9,429.8,304.9z M434.9,304.3
			c-0.3,0-0.6-0.2-0.6-0.6s0.2-0.7,0.6-0.7c0.9-0.1,1.7-0.2,2.5-0.3c0.3,0,0.7,0.2,0.7,0.5c0,0.4-0.2,0.7-0.5,0.7
			C436.7,304.1,435.9,304.2,434.9,304.3C435,304.3,434.9,304.3,434.9,304.3z M440,303.6c-0.3,0-0.6-0.2-0.6-0.5
			c-0.1-0.4,0.2-0.7,0.5-0.7c0.9-0.1,1.8-0.3,2.5-0.4c0.3-0.1,0.7,0.2,0.7,0.5c0.1,0.3-0.2,0.7-0.5,0.7
			C441.9,303.3,441,303.5,440,303.6C440.1,303.6,440,303.6,440,303.6z M445.1,302.8c-0.3,0-0.6-0.2-0.6-0.5
			c-0.1-0.3,0.2-0.7,0.5-0.8c1-0.2,1.8-0.4,2.5-0.5c0.3-0.1,0.7,0.1,0.8,0.5c0.1,0.3-0.1,0.7-0.5,0.8c-0.7,0.2-1.6,0.4-2.6,0.6
			C445.2,302.8,445.1,302.8,445.1,302.8z M450.1,301.5c-0.3,0-0.5-0.2-0.6-0.4c-0.1-0.3,0.1-0.7,0.4-0.8c0.8-0.3,1.6-0.5,2.4-0.8
			c0.3-0.1,0.7,0,0.8,0.4c0.1,0.3,0,0.7-0.4,0.8c-0.8,0.3-1.6,0.6-2.4,0.9C450.2,301.5,450.1,301.5,450.1,301.5z M454.8,299.7
			c-0.2,0-0.5-0.1-0.6-0.4s0-0.7,0.3-0.8c0.8-0.3,1.5-0.7,2.3-1.1c0.3-0.2,0.7,0,0.9,0.3c0.2,0.3,0,0.7-0.3,0.9
			c-0.8,0.4-1.6,0.7-2.4,1.1C455,299.6,454.9,299.7,454.8,299.7z M459.4,297.4c-0.2,0-0.4-0.1-0.6-0.3c-0.2-0.3-0.1-0.7,0.3-0.9
			c0.7-0.4,1.5-0.8,2.2-1.3c0.3-0.2,0.7-0.1,0.9,0.2c0.2,0.3,0.1,0.7-0.2,0.9c-0.7,0.4-1.5,0.9-2.2,1.3
			C459.7,297.4,459.5,297.4,459.4,297.4z M463.8,294.7c-0.2,0-0.4-0.1-0.5-0.3c-0.2-0.3-0.1-0.7,0.2-0.9c1.1-0.7,1.8-1.3,2-1.5
			c0.3-0.2,0.7-0.2,0.9,0.1c0.2,0.3,0.2,0.7-0.1,0.9c-0.3,0.2-1,0.8-2.1,1.5C464.1,294.7,463.9,294.7,463.8,294.7z"/>
	</g>
	<g>
		<path d="M105.9,229.5c-0.1,0-0.2,0-0.3-0.1c-0.3-0.1-0.5-0.5-0.3-0.8c0,0,0.4-0.9,1.2-2.4c0.2-0.3,0.6-0.4,0.9-0.3
			c0.3,0.2,0.4,0.6,0.3,0.9c-0.8,1.4-1.1,2.2-1.1,2.2C106.4,229.3,106.1,229.5,105.9,229.5z M108.3,225c-0.1,0-0.2,0-0.3-0.1
			c-0.3-0.2-0.4-0.6-0.2-0.9c0.5-0.7,0.9-1.5,1.4-2.2c0.2-0.3,0.6-0.4,0.9-0.2s0.4,0.6,0.2,0.9c-0.5,0.7-0.9,1.4-1.4,2.1
			C108.8,224.9,108.5,225,108.3,225z M111.3,220.8c-0.1,0-0.3,0-0.4-0.1c-0.3-0.2-0.3-0.6-0.1-0.9c0.5-0.7,1.1-1.4,1.6-2
			c0.2-0.3,0.6-0.3,0.9-0.1s0.3,0.6,0.1,0.9c-0.5,0.6-1.1,1.3-1.6,2C111.6,220.7,111.4,220.8,111.3,220.8z M114.6,216.8
			c-0.2,0-0.3-0.1-0.4-0.2c-0.3-0.2-0.3-0.6,0-0.9c0.6-0.6,1.2-1.3,1.8-1.8c0.3-0.2,0.7-0.2,0.9,0c0.2,0.3,0.2,0.7,0,0.9
			c-0.6,0.6-1.2,1.2-1.8,1.8C114.9,216.8,114.7,216.8,114.6,216.8z M118.3,213.3c-0.2,0-0.4-0.1-0.5-0.2c-0.2-0.3-0.2-0.7,0.1-0.9
			c0.7-0.6,1.3-1.1,2-1.6c0.3-0.2,0.7-0.2,0.9,0.1c0.2,0.3,0.2,0.7-0.1,0.9c-0.7,0.5-1.3,1-2,1.6
			C118.6,213.3,118.4,213.3,118.3,213.3z M122.3,210.2c-0.2,0-0.4-0.1-0.5-0.3c-0.2-0.3-0.1-0.7,0.2-0.9c0.7-0.5,1.5-1,2.2-1.4
			c0.3-0.2,0.7-0.1,0.9,0.2c0.2,0.3,0.1,0.7-0.2,0.9c-0.7,0.4-1.4,0.9-2.1,1.3C122.6,210.2,122.5,210.2,122.3,210.2z M126.8,207.6
			c-0.2,0-0.5-0.1-0.6-0.4c-0.2-0.3,0-0.7,0.3-0.9c0.8-0.4,1.6-0.8,2.4-1.1c0.3-0.1,0.7,0,0.8,0.3s0,0.7-0.3,0.8
			c-0.8,0.3-1.5,0.7-2.3,1.1C127,207.6,126.9,207.6,126.8,207.6z M131.5,205.5c-0.3,0-0.5-0.2-0.6-0.4c-0.1-0.3,0-0.7,0.4-0.8
			c0.7-0.3,1.5-0.6,2.4-1c0.3-0.1,0.7,0,0.8,0.4c0.1,0.3,0,0.7-0.4,0.8c-0.8,0.3-1.6,0.7-2.4,1C131.6,205.5,131.5,205.5,131.5,205.5
			z M136.2,203.6c-0.3,0-0.5-0.2-0.6-0.4c-0.1-0.3,0-0.7,0.4-0.8l2.4-1c0.3-0.1,0.7,0,0.8,0.4c0.1,0.3,0,0.7-0.4,0.8l-2.4,1
			C136.4,203.6,136.3,203.6,136.2,203.6z M141,201.7c-0.3,0-0.5-0.2-0.6-0.4c-0.1-0.3,0-0.7,0.4-0.8l2.4-0.9c0.3-0.1,0.7,0,0.8,0.4
			c0.1,0.3,0,0.7-0.4,0.8l-2.4,0.9C141.2,201.7,141.1,201.7,141,201.7z M145.8,199.8c-0.3,0-0.5-0.2-0.6-0.4c-0.1-0.3,0-0.7,0.4-0.8
			l2.4-0.9c0.3-0.1,0.7,0,0.8,0.4c0.1,0.3,0,0.7-0.4,0.8l-2.4,0.9C145.9,199.8,145.9,199.8,145.8,199.8z M150.6,197.9
			c-0.3,0-0.5-0.2-0.6-0.4c-0.1-0.3,0-0.7,0.4-0.8l2.4-0.9c0.3-0.1,0.7,0,0.8,0.4c0.1,0.3,0,0.7-0.4,0.8l-2.4,0.9
			C150.7,197.9,150.6,197.9,150.6,197.9z M155.3,196.1c-0.3,0-0.5-0.2-0.6-0.4c-0.1-0.3,0-0.7,0.4-0.8l2.4-0.9
			c0.3-0.1,0.7,0,0.8,0.4c0.1,0.3,0,0.7-0.4,0.8l-2.4,0.9C155.5,196,155.4,196.1,155.3,196.1z M160.1,194.2c-0.3,0-0.5-0.2-0.6-0.4
			c-0.1-0.3,0-0.7,0.4-0.8l2.4-0.9c0.3-0.1,0.7,0,0.8,0.4c0.1,0.3,0,0.7-0.4,0.8l-2.4,0.9C160.3,194.2,160.2,194.2,160.1,194.2z
			 M164.9,192.3c-0.3,0-0.5-0.2-0.6-0.4c-0.1-0.3,0-0.7,0.4-0.8l2.4-0.9c0.3-0.1,0.7,0,0.8,0.4c0.1,0.3,0,0.7-0.4,0.8l-2.4,0.9
			C165,192.3,165,192.3,164.9,192.3z M169.7,190.4c-0.3,0-0.5-0.2-0.6-0.4c-0.1-0.3,0-0.7,0.4-0.8l2.4-0.9c0.3-0.1,0.7,0,0.8,0.4
			c0.1,0.3,0,0.7-0.4,0.8l-2.4,0.9C169.8,190.4,169.7,190.4,169.7,190.4z M174.4,188.5c-0.3,0-0.5-0.2-0.6-0.4
			c-0.1-0.3,0-0.7,0.4-0.8l2.4-0.9c0.3-0.1,0.7,0,0.8,0.4c0.1,0.3,0,0.7-0.4,0.8l-2.4,0.9C174.6,188.5,174.5,188.5,174.4,188.5z
			 M179.2,186.6c-0.3,0-0.5-0.2-0.6-0.4c-0.1-0.3,0-0.7,0.4-0.8l2.4-0.9c0.3-0.1,0.7,0,0.8,0.4c0.1,0.3,0,0.7-0.4,0.8l-2.4,0.9
			C179.4,186.6,179.3,186.6,179.2,186.6z M184,184.8c-0.3,0-0.5-0.2-0.6-0.4c-0.1-0.3,0-0.7,0.4-0.8l2.4-0.9c0.3-0.1,0.7,0,0.8,0.4
			c0.1,0.3,0,0.7-0.4,0.8l-2.4,0.9C184.2,184.7,184.1,184.8,184,184.8z M188.8,182.9c-0.3,0-0.5-0.2-0.6-0.4c-0.1-0.3,0-0.7,0.4-0.8
			l2.4-0.9c0.3-0.1,0.7,0,0.8,0.4c0.1,0.3,0,0.7-0.4,0.8l-2.4,0.9C188.9,182.9,188.9,182.9,188.8,182.9z M193.6,181
			c-0.3,0-0.5-0.2-0.6-0.4c-0.1-0.3,0-0.7,0.4-0.8l2.4-0.9c0.3-0.1,0.7,0,0.8,0.4c0.1,0.3,0,0.7-0.4,0.8l-2.4,0.9
			C193.7,181,193.6,181,193.6,181z M198.3,179.1c-0.3,0-0.5-0.2-0.6-0.4c-0.1-0.3,0-0.7,0.4-0.8l2.4-0.9c0.3-0.1,0.7,0,0.8,0.4
			c0.1,0.3,0,0.7-0.4,0.8l-2.4,0.9C198.5,179.1,198.4,179.1,198.3,179.1z M203.1,177.2c-0.3,0-0.5-0.2-0.6-0.4
			c-0.1-0.3,0-0.7,0.4-0.8l2.4-0.9c0.3-0.1,0.7,0,0.8,0.4c0.1,0.3,0,0.7-0.4,0.8l-2.4,0.9C203.3,177.2,203.2,177.2,203.1,177.2z"/>
	</g>
	<g>
		<path d="M38.2,186.8c-0.3,0-0.5-0.2-0.6-0.4c-0.1-0.3,0-0.7,0.4-0.8c0,0,0.9-0.3,2.4-0.9c0.3-0.1,0.7,0,0.8,0.4
			c0.1,0.3,0,0.7-0.4,0.8c-1.6,0.6-2.4,0.9-2.4,0.9C38.3,186.8,38.3,186.8,38.2,186.8z M43,185c-0.3,0-0.5-0.2-0.6-0.4
			c-0.1-0.3,0-0.7,0.4-0.8l2.4-0.9c0.3-0.1,0.7,0,0.8,0.4c0.1,0.3,0,0.7-0.4,0.8l-2.4,0.9C43.2,184.9,43.1,185,43,185z M47.9,183.2
			c-0.3,0-0.5-0.2-0.6-0.4c-0.1-0.3,0-0.7,0.4-0.8l2.3-1c0.3-0.1,0.7,0,0.8,0.4c0.1,0.3,0,0.7-0.4,0.8l-2.4,0.9
			C48,183.1,47.9,183.2,47.9,183.2z M52.7,181.4c-0.3,0-0.5-0.2-0.6-0.4c-0.1-0.3,0-0.7,0.4-0.8l2.4-0.9c0.3-0.1,0.7,0,0.8,0.4
			c0.1,0.3,0,0.7-0.4,0.8l-2.4,0.9C52.8,181.3,52.7,181.4,52.7,181.4z M57.5,179.6c-0.3,0-0.5-0.2-0.6-0.4c-0.1-0.3,0-0.7,0.4-0.8
			l2.4-0.9c0.3-0.1,0.7,0,0.8,0.4c0.1,0.3,0,0.7-0.4,0.8l-2.4,0.9C57.6,179.5,57.6,179.6,57.5,179.6z M62.3,177.8
			c-0.3,0-0.5-0.2-0.6-0.4c-0.1-0.3,0-0.7,0.4-0.8l2.4-0.9c0.3-0.1,0.7,0,0.8,0.4c0.1,0.3,0,0.7-0.4,0.8l-2.4,0.9
			C62.4,177.8,62.4,177.8,62.3,177.8z M67.1,176c-0.3,0-0.5-0.2-0.6-0.4c-0.1-0.3,0-0.7,0.4-0.8l2.4-0.9c0.3-0.1,0.7,0,0.8,0.4
			c0.1,0.3,0,0.7-0.4,0.8l-2.4,0.9C67.3,176,67.2,176,67.1,176z M71.9,174.2c-0.3,0-0.5-0.2-0.6-0.4c-0.1-0.3,0-0.7,0.4-0.8l2.4-0.9
			c0.3-0.1,0.7,0,0.8,0.4c0.1,0.3,0,0.7-0.4,0.8l-2.4,0.9C72.1,174.2,72,174.2,71.9,174.2z M76.7,172.4c-0.3,0-0.5-0.2-0.6-0.4
			c-0.1-0.3,0-0.7,0.4-0.8l2.4-0.9c0.3-0.1,0.7,0,0.8,0.4c0.1,0.3,0,0.7-0.4,0.8l-2.4,0.9C76.9,172.4,76.8,172.4,76.7,172.4z
			 M81.6,170.7c-0.3,0-0.5-0.2-0.6-0.4c-0.1-0.3,0-0.7,0.4-0.8l2.4-0.9c0.3-0.1,0.7,0,0.8,0.4c0.1,0.3,0,0.7-0.4,0.8l-2.4,0.9
			C81.7,170.6,81.6,170.7,81.6,170.7z M86.4,168.9c-0.3,0-0.5-0.2-0.6-0.4c-0.1-0.3,0-0.7,0.4-0.8l2.4-0.9c0.3-0.1,0.7,0,0.8,0.4
			c0.1,0.3,0,0.7-0.4,0.8l-2.4,0.9C86.5,168.9,86.5,168.9,86.4,168.9z M91.2,167.1c-0.3,0-0.5-0.2-0.6-0.4c-0.1-0.3,0-0.7,0.4-0.8
			l2.4-0.9c0.3-0.1,0.7,0,0.8,0.4c0.1,0.3,0,0.7-0.4,0.8l-2.4,0.9C91.3,167.1,91.3,167.1,91.2,167.1z M96,165.4
			c-0.3,0-0.5-0.2-0.6-0.4c-0.1-0.3,0-0.7,0.4-0.8l2.4-0.9c0.3-0.1,0.7,0,0.8,0.4c0.1,0.3,0,0.7-0.4,0.8l-2.4,0.9
			C96.2,165.4,96.1,165.4,96,165.4z M100.8,163.6c-0.3,0-0.5-0.2-0.6-0.4c-0.1-0.3,0.1-0.7,0.4-0.8l2.4-0.9c0.3-0.1,0.7,0.1,0.8,0.4
			c0.1,0.3-0.1,0.7-0.4,0.8l-2.4,0.9C101,163.6,100.9,163.6,100.8,163.6z M105.7,161.9c-0.3,0-0.5-0.2-0.6-0.4
			c-0.1-0.3,0.1-0.7,0.4-0.8l2.4-0.9c0.3-0.1,0.7,0.1,0.8,0.4c0.1,0.3-0.1,0.7-0.4,0.8l-2.4,0.9
			C105.8,161.8,105.7,161.9,105.7,161.9z M110.5,160.1c-0.3,0-0.5-0.2-0.6-0.4c-0.1-0.3,0.1-0.7,0.4-0.8l2.4-0.9
			c0.3-0.1,0.7,0.1,0.8,0.4c0.1,0.3-0.1,0.7-0.4,0.8l-2.4,0.9C110.6,160.1,110.6,160.1,110.5,160.1z M115.3,158.4
			c-0.3,0-0.5-0.2-0.6-0.4c-0.1-0.3,0.1-0.7,0.4-0.8l2.4-0.9c0.3-0.1,0.7,0.1,0.8,0.4c0.1,0.3-0.1,0.7-0.4,0.8l-2.4,0.9
			C115.4,158.4,115.4,158.4,115.3,158.4z M120.1,156.6c-0.3,0-0.5-0.2-0.6-0.4c-0.1-0.3,0.1-0.7,0.4-0.8l2.4-0.9
			c0.3-0.1,0.7,0.1,0.8,0.4c0.1,0.3-0.1,0.7-0.4,0.8l-2.4,0.9C120.3,156.6,120.2,156.6,120.1,156.6z M125,154.9
			c-0.3,0-0.5-0.2-0.6-0.4c-0.1-0.3,0.1-0.7,0.4-0.8l2.4-0.9c0.3-0.1,0.7,0.1,0.8,0.4c0.1,0.3-0.1,0.7-0.4,0.8l-2.4,0.9
			C125.1,154.9,125,154.9,125,154.9z M129.8,153.2c-0.3,0-0.5-0.2-0.6-0.4c-0.1-0.3,0.1-0.7,0.4-0.8l2.4-0.9
			c0.3-0.1,0.7,0.1,0.8,0.4c0.1,0.3-0.1,0.7-0.4,0.8l-2.4,0.9C129.9,153.1,129.9,153.2,129.8,153.2z M134.6,151.4
			c-0.3,0-0.5-0.2-0.6-0.4c-0.1-0.3,0.1-0.7,0.4-0.8l2.4-0.9c0.3-0.1,0.7,0.1,0.8,0.4c0.1,0.3-0.1,0.7-0.4,0.8l-2.4,0.9
			C134.8,151.4,134.7,151.4,134.6,151.4z M139.5,149.7c-0.3,0-0.5-0.2-0.6-0.4c-0.1-0.3,0.1-0.7,0.4-0.8l2.4-0.9
			c0.3-0.1,0.7,0.1,0.8,0.4c0.1,0.3-0.1,0.7-0.4,0.8l-2.4,0.9C139.6,149.7,139.5,149.7,139.5,149.7z M144.3,148
			c-0.3,0-0.5-0.2-0.6-0.4c-0.1-0.3,0.1-0.7,0.4-0.8c0.8-0.3,1.6-0.6,2.4-0.8c0.3-0.1,0.7,0.1,0.8,0.4c0.1,0.3-0.1,0.7-0.4,0.8
			c-0.8,0.3-1.6,0.6-2.4,0.8C144.5,148,144.4,148,144.3,148z M149.2,146.3c-0.3,0-0.5-0.2-0.6-0.4c-0.1-0.3,0.1-0.7,0.4-0.8
			c0.8-0.3,1.6-0.6,2.4-0.8c0.3-0.1,0.7,0.1,0.8,0.4c0.1,0.3-0.1,0.7-0.4,0.8c-0.8,0.3-1.6,0.6-2.4,0.8
			C149.3,146.3,149.2,146.3,149.2,146.3z M154,144.6c-0.3,0-0.5-0.2-0.6-0.4c-0.1-0.3,0.1-0.7,0.4-0.8c0.8-0.3,1.6-0.6,2.4-0.8
			c0.3-0.1,0.7,0.1,0.8,0.4c0.1,0.3-0.1,0.7-0.4,0.8c-0.8,0.3-1.6,0.6-2.4,0.8C154.1,144.6,154.1,144.6,154,144.6z M158.8,143
			c-0.3,0-0.5-0.2-0.6-0.4c-0.1-0.3,0.1-0.7,0.4-0.8c0.8-0.3,1.6-0.6,2.4-0.8c0.3-0.1,0.7,0.1,0.8,0.4c0.1,0.3-0.1,0.7-0.4,0.8
			c-0.8,0.3-1.6,0.6-2.4,0.8C159,143,158.9,143,158.8,143z M163.7,141.3c-0.3,0-0.5-0.2-0.6-0.4c-0.1-0.3,0.1-0.7,0.4-0.8
			c0.8-0.3,1.6-0.6,2.4-0.8c0.3-0.1,0.7,0.1,0.8,0.4c0.1,0.3-0.1,0.7-0.4,0.8c-0.8,0.3-1.6,0.5-2.4,0.8
			C163.8,141.3,163.8,141.3,163.7,141.3z M168.6,139.7c-0.3,0-0.5-0.2-0.6-0.4c-0.1-0.3,0.1-0.7,0.4-0.8c0.8-0.3,1.6-0.5,2.4-0.8
			c0.3-0.1,0.7,0.1,0.8,0.4c0.1,0.3-0.1,0.7-0.4,0.8c-0.8,0.3-1.6,0.5-2.4,0.8C168.7,139.7,168.6,139.7,168.6,139.7z M173.4,138
			c-0.3,0-0.5-0.2-0.6-0.4c-0.1-0.3,0.1-0.7,0.4-0.8c0.8-0.3,1.6-0.5,2.4-0.8c0.3-0.1,0.7,0.1,0.8,0.4c0.1,0.3-0.1,0.7-0.4,0.8
			c-0.8,0.3-1.6,0.5-2.4,0.8C173.6,138,173.5,138,173.4,138z M178.3,136.4c-0.3,0-0.5-0.2-0.6-0.4c-0.1-0.3,0.1-0.7,0.4-0.8
			c0.8-0.3,1.6-0.5,2.4-0.8c0.3-0.1,0.7,0.1,0.8,0.4c0.1,0.3-0.1,0.7-0.4,0.8c-0.8,0.3-1.6,0.5-2.4,0.8
			C178.4,136.4,178.4,136.4,178.3,136.4z M183.2,134.9c-0.3,0-0.5-0.2-0.6-0.4c-0.1-0.3,0.1-0.7,0.4-0.8c0.8-0.3,1.7-0.5,2.5-0.8
			c0.3-0.1,0.7,0.1,0.8,0.4c0.1,0.3-0.1,0.7-0.4,0.8c-0.8,0.2-1.6,0.5-2.4,0.8C183.3,134.9,183.3,134.9,183.2,134.9z M188.1,133.3
			c-0.3,0-0.5-0.2-0.6-0.5s0.1-0.7,0.4-0.8c0.8-0.3,1.7-0.5,2.5-0.7c0.3-0.1,0.7,0.1,0.8,0.4c0.1,0.3-0.1,0.7-0.4,0.8
			c-0.8,0.2-1.6,0.5-2.5,0.7C188.2,133.3,188.2,133.3,188.1,133.3z M193,131.9c-0.3,0-0.5-0.2-0.6-0.5s0.1-0.7,0.4-0.8
			c0.9-0.2,1.7-0.5,2.5-0.7c0.3-0.1,0.7,0.1,0.8,0.5c0.1,0.3-0.1,0.7-0.5,0.8C194.8,131.4,194,131.6,193,131.9
			C193.2,131.9,193.1,131.9,193,131.9z M198,130.6c-0.3,0-0.5-0.2-0.6-0.5s0.1-0.7,0.5-0.8c0.6-0.1,1.1-0.3,1.6-0.4
			c0.3-0.1,0.7,0.1,0.8,0.5c0.1,0.3-0.1,0.7-0.5,0.8c-0.5,0.1-1,0.2-1.6,0.4C198.1,130.5,198.1,130.6,198,130.6z"/>
	</g>
	<g>
		<path d="M164.2,195.7C164.2,195.7,164.1,195.7,164.2,195.7c-0.4-0.1-0.7-0.4-0.6-0.7c0.1-0.8,0.2-1.6,0.3-2.4
			c0-0.4,0.4-0.6,0.7-0.6c0.4,0,0.6,0.4,0.6,0.7c-0.1,0.8-0.2,1.6-0.3,2.4C164.8,195.5,164.5,195.7,164.2,195.7z M164.7,190.8
			L164.7,190.8c-0.4,0-0.7-0.3-0.6-0.7c0.1-0.8,0.1-1.7,0.2-2.5c0-0.4,0.3-0.6,0.7-0.6s0.6,0.3,0.6,0.7c0,0.9-0.1,1.7-0.2,2.6
			C165.3,190.5,165,190.8,164.7,190.8z M165,185.7L165,185.7c-0.4,0-0.6-0.3-0.6-0.7c0-0.6,0-1.2,0-1.8c0-0.2,0-0.5,0-0.7
			c0-0.4,0.3-0.6,0.6-0.6c0.4,0,0.6,0.3,0.6,0.6c0,0.2,0,0.5,0,0.7c0,0.6,0,1.3,0,1.9C165.6,185.4,165.3,185.7,165,185.7z
			 M164.9,180.5c-0.3,0-0.6-0.3-0.6-0.6c0-0.8-0.1-1.7-0.1-2.5c0-0.4,0.2-0.7,0.6-0.7c0.4,0,0.7,0.2,0.7,0.6
			c0.1,0.9,0.1,1.7,0.1,2.6C165.6,180.2,165.3,180.5,164.9,180.5L164.9,180.5z M164.6,175.4c-0.3,0-0.6-0.3-0.6-0.6
			c-0.1-0.8-0.2-1.7-0.3-2.5c0-0.4,0.2-0.7,0.6-0.7c0.4,0,0.7,0.2,0.7,0.6c0.1,0.9,0.2,1.7,0.3,2.6
			C165.3,175.1,165,175.4,164.6,175.4L164.6,175.4z M164,170.3c-0.3,0-0.6-0.2-0.6-0.6c-0.1-0.8-0.3-1.7-0.4-2.5
			c-0.1-0.3,0.2-0.7,0.5-0.7c0.4-0.1,0.7,0.2,0.7,0.5c0.1,0.8,0.3,1.7,0.4,2.5C164.7,170,164.5,170.3,164,170.3
			C164.1,170.3,164,170.3,164,170.3z M163.2,165.3c-0.3,0-0.6-0.2-0.6-0.5c-0.2-0.8-0.3-1.7-0.5-2.5c-0.1-0.3,0.1-0.7,0.5-0.8
			c0.3-0.1,0.7,0.1,0.8,0.5c0.2,0.8,0.4,1.7,0.5,2.5c0.1,0.3-0.2,0.7-0.5,0.8C163.2,165.3,163.2,165.3,163.2,165.3z M162.1,160.3
			c-0.3,0-0.5-0.2-0.6-0.5c-0.2-0.8-0.4-1.6-0.6-2.5c-0.1-0.3,0.1-0.7,0.4-0.8c0.3-0.1,0.7,0.1,0.8,0.4c0.2,0.8,0.4,1.7,0.7,2.5
			c0.1,0.3-0.1,0.7-0.5,0.8C162.2,160.3,162.1,160.3,162.1,160.3z M160.7,155.3c-0.3,0-0.5-0.2-0.6-0.5c-0.2-0.8-0.5-1.6-0.8-2.4
			c-0.1-0.3,0.1-0.7,0.4-0.8c0.3-0.1,0.7,0.1,0.8,0.4c0.3,0.8,0.5,1.6,0.8,2.5c0.1,0.3-0.1,0.7-0.4,0.8
			C160.8,155.3,160.8,155.3,160.7,155.3z M159.1,150.5c-0.3,0-0.5-0.2-0.6-0.4c-0.3-0.8-0.6-1.6-0.9-2.4c-0.1-0.3,0-0.7,0.4-0.8
			c0.3-0.1,0.7,0,0.8,0.4c0.3,0.8,0.6,1.6,0.9,2.4c0.1,0.3-0.1,0.7-0.4,0.8C159.2,150.4,159.2,150.5,159.1,150.5z M157.3,145.7
			c-0.3,0-0.5-0.1-0.6-0.4c-0.3-0.8-0.7-1.6-1-2.3c-0.1-0.3,0-0.7,0.3-0.8s0.7,0,0.8,0.3c0.3,0.8,0.7,1.6,1,2.4
			c0.1,0.3,0,0.7-0.3,0.8C157.4,145.7,157.3,145.7,157.3,145.7z M155.1,141c-0.2,0-0.5-0.1-0.6-0.4c-0.7-1.4-1.2-2.2-1.2-2.2
			c-0.2-0.3-0.1-0.7,0.2-0.9s0.7-0.1,0.9,0.2c0,0,0.5,0.8,1.2,2.3c0.2,0.3,0,0.7-0.3,0.9C155.3,141,155.2,141,155.1,141z"/>
	</g>
</g>
</svg>
