<?xml version="1.0" encoding="utf-8"?>
<!-- Generator: Adobe Illustrator 25.2.0, SVG Export Plug-In . SVG Version: 6.00 Build 0)  -->
<svg version="1.1" id="Layer_1" xmlns="http://www.w3.org/2000/svg" xmlns:xlink="http://www.w3.org/1999/xlink" x="0px" y="0px"
	 viewBox="0 0 500 500" style="enable-background:new 0 0 500 500;" xml:space="preserve">
<style type="text/css">
	.st0{fill:#F2F2F2;}
	.st1{fill:#B3B3B3;}
	.st2{fill:#515147;}
	.st3{fill:#1D1D1B;}
	.st4{fill:#C8C1B9;}
	.st5{fill:#FFFFFF;}
	.st6{fill:#4D4D4D;}
	.st7{fill:#E6E6E6;}
	.st8{fill:#808080;}
	.st9{opacity:0.1;}
	.st10{fill:#8C8989;}
</style>
<g>
	<g>
		<g>
			<path class="st0" d="M99.8,183c0,0,43.5,26.6,87-1.7s40.4,45.7,40.4,45.7l-98.1,18.4L80.4,215L99.8,183z"/>
			<path d="M128.6,248.1l-51.8-32.3l22.1-36.6l2.3,1.4c0.1,0.1,10.8,6.5,26.5,9.5c20.9,3.9,40.3,0.2,57.7-11.1
				c11.2-7.3,20.6-8.8,28.1-4.5c7.7,4.4,12.8,14.7,15.2,30.6c1.7,11.5,1.3,21.6,1.3,22l-0.1,2.1L128.6,248.1z M84,214.1l45.6,28.4
				l94.9-17.8c0-3.5-0.1-11-1.3-19c-1.4-9.7-4.8-22.3-12.5-26.7c-5.6-3.2-13.2-1.7-22.5,4.4c-10.2,6.7-21.3,10.9-33,12.6
				c-9.3,1.4-19,1.1-28.7-0.8c-12.4-2.4-21.6-6.6-25.7-8.8L84,214.1z"/>
		</g>
		<g>
			<g>
				<path class="st1" d="M193.6,208.1c-0.6,0-1.2-0.2-1.7-0.6c-0.3-0.2-7.3-6-13.7-14.9c-3.8-5.3-6.5-10.6-8.2-15.8
					c-2.1-6.7-2.4-13.1-1-19.2c0,0,0,0,0-0.1l3.8-14.5c0.8-3.2,3.5-5.5,6.7-5.9c1.8-0.2,3.6-0.3,5.6-0.3c10,0,25.4,3.1,42.5,17.7
					c8.7,7.5,14.9,13.2,18.4,17.2c3.4,3.8,4.3,5.8,3.6,7.7c-0.4,1-1.3,1.8-2.3,2L194.7,208C194.4,208,194,208.1,193.6,208.1z"/>
			</g>
			<g>
				<path d="M185.2,139.3c9,0,24,2.7,40.7,17c25.1,21.5,21.4,22.3,20.8,22.3h-0.1l-53.1,26.8c0,0-27.8-22.6-21.9-47.3l3.8-14.5
					c0.6-2.1,2.3-3.7,4.5-4C181.4,139.4,183.1,139.3,185.2,139.3 M185.2,134c-2,0-4,0.1-5.9,0.4c-4.3,0.6-7.8,3.7-9,7.9l-3.8,14.5
					v0.1c-1.6,6.6-1.2,13.5,1,20.7c1.7,5.5,4.6,11.1,8.5,16.6c6.6,9.2,13.9,15.2,14.2,15.4c1,0.8,2.2,1.2,3.4,1.2
					c0.8,0,1.6-0.2,2.4-0.6l52.3-26.4c1.8-0.5,3.2-1.8,3.9-3.6s0.4-3.8-0.8-5.9c-0.7-1.2-1.8-2.7-3.4-4.5c-3.6-4-9.9-9.9-18.7-17.4
					c-7.9-6.8-16.3-11.8-24.9-14.9C198,135.2,191.5,134,185.2,134L185.2,134z"/>
			</g>
		</g>
		<g>
			<g>
				<path class="st1" d="M181.9,154.5l4-15.2c-6-0.1-9.6,1-9.6,1l-4.7,17.7c-5.9,24.7,21.9,47.3,21.9,47.3l9.1-4.6
					C197.4,196.2,176.7,176.1,181.9,154.5z"/>
			</g>
		</g>
		<g>
			<g>
				<path class="st2" d="M76.5,223.4l-19.2-14.5l35.8-9.8l39.4,8.4l0.4,0.3c0.1,0.1,8.6,5.8,23.5,5.8c4,0,8.1-0.4,12.3-1.2
					c22.7-4.5,43.2-28.5,43.4-28.7l1.7-2l2,1.7l20.2,17l-25.6,40.8l-32.2,25.9L76.5,223.4z"/>
			</g>
			<g>
				<g>
					<path class="st3" d="M214.1,185.4l18.4,15.5l-24.1,38.5L177.8,264l-100-42.9L63.2,210l29.9-8.2l38.3,8.1c0,0,9,6.3,25,6.3
						c3.9,0,8.2-0.4,12.8-1.3C193.1,210.3,214.1,185.4,214.1,185.4 M213.5,177.9L210,182c-0.2,0.3-20.1,23.5-41.9,27.8
						c-4,0.8-8,1.2-11.8,1.2c-13.9,0-21.9-5.3-21.9-5.3l-0.9-0.6l-1.1-0.2l-38.3-8.1l-1.3-0.3l-1.2,0.3L61.7,205l-10.4,2.8l8.6,6.5
						l14.6,11.1l0.5,0.4l0.6,0.3l100,42.9l2.9,1.3l2.5-2l30.6-24.6l0.7-0.6l0.5-0.8l24.1-38.5l2.5-3.9l-3.5-3l-18.4-15.5
						L213.5,177.9L213.5,177.9z"/>
				</g>
			</g>
		</g>
		<g>
			<g>
				<path class="st4" d="M186.6,285.2c-0.3,0-0.7-0.1-1-0.2L46.2,226.1c-0.7-0.3-1.3-0.9-1.5-1.6c-0.2-0.7-0.2-1.5,0.2-2.2l11.4-19
					c0.5-0.8,1.4-1.3,2.3-1.3c0.3,0,0.7,0.1,1,0.2l5.6,2.3c0,0,0,0,0.1,0c0.9,0.4,91.2,40.6,102.5,44.2c3.5,1.1,6.2,1.7,8.5,1.7
					c3.9,0,6-1.7,9.4-4.6c2.4-2.1,11-11,19.3-20.6c9.7-11.1,16-19.7,17-22.9c1.6-5.7-6.1-12.5-9.3-14.7c-0.6-0.4-1-1.1-1.1-1.9
					c-0.1-0.8,0.1-1.5,0.7-2.1l19.6-22c0.5-0.6,1.2-0.9,2-0.9c0.4,0,0.9,0.1,1.3,0.3l27.8,15.6c1.2,0.7,1.7,2.1,1.2,3.3
					c-0.1,0.2-6.1,15.5-14.2,33c-8.2,17.8-59.1,69.3-61.3,71.5C188,285,187.3,285.2,186.6,285.2z"/>
			</g>
			<g>
				<g>
					<path d="M233.7,163.4l27.8,15.6c0,0-6,15.2-14.1,32.8s-60.8,70.7-60.8,70.7L47.2,223.7l11.4-19l5.6,2.3
						c0,0,91.2,40.6,102.8,44.3c3.9,1.2,6.8,1.8,9.3,1.8c4.9,0,7.6-2.2,11.2-5.3c5.3-4.6,34.6-36,37.1-44.8s-10.3-17.6-10.3-17.6
						L233.7,163.4 M233.7,158c-1.5,0-2.9,0.6-4,1.8l-19.6,22c-1,1.1-1.5,2.7-1.3,4.2s1,2.9,2.3,3.7c0.1,0.1,2.9,2,5.3,4.8
						c1.4,1.6,3.6,4.7,3,7c-0.1,0.5-1.8,5.1-16.4,21.9c-8.3,9.5-16.7,18.2-19.1,20.3c-3.3,2.9-4.8,4-7.7,4c-1.9,0-4.4-0.5-7.6-1.5
						c-9-2.9-70.8-30.1-102.2-44.1c0,0-0.1,0-0.1-0.1l-5.6-2.3c-0.7-0.3-1.4-0.4-2-0.4c-1.8,0-3.6,0.9-4.6,2.6l-11.4,19
						c-0.8,1.3-1,2.9-0.5,4.4s1.6,2.6,3,3.2l139.4,58.9c0.7,0.3,1.4,0.4,2.1,0.4c1.4,0,2.8-0.5,3.8-1.6c0.1-0.1,13.4-13.5,27.5-28.9
						c8.3-9.1,15.3-17,20.7-23.7c7.1-8.7,11.6-15.1,13.6-19.6c8.1-17.6,14.2-33,14.2-33.1c1-2.5,0-5.3-2.3-6.6l-27.8-15.6
						C235.5,158.3,234.6,158,233.7,158L233.7,158z"/>
				</g>
			</g>
		</g>
		<g>
			<g>
				<path class="st1" d="M359.2,289c-1.4,0-2.5-1.1-2.7-2.5l-2.8-38c-0.1-0.8,0.2-1.5,0.7-2s1.2-0.8,1.9-0.8h0.1l36.8,1.6
					c1,0,10.9,0.1,21.2,2.4c2.1,0.5,5.5,1.2,9.4,2c39,8.3,41.2,9.3,42.4,10.7c0.9,1.1,1.6,2.6,0.2,11.6c-0.6,4.2-1.4,8.2-1.5,8.3
					c-0.2,1.2-1.3,2.1-2.5,2.1L359.2,289L359.2,289z"/>
			</g>
			<g>
				<path d="M356.4,248.3l36.9,1.6c0,0,10.2,0,20.6,2.3s48.9,10.2,50.3,11.8c1.4,1.6-1.9,17.6-1.9,17.6l-103.2,4.6L356.4,248.3
					 M356.4,242.9c-1.4,0-2.8,0.6-3.8,1.6c-1.1,1.1-1.6,2.6-1.5,4.1l2.8,38c0.2,2.8,2.5,4.9,5.3,4.9c0.1,0,0.2,0,0.2,0l103.2-4.6
					c2.4-0.1,4.5-1.9,5-4.3c0-0.2,0.8-4.2,1.5-8.5c1.3-8.4,1.1-11.5-0.8-13.7c-1.2-1.5-2.9-2.1-7.4-3.3c-2.6-0.7-6-1.5-10.6-2.6
					c-8.2-1.9-18-4-25.8-5.7c-3.9-0.8-7.3-1.6-9.4-2c-10.4-2.3-20.4-2.4-21.7-2.4l-36.8-1.6C356.6,242.9,356.5,242.9,356.4,242.9
					L356.4,242.9z"/>
			</g>
		</g>
		<g>
			<g>
				<path class="st2" d="M327.4,334.9c-12.6,0-29.8-0.5-39.4-2.8c-9-2.2-9.6-8.3-9.2-11.7c1.7-14,25.3-34.7,35.4-43
					c15.5-12.7,36.2-26.5,44.7-26.5c2.7,0,4,1.2,4.7,2.3c0.2,0.4,0.4,0.8,0.4,1.2c0.3,4.2,2.2,15.7,7.2,19.4
					c4.1,3,10.4,4.5,18.5,4.5c11.2,0,25.7-2.8,44.4-8.6c1.2-0.4,2.5-0.8,3.6-1.1c6.6-2,12.4-3.8,16.6-5.3c4.9-1.8,6.4-2.7,6.8-3.1
					c0.2-0.6,0.6-1.1,1.1-1.5c0.4-0.3,0.9-0.4,1.4-0.4c0.3,0,0.6,0,0.9,0.1c0.4,0.1,10.2,3.6,15.7,12.2c0.5,0.8,1,1.5,1.5,2.3
					c5,7.5,11.3,16.8,6,35.1c-1.3,4.5-7.7,8.3-20,11.9c-10.1,2.9-23.8,5.6-40.7,8C396,332.2,357.9,334.9,327.4,334.9z"/>
			</g>
			<g>
				<path class="st3" d="M358.9,253.5c1.2,0,2,0.3,2.4,1c0,0,1.1,16.2,8.4,21.3c5,3.6,12.1,5,20,5c15,0,32.8-4.9,45.1-8.7
					c17.1-5.3,28.5-8.6,28.8-11.4c0,0,9.3,3.2,14.4,11.1s12.8,16.2,7.2,35.3c-4.3,14.7-99.1,25.1-157.8,25.1c-17,0-31-0.9-38.8-2.8
					C256.1,321.6,342.1,253.5,358.9,253.5 M358.9,248.2L358.9,248.2c-2.5,0-5.5,0.8-9.3,2.5c-3.2,1.4-6.9,3.4-11,5.9
					c-8,4.9-17.3,11.5-26,18.7c-9.5,7.8-17.8,15.6-23.9,22.7c-7.7,8.8-11.7,16-12.5,22c-0.5,4.5,1,7.6,2.4,9.4
					c1.9,2.5,4.9,4.3,8.9,5.2c9.9,2.4,27.3,2.9,40.1,2.9c30.6,0,68.9-2.7,100-7.1c17-2.4,30.8-5.1,41-8.1c5.8-1.7,10.3-3.4,13.7-5.3
					c4.6-2.5,7.2-5.2,8.2-8.5c2.5-8.6,2.8-16.2,0.9-23c-1.6-6-4.6-10.4-7.3-14.3c-0.5-0.8-1-1.5-1.5-2.3c-6-9.3-16.6-13.1-17.1-13.3
					c-0.6-0.2-1.2-0.3-1.8-0.3c-1,0-2,0.3-2.9,0.9c-0.8,0.5-1.4,1.2-1.8,2c-0.7,0.4-2.4,1.3-6.4,2.7c-4,1.4-9.4,3.1-15.6,5
					c-1.2,0.4-2.4,0.7-3.6,1.1c-18.4,5.7-32.7,8.4-43.6,8.4c-7.6,0-13.3-1.3-16.9-4c-1.8-1.3-3.6-4.8-4.8-9.4
					c-1.1-4.2-1.4-7.9-1.4-8c-0.1-0.9-0.3-1.7-0.8-2.5C365,250.4,363,248.2,358.9,248.2L358.9,248.2z"/>
			</g>
		</g>
		<g>
			<g>
				<path class="st2" d="M288.6,332.1c-0.2,0-0.4,0-0.6-0.1c-9.2-2-73.7-13.1-74.3-13.2s-1.1-0.4-1.5-0.8l-34.4-35.8
					c-0.5-0.6-0.8-1.3-0.7-2.1c0.1-0.8,0.5-1.5,1.1-1.9c27.1-18.9,76.7-101.7,77.2-102.5s1.4-1.3,2.3-1.3c0.4,0,0.8,0.1,1.2,0.3
					L377,233.8c0.3,0.1,0.5,0.3,0.7,0.5l8.3,8.3l10,1.8c1,0.2,1.8,0.9,2.1,1.9c0.9,3.5,0.4,6.6-1.5,9.1c-3.4,4.4-10.9,6.5-23.6,6.5
					l0,0c-5.6,0-11.3-0.4-15.8-0.7h-0.5c-0.2,0-0.4,0-0.6,0c-3.6,0-10.4,2.3-22.2,13.4c-8,7.5-15.2,16.1-19.1,20.8
					c-0.6,0.7-1.1,1.3-1.5,1.8c-5.7,6.7-22.2,33.5-22.4,33.8C290.3,331.7,289.5,332.1,288.6,332.1z"/>
			</g>
			<g>
				<path class="st3" d="M257.6,177l118.1,59.1l8.9,8.9l10.8,1.9c2.6,10.1-9.7,12.2-22.5,12.2c-5.7,0-11.5-0.4-16.1-0.7
					c-0.2,0-0.5,0-0.8,0c-15,0-39,30.1-44.8,36.9c-5.9,7-22.6,34.1-22.6,34.1c-9.4-2.1-74.5-13.3-74.5-13.3l-34.4-35.8
					C207.5,260.9,257.6,177,257.6,177 M257.6,171.7c-1.8,0-3.6,0.9-4.6,2.6c-0.5,0.8-49.8,83.1-76.4,101.7c-1.3,0.9-2.1,2.3-2.2,3.8
					c-0.2,1.5,0.4,3.1,1.5,4.2l34.4,35.8c0.8,0.8,1.8,1.4,2.9,1.6c0.6,0.1,65.1,11.2,74.2,13.2c0.4,0.1,0.8,0.1,1.1,0.1
					c1.8,0,3.5-0.9,4.5-2.5c4.6-7.5,17.5-28,22.1-33.5c0.4-0.5,1-1.1,1.6-1.9c3.8-4.6,11-13.1,18.9-20.5
					c11.7-11,17.8-12.7,20.4-12.7c0.1,0,0.3,0,0.4,0h0.5c4.6,0.3,10.3,0.7,16,0.7s10.3-0.4,14-1.2c5.5-1.2,9.3-3.2,11.6-6.3
					c1.7-2.2,3.4-5.9,2-11.4c-0.5-2-2.2-3.5-4.2-3.9l-9.1-1.6l-7.7-7.7c-0.4-0.4-0.9-0.7-1.4-1L260,172.3
					C259.2,171.9,258.4,171.7,257.6,171.7L257.6,171.7z"/>
			</g>
		</g>
		<g>
			<g>
				<path class="st1" d="M33.9,230.2c-0.7,0-1.4-0.3-1.9-0.8c-0.7-0.7-0.9-1.8-0.6-2.7c0.1-0.4,14.1-40.1,20.6-55.3
					c0.4-1,1.3-1.6,2.4-1.6c0.1,0,10.1-0.3,17.3-2.6c7.1-2.4,13.3-4.3,17.3-4.3c1.6,0,2.8,0.3,3.7,0.9c3.4,2.2,12.8,15,16.1,20
					c4.2,6.3,15.9,20.3,23.7,23.9c0.7,0.3,1.3,1,1.5,1.8s0,1.6-0.5,2.3c-0.3,0.4-8.5,10.9-22.1,10.9l0,0c-2,0-3.9-0.2-5.9-0.7
					c-6.3-1.4-13.4-3.6-19.7-5.6c-7.8-2.4-15.1-4.7-18.5-4.7c-0.5,0-0.7,0.1-0.8,0.1c-5.5,1.8-9.4,4.9-9.6,6.6
					c-0.3,2.3-2.5,4.7-12.1,8.4c-5.1,2-10.1,3.4-10.3,3.5C34.4,230.2,34.1,230.2,33.9,230.2z"/>
			</g>
			<g>
				<path d="M89,165.4c1,0,1.8,0.1,2.3,0.5c2.6,1.6,11.1,13,15.3,19.3c4.2,6.3,16.2,20.9,24.8,24.8c0,0-7.5,9.9-19.9,9.9
					c-1.7,0-3.5-0.2-5.3-0.6c-14.2-3.2-32-10.4-38.8-10.4c-0.6,0-1.2,0.1-1.6,0.2c-4.9,1.6-10.9,5.1-11.4,8.8s-20.5,9.7-20.5,9.7
					s14-39.8,20.5-55.1c0,0,10.4-0.2,18.1-2.8C78.6,167.6,85.2,165.4,89,165.4 M89,160.1c-4.4,0-10.8,2-18.2,4.5
					c-6.8,2.3-16.4,2.5-16.5,2.5c-2.1,0-4,1.3-4.8,3.2c-6.5,15.3-20.1,53.8-20.6,55.4c-0.7,1.9-0.2,4,1.2,5.4c1,1.1,2.4,1.7,3.9,1.7
					c0.5,0,1-0.1,1.5-0.2c0.2-0.1,5.3-1.6,10.5-3.6c3.2-1.2,5.8-2.4,7.7-3.5c2.6-1.4,5.5-3.5,6.1-6.9c0.5-0.9,3.4-3.1,7.6-4.6h0.1
					c3,0,10.8,2.5,17.7,4.6c6.3,2,13.5,4.2,19.9,5.7c2.2,0.5,4.3,0.7,6.5,0.7c14.9,0,23.8-11.5,24.2-12c1-1.3,1.3-2.9,0.9-4.5
					c-0.4-1.6-1.5-2.9-2.9-3.5c-7-3.2-18.3-16.4-22.6-22.9c-2.3-3.4-5.5-7.9-8.5-11.7c-5.8-7.5-7.6-8.6-8.4-9.1
					C92.7,160.5,91.1,160.1,89,160.1L89,160.1z"/>
			</g>
		</g>
		<g>
			<g>
				<path class="st2" d="M104.8,308.7l-79.5-19.6l-3.4-20.3v-0.1c-0.1-0.9-1.7-21.5,6.9-37.3c0.7-1.2,1.3-2.4,1.9-3.5
					c5-9.4,8.3-15.6,17.1-15.6c2.9,0,6.4,0.7,11,2.2c11.8,3.8,58.5,26.1,92.6,42.4c15.7,7.5,28.1,13.4,32.1,15.1
					c7.1,3.1,15.4,9.6,21.6,17c5.3,6.3,11.6,16.2,11.6,27.2v2.9L104.8,308.7z"/>
			</g>
			<g>
				<path class="st3" d="M47.7,215c2.6,0,5.9,0.7,10.1,2.1c17,5.6,111.7,51.8,124.6,57.4s31.7,24,31.7,41.8l-108.9-10.1L27.6,287
					l-3.1-18.4c0,0-1.7-20.5,6.6-35.8C37.4,221.2,39.7,215,47.7,215 M47.7,209.7v5.3V209.7c-4.9,0-8.9,1.8-12.1,5.4
					c-2.6,2.9-4.7,6.7-7.3,11.6c-0.6,1.1-1.2,2.3-1.9,3.5c-9,16.5-7.3,37.9-7.2,38.8v0.2v0.2l3.1,18.4l0.6,3.4l3.4,0.8l77.6,19.1
					l0.4,0.1h0.4l108.9,10.1l5.8,0.5V316c0-5-1.2-10.2-3.6-15.4c-2.1-4.5-5-9.1-8.6-13.4c-6.6-7.8-15-14.5-22.6-17.8
					c-4-1.7-16.4-7.6-32.1-15.1c-34.2-16.3-81-38.6-93-42.5C54.7,210.4,50.9,209.7,47.7,209.7L47.7,209.7z"/>
			</g>
		</g>
		<g>
			<g>
				<path class="st5" d="M344.6,363.4c-1.3,0-2.4-0.9-2.6-2.2l-1.5-8l-10.4-0.3l-1.5,8.3c-0.2,1.3-1.3,2.2-2.6,2.2h-13
					c-1.1,0-2.1-0.7-2.5-1.8l-2.6-7.7l-15.7,1.1l-3,6.8c-0.4,1-1.4,1.6-2.4,1.6h-17.2c-1.1,0-2.1-0.7-2.5-1.7l-2.8-7.3l-12.9-0.3
					l-3.8,7.8c-0.4,0.9-1.4,1.5-2.4,1.5h-17c-1,0-1.9-0.6-2.4-1.4l-3.4-6.6h-13.5l-3.9,6.8c-0.5,0.8-1.4,1.3-2.3,1.3H187
					c-1,0-1.9-0.6-2.4-1.4l-3.4-6.6l-17.8,0.9l-2.9,5.7c-0.5,0.9-1.4,1.4-2.4,1.4h-15.5c-1,0-2-0.6-2.4-1.5l-2.6-5.5h-13.8l-3.7,5.6
					c-0.5,0.7-1.2,1.1-2.1,1.2c-0.2,0-5.4,0.2-13.5,0.2c-14.2,0-34.8-0.7-52.2-4.2c-28.8-5.7-41.3-20.1-41.9-20.7
					c-0.6-0.7-0.8-1.8-0.4-2.7l12-30.8c0.9-2.2,3.5-3.4,15.4-4.2c7.4-0.5,17.9-0.7,31.1-0.7c46.6,0,121.1,3.3,138.4,5.6
					c6.5,0.9,12.5,2.8,19.5,5c18.2,5.8,45.8,14.6,115.7,14.6c7.2,0,14.8-0.1,22.6-0.3c59.8-1.4,89-12.4,103-21.3
					c14.2-9.1,15.5-17.6,15.5-17.7c0.1-1.2,1.1-2.2,2.3-2.4c0.1,0,0.2,0,0.4,0c1.1,0,2.1,0.7,2.5,1.7c0.1,0.3,2.5,6.4,2,15.7
					c-0.4,8.4-3.5,21.2-15.2,34.2c-9.5,10.4-34.4,18.3-74,23.5C371.8,362.5,344.9,363.3,344.6,363.4L344.6,363.4z"/>
			</g>
			<g>
				<path d="M485.8,286.3c0,0,9,23.2-12.8,47.1s-128.5,27.3-128.5,27.3l-1.9-10.1l-14.8-0.4l-1.9,10.6h-13l-3.3-9.7l-19.3,1.4
					l-3.7,8.3h-17.2l-3.5-9l-16.4-0.4l-4.5,9.4h-17l-4.2-8.1h-16.7l-4.7,8.1h-15.7l-4.2-8.1l-21,1l-3.7,7.1h-15.5l-3.3-7.1h-16.9
					l-4.5,6.8c0,0-5.3,0.2-13.4,0.2c-13.3,0-34.2-0.7-51.7-4.1c-28.2-5.6-40.4-19.8-40.4-19.8l12.2-30.7c0.9-2.4,19.3-3.3,44.1-3.3
					c48.5,0,121.6,3.4,138.1,5.6c23.1,3.1,39,19.6,135.5,19.6c7.1,0,14.7-0.1,22.7-0.3C481.7,324.9,485.8,286.3,485.8,286.3
					 M485.8,280.8c-0.3,0-0.5,0-0.8,0.1c-2.4,0.4-4.3,2.3-4.4,4.8c-0.1,0.4-0.6,2.3-2.4,5c-2,2.9-5.9,7.3-13.5,11.9
					c-13.9,8.3-42.6,18.5-100,19.9c-7.8,0.2-15.4,0.3-22.6,0.3c-69.5,0-96.8-8.7-114.9-14.4c-7.1-2.2-13.2-4.2-19.9-5.1
					c-8.2-1.1-30.2-2.5-57.5-3.7c-29.5-1.2-59.1-2-81.3-2c-13.3,0-23.8,0.3-31.3,0.7c-4.3,0.3-7.5,0.6-9.9,1.1
					c-1.5,0.3-2.7,0.6-3.6,1c-2.1,0.8-3.5,2.1-4.1,3.8L7.4,334.8c-0.7,1.8-0.4,3.9,0.9,5.4c0.5,0.6,13.7,15.7,43.4,21.6
					c17.6,3.5,38.4,4.2,52.7,4.2c8.1,0,13.4-0.2,13.6-0.2c1.7-0.1,3.3-1,4.2-2.4l2.9-4.4h10.6l1.9,4c0.9,1.9,2.8,3.1,4.8,3.1h15.5
					c2,0,3.8-1.1,4.7-2.9l2.2-4.3l14.6-0.7l2.6,5c0.9,1.8,2.7,2.9,4.7,2.9h15.7c1.9,0,3.6-1,4.6-2.6l3.2-5.4h10.4l2.7,5.2
					c0.9,1.8,2.7,2.9,4.7,2.9h17c2,0,3.9-1.2,4.8-3l3-6.3l9.4,0.2l2.2,5.7c0.8,2,2.8,3.4,5,3.4h17.2c2.1,0,4-1.2,4.9-3.2l2.4-5.4
					l12-0.9l2,5.8c0.7,2.2,2.8,3.6,5,3.6h13c2.6,0,4.8-1.8,5.2-4.4l1.1-6.1l6,0.2l1.1,5.9c0.5,2.5,2.7,4.4,5.2,4.4
					c0.1,0,0.1,0,0.2,0c0.3,0,27.3-0.9,56.6-4.7c17.3-2.3,32.1-5.1,43.9-8.4c15.6-4.4,26-9.6,31.8-15.9c5.4-5.9,9.5-12.3,12.2-19
					c2.2-5.4,3.4-11.1,3.7-16.8c0.5-9.7-1.9-16.1-2.1-16.8C490,282.3,488,280.8,485.8,280.8L485.8,280.8z"/>
			</g>
		</g>
		<g>
			<path class="st6" d="M269.4,360.7h17.2l3.7-8.3l19.3-1.4l3.3,9.7h13l1.9-10.6l14.8,0.4l1.9,10.1c0,0,106.7-3.4,128.5-27.3
				c3.7-4.1,6.6-8.2,8.7-12.1c-10.3,7-21.6,12.4-33.7,14.9c-56.6,11.5-329.7,14.2-376.7,10.5c-32.9-2.6-49.6-11.3-56.6-16.3
				l-2.6,6.4c0,0,12.2,14.3,40.4,19.8c28.2,5.6,65.1,3.9,65.1,3.9l4.5-6.8H139l3.3,7.1h15.5l3.7-7.1l21-1l4.2,8.1h15.7l4.7-8.1h16.7
				l4.2,8.1h17l4.5-9.4l16.4,0.4L269.4,360.7z"/>
		</g>
		<g>
			<path class="st7" d="M125.2,326.5c98.7,0,150.5,0,171.8,0c-57.5-4.1-71.5-15.6-90.5-18.1c-24.9-3.3-179.3-9.3-182.1-2.3L18,322.2
				C34.7,324.5,66.1,326.5,125.2,326.5z"/>
		</g>
		<g>
			<g>
				<path class="st8" d="M24.5,308.8c-1.1,0-2-0.7-2.5-1.6c-4.9-11.9-4.6-22.1-3.6-28.5c1.2-7,3.6-11.3,3.7-11.4
					c0.5-0.8,1.4-1.3,2.3-1.3c0.1,0,0.2,0,0.3,0c0.5,0.1,45.9,5.6,80.6,8.3c8.4,0.7,15.6,2.7,21.4,6.1c4.7,2.8,8.6,6.4,11.3,10.8
					c4.7,7.5,4.8,14.7,4.8,15c0,1.5-1.2,2.7-2.7,2.7H24.5V308.8z"/>
			</g>
			<g>
				<path d="M24.5,268.6c0,0,45.6,5.6,80.7,8.4s35.1,29.2,35.1,29.2H24.5C15.4,284.1,24.5,268.6,24.5,268.6 M24.5,263.2
					c-1.9,0-3.6,1-4.6,2.6c-0.4,0.7-10.2,18.1-0.3,42.2c0.8,2,2.8,3.3,4.9,3.3h115.9c2.9,0,5.3-2.4,5.3-5.3c0-0.8-0.1-8.4-5.2-16.4
					c-3-4.8-7.1-8.7-12.3-11.7c-6.2-3.6-13.8-5.7-22.6-6.4c-34.6-2.7-80-8.3-80.5-8.3C24.9,263.2,24.7,263.2,24.5,263.2L24.5,263.2z
					"/>
			</g>
		</g>
		<g>
			<g>
				<g>
					<path class="st1" d="M238.5,271.8c-0.2,0-0.3,0-0.5-0.1l-13-8.2c-0.2-0.1-0.4-0.3-0.4-0.6c-0.1-0.2,0-0.5,0.1-0.7l37-58.3
						c0.1-0.2,0.3-0.4,0.6-0.4c0.1,0,0.1,0,0.2,0c0.2,0,0.3,0,0.5,0.1l13,8.2c0.4,0.3,0.6,0.8,0.3,1.3l-37,58.3
						C239.1,271.6,238.8,271.8,238.5,271.8z"/>
				</g>
				<g>
					<path class="st5" d="M262.5,204.3l13,8.2l-37,58.3l-13-8.2L262.5,204.3 M262.5,202.4c-0.1,0-0.3,0-0.4,0
						c-0.5,0.1-0.9,0.4-1.2,0.8l-37,58.3c-0.3,0.4-0.3,0.9-0.2,1.4s0.4,0.9,0.8,1.2l13,8.2c0.3,0.2,0.6,0.3,1,0.3
						c0.6,0,1.2-0.3,1.6-0.9l37-58.3c0.5-0.9,0.3-2-0.6-2.5l-13-8.2C263.2,202.5,262.8,202.4,262.5,202.4L262.5,202.4z"/>
				</g>
			</g>
		</g>
		<g>
			<g>
				<g>
					<path class="st1" d="M262.1,286.1c-0.2,0-0.3,0-0.5-0.1l-13-8.2c-0.4-0.3-0.6-0.8-0.3-1.3l37-58.3c0.2-0.3,0.5-0.4,0.8-0.4
						c0.2,0,0.3,0,0.5,0.1l13,8.2c0.4,0.3,0.6,0.8,0.3,1.3l-37,58.3c-0.1,0.2-0.3,0.4-0.6,0.4C262.2,286.1,262.1,286.1,262.1,286.1z
						"/>
				</g>
				<g>
					<path class="st5" d="M286,218.6l13,8.2l-37,58.3l-13-8.2L286,218.6 M286,216.8c-0.6,0-1.2,0.3-1.6,0.9l-37,58.3
						c-0.3,0.4-0.3,0.9-0.2,1.4s0.4,0.9,0.8,1.2l13,8.2c0.3,0.2,0.6,0.3,1,0.3c0.6,0,1.2-0.3,1.6-0.9l37-58.3
						c0.3-0.4,0.3-0.9,0.2-1.4c-0.1-0.5-0.4-0.9-0.8-1.2l-13-8.2C286.7,216.9,286.4,216.8,286,216.8L286,216.8z"/>
				</g>
			</g>
		</g>
		<g>
			<g>
				<g>
					<path class="st1" d="M286.1,301.4c-0.2,0-0.3,0-0.5-0.1l-13-8.2c-0.4-0.3-0.6-0.8-0.3-1.3l37-58.3c0.1-0.2,0.3-0.4,0.6-0.4
						c0.1,0,0.1,0,0.2,0c0.2,0,0.3,0,0.5,0.1l13,8.2c0.4,0.3,0.6,0.8,0.3,1.3l-37,58.3C286.7,301.2,286.4,301.4,286.1,301.4z"/>
				</g>
				<g>
					<path class="st5" d="M310.1,233.9l13,8.2l-37,58.3l-13-8.2L310.1,233.9 M310.1,232c-0.6,0-1.2,0.3-1.6,0.9l-37,58.3
						c-0.3,0.4-0.3,0.9-0.2,1.4c0.1,0.5,0.4,0.9,0.8,1.2l13,8.2c0.3,0.2,0.6,0.3,1,0.3c0.6,0,1.2-0.3,1.6-0.9l37-58.3
						c0.3-0.4,0.3-0.9,0.2-1.4c-0.1-0.5-0.4-0.9-0.8-1.2l-13-8.2C310.8,232.1,310.4,232,310.1,232L310.1,232z"/>
				</g>
			</g>
		</g>
		<g>
			<g>
				<g>
					<circle class="st2" cx="233.6" cy="178.6" r="4.4"/>
				</g>
			</g>
		</g>
		<g>
			<g>
				<path class="st8" d="M385.6,287.3c-0.3,0-0.5-0.2-0.5-0.5s0.2-0.5,0.5-0.5c0.8,0,1.6,0,2.4,0l0,0c0.3,0,0.5,0.2,0.5,0.5
					s-0.2,0.5-0.5,0.5C387.2,287.2,386.4,287.2,385.6,287.3L385.6,287.3z M383.2,287.2L383.2,287.2c-0.9,0-1.7-0.1-2.5-0.1
					c-0.3,0-0.5-0.3-0.5-0.5c0-0.3,0.3-0.5,0.5-0.5c0.8,0.1,1.6,0.1,2.4,0.1c0.3,0,0.5,0.2,0.5,0.5
					C383.7,287,383.4,287.2,383.2,287.2z M390.5,287.1c-0.3,0-0.5-0.2-0.5-0.5s0.2-0.5,0.5-0.5c0.8,0,1.6-0.1,2.4-0.2
					c0.3,0,0.5,0.2,0.5,0.5s-0.2,0.5-0.5,0.5C392.2,287,391.3,287.1,390.5,287.1L390.5,287.1z M378.3,286.9
					C378.2,286.9,378.2,286.9,378.3,286.9c-1-0.1-1.8-0.3-2.5-0.4c-0.3-0.1-0.4-0.3-0.4-0.6c0.1-0.3,0.3-0.4,0.6-0.4
					c0.7,0.2,1.5,0.3,2.4,0.4c0.3,0,0.5,0.3,0.4,0.6C378.7,286.7,378.5,286.9,378.3,286.9z M395.4,286.8c-0.3,0-0.5-0.2-0.5-0.5
					s0.2-0.5,0.5-0.6c0.8-0.1,1.6-0.1,2.4-0.2c0.3,0,0.5,0.2,0.6,0.5c0,0.3-0.2,0.5-0.5,0.6C397.1,286.6,396.3,286.7,395.4,286.8
					C395.5,286.8,395.4,286.8,395.4,286.8z M400.3,286.3c-0.3,0-0.5-0.2-0.5-0.5s0.2-0.5,0.5-0.6c0.8-0.1,1.6-0.2,2.4-0.3
					c0.3,0,0.5,0.2,0.6,0.4c0,0.3-0.2,0.5-0.4,0.6C402,286.1,401.2,286.2,400.3,286.3C400.4,286.3,400.3,286.3,400.3,286.3z
					 M373.5,285.7c-0.1,0-0.1,0-0.2,0s-0.1,0-0.2-0.1c-0.7-0.3-1.4-0.6-2.1-1c-0.2-0.1-0.3-0.4-0.2-0.7c0.1-0.2,0.4-0.3,0.7-0.2
					c0.6,0.4,1.3,0.7,2,1c0.1,0,0.1,0,0.2,0.1c0.3,0.1,0.4,0.4,0.3,0.7C373.9,285.6,373.7,285.7,373.5,285.7z M405.2,285.7
					c-0.3,0-0.5-0.2-0.5-0.4c0-0.3,0.2-0.5,0.4-0.6c0.8-0.1,1.6-0.2,2.4-0.3c0.3,0,0.5,0.2,0.6,0.4c0,0.3-0.2,0.5-0.4,0.6
					C406.9,285.4,406.1,285.5,405.2,285.7L405.2,285.7z M410.1,284.9c-0.2,0-0.5-0.2-0.5-0.4c0-0.3,0.1-0.5,0.4-0.6
					c0.8-0.1,1.6-0.3,2.4-0.4c0.3,0,0.5,0.1,0.6,0.4c0,0.3-0.1,0.5-0.4,0.6C411.8,284.7,410.9,284.8,410.1,284.9L410.1,284.9z
					 M414.9,284.1c-0.2,0-0.5-0.2-0.5-0.4c0-0.3,0.1-0.5,0.4-0.6c0.8-0.1,1.6-0.3,2.4-0.4c0.3,0,0.5,0.1,0.6,0.4s-0.1,0.5-0.4,0.6
					C416.6,283.9,415.8,284,414.9,284.1C415,284.1,414.9,284.1,414.9,284.1z M369.2,283.4c-0.1,0-0.2,0-0.3-0.1
					c-0.7-0.5-1.3-1-2-1.5c-0.2-0.2-0.2-0.5-0.1-0.7s0.5-0.2,0.7-0.1c0.6,0.5,1.2,1,1.9,1.5c0.2,0.2,0.3,0.5,0.1,0.7
					C369.5,283.3,369.4,283.4,369.2,283.4z M419.7,283.3c-0.2,0-0.5-0.2-0.5-0.4c-0.1-0.3,0.1-0.5,0.4-0.6c0.8-0.2,1.6-0.3,2.4-0.5
					c0.3-0.1,0.5,0.1,0.6,0.4s-0.1,0.5-0.4,0.6C421.5,283,420.6,283.1,419.7,283.3C419.8,283.3,419.8,283.3,419.7,283.3z
					 M424.6,282.3c-0.2,0-0.5-0.2-0.5-0.4c-0.1-0.3,0.1-0.5,0.4-0.6c0.8-0.2,1.6-0.3,2.4-0.5c0.3-0.1,0.5,0.1,0.6,0.4
					s-0.1,0.5-0.4,0.6c-0.8,0.2-1.6,0.3-2.4,0.5C424.6,282.3,424.6,282.3,424.6,282.3z M429.4,281.3c-0.2,0-0.4-0.2-0.5-0.4
					c-0.1-0.3,0.1-0.5,0.4-0.6c0.8-0.2,1.6-0.4,2.4-0.5c0.3-0.1,0.5,0.1,0.6,0.4s-0.1,0.5-0.4,0.6c-0.8,0.2-1.6,0.4-2.4,0.5
					C429.4,281.3,429.4,281.3,429.4,281.3z M434.2,280.2c-0.2,0-0.4-0.2-0.5-0.4c-0.1-0.3,0.1-0.6,0.4-0.6c0.8-0.2,1.6-0.4,2.4-0.6
					c0.3-0.1,0.6,0.1,0.6,0.4c0.1,0.3-0.1,0.6-0.4,0.6c-0.8,0.2-1.6,0.4-2.4,0.6C434.2,280.2,434.2,280.2,434.2,280.2z M365.5,280.2
					c-0.1,0-0.3-0.1-0.4-0.2c-0.6-0.6-1.1-1.2-1.6-1.9c-0.2-0.2-0.1-0.5,0.1-0.7s0.5-0.1,0.7,0.1c0.5,0.6,1,1.3,1.6,1.8
					c0.2,0.2,0.2,0.5,0,0.7C365.8,280.1,365.6,280.2,365.5,280.2z M438.9,279.1c-0.2,0-0.4-0.2-0.5-0.4c-0.1-0.3,0.1-0.6,0.4-0.6
					c0.8-0.2,1.6-0.4,2.4-0.6c0.3-0.1,0.6,0.1,0.6,0.4c0.1,0.3-0.1,0.6-0.4,0.6c-0.8,0.2-1.6,0.4-2.4,0.6
					C439,279.1,439,279.1,438.9,279.1z M443.7,277.8c-0.2,0-0.4-0.1-0.5-0.4s0.1-0.6,0.4-0.6c0.8-0.2,1.6-0.5,2.3-0.7
					c0.3-0.1,0.6,0.1,0.6,0.3c0.1,0.3-0.1,0.6-0.3,0.6c-0.7,0.2-1.5,0.5-2.4,0.7C443.8,277.8,443.7,277.8,443.7,277.8z M448.4,276.3
					c-0.2,0-0.4-0.1-0.5-0.3c-0.1-0.3,0.1-0.6,0.3-0.6c0.2-0.1,0.4-0.1,0.6-0.2c0.6-0.2,1.2-0.4,1.7-0.6c0.3-0.1,0.6,0,0.7,0.3
					s0,0.6-0.3,0.7c-0.6,0.2-1.2,0.4-1.8,0.6c-0.2,0.1-0.4,0.1-0.6,0.2C448.5,276.3,448.4,276.3,448.4,276.3z M362.5,276.3
					c-0.2,0-0.3-0.1-0.4-0.2c-0.4-0.7-0.9-1.4-1.3-2.1c-0.1-0.2,0-0.6,0.2-0.7s0.6,0,0.7,0.2c0.4,0.7,0.8,1.4,1.2,2.1
					c0.2,0.2,0.1,0.6-0.1,0.7C362.7,276.3,362.6,276.3,362.5,276.3z M453,274.6c-0.2,0-0.4-0.1-0.5-0.3c-0.1-0.3,0-0.6,0.3-0.7
					c0.8-0.3,1.5-0.6,2.3-0.9c0.3-0.1,0.6,0,0.7,0.3s0,0.6-0.3,0.7c-0.7,0.3-1.5,0.6-2.3,1C453.1,274.6,453.1,274.6,453,274.6z
					 M457.5,272.7c-0.2,0-0.4-0.1-0.5-0.3c-0.1-0.3,0-0.6,0.2-0.7c0.7-0.4,1.5-0.7,2.2-1.1c0.3-0.1,0.6,0,0.7,0.2
					c0.1,0.3,0,0.6-0.2,0.7c-0.7,0.4-1.5,0.7-2.2,1.1C457.6,272.6,457.6,272.7,457.5,272.7z M360.1,272c-0.2,0-0.4-0.1-0.5-0.3
					c-0.3-0.7-0.7-1.5-1-2.3c-0.1-0.3,0-0.6,0.3-0.7s0.6,0,0.7,0.3c0.3,0.8,0.6,1.5,0.9,2.2c0.1,0.3,0,0.6-0.3,0.7
					C360.3,272,360.2,272,360.1,272z M461.8,270.4c-0.2,0-0.4-0.1-0.4-0.3c-0.1-0.2-0.1-0.6,0.2-0.7c0.7-0.4,1.4-0.8,2.1-1.2
					c0.2-0.1,0.6-0.1,0.7,0.2c0.1,0.2,0.1,0.6-0.2,0.7c-0.7,0.4-1.4,0.8-2.1,1.3C462,270.4,461.9,270.4,461.8,270.4z M466,267.8
					c-0.2,0-0.3-0.1-0.4-0.2c-0.2-0.2-0.1-0.6,0.1-0.7c0.7-0.5,1.4-1,2-1.4c0.2-0.2,0.5-0.1,0.7,0.1s0.1,0.5-0.1,0.7
					c-0.6,0.5-1.3,1-2,1.5C466.2,267.8,466.1,267.8,466,267.8z M358.4,267.4c-0.2,0-0.4-0.1-0.5-0.4c-0.4-1.5-0.6-2.4-0.6-2.4
					c0-0.3,0.1-0.5,0.4-0.6s0.5,0.1,0.6,0.4c0,0,0.2,0.9,0.6,2.3c0.1,0.3-0.1,0.6-0.3,0.6C358.5,267.4,358.4,267.4,358.4,267.4z"/>
			</g>
		</g>
		<g>
			<g>
				<path class="st8" d="M384.5,290.2c-0.3,0-0.5-0.2-0.5-0.5s0.2-0.5,0.5-0.5c0.8,0,1.6,0,2.4,0c0.3,0,0.5,0.2,0.5,0.5
					s-0.2,0.5-0.5,0.5C386.1,290.1,385.3,290.2,384.5,290.2L384.5,290.2z M382,290.2L382,290.2c-0.9,0-1.7,0-2.5-0.1
					c-0.3,0-0.5-0.3-0.5-0.5c0-0.3,0.2-0.5,0.5-0.5c0.8,0,1.6,0.1,2.4,0.1c0.3,0,0.5,0.2,0.5,0.5C382.5,289.9,382.3,290.2,382,290.2
					z M389.4,290c-0.3,0-0.5-0.2-0.5-0.5s0.2-0.5,0.5-0.5c0.8,0,1.6-0.1,2.4-0.1c0.3,0,0.5,0.2,0.5,0.5s-0.2,0.5-0.5,0.5
					C391.1,289.9,390.2,290,389.4,290L389.4,290z M377.1,289.9L377.1,289.9c-0.9-0.1-1.7-0.2-2.5-0.3c-0.3,0-0.5-0.3-0.4-0.6
					c0-0.3,0.3-0.5,0.6-0.4c0.7,0.1,1.6,0.2,2.4,0.3c0.3,0,0.5,0.3,0.5,0.6C377.6,289.7,377.4,289.9,377.1,289.9z M394.3,289.7
					c-0.3,0-0.5-0.2-0.5-0.5s0.2-0.5,0.5-0.5c0.8-0.1,1.6-0.1,2.4-0.2c0.3,0,0.5,0.2,0.6,0.5c0,0.3-0.2,0.5-0.5,0.6
					C396,289.6,395.1,289.6,394.3,289.7L394.3,289.7z M399.2,289.3c-0.3,0-0.5-0.2-0.5-0.5s0.2-0.5,0.5-0.6c0.8-0.1,1.6-0.2,2.4-0.3
					c0.3,0,0.5,0.2,0.6,0.5c0,0.3-0.2,0.5-0.5,0.6C400.9,289.1,400.1,289.2,399.2,289.3L399.2,289.3z M372.3,289.1h-0.1
					c-0.8-0.2-1.6-0.4-2.2-0.7c-0.1,0-0.1-0.1-0.2-0.1c-0.3-0.1-0.4-0.4-0.3-0.7c0.1-0.3,0.4-0.4,0.7-0.3c0.1,0,0.1,0.1,0.2,0.1
					c0.6,0.2,1.3,0.5,2.1,0.7c0.3,0.1,0.4,0.3,0.4,0.6C372.7,289,372.5,289.1,372.3,289.1z M404.1,288.7c-0.3,0-0.5-0.2-0.5-0.4
					c0-0.3,0.2-0.5,0.4-0.6c0.8-0.1,1.6-0.2,2.4-0.3c0.3,0,0.5,0.2,0.6,0.4c0,0.3-0.2,0.5-0.4,0.6
					C405.8,288.5,405,288.6,404.1,288.7L404.1,288.7z M408.9,288.1c-0.3,0-0.5-0.2-0.5-0.4c0-0.3,0.2-0.5,0.4-0.6
					c0.8-0.1,1.6-0.2,2.4-0.4c0.3,0,0.5,0.2,0.6,0.4c0,0.3-0.2,0.5-0.4,0.6C410.6,287.8,409.8,288,408.9,288.1
					C409,288.1,409,288.1,408.9,288.1z M413.8,287.3c-0.2,0-0.5-0.2-0.5-0.4c0-0.3,0.1-0.5,0.4-0.6c0.8-0.1,1.6-0.3,2.4-0.4
					c0.3,0,0.5,0.1,0.6,0.4c0,0.3-0.1,0.5-0.4,0.6C415.5,287.1,414.7,287.2,413.8,287.3C413.9,287.3,413.8,287.3,413.8,287.3z
					 M367.8,287.2c-0.1,0-0.2,0-0.3-0.1c-0.7-0.4-1.4-0.9-2.1-1.4c-0.2-0.2-0.3-0.5-0.1-0.7c0.2-0.2,0.5-0.3,0.7-0.1
					c0.6,0.5,1.3,0.9,2,1.3c0.2,0.1,0.3,0.5,0.2,0.7C368.1,287.2,367.9,287.2,367.8,287.2z M418.7,286.6c-0.2,0-0.5-0.2-0.5-0.4
					c0-0.3,0.1-0.5,0.4-0.6c0.8-0.1,1.6-0.3,2.4-0.4c0.3,0,0.5,0.1,0.6,0.4c0,0.3-0.1,0.5-0.4,0.6
					C420.4,286.3,419.6,286.4,418.7,286.6C418.7,286.5,418.7,286.6,418.7,286.6z M423.5,285.7c-0.2,0-0.5-0.2-0.5-0.4
					c-0.1-0.3,0.1-0.5,0.4-0.6c0.8-0.2,1.6-0.3,2.4-0.5c0.3-0.1,0.5,0.1,0.6,0.4s-0.1,0.5-0.4,0.6
					C425.2,285.4,424.4,285.5,423.5,285.7C423.6,285.7,423.5,285.7,423.5,285.7z M428.3,284.7c-0.2,0-0.5-0.2-0.5-0.4
					c-0.1-0.3,0.1-0.5,0.4-0.6c0.8-0.2,1.6-0.3,2.4-0.5c0.3-0.1,0.5,0.1,0.6,0.4s-0.1,0.5-0.4,0.6c-0.8,0.2-1.6,0.3-2.4,0.5
					C428.4,284.7,428.4,284.7,428.3,284.7z M363.9,284.3c-0.1,0-0.3,0-0.4-0.1c-0.6-0.6-1.2-1.2-1.7-1.8c-0.2-0.2-0.2-0.5,0-0.7
					s0.5-0.2,0.7,0c0.5,0.6,1.1,1.2,1.7,1.7c0.2,0.2,0.2,0.5,0,0.7C364.1,284.2,364,284.3,363.9,284.3z M433.1,283.7
					c-0.2,0-0.4-0.2-0.5-0.4c-0.1-0.3,0.1-0.5,0.4-0.6c0.8-0.2,1.6-0.4,2.4-0.5c0.3-0.1,0.6,0.1,0.6,0.4c0.1,0.3-0.1,0.6-0.4,0.6
					c-0.8,0.2-1.6,0.4-2.4,0.5C433.2,283.7,433.2,283.7,433.1,283.7z M437.9,282.6c-0.2,0-0.4-0.2-0.5-0.4c-0.1-0.3,0.1-0.6,0.4-0.6
					c0.8-0.2,1.6-0.4,2.4-0.6c0.3-0.1,0.6,0.1,0.6,0.4c0.1,0.3-0.1,0.6-0.4,0.6c-0.8,0.2-1.6,0.4-2.4,0.6
					C438,282.6,438,282.6,437.9,282.6z M442.7,281.3c-0.2,0-0.4-0.1-0.5-0.4s0.1-0.6,0.4-0.6c0.8-0.2,1.6-0.5,2.3-0.7
					c0.3-0.1,0.6,0.1,0.6,0.3c0.1,0.3-0.1,0.6-0.3,0.6c-0.7,0.2-1.5,0.5-2.4,0.7C442.8,281.3,442.7,281.3,442.7,281.3z M360.6,280.6
					c-0.2,0-0.3-0.1-0.4-0.2c-0.5-0.7-1-1.3-1.4-2.1c-0.2-0.2-0.1-0.6,0.2-0.7c0.2-0.2,0.6-0.1,0.7,0.2c0.4,0.7,0.9,1.4,1.4,2
					c0.2,0.2,0.1,0.5-0.1,0.7C360.8,280.6,360.7,280.6,360.6,280.6z M447.3,279.8c-0.2,0-0.4-0.1-0.5-0.3c-0.1-0.3,0-0.6,0.3-0.7
					c0.8-0.3,1.5-0.5,2.3-0.8c0.3-0.1,0.6,0,0.7,0.3s0,0.6-0.3,0.7c-0.8,0.3-1.6,0.6-2.3,0.8C447.5,279.8,447.4,279.8,447.3,279.8z
					 M451.9,278.1c-0.2,0-0.4-0.1-0.5-0.3c-0.1-0.3,0-0.6,0.3-0.7c0.8-0.3,1.5-0.6,2.3-0.9c0.3-0.1,0.6,0,0.7,0.3s0,0.6-0.3,0.7
					c-0.8,0.3-1.5,0.6-2.3,0.9C452.1,278.1,452,278.1,451.9,278.1z M358,276.5c-0.2,0-0.4-0.1-0.4-0.3c-0.4-0.7-0.8-1.5-1.1-2.2
					c-0.1-0.3,0-0.6,0.2-0.7c0.3-0.1,0.6,0,0.7,0.2c0.4,0.7,0.7,1.5,1.1,2.2c0.1,0.2,0,0.6-0.2,0.7
					C358.2,276.4,358.1,276.5,358,276.5z M456.5,276.3c-0.2,0-0.4-0.1-0.5-0.3c-0.1-0.3,0-0.6,0.3-0.7c0.8-0.3,1.5-0.6,2.2-1
					c0.3-0.1,0.6,0,0.7,0.3s0,0.6-0.3,0.7c-0.7,0.3-1.5,0.7-2.3,1C456.6,276.2,456.6,276.3,456.5,276.3z M461,274.3
					c-0.2,0-0.4-0.1-0.5-0.3c-0.1-0.3,0-0.6,0.3-0.7c0.7-0.3,1.5-0.7,2.2-1c0.3-0.1,0.6,0,0.7,0.2c0.1,0.3,0,0.6-0.2,0.7
					c-0.7,0.3-1.5,0.7-2.2,1C461.1,274.3,461.1,274.3,461,274.3z M465.4,272.2c-0.2,0-0.4-0.1-0.5-0.3c-0.1-0.3,0-0.6,0.2-0.7
					c0.7-0.4,1.5-0.7,2.2-1.1c0.3-0.1,0.6,0,0.7,0.2c0.1,0.3,0,0.6-0.2,0.7c-0.7,0.4-1.5,0.7-2.2,1.1
					C465.6,272.2,465.5,272.2,465.4,272.2z M355.9,272c-0.2,0-0.4-0.1-0.5-0.3c-0.3-0.8-0.6-1.5-0.9-2.3c-0.1-0.3,0-0.6,0.3-0.7
					s0.6,0,0.7,0.3c0.3,0.8,0.6,1.5,0.9,2.3c0.1,0.3,0,0.6-0.3,0.7C356,272,355.9,272,355.9,272z M469.8,270c-0.2,0-0.4-0.1-0.5-0.3
					c-0.1-0.3,0-0.6,0.2-0.7c0.7-0.4,1.5-0.8,2.2-1.1c0.2-0.1,0.6,0,0.7,0.2s0,0.6-0.2,0.7c-0.7,0.4-1.4,0.8-2.2,1.1
					C470,270,469.9,270,469.8,270z M354.2,267.4c-0.2,0-0.4-0.1-0.5-0.4c-0.4-1.5-0.6-2.4-0.6-2.4c-0.1-0.3,0.1-0.5,0.4-0.6
					s0.5,0.1,0.6,0.4c0,0,0.2,0.9,0.6,2.3c0.1,0.3-0.1,0.6-0.3,0.6C354.3,267.4,354.3,267.4,354.2,267.4z"/>
			</g>
		</g>
		<g>
			<g>
				<path class="st8" d="M194.3,273.3c-0.1,0-0.3-0.1-0.4-0.2c-0.2-0.2-0.2-0.5,0.1-0.7c0.6-0.5,1.2-1,1.8-1.6
					c0.2-0.2,0.5-0.2,0.7,0s0.2,0.5,0,0.7c-0.6,0.6-1.3,1.2-1.9,1.7C194.6,273.3,194.4,273.3,194.3,273.3z M197.9,270
					c-0.1,0-0.3,0-0.4-0.1c-0.2-0.2-0.2-0.5,0-0.7c0.5-0.6,1.1-1.1,1.7-1.8c0.2-0.2,0.5-0.2,0.7,0s0.2,0.5,0,0.7
					c-0.6,0.6-1.2,1.2-1.7,1.8C198.2,269.9,198,270,197.9,270z M201.2,266.4c-0.1,0-0.2,0-0.3-0.1c-0.2-0.2-0.2-0.5,0-0.7
					c0.5-0.6,1.1-1.2,1.6-1.9c0.2-0.2,0.5-0.2,0.7-0.1c0.2,0.2,0.2,0.5,0.1,0.7c-0.5,0.6-1.1,1.3-1.6,1.9
					C201.5,266.3,201.4,266.4,201.2,266.4z M204.4,262.6c-0.1,0-0.2,0-0.3-0.1c-0.2-0.2-0.2-0.5-0.1-0.7c0.5-0.6,1-1.2,1.6-1.9
					c0.2-0.2,0.5-0.3,0.7-0.1c0.2,0.2,0.3,0.5,0.1,0.7c-0.5,0.7-1.1,1.3-1.6,1.9C204.7,262.6,204.6,262.6,204.4,262.6z M207.5,258.8
					c-0.1,0-0.2,0-0.3-0.1c-0.2-0.2-0.3-0.5-0.1-0.7c0.5-0.6,1-1.3,1.5-1.9c0.2-0.2,0.5-0.3,0.7-0.1c0.2,0.2,0.3,0.5,0.1,0.7
					c-0.5,0.7-1,1.3-1.5,1.9C207.8,258.7,207.7,258.8,207.5,258.8z M210.6,254.9c-0.1,0-0.2,0-0.3-0.1c-0.2-0.2-0.3-0.5-0.1-0.7
					c0.5-0.6,1-1.3,1.5-2c0.2-0.2,0.5-0.3,0.7-0.1s0.3,0.5,0.1,0.7c-0.5,0.7-1,1.3-1.5,2C210.9,254.9,210.7,254.9,210.6,254.9z
					 M213.5,251c-0.1,0-0.2,0-0.3-0.1c-0.2-0.2-0.3-0.5-0.1-0.7c0.5-0.6,1-1.3,1.5-2c0.2-0.2,0.5-0.3,0.7-0.1s0.3,0.5,0.1,0.7
					c-0.5,0.7-1,1.3-1.5,2C213.8,250.9,213.7,251,213.5,251z M216.5,247.1c-0.1,0-0.2,0-0.3-0.1c-0.2-0.2-0.3-0.5-0.1-0.7
					c0.5-0.7,1-1.3,1.4-2c0.2-0.2,0.5-0.3,0.7-0.1s0.3,0.5,0.1,0.7c-0.5,0.7-1,1.3-1.4,2C216.8,247,216.6,247.1,216.5,247.1z
					 M219.3,243.1c-0.1,0-0.2,0-0.3-0.1c-0.2-0.2-0.3-0.5-0.1-0.7c0.5-0.7,1-1.3,1.4-2c0.2-0.2,0.5-0.3,0.7-0.1s0.3,0.5,0.1,0.7
					c-0.5,0.7-1,1.3-1.4,2C219.7,243,219.5,243.1,219.3,243.1z M222.2,239.1c-0.1,0-0.2,0-0.3-0.1c-0.2-0.2-0.3-0.5-0.1-0.7
					c0.5-0.7,0.9-1.3,1.4-2c0.2-0.2,0.5-0.3,0.7-0.1s0.3,0.5,0.1,0.7c-0.5,0.7-0.9,1.3-1.4,2C222.5,239,222.4,239.1,222.2,239.1z
					 M225,235c-0.1,0-0.2,0-0.3-0.1c-0.2-0.2-0.3-0.5-0.1-0.7c0.5-0.7,0.9-1.3,1.4-2c0.2-0.2,0.5-0.3,0.7-0.1s0.3,0.5,0.1,0.7
					c-0.5,0.7-0.9,1.3-1.4,2C225.4,235,225.2,235,225,235z M227.8,231c-0.1,0-0.2,0-0.3-0.1c-0.2-0.2-0.3-0.5-0.1-0.7
					c0.5-0.7,0.9-1.4,1.4-2c0.2-0.2,0.5-0.3,0.7-0.1s0.3,0.5,0.1,0.7c-0.5,0.7-0.9,1.4-1.4,2C228.2,230.9,228,231,227.8,231z
					 M230.6,226.9c-0.1,0-0.2,0-0.3-0.1c-0.2-0.2-0.3-0.5-0.1-0.7c0.5-0.7,0.9-1.4,1.4-2c0.2-0.2,0.5-0.3,0.7-0.1s0.3,0.5,0.1,0.7
					c-0.5,0.7-0.9,1.4-1.4,2C230.9,226.9,230.8,226.9,230.6,226.9z M233.4,222.9c-0.1,0-0.2,0-0.3-0.1c-0.2-0.2-0.3-0.5-0.1-0.7
					c0.5-0.7,0.9-1.4,1.4-2c0.2-0.2,0.5-0.3,0.7-0.1s0.3,0.5,0.1,0.7c-0.5,0.7-0.9,1.4-1.4,2C233.7,222.8,233.5,222.9,233.4,222.9z
					 M236.1,218.8c-0.1,0-0.2,0-0.3-0.1c-0.2-0.2-0.3-0.5-0.1-0.7c0.5-0.7,0.9-1.4,1.4-2c0.2-0.2,0.5-0.3,0.7-0.1s0.3,0.5,0.1,0.7
					c-0.5,0.7-0.9,1.4-1.4,2C236.4,218.7,236.3,218.8,236.1,218.8z M238.8,214.7c-0.1,0-0.2,0-0.3-0.1c-0.2-0.2-0.3-0.5-0.1-0.7
					c0.5-0.7,0.9-1.4,1.4-2c0.2-0.2,0.5-0.3,0.7-0.1s0.3,0.5,0.1,0.7c-0.4,0.7-0.9,1.4-1.4,2.1C239.2,214.6,239,214.7,238.8,214.7z
					 M241.6,210.6c-0.1,0-0.2,0-0.3-0.1c-0.2-0.2-0.3-0.5-0.1-0.7c0.5-0.7,0.9-1.4,1.3-2.1c0.2-0.2,0.5-0.3,0.7-0.1s0.3,0.5,0.1,0.7
					c-0.4,0.7-0.9,1.4-1.4,2.1C241.9,210.5,241.7,210.6,241.6,210.6z M244.3,206.5c-0.1,0-0.2,0-0.3-0.1c-0.2-0.2-0.3-0.5-0.1-0.7
					c0.5-0.7,0.9-1.4,1.3-2.1c0.2-0.2,0.5-0.3,0.7-0.1s0.3,0.5,0.1,0.7c-0.4,0.7-0.9,1.4-1.3,2.1
					C244.6,206.4,244.4,206.5,244.3,206.5z M246.9,202.4c-0.1,0-0.2,0-0.3-0.1c-0.2-0.2-0.3-0.5-0.2-0.7c0.5-0.7,0.9-1.4,1.3-2.1
					c0.2-0.2,0.5-0.3,0.7-0.2c0.2,0.2,0.3,0.5,0.2,0.7c-0.4,0.7-0.9,1.4-1.3,2.1C247.3,202.3,247.1,202.4,246.9,202.4z M249.6,198.3
					c-0.1,0-0.2,0-0.3-0.1c-0.2-0.2-0.3-0.5-0.2-0.7c0.5-0.7,0.9-1.4,1.3-2.1c0.2-0.2,0.5-0.3,0.7-0.2c0.2,0.2,0.3,0.5,0.2,0.7
					c-0.4,0.7-0.9,1.4-1.3,2.1C249.9,198.2,249.8,198.3,249.6,198.3z M252.3,194.1c-0.1,0-0.2,0-0.3-0.1c-0.2-0.2-0.3-0.5-0.2-0.7
					c0.5-0.7,0.9-1.4,1.3-2.1c0.2-0.2,0.5-0.3,0.7-0.2c0.2,0.2,0.3,0.5,0.2,0.7c-0.4,0.7-0.9,1.4-1.3,2.1
					C252.6,194,252.4,194.1,252.3,194.1z M254.9,190c-0.1,0-0.2,0-0.3-0.1c-0.2-0.2-0.3-0.5-0.2-0.7c0.5-0.7,0.9-1.4,1.3-2.1
					c0.2-0.2,0.5-0.3,0.7-0.2c0.2,0.2,0.3,0.5,0.2,0.7c-0.4,0.7-0.9,1.4-1.3,2.1C255.2,189.9,255.1,190,254.9,190z M257.5,185.8
					c-0.1,0-0.2,0-0.3-0.1c-0.2-0.2-0.3-0.5-0.2-0.7c0.5-0.8,0.9-1.5,1.3-2.1c0.2-0.2,0.5-0.3,0.7-0.2c0.2,0.2,0.3,0.5,0.2,0.7
					c-0.4,0.6-0.8,1.3-1.3,2.1C257.9,185.7,257.7,185.8,257.5,185.8z M260.2,181.6c-0.1,0-0.2,0-0.3-0.1c-0.2-0.1-0.3-0.5-0.2-0.7
					c0.9-1.4,1.3-2.1,1.3-2.1c0.1-0.2,0.5-0.3,0.7-0.2s0.3,0.5,0.2,0.7c0,0-0.5,0.7-1.3,2.1C260.5,181.5,260.3,181.6,260.2,181.6z"
					/>
			</g>
		</g>
		<g>
			<g>
				<path class="st8" d="M196.9,275c-0.1,0-0.3-0.1-0.4-0.2c-0.2-0.2-0.1-0.5,0.1-0.7c0.6-0.5,1.2-1,1.8-1.6c0.2-0.2,0.5-0.2,0.7,0
					s0.2,0.5,0,0.7c-0.7,0.6-1.3,1.2-1.9,1.6C197.1,274.9,197,275,196.9,275z M200.5,271.7c-0.1,0-0.3,0-0.4-0.1
					c-0.2-0.2-0.2-0.5,0-0.7c0.5-0.5,1.1-1.1,1.7-1.8c0.2-0.2,0.5-0.2,0.7,0s0.2,0.5,0,0.7c-0.6,0.6-1.2,1.2-1.7,1.8
					C200.8,271.6,200.6,271.7,200.5,271.7z M203.9,268.1c-0.1,0-0.2,0-0.3-0.1c-0.2-0.2-0.2-0.5,0-0.7c0.5-0.6,1.1-1.2,1.6-1.8
					c0.2-0.2,0.5-0.2,0.7-0.1c0.2,0.2,0.2,0.5,0.1,0.7c-0.6,0.6-1.1,1.3-1.6,1.9C204.2,268,204,268.1,203.9,268.1z M207.1,264.3
					c-0.1,0-0.2,0-0.3-0.1c-0.2-0.2-0.2-0.5-0.1-0.7c0.5-0.6,1-1.2,1.6-1.9c0.2-0.2,0.5-0.3,0.7-0.1c0.2,0.2,0.3,0.5,0.1,0.7
					c-0.5,0.7-1.1,1.3-1.6,1.9C207.4,264.3,207.2,264.3,207.1,264.3z M210.2,260.5c-0.1,0-0.2,0-0.3-0.1c-0.2-0.2-0.3-0.5-0.1-0.7
					c0.5-0.6,1-1.3,1.5-1.9c0.2-0.2,0.5-0.3,0.7-0.1c0.2,0.2,0.3,0.5,0.1,0.7c-0.5,0.7-1,1.3-1.5,1.9
					C210.5,260.5,210.4,260.5,210.2,260.5z M213.3,256.7c-0.1,0-0.2,0-0.3-0.1c-0.2-0.2-0.3-0.5-0.1-0.7c0.5-0.6,1-1.3,1.5-1.9
					c0.2-0.2,0.5-0.3,0.7-0.1s0.3,0.5,0.1,0.7c-0.5,0.7-1,1.3-1.5,2C213.6,256.6,213.4,256.7,213.3,256.7z M216.2,252.8
					c-0.1,0-0.2,0-0.3-0.1c-0.2-0.2-0.3-0.5-0.1-0.7c0.5-0.6,1-1.3,1.5-2c0.2-0.2,0.5-0.3,0.7-0.1s0.3,0.5,0.1,0.7
					c-0.5,0.7-1,1.3-1.5,2C216.5,252.7,216.4,252.8,216.2,252.8z M219.2,248.8c-0.1,0-0.2,0-0.3-0.1c-0.2-0.2-0.3-0.5-0.1-0.7
					c0.5-0.7,1-1.3,1.5-2c0.2-0.2,0.5-0.3,0.7-0.1s0.3,0.5,0.1,0.7c-0.5,0.7-1,1.3-1.5,2C219.5,248.8,219.3,248.8,219.2,248.8z
					 M222.1,244.9c-0.1,0-0.2,0-0.3-0.1c-0.2-0.2-0.3-0.5-0.1-0.7c0.5-0.7,1-1.3,1.4-2c0.2-0.2,0.5-0.3,0.7-0.1s0.3,0.5,0.1,0.7
					c-0.5,0.7-1,1.3-1.4,2C222.4,244.8,222.2,244.9,222.1,244.9z M224.9,240.9c-0.1,0-0.2,0-0.3-0.1c-0.2-0.2-0.3-0.5-0.1-0.7
					c0.5-0.7,0.9-1.3,1.4-2c0.2-0.2,0.5-0.3,0.7-0.1s0.3,0.5,0.1,0.7c-0.5,0.7-1,1.3-1.4,2C225.3,240.8,225.1,240.9,224.9,240.9z
					 M227.8,236.9c-0.1,0-0.2,0-0.3-0.1c-0.2-0.2-0.3-0.5-0.1-0.7c0.5-0.7,0.9-1.3,1.4-2c0.2-0.2,0.5-0.3,0.7-0.1s0.3,0.5,0.1,0.7
					c-0.5,0.7-0.9,1.3-1.4,2C228.1,236.8,227.9,236.9,227.8,236.9z M230.6,232.8c-0.1,0-0.2,0-0.3-0.1c-0.2-0.2-0.3-0.5-0.1-0.7
					c0.5-0.7,0.9-1.4,1.4-2c0.2-0.2,0.5-0.3,0.7-0.1s0.3,0.5,0.1,0.7c-0.5,0.7-0.9,1.4-1.4,2C230.9,232.8,230.8,232.8,230.6,232.8z
					 M233.4,228.8c-0.1,0-0.2,0-0.3-0.1c-0.2-0.2-0.3-0.5-0.1-0.7c0.5-0.7,0.9-1.4,1.4-2c0.2-0.2,0.5-0.3,0.7-0.1s0.3,0.5,0.1,0.7
					c-0.5,0.7-0.9,1.4-1.4,2C233.7,228.7,233.6,228.8,233.4,228.8z M236.2,224.7c-0.1,0-0.2,0-0.3-0.1c-0.2-0.2-0.3-0.5-0.1-0.7
					c0.5-0.7,0.9-1.4,1.4-2c0.2-0.2,0.5-0.3,0.7-0.1s0.3,0.5,0.1,0.7c-0.5,0.7-0.9,1.4-1.4,2C236.5,224.6,236.3,224.7,236.2,224.7z
					 M238.9,220.7c-0.1,0-0.2,0-0.3-0.1c-0.2-0.2-0.3-0.5-0.1-0.7c0.5-0.7,0.9-1.4,1.4-2c0.2-0.2,0.5-0.3,0.7-0.1s0.3,0.5,0.1,0.7
					c-0.5,0.7-0.9,1.4-1.4,2C239.3,220.6,239.1,220.7,238.9,220.7z M241.7,216.6c-0.1,0-0.2,0-0.3-0.1c-0.2-0.2-0.3-0.5-0.1-0.7
					c0.5-0.7,0.9-1.4,1.4-2c0.2-0.2,0.5-0.3,0.7-0.1s0.3,0.5,0.1,0.7c-0.5,0.7-0.9,1.4-1.4,2C242,216.5,241.8,216.6,241.7,216.6z
					 M244.4,212.5c-0.1,0-0.2,0-0.3-0.1c-0.2-0.2-0.3-0.5-0.1-0.7c0.5-0.7,0.9-1.4,1.4-2c0.2-0.2,0.5-0.3,0.7-0.1s0.3,0.5,0.1,0.7
					c-0.4,0.7-0.9,1.4-1.4,2.1C244.7,212.4,244.6,212.5,244.4,212.5z M247.1,208.4c-0.1,0-0.2,0-0.3-0.1c-0.2-0.2-0.3-0.5-0.1-0.7
					c0.5-0.7,0.9-1.4,1.3-2.1c0.2-0.2,0.5-0.3,0.7-0.1s0.3,0.5,0.1,0.7c-0.4,0.7-0.9,1.4-1.4,2.1
					C247.4,208.3,247.3,208.4,247.1,208.4z M249.8,204.3c-0.1,0-0.2,0-0.3-0.1c-0.2-0.2-0.3-0.5-0.1-0.7c0.5-0.7,0.9-1.4,1.3-2.1
					c0.2-0.2,0.5-0.3,0.7-0.1s0.3,0.5,0.1,0.7c-0.4,0.7-0.9,1.4-1.3,2.1C250.1,204.2,250,204.3,249.8,204.3z M252.5,200.1
					c-0.1,0-0.2,0-0.3-0.1c-0.2-0.2-0.3-0.5-0.2-0.7c0.5-0.7,0.9-1.4,1.3-2.1c0.2-0.2,0.5-0.3,0.7-0.2c0.2,0.2,0.3,0.5,0.2,0.7
					c-0.4,0.7-0.9,1.4-1.3,2.1C252.8,200.1,252.6,200.1,252.5,200.1z M255.2,196c-0.1,0-0.2,0-0.3-0.1c-0.2-0.2-0.3-0.5-0.2-0.7
					c0.5-0.7,0.9-1.4,1.3-2.1c0.2-0.2,0.5-0.3,0.7-0.2c0.2,0.2,0.3,0.5,0.2,0.7c-0.4,0.7-0.9,1.4-1.3,2.1
					C255.5,195.9,255.3,196,255.2,196z M257.8,191.9c-0.1,0-0.2,0-0.3-0.1c-0.2-0.2-0.3-0.5-0.2-0.7c0.5-0.7,0.9-1.4,1.3-2.1
					c0.2-0.2,0.5-0.3,0.7-0.2c0.2,0.2,0.3,0.5,0.2,0.7c-0.4,0.7-0.9,1.4-1.3,2.1C258.1,191.8,258,191.9,257.8,191.9z M260.5,187.7
					c-0.1,0-0.2,0-0.3-0.1c-0.2-0.2-0.3-0.5-0.2-0.7c0.5-0.8,0.9-1.5,1.3-2.1c0.2-0.2,0.5-0.3,0.7-0.2c0.2,0.2,0.3,0.5,0.2,0.7
					c-0.4,0.6-0.8,1.3-1.3,2.1C260.8,187.6,260.6,187.7,260.5,187.7z M263.1,183.5c-0.1,0-0.2,0-0.3-0.1c-0.2-0.2-0.3-0.5-0.2-0.7
					c0.9-1.4,1.3-2.1,1.3-2.1c0.1-0.2,0.5-0.3,0.7-0.2s0.3,0.5,0.2,0.7c0,0-0.5,0.7-1.3,2.1C263.4,183.5,263.3,183.5,263.1,183.5z"
					/>
			</g>
		</g>
		<g>
			<g>
				<path class="st8" d="M205.4,303.4c-0.3,0-0.5-0.2-0.5-0.4c0-0.2-0.1-0.4-0.1-0.6c-0.1-0.3,0.1-0.5,0.4-0.6
					c0.3-0.1,0.5,0.1,0.6,0.4c0,0.2,0.1,0.4,0.1,0.6C205.9,303.1,205.8,303.3,205.4,303.4L205.4,303.4z M204.5,300.5
					c-0.2,0-0.4-0.1-0.5-0.3c-0.3-0.6-0.7-1.3-1.2-2c-0.2-0.2-0.1-0.6,0.1-0.7c0.2-0.2,0.6-0.1,0.7,0.1c0.5,0.7,1,1.5,1.3,2.2
					c0.1,0.3,0,0.6-0.2,0.7C204.6,300.5,204.5,300.5,204.5,300.5z M201.7,296.5c-0.1,0-0.3-0.1-0.4-0.2c-0.5-0.6-1-1.2-1.6-1.8
					c-0.2-0.2-0.2-0.5,0-0.7s0.5-0.2,0.7,0c0.6,0.6,1.2,1.2,1.7,1.8c0.2,0.2,0.2,0.5-0.1,0.7C201.9,296.4,201.8,296.5,201.7,296.5z
					 M198.2,293c-0.1,0-0.2,0-0.3-0.1c-0.6-0.5-1.2-1.1-1.8-1.6c-0.2-0.2-0.2-0.5-0.1-0.7c0.2-0.2,0.5-0.2,0.7-0.1
					c0.7,0.5,1.3,1.1,1.9,1.6c0.2,0.2,0.2,0.5,0,0.7C198.5,292.9,198.4,293,198.2,293z M194.5,289.8c-0.1,0-0.2,0-0.3-0.1
					c-0.6-0.5-1.3-1-1.9-1.5c-0.2-0.2-0.3-0.5-0.1-0.7s0.5-0.3,0.7-0.1c0.7,0.5,1.3,1,2,1.5c0.2,0.2,0.3,0.5,0.1,0.7
					C194.8,289.7,194.6,289.8,194.5,289.8z M190.5,286.9c-0.1,0-0.2,0-0.3-0.1c-0.6-0.5-1.3-0.9-2-1.4c-0.2-0.2-0.3-0.5-0.1-0.7
					s0.5-0.3,0.7-0.1c0.7,0.5,1.4,0.9,2,1.4c0.2,0.2,0.3,0.5,0.1,0.7C190.9,286.8,190.7,286.9,190.5,286.9z M186.5,284.1
					c-0.1,0-0.2,0-0.3-0.1c-0.7-0.4-1.4-0.9-2.1-1.3c-0.2-0.2-0.3-0.5-0.2-0.7c0.2-0.2,0.5-0.3,0.7-0.2c0.7,0.4,1.4,0.9,2.1,1.3
					c0.2,0.2,0.3,0.5,0.1,0.7C186.8,284,186.6,284.1,186.5,284.1z M182.3,281.5c-0.1,0-0.2,0-0.3-0.1c-0.7-0.4-1.4-0.8-2.1-1.3
					c-0.2-0.1-0.3-0.5-0.2-0.7s0.5-0.3,0.7-0.2c0.7,0.4,1.4,0.9,2.1,1.3c0.2,0.1,0.3,0.5,0.2,0.7
					C182.7,281.4,182.5,281.5,182.3,281.5z M178.1,278.9c-0.1,0-0.2,0-0.3-0.1c-0.7-0.4-1.4-0.8-2.1-1.2c-0.2-0.1-0.3-0.5-0.2-0.7
					s0.5-0.3,0.7-0.2c0.7,0.4,1.4,0.8,2.1,1.2c0.2,0.1,0.3,0.5,0.2,0.7C178.5,278.8,178.3,278.9,178.1,278.9z M173.9,276.5
					c-0.1,0-0.2,0-0.3-0.1c-0.7-0.4-1.4-0.8-2.1-1.2c-0.2-0.1-0.3-0.4-0.2-0.7s0.4-0.3,0.7-0.2c0.7,0.4,1.4,0.8,2.1,1.2
					c0.2,0.1,0.3,0.5,0.2,0.7C174.2,276.4,174,276.5,173.9,276.5z M169.6,274.1c-0.1,0-0.2,0-0.2-0.1c-0.7-0.4-1.4-0.8-2.2-1.2
					c-0.2-0.1-0.3-0.4-0.2-0.7c0.1-0.2,0.4-0.3,0.7-0.2c0.7,0.4,1.4,0.8,2.2,1.2c0.2,0.1,0.3,0.4,0.2,0.7
					C169.9,274,169.7,274.1,169.6,274.1z M165.2,271.7c-0.1,0-0.2,0-0.2-0.1c-0.7-0.4-1.4-0.8-2.2-1.1c-0.3-0.1-0.3-0.4-0.2-0.7
					c0.1-0.3,0.4-0.3,0.7-0.2c0.7,0.4,1.5,0.8,2.2,1.1c0.2,0.1,0.3,0.4,0.2,0.7C165.6,271.6,165.4,271.7,165.2,271.7z M160.9,269.5
					c-0.1,0-0.2,0-0.2-0.1c-0.7-0.4-1.5-0.7-2.2-1.1c-0.3-0.1-0.4-0.4-0.2-0.7c0.1-0.3,0.4-0.4,0.7-0.2c0.7,0.4,1.5,0.7,2.2,1.1
					c0.3,0.1,0.3,0.4,0.2,0.7C161.2,269.4,161.1,269.5,160.9,269.5z M156.5,267.2c-0.1,0-0.2,0-0.2-0.1c-0.7-0.4-1.5-0.7-2.2-1.1
					c-0.3-0.1-0.4-0.4-0.2-0.7c0.1-0.3,0.4-0.4,0.7-0.2c0.7,0.4,1.5,0.7,2.2,1.1c0.3,0.1,0.4,0.4,0.2,0.7
					C156.9,267.1,156.7,267.2,156.5,267.2z M152.1,265c-0.1,0-0.2,0-0.2-0.1c-0.7-0.4-1.5-0.7-2.2-1.1c-0.3-0.1-0.4-0.4-0.2-0.7
					c0.1-0.3,0.4-0.4,0.7-0.2c0.7,0.4,1.5,0.7,2.2,1.1c0.3,0.1,0.4,0.4,0.2,0.7C152.5,264.9,152.3,265,152.1,265z M147.7,262.9
					c-0.1,0-0.2,0-0.2-0.1c-0.7-0.4-1.5-0.7-2.2-1.1c-0.3-0.1-0.4-0.4-0.2-0.7c0.1-0.3,0.4-0.4,0.7-0.2c0.7,0.4,1.5,0.7,2.2,1.1
					c0.3,0.1,0.4,0.4,0.2,0.7C148.1,262.8,147.9,262.9,147.7,262.9z M143.2,260.8c-0.1,0-0.1,0-0.2,0c-0.7-0.4-1.5-0.7-2.2-1
					c-0.3-0.1-0.4-0.4-0.2-0.7c0.1-0.3,0.4-0.4,0.7-0.2c0.7,0.3,1.5,0.7,2.2,1.1c0.3,0.1,0.4,0.4,0.2,0.7
					C143.6,260.6,143.4,260.8,143.2,260.8z M138.8,258.7c-0.1,0-0.1,0-0.2,0c-0.7-0.3-1.5-0.7-2.2-1c-0.3-0.1-0.4-0.4-0.2-0.7
					c0.1-0.3,0.4-0.4,0.7-0.2c0.7,0.3,1.5,0.7,2.2,1c0.3,0.1,0.4,0.4,0.2,0.7C139.2,258.6,139,258.7,138.8,258.7z M134.4,256.6
					c-0.1,0-0.1,0-0.2,0c-0.7-0.3-1.5-0.7-2.2-1c-0.3-0.1-0.4-0.4-0.3-0.7c0.1-0.3,0.4-0.4,0.7-0.3c0.7,0.3,1.5,0.7,2.2,1
					c0.3,0.1,0.4,0.4,0.2,0.7C134.7,256.5,134.6,256.6,134.4,256.6z M129.9,254.5c-0.1,0-0.1,0-0.2,0c-0.7-0.3-1.5-0.7-2.2-1
					c-0.3-0.1-0.4-0.4-0.3-0.7s0.4-0.4,0.7-0.3c0.7,0.3,1.5,0.7,2.2,1c0.3,0.1,0.4,0.4,0.3,0.7C130.3,254.4,130.1,254.5,129.9,254.5
					z M125.4,252.5c-0.1,0-0.1,0-0.2,0c-0.8-0.3-1.5-0.7-2.2-1c-0.3-0.1-0.4-0.4-0.3-0.7s0.4-0.4,0.7-0.3c0.7,0.3,1.5,0.7,2.2,1
					c0.3,0.1,0.4,0.4,0.3,0.7C125.8,252.4,125.6,252.5,125.4,252.5z M120.9,250.5c-0.1,0-0.1,0-0.2,0c-0.8-0.3-1.5-0.7-2.2-1
					c-0.3-0.1-0.4-0.4-0.3-0.7s0.4-0.4,0.7-0.3c0.7,0.3,1.5,0.7,2.2,1c0.3,0.1,0.4,0.4,0.3,0.7C121.3,250.4,121.1,250.5,120.9,250.5
					z M116.4,248.5c-0.1,0-0.1,0-0.2,0c-0.8-0.3-1.5-0.7-2.2-1c-0.3-0.1-0.4-0.4-0.3-0.7s0.4-0.4,0.7-0.3c0.7,0.3,1.5,0.7,2.2,1
					c0.3,0.1,0.4,0.4,0.3,0.7C116.8,248.4,116.6,248.5,116.4,248.5z M111.9,246.5c-0.1,0-0.1,0-0.2,0c-0.8-0.3-1.5-0.7-2.3-1
					c-0.3-0.1-0.4-0.4-0.3-0.7s0.4-0.4,0.7-0.3c0.7,0.3,1.5,0.7,2.3,1c0.3,0.1,0.4,0.4,0.3,0.7C112.3,246.4,112.1,246.5,111.9,246.5
					z M107.4,244.5c-0.1,0-0.1,0-0.2,0l-2.3-1c-0.3-0.1-0.4-0.4-0.3-0.7s0.4-0.4,0.7-0.3l2.3,1c0.3,0.1,0.4,0.4,0.3,0.7
					C107.8,244.4,107.6,244.5,107.4,244.5z M102.9,242.6c-0.1,0-0.1,0-0.2,0l-2.3-1c-0.3-0.1-0.4-0.4-0.3-0.7s0.4-0.4,0.7-0.3l2.3,1
					c0.3,0.1,0.4,0.4,0.3,0.7C103.3,242.5,103.1,242.6,102.9,242.6z M98.4,240.6c-0.1,0-0.1,0-0.2,0c-0.8-0.3-1.5-0.7-2.3-1
					c-0.3-0.1-0.4-0.4-0.3-0.7s0.4-0.4,0.7-0.3c0.7,0.3,1.5,0.6,2.3,1c0.3,0.1,0.4,0.4,0.3,0.7C98.8,240.5,98.6,240.6,98.4,240.6z
					 M93.9,238.6c-0.1,0-0.1,0-0.2,0c-0.8-0.3-1.5-0.7-2.3-1c-0.3-0.1-0.4-0.4-0.3-0.7s0.4-0.4,0.7-0.3c0.7,0.3,1.5,0.6,2.2,1
					c0.3,0.1,0.4,0.4,0.3,0.7C94.3,238.5,94.1,238.6,93.9,238.6z M89.4,236.6c-0.1,0-0.1,0-0.2,0l-0.1-0.1c-0.7-0.3-1.4-0.6-2.1-1
					c-0.3-0.1-0.4-0.4-0.3-0.7s0.4-0.4,0.7-0.3c0.7,0.3,1.4,0.6,2.1,1l0.1,0.1c0.3,0.1,0.4,0.4,0.3,0.7
					C89.8,236.5,89.6,236.6,89.4,236.6z M84.9,234.6c-0.1,0-0.1,0-0.2,0c-0.7-0.3-1.5-0.7-2.2-1c-0.3-0.1-0.4-0.4-0.3-0.7
					s0.4-0.4,0.7-0.3c0.7,0.3,1.5,0.7,2.2,1c0.3,0.1,0.4,0.4,0.3,0.7C85.3,234.5,85.1,234.6,84.9,234.6z M80.4,232.6
					c-0.1,0-0.1,0-0.2,0c-0.8-0.3-1.5-0.6-2.3-1c-0.3-0.1-0.4-0.4-0.3-0.7s0.4-0.4,0.7-0.3c0.8,0.3,1.5,0.6,2.3,1
					c0.3,0.1,0.4,0.4,0.3,0.7C80.8,232.5,80.6,232.6,80.4,232.6z M75.9,230.7c-0.1,0-0.1,0-0.2,0c-0.8-0.3-1.5-0.6-2.3-0.9
					c-0.3-0.1-0.4-0.4-0.3-0.7s0.4-0.4,0.7-0.3c0.8,0.3,1.5,0.6,2.3,1c0.3,0.1,0.4,0.4,0.3,0.7C76.3,230.6,76.1,230.7,75.9,230.7z
					 M71.4,228.8c-0.1,0-0.1,0-0.2,0c-0.8-0.3-1.5-0.6-2.3-0.9c-0.3-0.1-0.4-0.4-0.3-0.7s0.4-0.4,0.7-0.3c0.8,0.3,1.5,0.6,2.3,0.9
					c0.3,0.1,0.4,0.4,0.3,0.7C71.8,228.7,71.6,228.8,71.4,228.8z M66.8,227c-0.1,0-0.1,0-0.2,0c-0.8-0.3-1.5-0.6-2.3-0.9
					c-0.3-0.1-0.4-0.4-0.3-0.7s0.4-0.4,0.7-0.3c0.8,0.3,1.5,0.6,2.3,0.9c0.3,0.1,0.4,0.4,0.3,0.7C67.2,226.8,67,227,66.8,227z
					 M62.3,225.1c-0.1,0-0.1,0-0.2,0c-0.8-0.3-1.5-0.6-2.3-0.9c-0.3-0.1-0.4-0.4-0.3-0.7c0.1-0.3,0.4-0.4,0.7-0.3
					c0.7,0.3,1.5,0.6,2.3,0.9c0.3,0.1,0.4,0.4,0.3,0.7C62.7,225,62.5,225.1,62.3,225.1z M57.7,223.3c-0.1,0-0.1,0-0.2,0
					c-0.8-0.3-1.5-0.6-2.3-0.9c-0.3-0.1-0.4-0.4-0.3-0.7c0.1-0.3,0.4-0.4,0.7-0.3c0.7,0.3,1.5,0.6,2.3,0.9c0.3,0.1,0.4,0.4,0.3,0.7
					C58.1,223.2,57.9,223.3,57.7,223.3z M53.1,221.6c-0.1,0-0.1,0-0.2,0c-0.8-0.3-1.6-0.6-2.3-0.9c-0.3-0.1-0.4-0.4-0.3-0.7
					c0.1-0.3,0.4-0.4,0.7-0.3c0.7,0.3,1.5,0.6,2.3,0.9c0.3,0.1,0.4,0.4,0.3,0.7C53.5,221.5,53.3,221.6,53.1,221.6z M48.5,219.8
					c-0.1,0-0.1,0-0.2,0c-0.8-0.3-1.6-0.6-2.3-0.9c-0.3-0.1-0.4-0.4-0.3-0.7c0.1-0.3,0.4-0.4,0.7-0.3c0.7,0.3,1.5,0.5,2.3,0.9
					c0.3,0.1,0.4,0.4,0.3,0.7C48.9,219.7,48.7,219.8,48.5,219.8z M43.9,218.1c-0.1,0-0.1,0-0.2,0c-1.5-0.5-2.3-0.8-2.3-0.8
					c-0.3-0.1-0.4-0.4-0.3-0.7c0.1-0.3,0.4-0.4,0.7-0.3c0,0,0.8,0.3,2.3,0.8c0.3,0.1,0.4,0.4,0.3,0.7
					C44.3,218,44.1,218.1,43.9,218.1z"/>
			</g>
		</g>
		<g>
			<g>
				<path class="st8" d="M200.7,302.7c-0.2,0-0.5-0.2-0.5-0.4c-0.1-0.5-0.3-1.1-0.5-1.7c-0.1-0.3,0-0.6,0.3-0.7s0.6,0,0.7,0.3
					c0.3,0.6,0.5,1.3,0.6,1.9c0.1,0.3-0.1,0.5-0.4,0.6C200.7,302.7,200.7,302.7,200.7,302.7z M199,298.8c-0.2,0-0.3-0.1-0.4-0.2
					c-0.4-0.6-0.9-1.3-1.4-1.9c-0.2-0.2-0.1-0.5,0.1-0.7c0.2-0.2,0.5-0.1,0.7,0.1c0.6,0.7,1.1,1.4,1.5,2c0.2,0.2,0.1,0.6-0.2,0.7
					C199.2,298.8,199.1,298.8,199,298.8z M195.9,295.1c-0.1,0-0.3-0.1-0.4-0.2c-0.5-0.5-1.1-1.1-1.7-1.7c-0.2-0.2-0.2-0.5,0-0.7
					s0.5-0.2,0.7,0c0.6,0.6,1.2,1.2,1.8,1.7c0.2,0.2,0.2,0.5,0,0.7C196.1,295,196,295.1,195.9,295.1z M192.3,291.7
					c-0.1,0-0.2,0-0.3-0.1c-0.6-0.5-1.2-1-1.9-1.5c-0.2-0.2-0.3-0.5-0.1-0.7s0.5-0.3,0.7-0.1c0.7,0.5,1.3,1,1.9,1.6
					c0.2,0.2,0.2,0.5,0.1,0.7C192.5,291.7,192.4,291.7,192.3,291.7z M188.4,288.7c-0.1,0-0.2,0-0.3-0.1c-0.6-0.5-1.3-0.9-2-1.4
					c-0.2-0.2-0.3-0.5-0.1-0.7s0.5-0.3,0.7-0.1c0.7,0.5,1.4,1,2,1.4c0.2,0.2,0.3,0.5,0.1,0.7C188.7,288.6,188.5,288.7,188.4,288.7z
					 M184.3,285.9c-0.1,0-0.2,0-0.3-0.1c-0.7-0.4-1.3-0.9-2.1-1.3c-0.2-0.2-0.3-0.5-0.2-0.7c0.2-0.2,0.5-0.3,0.7-0.2
					c0.7,0.5,1.4,0.9,2.1,1.3c0.2,0.2,0.3,0.5,0.1,0.7C184.7,285.8,184.5,285.9,184.3,285.9z M180.2,283.2c-0.1,0-0.2,0-0.3-0.1
					c-0.7-0.4-1.4-0.8-2.1-1.3c-0.2-0.1-0.3-0.5-0.2-0.7s0.5-0.3,0.7-0.2c0.7,0.4,1.4,0.9,2.1,1.3c0.2,0.1,0.3,0.5,0.2,0.7
					C180.5,283.2,180.4,283.2,180.2,283.2z M176,280.7c-0.1,0-0.2,0-0.3-0.1c-0.7-0.4-1.4-0.8-2.1-1.2c-0.2-0.1-0.3-0.5-0.2-0.7
					s0.5-0.3,0.7-0.2c0.7,0.4,1.4,0.8,2.1,1.2c0.2,0.1,0.3,0.5,0.2,0.7C176.3,280.6,176.2,280.7,176,280.7z M171.7,278.3
					c-0.1,0-0.2,0-0.2-0.1c-0.7-0.4-1.4-0.8-2.1-1.2c-0.2-0.1-0.3-0.4-0.2-0.7c0.1-0.2,0.4-0.3,0.7-0.2c0.7,0.4,1.4,0.8,2.2,1.2
					c0.2,0.1,0.3,0.4,0.2,0.7C172.1,278.2,171.9,278.3,171.7,278.3z M167.4,275.9c-0.1,0-0.2,0-0.2-0.1c-0.7-0.4-1.4-0.8-2.2-1.1
					c-0.3-0.1-0.3-0.4-0.2-0.7c0.1-0.3,0.4-0.3,0.7-0.2c0.7,0.4,1.5,0.8,2.2,1.2c0.2,0.1,0.3,0.4,0.2,0.7
					C167.8,275.8,167.6,275.9,167.4,275.9z M163,273.7c-0.1,0-0.2,0-0.2-0.1c-0.7-0.4-1.5-0.7-2.2-1.1c-0.3-0.1-0.4-0.4-0.2-0.7
					c0.1-0.3,0.4-0.4,0.7-0.2c0.7,0.4,1.5,0.7,2.2,1.1c0.3,0.1,0.3,0.4,0.2,0.7C163.4,273.6,163.2,273.7,163,273.7z M158.7,271.4
					c-0.1,0-0.2,0-0.2-0.1c-0.7-0.4-1.5-0.7-2.2-1.1c-0.3-0.1-0.4-0.4-0.2-0.7c0.1-0.3,0.4-0.4,0.7-0.2c0.7,0.4,1.5,0.7,2.2,1.1
					c0.3,0.1,0.4,0.4,0.2,0.7C159,271.3,158.9,271.4,158.7,271.4z M154.3,269.3c-0.1,0-0.2,0-0.2-0.1c-0.7-0.4-1.5-0.7-2.2-1.1
					c-0.3-0.1-0.4-0.4-0.2-0.7c0.1-0.3,0.4-0.4,0.7-0.2c0.7,0.4,1.5,0.7,2.2,1.1c0.3,0.1,0.4,0.4,0.2,0.7
					C154.6,269.2,154.4,269.3,154.3,269.3z M149.8,267.1c-0.1,0-0.1,0-0.2,0c-0.7-0.4-1.5-0.7-2.2-1.1c-0.3-0.1-0.4-0.4-0.2-0.7
					c0.1-0.3,0.4-0.4,0.7-0.2c0.7,0.3,1.5,0.7,2.2,1.1c0.3,0.1,0.4,0.4,0.2,0.7C150.2,267,150,267.1,149.8,267.1z M145.4,265
					c-0.1,0-0.1,0-0.2,0c-0.7-0.3-1.5-0.7-2.2-1c-0.3-0.1-0.4-0.4-0.3-0.7c0.1-0.3,0.4-0.4,0.7-0.3c0.7,0.3,1.5,0.7,2.2,1
					c0.3,0.1,0.4,0.4,0.2,0.7C145.8,264.9,145.6,265,145.4,265z M140.9,263c-0.1,0-0.1,0-0.2,0c-0.7-0.3-1.5-0.7-2.2-1
					c-0.3-0.1-0.4-0.4-0.3-0.7c0.1-0.3,0.4-0.4,0.7-0.3c0.7,0.3,1.5,0.7,2.2,1c0.3,0.1,0.4,0.4,0.3,0.7
					C141.3,262.9,141.1,263,140.9,263z M136.4,260.9c-0.1,0-0.1,0-0.2,0c-0.7-0.3-1.5-0.7-2.2-1c-0.3-0.1-0.4-0.4-0.3-0.7
					c0.1-0.3,0.4-0.4,0.7-0.3c0.7,0.3,1.5,0.7,2.2,1c0.3,0.1,0.4,0.4,0.3,0.7C136.8,260.8,136.6,260.9,136.4,260.9z M132,258.9
					c-0.1,0-0.1,0-0.2,0c-0.8-0.3-1.5-0.7-2.2-1c-0.3-0.1-0.4-0.4-0.3-0.7c0.1-0.3,0.4-0.4,0.7-0.3c0.7,0.3,1.5,0.7,2.2,1
					c0.3,0.1,0.4,0.4,0.3,0.7C132.3,258.8,132.2,258.9,132,258.9z M127.5,257c-0.1,0-0.1,0-0.2,0c-0.8-0.3-1.5-0.7-2.3-1
					c-0.3-0.1-0.4-0.4-0.3-0.7s0.4-0.4,0.7-0.3c0.7,0.3,1.5,0.7,2.3,1c0.3,0.1,0.4,0.4,0.3,0.7C127.8,256.8,127.7,257,127.5,257z
					 M123,255c-0.1,0-0.1,0-0.2,0c-0.8-0.3-1.5-0.7-2.3-1c-0.3-0.1-0.4-0.4-0.3-0.7s0.4-0.4,0.7-0.3c0.7,0.3,1.5,0.6,2.3,1
					c0.3,0.1,0.4,0.4,0.3,0.7C123.3,254.9,123.1,255,123,255z M118.4,253.1c-0.1,0-0.1,0-0.2,0c-0.8-0.3-1.5-0.6-2.3-1
					c-0.3-0.1-0.4-0.4-0.3-0.7s0.4-0.4,0.7-0.3c0.7,0.3,1.5,0.6,2.3,1c0.3,0.1,0.4,0.4,0.3,0.7C118.8,252.9,118.6,253.1,118.4,253.1
					z M113.9,251.1c-0.1,0-0.1,0-0.2,0l-2.3-1c-0.3-0.1-0.4-0.4-0.3-0.7s0.4-0.4,0.7-0.3l2.3,1c0.3,0.1,0.4,0.4,0.3,0.7
					C114.3,251,114.1,251.1,113.9,251.1z M109.4,249.2c-0.1,0-0.1,0-0.2,0l-2.3-1c-0.3-0.1-0.4-0.4-0.3-0.7s0.4-0.4,0.7-0.3l2.3,1
					c0.3,0.1,0.4,0.4,0.3,0.7C109.8,249.1,109.6,249.2,109.4,249.2z M104.9,247.3c-0.1,0-0.1,0-0.2,0l-2.3-1
					c-0.3-0.1-0.4-0.4-0.3-0.7s0.4-0.4,0.7-0.3l2.3,1c0.3,0.1,0.4,0.4,0.3,0.7C105.2,247.2,105.1,247.3,104.9,247.3z M100.3,245.4
					c-0.1,0-0.1,0-0.2,0c-0.8-0.3-1.5-0.6-2.3-1c-0.3-0.1-0.4-0.4-0.3-0.7s0.4-0.4,0.7-0.3c0.7,0.3,1.5,0.6,2.3,1
					c0.3,0.1,0.4,0.4,0.3,0.7C100.7,245.3,100.5,245.4,100.3,245.4z M95.8,243.5c-0.1,0-0.1,0-0.2,0c-0.8-0.3-1.5-0.7-2.3-1
					c-0.3-0.1-0.4-0.4-0.3-0.7s0.4-0.4,0.7-0.3c0.7,0.3,1.5,0.6,2.3,1c0.3,0.1,0.4,0.4,0.3,0.7C96.2,243.3,96,243.5,95.8,243.5z
					 M91.3,241.5c-0.1,0-0.1,0-0.2,0c-0.8-0.3-1.5-0.7-2.3-1c-0.3-0.1-0.4-0.4-0.3-0.7s0.4-0.4,0.7-0.3c0.7,0.3,1.5,0.6,2.3,1
					c0.3,0.1,0.4,0.4,0.3,0.7C91.7,241.4,91.5,241.5,91.3,241.5z M86.8,239.5c-0.1,0-0.1,0-0.2,0c-0.7-0.3-1.5-0.7-2.2-1
					c-0.3-0.1-0.4-0.4-0.3-0.7s0.4-0.4,0.7-0.3c0.7,0.3,1.5,0.7,2.2,1c0.3,0.1,0.4,0.4,0.3,0.7C87.2,239.4,87,239.5,86.8,239.5z
					 M82.3,237.5c-0.1,0-0.1,0-0.2,0c-0.7-0.3-1.5-0.7-2.2-1c-0.3-0.1-0.4-0.4-0.3-0.7s0.4-0.4,0.7-0.3c0.7,0.3,1.5,0.7,2.2,1
					c0.3,0.1,0.4,0.4,0.3,0.7C82.7,237.4,82.5,237.5,82.3,237.5z M77.8,235.5c-0.1,0-0.1,0-0.2,0c-0.8-0.3-1.5-0.7-2.2-1
					c-0.3-0.1-0.4-0.4-0.3-0.7s0.4-0.4,0.7-0.3c0.7,0.3,1.5,0.7,2.3,1c0.3,0.1,0.4,0.4,0.3,0.7C78.2,235.4,78,235.5,77.8,235.5z
					 M73.3,233.5c-0.1,0-0.1,0-0.2,0c-0.8-0.3-1.5-0.7-2.3-1c-0.3-0.1-0.4-0.4-0.3-0.7s0.4-0.4,0.7-0.3c0.7,0.3,1.5,0.6,2.3,1
					c0.3,0.1,0.4,0.4,0.3,0.7C73.7,233.4,73.5,233.5,73.3,233.5z M68.8,231.6c-0.1,0-0.1,0-0.2,0c-0.8-0.3-1.5-0.6-2.3-1
					c-0.3-0.1-0.4-0.4-0.3-0.7s0.4-0.4,0.7-0.3c0.7,0.3,1.5,0.6,2.3,1c0.3,0.1,0.4,0.4,0.3,0.7C69.2,231.5,69,231.6,68.8,231.6z
					 M64.3,229.7c-0.1,0-0.1,0-0.2,0c-0.8-0.3-1.5-0.6-2.3-1c-0.3-0.1-0.4-0.4-0.3-0.7c0.1-0.3,0.4-0.4,0.7-0.3
					c0.7,0.3,1.5,0.6,2.3,1c0.3,0.1,0.4,0.4,0.3,0.7C64.7,229.6,64.5,229.7,64.3,229.7z M59.7,227.8c-0.1,0-0.1,0-0.2,0
					c-0.8-0.3-1.5-0.6-2.3-0.9c-0.3-0.1-0.4-0.4-0.3-0.7c0.1-0.3,0.4-0.4,0.7-0.3c0.7,0.3,1.5,0.6,2.3,0.9c0.3,0.1,0.4,0.4,0.3,0.7
					C60.1,227.7,59.9,227.8,59.7,227.8z M55.2,225.9c-0.1,0-0.1,0-0.2,0c-0.8-0.3-1.5-0.6-2.3-0.9c-0.3-0.1-0.4-0.4-0.3-0.7
					c0.1-0.3,0.4-0.4,0.7-0.3c0.7,0.3,1.5,0.6,2.3,0.9c0.3,0.1,0.4,0.4,0.3,0.7C55.6,225.8,55.4,225.9,55.2,225.9z M50.6,224.1
					c-0.1,0-0.1,0-0.2,0c-0.8-0.3-1.6-0.6-2.3-0.9c-0.3-0.1-0.4-0.4-0.3-0.7c0.1-0.3,0.4-0.4,0.7-0.3c0.7,0.3,1.5,0.6,2.3,0.9
					c0.3,0.1,0.4,0.4,0.3,0.7C51,223.9,50.8,224.1,50.6,224.1z M46.1,222.2c-0.1,0-0.1,0-0.2,0c-0.8-0.3-1.6-0.6-2.3-0.9
					c-0.3-0.1-0.4-0.4-0.3-0.7c0.1-0.3,0.4-0.4,0.7-0.3c0.7,0.3,1.5,0.6,2.3,0.9c0.3,0.1,0.4,0.4,0.3,0.7
					C46.5,222.1,46.3,222.2,46.1,222.2z M41.5,220.4c-0.1,0-0.1,0-0.2,0c-1.5-0.6-2.3-0.9-2.3-0.9c-0.3-0.1-0.4-0.4-0.3-0.7
					c0.1-0.3,0.4-0.4,0.7-0.3c0,0,0.8,0.3,2.3,0.9c0.3,0.1,0.4,0.4,0.3,0.7C41.9,220.3,41.7,220.4,41.5,220.4z"/>
			</g>
		</g>
		<g>
			<g>
				<path class="st8" d="M289.7,320.5c-0.1,0-0.2,0-0.3-0.1c-0.2-0.1-0.3-0.5-0.2-0.7c0,0,0.5-0.8,1.3-2.1c0.2-0.2,0.5-0.3,0.7-0.2
					c0.2,0.2,0.3,0.5,0.2,0.7c-0.8,1.3-1.3,2.1-1.3,2.1C290.1,320.4,289.9,320.5,289.7,320.5z M292.4,316.3c-0.1,0-0.2,0-0.3-0.1
					c-0.2-0.2-0.3-0.5-0.1-0.7c0.4-0.6,0.9-1.3,1.4-2.1c0.2-0.2,0.5-0.3,0.7-0.1c0.2,0.2,0.3,0.5,0.1,0.7c-0.5,0.7-0.9,1.4-1.4,2.1
					C292.7,316.2,292.6,316.3,292.4,316.3z M295.1,312.2c-0.1,0-0.2,0-0.3-0.1c-0.2-0.2-0.3-0.5-0.1-0.7c0.4-0.7,0.9-1.3,1.4-2
					c0.2-0.2,0.5-0.3,0.7-0.1c0.2,0.2,0.3,0.5,0.1,0.7c-0.5,0.7-0.9,1.4-1.4,2C295.4,312.1,295.3,312.2,295.1,312.2z M297.9,308.2
					c-0.1,0-0.2,0-0.3-0.1c-0.2-0.2-0.3-0.5-0.1-0.7c0.5-0.7,0.9-1.3,1.4-2c0.2-0.2,0.5-0.3,0.7-0.1c0.2,0.2,0.3,0.5,0.1,0.7
					c-0.5,0.7-1,1.4-1.4,2C298.2,308.1,298.1,308.2,297.9,308.2z M300.7,304.1c-0.1,0-0.2,0-0.3-0.1c-0.2-0.2-0.3-0.5-0.1-0.7
					c0.5-0.7,0.9-1.3,1.4-2c0.2-0.2,0.5-0.3,0.7-0.1c0.2,0.2,0.3,0.5,0.1,0.7c-0.5,0.7-1,1.3-1.4,2
					C301,304.1,300.9,304.1,300.7,304.1z M303.6,300.2c-0.1,0-0.2,0-0.3-0.1c-0.2-0.2-0.3-0.5-0.1-0.7c0.5-0.7,1-1.3,1.5-2
					c0.2-0.2,0.5-0.3,0.7-0.1c0.2,0.2,0.3,0.5,0.1,0.7c-0.5,0.7-1,1.3-1.5,2C303.9,300.1,303.8,300.2,303.6,300.2z M306.5,296.2
					c-0.1,0-0.2,0-0.3-0.1c-0.2-0.2-0.3-0.5-0.1-0.7c0.5-0.6,1-1.3,1.5-2c0.2-0.2,0.5-0.3,0.7-0.1c0.2,0.2,0.3,0.5,0.1,0.7
					c-0.5,0.7-1,1.3-1.5,1.9C306.9,296.1,306.7,296.2,306.5,296.2z M309.5,292.3c-0.1,0-0.2,0-0.3-0.1c-0.2-0.2-0.3-0.5-0.1-0.7
					c0.5-0.6,1-1.3,1.5-1.9c0.2-0.2,0.5-0.3,0.7-0.1c0.2,0.2,0.3,0.5,0.1,0.7c-0.5,0.6-1,1.3-1.5,1.9
					C309.9,292.3,309.7,292.3,309.5,292.3z M312.6,288.5c-0.1,0-0.2,0-0.3-0.1c-0.2-0.2-0.3-0.5-0.1-0.7c0.5-0.6,1-1.3,1.6-1.9
					c0.2-0.2,0.5-0.2,0.7-0.1c0.2,0.2,0.2,0.5,0.1,0.7c-0.5,0.6-1,1.3-1.6,1.9C312.9,288.4,312.8,288.5,312.6,288.5z M315.8,284.7
					c-0.1,0-0.2,0-0.3-0.1c-0.2-0.2-0.2-0.5-0.1-0.7c0.5-0.6,1.1-1.3,1.6-1.9c0.2-0.2,0.5-0.2,0.7-0.1c0.2,0.2,0.2,0.5,0.1,0.7
					c-0.5,0.6-1.1,1.2-1.6,1.9C316,284.6,315.9,284.7,315.8,284.7z M319,281c-0.1,0-0.2,0-0.3-0.1c-0.2-0.2-0.2-0.5,0-0.7
					c0.5-0.6,1.1-1.2,1.7-1.8c0.2-0.2,0.5-0.2,0.7,0s0.2,0.5,0,0.7c-0.5,0.6-1.1,1.2-1.6,1.8C319.3,280.9,319.1,281,319,281z
					 M322.3,277.4c-0.1,0-0.3,0-0.4-0.1c-0.2-0.2-0.2-0.5,0-0.7c0.6-0.6,1.1-1.2,1.7-1.8c0.2-0.2,0.5-0.2,0.7,0s0.2,0.5,0,0.7
					c-0.6,0.6-1.1,1.2-1.7,1.8C322.6,277.3,322.4,277.4,322.3,277.4z M325.7,273.8c-0.1,0-0.3-0.1-0.4-0.2c-0.2-0.2-0.2-0.5,0-0.7
					c0.6-0.6,1.2-1.2,1.8-1.7c0.2-0.2,0.5-0.2,0.7,0s0.2,0.5,0,0.7c-0.6,0.6-1.2,1.1-1.8,1.7C326,273.8,325.9,273.8,325.7,273.8z
					 M329.3,270.5c-0.1,0-0.3-0.1-0.4-0.2c-0.2-0.2-0.2-0.5,0-0.7c0.6-0.6,1.2-1.1,1.9-1.6c0.2-0.2,0.5-0.2,0.7,0.1
					c0.2,0.2,0.2,0.5-0.1,0.7c-0.6,0.5-1.2,1.1-1.8,1.6C329.5,270.4,329.4,270.5,329.3,270.5z M333,267.3c-0.1,0-0.3-0.1-0.4-0.2
					c-0.2-0.2-0.1-0.5,0.1-0.7c0.7-0.5,1.3-1,2-1.5c0.2-0.2,0.5-0.1,0.7,0.1s0.1,0.5-0.1,0.7c-0.6,0.5-1.3,1-1.9,1.5
					C333.3,267.2,333.1,267.3,333,267.3z M337,264.3c-0.2,0-0.3-0.1-0.4-0.2c-0.2-0.2-0.1-0.6,0.1-0.7c0.7-0.5,1.4-0.9,2-1.4
					c0.2-0.2,0.6-0.1,0.7,0.1c0.2,0.2,0.1,0.6-0.1,0.7c-0.7,0.4-1.3,0.9-2,1.4C337.2,264.3,337.1,264.3,337,264.3z M341.1,261.6
					c-0.2,0-0.3-0.1-0.4-0.2c-0.2-0.2-0.1-0.6,0.2-0.7c0.7-0.5,1.4-0.9,2.1-1.3c0.2-0.1,0.6-0.1,0.7,0.2c0.1,0.2,0.1,0.6-0.2,0.7
					c-0.7,0.4-1.4,0.8-2.1,1.3C341.2,261.6,341.1,261.6,341.1,261.6z M345.3,259.1c-0.2,0-0.4-0.1-0.4-0.3c-0.1-0.2,0-0.6,0.2-0.7
					c0.7-0.4,1.5-0.8,2.2-1.1c0.3-0.1,0.6,0,0.7,0.2c0.1,0.3,0,0.6-0.2,0.7c-0.7,0.3-1.4,0.7-2.2,1.1
					C345.4,259.1,345.4,259.1,345.3,259.1z M374.7,257c-0.3,0-0.6,0-1,0c-0.3,0-0.5-0.2-0.5-0.5s0.2-0.5,0.5-0.5s0.7,0,1,0
					c0.5,0,1,0,1.5,0c0.3,0,0.5,0.2,0.5,0.5s-0.2,0.5-0.5,0.5C375.7,257,375.2,257,374.7,257L374.7,257z M349.7,256.9
					c-0.2,0-0.4-0.1-0.5-0.3c-0.1-0.3,0-0.6,0.3-0.7c0.8-0.3,1.6-0.6,2.3-0.9c0.3-0.1,0.6,0.1,0.6,0.3c0.1,0.3-0.1,0.6-0.3,0.6
					c-0.7,0.2-1.5,0.5-2.3,0.9C349.8,256.9,349.7,256.9,349.7,256.9z M371.2,256.9H371c-0.7-0.1-1.5-0.1-2.2-0.3
					c-0.3,0-0.5-0.3-0.4-0.6c0-0.3,0.3-0.5,0.6-0.4c0.7,0.1,1.4,0.2,2.2,0.3h0.2v0.5L371.2,256.9z M378.6,256.8
					c-0.3,0-0.5-0.2-0.5-0.5c0-0.3,0.2-0.5,0.5-0.6c0.8-0.1,1.6-0.2,2.4-0.4c0.3-0.1,0.5,0.1,0.6,0.4c0.1,0.3-0.1,0.5-0.4,0.6
					C380.4,256.6,379.5,256.7,378.6,256.8L378.6,256.8z M366.4,256.1h-0.1c-0.4-0.1-0.8-0.2-1.2-0.3c-0.4-0.1-0.8-0.2-1.2-0.3
					c-0.3-0.1-0.4-0.3-0.4-0.6c0.1-0.3,0.3-0.4,0.6-0.4c0.4,0.1,0.8,0.2,1.2,0.3c0.4,0.1,0.8,0.2,1.2,0.3c0.3,0.1,0.4,0.3,0.4,0.6
					C366.9,256,366.6,256.1,366.4,256.1z M383.4,255.8c-0.2,0-0.4-0.1-0.5-0.3c-0.1-0.3,0-0.6,0.3-0.7c0.8-0.3,1.5-0.6,2.1-1
					c0.2-0.1,0.6-0.1,0.7,0.2c0.1,0.2,0.1,0.6-0.2,0.7c-0.7,0.4-1.5,0.8-2.3,1.1H383.4z M354.3,255.4c-0.2,0-0.4-0.2-0.5-0.4
					c-0.1-0.3,0.1-0.6,0.4-0.6c0.8-0.2,1.7-0.4,2.5-0.4c0.3,0,0.5,0.2,0.6,0.4c0,0.3-0.2,0.5-0.4,0.6c-0.8,0.1-1.6,0.2-2.4,0.4
					C354.4,255.4,354.4,255.4,354.3,255.4z M361.6,255.1L361.6,255.1c-0.9-0.1-1.7-0.2-2.5-0.2c-0.3,0-0.5-0.2-0.5-0.5
					s0.2-0.5,0.5-0.5l0,0c0.8,0,1.6,0.1,2.5,0.2c0.3,0,0.5,0.3,0.4,0.6C362.1,254.9,361.9,255.1,361.6,255.1z M387.6,253.3
					c-0.1,0-0.3-0.1-0.4-0.2c-0.2-0.2-0.2-0.5,0-0.7c0.6-0.5,1-1.2,1.4-1.8c0.1-0.2,0.4-0.3,0.7-0.2c0.2,0.1,0.3,0.4,0.2,0.7
					c-0.4,0.7-0.9,1.4-1.6,2.1C387.8,253.3,387.7,253.3,387.6,253.3z M389.9,249.1C389.9,249.1,389.8,249.1,389.9,249.1
					c-0.4-0.1-0.6-0.3-0.5-0.6c0.1-0.5,0.1-1,0.1-1.5c0-0.4,0-0.7-0.1-0.8c0-0.3,0.2-0.5,0.4-0.6c0.3,0,0.5,0.2,0.6,0.4
					c0,0.2,0.1,0.5,0.1,1c0,0.6-0.1,1.1-0.2,1.7C390.3,248.9,390.1,249.1,389.9,249.1z"/>
			</g>
		</g>
		<g>
			<g>
				<path class="st8" d="M285.9,319.7c-0.1,0-0.2,0-0.3-0.1c-0.2-0.2-0.3-0.5-0.2-0.7c0,0,0.5-0.8,1.3-2.1c0.2-0.2,0.5-0.3,0.7-0.1
					c0.2,0.2,0.3,0.5,0.1,0.7c-0.9,1.3-1.3,2.1-1.3,2.1C286.3,319.6,286.1,319.7,285.9,319.7z M288.6,315.5c-0.1,0-0.2,0-0.3-0.1
					c-0.2-0.2-0.3-0.5-0.1-0.7c0.4-0.6,0.9-1.3,1.4-2.1c0.2-0.2,0.5-0.3,0.7-0.1c0.2,0.2,0.3,0.5,0.1,0.7c-0.5,0.7-1,1.4-1.4,2
					C289,315.5,288.8,315.5,288.6,315.5z M291.4,311.5c-0.1,0-0.2,0-0.3-0.1c-0.2-0.2-0.3-0.5-0.1-0.7c0.4-0.6,0.9-1.3,1.4-2
					c0.2-0.2,0.5-0.3,0.7-0.1c0.2,0.2,0.3,0.5,0.1,0.7c-0.5,0.7-0.9,1.4-1.4,2C291.7,311.4,291.5,311.5,291.4,311.5z M294.2,307.4
					c-0.1,0-0.2,0-0.3-0.1c-0.2-0.2-0.3-0.5-0.1-0.7c0.5-0.7,0.9-1.3,1.4-2c0.2-0.2,0.5-0.3,0.7-0.1c0.2,0.2,0.3,0.5,0.1,0.7
					c-0.5,0.7-1,1.4-1.4,2C294.5,307.3,294.3,307.4,294.2,307.4z M297,303.4c-0.1,0-0.2,0-0.3-0.1c-0.2-0.2-0.3-0.5-0.1-0.7
					c0.5-0.7,0.9-1.3,1.4-2c0.2-0.2,0.5-0.3,0.7-0.1c0.2,0.2,0.3,0.5,0.1,0.7c-0.5,0.7-1,1.3-1.4,2
					C297.3,303.3,297.2,303.4,297,303.4z M299.9,299.4c-0.1,0-0.2,0-0.3-0.1c-0.2-0.2-0.3-0.5-0.1-0.7c0.5-0.7,1-1.3,1.5-2
					c0.2-0.2,0.5-0.3,0.7-0.1c0.2,0.2,0.3,0.5,0.1,0.7c-0.5,0.7-1,1.3-1.5,2C300.2,299.3,300.1,299.4,299.9,299.4z M302.8,295.5
					c-0.1,0-0.2,0-0.3-0.1c-0.2-0.2-0.3-0.5-0.1-0.7c0.5-0.6,1-1.3,1.5-2c0.2-0.2,0.5-0.3,0.7-0.1c0.2,0.2,0.3,0.5,0.1,0.7
					c-0.5,0.7-1,1.3-1.5,2C303.1,295.4,303,295.5,302.8,295.5z M305.8,291.6c-0.1,0-0.2,0-0.3-0.1c-0.2-0.2-0.3-0.5-0.1-0.7
					c0.5-0.6,1-1.3,1.5-1.9c0.2-0.2,0.5-0.3,0.7-0.1c0.2,0.2,0.3,0.5,0.1,0.7c-0.5,0.6-1,1.3-1.5,1.9
					C306.1,291.5,306,291.6,305.8,291.6z M308.9,287.7c-0.1,0-0.2,0-0.3-0.1c-0.2-0.2-0.3-0.5-0.1-0.7c0.5-0.6,1-1.3,1.5-1.9
					c0.2-0.2,0.5-0.3,0.7-0.1c0.2,0.2,0.3,0.5,0.1,0.7c-0.5,0.6-1,1.3-1.5,1.9C309.2,287.6,309,287.7,308.9,287.7z M312,283.9
					c-0.1,0-0.2,0-0.3-0.1c-0.2-0.2-0.2-0.5-0.1-0.7c0.5-0.6,1.1-1.3,1.6-1.9c0.2-0.2,0.5-0.2,0.7-0.1c0.2,0.2,0.2,0.5,0.1,0.7
					c-0.5,0.6-1.1,1.3-1.6,1.9C312.3,283.8,312.1,283.9,312,283.9z M315.2,280.2c-0.1,0-0.2,0-0.3-0.1c-0.2-0.2-0.2-0.5-0.1-0.7
					c0.5-0.6,1.1-1.2,1.6-1.8c0.2-0.2,0.5-0.2,0.7,0s0.2,0.5,0,0.7c-0.5,0.6-1.1,1.2-1.6,1.8C315.4,280.1,315.3,280.2,315.2,280.2z
					 M318.4,276.5c-0.1,0-0.2,0-0.3-0.1c-0.2-0.2-0.2-0.5,0-0.7c0.6-0.6,1.1-1.2,1.7-1.8c0.2-0.2,0.5-0.2,0.7,0s0.2,0.5,0,0.7
					c-0.5,0.6-1.1,1.2-1.7,1.8C318.7,276.4,318.6,276.5,318.4,276.5z M321.8,272.9c-0.1,0-0.3,0-0.4-0.1c-0.2-0.2-0.2-0.5,0-0.7
					c0.6-0.6,1.2-1.2,1.7-1.8c0.2-0.2,0.5-0.2,0.7,0s0.2,0.5,0,0.7c-0.6,0.6-1.1,1.2-1.7,1.7C322.1,272.9,321.9,272.9,321.8,272.9z
					 M325.3,269.4c-0.1,0-0.3-0.1-0.4-0.2c-0.2-0.2-0.2-0.5,0-0.7c0.6-0.6,1.2-1.1,1.8-1.7c0.2-0.2,0.5-0.2,0.7,0s0.2,0.5,0,0.7
					c-0.6,0.5-1.2,1.1-1.8,1.7C325.5,269.4,325.4,269.4,325.3,269.4z M328.9,266.1c-0.1,0-0.3-0.1-0.4-0.2c-0.2-0.2-0.2-0.5,0.1-0.7
					c0.6-0.6,1.3-1.1,1.9-1.6c0.2-0.2,0.5-0.1,0.7,0.1s0.1,0.5-0.1,0.7c-0.6,0.5-1.2,1-1.9,1.6C329.2,266.1,329,266.1,328.9,266.1z
					 M332.7,263c-0.2,0-0.3-0.1-0.4-0.2c-0.2-0.2-0.1-0.5,0.1-0.7c0.6-0.5,1.3-1,1.9-1.4l0.1-0.1c0.2-0.2,0.6-0.1,0.7,0.1
					c0.2,0.2,0.1,0.6-0.1,0.7l-0.1,0.1c-0.6,0.4-1.2,0.9-1.9,1.4C332.9,263,332.8,263,332.7,263z M336.7,260.2
					c-0.2,0-0.3-0.1-0.4-0.2c-0.2-0.2-0.1-0.6,0.1-0.7c0.7-0.5,1.4-0.9,2.1-1.3c0.2-0.2,0.6-0.1,0.7,0.2c0.2,0.2,0.1,0.6-0.2,0.7
					c-0.7,0.4-1.4,0.9-2,1.3C336.9,260.2,336.8,260.2,336.7,260.2z M340.9,257.6c-0.2,0-0.3-0.1-0.4-0.2c-0.1-0.2-0.1-0.6,0.2-0.7
					c0.7-0.4,1.4-0.8,2.1-1.2c0.2-0.1,0.6,0,0.7,0.2s0,0.6-0.2,0.7c-0.7,0.4-1.4,0.8-2.1,1.2C341.1,257.5,341,257.6,340.9,257.6z
					 M345.2,255.2c-0.2,0-0.4-0.1-0.5-0.3c-0.1-0.3,0-0.6,0.2-0.7c0.8-0.4,1.5-0.7,2.2-1.1c0.3-0.1,0.6,0,0.7,0.3s0,0.6-0.3,0.7
					c-0.7,0.3-1.4,0.7-2.2,1C345.3,255.2,345.3,255.2,345.2,255.2z M376.1,254.8L376.1,254.8c-0.8,0-1.6-0.1-2.5-0.1
					c-0.3,0-0.5-0.3-0.5-0.6s0.3-0.5,0.6-0.5c0.8,0.1,1.7,0.1,2.4,0.1c0.3,0,0.5,0.2,0.5,0.5C376.6,254.6,376.4,254.8,376.1,254.8z
					 M378.6,254.7c-0.3,0-0.5-0.2-0.5-0.5s0.2-0.5,0.5-0.6c0.8-0.1,1.6-0.2,2.3-0.4c0.3-0.1,0.6,0.1,0.6,0.4
					c0.1,0.3-0.1,0.6-0.4,0.6C380.3,254.5,379.5,254.6,378.6,254.7L378.6,254.7z M371.2,254.4L371.2,254.4c-0.8-0.1-1.6-0.2-2.3-0.4
					h-0.2c-0.3-0.1-0.5-0.3-0.4-0.6s0.3-0.5,0.6-0.4h0.2c0.8,0.1,1.5,0.3,2.2,0.4c0.3,0,0.5,0.3,0.4,0.6
					C371.7,254.2,371.5,254.4,371.2,254.4z M383.2,253.4c-0.2,0-0.3-0.1-0.4-0.3s-0.1-0.6,0.2-0.7c0.7-0.4,1.3-0.9,1.7-1.4
					c0.2-0.2,0.5-0.3,0.7-0.1s0.3,0.5,0.1,0.7c-0.5,0.7-1.2,1.2-2,1.7C383.4,253.4,383.3,253.4,383.2,253.4z M366.4,253.3h-0.1
					c-0.4-0.1-0.8-0.2-1.3-0.4c-0.4-0.1-0.7-0.2-1.1-0.3c-0.3-0.1-0.4-0.4-0.3-0.6c0.1-0.3,0.4-0.4,0.6-0.3c0.4,0.1,0.7,0.2,1.1,0.3
					s0.8,0.3,1.3,0.4c0.3,0.1,0.4,0.4,0.3,0.6C366.9,253.2,366.6,253.3,366.4,253.3z M349.7,253.2c-0.2,0-0.4-0.1-0.5-0.3
					c-0.1-0.3,0-0.6,0.3-0.7c0.8-0.3,1.6-0.6,2.4-0.8c0.3-0.1,0.6,0.1,0.6,0.4c0.1,0.3-0.1,0.6-0.4,0.6c-0.7,0.2-1.5,0.5-2.3,0.8
					C349.8,253.2,349.7,253.2,349.7,253.2z M361.7,252h-0.1c-0.8-0.2-1.6-0.3-2.4-0.4c-0.3,0-0.5-0.3-0.5-0.6s0.3-0.5,0.6-0.5
					c0.8,0.1,1.6,0.2,2.5,0.4c0.3,0.1,0.5,0.3,0.4,0.6C362.1,251.9,361.9,252,361.7,252z M354.4,251.9c-0.2,0-0.5-0.2-0.5-0.4
					c0-0.3,0.1-0.5,0.4-0.6c0.8-0.1,1.7-0.2,2.5-0.3c0.3,0,0.5,0.2,0.5,0.5s-0.2,0.5-0.5,0.5C356.1,251.7,355.3,251.7,354.4,251.9
					L354.4,251.9z M386.2,249.6h-0.1c-0.3-0.1-0.4-0.3-0.4-0.6c0.1-0.5,0.2-1.1,0.2-1.6c0-0.2,0-0.4,0-0.6c0-0.3,0.2-0.5,0.5-0.6
					c0.3,0,0.5,0.2,0.6,0.5c0,0.2,0,0.5,0,0.7c0,0.7-0.1,1.3-0.2,1.9C386.6,249.5,386.4,249.6,386.2,249.6z"/>
			</g>
		</g>
		<g>
			<g>
				<g>
					<path class="st0" d="M265,175.6c-0.4-0.3-3.1-1.8-6.1-1.8c-1.7,0-3.1,0.4-4.4,1.4c-2.6,1.9-5.1,2.8-7.4,2.8
						c-3.2,0-4.8-1.7-5.1-2l-0.1-0.1v-0.1c-1.3-1.7-2.4-5.8,1.7-10.8c4.1-4.9,9.3-6.3,10.2-6.6c0.3-0.1,0.8-0.2,1.5-0.2
						c2,0,5.2,0.8,9.4,4.6c5.8,5.2,9.4,12.9,9.6,13.3l4.4,9.6L265,175.6z"/>
				</g>
				<g>
					<path d="M255.1,161c1.2,0,3.9,0.5,7.7,3.9c5.5,4.9,8.9,12.4,8.9,12.4l-5.2-3.9c0,0-3.5-2.2-7.6-2.2c-1.9,0-4,0.5-5.9,1.9
						c-2.5,1.8-4.4,2.3-5.9,2.3c-2.1,0-3.2-1.2-3.2-1.2s-2.2-2.8,1.6-7.4c3.8-4.6,8.8-5.7,8.8-5.7S254.6,161,255.1,161 M255.1,155.7
						c-0.9,0-1.6,0.1-2.1,0.3c-1.4,0.3-7.1,2-11.6,7.5c-5.2,6.3-3.5,11.8-1.7,14.1l0.1,0.1l0.1,0.1c1.3,1.4,3.8,2.9,7.1,2.9
						c2.9,0,5.9-1.1,9-3.3c0.8-0.6,1.7-0.9,2.8-0.9c1.9,0,3.9,0.9,4.6,1.3l5,3.8l16.9,12.8l-8.9-19.3c-0.2-0.3-4-8.6-10.2-14.1
						C261.4,156.6,257.5,155.7,255.1,155.7L255.1,155.7z"/>
				</g>
			</g>
			<g>
				<g>
					<path class="st0" d="M273.7,196.2c-1.4,0-2.5-0.2-2.6-0.2h-0.2l-0.2-0.1c-0.4-0.1-3.5-1.5-4.8-4.6c-0.8-1.8-0.7-3.8,0.1-5.8
						c1.9-4.6,3.2-8.3,3.2-8.3l0.1-0.3l0.2-0.3c0.2-0.3,2-3,5.9-3c1.6,0,3.2,0.5,5,1.4c6.3,3.4,5.4,7.9,5.1,9.1l0,0
						c-0.2,0.7-2,7.1-5.1,9.8C278.7,195.4,276.4,196.2,273.7,196.2z"/>
				</g>
				<g>
					<path d="M275.3,176.3c1,0,2.2,0.3,3.7,1.1c5.1,2.8,3.8,6,3.8,6s-1.7,6.3-4.3,8.6c-1.4,1.3-3.4,1.6-4.8,1.6c-1.2,0-2-0.2-2-0.2
						s-5.2-2.1-3.2-6.8c2-4.8,3.2-8.5,3.2-8.5S272.8,176.3,275.3,176.3 M275.3,170.9L275.3,170.9L275.3,170.9L275.3,170.9
						c-4,0-6.9,2.3-8.1,4.2l-0.3,0.5l-0.2,0.6c0,0-1.3,3.6-3.1,8.2c-1.1,2.7-1.1,5.4-0.1,7.8c1.7,4,5.5,5.7,6.3,6l0.4,0.2l0.4,0.1
						c0.2,0.1,1.5,0.3,3.1,0.3c3.4,0,6.3-1,8.4-3c1.7-1.5,3.1-3.8,4.5-7.1c0.7-1.8,1.2-3.3,1.3-3.8c0.3-0.9,0.7-2.7,0-5
						c-0.6-2.1-2.1-5-6.4-7.3C279.4,171.5,277.3,170.9,275.3,170.9L275.3,170.9L275.3,170.9z"/>
				</g>
			</g>
			<g>
				<g>
					<path class="st0" d="M296.1,202.6c-1.9,0-3.3-0.6-3.6-0.7l-0.2-0.1l-0.1-0.1c-2.4-1.3-3.6-3.9-3.6-7.3c0-2.9,1-5.7,1.6-7
						c0.7-1.7,2-4,3.7-4.9c0.8-0.4,1.7-0.6,2.6-0.6c2.6,0,5.5,1.7,8.7,5.1c1,1,2.4,3.3,1,6.7c-0.7,1.7-2,3.3-3.2,4.9
						c-0.3,0.3-0.5,0.7-0.8,1C300.9,201.5,298.7,202.6,296.1,202.6L296.1,202.6z"/>
				</g>
				<g>
					<path d="M296.5,184.6c2.2,0,4.8,2.2,6.8,4.3c2.4,2.6-0.7,5.9-3.1,9.2c-1.2,1.6-2.8,2-4.1,2c-1.4,0-2.5-0.5-2.5-0.5
						c-4.9-2.8-0.7-13.3,1.6-14.6C295.6,184.7,296.1,184.6,296.5,184.6 M296.5,179.2c-1.4,0-2.7,0.3-3.9,1c-1.9,1-3.5,3.1-4.8,6.2
						c-0.7,1.5-1.8,4.7-1.8,8.1c-0.1,5.9,3.1,8.5,4.9,9.6l0.3,0.2l0.3,0.1c0.5,0.2,2.3,0.9,4.6,0.9c3.4,0,6.3-1.5,8.3-4.1
						c0.2-0.3,0.5-0.7,0.8-1c1.3-1.7,2.7-3.5,3.5-5.5c1.4-3.5,0.9-7-1.6-9.5C303.4,181.2,299.9,179.2,296.5,179.2L296.5,179.2z"/>
				</g>
			</g>
			<g>
				<g>
					<path class="st0" d="M318.4,216.9c-2.4,0-3.8-1-4.6-1.9c-1.2-1.4-1.7-3.3-1.4-5.6c0.8-7,8.9-10.9,10.1-11.4
						c0.9-0.4,1.9-0.6,2.9-0.6c4.7,0,9.1,4.7,10.9,7.8c0.7,1.2,1.5,3,0.6,4.6c-0.5,0.9-1.5,1.5-2.6,1.5l0,0c-0.6,0-1.2-0.2-1.8-0.5
						c-0.2-0.1-0.4-0.1-0.6-0.1c-1.6,0-4.1,1.9-5.7,3.1c-1.1,0.9-2.1,1.6-3.1,2.1C322.4,216.2,320.5,216.9,318.4,216.9z"/>
				</g>
				<g>
					<path d="M325.4,200.1c5,0,10.8,8.6,8.8,8.6c-0.2,0-0.4-0.1-0.7-0.2c-0.6-0.3-1.1-0.4-1.7-0.4c-3.7,0-7.8,4.5-9.9,5.4
						c-0.9,0.4-2.3,0.8-3.6,0.8c-2,0-3.7-1-3.3-4.5c0.7-5.8,8.6-9.3,8.6-9.3C324.2,200.2,324.8,200.1,325.4,200.1 M325.4,194.7
						L325.4,194.7c-1.4,0-2.7,0.3-4,0.9c-1.5,0.7-10.6,5.1-11.6,13.5c-0.5,4,0.8,6.4,2,7.7c1.6,1.8,3.9,2.8,6.6,2.8
						c2.5,0,4.7-0.8,5.7-1.3c1.2-0.6,2.3-1.4,3.6-2.4c0.9-0.7,1.8-1.4,2.7-1.9c0.6-0.4,1-0.5,1.2-0.6c0.9,0.4,1.7,0.5,2.6,0.5
						c3.2,0,5.7-2.5,5.7-5.8c0-1.5-0.5-3-1.6-4.8c-0.8-1.2-1.7-2.5-2.9-3.6C333.2,197.5,329.7,194.7,325.4,194.7L325.4,194.7
						L325.4,194.7z"/>
				</g>
			</g>
			<g>
				<g>
					<path class="st0" d="M344,227.5c-0.7,0-1.4,0-2.2-0.1c-3.8-0.5-5.6-2.2-6.4-3.7c-1.8-3.1-0.3-6.7-0.1-7.1l0.2-0.4l0.3-0.3
						c0.2-0.2,5-5.4,11.1-5.4c1.9,0,3.7,0.5,5.4,1.5c5.8,3.5,10.3,6.6,12,8.2c1,1,1.3,2.3,0.8,3.5c-0.7,1.6-2.4,2.4-5.2,2.4
						c-1.2,0-3.1-0.1-5.4-0.9c-0.4-0.1-0.7-0.2-1-0.2c-0.7,0-1.3,0.3-2.5,0.8C349.4,226.6,347.2,227.5,344,227.5z"/>
				</g>
				<g>
					<path d="M346.8,213.1c1.3,0,2.7,0.3,4,1.1c6.5,3.9,10.2,6.6,11.4,7.8c0.8,0.8-0.4,1.4-2.5,1.4c-1.3,0-2.9-0.2-4.6-0.7
						c-0.6-0.2-1.2-0.3-1.8-0.3c-2.9,0-4.7,2.4-9.5,2.4c-0.6,0-1.2,0-1.8-0.1c-7.2-0.9-4.4-7-4.4-7S341.9,213.1,346.8,213.1
						 M346.8,207.8L346.8,207.8v0.9v4.4V207.8c-7.1,0-12.4,5.7-13,6.3l-0.6,0.6l-0.3,0.8c-0.4,0.8-2.2,5.3,0.2,9.5
						c1.1,2,3.5,4.4,8.4,5c0.8,0.1,1.7,0.2,2.5,0.2c3.8,0,6.3-1.1,8.1-1.9c0.5-0.2,1.2-0.5,1.4-0.5c0,0,0.1,0,0.2,0
						c2.1,0.6,4.2,1,6.1,1c1.2,0,2.3-0.1,3.3-0.4c2.8-0.8,3.9-2.6,4.4-3.6c0.9-2.2,0.4-4.7-1.4-6.4c-2.5-2.5-8.9-6.5-12.5-8.6
						C351.5,208.5,349.2,207.8,346.8,207.8L346.8,207.8L346.8,207.8z"/>
				</g>
			</g>
			<g>
				<g>
					<path class="st0" d="M379.6,242c-1,0-2-0.2-2.9-0.6c-4.8-1.8-4.8-6.4-4.8-9.2c0-0.7,0-1.3-0.1-1.9c-0.1-1.2-1.8-2.4-2.6-2.8
						l-0.5-0.2l-0.3-0.4c-0.5-0.5-1.9-2.1-1.1-4c0.5-1.1,1.6-1.8,2.9-1.8c2,0,6,1.7,9,3.2c4,1.9,8,6.3,7.7,10.5
						C386.5,238.4,383.9,242,379.6,242L379.6,242z"/>
				</g>
				<g>
					<path d="M370.1,223.9c1.4,0,5.5,1.8,7.8,2.9c3.3,1.6,6.4,5.1,6.2,7.9c-0.2,2.3-1.8,4.6-4.6,4.6c-0.6,0-1.3-0.1-2-0.4
						c-3.9-1.5-2.9-5.7-3.2-8.8c-0.3-3.1-4.1-4.9-4.1-4.9C369.4,224.2,369.5,223.9,370.1,223.9 M370.1,218.6c-2.4,0-4.4,1.3-5.3,3.3
						c-0.7,1.6-0.6,3.4,0.2,5c0.3,0.6,0.7,1.2,1.3,1.8l0.7,0.8l0.9,0.4c0.4,0.2,1,0.7,1.2,0.9c0,0.4,0,0.9,0,1.4
						c0,1.6,0,3.6,0.7,5.5c0.9,2.9,3,5,5.9,6.1c1.3,0.5,2.6,0.7,3.9,0.7c5.2,0,9.4-4.1,9.9-9.5c0.2-2.7-0.8-5.6-2.9-8.2
						c-1.7-2-3.9-3.8-6.2-4.9C373.2,218.6,370.9,218.6,370.1,218.6L370.1,218.6z"/>
				</g>
			</g>
		</g>
	</g>
	<g class="st9">
		<path class="st10" d="M57.7,275.3c-0.7-51.4,18.5-88.8,33-109.6c-3.1-1-11,1.6-18.2,4c-7.7,2.6-18.1,2.8-18.1,2.8
			c-6.5,15.3-20.5,55.1-20.5,55.1l0,0c-0.9,1.6-1.8,3.3-2.8,5.2c-8.4,15.3-6.6,35.8-6.6,35.8s-9,15.6,0,37.5l-6.4,16.1l-3.2,8.1
			l-0.2,0.6l-2.3,5.9c0,0,12.2,14.3,40.4,19.8c2.3,0.5,4.7,0.9,7.2,1.2C59.1,341.3,58.2,315.1,57.7,275.3z"/>
	</g>
	<g class="st9">
		<path class="st10" d="M485.8,286.3c-1.8-5.9-5.2-10.2-7.9-14.4c-1.1-1.8-2.5-3.3-3.9-4.6c-4.9-4.5-10.4-6.5-10.4-6.5
			c-0.1,0.7-0.8,1.4-2.1,2.2c-3.2-0.9-8.8-2.3-15.2-3.7c8.3,24.6,11.9,54.2,3,86.9c10.6-3.4,19.1-7.6,23.8-12.7l0,0
			c0.3-0.3,0.6-0.7,0.9-1c0.1-0.1,0.2-0.2,0.2-0.3c0.3-0.3,0.5-0.6,0.7-0.9l0.1-0.1c0.3-0.3,0.5-0.7,0.8-1c0.1-0.1,0.1-0.2,0.2-0.3
			c0.2-0.3,0.4-0.5,0.6-0.8c0.1-0.1,0.1-0.1,0.2-0.2c0.2-0.3,0.5-0.6,0.7-1c0.1-0.1,0.1-0.2,0.2-0.2c0.2-0.3,0.4-0.5,0.6-0.8
			c0.1-0.1,0.1-0.2,0.2-0.2c0.2-0.3,0.4-0.6,0.7-1c0-0.1,0.1-0.1,0.1-0.2c0.2-0.3,0.3-0.5,0.5-0.8c0.1-0.1,0.1-0.2,0.2-0.3
			c0.2-0.3,0.4-0.6,0.6-1c0-0.1,0.1-0.1,0.1-0.2c0.2-0.3,0.3-0.6,0.5-0.8c0.1-0.1,0.1-0.2,0.2-0.3c0.2-0.3,0.4-0.6,0.5-0.9
			C492,302.2,485.8,286.3,485.8,286.3z"/>
	</g>
</g>
</svg>
