<?xml version="1.0" encoding="utf-8"?>
<!-- Generator: Adobe Illustrator 25.2.0, SVG Export Plug-In . SVG Version: 6.00 Build 0)  -->
<svg version="1.1" id="Layer_1" xmlns="http://www.w3.org/2000/svg" xmlns:xlink="http://www.w3.org/1999/xlink" x="0px" y="0px"
	 viewBox="0 0 500 500" style="enable-background:new 0 0 500 500;" xml:space="preserve">
<style type="text/css">
	.st0{fill:#596A9B;stroke:#000000;stroke-width:24.4052;stroke-linecap:round;stroke-linejoin:round;stroke-miterlimit:10;}
	.st1{fill:#6F42F5;}
	.st2{fill:#7C8BC6;}
	.st3{fill:#FFFFFF;}
	.st4{fill:#C5CAD8;}
	.st5{fill:#F4F3F2;}
	.st6{fill:#F9D182;}
	.st7{fill:#3F569E;}
	.st8{opacity:0.27;}
</style>
<g>
	<g>
		<path class="st0" d="M50.8,192c0,0,68.5,21.3,105.7-2s15.8,55.8,15.8,55.8l-65.2,10.7l-61.5-10.7L50.8,192z"/>
		<g>
			<path class="st1" d="M164.2,220.4c-0.8,0-1.5-0.3-2.1-0.9c-0.4-0.4-9.4-11.1-8.2-27.2c1-13.5,8.8-26.5,23.1-38.7
				c0.1-0.1,0.1-0.1,0.2-0.2l7.1-5c0.5-0.3,1-0.5,1.6-0.5c0.5,0,1,0.1,1.5,0.4c0.3,0.2,26.7,17,49.7,33.6
				c22.6,16.3,25.1,18.1,25.2,18.1c0.9,0.6,1.4,1.8,1.1,2.8c-0.2,1.1-1.1,1.9-2.2,2.1l-96.6,15.3
				C164.5,220.4,164.3,220.4,164.2,220.4z"/>
			<path d="M185.9,150.6c0,0,26.4,16.8,49.5,33.5s25.3,18.2,25.3,18.2l-96.6,15.3c0,0-24.6-28.5,14.6-62L185.9,150.6 M185.9,145.2
				c-1.1,0-2.2,0.3-3.1,1l-7.1,5c-0.1,0.1-0.3,0.2-0.4,0.3c-7.9,6.7-13.9,13.8-18,21.1c-3.5,6.3-5.6,12.9-6.1,19.4
				c-1.3,17.2,8.4,28.7,8.8,29.2c1,1.2,2.6,1.9,4.1,1.9c0.3,0,0.6,0,0.9-0.1l96.6-15.3c2.2-0.4,4-2,4.5-4.2s-0.4-4.4-2.3-5.7
				c-0.2-0.2-3.4-2.3-25.1-18.1c-23-16.7-49.5-33.5-49.8-33.7C188,145.5,186.9,145.2,185.9,145.2L185.9,145.2z"/>
		</g>
		<g>
			<path class="st2" d="M164.8,209.8c-0.2,0-0.5-0.1-0.6-0.4c0,0-0.4-0.9-0.9-2.5c-0.1-0.3,0.1-0.7,0.4-0.8c0.3-0.1,0.7,0.1,0.8,0.4
				c0.4,1.5,0.8,2.3,0.8,2.3c0.1,0.3,0,0.7-0.3,0.8C165,209.8,164.9,209.8,164.8,209.8z M163.3,205c-0.3,0-0.6-0.2-0.6-0.5
				c-0.2-0.8-0.3-1.7-0.4-2.5c0-0.3,0.2-0.7,0.5-0.7s0.7,0.2,0.7,0.5c0.1,0.8,0.2,1.6,0.4,2.4c0.1,0.3-0.1,0.7-0.5,0.7
				C163.4,205,163.4,205,163.3,205z M162.7,200c-0.3,0-0.6-0.3-0.6-0.6c0-0.8-0.1-1.6-0.1-2.4v-0.1c0-0.3,0.3-0.6,0.6-0.6l0,0
				c0.3,0,0.6,0.3,0.6,0.6v0.1c0,0.8,0,1.6,0.1,2.3C163.3,199.7,163.1,200,162.7,200L162.7,200z M162.7,195L162.7,195
				c-0.4,0-0.7-0.3-0.6-0.7c0.1-0.8,0.1-1.7,0.3-2.5c0-0.3,0.4-0.6,0.7-0.5c0.3,0,0.6,0.4,0.5,0.7c-0.1,0.8-0.2,1.6-0.2,2.5
				C163.3,194.8,163,195,162.7,195z M163.4,190h-0.1c-0.3-0.1-0.6-0.4-0.5-0.7c0.2-0.8,0.3-1.7,0.6-2.5c0.1-0.3,0.4-0.5,0.8-0.5
				c0.3,0.1,0.5,0.4,0.5,0.8c-0.2,0.8-0.4,1.6-0.5,2.4C163.9,189.8,163.7,190,163.4,190z M164.6,185.2c-0.1,0-0.1,0-0.2,0
				c-0.3-0.1-0.5-0.5-0.4-0.8c0.3-0.8,0.5-1.6,0.8-2.4c0.1-0.3,0.5-0.5,0.8-0.4s0.5,0.5,0.4,0.8c-0.3,0.8-0.6,1.6-0.8,2.3
				C165.1,185,164.9,185.2,164.6,185.2z M166.4,180.5c-0.1,0-0.2,0-0.3-0.1c-0.3-0.1-0.5-0.5-0.3-0.8c0.3-0.8,0.7-1.5,1.1-2.3
				c0.2-0.3,0.5-0.4,0.8-0.3c0.3,0.2,0.4,0.5,0.3,0.8c-0.4,0.7-0.7,1.5-1.1,2.2C166.9,180.3,166.6,180.5,166.4,180.5z M168.6,176
				c-0.1,0-0.2,0-0.3-0.1c-0.3-0.2-0.4-0.6-0.2-0.9c0.4-0.7,0.8-1.5,1.3-2.2c0.2-0.3,0.6-0.4,0.9-0.2c0.3,0.2,0.4,0.6,0.2,0.9
				c-0.4,0.7-0.9,1.4-1.3,2.1C169.1,175.8,168.9,176,168.6,176z M171.3,171.7c-0.1,0-0.2,0-0.4-0.1c-0.3-0.2-0.4-0.6-0.2-0.9
				c0.5-0.7,1-1.4,1.5-2.1c0.2-0.3,0.6-0.3,0.9-0.1c0.3,0.2,0.3,0.6,0.1,0.9c-0.5,0.7-1,1.3-1.4,2
				C171.7,171.6,171.5,171.7,171.3,171.7z M174.3,167.7c-0.1,0-0.3,0-0.4-0.1c-0.3-0.2-0.3-0.6-0.1-0.9c0.5-0.6,1.1-1.3,1.6-1.9
				c0.2-0.3,0.6-0.3,0.9-0.1c0.3,0.2,0.3,0.6,0.1,0.9c-0.5,0.6-1.1,1.3-1.6,1.9C174.7,167.6,174.5,167.7,174.3,167.7z M177.6,163.9
				c-0.2,0-0.3-0.1-0.4-0.2c-0.3-0.2-0.3-0.6,0-0.9c0.6-0.6,1.2-1.2,1.8-1.8c0.2-0.2,0.6-0.2,0.9,0c0.2,0.2,0.2,0.6,0,0.9
				c-0.6,0.6-1.2,1.2-1.7,1.8C177.9,163.8,177.8,163.9,177.6,163.9z M181.1,160.3c-0.2,0-0.3-0.1-0.5-0.2c-0.2-0.3-0.2-0.6,0-0.9
				c0.6-0.6,1.2-1.2,1.9-1.7c0.3-0.2,0.7-0.2,0.9,0c0.2,0.3,0.2,0.7,0,0.9c-0.6,0.6-1.2,1.1-1.8,1.7
				C181.5,160.3,181.3,160.3,181.1,160.3z M184.9,157c-0.2,0-0.4-0.1-0.5-0.2c-0.2-0.3-0.2-0.7,0.1-0.9c0.6-0.5,1.3-1.1,2-1.6
				c0.3-0.2,0.7-0.2,0.9,0.1s0.2,0.7-0.1,0.9c-0.6,0.5-1.3,1.1-1.9,1.6C185.2,156.9,185,157,184.9,157z M188.8,153.8
				c-0.2,0-0.4-0.1-0.5-0.2c-0.2-0.3-0.2-0.7,0.1-0.9c0.2-0.1,0.3-0.3,0.5-0.4c0.3-0.2,0.7-0.2,0.9,0.1s0.2,0.7-0.1,0.9
				c-0.2,0.1-0.3,0.3-0.5,0.4C189.1,153.8,188.9,153.8,188.8,153.8z"/>
		</g>
		<path class="st3" d="M195.9,157.1c0,0-16,13.8-20,26.3c0,0,28.9,10,32.7,16.3c0,0,8.7-22.4,13.2-25.1L195.9,157.1z"/>
		<g>
			<g>
				<path class="st1" d="M318.1,321.4c-18.8,0-34.3-0.9-46.1-2.8c-35.8-5.7-100.1-6.6-134.6-7.2c-8.7-0.1-15.6-0.2-19.5-0.4
					c-3.2-0.1-7.9-0.3-13.5-0.5c-38.4-1.4-79.8-2.9-84.4-3.8c-3.3-0.7-5.5-2.3-7-5.1c-1.2-2.3-1.9-5.2-2.7-8.9
					c-0.1-0.7-0.3-1.4-0.5-2.1c-2-8.7-0.1-31.1,1.4-49.1s8.9-24.4,9.2-24.7c0.5-0.4,1.1-0.6,1.7-0.6c0.2,0,0.5,0,0.7,0.1
					c0.5,0.1,53.8,14.9,91.8,14.9c13.4,0,23.3-1.8,29.4-5.4c28.7-16.8,53.5-37.8,53.8-38c0.5-0.4,1.1-0.6,1.8-0.6
					c0.3,0,0.6,0,0.8,0.1l186.7,59.9l52.9,14.5c0.5,0.1,0.9,0.4,1.2,0.7l29.9,29.9c0.6,0.6,0.9,1.4,0.8,2.2c-0.1,0.8-0.5,1.5-1.2,2
					c-0.9,0.6-22.9,15.9-45.5,18.3C407.1,316.8,359.7,321.4,318.1,321.4z"/>
			</g>
			<path d="M473.3,290.4l-29.9-29.9c-0.7-0.7-1.5-1.2-2.4-1.4l-53-14.5l-186.7-59.8c-0.5-0.2-1.1-0.3-1.7-0.3
				c-1.3,0-2.5,0.4-3.5,1.3l0,0c-0.2,0.2-25,21.1-53.4,37.7c-5.7,3.3-15.1,5-28.1,5c-15.5,0-36.1-2.6-59.7-7.4
				c-17.9-3.7-31.3-7.4-31.4-7.4c-0.5-0.1-1-0.2-1.5-0.2c-1.3,0-2.5,0.4-3.5,1.3c-0.9,0.7-8.6,7.7-10.2,26.5
				c-1.9,22.3-3.2,41.4-1.3,49.9c0.2,0.7,0.3,1.4,0.5,2.1c0.9,3.9,1.5,6.9,3,9.6c1.9,3.5,4.8,5.6,8.9,6.5c4.4,0.9,34.4,2.1,84.9,3.9
				c5.5,0.2,10.3,0.4,13.5,0.5c3.9,0.1,10.8,0.3,19.6,0.4c34.5,0.5,98.7,1.5,134.2,7.2c12,1.9,27.6,2.8,46.6,2.8
				c41.7,0,89.2-4.6,107.7-6.6c9.8-1.1,20.7-4.5,32.2-10.3c8.5-4.3,14.3-8.3,14.5-8.4c1.3-0.9,2.2-2.4,2.3-4
				C475,293.1,474.4,291.6,473.3,290.4z M425.2,312.1c-15.8,1.7-64.3,6.6-107.1,6.6c-16.9,0-32.9-0.8-45.7-2.8
				c-45.1-7.1-135.4-6.9-154.5-7.6c-19-0.7-91.7-3.1-97.4-4.3c-5.7-1.2-6.2-5.7-8.1-14s0-31.1,1.4-48.2s8.3-22.8,8.3-22.8
				s53.7,15,92.6,15c12.6,0,23.7-1.6,30.8-5.8c29.2-17.1,54.2-38.3,54.2-38.3l186.8,59.9l53,14.5l29.9,29.9
				C469.4,294.3,447.3,309.7,425.2,312.1z"/>
		</g>
		<g>
			<path class="st2" d="M137.7,309c-0.2,0-0.4-0.1-0.5-0.3c-0.1-0.1-0.4-0.6-0.9-1.3c-0.2-0.3-0.1-0.7,0.2-0.9
				c0.3-0.2,0.7-0.1,0.9,0.2c0.5,0.8,0.8,1.2,0.8,1.3v0.1c0.2,0.3,0,0.7-0.3,0.8C137.9,309,137.8,309,137.7,309z M135.5,305.6
				c-0.2,0-0.4-0.1-0.5-0.3c-0.4-0.6-0.9-1.4-1.4-2.1c-0.2-0.3-0.1-0.7,0.2-0.9c0.3-0.2,0.7-0.1,0.9,0.2c0.5,0.8,1,1.5,1.4,2.1
				c0.2,0.3,0.1,0.7-0.2,0.9C135.7,305.5,135.6,305.6,135.5,305.6z M132.7,301.3c-0.2,0-0.4-0.1-0.5-0.3c-0.4-0.7-0.9-1.4-1.4-2.1
				c-0.2-0.3-0.1-0.7,0.2-0.9c0.3-0.2,0.7-0.1,0.9,0.2c0.5,0.7,0.9,1.4,1.4,2.1c0.2,0.3,0.1,0.7-0.2,0.9
				C133,301.3,132.9,301.3,132.7,301.3z M130,297.1c-0.2,0-0.4-0.1-0.5-0.3c-0.4-0.7-0.9-1.4-1.3-2.1c-0.2-0.3-0.1-0.7,0.2-0.9
				c0.3-0.2,0.7-0.1,0.9,0.2c0.5,0.7,0.9,1.4,1.3,2.1c0.2,0.3,0.1,0.7-0.2,0.9C130.3,297,130.2,297.1,130,297.1z M127.4,292.8
				c-0.2,0-0.4-0.1-0.5-0.3c-0.4-0.7-0.9-1.4-1.3-2.1c-0.2-0.3-0.1-0.7,0.2-0.9c0.3-0.2,0.7-0.1,0.9,0.2c0.4,0.7,0.9,1.4,1.3,2.1
				c0.2,0.3,0.1,0.7-0.2,0.9C127.6,292.8,127.5,292.8,127.4,292.8z M124.7,288.5c-0.2,0-0.4-0.1-0.5-0.3c-0.4-0.7-0.9-1.4-1.3-2.2
				c-0.2-0.3-0.1-0.7,0.2-0.9c0.3-0.2,0.7-0.1,0.9,0.2c0.4,0.7,0.9,1.4,1.3,2.2c0.2,0.3,0.1,0.7-0.2,0.9
				C125,288.5,124.8,288.5,124.7,288.5z M122.1,284.2c-0.2,0-0.4-0.1-0.5-0.3c-0.4-0.7-0.9-1.5-1.3-2.2c-0.2-0.3-0.1-0.7,0.2-0.9
				c0.3-0.2,0.7-0.1,0.9,0.2c0.4,0.7,0.8,1.4,1.3,2.2c0.2,0.3,0.1,0.7-0.2,0.9C122.4,284.2,122.3,284.2,122.1,284.2z M119.6,279.8
				c-0.2,0-0.4-0.1-0.5-0.3c-0.4-0.8-0.9-1.5-1.2-2.2c-0.2-0.3,0-0.7,0.3-0.9c0.3-0.2,0.7,0,0.9,0.3c0.4,0.7,0.8,1.4,1.2,2.2
				c0.2,0.3,0.1,0.7-0.2,0.9C119.8,279.8,119.7,279.8,119.6,279.8z M117.3,275.4c-0.2,0-0.5-0.1-0.6-0.4c-0.3-0.6-0.6-1.2-0.7-1.6
				c-0.1-0.3-0.2-0.5-0.3-0.8c-0.1-0.3,0.1-0.7,0.4-0.8c0.3-0.1,0.7,0.1,0.8,0.4c0.1,0.2,0.1,0.4,0.2,0.6c0.2,0.4,0.4,1,0.7,1.6
				c0.2,0.3,0,0.7-0.3,0.8C117.4,275.3,117.4,275.4,117.3,275.4z M116.3,270.6c-0.1,0-0.1,0-0.2,0c-0.3-0.1-0.5-0.5-0.4-0.8
				c0.3-0.8,0.7-1.6,1.4-2.4c0.2-0.3,0.6-0.3,0.9,0c0.3,0.2,0.3,0.6,0,0.9c-0.6,0.6-0.9,1.3-1.1,1.9
				C116.8,270.4,116.6,270.6,116.3,270.6z M119.5,266.8c-0.2,0-0.4-0.1-0.5-0.3c-0.2-0.3-0.1-0.7,0.1-0.9c0.6-0.5,1.4-0.9,2.2-1.4
				c0.3-0.2,0.7-0.1,0.9,0.2c0.2,0.3,0.1,0.7-0.2,0.9c-0.8,0.4-1.5,0.9-2.1,1.3C119.7,266.7,119.6,266.8,119.5,266.8z M123.9,264.3
				c-0.2,0-0.5-0.1-0.6-0.4c-0.2-0.3,0-0.7,0.3-0.8c0.7-0.3,1.5-0.7,2.3-1.1c0.3-0.1,0.7,0,0.8,0.3c0.1,0.3,0,0.7-0.3,0.8
				c-0.8,0.4-1.6,0.7-2.3,1C124,264.3,123.9,264.3,123.9,264.3z M128.5,262.3c-0.2,0-0.5-0.1-0.6-0.4s0-0.7,0.3-0.8
				c0.7-0.3,1.5-0.6,2.3-0.9c0.3-0.1,0.7,0,0.8,0.4c0.1,0.3,0,0.7-0.4,0.8c-0.9,0.3-1.6,0.6-2.3,0.9H128.5z M133.2,260.4
				c-0.3,0-0.5-0.2-0.6-0.4c-0.1-0.3,0-0.7,0.4-0.8c0.8-0.3,1.6-0.6,2.4-0.9c0.3-0.1,0.7,0,0.8,0.4c0.1,0.3,0,0.7-0.4,0.8
				c-0.8,0.3-1.6,0.6-2.4,0.9C133.3,260.4,133.2,260.4,133.2,260.4z M137.9,258.7c-0.3,0-0.5-0.2-0.6-0.4c-0.1-0.3,0-0.7,0.4-0.8
				c0.8-0.3,1.6-0.6,2.4-0.9c0.3-0.1,0.7,0,0.8,0.4c0.1,0.3,0,0.7-0.4,0.8c-0.8,0.3-1.6,0.6-2.4,0.9
				C138,258.7,137.9,258.7,137.9,258.7z M142.6,256.9c-0.3,0-0.5-0.2-0.6-0.4c-0.1-0.3,0-0.7,0.4-0.8c0.8-0.3,1.6-0.6,2.3-0.9
				c0.3-0.1,0.7,0,0.8,0.4c0.1,0.3,0,0.7-0.4,0.8c-0.8,0.3-1.6,0.6-2.4,0.9C142.7,256.9,142.6,256.9,142.6,256.9z M147.3,255.1
				c-0.3,0-0.5-0.2-0.6-0.4c-0.1-0.3,0-0.7,0.4-0.8l0.4-0.2c0.6-0.2,1.2-0.5,1.9-0.8c0.3-0.1,0.7,0,0.8,0.3s0,0.7-0.3,0.8
				c-0.7,0.3-1.3,0.6-1.9,0.8l-0.4,0.2C147.4,255.1,147.3,255.1,147.3,255.1z M151.9,253c-0.2,0-0.5-0.1-0.6-0.3
				c-0.2-0.3,0-0.7,0.3-0.8c0.7-0.4,1.5-0.7,2.2-1.2c0.3-0.2,0.7-0.1,0.9,0.3c0.2,0.3,0.1,0.7-0.3,0.9c-0.8,0.4-1.5,0.8-2.2,1.2
				C152,253,152,253,151.9,253z M156.3,250.6c-0.2,0-0.4-0.1-0.5-0.3c-0.2-0.3-0.1-0.7,0.2-0.9c0.7-0.4,1.4-0.8,2.1-1.3
				c0.3-0.2,0.7-0.1,0.9,0.2s0.1,0.7-0.2,0.9c-0.7,0.5-1.5,0.9-2.2,1.3C156.5,250.6,156.4,250.6,156.3,250.6z M160.6,248
				c-0.2,0-0.4-0.1-0.5-0.3c-0.2-0.3-0.1-0.7,0.2-0.9c0.7-0.4,1.4-0.9,2.1-1.4c0.3-0.2,0.7-0.1,0.9,0.2s0.1,0.7-0.2,0.9
				c-0.7,0.5-1.4,0.9-2.1,1.4C160.8,248,160.7,248,160.6,248z M164.8,245.2c-0.2,0-0.4-0.1-0.5-0.3c-0.2-0.3-0.1-0.7,0.2-0.9
				c0.7-0.5,1.4-0.9,2.1-1.4c0.3-0.2,0.7-0.1,0.9,0.2s0.1,0.7-0.2,0.9c-0.7,0.5-1.4,1-2.1,1.4C165,245.2,164.9,245.2,164.8,245.2z
				 M168.9,242.3c-0.2,0-0.4-0.1-0.5-0.3c-0.2-0.3-0.1-0.7,0.1-0.9c0.7-0.5,1.4-1,2-1.5c0.3-0.2,0.7-0.1,0.9,0.1
				c0.2,0.3,0.1,0.7-0.1,0.9c-0.7,0.5-1.4,1-2,1.5C169.1,242.3,169,242.3,168.9,242.3z M172.9,239.3c-0.2,0-0.4-0.1-0.5-0.2
				c-0.2-0.3-0.2-0.7,0.1-0.9c0.7-0.5,1.3-1,2-1.5c0.3-0.2,0.7-0.2,0.9,0.1s0.2,0.7-0.1,0.9c-0.7,0.5-1.3,1-2,1.5
				C173.2,239.3,173.1,239.3,172.9,239.3z M176.9,236.2c-0.2,0-0.4-0.1-0.5-0.2c-0.2-0.3-0.2-0.7,0.1-0.9c0.7-0.5,1.3-1,2-1.6
				c0.3-0.2,0.7-0.2,0.9,0.1s0.2,0.7-0.1,0.9c-0.7,0.5-1.3,1-2,1.6C177.2,236.2,177.1,236.2,176.9,236.2z M180.9,233.1
				c-0.2,0-0.4-0.1-0.5-0.2c-0.2-0.3-0.2-0.7,0.1-0.9c0.7-0.5,1.3-1.1,1.9-1.6c0.3-0.2,0.7-0.2,0.9,0.1s0.2,0.7-0.1,0.9
				c-0.6,0.5-1.3,1.1-2,1.6C181.1,233.1,181,233.1,180.9,233.1z M184.7,229.9c-0.2,0-0.4-0.1-0.5-0.2c-0.2-0.3-0.2-0.7,0.1-0.9
				c0.7-0.6,1.3-1.1,1.9-1.6c0.3-0.2,0.7-0.2,0.9,0.1s0.2,0.7-0.1,0.9c-0.6,0.5-1.3,1.1-1.9,1.6C185,229.8,184.9,229.9,184.7,229.9z
				 M188.6,226.6c-0.2,0-0.4-0.1-0.5-0.2c-0.2-0.3-0.2-0.7,0.1-0.9c0.7-0.6,1.3-1.1,1.9-1.6c0.3-0.2,0.7-0.2,0.9,0.1
				s0.2,0.7-0.1,0.9c-0.6,0.5-1.2,1.1-1.9,1.6C188.9,226.6,188.7,226.6,188.6,226.6z M192.4,223.3c-0.2,0-0.3-0.1-0.5-0.2
				c-0.2-0.3-0.2-0.7,0.1-0.9c0.7-0.6,1.3-1.2,1.9-1.7c0.3-0.2,0.7-0.2,0.9,0.1s0.2,0.7-0.1,0.9c-0.6,0.5-1.2,1.1-1.9,1.7
				C192.7,223.3,192.6,223.3,192.4,223.3z M196.2,220c-0.2,0-0.3-0.1-0.5-0.2c-0.2-0.3-0.2-0.7,0-0.9c1.2-1.1,1.9-1.7,1.9-1.7
				c0.3-0.2,0.7-0.2,0.9,0c0.2,0.3,0.2,0.7,0,0.9c0,0-0.7,0.6-1.9,1.7C196.5,219.9,196.3,220,196.2,220z"/>
		</g>
		<g>
			<path class="st1" d="M351.6,324.5c-27.8,0-56.1-0.2-56.4-0.2c-1,0-1.8-0.5-2.3-1.4c-0.5-0.8-0.5-1.9,0-2.7l2.4-4.3c0,0,0,0,0-0.1
				c6.5-11,14.4-18.7,23.6-22.9c7.8-3.6,14.9-4.1,19.6-4.4c0.7,0,1.4-0.1,2-0.1c4.2-0.3,19.2-2.1,33.7-3.8
				c15.2-1.8,30.9-3.6,36.3-4.1c5.2-0.5,11.2-1.8,16-3.6c5.9-2.2,7.8-4.2,8-4.9c0.3-1.2,1-3.6-8.7-6.9c-6.9-2.3-39.4-9.9-39.7-10
				c-0.8-0.2-1.5-0.8-1.9-1.5l-3.1-6.8c-0.4-1-0.3-2.1,0.4-2.9c0.5-0.6,1.3-0.9,2.1-0.9c0.3,0,0.5,0,0.8,0.1
				c0.5,0.1,48.8,14.6,69.7,21.7c9.8,3.3,17,7.8,21.4,13.5c4.3,5.4,4.9,10.5,4.9,13.1c0,4.2-1.3,14.6-13.3,20.9
				c-10,5.2-45,11.5-76.8,12C381,324.5,368,324.5,351.6,324.5z"/>
			<path d="M383.6,245.8c0,0,48.5,14.5,69.6,21.6s24.5,18.5,24.5,24s-2.4,13.5-11.9,18.5s-44,11.2-75.6,11.6
				c-10.5,0.2-24.6,0.2-38.7,0.2c-28.2,0-56.4-0.2-56.4-0.2l2.4-4.3c15.4-26.1,34.5-25.4,43-26.1c8.6-0.7,59.4-6.9,70.1-7.8
				c10.7-1,24.9-5.5,26.4-10.5c1.4-5-3.3-7.8-10.5-10.2c-7.1-2.4-39.9-10-39.9-10L383.6,245.8 M383.6,240.3c-1.5,0-3.1,0.7-4.1,1.9
				c-1.4,1.6-1.7,3.9-0.9,5.8l3.1,6.8c0.7,1.5,2.1,2.7,3.7,3.1c9.1,2.1,33.8,8,39.4,9.9c2.3,0.8,4.1,1.5,5.4,2.2
				c0.9,0.5,1.3,0.9,1.5,1.1c-0.7,0.7-2.8,2.1-7.5,3.7c-4.3,1.5-9.6,2.6-14.1,3c-5.5,0.5-21.2,2.3-36.4,4.1
				c-14.5,1.7-29.5,3.4-33.7,3.8c-0.6,0-1.2,0.1-1.9,0.1c-9.6,0.6-29.5,1.9-45.3,28.7c0,0,0,0.1-0.1,0.1l-2.4,4.3
				c-0.9,1.7-0.9,3.7,0.1,5.4c1,1.7,2.7,2.7,4.7,2.7c0.3,0,28.5,0.2,56.4,0.2c16.4,0,29.4-0.1,38.8-0.2c14.9-0.2,31.5-1.7,46.9-4.2
				c14.5-2.4,25.9-5.3,31.2-8.1c5.3-2.8,9.2-6.6,11.8-11.3c2.5-4.7,3-9.1,3-12s-0.7-8.7-5.5-14.7c-4.8-6.1-12.4-11-22.7-14.4
				c-21-7.1-69.3-21.5-69.8-21.7C384.7,240.4,384.2,240.3,383.6,240.3L383.6,240.3z"/>
		</g>
		<g>
			<g>
				
					<rect x="112.4" y="255" transform="matrix(0.5806 -0.8142 0.8142 0.5806 -139.5388 263.8771)" class="st3" width="148" height="24.7"/>
			</g>
		</g>
		<g>
			<g>
				
					<rect x="168.6" y="265.6" transform="matrix(0.5806 -0.8142 0.8142 0.5806 -127.5868 308.3091)" class="st3" width="133.7" height="24.7"/>
			</g>
		</g>
		<g>
			<g>
				
					<rect x="220.7" y="278.5" transform="matrix(0.5806 -0.8142 0.8142 0.5806 -118.182 352.3096)" class="st3" width="124.4" height="24.7"/>
			</g>
		</g>
		<g>
			<path class="st4" d="M174.9,208.8c0,0,15.3,7.9,24.9,23.1c9.6,15.1,13.3,16.3,33.2,11.3s50.7,2.6,64.8,7.5
				c14,4.8,55.4,18.5,71.9,16.6s20.9-4.8,19.5-9.9c-1.5-5-23.9-10.1-23.9-10.1s-101-35.1-124.4-43.5s-31.8-19.5-48.8-8.7
				C175.2,205.9,174.9,208.8,174.9,208.8z"/>
		</g>
		<g>
			<path class="st1" d="M366.9,262c-16.7,0-49.1-10.5-66.9-16.7c-11.6-4.1-30.9-8.8-46.9-8.8c-5.3,0-10,0.5-14,1.5
				c-6.3,1.6-11.4,2.7-15.5,2.7l0,0c-8.7,0-13.1-4.7-19.5-15.1c-8.8-14.2-22.8-21.8-23-21.8c-1-0.5-1.5-1.5-1.4-2.6
				c0.1-1,0.3-4.2,17.9-15.6c5.1-3.3,9.7-4.9,14.5-4.9c6.4,0,12.2,2.8,19.5,6.4c4.4,2.1,9.4,4.6,15.5,6.8
				c21.9,8.1,115.5,41.4,119.8,42.9c1,0.2,5.9,1.4,11.1,3.2c11.1,3.7,13.2,6.6,13.8,8.7c0.7,2.3,0.4,4.4-0.8,6.2
				c-2.3,3.5-8.2,5.5-20.3,7C369.5,261.9,368.3,262,366.9,262z"/>
			<path d="M212,183.4c9.5,0,18.2,7.1,34.1,13c22.6,8.3,120,43,120,43s21.6,5,23,10s-2.9,7.8-18.8,9.7c-1,0.1-2.2,0.2-3.4,0.2
				c-17.6,0-53.3-12.1-66-16.6c-10.4-3.7-30.4-9-47.8-9c-5.2,0-10.2,0.5-14.7,1.6c-6.4,1.7-11.1,2.6-14.9,2.6
				c-7.4,0-11.1-3.9-17.2-13.8c-9.3-15-24-22.8-24-22.8s0.2-2.9,16.6-13.5C203.9,184.6,208,183.4,212,183.4 M212,177.9
				c-5.2,0-10.5,1.7-16,5.3c-7.1,4.6-12.2,8.5-15.3,11.4c-2.5,2.4-3.6,4.3-3.8,6.2c-0.2,2.2,0.9,4.2,2.9,5.3
				c0.3,0.2,13.6,7.5,21.9,20.9c3.2,5.2,6,9.2,9.3,11.9c3.6,3,7.6,4.5,12.6,4.5c4.4,0,9.7-1.1,16.2-2.8c3.7-1,8.2-1.5,13.3-1.5
				c15.7,0,34.6,4.7,46,8.7s21.9,7.4,31.5,10.1c16.1,4.5,28.3,6.8,36.3,6.8c1.5,0,2.8-0.1,4-0.2c13.1-1.6,19.4-3.9,22.2-8.2
				c1.1-1.7,2.2-4.5,1.1-8.5c-1.2-4.2-5.7-7.2-15.6-10.5c-5.1-1.7-9.9-2.9-11.2-3.2c-5.9-2.1-98-34.9-119.7-42.9
				c-5.9-2.2-10.9-4.6-15.2-6.7C225.4,181,219,177.9,212,177.9L212,177.9z"/>
		</g>
		<g>
			<path class="st5" d="M335,352.1c-31.2,0-67.5-0.8-99.6-1.5c-8.1-0.2-15.8-0.3-23.4-0.5c-10-0.2-20.9-0.3-33.4-0.3
				c-15.7,0-31.4,0.2-46.6,0.3c-14,0.1-27.3,0.3-39.5,0.3c-24.7,0-40-0.6-49.8-1.8c-14.7-1.9-22.9-5.2-27.3-10.9
				c-4.4-5.6-4.8-12.9-5.4-22.9l-0.1-1c-0.8-13.3-0.4-15.9,1.1-17.6c0.7-0.7,1.6-1.1,2.5-1.1c1.4,0,2.5,0.8,3.7,1.7
				c0.4,0.3,0.7,0.5,1.1,0.8c3.5,2.3,13.8,4.8,29,5.5c7.5,0.3,35.1,1.1,64.4,1.9c31.7,0.9,64.4,1.8,76.2,2.2
				c12.3,0.5,39.3,2.6,65.4,4.7c22.7,1.8,44.1,3.5,55.8,4.1c3.1,0.2,7.2,0.2,12.1,0.2c35.3,0,100.4-4.1,126.4-10.7
				c16.5-4.2,23.7-9.7,26.8-13.6c1.6-2,4-3.1,6.5-3.1c2.4,0,4.6,1,6.2,2.8c0.6,0.7,1.2,1.4,1.7,2c2.9,3.6,1.8,10.3,1.3,13
				c-1.2,5.7-3.9,11.1-7.3,14.8c-5.5,6-16.8,12.1-31.7,17.4c-11.2,4-29.5,9.1-53,11.4C384.3,351.4,363.5,352.1,335,352.1z"/>
			<path d="M481.1,291.4c1.5,0,3.1,0.6,4.2,1.9c0.6,0.6,1.1,1.3,1.6,1.9c3,3.7,0.9,16.9-5.9,24.2c-10.2,11-43.7,24.2-82.9,27.9
				c-15.5,1.5-37.9,2-63.2,2c-38.7,0-84.4-1.2-122.9-2c-10.9-0.2-22.1-0.3-33.4-0.3c-30.1,0-60.6,0.6-86.1,0.6
				c-21,0-38.5-0.4-49.5-1.8c-29.2-3.8-29.2-12.6-30.4-32.3c-0.8-12.6-0.5-15.8,0.9-15.8c0.8,0,1.9,1,3.4,2c4,2.6,15,5.3,30.4,5.9
				c15.5,0.6,117.8,3.3,140.7,4.1c22.8,0.9,95.8,7.5,121.2,8.8c3.2,0.2,7.4,0.3,12.2,0.3c33.4,0,100.3-3.9,127-10.8
				c17.1-4.4,24.8-10.2,28.3-14.5C477.9,292.1,479.5,291.4,481.1,291.4 M481.1,286L481.1,286c-3.4,0-6.5,1.5-8.6,4.1
				c-2.3,2.9-8.8,8.4-25.4,12.7c-25.4,6.5-91.4,10.6-125.7,10.6c-4.8,0-8.8-0.1-11.9-0.2c-11.7-0.6-33.1-2.3-55.8-4.1
				c-26.1-2.1-53.1-4.2-65.5-4.7c-11.8-0.5-44.6-1.4-76.2-2.2c-29.3-0.8-57-1.6-64.4-1.9c-15.6-0.6-25.1-3.4-27.7-5
				c-0.3-0.2-0.7-0.5-1-0.7c-1.3-1-3-2.2-5.3-2.2c-1.7,0-3.3,0.7-4.5,2c-1.7,1.9-2.2,4.3-2.2,7.7c-0.1,2.6,0.1,6.2,0.4,11.9l0.1,1
				c0.6,10.1,1.1,18.1,6,24.4c2.6,3.3,6.2,5.9,11.1,7.9c4.5,1.8,10.4,3.1,18,4.1c9.9,1.3,25.4,1.9,50.2,1.9
				c12.2,0,25.5-0.1,39.5-0.3c15.2-0.1,30.9-0.3,46.5-0.3c12.5,0,23.4,0.1,33.3,0.3c7.5,0.2,15.2,0.3,23.4,0.5
				c32.1,0.7,68.4,1.5,99.7,1.5c28.6,0,49.5-0.7,63.7-2c23.8-2.3,42.3-7.5,53.6-11.5c15.3-5.4,26.9-11.8,32.7-18.1
				c3.8-4,6.7-9.9,8-16.1c0.8-3.9,1.7-11-1.8-15.3c-0.5-0.7-1.2-1.4-1.8-2.1C487.3,287.3,484.3,286,481.1,286L481.1,286z"/>
		</g>
		<g>
			<path class="st3" d="M82.1,255c-7.1,0-20.2-3.7-32.6-9.2C41,242,26,234.3,20.4,225.1c-0.1-0.2-0.2-0.5-0.3-0.7
				c-0.1-0.5-3.1-11.9,5.3-20.5c-0.1-2.8,0.6-6.7,3.1-9c-0.2-2.6,0-7.1,2.7-9.8c0.7-3.6,3.3-13.8,10.7-13.8c1,0,2.1,0.2,3.1,0.6
				c4,1.6,7.2,3.1,9.3,6.5c1.9,3.1,2.9,7.6,4,14.9c1.2,7.9,7.7,33.9,43,35.2c0.9,0,1.7,0.5,2.2,1.2s0.6,1.7,0.2,2.5
				c-0.1,0.2-2.1,5.2-5.4,10.5c-4.7,7.5-9.5,11.6-14.3,12.1C83.5,255,82.8,255,82.1,255z"/>
			<path d="M41.9,174.1c0.7,0,1.4,0.1,2.1,0.4c8,3.2,9.4,4.8,11.6,19.2c2.1,14.4,13,36.3,45.6,37.5c0,0-7.9,19.8-17.5,20.9
				c-0.5,0.1-1.1,0.1-1.7,0.1c-13.4,0-50.7-14.4-59.4-28.6c0,0-3-11,5.5-18.7c0,0-0.9-6.8,3.2-8.7c0,0-1.2-7.3,2.3-9.6
				C33.7,186.6,35.6,174.1,41.9,174.1 M41.9,168.6L41.9,168.6c-2.1,0-5.2,0.7-8,3.8c-1.4,1.5-2.6,3.5-3.5,5.9
				c-0.8,2.1-1.4,4.1-1.7,5.5c-1.4,1.7-2.7,4.2-2.9,8.1c0,0.7-0.1,1.3,0,1.9c-1.5,1.7-2.5,4-2.9,6.7c-0.1,0.8-0.2,1.6-0.2,2.3
				c-3.4,3.8-5.4,8.6-5.9,13.9c-0.4,4.6,0.5,8,0.6,8.4c0.1,0.5,0.3,1,0.6,1.4c6.1,9.8,21.6,17.8,30.4,21.7
				c12.9,5.7,26.1,9.5,33.7,9.5c0.8,0,1.6,0,2.3-0.1c3.4-0.4,6.7-2.2,9.9-5.2c2.2-2.1,4.3-4.8,6.4-8.2c3.4-5.4,5.5-10.7,5.6-10.9
				c0.7-1.6,0.5-3.5-0.5-5s-2.6-2.4-4.4-2.5C68.3,224.6,62.1,200.4,61,193c-1.1-7.6-2.2-12.4-4.4-15.9c-2.6-4.1-6.3-5.9-10.6-7.6
				C44.7,168.9,43.3,168.6,41.9,168.6L41.9,168.6z"/>
		</g>
		<g>
			<path class="st2" d="M373.8,259.3c-0.1,0-0.1,0-0.2,0l-0.6-0.2c-0.3-0.1-0.5-0.5-0.4-0.8s0.5-0.5,0.8-0.4l0.6,0.2
				c0.3,0.1,0.5,0.5,0.4,0.8C374.3,259.1,374,259.3,373.8,259.3z M370.7,258.2c-0.1,0-0.1,0-0.2,0c-0.8-0.3-1.6-0.6-2.4-0.8
				c-0.3-0.1-0.5-0.5-0.4-0.8s0.5-0.5,0.8-0.4c0.8,0.3,1.6,0.6,2.4,0.8c0.3,0.1,0.5,0.5,0.4,0.8C371.3,258.1,371,258.2,370.7,258.2z
				 M366,256.6c-0.1,0-0.1,0-0.2,0c-0.8-0.3-1.6-0.6-2.4-0.8c-0.3-0.1-0.5-0.5-0.4-0.8s0.5-0.5,0.8-0.4c0.8,0.3,1.6,0.5,2.4,0.8
				c0.3,0.1,0.5,0.5,0.4,0.8C366.5,256.4,366.3,256.6,366,256.6z M361.2,254.9c-0.1,0-0.1,0-0.2,0c-0.8-0.3-1.6-0.5-2.4-0.8
				c-0.3-0.1-0.5-0.5-0.4-0.8s0.5-0.5,0.8-0.4c0.8,0.3,1.6,0.5,2.4,0.8c0.3,0.1,0.5,0.5,0.4,0.8
				C361.8,254.8,361.5,254.9,361.2,254.9z M356.5,253.3c-0.1,0-0.1,0-0.2,0c-0.8-0.3-1.6-0.5-2.4-0.8c-0.3-0.1-0.5-0.5-0.4-0.8
				s0.5-0.5,0.8-0.4c0.8,0.3,1.6,0.5,2.4,0.8c0.3,0.1,0.5,0.5,0.4,0.8C357,253.1,356.7,253.3,356.5,253.3z M351.7,251.7
				c-0.1,0-0.1,0-0.2,0c-0.8-0.3-1.6-0.5-2.4-0.8c-0.3-0.1-0.5-0.5-0.4-0.8s0.5-0.5,0.8-0.4c0.8,0.3,1.6,0.5,2.4,0.8
				c0.3,0.1,0.5,0.5,0.4,0.8C352.2,251.5,352,251.7,351.7,251.7z M346.9,250.1c-0.1,0-0.1,0-0.2,0c-0.8-0.3-1.6-0.5-2.4-0.8
				c-0.3-0.1-0.5-0.5-0.4-0.8s0.5-0.5,0.8-0.4c0.8,0.3,1.6,0.5,2.4,0.8c0.3,0.1,0.5,0.5,0.4,0.8C347.4,250,347.2,250.1,346.9,250.1z
				 M342.2,248.6c-0.1,0-0.1,0-0.2,0c-0.8-0.3-1.6-0.5-2.4-0.8c-0.3-0.1-0.5-0.5-0.4-0.8s0.5-0.5,0.8-0.4c0.8,0.3,1.6,0.5,2.4,0.8
				c0.3,0.1,0.5,0.5,0.4,0.8C342.7,248.4,342.4,248.6,342.2,248.6z M337.4,247.1c-0.1,0-0.1,0-0.2,0c-0.8-0.3-1.6-0.5-2.4-0.7
				c-0.3-0.1-0.5-0.5-0.4-0.8s0.5-0.5,0.8-0.4c0.8,0.2,1.6,0.5,2.4,0.7c0.3,0.1,0.5,0.5,0.4,0.8
				C337.9,246.9,337.6,247.1,337.4,247.1z M332.6,245.6c-0.1,0-0.1,0-0.2,0c-0.8-0.2-1.6-0.5-2.4-0.7c-0.3-0.1-0.5-0.5-0.4-0.8
				s0.5-0.5,0.8-0.4c0.8,0.2,1.6,0.5,2.4,0.7c0.3,0.1,0.5,0.5,0.4,0.8C333.1,245.4,332.8,245.6,332.6,245.6z M327.7,244.1
				c-0.1,0-0.1,0-0.2,0c-0.8-0.2-1.6-0.5-2.4-0.7c-0.3-0.1-0.5-0.4-0.4-0.8c0.1-0.3,0.4-0.5,0.8-0.4c0.8,0.2,1.6,0.5,2.4,0.7
				c0.3,0.1,0.5,0.4,0.4,0.8C328.3,244,328,244.1,327.7,244.1z M322.9,242.7c-0.1,0-0.1,0-0.2,0c-0.8-0.2-1.6-0.5-2.4-0.7
				c-0.3-0.1-0.5-0.4-0.4-0.8c0.1-0.3,0.4-0.5,0.8-0.4c0.8,0.2,1.6,0.5,2.4,0.7c0.3,0.1,0.5,0.4,0.4,0.8
				C323.4,242.5,323.2,242.7,322.9,242.7z M318.1,241.3c-0.1,0-0.1,0-0.2,0c-0.8-0.2-1.6-0.5-2.4-0.7c-0.3-0.1-0.5-0.4-0.4-0.8
				c0.1-0.3,0.4-0.5,0.8-0.4c0.8,0.2,1.6,0.4,2.4,0.7c0.3,0.1,0.5,0.4,0.4,0.8C318.6,241.1,318.4,241.3,318.1,241.3z M313.2,240
				c-0.1,0-0.1,0-0.2,0c-0.8-0.2-1.6-0.4-2.4-0.7c-0.3-0.1-0.5-0.4-0.4-0.8c0.1-0.3,0.4-0.5,0.8-0.4c0.8,0.2,1.6,0.4,2.4,0.7
				c0.3,0.1,0.5,0.4,0.4,0.8C313.8,239.8,313.5,240,313.2,240z M308.4,238.7c-0.1,0-0.1,0-0.2,0c-0.8-0.2-1.6-0.4-2.4-0.6
				c-0.3-0.1-0.5-0.4-0.5-0.8c0.1-0.3,0.4-0.5,0.8-0.5c0.8,0.2,1.6,0.4,2.4,0.6c0.3,0.1,0.5,0.4,0.4,0.8
				C308.9,238.5,308.7,238.7,308.4,238.7z M303.5,237.5c-0.1,0-0.1,0-0.2,0c-0.8-0.2-1.6-0.4-2.4-0.6c-0.3-0.1-0.5-0.4-0.5-0.8
				c0.1-0.3,0.4-0.5,0.8-0.5c0.8,0.2,1.6,0.4,2.4,0.6c0.3,0.1,0.5,0.4,0.5,0.8C304,237.3,303.8,237.5,303.5,237.5z M298.6,236.3
				h-0.1c-0.8-0.2-1.6-0.4-2.4-0.6c-0.3-0.1-0.6-0.4-0.5-0.8c0.1-0.3,0.4-0.5,0.8-0.5c0.8,0.2,1.6,0.4,2.5,0.6
				c0.3,0.1,0.5,0.4,0.5,0.8C299.2,236.1,298.9,236.3,298.6,236.3z M293.7,235.1h-0.1c-0.8-0.2-1.6-0.4-2.5-0.5
				c-0.3-0.1-0.6-0.4-0.5-0.7s0.4-0.6,0.7-0.5c0.8,0.2,1.6,0.3,2.5,0.5c0.3,0.1,0.6,0.4,0.5,0.7C294.3,234.9,294,235.1,293.7,235.1z
				 M288.8,234.1h-0.1c-0.8-0.2-1.7-0.3-2.5-0.5c-0.3-0.1-0.6-0.4-0.5-0.7s0.4-0.6,0.7-0.5c0.8,0.2,1.6,0.3,2.5,0.5
				c0.3,0.1,0.6,0.4,0.5,0.7C289.4,233.9,289.1,234.1,288.8,234.1z M283.9,233.1h-0.1c-0.8-0.2-1.7-0.3-2.5-0.4
				c-0.3-0.1-0.6-0.4-0.5-0.7s0.4-0.6,0.7-0.5c0.8,0.1,1.6,0.3,2.5,0.4c0.3,0.1,0.6,0.4,0.5,0.7
				C284.4,232.9,284.2,233.1,283.9,233.1z M278.9,232.3h-0.1c-0.8-0.1-1.7-0.3-2.5-0.4c-0.3-0.1-0.6-0.4-0.5-0.7s0.4-0.6,0.7-0.5
				c0.8,0.1,1.7,0.3,2.5,0.4c0.3,0.1,0.6,0.4,0.5,0.7C279.5,232.1,279.2,232.3,278.9,232.3z M227.9,232.1c-0.5,0-1.1,0-1.6,0
				c-0.3,0-0.6-0.3-0.6-0.7c0-0.3,0.3-0.6,0.7-0.6c0.8,0,1.6,0,2.5,0c0.4,0,0.6,0.3,0.6,0.6s-0.3,0.6-0.6,0.6
				C228.5,232.1,228.2,232.1,227.9,232.1z M231.4,232c-0.3,0-0.6-0.3-0.6-0.6s0.2-0.6,0.6-0.7c0.8-0.1,1.6-0.1,2.5-0.2
				c0.3,0,0.7,0.2,0.7,0.6c0,0.3-0.2,0.7-0.6,0.7C233.1,231.8,232.2,231.9,231.4,232L231.4,232z M223.9,231.8
				C223.8,231.8,223.8,231.8,223.9,231.8c-1-0.2-1.9-0.4-2.6-0.6c-0.3-0.1-0.5-0.5-0.4-0.8s0.5-0.5,0.8-0.4c0.7,0.2,1.5,0.4,2.3,0.6
				c0.3,0.1,0.6,0.4,0.5,0.7S224.2,231.8,223.9,231.8z M273.9,231.5L273.9,231.5c-0.9-0.1-1.8-0.2-2.6-0.3c-0.3,0-0.6-0.4-0.5-0.7
				c0-0.3,0.4-0.6,0.7-0.5c0.8,0.1,1.7,0.2,2.5,0.3c0.3,0,0.6,0.4,0.5,0.7C274.5,231.3,274.3,231.5,273.9,231.5z M236.4,231.4
				c-0.3,0-0.6-0.2-0.6-0.5s0.2-0.7,0.5-0.7h0.2c0.8-0.1,1.5-0.2,2.3-0.3c0.3,0,0.7,0.2,0.7,0.5s-0.2,0.7-0.5,0.7
				c-0.8,0.1-1.6,0.2-2.3,0.3H236.4L236.4,231.4z M269,230.9C268.9,230.9,268.9,230.9,269,230.9c-0.9-0.1-1.7-0.2-2.6-0.3
				c-0.3,0-0.6-0.3-0.6-0.7c0-0.3,0.3-0.6,0.7-0.6c0.8,0.1,1.7,0.2,2.5,0.3c0.3,0,0.6,0.3,0.6,0.7
				C269.5,230.7,269.3,230.9,269,230.9z M241.4,230.8c-0.3,0-0.6-0.2-0.6-0.6c0-0.3,0.2-0.7,0.6-0.7c0.9-0.1,1.7-0.2,2.5-0.3
				c0.3,0,0.7,0.2,0.7,0.6c0,0.3-0.2,0.7-0.6,0.7C243.1,230.6,242.3,230.7,241.4,230.8L241.4,230.8z M264,230.4
				C263.9,230.4,263.9,230.4,264,230.4c-0.9-0.1-1.7-0.1-2.5-0.2c-0.3,0-0.6-0.3-0.6-0.7c0-0.3,0.3-0.6,0.7-0.6
				c0.8,0,1.7,0.1,2.5,0.2c0.3,0,0.6,0.3,0.6,0.7C264.6,230.2,264.3,230.4,264,230.4z M246.4,230.3c-0.3,0-0.6-0.3-0.6-0.6
				s0.2-0.6,0.6-0.7c0.8-0.1,1.7-0.1,2.5-0.2c0.3,0,0.6,0.2,0.7,0.6c0,0.3-0.2,0.6-0.6,0.7C248.1,230.2,247.3,230.3,246.4,230.3
				L246.4,230.3z M219.2,230.1c-0.1,0-0.2,0-0.3-0.1c-0.7-0.5-1.4-1-2-1.7c-0.2-0.3-0.2-0.7,0-0.9c0.3-0.2,0.7-0.2,0.9,0
				c0.6,0.6,1.1,1.1,1.8,1.5c0.3,0.2,0.4,0.6,0.2,0.9C219.6,230,219.4,230.1,219.2,230.1z M258.9,230.1L258.9,230.1
				c-0.9,0-1.7-0.1-2.5-0.1c-0.3,0-0.6-0.3-0.6-0.6s0.3-0.6,0.6-0.6l0,0c0.8,0,1.7,0,2.5,0.1c0.3,0,0.6,0.3,0.6,0.7
				C259.6,229.9,259.3,230.1,258.9,230.1z M251.4,230.1c-0.3,0-0.6-0.3-0.6-0.6s0.3-0.6,0.6-0.6c0.8,0,1.7,0,2.5,0l0,0
				c0.3,0,0.6,0.3,0.6,0.6s-0.3,0.6-0.6,0.6C253.1,230,252.2,230.1,251.4,230.1L251.4,230.1z M215.7,226.5c-0.2,0-0.4-0.1-0.5-0.3
				c-0.4-0.6-0.8-1.3-1.3-2.2c-0.2-0.3-0.1-0.7,0.2-0.9s0.7-0.1,0.9,0.2c0.5,0.9,0.9,1.5,1.3,2.1c0.2,0.3,0.1,0.7-0.2,0.9
				C216,226.5,215.8,226.5,215.7,226.5z M213.2,222.2c-0.2,0-0.4-0.1-0.6-0.3c-0.4-0.7-0.8-1.4-1.2-2.2c-0.2-0.3-0.1-0.7,0.3-0.9
				c0.3-0.2,0.7-0.1,0.9,0.3c0.4,0.8,0.8,1.5,1.2,2.2c0.2,0.3,0,0.7-0.3,0.8C213.4,222.2,213.3,222.2,213.2,222.2z M210.8,217.8
				c-0.2,0-0.4-0.1-0.5-0.3c-0.4-0.7-0.9-1.3-1.4-2c-0.2-0.3-0.2-0.7,0.1-0.9s0.7-0.2,0.9,0.1c0.5,0.7,1,1.4,1.5,2.1
				c0.2,0.3,0.1,0.7-0.2,0.9C211.1,217.7,210.9,217.8,210.8,217.8z M207.8,213.7c-0.2,0-0.4-0.1-0.5-0.2c-0.5-0.6-1.1-1.2-1.7-1.8
				c-0.2-0.3-0.2-0.6,0-0.9c0.3-0.2,0.6-0.2,0.9,0c0.6,0.6,1.2,1.3,1.7,1.9c0.2,0.3,0.2,0.7-0.1,0.9
				C208.1,213.7,208,213.7,207.8,213.7z M204.4,210.1c-0.2,0-0.3-0.1-0.4-0.2c-0.6-0.6-1.2-1.1-1.8-1.7c-0.3-0.2-0.3-0.6,0-0.9
				c0.2-0.3,0.6-0.3,0.9,0c0.6,0.6,1.3,1.2,1.9,1.7c0.2,0.2,0.3,0.6,0,0.9C204.7,210,204.5,210.1,204.4,210.1z M200.6,206.7
				c-0.1,0-0.3,0-0.4-0.2c-0.6-0.5-1.3-1.1-1.9-1.6c-0.3-0.2-0.3-0.6-0.1-0.9c0.2-0.3,0.6-0.3,0.9-0.1c0.7,0.5,1.3,1.1,1.9,1.6
				c0.3,0.2,0.3,0.6,0.1,0.9C201,206.6,200.8,206.7,200.6,206.7z M196.7,203.5c-0.1,0-0.3,0-0.4-0.1c-0.6-0.5-1.3-1-2-1.5
				c-0.3-0.2-0.3-0.6-0.1-0.9c0.2-0.3,0.6-0.3,0.9-0.1c0.7,0.5,1.4,1,2,1.5c0.3,0.2,0.3,0.6,0.1,0.9
				C197.1,203.5,196.9,203.5,196.7,203.5z M192.7,200.5c-0.1,0-0.3,0-0.4-0.1c-0.7-0.5-1.4-1-2.1-1.4c-0.3-0.2-0.4-0.6-0.2-0.9
				c0.2-0.3,0.6-0.4,0.9-0.2c0.7,0.5,1.4,1,2.1,1.5c0.3,0.2,0.3,0.6,0.1,0.9C193.1,200.4,192.9,200.5,192.7,200.5z M188.5,197.7
				c-0.1,0-0.2,0-0.3-0.1c-1.3-0.9-2.1-1.4-2.1-1.4c-0.3-0.2-0.4-0.6-0.2-0.9c0.2-0.3,0.6-0.4,0.9-0.2c0,0,0.8,0.5,2.1,1.4
				c0.3,0.2,0.4,0.6,0.2,0.9C188.9,197.6,188.7,197.7,188.5,197.7z"/>
		</g>
		<g>
			<path class="st2" d="M83.3,265.2L83.3,265.2c-0.8,0-1.6,0-2.5-0.1c-0.3,0-0.6-0.3-0.6-0.7c0-0.3,0.3-0.6,0.7-0.6
				c0.9,0.1,1.7,0.1,2.5,0.1c0.3,0,0.6,0.3,0.6,0.6C83.9,264.9,83.7,265.2,83.3,265.2z M85.8,265.1c-0.3,0-0.6-0.3-0.6-0.6
				c0-0.3,0.2-0.6,0.6-0.7c0.9-0.1,1.7-0.2,2.4-0.3c0.3-0.1,0.7,0.1,0.8,0.5c0.1,0.3-0.1,0.7-0.5,0.8
				C87.7,264.9,86.8,265,85.8,265.1C85.9,265.1,85.8,265.1,85.8,265.1z M78.3,264.9L78.3,264.9c-0.8-0.1-1.7-0.2-2.6-0.3
				c-0.3,0-0.6-0.4-0.6-0.7c0-0.3,0.4-0.6,0.7-0.6c0.9,0.1,1.7,0.2,2.5,0.3c0.3,0,0.6,0.3,0.6,0.7S78.6,264.9,78.3,264.9z
				 M73.3,264.3L73.3,264.3c-0.9-0.1-1.7-0.2-2.6-0.3c-0.3,0-0.6-0.4-0.5-0.7c0-0.3,0.4-0.6,0.7-0.5c0.9,0.1,1.7,0.2,2.5,0.3
				c0.3,0,0.6,0.4,0.5,0.7C73.9,264.1,73.6,264.3,73.3,264.3z M90.7,264c-0.2,0-0.5-0.1-0.6-0.4s0-0.7,0.3-0.8
				c0.7-0.3,1.4-0.7,2.2-1.1c0.3-0.2,0.7-0.1,0.9,0.2c0.2,0.3,0.1,0.7-0.2,0.9c-0.8,0.4-1.5,0.8-2.3,1.2
				C90.9,263.9,90.8,264,90.7,264z M68.3,263.6L68.3,263.6c-0.9-0.1-1.7-0.3-2.6-0.4c-0.3-0.1-0.6-0.4-0.5-0.7
				c0.1-0.3,0.4-0.6,0.7-0.5c0.9,0.1,1.7,0.3,2.5,0.4c0.3,0.1,0.6,0.4,0.5,0.7C68.9,263.4,68.6,263.6,68.3,263.6z M63.4,262.9
				L63.4,262.9c-0.6-0.1-1.2-0.2-1.8-0.3c-0.3,0-0.6-0.1-0.8-0.1c-0.3-0.1-0.6-0.4-0.5-0.7c0.1-0.3,0.4-0.6,0.7-0.5
				c0.3,0,0.5,0.1,0.8,0.1c0.6,0.1,1.1,0.2,1.7,0.3c0.3,0.1,0.6,0.4,0.5,0.7C63.9,262.6,63.7,262.9,63.4,262.9z M58.4,261.9
				L58.4,261.9c-0.9-0.2-1.7-0.4-2.6-0.6c-0.3-0.1-0.5-0.4-0.4-0.8c0.1-0.3,0.4-0.5,0.8-0.4c0.8,0.2,1.6,0.4,2.4,0.6
				c0.3,0.1,0.5,0.4,0.5,0.8C59,261.7,58.7,261.9,58.4,261.9z M95.2,261.6c-0.2,0-0.5-0.1-0.6-0.4s0-0.7,0.3-0.8l0,0l0,0l0,0l0,0
				c0.6-0.3,1.2-0.7,1.9-1.4c0.3-0.2,0.7-0.2,0.9,0c0.2,0.3,0.2,0.7,0,0.9c-0.8,0.7-1.5,1.2-2.2,1.6l0,0
				C95.3,261.6,95.2,261.6,95.2,261.6z M95.1,260.9L95.1,260.9L95.1,260.9z M53.6,260.6c-0.1,0-0.1,0-0.2,0
				c-0.8-0.3-1.6-0.5-2.4-0.8c-0.3-0.1-0.5-0.5-0.4-0.8s0.5-0.5,0.8-0.4c0.8,0.3,1.6,0.6,2.4,0.8c0.3,0.1,0.5,0.5,0.4,0.8
				C54.1,260.4,53.8,260.6,53.6,260.6z M48.9,258.8c-0.1,0-0.2,0-0.2,0c-0.8-0.3-1.6-0.7-2.3-1c-0.3-0.1-0.5-0.5-0.3-0.8
				c0.1-0.3,0.5-0.5,0.8-0.3c0.8,0.3,1.5,0.7,2.3,1c0.3,0.1,0.5,0.5,0.3,0.8C49.3,258.7,49.1,258.8,48.9,258.8z M98.9,258.3
				c-0.1,0-0.3-0.1-0.4-0.2c-0.3-0.2-0.3-0.6-0.1-0.9c0.5-0.6,1-1.2,1.6-1.9c0.2-0.3,0.6-0.3,0.9-0.1s0.3,0.6,0.1,0.9
				c-0.6,0.7-1.1,1.4-1.6,2C99.3,258.3,99.1,258.3,98.9,258.3z M44.3,256.7c-0.1,0-0.2,0-0.3-0.1c-0.7-0.4-1.5-0.8-2.2-1.2
				c-0.3-0.2-0.4-0.6-0.2-0.9c0.2-0.3,0.6-0.4,0.9-0.2c0.7,0.4,1.5,0.8,2.2,1.2c0.3,0.2,0.4,0.5,0.3,0.8
				C44.7,256.6,44.5,256.7,44.3,256.7z M102,254.3c-0.1,0-0.2,0-0.4-0.1c-0.3-0.2-0.4-0.6-0.2-0.9c0.5-0.6,0.9-1.3,1.4-2.1
				c0.2-0.3,0.6-0.4,0.9-0.2s0.4,0.6,0.2,0.9c-0.5,0.7-1,1.4-1.4,2.1C102.4,254.3,102.2,254.3,102,254.3z M39.9,254.3
				c-0.1,0-0.2,0-0.3-0.1c-0.7-0.4-1.4-0.9-2.2-1.3c-0.3-0.2-0.4-0.6-0.2-0.9c0.2-0.3,0.6-0.4,0.9-0.2c0.7,0.4,1.4,0.9,2.1,1.3
				c0.3,0.2,0.4,0.6,0.2,0.9C40.3,254.2,40.1,254.3,39.9,254.3z M35.6,251.6c-0.1,0-0.2,0-0.4-0.1c-0.7-0.5-1.4-1-2.1-1.5
				c-0.3-0.2-0.3-0.6-0.1-0.9c0.2-0.3,0.6-0.3,0.9-0.1c0.7,0.5,1.4,1,2,1.4c0.3,0.2,0.4,0.6,0.2,0.9C36,251.5,35.8,251.6,35.6,251.6
				z M104.7,250.1c-0.1,0-0.2,0-0.3-0.1c-0.3-0.2-0.4-0.6-0.2-0.9c0.4-0.7,0.9-1.4,1.3-2.1c0.2-0.3,0.6-0.4,0.9-0.2s0.4,0.6,0.2,0.9
				c-0.4,0.7-0.9,1.5-1.3,2.2C105.2,250,105,250.1,104.7,250.1z M31.6,248.6c-0.1,0-0.3,0-0.4-0.1c-0.7-0.5-1.3-1-2-1.6
				c-0.3-0.2-0.3-0.6-0.1-0.9c0.2-0.3,0.6-0.3,0.9-0.1c0.6,0.5,1.3,1,2,1.6c0.3,0.2,0.3,0.6,0.1,0.9C32,248.5,31.8,248.6,31.6,248.6
				z M107.3,245.8c-0.1,0-0.2,0-0.3-0.1c-0.3-0.2-0.4-0.6-0.2-0.9c0.4-0.7,0.8-1.4,1.2-2.2c0.2-0.3,0.6-0.4,0.9-0.2s0.4,0.6,0.2,0.9
				c-0.4,0.7-0.8,1.5-1.2,2.2C107.7,245.7,107.5,245.8,107.3,245.8z M27.7,245.4c-0.1,0-0.3-0.1-0.4-0.2c-0.6-0.5-1.3-1.1-1.9-1.7
				c-0.3-0.2-0.3-0.6,0-0.9c0.2-0.3,0.6-0.3,0.9,0c0.6,0.6,1.2,1.1,1.9,1.7c0.3,0.2,0.3,0.6,0.1,0.9C28,245.4,27.9,245.4,27.7,245.4
				z M24,242.1c-0.2,0-0.3-0.1-0.4-0.2c-0.6-0.6-1.2-1.2-1.8-1.8c-0.2-0.2-0.2-0.6,0-0.9c0.2-0.2,0.6-0.2,0.9,0
				c0.6,0.6,1.2,1.2,1.8,1.8c0.3,0.2,0.3,0.6,0,0.9C24.3,242,24.1,242.1,24,242.1z M109.8,241.4c-0.1,0-0.2,0-0.3-0.1
				c-0.3-0.2-0.4-0.5-0.3-0.9c0.4-0.7,0.8-1.5,1.2-2.2c0.2-0.3,0.5-0.4,0.8-0.3c0.3,0.2,0.4,0.5,0.3,0.8c-0.4,0.7-0.8,1.5-1.2,2.2
				C110.2,241.3,110,241.4,109.8,241.4z M20.4,238.5c-0.2,0-0.3-0.1-0.5-0.2c-0.6-0.6-1.2-1.2-1.7-1.9c-0.2-0.3-0.2-0.7,0.1-0.9
				c0.3-0.2,0.7-0.2,0.9,0.1c0.5,0.6,1.1,1.2,1.7,1.8c0.2,0.3,0.2,0.7,0,0.9C20.7,238.4,20.6,238.5,20.4,238.5z M112.1,236.9
				c-0.1,0-0.2,0-0.3-0.1c-0.3-0.2-0.4-0.5-0.3-0.8c0.6-1.2,1-2,1.1-2.3c0.2-0.3,0.5-0.4,0.8-0.3c0.3,0.2,0.4,0.5,0.3,0.8
				c-0.1,0.2-0.5,1.1-1.1,2.3C112.5,236.8,112.3,236.9,112.1,236.9z M17.1,234.7c-0.2,0-0.4-0.1-0.5-0.2c-1-1.2-1.6-2-1.6-2
				c-0.2-0.3-0.1-0.7,0.1-0.9c0.3-0.2,0.7-0.1,0.9,0.1c0,0,0.5,0.7,1.6,1.9c0.2,0.3,0.2,0.7-0.1,0.9
				C17.3,234.7,17.2,234.7,17.1,234.7z"/>
		</g>
		<g>
			<path class="st2" d="M149,303.6c-0.1,0-0.3,0-0.4-0.1c-0.3-0.2-0.3-0.6-0.1-0.9l0.5-0.7c0.2-0.3,0.6-0.3,0.9-0.1
				c0.3,0.2,0.3,0.6,0.1,0.9l-0.5,0.7C149.4,303.5,149.2,303.6,149,303.6z M151,300.9c-0.1,0-0.3,0-0.4-0.1
				c-0.3-0.2-0.3-0.6-0.1-0.9l1.5-2c0.2-0.3,0.6-0.3,0.9-0.1c0.3,0.2,0.3,0.6,0.1,0.9l-1.5,2C151.4,300.8,151.2,300.9,151,300.9z
				 M153.9,296.8c-0.1,0-0.3,0-0.4-0.1c-0.3-0.2-0.3-0.6-0.1-0.9l1.5-2c0.2-0.3,0.6-0.3,0.9-0.1c0.3,0.2,0.3,0.6,0.1,0.9l-1.5,2
				C154.3,296.7,154.1,296.8,153.9,296.8z M156.8,292.7c-0.1,0-0.3,0-0.4-0.1c-0.3-0.2-0.3-0.6-0.1-0.9l1.5-2
				c0.2-0.3,0.6-0.3,0.9-0.1c0.3,0.2,0.3,0.6,0.1,0.9l-1.5,2C157.2,292.6,157,292.7,156.8,292.7z M159.7,288.6c-0.1,0-0.3,0-0.4-0.1
				c-0.3-0.2-0.3-0.6-0.1-0.9l1.5-2c0.2-0.3,0.6-0.3,0.9-0.1c0.3,0.2,0.3,0.6,0.1,0.9l-1.5,2C160.1,288.5,159.9,288.6,159.7,288.6z
				 M162.7,284.5c-0.1,0-0.3,0-0.4-0.1c-0.3-0.2-0.3-0.6-0.1-0.9l1.5-2c0.2-0.3,0.6-0.3,0.9-0.1c0.3,0.2,0.3,0.6,0.1,0.9l-1.5,2
				C163,284.4,162.9,284.5,162.7,284.5z M165.6,280.4c-0.1,0-0.3,0-0.4-0.1c-0.3-0.2-0.3-0.6-0.1-0.9l1.5-2c0.2-0.3,0.6-0.3,0.9-0.1
				c0.3,0.2,0.3,0.6,0.1,0.9l-1.5,2C166,280.3,165.8,280.4,165.6,280.4z M168.5,276.3c-0.1,0-0.3,0-0.4-0.1
				c-0.3-0.2-0.3-0.6-0.1-0.9l1.5-2c0.2-0.3,0.6-0.3,0.9-0.1c0.3,0.2,0.3,0.6,0.1,0.9l-1.5,2C168.9,276.2,168.7,276.3,168.5,276.3z
				 M171.4,272.2c-0.1,0-0.3,0-0.4-0.1c-0.3-0.2-0.3-0.6-0.1-0.9l1.5-2c0.2-0.3,0.6-0.3,0.9-0.1c0.3,0.2,0.3,0.6,0.1,0.9l-1.5,2
				C171.8,272.1,171.6,272.2,171.4,272.2z M174.3,268.1c-0.1,0-0.3,0-0.4-0.1c-0.3-0.2-0.3-0.6-0.1-0.9l1.5-2
				c0.2-0.3,0.6-0.3,0.9-0.1c0.3,0.2,0.3,0.6,0.1,0.9l-1.5,2C174.7,268,174.5,268.1,174.3,268.1z M177.3,264c-0.1,0-0.3,0-0.4-0.1
				c-0.3-0.2-0.3-0.6-0.1-0.9l1.5-2c0.2-0.3,0.6-0.3,0.9-0.1c0.3,0.2,0.3,0.6,0.1,0.9l-1.5,2C177.6,263.9,177.4,264,177.3,264z
				 M180.2,259.9c-0.1,0-0.3,0-0.4-0.1c-0.3-0.2-0.3-0.6-0.1-0.9l1.5-2c0.2-0.3,0.6-0.3,0.9-0.1c0.3,0.2,0.3,0.6,0.1,0.9l-1.5,2
				C180.6,259.8,180.4,259.9,180.2,259.9z M183.1,255.8c-0.1,0-0.3,0-0.4-0.1c-0.3-0.2-0.3-0.6-0.1-0.9l1.5-2
				c0.2-0.3,0.6-0.3,0.9-0.1c0.3,0.2,0.3,0.6,0.1,0.9l-1.5,2C183.5,255.7,183.3,255.8,183.1,255.8z M186,251.7c-0.1,0-0.3,0-0.4-0.1
				c-0.3-0.2-0.3-0.6-0.1-0.9l1.5-2c0.2-0.3,0.6-0.3,0.9-0.1c0.3,0.2,0.3,0.6,0.1,0.9l-1.5,2C186.4,251.6,186.2,251.7,186,251.7z
				 M188.9,247.6c-0.1,0-0.3,0-0.4-0.1c-0.3-0.2-0.3-0.6-0.1-0.9l1.5-2c0.2-0.3,0.6-0.3,0.9-0.1c0.3,0.2,0.3,0.6,0.1,0.9l-1.5,2
				C189.3,247.5,189.1,247.6,188.9,247.6z M191.9,243.5c-0.1,0-0.3,0-0.4-0.1c-0.3-0.2-0.3-0.6-0.1-0.9l1.5-2
				c0.2-0.3,0.6-0.3,0.9-0.1c0.3,0.2,0.3,0.6,0.1,0.9l-1.5,2C192.2,243.4,192,243.5,191.9,243.5z M194.8,239.4c-0.1,0-0.3,0-0.4-0.1
				c-0.3-0.2-0.3-0.6-0.1-0.9l1.5-2c0.2-0.3,0.6-0.3,0.9-0.1c0.3,0.2,0.3,0.6,0.1,0.9l-1.5,2C195.2,239.3,195,239.4,194.8,239.4z
				 M197.7,235.3c-0.1,0-0.3,0-0.4-0.1c-0.3-0.2-0.3-0.6-0.1-0.9l1.5-2c0.2-0.3,0.6-0.3,0.9-0.1c0.3,0.2,0.3,0.6,0.1,0.9l-1.5,2
				C198.1,235.3,197.9,235.3,197.7,235.3z M200.6,231.3c-0.1,0-0.3,0-0.4-0.1c-0.3-0.2-0.3-0.6-0.1-0.9l1.5-2
				c0.2-0.3,0.6-0.3,0.9-0.1c0.3,0.2,0.3,0.6,0.1,0.9l-1.5,2C201,231.2,200.8,231.3,200.6,231.3z"/>
		</g>
		<g>
			<path class="st2" d="M173.4,302.6c-0.1,0-0.3,0-0.4-0.1c-0.3-0.2-0.3-0.6-0.1-0.9l1.5-2c0.2-0.3,0.6-0.3,0.9-0.1
				c0.3,0.2,0.3,0.6,0.1,0.9l-1.5,2C173.8,302.5,173.6,302.6,173.4,302.6z M176.3,298.5c-0.1,0-0.3,0-0.4-0.1
				c-0.3-0.2-0.3-0.6-0.1-0.9l1.5-2c0.2-0.3,0.6-0.3,0.9-0.1c0.3,0.2,0.3,0.6,0.1,0.9l-1.5,2C176.7,298.4,176.5,298.5,176.3,298.5z
				 M179.2,294.4c-0.1,0-0.3,0-0.4-0.1c-0.3-0.2-0.3-0.6-0.1-0.9l1.5-2c0.2-0.3,0.6-0.3,0.9-0.1c0.3,0.2,0.3,0.6,0.1,0.9l-1.5,2
				C179.6,294.3,179.4,294.4,179.2,294.4z M182.1,290.3c-0.1,0-0.3,0-0.4-0.1c-0.3-0.2-0.3-0.6-0.1-0.9l1.5-2
				c0.2-0.3,0.6-0.3,0.9-0.1c0.3,0.2,0.3,0.6,0.1,0.9l-1.5,2C182.5,290.2,182.3,290.3,182.1,290.3z M185,286.2c-0.1,0-0.3,0-0.4-0.1
				c-0.3-0.2-0.3-0.6-0.1-0.9l1.5-2c0.2-0.3,0.6-0.3,0.9-0.1c0.3,0.2,0.3,0.6,0.1,0.9l-1.5,2C185.4,286.1,185.2,286.2,185,286.2z
				 M188,282.1c-0.1,0-0.3,0-0.4-0.1c-0.3-0.2-0.3-0.6-0.1-0.9l1.5-2c0.2-0.3,0.6-0.3,0.9-0.1c0.3,0.2,0.3,0.6,0.1,0.9l-1.5,2
				C188.4,282,188.2,282.1,188,282.1z M190.9,278c-0.1,0-0.3,0-0.4-0.1c-0.3-0.2-0.3-0.6-0.1-0.9l1.5-2c0.2-0.3,0.6-0.3,0.9-0.1
				c0.3,0.2,0.3,0.6,0.1,0.9l-1.5,2C191.3,277.9,191.1,278,190.9,278z M193.8,273.9c-0.1,0-0.3,0-0.4-0.1c-0.3-0.2-0.3-0.6-0.1-0.9
				l1.5-2c0.2-0.3,0.6-0.3,0.9-0.1c0.3,0.2,0.3,0.6,0.1,0.9l-1.5,2C194.2,273.8,194,273.9,193.8,273.9z M196.7,269.8
				c-0.1,0-0.3,0-0.4-0.1c-0.3-0.2-0.3-0.6-0.1-0.9l1.5-2c0.2-0.3,0.6-0.3,0.9-0.1c0.3,0.2,0.3,0.6,0.1,0.9l-1.5,2
				C197.1,269.7,196.9,269.8,196.7,269.8z M199.6,265.7c-0.1,0-0.3,0-0.4-0.1c-0.3-0.2-0.3-0.6-0.1-0.9l1.5-2
				c0.2-0.3,0.6-0.3,0.9-0.1c0.3,0.2,0.3,0.6,0.1,0.9l-1.5,2C200,265.6,199.8,265.7,199.6,265.7z M202.6,261.6c-0.1,0-0.3,0-0.4-0.1
				c-0.3-0.2-0.3-0.6-0.1-0.9l1.5-2c0.2-0.3,0.6-0.3,0.9-0.1c0.3,0.2,0.3,0.6,0.1,0.9l-1.5,2C203,261.5,202.8,261.6,202.6,261.6z
				 M205.5,257.5c-0.1,0-0.3,0-0.4-0.1c-0.3-0.2-0.3-0.6-0.1-0.9l1.5-2c0.2-0.3,0.6-0.3,0.9-0.1c0.3,0.2,0.3,0.6,0.1,0.9l-1.5,2
				C205.9,257.4,205.7,257.5,205.5,257.5z M208.4,253.4c-0.1,0-0.3,0-0.4-0.1c-0.3-0.2-0.3-0.6-0.1-0.9l1.5-2
				c0.2-0.3,0.6-0.3,0.9-0.1c0.3,0.2,0.3,0.6,0.1,0.9l-1.5,2C208.8,253.3,208.6,253.4,208.4,253.4z M211.3,249.3
				c-0.1,0-0.3,0-0.4-0.1c-0.3-0.2-0.3-0.6-0.1-0.9l1.5-2c0.2-0.3,0.6-0.3,0.9-0.1c0.3,0.2,0.3,0.6,0.1,0.9l-1.5,2
				C211.7,249.3,211.5,249.3,211.3,249.3z M214.2,245.2c-0.1,0-0.3,0-0.4-0.1c-0.3-0.2-0.3-0.6-0.1-0.9l1.5-2
				c0.2-0.3,0.6-0.3,0.9-0.1c0.3,0.2,0.3,0.6,0.1,0.9l-1.5,2C214.6,245.2,214.4,245.2,214.2,245.2z"/>
		</g>
		<g>
			<path class="st2" d="M205.9,304c-0.1,0-0.3,0-0.4-0.1c-0.3-0.2-0.3-0.6-0.1-0.9l1.5-2c0.2-0.3,0.6-0.3,0.9-0.1
				c0.3,0.2,0.3,0.6,0.1,0.9l-1.5,2C206.2,303.9,206.1,304,205.9,304z M208.8,299.9c-0.1,0-0.3,0-0.4-0.1c-0.3-0.2-0.3-0.6-0.1-0.9
				l1.5-2c0.2-0.3,0.6-0.3,0.9-0.1c0.3,0.2,0.3,0.6,0.1,0.9l-1.5,2C209.2,299.8,209,299.9,208.8,299.9z M211.7,295.8
				c-0.1,0-0.3,0-0.4-0.1c-0.3-0.2-0.3-0.6-0.1-0.9l1.5-2c0.2-0.3,0.6-0.3,0.9-0.1c0.3,0.2,0.3,0.6,0.1,0.9l-1.5,2
				C212.1,295.7,211.9,295.8,211.7,295.8z M214.6,291.7c-0.1,0-0.3,0-0.4-0.1c-0.3-0.2-0.3-0.6-0.1-0.9l1.5-2
				c0.2-0.3,0.6-0.3,0.9-0.1c0.3,0.2,0.3,0.6,0.1,0.9l-1.5,2C215,291.6,214.8,291.7,214.6,291.7z M217.5,287.6c-0.1,0-0.3,0-0.4-0.1
				c-0.3-0.2-0.3-0.6-0.1-0.9l1.5-2c0.2-0.3,0.6-0.3,0.9-0.1c0.3,0.2,0.3,0.6,0.1,0.9l-1.5,2C217.9,287.5,217.7,287.6,217.5,287.6z
				 M220.5,283.5c-0.1,0-0.3,0-0.4-0.1c-0.3-0.2-0.3-0.6-0.1-0.9l1.5-2c0.2-0.3,0.6-0.3,0.9-0.1c0.3,0.2,0.3,0.6,0.1,0.9l-1.5,2
				C220.8,283.4,220.7,283.5,220.5,283.5z M223.4,279.4c-0.1,0-0.3,0-0.4-0.1c-0.3-0.2-0.3-0.6-0.1-0.9l1.5-2
				c0.2-0.3,0.6-0.3,0.9-0.1c0.3,0.2,0.3,0.6,0.1,0.9l-1.5,2C223.8,279.4,223.6,279.4,223.4,279.4z M226.3,275.3
				c-0.1,0-0.3,0-0.4-0.1c-0.3-0.2-0.3-0.6-0.1-0.9l1.5-2c0.2-0.3,0.6-0.3,0.9-0.1c0.3,0.2,0.3,0.6,0.1,0.9l-1.5,2
				C226.7,275.3,226.5,275.3,226.3,275.3z M229.2,271.3c-0.1,0-0.3,0-0.4-0.1c-0.3-0.2-0.3-0.6-0.1-0.9l1.5-2
				c0.2-0.3,0.6-0.3,0.9-0.1c0.3,0.2,0.3,0.6,0.1,0.9l-1.5,2C229.6,271.2,229.4,271.3,229.2,271.3z M232.1,267.2
				c-0.1,0-0.3,0-0.4-0.1c-0.3-0.2-0.3-0.6-0.1-0.9l1.5-2c0.2-0.3,0.6-0.3,0.9-0.1c0.3,0.2,0.3,0.6,0.1,0.9l-1.5,2
				C232.5,267.1,232.3,267.2,232.1,267.2z M235.1,263.1c-0.1,0-0.3,0-0.4-0.1c-0.3-0.2-0.3-0.6-0.1-0.9l1.5-2
				c0.2-0.3,0.6-0.3,0.9-0.1c0.3,0.2,0.3,0.6,0.1,0.9l-1.5,2C235.4,263,235.3,263.1,235.1,263.1z M238,259c-0.1,0-0.3,0-0.4-0.1
				c-0.3-0.2-0.3-0.6-0.1-0.9l1.5-2c0.2-0.3,0.6-0.3,0.9-0.1c0.3,0.2,0.3,0.6,0.1,0.9l-1.5,2C238.4,258.9,238.2,259,238,259z
				 M240.9,254.9c-0.1,0-0.3,0-0.4-0.1c-0.3-0.2-0.3-0.6-0.1-0.9l1.5-2c0.2-0.3,0.6-0.3,0.9-0.1c0.3,0.2,0.3,0.6,0.1,0.9l-1.5,2
				C241.3,254.8,241.1,254.9,240.9,254.9z M243.8,250.8c-0.1,0-0.3,0-0.4-0.1c-0.3-0.2-0.3-0.6-0.1-0.9l1.5-2
				c0.2-0.3,0.6-0.3,0.9-0.1c0.3,0.2,0.3,0.6,0.1,0.9l-1.5,2C244.2,250.7,244,250.8,243.8,250.8z M246.7,246.7c-0.1,0-0.3,0-0.4-0.1
				c-0.3-0.2-0.3-0.6-0.1-0.9l1.5-2c0.2-0.3,0.6-0.3,0.9-0.1c0.3,0.2,0.3,0.6,0.1,0.9l-1.5,2C247.1,246.6,246.9,246.7,246.7,246.7z
				 M249.7,242.6c-0.1,0-0.3,0-0.4-0.1c-0.3-0.2-0.3-0.6-0.1-0.9l1.5-2c0.2-0.3,0.6-0.3,0.9-0.1c0.3,0.2,0.3,0.6,0.1,0.9l-1.5,2
				C250,242.5,249.8,242.6,249.7,242.6z"/>
		</g>
		<g>
			<path class="st2" d="M228.4,305.5c-0.1,0-0.3,0-0.4-0.1c-0.3-0.2-0.3-0.6-0.1-0.9l1.5-2c0.2-0.3,0.6-0.3,0.9-0.1
				c0.3,0.2,0.3,0.6,0.1,0.9l-1.5,2C228.8,305.4,228.6,305.5,228.4,305.5z M231.3,301.4c-0.1,0-0.3,0-0.4-0.1
				c-0.3-0.2-0.3-0.6-0.1-0.9l1.5-2c0.2-0.3,0.6-0.3,0.9-0.1c0.3,0.2,0.3,0.6,0.1,0.9l-1.5,2C231.7,301.3,231.5,301.4,231.3,301.4z
				 M234.2,297.3c-0.1,0-0.3,0-0.4-0.1c-0.3-0.2-0.3-0.6-0.1-0.9l1.5-2c0.2-0.3,0.6-0.3,0.9-0.1c0.3,0.2,0.3,0.6,0.1,0.9l-1.5,2
				C234.6,297.2,234.4,297.3,234.2,297.3z M237.2,293.2c-0.1,0-0.3,0-0.4-0.1c-0.3-0.2-0.3-0.6-0.1-0.9l1.5-2
				c0.2-0.3,0.6-0.3,0.9-0.1c0.3,0.2,0.3,0.6,0.1,0.9l-1.5,2C237.5,293.1,237.4,293.2,237.2,293.2z M240.1,289.1
				c-0.1,0-0.3,0-0.4-0.1c-0.3-0.2-0.3-0.6-0.1-0.9l1.5-2c0.2-0.3,0.6-0.3,0.9-0.1c0.3,0.2,0.3,0.6,0.1,0.9l-1.5,2
				C240.5,289,240.3,289.1,240.1,289.1z M243,285c-0.1,0-0.3,0-0.4-0.1c-0.3-0.2-0.3-0.6-0.1-0.9l1.5-2c0.2-0.3,0.6-0.3,0.9-0.1
				c0.3,0.2,0.3,0.6,0.1,0.9l-1.5,2C243.4,285,243.2,285,243,285z M245.9,280.9c-0.1,0-0.3,0-0.4-0.1c-0.3-0.2-0.3-0.6-0.1-0.9
				l1.5-2c0.2-0.3,0.6-0.3,0.9-0.1c0.3,0.2,0.3,0.6,0.1,0.9l-1.5,2C246.3,280.9,246.1,280.9,245.9,280.9z M248.8,276.9
				c-0.1,0-0.3,0-0.4-0.1c-0.3-0.2-0.3-0.6-0.1-0.9l1.5-2c0.2-0.3,0.6-0.3,0.9-0.1c0.3,0.2,0.3,0.6,0.1,0.9l-1.5,2
				C249.2,276.8,249,276.9,248.8,276.9z M251.8,272.8c-0.1,0-0.3,0-0.4-0.1c-0.3-0.2-0.3-0.6-0.1-0.9l1.5-2c0.2-0.3,0.6-0.3,0.9-0.1
				c0.3,0.2,0.3,0.6,0.1,0.9l-1.5,2C252.1,272.7,252,272.8,251.8,272.8z M254.7,268.7c-0.1,0-0.3,0-0.4-0.1
				c-0.3-0.2-0.3-0.6-0.1-0.9l1.5-2c0.2-0.3,0.6-0.3,0.9-0.1c0.3,0.2,0.3,0.6,0.1,0.9l-1.5,2C255.1,268.6,254.9,268.7,254.7,268.7z
				 M257.6,264.6c-0.1,0-0.3,0-0.4-0.1c-0.3-0.2-0.3-0.6-0.1-0.9l1.5-2c0.2-0.3,0.6-0.3,0.9-0.1c0.3,0.2,0.3,0.6,0.1,0.9l-1.5,2
				C258,264.5,257.8,264.6,257.6,264.6z M260.5,260.5c-0.1,0-0.3,0-0.4-0.1c-0.3-0.2-0.3-0.6-0.1-0.9l1.5-2c0.2-0.3,0.6-0.3,0.9-0.1
				c0.3,0.2,0.3,0.6,0.1,0.9l-1.5,2C260.9,260.4,260.7,260.5,260.5,260.5z M263.4,256.4c-0.1,0-0.3,0-0.4-0.1
				c-0.3-0.2-0.3-0.6-0.1-0.9l1.5-2c0.2-0.3,0.6-0.3,0.9-0.1s0.3,0.6,0.1,0.9l-1.5,2C263.8,256.3,263.6,256.4,263.4,256.4z
				 M266.4,252.3c-0.1,0-0.3,0-0.4-0.1c-0.3-0.2-0.3-0.6-0.1-0.9l1.5-2c0.2-0.3,0.6-0.3,0.9-0.1s0.3,0.6,0.1,0.9l-1.5,2
				C266.7,252.2,266.6,252.3,266.4,252.3z M269.3,248.2c-0.1,0-0.3,0-0.4-0.1c-0.3-0.2-0.3-0.6-0.1-0.9l1.5-2
				c0.2-0.3,0.6-0.3,0.9-0.1s0.3,0.6,0.1,0.9l-1.5,2C269.7,248.1,269.5,248.2,269.3,248.2z M272.2,244.1c-0.1,0-0.3,0-0.4-0.1
				c-0.3-0.2-0.3-0.6-0.1-0.9l1.5-2c0.2-0.3,0.6-0.3,0.9-0.1s0.3,0.6,0.1,0.9l-1.5,2C272.6,244,272.4,244.1,272.2,244.1z"/>
		</g>
		<g>
			<path class="st2" d="M258.7,308.9c-0.1,0-0.3,0-0.4-0.1c-0.3-0.2-0.3-0.6-0.1-0.9l1.5-2c0.2-0.3,0.6-0.3,0.9-0.1
				c0.3,0.2,0.3,0.6,0.1,0.9l-1.5,2C259.1,308.8,258.9,308.9,258.7,308.9z M261.6,304.8c-0.1,0-0.3,0-0.4-0.1
				c-0.3-0.2-0.3-0.6-0.1-0.9l1.5-2c0.2-0.3,0.6-0.3,0.9-0.1c0.3,0.2,0.3,0.6,0.1,0.9l-1.5,2C262,304.7,261.8,304.8,261.6,304.8z
				 M264.5,300.7c-0.1,0-0.3,0-0.4-0.1c-0.3-0.2-0.3-0.6-0.1-0.9l1.5-2c0.2-0.3,0.6-0.3,0.9-0.1c0.3,0.2,0.3,0.6,0.1,0.9l-1.5,2
				C264.9,300.6,264.7,300.7,264.5,300.7z M267.4,296.6c-0.1,0-0.3,0-0.4-0.1c-0.3-0.2-0.3-0.6-0.1-0.9l1.5-2
				c0.2-0.3,0.6-0.3,0.9-0.1c0.3,0.2,0.3,0.6,0.1,0.9l-1.5,2C267.8,296.5,267.6,296.6,267.4,296.6z M270.3,292.5
				c-0.1,0-0.3,0-0.4-0.1c-0.3-0.2-0.3-0.6-0.1-0.9l1.5-2c0.2-0.3,0.6-0.3,0.9-0.1c0.3,0.2,0.3,0.6,0.1,0.9l-1.5,2
				C270.7,292.4,270.5,292.5,270.3,292.5z M273.3,288.4c-0.1,0-0.3,0-0.4-0.1c-0.3-0.2-0.3-0.6-0.1-0.9l1.5-2
				c0.2-0.3,0.6-0.3,0.9-0.1c0.3,0.2,0.3,0.6,0.1,0.9l-1.5,2C273.7,288.4,273.5,288.4,273.3,288.4z M276.2,284.3
				c-0.1,0-0.3,0-0.4-0.1c-0.3-0.2-0.3-0.6-0.1-0.9l1.5-2c0.2-0.3,0.6-0.3,0.9-0.1c0.3,0.2,0.3,0.6,0.1,0.9l-1.5,2
				C276.6,284.3,276.4,284.3,276.2,284.3z M279.1,280.3c-0.1,0-0.3,0-0.4-0.1c-0.3-0.2-0.3-0.6-0.1-0.9l1.5-2
				c0.2-0.3,0.6-0.3,0.9-0.1c0.3,0.2,0.3,0.6,0.1,0.9l-1.5,2C279.5,280.2,279.3,280.3,279.1,280.3z M282,276.2c-0.1,0-0.3,0-0.4-0.1
				c-0.3-0.2-0.3-0.6-0.1-0.9l1.5-2c0.2-0.3,0.6-0.3,0.9-0.1c0.3,0.2,0.3,0.6,0.1,0.9l-1.5,2C282.4,276.1,282.2,276.2,282,276.2z
				 M284.9,272.1c-0.1,0-0.3,0-0.4-0.1c-0.3-0.2-0.3-0.6-0.1-0.9l1.5-2c0.2-0.3,0.6-0.3,0.9-0.1c0.3,0.2,0.3,0.6,0.1,0.9l-1.5,2
				C285.3,272,285.1,272.1,284.9,272.1z M287.9,268c-0.1,0-0.3,0-0.4-0.1c-0.3-0.2-0.3-0.6-0.1-0.9l1.5-2c0.2-0.3,0.6-0.3,0.9-0.1
				c0.3,0.2,0.3,0.6,0.1,0.9l-1.5,2C288.2,267.9,288.1,268,287.9,268z M290.8,263.9c-0.1,0-0.3,0-0.4-0.1c-0.3-0.2-0.3-0.6-0.1-0.9
				l1.5-2c0.2-0.3,0.6-0.3,0.9-0.1c0.3,0.2,0.3,0.6,0.1,0.9l-1.5,2C291.2,263.8,291,263.9,290.8,263.9z M293.7,259.8
				c-0.1,0-0.3,0-0.4-0.1c-0.3-0.2-0.3-0.6-0.1-0.9l1.5-2c0.2-0.3,0.6-0.3,0.9-0.1c0.3,0.2,0.3,0.6,0.1,0.9l-1.5,2
				C294.1,259.7,293.9,259.8,293.7,259.8z M296.6,255.7c-0.1,0-0.3,0-0.4-0.1c-0.3-0.2-0.3-0.6-0.1-0.9l1.5-2
				c0.2-0.3,0.6-0.3,0.9-0.1s0.3,0.6,0.1,0.9l-1.5,2C297,255.6,296.8,255.7,296.6,255.7z M299.5,251.6c-0.1,0-0.3,0-0.4-0.1
				c-0.3-0.2-0.3-0.6-0.1-0.9l1.5-2c0.2-0.3,0.6-0.3,0.9-0.1s0.3,0.6,0.1,0.9l-1.5,2C299.9,251.5,299.7,251.6,299.5,251.6z"/>
		</g>
		<g>
			<path class="st2" d="M280.8,311c-0.1,0-0.3,0-0.4-0.1c-0.3-0.2-0.3-0.6-0.1-0.9l1.5-2c0.2-0.3,0.6-0.3,0.9-0.1
				c0.3,0.2,0.3,0.6,0.1,0.9l-1.5,2C281.2,310.9,281,311,280.8,311z M283.7,306.9c-0.1,0-0.3,0-0.4-0.1c-0.3-0.2-0.3-0.6-0.1-0.9
				l1.5-2c0.2-0.3,0.6-0.3,0.9-0.1c0.3,0.2,0.3,0.6,0.1,0.9l-1.5,2C284.1,306.8,283.9,306.9,283.7,306.9z M286.6,302.8
				c-0.1,0-0.3,0-0.4-0.1c-0.3-0.2-0.3-0.6-0.1-0.9l1.5-2c0.2-0.3,0.6-0.3,0.9-0.1c0.3,0.2,0.3,0.6,0.1,0.9l-1.5,2
				C287,302.7,286.8,302.8,286.6,302.8z M289.6,298.7c-0.1,0-0.3,0-0.4-0.1c-0.3-0.2-0.3-0.6-0.1-0.9l1.5-2c0.2-0.3,0.6-0.3,0.9-0.1
				c0.3,0.2,0.3,0.6,0.1,0.9l-1.5,2C290,298.6,289.8,298.7,289.6,298.7z M292.5,294.6c-0.1,0-0.3,0-0.4-0.1
				c-0.3-0.2-0.3-0.6-0.1-0.9l1.5-2c0.2-0.3,0.6-0.3,0.9-0.1c0.3,0.2,0.3,0.6,0.1,0.9l-1.5,2C292.9,294.5,292.7,294.6,292.5,294.6z
				 M295.4,290.5c-0.1,0-0.3,0-0.4-0.1c-0.3-0.2-0.3-0.6-0.1-0.9l1.5-2c0.2-0.3,0.6-0.3,0.9-0.1c0.3,0.2,0.3,0.6,0.1,0.9l-1.5,2
				C295.8,290.4,295.6,290.5,295.4,290.5z M298.3,286.4c-0.1,0-0.3,0-0.4-0.1c-0.3-0.2-0.3-0.6-0.1-0.9l1.5-2
				c0.2-0.3,0.6-0.3,0.9-0.1c0.3,0.2,0.3,0.6,0.1,0.9l-1.5,2C298.7,286.3,298.5,286.4,298.3,286.4z M301.2,282.3
				c-0.1,0-0.3,0-0.4-0.1c-0.3-0.2-0.3-0.6-0.1-0.9l1.5-2c0.2-0.3,0.6-0.3,0.9-0.1c0.3,0.2,0.3,0.6,0.1,0.9l-1.5,2
				C301.6,282.2,301.4,282.3,301.2,282.3z M304.2,278.2c-0.1,0-0.3,0-0.4-0.1c-0.3-0.2-0.3-0.6-0.1-0.9l1.5-2
				c0.2-0.3,0.6-0.3,0.9-0.1c0.3,0.2,0.3,0.6,0.1,0.9l-1.5,2C304.5,278.1,304.4,278.2,304.2,278.2z M307.1,274.1
				c-0.1,0-0.3,0-0.4-0.1c-0.3-0.2-0.3-0.6-0.1-0.9l1.5-2c0.2-0.3,0.6-0.3,0.9-0.1c0.3,0.2,0.3,0.6,0.1,0.9l-1.5,2
				C307.5,274,307.3,274.1,307.1,274.1z M310,270c-0.1,0-0.3,0-0.4-0.1c-0.3-0.2-0.3-0.6-0.1-0.9l1.5-2c0.2-0.3,0.6-0.3,0.9-0.1
				c0.3,0.2,0.3,0.6,0.1,0.9l-1.5,2C310.4,269.9,310.2,270,310,270z M312.9,265.9c-0.1,0-0.3,0-0.4-0.1c-0.3-0.2-0.3-0.6-0.1-0.9
				l1.5-2c0.2-0.3,0.6-0.3,0.9-0.1c0.3,0.2,0.3,0.6,0.1,0.9l-1.5,2C313.3,265.9,313.1,265.9,312.9,265.9z M315.8,261.8
				c-0.1,0-0.3,0-0.4-0.1c-0.3-0.2-0.3-0.6-0.1-0.9l1.5-2c0.2-0.3,0.6-0.3,0.9-0.1c0.3,0.2,0.3,0.6,0.1,0.9l-1.5,2
				C316.2,261.8,316,261.8,315.8,261.8z M318.8,257.8c-0.1,0-0.3,0-0.4-0.1c-0.3-0.2-0.3-0.6-0.1-0.9l1.5-2c0.2-0.3,0.6-0.3,0.9-0.1
				s0.3,0.6,0.1,0.9l-1.5,2C319.1,257.7,319,257.8,318.8,257.8z"/>
		</g>
		<g>
			<path class="st2" d="M312.1,314.1c-0.1,0-0.2,0-0.2-0.1c-0.3-0.1-0.5-0.5-0.3-0.8c0,0,0.4-0.9,1.2-2.3c0.2-0.3,0.6-0.4,0.9-0.2
				c0.3,0.2,0.4,0.6,0.2,0.9c-0.8,1.3-1.1,2.1-1.1,2.2C312.6,314,312.4,314.1,312.1,314.1z M314.7,309.8c-0.1,0-0.3,0-0.4-0.1
				c-0.3-0.2-0.3-0.6-0.1-0.9c0.5-0.7,1-1.4,1.6-2c0.2-0.3,0.6-0.3,0.9-0.1c0.3,0.2,0.3,0.6,0.1,0.9c-0.5,0.6-1,1.3-1.5,1.9
				C315.1,309.7,314.9,309.8,314.7,309.8z M317.9,306c-0.2,0-0.3-0.1-0.4-0.2c-0.2-0.2-0.2-0.6,0-0.9c0.6-0.6,1.3-1.2,1.9-1.7
				c0.3-0.2,0.7-0.2,0.9,0.1c0.2,0.3,0.2,0.7-0.1,0.9c-0.6,0.5-1.2,1.1-1.8,1.6C318.3,305.9,318.1,306,317.9,306z M321.8,302.8
				c-0.2,0-0.4-0.1-0.5-0.3c-0.2-0.3-0.1-0.7,0.2-0.9c0.7-0.5,1.4-0.9,2.2-1.3c0.3-0.2,0.7-0.1,0.9,0.2c0.2,0.3,0.1,0.7-0.2,0.9
				c-0.7,0.4-1.4,0.8-2.1,1.3C322.1,302.8,321.9,302.8,321.8,302.8z M326.2,300.4c-0.2,0-0.5-0.1-0.6-0.4s0-0.7,0.3-0.8
				c0.8-0.3,1.6-0.6,2.4-0.9c0.3-0.1,0.7,0.1,0.8,0.4c0.1,0.3-0.1,0.7-0.4,0.8c-0.8,0.2-1.6,0.5-2.3,0.8
				C326.4,300.4,326.3,300.4,326.2,300.4z M331,298.9c-0.3,0-0.6-0.2-0.6-0.5c-0.1-0.3,0.1-0.7,0.5-0.7c0.8-0.2,1.7-0.3,2.5-0.4
				c0.3,0,0.7,0.2,0.7,0.6c0,0.3-0.2,0.7-0.6,0.7c-0.8,0.1-1.6,0.2-2.4,0.4C331.1,298.9,331.1,298.9,331,298.9z M336,298.2
				c-0.3,0-0.6-0.2-0.6-0.6c0-0.3,0.2-0.7,0.6-0.7c0.8-0.1,1.6-0.2,2.5-0.2c0.3,0,0.7,0.2,0.7,0.6c0,0.3-0.2,0.7-0.6,0.7
				C337.7,298.1,336.9,298.2,336,298.2L336,298.2z M341,297.8c-0.3,0-0.6-0.2-0.6-0.6c0-0.3,0.2-0.6,0.6-0.7
				c0.8-0.1,1.6-0.1,2.5-0.2c0.3,0,0.6,0.2,0.7,0.6c0,0.3-0.2,0.6-0.6,0.7C342.7,297.7,341.9,297.7,341,297.8
				C341.1,297.8,341,297.8,341,297.8z M346,297.4c-0.3,0-0.6-0.3-0.6-0.6c0-0.3,0.2-0.6,0.6-0.7c0.8-0.1,1.7-0.1,2.5-0.2
				c0.3,0,0.6,0.2,0.7,0.6c0,0.3-0.2,0.6-0.6,0.7C347.7,297.3,346.9,297.3,346,297.4C346.1,297.4,346.1,297.4,346,297.4z M351.1,297
				c-0.3,0-0.6-0.3-0.6-0.6c0-0.3,0.2-0.6,0.6-0.7c0.8-0.1,1.7-0.1,2.5-0.2c0.3,0,0.6,0.2,0.7,0.6c0,0.3-0.2,0.6-0.6,0.7
				C352.8,296.9,351.9,296.9,351.1,297L351.1,297z M356.1,296.6c-0.3,0-0.6-0.3-0.6-0.6c0-0.3,0.2-0.6,0.6-0.7l2.5-0.2
				c0.3,0,0.6,0.2,0.7,0.6c0,0.3-0.2,0.6-0.6,0.7L356.1,296.6L356.1,296.6z M361.1,296.3c-0.3,0-0.6-0.3-0.6-0.6
				c0-0.3,0.2-0.6,0.6-0.7l2.5-0.2c0.3,0,0.6,0.2,0.7,0.6c0,0.3-0.2,0.6-0.6,0.7L361.1,296.3L361.1,296.3z M366.1,295.9
				c-0.3,0-0.6-0.3-0.6-0.6c0-0.3,0.2-0.6,0.6-0.7c0.8-0.1,1.7-0.1,2.5-0.2c0.3,0,0.6,0.2,0.7,0.6c0,0.3-0.2,0.6-0.6,0.7
				C367.8,295.8,367,295.8,366.1,295.9C366.2,295.9,366.1,295.9,366.1,295.9z M371.1,295.5c-0.3,0-0.6-0.3-0.6-0.6
				c0-0.3,0.2-0.6,0.6-0.7c0.8-0.1,1.7-0.1,2.5-0.2c0.3,0,0.6,0.2,0.7,0.6c0,0.3-0.2,0.6-0.6,0.7C372.9,295.4,372,295.4,371.1,295.5
				C371.2,295.5,371.2,295.5,371.1,295.5z M376.2,295.1c-0.3,0-0.6-0.2-0.6-0.6c0-0.3,0.2-0.6,0.6-0.7c0.8-0.1,1.7-0.1,2.5-0.2
				c0.3,0,0.6,0.2,0.7,0.6c0,0.3-0.2,0.6-0.6,0.7C377.9,295,377.1,295,376.2,295.1L376.2,295.1z M381.2,294.7
				c-0.3,0-0.6-0.2-0.6-0.6c0-0.3,0.2-0.6,0.6-0.7c0.8-0.1,1.7-0.1,2.5-0.2c0.3,0,0.7,0.2,0.7,0.6c0,0.3-0.2,0.7-0.6,0.7
				C382.9,294.6,382.1,294.6,381.2,294.7L381.2,294.7z M386.2,294.3c-0.3,0-0.6-0.2-0.6-0.6c0-0.3,0.2-0.7,0.6-0.7
				c0.8-0.1,1.7-0.1,2.5-0.2c0.3,0,0.7,0.2,0.7,0.6c0,0.3-0.2,0.7-0.6,0.7C387.9,294.1,387.1,294.2,386.2,294.3L386.2,294.3z
				 M391.2,293.8c-0.3,0-0.6-0.2-0.6-0.6c0-0.3,0.2-0.7,0.6-0.7c0.8-0.1,1.7-0.2,2.5-0.2c0.3,0,0.7,0.2,0.7,0.6
				c0,0.3-0.2,0.7-0.6,0.7C393,293.7,392.1,293.7,391.2,293.8C391.3,293.8,391.2,293.8,391.2,293.8z M396.2,293.3
				c-0.3,0-0.6-0.2-0.6-0.6c0-0.3,0.2-0.7,0.6-0.7c0.8-0.1,1.7-0.2,2.5-0.3c0.3,0,0.7,0.2,0.7,0.6c0,0.3-0.2,0.7-0.6,0.7
				C398,293.2,397.1,293.2,396.2,293.3C396.3,293.3,396.2,293.3,396.2,293.3z M401.2,292.8c-0.3,0-0.6-0.2-0.6-0.6
				c0-0.3,0.2-0.7,0.6-0.7c0.9-0.1,1.7-0.2,2.5-0.3c0.3,0,0.7,0.2,0.7,0.5s-0.2,0.7-0.5,0.7C403,292.6,402.2,292.7,401.2,292.8
				C401.3,292.8,401.3,292.8,401.2,292.8z M406.2,292.2c-0.3,0-0.6-0.2-0.6-0.5s0.2-0.7,0.5-0.7c0.9-0.1,1.7-0.2,2.5-0.3
				c0.3-0.1,0.7,0.2,0.7,0.5s-0.2,0.7-0.5,0.7C408,292,407.2,292.1,406.2,292.2C406.3,292.2,406.3,292.2,406.2,292.2z M411.2,291.5
				c-0.3,0-0.6-0.2-0.6-0.5c-0.1-0.3,0.2-0.7,0.5-0.7c0.8-0.1,1.7-0.3,2.5-0.4c0.3-0.1,0.7,0.2,0.7,0.5c0.1,0.3-0.2,0.7-0.5,0.7
				c-0.8,0.1-1.7,0.3-2.5,0.4C411.3,291.5,411.3,291.5,411.2,291.5z M416.2,290.6c-0.3,0-0.6-0.2-0.6-0.5c-0.1-0.3,0.2-0.7,0.5-0.7
				c0.8-0.2,1.6-0.3,2.5-0.5c0.3-0.1,0.7,0.1,0.7,0.5c0.1,0.3-0.1,0.7-0.5,0.7c-0.8,0.2-1.6,0.3-2.5,0.5
				C416.2,290.6,416.2,290.6,416.2,290.6z M421.1,289.5c-0.3,0-0.5-0.2-0.6-0.5s0.1-0.7,0.5-0.8c0.8-0.2,1.6-0.4,2.4-0.6
				c0.3-0.1,0.7,0.1,0.8,0.5c0.1,0.3-0.1,0.7-0.5,0.8C422.9,289.1,422.1,289.3,421.1,289.5C421.2,289.5,421.1,289.5,421.1,289.5z
				 M425.9,288.2c-0.3,0-0.5-0.2-0.6-0.5s0.1-0.7,0.4-0.8c0.8-0.2,1.6-0.5,2.4-0.7c0.3-0.1,0.7,0.1,0.8,0.4c0.1,0.3-0.1,0.7-0.4,0.8
				c-0.8,0.2-1.6,0.5-2.4,0.7C426.1,288.2,426,288.2,425.9,288.2z M430.7,286.7c-0.3,0-0.5-0.2-0.6-0.4c-0.1-0.3,0.1-0.7,0.4-0.8
				c0.8-0.3,1.6-0.6,2.3-0.9c0.3-0.1,0.7,0,0.8,0.4c0.1,0.3,0,0.7-0.4,0.8C432.4,286.1,431.6,286.4,430.7,286.7
				C430.9,286.7,430.8,286.7,430.7,286.7z M435.4,284.9c-0.2,0-0.5-0.1-0.6-0.4s0-0.7,0.3-0.8c0.8-0.3,1.5-0.7,2.3-1
				c0.3-0.2,0.7,0,0.8,0.3c0.2,0.3,0,0.7-0.3,0.8c-0.7,0.4-1.5,0.7-2.3,1.1C435.6,284.9,435.5,284.9,435.4,284.9z M439.9,282.7
				c-0.2,0-0.4-0.1-0.5-0.3c-0.2-0.3-0.1-0.7,0.2-0.9c0.8-0.4,1.5-0.9,2.1-1.3c0.3-0.2,0.7-0.1,0.9,0.1c0.2,0.3,0.1,0.7-0.1,0.9
				c-0.6,0.5-1.4,0.9-2.2,1.4C440.1,282.6,440,282.7,439.9,282.7z M444,279.7c-0.2,0-0.3-0.1-0.4-0.2c-0.2-0.2-0.3-0.6,0-0.9l0,0
				c0.6-0.6,1.1-1.2,1.5-1.9c0.2-0.3,0.6-0.4,0.9-0.2c0.3,0.2,0.4,0.6,0.2,0.9c-0.4,0.7-1,1.4-1.6,2.1
				C444.3,279.6,444.1,279.7,444,279.7z M446.5,275.4h-0.1c-0.3-0.1-0.5-0.4-0.5-0.8c0.1-0.5,0.2-1,0.2-1.4c0-0.3,0-0.6-0.1-0.8
				c0-0.3,0.2-0.7,0.5-0.7s0.7,0.2,0.7,0.5s0.1,0.7,0.1,1c0,0.6-0.1,1.2-0.2,1.7C447,275.2,446.8,275.4,446.5,275.4z M445.9,270.5
				c-0.2,0-0.5-0.1-0.6-0.4c-0.3-0.7-0.7-1.4-1.2-2c-0.2-0.3-0.1-0.7,0.1-0.9c0.3-0.2,0.7-0.1,0.9,0.1c0.6,0.8,1,1.5,1.4,2.3
				c0.1,0.3,0,0.7-0.3,0.8C446.1,270.5,446,270.5,445.9,270.5z M443,266.5c-0.2,0-0.3-0.1-0.4-0.2c-0.6-0.6-1.2-1.1-1.8-1.6
				c-0.3-0.2-0.3-0.6-0.1-0.9c0.2-0.3,0.6-0.3,0.9-0.1c0.7,0.6,1.3,1.1,1.9,1.7c0.2,0.2,0.2,0.6,0,0.9
				C443.3,266.4,443.1,266.5,443,266.5z"/>
		</g>
		<circle class="st2" cx="226.4" cy="221.3" r="4"/>
		<g>
			<g>
				<g>
					<line class="st6" x1="52.5" y1="305.3" x2="45.8" y2="305.3"/>
				</g>
			</g>
			<g>
				<g>
					<line class="st6" x1="59.2" y1="305.8" x2="52.5" y2="305.8"/>
				</g>
			</g>
			<g>
				<g>
					<line class="st6" x1="65.8" y1="305.8" x2="59.1" y2="305.8"/>
				</g>
			</g>
			<g>
				<g>
					<line class="st6" x1="72.5" y1="306.3" x2="65.8" y2="306.3"/>
				</g>
			</g>
			<g>
				<g>
					<line class="st6" x1="79.1" y1="306.3" x2="72.5" y2="306.3"/>
				</g>
			</g>
			<g>
				<g>
					<line class="st6" x1="158.9" y1="308.7" x2="152.2" y2="308.7"/>
				</g>
			</g>
			<g>
				<g>
					<line class="st6" x1="165.6" y1="308.7" x2="158.9" y2="308.7"/>
				</g>
			</g>
			<g>
				<g>
					<line class="st6" x1="172.3" y1="309.2" x2="165.6" y2="309.2"/>
				</g>
			</g>
			<g>
				<g>
					<line class="st6" x1="179" y1="309.2" x2="172.3" y2="309.2"/>
				</g>
			</g>
			<g>
				<g>
					<line class="st6" x1="185.7" y1="309.2" x2="179" y2="309.2"/>
				</g>
			</g>
			<g>
				<g>
					<line class="st6" x1="192.4" y1="309.8" x2="185.7" y2="309.8"/>
				</g>
			</g>
			<g>
				<g>
					<line class="st6" x1="199.1" y1="309.8" x2="192.4" y2="309.8"/>
				</g>
			</g>
			<g>
				<g>
					<line class="st6" x1="205.5" y1="310.3" x2="198.8" y2="310.3"/>
				</g>
			</g>
			<g>
				<g>
					<line class="st6" x1="212.2" y1="310.8" x2="205.5" y2="310.8"/>
				</g>
			</g>
			<g>
				<g>
					<line class="st6" x1="218.9" y1="310.8" x2="212.2" y2="310.8"/>
				</g>
			</g>
			<g>
				<g>
					<line class="st6" x1="225.3" y1="311.5" x2="218.6" y2="311.5"/>
				</g>
			</g>
			<g>
				<g>
					<line class="st6" x1="231.7" y1="312" x2="225" y2="312"/>
				</g>
			</g>
			<g>
				<g>
					<line class="st6" x1="238.3" y1="312.5" x2="231.6" y2="312.5"/>
				</g>
			</g>
			<g>
				<g>
					<line class="st6" x1="244.7" y1="313.2" x2="238.1" y2="313.2"/>
				</g>
			</g>
			<g>
				<g>
					<line class="st6" x1="251.1" y1="313.7" x2="244.4" y2="313.7"/>
				</g>
			</g>
			<g>
				<g>
					<line class="st6" x1="257.7" y1="314.2" x2="251" y2="314.2"/>
				</g>
			</g>
			<g>
				<g>
					<line class="st6" x1="264.3" y1="314.8" x2="257.6" y2="314.8"/>
				</g>
			</g>
			<g>
				<g>
					<line class="st6" x1="270.9" y1="315.1" x2="264.2" y2="315.1"/>
				</g>
			</g>
			<g>
				<g>
					<line class="st6" x1="277.3" y1="315.8" x2="270.6" y2="315.8"/>
				</g>
			</g>
			<g>
				<g>
					<line class="st6" x1="283.8" y1="316.2" x2="277.1" y2="316.2"/>
				</g>
			</g>
			<g>
				<g>
					<line class="st6" x1="290.3" y1="316.8" x2="283.6" y2="316.8"/>
				</g>
			</g>
			<g>
				<g>
					<line class="st6" x1="296.9" y1="317.4" x2="290.2" y2="317.4"/>
				</g>
			</g>
			<g>
				<g>
					<line class="st6" x1="322.6" y1="318.3" x2="315.9" y2="318.3"/>
				</g>
			</g>
		</g>
		<g>
			<g>
				<path class="st7" d="M345.8,245.6c-0.1,0-0.3,0-0.4,0c-6.3-0.4-7.6-6-8.6-10.1c-0.6-2.7-3.1-3.4-3.3-3.5c-0.1,0-0.2-0.1-0.3-0.1
					l-5.6-2.5c0,1.6-0.3,3.2-1.1,4.5c-1.2,2.1-3.2,3.2-5.7,3.2c-5.8,0-8.1-5.7-9.8-9.8c-0.3-0.7-0.6-1.4-0.9-2
					c-0.8-1.7-1.5-1.9-2.2-2.1c-0.5-0.2-1.4-0.5-1.9-1.4c-0.3-0.6-0.3-1.3-0.1-1.9c0.2-0.4,0.5-0.9,1-1.4c-0.8-0.6-1.7-0.9-2.5-1.1
					c0.7,3.2,0.3,6.6-1.1,8.9c-1.1,1.9-2.9,2.9-4.9,3c-0.1,0-0.1,0-0.2,0c-4.9,0-6.9-6.5-8.4-11.7c-0.4-1.2-0.7-2.3-1-3.2
					c-0.7-1.9-3.8-3.9-6.7-5.4c0,2.9-0.5,7-2.6,9.4c-1.3,1.4-3,2.2-4.9,2.2c-0.2,0-0.5,0-0.7,0c-3.4-0.3-5.8-2.1-6.9-5.4
					c-0.9-2.5-0.9-5.3-0.9-7.9c0-1.4,0-2.6-0.2-3.6c-0.3-1.8-3.2-3.3-5.7-4.2c-0.1,1.5-0.4,3.4-0.9,5.3c-2,7.5-5.9,9.1-8.8,9.1
					c-0.4,0-0.8,0-1.2-0.1c-1.9-0.3-3.5-1.3-4.7-2.9c-2.6-3.7-2.7-10.2-2.3-15.2c-0.6,0.5-1.1,1.1-1.8,1.6
					c-5.1,4.6-9.5,6.9-13.2,6.9c-1.9,0-3.6-0.6-5-1.8c-1.5-1.3-2.3-2.9-2.3-4.7c0-5.2,6.6-10.8,11.5-14.9c0.8-0.7,1.7-1.4,2.4-2
					c-0.5-0.3-1.2-0.7-1.9-0.9c-0.8-0.3-1.4-1.1-1.4-2s0.6-1.7,1.4-2c1.4-0.5,2.7-0.8,3.9-0.8c2.1,0,3.4,0.8,4.3,1.7
					c0.2,0,0.3,0,0.5,0c2.5,0,5.6,0.8,9.6,2.3c2.4,0.9,3.9,2.4,4.6,4.3c0.6,1.6,0.5,3,0.2,4.1l2.1,1.8c1.1-0.1,2.2-0.1,3.3-0.1
					c5.4,0,9.3,1.3,11.6,3.9c1.4,1.5,1.9,3.1,2.1,4.3l6.1,2.3c1.9-0.2,3.7-0.3,5.3-0.3c5.8,0,9.9,1.2,12,3.5c1,1,1.5,2.3,1.7,3.6
					c10.2,0.5,16.6,2.8,19.1,6.9c0.9,1.4,1.2,2.9,1.1,4.1l6.9,1.5c1.4-1.1,3-1.6,4.8-1.6c3.9,0,7.8,2.5,10.3,4.7
					c0.9,0.7,1.3,1.8,1.1,2.9v0.1l5.2,3.9c0.1,0,0.1,0.1,0.2,0.1c4,3.8,4.5,8.9,3.2,12C350.3,244.2,348.2,245.6,345.8,245.6z"/>
				<path d="M235.9,177.6c2.7,0,3.2,1.8,3.2,1.8c0.4-0.1,0.9-0.1,1.5-0.1c1.8,0,4.5,0.5,8.8,2.2c5.7,2.3,3.2,7.2,3.2,7.2l3.9,3.2
					c1.4-0.2,2.8-0.2,3.9-0.2c12.5,0,11.7,7.6,11.7,7.6l7.8,2.9c2.1-0.2,4-0.3,5.6-0.3c11,0,11.8,4.3,11.7,6.2
					c0,0.5,0.3,0.9,0.8,0.9c23.5,0.8,19.2,10.5,19.2,10.5l9.9,2.2c1.2-1.3,2.7-1.8,4.2-1.8c3.4,0,7.1,2.6,9,4.2
					c0.6,0.5,0.5,1.5-0.3,1.8l-0.1,0.1l6.7,5.1c5,4.7,3.7,12.4-0.8,12.4c-0.1,0-0.2,0-0.3,0c-4.8-0.3-5.7-4.4-6.7-8.5
					s-4.8-5.1-4.8-5.1l-9.5-4.2c1.7,2.9,1.4,9.3-3.8,9.3c-5.2,0-7-6.7-8.8-10.6c-1.8-4-4.5-2.9-4.1-3.9c0.2-0.5,0.9-0.8,1.5-0.9
					c0.5-0.1,0.8-0.7,0.5-1.1c-1.9-2.8-4.8-3.3-6.6-3.3c-1,0-1.6,0.1-1.6,0.1c2.2,4.8,1.1,11.7-3.2,11.9h-0.1c-4.3,0-5.8-9-7.5-13.5
					s-10.9-7.9-10.9-7.9s1.7,12.8-5.3,12.8c-0.2,0-0.3,0-0.5,0c-7.5-0.6-5.4-10.3-6.1-15c-0.7-4.8-9.7-6.7-9.7-6.7
					s-0.1,15.1-7.8,15.1c-0.3,0-0.6,0-0.9-0.1c-8.6-1.2-4.3-22.3-4.3-22.3s-10.4,12.7-17.9,12.7c-1.3,0-2.5-0.4-3.6-1.3
					c-7.2-6.1,13.5-18.5,13-20.1c-0.6-1.6-3.9-2.8-3.9-2.8C234,177.7,235.1,177.6,235.9,177.6 M235.9,173.4c-1.4,0-3,0.3-4.6,0.9
					c-1.7,0.6-2.8,2.2-2.8,4c0,1.3,0.6,2.5,1.7,3.3c-2.2,1.9-5,4.2-7.3,6.8c-3.3,3.6-4.9,6.7-4.9,9.7c0,2.4,1,4.6,3,6.3
					c1.8,1.5,3.9,2.3,6.3,2.3c3.8,0,7.9-1.9,12.7-5.8c0,5.1,1,8.9,2.8,11.5c1.5,2.1,3.6,3.5,6.1,3.8c0.5,0.1,1,0.1,1.5,0.1
					c3,0,8.4-1.4,10.8-10.7c0.2-1,0.4-1.9,0.6-2.8c1.3,0.7,1.8,1.3,1.9,1.5c0.1,0.8,0.1,2,0.1,3.3c0,2.7,0.1,5.8,1,8.6
					c1.4,4,4.5,6.4,8.7,6.7c0.3,0,0.6,0,0.9,0c2.6,0,4.8-1,6.5-2.9c1.5-1.7,2.5-4.2,2.9-7.3c2.4,1.6,2.8,2.6,2.9,2.6
					c0.3,0.8,0.6,1.9,1,3.1c0.7,2.4,1.6,5.2,2.8,7.5c0.8,1.5,1.6,2.7,2.6,3.6c1.5,1.3,3.2,2,5.1,2c0.1,0,0.2,0,0.3,0
					c2.8-0.1,5.1-1.5,6.6-4c0.5-0.8,0.9-1.7,1.2-2.6c0.4,0.2,0.7,0.3,1,0.4c0.2,0.1,0.3,0.1,0.4,0.2c0,0,0.3,0.2,0.6,0.9
					c0.3,0.6,0.5,1.2,0.8,1.9c0.9,2.1,1.9,4.5,3.4,6.6c2.8,3.7,6.1,4.5,8.4,4.5c3.2,0,6-1.5,7.6-4.2c0.5-0.8,0.8-1.7,1-2.5l3,1.3
					c0.3,0.1,0.4,0.2,0.7,0.2c0.3,0.1,1.5,0.6,1.8,1.9c0.5,2.2,1.1,4.7,2.4,6.9c1.8,2.9,4.6,4.6,8.1,4.8c0.2,0,0.4,0,0.6,0
					c3.3,0,6.2-2,7.5-5.3c0.9-2.2,1-4.8,0.4-7.3c-0.7-2.7-2.1-5.1-4.1-7c-0.1-0.1-0.2-0.2-0.3-0.3l-4.3-3.3
					c-0.1-1.4-0.8-2.7-1.9-3.7c-2.8-2.4-7.2-5.2-11.7-5.2c-1.9,0-3.7,0.5-5.2,1.5l-4.5-1c-0.2-1.1-0.6-2.3-1.3-3.5
					c-2.8-4.5-9.1-7.1-19.2-7.7c-0.4-1.1-1-2.2-1.8-3.1c-2.6-2.8-7.1-4.2-13.6-4.2c-1.5,0-3.2,0.1-5,0.2l-4.6-1.7
					c-0.4-1.4-1.1-2.8-2.3-4.1c-2.8-3-7.2-4.6-13.2-4.6c-0.8,0-1.7,0-2.6,0.1l-0.5-0.4c0.1-1.2,0-2.6-0.5-4
					c-0.6-1.7-2.2-4.1-5.8-5.5c-4-1.6-7.3-2.4-10-2.5C239.8,174.1,238.2,173.4,235.9,173.4L235.9,173.4z"/>
			</g>
			<g>
				<path class="st7" d="M368.4,250.9c-5,0-8.2-4-8.2-10.3c0-1.6-3.1-4.8-5.3-6.4c-0.4-0.3-0.7-0.8-0.8-1.3c-0.3-1.6-0.1-3,0.7-3.9
					c0.5-0.6,1.4-1.3,3.1-1.3c1.1,0,2.1,0.3,2.5,0.5c1.2,0.3,8.8,2.3,12.6,7.1c2.6,3.3,3.2,8.1,1.5,11.7c-1.2,2.4-3.3,3.9-5.9,3.9
					C368.6,250.9,368.5,250.9,368.4,250.9L368.4,250.9z"/>
				<path d="M357.9,229.8c1,0,1.9,0.4,1.9,0.4s8,1.8,11.5,6.4c3.6,4.6,2.3,12.1-2.7,12.2c-0.1,0-0.1,0-0.2,0c-4.8,0-6.1-4.7-6.1-8.2
					c0-3.6-6.2-8.1-6.2-8.1C355.7,230.3,356.8,229.8,357.9,229.8 M357.9,225.6c-1.9,0-3.6,0.7-4.7,2.1c-0.8,1-1.7,2.8-1.1,5.7
					c0.2,1,0.8,1.9,1.6,2.6c0,0,1.2,0.9,2.4,2.1c1.5,1.5,2,2.4,2.1,2.7c0,2,0.3,4.9,1.8,7.4c1.8,3.2,4.8,4.9,8.5,4.9
					c0.1,0,0.2,0,0.3,0c3.3-0.1,6.2-2,7.7-5.1c1-2,1.3-4.5,1-7s-1.3-4.9-2.8-6.9c-4.1-5.3-11.9-7.5-13.7-7.9
					C360.4,225.9,359.2,225.6,357.9,225.6L357.9,225.6z"/>
			</g>
		</g>
	</g>
	<g class="st8">
		<path class="st4" d="M50.1,177.7c-1.5-1.2-3.4-2.1-6-3.2c-8-3.2-10.3,12.1-10.3,12.1c-3.6,2.3-2.3,9.6-2.3,9.6
			c-4.1,2-3.2,8.7-3.2,8.7c-5,4.5-6,10.1-6,14c0,0-4.2,3.5-6.7,13.2c-0.7,2.7-1.3,5.9-1.6,9.6c-1.4,17.1-3.3,39.9-1.4,48.2
			c0.7,3.2,1.3,5.9,2,8c-2-1.1-2.6,0.7-1.7,15.5c1.2,19.7,1.2,28.5,30.4,32.3c3,0.4,6.5,0.7,10.4,1
			C16.9,292.9,42.4,201.8,50.1,177.7z"/>
	</g>
	<g class="st8">
		<path class="st4" d="M487,295.2c-0.5-0.6-1.1-1.3-1.6-1.9c-2-2.2-5.4-2.5-7.7-0.7c0-0.4,0-0.8,0-1.2c0-5.5-3.3-16.9-24.5-24
			c-8-2.7-19.8-6.4-31.4-10c14.9,15.6,44,32.1,31,77.9c13.4-5,23.4-10.6,28.3-15.8C487.9,312.1,490,298.9,487,295.2z"/>
	</g>
</g>
</svg>
