<?xml version="1.0" encoding="utf-8"?>
<!-- Generator: Adobe Illustrator 25.2.0, SVG Export Plug-In . SVG Version: 6.00 Build 0)  -->
<svg version="1.1" id="Layer_1" xmlns="http://www.w3.org/2000/svg" xmlns:xlink="http://www.w3.org/1999/xlink" x="0px" y="0px"
	 viewBox="0 0 500 500" style="enable-background:new 0 0 500 500;" xml:space="preserve">
<style type="text/css">
	.st0{fill:#232323;}
	.st1{fill:#E62864;}
	.st2{fill:#BC1350;}
	.st3{fill:#6F42F5;}
	.st4{fill:#A695EF;}
	.st5{fill:#666666;}
	.st6{fill:#E86292;}
	.st7{fill:#012D7D;}
	.st8{fill:#866CF4;}
	.st9{fill:#F2F2F2;}
	.st10{fill:#FFFFFF;}
	.st11{fill:#BBC5BD;}
</style>
<g>
	<g>
		<path d="M319.4,238.7l1.7,13.9l13.9-7.4c0,0-5.7-10.1-16-8.7L319.4,238.7z"/>
	</g>
	<g>
		<path d="M344.3,254.1l9.6,8.4l11.4,2.9C365.3,265.4,360.2,253.2,344.3,254.1z"/>
	</g>
	<g>
		<path d="M289.2,224.4c0,0,7.3-2.3,12.1-1.7c4.8,0.6,6.1,4.8,6.1,4.8s-7.5,11.9-11.5,12.3C291.9,240.3,289.2,224.4,289.2,224.4z"/>
	</g>
	<g>
		<path class="st0" d="M234.6,184c0,0,19.9,11.8,39.9,33.4c20.4,22-95.3,16.8-95.3,16.8l5.2-37.3L234.6,184z"/>
		<path d="M206.7,237.6c-15.5,0-27.5-0.5-27.6-0.5c-0.8,0-1.5-0.4-2-1s-0.7-1.4-0.6-2.1l5.2-37.3c0.2-1.1,1-2,2-2.3l50.2-13
			c0.7-0.2,1.5-0.1,2.1,0.3c0.8,0.5,20.4,12.3,40.5,33.9c3.8,4.1,3.5,7.5,2.5,9.6c-2.1,4.5-9.9,10.7-53.6,12.1
			C219,237.5,212.6,237.6,206.7,237.6z M182.3,231.7c6.9,0.2,24.8,0.7,43,0.1c13.5-0.4,24.5-1.4,32.8-2.8c13.3-2.3,15.6-5.3,16-6.1
			c0.5-1-0.6-2.5-1.6-3.6c-17-18.4-34.2-29.7-38.3-32.4l-47.3,12.2L182.3,231.7z"/>
	</g>
	<g>
		<g>
			<path class="st1" d="M286.4,311.1c-0.1,0-0.3,0-0.4,0c-0.2,0-18.2-2.6-35.9-5.1c-10.4-1.5-18.8-2.8-24.7-3.7
				c-3.6-0.5-6.3-1-8.2-1.3c-1-0.2-1.8-0.3-2.4-0.4c-0.9-0.2-2.7-0.6-3-2.6c0-0.4,0-0.8,0.1-1.1c-0.2-3.2-4-20.6-7.7-36.1
				c-0.3-1.1,0.2-2.3,1.2-3l64-40.4c0.4-0.3,1-0.4,1.5-0.4c0.3,0,0.7,0.1,1,0.2c1,0.4,25.7,10.2,43.2,20.7l0,0
				c17.3,10.4,49.5,29.8,65.4,32.6c8.1,1.4,28.3,3.1,46.2,4.5c24.8,2,35.9,3,38.4,4c1.3,0.5,2.2,1.5,2.7,2.8
				c0.6,1.6,1.1,4.7-1.9,12.7c-1.5,4.1-3.2,7.5-3.3,7.6c-0.4,0.9-1.3,1.5-2.3,1.5L286.6,311C286.5,311.1,286.5,311.1,286.4,311.1z"
				/>
		</g>
		<path d="M470.4,280.9c-0.8-2-2.3-3.6-4.2-4.4c-1.2-0.5-3.2-1-14.3-2.1c-6.8-0.7-15.6-1.4-24.8-2.1c-17.8-1.4-37.9-3.1-45.9-4.5
			c-6.5-1.1-17-5.5-31.2-13c-12.2-6.5-24.4-13.8-33.3-19.2l0,0c-17.8-10.7-42.7-20.6-43.7-21c-0.7-0.3-1.3-0.4-2-0.4
			c-1,0-2,0.3-2.9,0.8l-64,40.4c-2,1.3-3,3.6-2.4,5.9c0,0.1,1.9,8,3.8,16.5c3,13.2,3.6,17.5,3.8,18.8c-0.1,0.5-0.1,1.1,0,1.6
			c0.2,1.8,1.4,4,4.2,4.7c0.3,0.1,0.6,0.1,1,0.2c0.6,0.1,1.4,0.3,2.5,0.5c1.9,0.3,4.7,0.8,8.2,1.3c6,0.9,14.3,2.2,24.8,3.7
			c17.8,2.6,35.8,5.1,35.9,5.1c0.3,0,0.5,0.1,0.8,0.1c0.1,0,0.2,0,0.2,0l173.7-7.4c2-0.1,3.8-1.2,4.7-3c0.1-0.1,1.8-3.7,3.4-7.9
			C471,288.7,471.6,284.2,470.4,280.9z M460.2,300.9l-173.7,7.4c0,0-73.1-10.3-71.9-10.8c1.2-0.5-7.6-37.5-7.6-37.5l64-40.4
			c0,0,25.3,10,42.8,20.5c17.4,10.5,49.9,30.1,66.4,33s79.2,6.5,84,8.4C468.9,283.5,460.2,300.9,460.2,300.9z"/>
	</g>
	<g>
		<path class="st2" d="M270.9,219.7l-64,40.4c0,0,8.8,37,7.6,37.5c-0.6,0.2-9.3-1.1,8,1.5c0.6-15.1-5.9-32.9,52.8-62.5
			c6.9-3.5,6.2-13.6-1.1-16C271.8,219.7,270.9,219.7,270.9,219.7z"/>
	</g>
	<g>
		<path class="st2" d="M121.9,150.1c0,0,17.2-52.3,55.2-36.9s59.5,75.7,59.5,75.7l-78.8,11.4L121.9,150.1z"/>
		<path d="M157.7,203c-0.9,0-1.7-0.4-2.2-1.1l-35.8-50.2c-0.5-0.7-0.6-1.6-0.4-2.4c0.1-0.3,2.4-7.3,7.3-15.6
			c6.6-11.2,14.3-18.9,23-23c8.9-4.1,18.5-4.1,28.6-0.1c9,3.7,17.9,10.1,26.3,19c6.6,7.1,13,15.7,19,25.8
			c10.1,17,15.5,31.9,15.7,32.6c0.3,0.8,0.2,1.6-0.2,2.3s-1.1,1.2-2,1.3L158.1,203C158,203,157.8,203,157.7,203z M124.9,149.7
			l34,47.6l73.8-10.7c-2.1-5.3-6.9-16.5-14.1-28.5c-9-15.1-23.7-34.7-42.6-42.4c-8.6-3.5-16.7-3.5-24.2,0
			C135.8,123.1,127,144.2,124.9,149.7z"/>
	</g>
	<g>
		<g>
			<path class="st3" d="M37.3,253.2c-0.7,0-1.3-0.2-1.8-0.7c-0.6-0.5-0.9-1.3-0.9-2.1v-44.7c-0.1-1.7-0.7-22.5,11.2-41.3
				c0.4-0.7,1.1-1.1,1.9-1.2c0.4-0.1,44.6-7.6,80.1-20.7c7.6-2.8,14.6-5.8,20.8-8.5c12-5.2,21.4-9.4,29.9-9.4
				c9.5,0,16.7,5.4,22.7,17.1c7.6,15,12.8,26.3,15.8,34.5c3.7,9.9,4.3,15.1,2.1,17.9c-2.2,2.8-18.2,26.4-26.4,38.5
				c-0.4,0.7-1.1,1.1-1.9,1.2l-153,19.4C37.5,253.1,37.4,253.2,37.3,253.2z"/>
		</g>
		<path d="M222.6,186.3c-0.5-2.9-1.6-6.5-3.2-11c-3.1-8.4-8.4-19.8-16-34.8c-3.2-6.4-6.8-11-10.9-14c-4.2-3.1-8.8-4.6-14.2-4.6l0,0
			c-9,0-18.7,4.2-31,9.6c-6.1,2.7-13,5.7-20.6,8.5c-35.3,12.9-79.2,20.5-79.7,20.5c-1.5,0.3-2.9,1.2-3.7,2.5
			c-12.2,19.2-11.7,40.6-11.6,42.8v44.7c0,1.6,0.7,3.1,1.9,4.1c1,0.9,2.3,1.4,3.6,1.4c0.2,0,0.5,0,0.7,0l153-19.4
			c1.6-0.2,3-1.1,3.9-2.4c9.5-14,24.3-35.8,26.3-38.3C223.4,192.9,223.1,189,222.6,186.3z M216.8,192.4
			c-2.9,3.6-26.5,38.7-26.5,38.7l-153,19.4v-44.8c0,0-1.1-21.1,10.8-39.8c0,0,44.4-7.5,80.6-20.8c21.9-8,37.5-17.8,49.7-17.8
			c7.9,0,14.4,4.1,20.2,15.6C213.2,171.9,219.7,188.8,216.8,192.4z"/>
	</g>
	<g>
		<g>
			<path class="st3" d="M55.5,248.1v-44.6c0,0-1.1-21.1,10.8-39.8c0,0,44.4-7.5,80.6-20.8c14.7-5.4,26.6-11.6,36.5-15
				c-12.8-3.5-29.7,7.9-54.7,17.1C92.5,158.3,48,165.8,48,165.8c-11.8,18.6-10.8,39.8-10.8,39.8v44.8L55.5,248.1z"/>
		</g>
	</g>
	<g>
		<path class="st0" d="M272.9,242.2l22.4,9.1c0,0,3.9-13.6-5.2-17.9C281,229.1,272.9,242.2,272.9,242.2z"/>
	</g>
	<g>
		<path class="st0" d="M302,254.9l22.4,9.1c0,0,3.9-13.6-5.2-17.9C310.1,241.8,302,254.9,302,254.9z"/>
	</g>
	<g>
		<path class="st0" d="M331.6,267.3l22.4,9.1c0,0,3.9-13.6-5.2-17.9C339.6,254.2,331.6,267.3,331.6,267.3z"/>
	</g>
	<g>
		<path class="st4" d="M182.7,220.3c-0.2,0-0.3-0.1-0.4-0.2l-1.5-2c-0.2-0.2-0.1-0.6,0.1-0.7c0.2-0.2,0.6-0.1,0.7,0.1l1.5,2
			c0.2,0.2,0.1,0.6-0.1,0.7C182.9,220.3,182.8,220.3,182.7,220.3z M179.8,216.2c-0.2,0-0.3-0.1-0.4-0.2l-1.5-2
			c-0.2-0.2-0.1-0.6,0.1-0.7c0.2-0.2,0.6-0.1,0.7,0.1l1.5,2c0.2,0.2,0.1,0.6-0.1,0.7C180,216.2,179.9,216.2,179.8,216.2z
			 M176.8,212.1c-0.2,0-0.3-0.1-0.4-0.2l-1.5-2c-0.2-0.2-0.1-0.6,0.1-0.7c0.2-0.2,0.6-0.1,0.7,0.1l1.5,2c0.2,0.2,0.1,0.6-0.1,0.7
			C177,212.1,176.9,212.1,176.8,212.1z M173.8,208c-0.2,0-0.3-0.1-0.4-0.2l-1.5-2c-0.2-0.2-0.1-0.6,0.1-0.7c0.2-0.2,0.6-0.1,0.7,0.1
			l1.5,2c0.2,0.2,0.1,0.6-0.1,0.7C174,208,173.9,208,173.8,208z M170.9,203.9c-0.2,0-0.3-0.1-0.4-0.2l-1.5-2
			c-0.2-0.2-0.1-0.6,0.1-0.7c0.2-0.2,0.6-0.1,0.7,0.1l1.5,2c0.2,0.2,0.1,0.6-0.1,0.7C171.1,203.9,171,203.9,170.9,203.9z
			 M167.9,199.8c-0.2,0-0.3-0.1-0.4-0.2l-1.5-2c-0.2-0.2-0.1-0.6,0.1-0.7c0.2-0.2,0.6-0.1,0.7,0.1l1.5,2c0.2,0.2,0.1,0.6-0.1,0.7
			C168.1,199.8,168,199.8,167.9,199.8z M164.9,195.7c-0.2,0-0.3-0.1-0.4-0.2l-1.5-2c-0.2-0.2-0.1-0.6,0.1-0.7
			c0.2-0.2,0.6-0.1,0.7,0.1l1.5,2c0.2,0.2,0.1,0.6-0.1,0.7C165.1,195.7,165,195.7,164.9,195.7z M162,191.6c-0.2,0-0.3-0.1-0.4-0.2
			l-1.5-2c-0.2-0.2-0.1-0.6,0.1-0.7c0.2-0.2,0.6-0.1,0.7,0.1l1.5,2c0.2,0.2,0.1,0.6-0.1,0.7C162.2,191.6,162.1,191.6,162,191.6z
			 M159,187.5c-0.2,0-0.3-0.1-0.4-0.2l-1.5-2c-0.2-0.2-0.1-0.6,0.1-0.7c0.2-0.2,0.6-0.1,0.7,0.1l1.5,2c0.2,0.2,0.1,0.6-0.1,0.7
			C159.2,187.5,159.1,187.5,159,187.5z M156,183.4c-0.2,0-0.3-0.1-0.4-0.2l-1.5-2c-0.2-0.2-0.1-0.6,0.1-0.7c0.2-0.2,0.6-0.1,0.7,0.1
			l1.5,2c0.2,0.2,0.1,0.6-0.1,0.7C156.3,183.4,156.2,183.4,156,183.4z M153.1,179.3c-0.2,0-0.3-0.1-0.4-0.2l-1.5-2
			c-0.2-0.2-0.1-0.6,0.1-0.7c0.2-0.2,0.6-0.1,0.7,0.1l1.5,2c0.2,0.2,0.1,0.6-0.1,0.7C153.3,179.3,153.2,179.3,153.1,179.3z
			 M150.1,175.2c-0.2,0-0.3-0.1-0.4-0.2l-1.5-2c-0.2-0.2-0.1-0.6,0.1-0.7c0.2-0.2,0.6-0.1,0.7,0.1l1.5,2c0.2,0.2,0.1,0.6-0.1,0.7
			C150.3,175.2,150.2,175.2,150.1,175.2z M147.2,171.1c-0.2,0-0.3-0.1-0.4-0.2l-1.5-2c-0.2-0.2-0.1-0.6,0.1-0.7
			c0.2-0.2,0.6-0.1,0.7,0.1l1.5,2c0.2,0.2,0.1,0.6-0.1,0.7C147.4,171.1,147.3,171.1,147.2,171.1z M144.2,167c-0.2,0-0.3-0.1-0.4-0.2
			l-1.5-2c-0.2-0.2-0.1-0.6,0.1-0.7c0.2-0.2,0.6-0.1,0.7,0.1l1.5,2c0.2,0.2,0.1,0.6-0.1,0.7C144.4,167,144.3,167,144.2,167z
			 M141.2,162.9c-0.2,0-0.3-0.1-0.4-0.2l-1.5-2c-0.2-0.2-0.1-0.6,0.1-0.7c0.2-0.2,0.6-0.1,0.7,0.1l1.5,2c0.2,0.2,0.1,0.6-0.1,0.7
			C141.4,162.9,141.3,162.9,141.2,162.9z M138.3,158.8c-0.2,0-0.3-0.1-0.4-0.2l-1.5-2c-0.2-0.2-0.1-0.6,0.1-0.7
			c0.2-0.2,0.6-0.1,0.7,0.1l1.5,2c0.2,0.2,0.1,0.6-0.1,0.7C138.5,158.8,138.4,158.8,138.3,158.8z M135.3,154.8
			c-0.2,0-0.3-0.1-0.4-0.2l-1.5-2c-0.2-0.2-0.1-0.6,0.1-0.7c0.2-0.2,0.6-0.1,0.7,0.1l1.5,2c0.2,0.2,0.1,0.6-0.1,0.7
			C135.5,154.7,135.4,154.8,135.3,154.8z M132.3,150.7c-0.2,0-0.3-0.1-0.4-0.2l-1.5-2c-0.2-0.2-0.1-0.6,0.1-0.7
			c0.2-0.2,0.6-0.1,0.7,0.1l1.5,2c0.2,0.2,0.1,0.6-0.1,0.7C132.6,150.6,132.4,150.7,132.3,150.7z"/>
	</g>
	<g>
		<path class="st4" d="M149.1,230.9c-0.2,0-0.3-0.1-0.4-0.2l-0.9-1.3c-0.2-0.2-0.1-0.6,0.2-0.7c0.2-0.2,0.6-0.1,0.7,0.2l0.9,1.3
			c0.2,0.2,0.1,0.6-0.2,0.7C149.3,230.8,149.2,230.9,149.1,230.9z M146.8,227.4c-0.2,0-0.3-0.1-0.4-0.2L145,225
			c-0.2-0.2-0.1-0.6,0.2-0.7c0.2-0.2,0.6-0.1,0.7,0.2l1.4,2.1c0.2,0.2,0.1,0.6-0.2,0.7C147,227.4,146.9,227.4,146.8,227.4z
			 M144.1,223.2c-0.2,0-0.3-0.1-0.4-0.2l-1.4-2.1c-0.2-0.2-0.1-0.6,0.2-0.7c0.2-0.2,0.6-0.1,0.7,0.2l1.4,2.1
			c0.2,0.2,0.1,0.6-0.2,0.7C144.3,223.1,144.2,223.2,144.1,223.2z M141.3,218.9c-0.2,0-0.3-0.1-0.4-0.2l-1.4-2.1
			c-0.2-0.2-0.1-0.6,0.2-0.7c0.2-0.2,0.6-0.1,0.7,0.2l1.4,2.1c0.2,0.2,0.1,0.6-0.2,0.7C141.5,218.9,141.4,218.9,141.3,218.9z
			 M138.6,214.7c-0.2,0-0.3-0.1-0.4-0.2l-1.4-2.1c-0.2-0.2-0.1-0.6,0.2-0.7c0.2-0.2,0.6-0.1,0.7,0.2l1.4,2.1
			c0.2,0.2,0.1,0.6-0.2,0.7C138.8,214.7,138.7,214.7,138.6,214.7z M135.8,210.4c-0.2,0-0.3-0.1-0.4-0.2l-1.4-2.1
			c-0.2-0.2-0.1-0.6,0.2-0.7c0.2-0.2,0.6-0.1,0.7,0.2l1.4,2.1c0.2,0.2,0.1,0.6-0.2,0.7C136,210.4,135.9,210.4,135.8,210.4z
			 M133.1,206.2c-0.2,0-0.3-0.1-0.4-0.2l-1.4-2.1c-0.2-0.2-0.1-0.6,0.2-0.7c0.2-0.2,0.6-0.1,0.7,0.2l1.4,2.1
			c0.2,0.2,0.1,0.6-0.2,0.7C133.3,206.2,133.2,206.2,133.1,206.2z M130.3,202c-0.2,0-0.3-0.1-0.4-0.2l-1.4-2.1
			c-0.2-0.2-0.1-0.6,0.2-0.7c0.2-0.2,0.6-0.1,0.7,0.2l1.4,2.1c0.2,0.2,0.1,0.6-0.2,0.7C130.5,201.9,130.4,202,130.3,202z
			 M127.6,197.7c-0.2,0-0.3-0.1-0.4-0.2l-1.4-2.1c-0.2-0.2-0.1-0.6,0.2-0.7c0.2-0.2,0.6-0.1,0.7,0.2l1.4,2.1
			c0.2,0.2,0.1,0.6-0.2,0.7C127.8,197.7,127.7,197.7,127.6,197.7z M124.8,193.5c-0.2,0-0.3-0.1-0.4-0.2l-1.4-2.1
			c-0.2-0.2-0.1-0.6,0.2-0.7c0.2-0.2,0.6-0.1,0.7,0.2l1.4,2.1c0.2,0.2,0.1,0.6-0.2,0.7C125,193.4,124.9,193.5,124.8,193.5z
			 M122.1,189.2c-0.2,0-0.3-0.1-0.4-0.2l-1.4-2.1c-0.2-0.2-0.1-0.6,0.2-0.7c0.2-0.2,0.6-0.1,0.7,0.2l1.4,2.1
			c0.2,0.2,0.1,0.6-0.2,0.7C122.3,189.2,122.2,189.2,122.1,189.2z M119.3,185c-0.2,0-0.3-0.1-0.4-0.2l-1.4-2.1
			c-0.2-0.2-0.1-0.6,0.2-0.7c0.2-0.2,0.6-0.1,0.7,0.2l1.4,2.1c0.2,0.2,0.1,0.6-0.2,0.7C119.5,185,119.4,185,119.3,185z M116.6,180.7
			c-0.2,0-0.3-0.1-0.4-0.2l-1.4-2.1c-0.2-0.2-0.1-0.6,0.2-0.7c0.2-0.2,0.6-0.1,0.7,0.2l1.4,2.1c0.2,0.2,0.1,0.6-0.2,0.7
			C116.8,180.7,116.7,180.7,116.6,180.7z M113.8,176.5c-0.2,0-0.3-0.1-0.4-0.2l-1.4-2.1c-0.2-0.2-0.1-0.6,0.2-0.7
			c0.2-0.2,0.6-0.1,0.7,0.2l1.4,2.1c0.2,0.2,0.1,0.6-0.2,0.7C114,176.5,113.9,176.5,113.8,176.5z M111.1,172.3
			c-0.2,0-0.3-0.1-0.4-0.2l-1.4-2.1c-0.2-0.2-0.1-0.6,0.2-0.7c0.2-0.2,0.6-0.1,0.7,0.2l1.4,2.1c0.2,0.2,0.1,0.6-0.2,0.7
			C111.3,172.2,111.2,172.3,111.1,172.3z M108.3,168c-0.2,0-0.3-0.1-0.4-0.2l-1.4-2.1c-0.2-0.2-0.1-0.6,0.2-0.7
			c0.2-0.2,0.6-0.1,0.7,0.2l1.4,2.1c0.2,0.2,0.1,0.6-0.2,0.7C108.5,168,108.4,168,108.3,168z M105.6,163.8c-0.2,0-0.3-0.1-0.4-0.2
			l-1.4-2.1c-0.2-0.2-0.1-0.6,0.2-0.7c0.2-0.2,0.6-0.1,0.7,0.2l1.4,2.1c0.2,0.2,0.1,0.6-0.2,0.7
			C105.8,163.7,105.7,163.8,105.6,163.8z M102.8,159.5c-0.2,0-0.3-0.1-0.4-0.2l-1.4-2.1c-0.2-0.2-0.1-0.6,0.2-0.7
			c0.2-0.2,0.6-0.1,0.7,0.2l1.4,2.1c0.2,0.2,0.1,0.6-0.2,0.7C103,159.5,102.9,159.5,102.8,159.5z"/>
	</g>
	<g>
		<path class="st4" d="M112.2,236.4c-0.2,0-0.4-0.1-0.5-0.3l-0.4-0.8c-0.1-0.3,0-0.6,0.2-0.7c0.3-0.1,0.6,0,0.7,0.2l0.4,0.8
			c0.1,0.3,0,0.6-0.2,0.7C112.3,236.4,112.3,236.4,112.2,236.4z M110.5,233.4c-0.2,0-0.4-0.1-0.5-0.3l-1.2-2.2
			c-0.1-0.3,0-0.6,0.2-0.7c0.3-0.1,0.6,0,0.7,0.2l1.2,2.2c0.1,0.3,0,0.6-0.2,0.7C110.7,233.4,110.6,233.4,110.5,233.4z M108.1,229
			c-0.2,0-0.4-0.1-0.5-0.3l-1.2-2.2c-0.1-0.3,0-0.6,0.2-0.7c0.3-0.1,0.6,0,0.7,0.2l1.2,2.2c0.1,0.3,0,0.6-0.2,0.7
			C108.3,229,108.2,229,108.1,229z M105.7,224.6c-0.2,0-0.4-0.1-0.5-0.3l-1.2-2.2c-0.1-0.3,0-0.6,0.2-0.7c0.3-0.1,0.6,0,0.7,0.2
			l1.2,2.2c0.1,0.3,0,0.6-0.2,0.7C105.9,224.5,105.8,224.6,105.7,224.6z M103.3,220.1c-0.2,0-0.4-0.1-0.5-0.3l-1.2-2.2
			c-0.1-0.3,0-0.6,0.2-0.7c0.3-0.1,0.6,0,0.7,0.2l1.2,2.2c0.1,0.3,0,0.6-0.2,0.7C103.4,220.1,103.4,220.1,103.3,220.1z M100.9,215.7
			c-0.2,0-0.4-0.1-0.5-0.3l-1.2-2.2c-0.1-0.3,0-0.6,0.2-0.7c0.3-0.1,0.6,0,0.7,0.2l1.2,2.2c0.1,0.3,0,0.6-0.2,0.7
			C101,215.7,100.9,215.7,100.9,215.7z M98.4,211.2c-0.2,0-0.4-0.1-0.5-0.3l-1.2-2.2c-0.1-0.3,0-0.6,0.2-0.7c0.3-0.1,0.6,0,0.7,0.2
			l1.2,2.2c0.1,0.3,0,0.6-0.2,0.7C98.6,211.2,98.5,211.2,98.4,211.2z M96,206.8c-0.2,0-0.4-0.1-0.5-0.3l-1.2-2.2
			c-0.1-0.3,0-0.6,0.2-0.7c0.3-0.1,0.6,0,0.7,0.2l1.2,2.2c0.1,0.3,0,0.6-0.2,0.7C96.2,206.8,96.1,206.8,96,206.8z M93.6,202.4
			c-0.2,0-0.4-0.1-0.5-0.3l-1.2-2.2c-0.1-0.3,0-0.6,0.2-0.7c0.3-0.1,0.6,0,0.7,0.2l1.2,2.2c0.1,0.3,0,0.6-0.2,0.7
			C93.8,202.3,93.7,202.4,93.6,202.4z M91.2,197.9c-0.2,0-0.4-0.1-0.5-0.3l-1.2-2.2c-0.1-0.3,0-0.6,0.2-0.7s0.6,0,0.7,0.2l1.2,2.2
			c0.1,0.3,0,0.6-0.2,0.7C91.3,197.9,91.3,197.9,91.2,197.9z M88.8,193.5c-0.2,0-0.4-0.1-0.5-0.3l-1.2-2.2c-0.1-0.3,0-0.6,0.2-0.7
			c0.3-0.1,0.6,0,0.7,0.2l1.2,2.2c0.1,0.3,0,0.6-0.2,0.7C88.9,193.4,88.8,193.5,88.8,193.5z M86.3,189c-0.2,0-0.4-0.1-0.5-0.3
			l-1.2-2.2c-0.1-0.3,0-0.6,0.2-0.7c0.3-0.1,0.6,0,0.7,0.2l1.2,2.2c0.1,0.3,0,0.6-0.2,0.7C86.5,189,86.4,189,86.3,189z M83.9,184.6
			c-0.2,0-0.4-0.1-0.5-0.3l-1.2-2.2c-0.1-0.3,0-0.6,0.2-0.7c0.3-0.1,0.6,0,0.7,0.2l1.2,2.2c0.1,0.3,0,0.6-0.2,0.7
			C84.1,184.6,84,184.6,83.9,184.6z M81.5,180.1c-0.2,0-0.4-0.1-0.5-0.3l-1.2-2.2c-0.1-0.3,0-0.6,0.2-0.7c0.3-0.1,0.6,0,0.7,0.2
			l1.2,2.2c0.1,0.3,0,0.6-0.2,0.7C81.7,180.1,81.6,180.1,81.5,180.1z M79.1,175.7c-0.2,0-0.4-0.1-0.5-0.3l-1.2-2.2
			c-0.1-0.3,0-0.6,0.2-0.7c0.3-0.1,0.6,0,0.7,0.2l1.2,2.2c0.1,0.3,0,0.6-0.2,0.7C79.3,175.7,79.2,175.7,79.1,175.7z M76.7,171.3
			c-0.2,0-0.4-0.1-0.5-0.3l-1.2-2.2c-0.1-0.3,0-0.6,0.2-0.7c0.3-0.1,0.6,0,0.7,0.2l1.2,2.2c0.1,0.3,0,0.6-0.2,0.7
			C76.8,171.2,76.7,171.3,76.7,171.3z M74.2,166.8c-0.2,0-0.4-0.1-0.5-0.3l-1.2-2.2c-0.1-0.3,0-0.6,0.2-0.7c0.3-0.1,0.6,0,0.7,0.2
			l1.2,2.2c0.1,0.3,0,0.6-0.2,0.7C74.4,166.8,74.3,166.8,74.2,166.8z"/>
	</g>
	<g>
		<path class="st4" d="M81.9,239.2c-0.2,0-0.4-0.1-0.5-0.3l-0.6-1.1c-0.1-0.3,0-0.6,0.2-0.7c0.3-0.1,0.6,0,0.7,0.2l0.6,1.1
			c0.1,0.3,0,0.6-0.2,0.7C82.1,239.2,82,239.2,81.9,239.2z M80.1,235.8c-0.2,0-0.4-0.1-0.5-0.3l-1.2-2.2c-0.1-0.3,0-0.6,0.2-0.7
			c0.3-0.1,0.6,0,0.7,0.2l1.2,2.2c0.1,0.3,0,0.6-0.2,0.7C80.2,235.8,80.1,235.8,80.1,235.8z M77.6,231.4c-0.2,0-0.4-0.1-0.5-0.3
			l-1.2-2.2c-0.1-0.3,0-0.6,0.2-0.7c0.3-0.1,0.6,0,0.7,0.2l1.2,2.2c0.1,0.3,0,0.6-0.2,0.7C77.8,231.4,77.7,231.4,77.6,231.4z
			 M75.2,227c-0.2,0-0.4-0.1-0.5-0.3l-1.2-2.2c-0.1-0.3,0-0.6,0.2-0.7c0.3-0.1,0.6,0,0.7,0.2l1.2,2.2c0.1,0.3,0,0.6-0.2,0.7
			C75.4,227,75.3,227,75.2,227z M72.8,222.5c-0.2,0-0.4-0.1-0.5-0.3l-1.2-2.2c-0.1-0.3,0-0.6,0.2-0.7c0.3-0.1,0.6,0,0.7,0.2l1.2,2.2
			c0.1,0.3,0,0.6-0.2,0.7C72.9,222.5,72.9,222.5,72.8,222.5z M70.3,218.1c-0.2,0-0.4-0.1-0.5-0.3l-1.2-2.2c-0.1-0.3,0-0.6,0.2-0.7
			c0.3-0.1,0.6,0,0.7,0.2l1.2,2.2c0.1,0.3,0,0.6-0.2,0.7C70.5,218.1,70.4,218.1,70.3,218.1z M67.9,213.7c-0.2,0-0.4-0.1-0.5-0.3
			l-1.2-2.2c-0.1-0.3,0-0.6,0.2-0.7c0.3-0.1,0.6,0,0.7,0.2l1.2,2.2c0.1,0.3,0,0.6-0.2,0.7C68.1,213.6,68,213.7,67.9,213.7z
			 M65.5,209.2c-0.2,0-0.4-0.1-0.5-0.3l-1.2-2.2c-0.1-0.3,0-0.6,0.2-0.7c0.3-0.1,0.6,0,0.7,0.2l1.2,2.2c0.1,0.3,0,0.6-0.2,0.7
			C65.6,209.2,65.6,209.2,65.5,209.2z M63,204.8c-0.2,0-0.4-0.1-0.5-0.3l-1.2-2.2c-0.1-0.3,0-0.6,0.2-0.7c0.3-0.1,0.6,0,0.7,0.2
			l1.2,2.2c0.1,0.3,0,0.6-0.2,0.7C63.2,204.8,63.1,204.8,63,204.8z M60.6,200.4c-0.2,0-0.4-0.1-0.5-0.3l-1.2-2.2
			c-0.1-0.3,0-0.6,0.2-0.7c0.3-0.1,0.6,0,0.7,0.2l1.2,2.2c0.1,0.3,0,0.6-0.2,0.7C60.8,200.3,60.7,200.4,60.6,200.4z M58.2,195.9
			c-0.2,0-0.4-0.1-0.5-0.3l-1.2-2.2c-0.1-0.3,0-0.6,0.2-0.7c0.3-0.1,0.6,0,0.7,0.2l1.2,2.2c0.1,0.3,0,0.6-0.2,0.7
			C58.4,195.9,58.3,195.9,58.2,195.9z M55.8,191.5c-0.2,0-0.4-0.1-0.5-0.3l-1.2-2.2c-0.1-0.3,0-0.6,0.2-0.7c0.3-0.1,0.6,0,0.7,0.2
			l1.2,2.2c0.1,0.3,0,0.6-0.2,0.7C55.9,191.5,55.8,191.5,55.8,191.5z M53.3,187.1c-0.2,0-0.4-0.1-0.5-0.3l-1.2-2.2
			c-0.1-0.3,0-0.6,0.2-0.7c0.3-0.1,0.6,0,0.7,0.2l1.2,2.2c0.1,0.3,0,0.6-0.2,0.7C53.5,187,53.4,187.1,53.3,187.1z M50.9,182.6
			c-0.2,0-0.4-0.1-0.5-0.3l-1.2-2.2c-0.1-0.3,0-0.6,0.2-0.7c0.3-0.1,0.6,0,0.7,0.2l1.2,2.2c0.1,0.3,0,0.6-0.2,0.7
			C51.1,182.6,51,182.6,50.9,182.6z M48.5,178.2c-0.2,0-0.4-0.1-0.5-0.3l-1.2-2.2c-0.1-0.3,0-0.6,0.2-0.7c0.3-0.1,0.6,0,0.7,0.2
			l1.2,2.2c0.1,0.3,0,0.6-0.2,0.7C48.6,178.2,48.5,178.2,48.5,178.2z"/>
	</g>
	<g>
		<path class="st4" d="M204.8,200.5c-0.2,0-0.3-0.1-0.4-0.2l-1.4-2.1c-0.2-0.2-0.1-0.6,0.1-0.7c0.2-0.2,0.6-0.1,0.7,0.1l1.4,2.1
			c0.2,0.2,0.1,0.6-0.1,0.7C205,200.4,204.9,200.5,204.8,200.5z M201.9,196.3c-0.2,0-0.3-0.1-0.4-0.2L200,194
			c-0.2-0.2-0.1-0.6,0.1-0.7c0.2-0.2,0.6-0.1,0.7,0.1l1.4,2.1c0.2,0.2,0.1,0.6-0.1,0.7C202.1,196.3,202,196.3,201.9,196.3z
			 M199,192.1c-0.2,0-0.3-0.1-0.4-0.2l-1.4-2.1c-0.2-0.2-0.1-0.6,0.1-0.7c0.2-0.2,0.6-0.1,0.7,0.1l1.4,2.1c0.2,0.2,0.1,0.6-0.1,0.7
			C199.3,192.1,199.2,192.1,199,192.1z M196.2,187.9c-0.2,0-0.3-0.1-0.4-0.2l-1.4-2.1c-0.2-0.2-0.1-0.6,0.1-0.7
			c0.2-0.2,0.6-0.1,0.7,0.1l1.4,2.1c0.2,0.2,0.1,0.6-0.1,0.7C196.4,187.9,196.3,187.9,196.2,187.9z M193.3,183.8
			c-0.2,0-0.3-0.1-0.4-0.2l-1.4-2.1c-0.2-0.2-0.1-0.6,0.1-0.7c0.2-0.2,0.6-0.1,0.7,0.1l1.4,2.1c0.2,0.2,0.1,0.6-0.1,0.7
			C193.6,183.7,193.5,183.8,193.3,183.8z M190.5,179.6c-0.2,0-0.3-0.1-0.4-0.2l-1.4-2.1c-0.2-0.2-0.1-0.6,0.1-0.7
			c0.2-0.2,0.6-0.1,0.7,0.1l1.4,2.1c0.2,0.2,0.1,0.6-0.1,0.7C190.7,179.6,190.6,179.6,190.5,179.6z M187.6,175.4
			c-0.2,0-0.3-0.1-0.4-0.2l-1.4-2.1c-0.2-0.2-0.1-0.6,0.1-0.7c0.2-0.2,0.6-0.1,0.7,0.1l1.4,2.1c0.2,0.2,0.1,0.6-0.1,0.7
			C187.9,175.4,187.7,175.4,187.6,175.4z M184.8,171.2c-0.2,0-0.3-0.1-0.4-0.2l-1.4-2.1c-0.2-0.2-0.1-0.6,0.1-0.7
			c0.2-0.2,0.6-0.1,0.7,0.1l1.4,2.1c0.2,0.2,0.1,0.6-0.1,0.7C185,171.2,184.9,171.2,184.8,171.2z M181.9,167.1
			c-0.2,0-0.3-0.1-0.4-0.2l-1.4-2.1c-0.2-0.2-0.1-0.6,0.1-0.7c0.2-0.2,0.6-0.1,0.7,0.1l1.4,2.1c0.2,0.2,0.1,0.6-0.1,0.7
			C182.2,167,182,167.1,181.9,167.1z M179.1,162.9c-0.2,0-0.3-0.1-0.4-0.2l-1.4-2.1c-0.2-0.2-0.1-0.6,0.1-0.7
			c0.2-0.2,0.6-0.1,0.7,0.1l1.4,2.1c0.2,0.2,0.1,0.6-0.1,0.7C179.3,162.8,179.2,162.9,179.1,162.9z M176.2,158.7
			c-0.2,0-0.3-0.1-0.4-0.2l-1.4-2.1c-0.2-0.2-0.1-0.6,0.1-0.7c0.2-0.2,0.6-0.1,0.7,0.1l1.4,2.1c0.2,0.2,0.1,0.6-0.1,0.7
			C176.5,158.7,176.3,158.7,176.2,158.7z M173.4,154.5c-0.2,0-0.3-0.1-0.4-0.2l-1.4-2.1c-0.2-0.2-0.1-0.6,0.1-0.7
			c0.2-0.2,0.6-0.1,0.7,0.1l1.4,2.1c0.2,0.2,0.1,0.6-0.1,0.7C173.6,154.5,173.5,154.5,173.4,154.5z M170.5,150.3
			c-0.2,0-0.3-0.1-0.4-0.2l-1.4-2.1c-0.2-0.2-0.1-0.6,0.1-0.7c0.2-0.2,0.6-0.1,0.7,0.1l1.4,2.1c0.2,0.2,0.1,0.6-0.1,0.7
			C170.7,150.3,170.6,150.3,170.5,150.3z M167.7,146.2c-0.2,0-0.3-0.1-0.4-0.2l-1.4-2.1c-0.2-0.2-0.1-0.6,0.1-0.7
			c0.2-0.2,0.6-0.1,0.7,0.1l1.4,2.1c0.2,0.2,0.1,0.6-0.1,0.7C167.9,146.1,167.8,146.2,167.7,146.2z M164.8,142
			c-0.2,0-0.3-0.1-0.4-0.2l-1.4-2.1c-0.2-0.2-0.1-0.6,0.1-0.7c0.2-0.2,0.6-0.1,0.7,0.1l1.4,2.1c0.2,0.2,0.1,0.6-0.1,0.7
			C165,142,164.9,142,164.8,142z M162,137.8c-0.2,0-0.3-0.1-0.4-0.2l-1.4-2.1c-0.2-0.2-0.1-0.6,0.1-0.7c0.2-0.2,0.6-0.1,0.7,0.1
			l1.4,2.1c0.2,0.2,0.1,0.6-0.1,0.7C162.2,137.8,162.1,137.8,162,137.8z"/>
	</g>
	<g>
		<path class="st4" d="M41.1,200.5c-0.2,0-0.3-0.1-0.4-0.2c-0.2-0.2-0.2-0.6,0.1-0.7l2-1.6c0.2-0.2,0.6-0.2,0.7,0.1
			c0.2,0.2,0.2,0.6-0.1,0.7l-2,1.6C41.3,200.5,41.2,200.5,41.1,200.5z M45,197.3c-0.2,0-0.3-0.1-0.4-0.2c-0.2-0.2-0.2-0.6,0.1-0.7
			l2-1.6c0.2-0.2,0.6-0.2,0.7,0.1c0.2,0.2,0.2,0.6-0.1,0.7l-2,1.6C45.2,197.3,45.1,197.3,45,197.3z M48.9,194.1
			c-0.2,0-0.3-0.1-0.4-0.2c-0.2-0.2-0.2-0.6,0.1-0.7l2-1.6c0.2-0.2,0.6-0.2,0.7,0.1c0.2,0.2,0.2,0.6-0.1,0.7l-2,1.6
			C49.1,194.1,49,194.1,48.9,194.1z M52.8,190.9c-0.2,0-0.3-0.1-0.4-0.2c-0.2-0.2-0.2-0.6,0.1-0.7l2-1.6c0.2-0.2,0.6-0.2,0.7,0.1
			c0.2,0.2,0.2,0.6-0.1,0.7l-2,1.6C53,190.9,52.9,190.9,52.8,190.9z M56.7,187.7c-0.2,0-0.3-0.1-0.4-0.2c-0.2-0.2-0.2-0.6,0.1-0.7
			l2-1.6c0.2-0.2,0.6-0.2,0.7,0.1c0.2,0.2,0.2,0.6-0.1,0.7l-2,1.6C57,187.7,56.8,187.7,56.7,187.7z M60.6,184.5
			c-0.2,0-0.3-0.1-0.4-0.2c-0.2-0.2-0.2-0.6,0.1-0.7l2-1.6c0.2-0.2,0.6-0.2,0.7,0.1c0.2,0.2,0.2,0.6-0.1,0.7l-2,1.6
			C60.9,184.5,60.8,184.5,60.6,184.5z M64.6,181.3c-0.2,0-0.3-0.1-0.4-0.2c-0.2-0.2-0.2-0.6,0.1-0.7l2-1.6c0.2-0.2,0.6-0.2,0.7,0.1
			c0.2,0.2,0.2,0.6-0.1,0.7l-2,1.6C64.8,181.3,64.7,181.3,64.6,181.3z M68.5,178.1c-0.2,0-0.3-0.1-0.4-0.2c-0.2-0.2-0.2-0.6,0.1-0.7
			l2-1.6c0.2-0.2,0.6-0.2,0.7,0.1c0.2,0.2,0.2,0.6-0.1,0.7l-2,1.6C68.7,178.1,68.6,178.1,68.5,178.1z M72.4,174.9
			c-0.2,0-0.3-0.1-0.4-0.2c-0.2-0.2-0.2-0.6,0.1-0.7l2-1.6c0.2-0.2,0.6-0.2,0.7,0.1c0.2,0.2,0.2,0.6-0.1,0.7l-2,1.6
			C72.6,174.9,72.5,174.9,72.4,174.9z M76.3,171.7c-0.2,0-0.3-0.1-0.4-0.2c-0.2-0.2-0.2-0.6,0.1-0.7l2-1.6c0.2-0.2,0.6-0.2,0.7,0.1
			c0.2,0.2,0.2,0.6-0.1,0.7l-2,1.6C76.5,171.7,76.4,171.7,76.3,171.7z M80.2,168.5c-0.2,0-0.3-0.1-0.4-0.2c-0.2-0.2-0.2-0.6,0.1-0.7
			l2-1.6c0.2-0.2,0.6-0.2,0.7,0.1c0.2,0.2,0.2,0.6-0.1,0.7l-2,1.6C80.4,168.5,80.3,168.5,80.2,168.5z M84.1,165.3
			c-0.2,0-0.3-0.1-0.4-0.2c-0.2-0.2-0.2-0.6,0.1-0.7l2-1.6c0.2-0.2,0.6-0.2,0.7,0.1c0.2,0.2,0.2,0.6-0.1,0.7l-2,1.6
			C84.4,165.3,84.2,165.3,84.1,165.3z M88,162.1c-0.2,0-0.3-0.1-0.4-0.2c-0.2-0.2-0.2-0.6,0.1-0.7l2-1.6c0.2-0.2,0.6-0.2,0.7,0.1
			c0.2,0.2,0.2,0.6-0.1,0.7l-2,1.6C88.3,162.1,88.1,162.1,88,162.1z"/>
	</g>
	<g>
		<path class="st4" d="M45,233.1c-0.1,0-0.3-0.1-0.4-0.2c-0.2-0.2-0.2-0.5,0-0.7c0,0,0.6-0.6,1.9-1.8c0.2-0.2,0.5-0.2,0.7,0
			s0.2,0.5,0,0.7c-1.2,1.1-1.9,1.8-1.9,1.8C45.2,233,45.1,233.1,45,233.1z M48.7,229.5c-0.1,0-0.3-0.1-0.4-0.2
			c-0.2-0.2-0.2-0.5,0-0.7c0.6-0.5,1.2-1.1,1.9-1.7c0.2-0.2,0.5-0.2,0.7,0s0.2,0.5,0,0.7c-0.7,0.6-1.3,1.2-1.9,1.7
			C48.9,229.5,48.8,229.5,48.7,229.5z M52.4,226.1c-0.1,0-0.3-0.1-0.4-0.2c-0.2-0.2-0.2-0.5,0-0.7c0.6-0.5,1.2-1.1,1.9-1.7
			c0.2-0.2,0.5-0.2,0.7,0s0.2,0.5,0,0.7c-0.6,0.6-1.3,1.2-1.9,1.7C52.6,226,52.5,226.1,52.4,226.1z M56.1,222.6
			c-0.1,0-0.3-0.1-0.4-0.2c-0.2-0.2-0.2-0.5,0-0.7c0.6-0.6,1.2-1.1,1.9-1.7c0.2-0.2,0.5-0.2,0.7,0s0.2,0.5,0,0.7
			c-0.6,0.6-1.3,1.2-1.9,1.7C56.4,222.6,56.2,222.6,56.1,222.6z M59.8,219.2c-0.1,0-0.3-0.1-0.4-0.2c-0.2-0.2-0.2-0.5,0-0.7
			c0.6-0.6,1.2-1.1,1.9-1.7c0.2-0.2,0.5-0.2,0.7,0s0.2,0.5,0,0.7c-0.6,0.6-1.3,1.1-1.9,1.7C60.1,219.2,60,219.2,59.8,219.2z
			 M63.6,215.8c-0.1,0-0.3-0.1-0.4-0.2c-0.2-0.2-0.2-0.5,0-0.7c0.6-0.6,1.2-1.1,1.9-1.7c0.2-0.2,0.5-0.2,0.7,0s0.2,0.5,0,0.7
			c-0.6,0.6-1.3,1.1-1.9,1.7C63.8,215.8,63.7,215.8,63.6,215.8z M67.4,212.4c-0.1,0-0.3-0.1-0.4-0.2c-0.2-0.2-0.2-0.5,0-0.7
			c0.6-0.6,1.3-1.1,1.9-1.7c0.2-0.2,0.6-0.2,0.7,0c0.2,0.2,0.2,0.6,0,0.7c-0.6,0.6-1.3,1.1-1.9,1.7
			C67.6,212.4,67.5,212.4,67.4,212.4z M71.1,209c-0.1,0-0.3-0.1-0.4-0.2c-0.2-0.2-0.2-0.6,0-0.7c0.6-0.6,1.3-1.1,1.9-1.7
			c0.2-0.2,0.6-0.2,0.7,0s0.2,0.6,0,0.7c-0.6,0.6-1.3,1.1-1.9,1.7C71.4,209,71.3,209,71.1,209z M74.9,205.7c-0.1,0-0.3-0.1-0.4-0.2
			c-0.2-0.2-0.2-0.6,0-0.7c0.6-0.6,1.3-1.1,1.9-1.7c0.2-0.2,0.6-0.2,0.7,0.1c0.2,0.2,0.2,0.6-0.1,0.7c-0.6,0.6-1.3,1.1-1.9,1.7
			C75.2,205.7,75.1,205.7,74.9,205.7z M78.7,202.4c-0.1,0-0.3-0.1-0.4-0.2c-0.2-0.2-0.2-0.6,0.1-0.7c0.6-0.5,1.3-1.1,1.9-1.7
			c0.2-0.2,0.6-0.2,0.7,0.1c0.2,0.2,0.2,0.6-0.1,0.7c-0.6,0.6-1.3,1.1-1.9,1.7C79,202.3,78.9,202.4,78.7,202.4z M82.6,199.1
			c-0.1,0-0.3-0.1-0.4-0.2c-0.2-0.2-0.2-0.6,0.1-0.7c0.6-0.5,1.3-1.1,1.9-1.6c0.2-0.2,0.6-0.2,0.7,0.1c0.2,0.2,0.2,0.6-0.1,0.7
			c-0.6,0.6-1.3,1.1-1.9,1.6C82.8,199,82.7,199.1,82.6,199.1z M86.4,195.8c-0.1,0-0.3-0.1-0.4-0.2c-0.2-0.2-0.2-0.6,0.1-0.7
			c0.6-0.5,1.3-1.1,1.9-1.6c0.2-0.2,0.6-0.2,0.7,0.1c0.2,0.2,0.2,0.6-0.1,0.7c-0.6,0.5-1.3,1.1-1.9,1.6
			C86.7,195.7,86.5,195.8,86.4,195.8z M90.3,192.5c-0.2,0-0.3-0.1-0.4-0.2c-0.2-0.2-0.2-0.6,0.1-0.7c0.6-0.5,1.3-1.1,1.9-1.6
			c0.2-0.2,0.6-0.2,0.7,0.1c0.2,0.2,0.2,0.6-0.1,0.7c-0.6,0.5-1.3,1.1-1.9,1.6C90.5,192.5,90.4,192.5,90.3,192.5z M94.2,189.2
			c-0.2,0-0.3-0.1-0.4-0.2c-0.2-0.2-0.2-0.6,0.1-0.7c0.6-0.5,1.3-1.1,1.9-1.6c0.2-0.2,0.6-0.2,0.7,0.1c0.2,0.2,0.2,0.6-0.1,0.7
			c-0.7,0.5-1.3,1.1-1.9,1.6C94.4,189.2,94.3,189.2,94.2,189.2z M98.1,186c-0.2,0-0.3-0.1-0.4-0.2c-0.2-0.2-0.2-0.6,0.1-0.7
			c0.7-0.5,1.3-1.1,2-1.6c0.2-0.2,0.6-0.2,0.7,0.1c0.2,0.2,0.2,0.6-0.1,0.7c-0.7,0.5-1.3,1.1-2,1.6C98.3,186,98.2,186,98.1,186z
			 M102,182.8c-0.2,0-0.3-0.1-0.4-0.2c-0.2-0.2-0.1-0.6,0.1-0.7c0.7-0.5,1.3-1.1,2-1.6c0.2-0.2,0.6-0.1,0.7,0.1
			c0.2,0.2,0.1,0.6-0.1,0.7c-0.7,0.5-1.3,1.1-2,1.6C102.2,182.8,102.1,182.8,102,182.8z M105.9,179.6c-0.2,0-0.3-0.1-0.4-0.2
			c-0.2-0.2-0.1-0.6,0.1-0.7c0.7-0.5,1.3-1.1,2-1.6c0.2-0.2,0.6-0.1,0.7,0.1c0.2,0.2,0.1,0.6-0.1,0.7c-0.7,0.5-1.3,1-2,1.6
			C106.2,179.6,106,179.6,105.9,179.6z M109.9,176.5c-0.2,0-0.3-0.1-0.4-0.2c-0.2-0.2-0.1-0.6,0.1-0.7c0.7-0.5,1.3-1,2-1.6
			c0.2-0.2,0.6-0.1,0.7,0.1c0.2,0.2,0.1,0.6-0.1,0.7c-0.7,0.5-1.3,1-2,1.6C110.1,176.5,110,176.5,109.9,176.5z M113.9,173.4
			c-0.2,0-0.3-0.1-0.4-0.2c-0.2-0.2-0.1-0.6,0.1-0.7c0.7-0.5,1.3-1,2-1.5c0.2-0.2,0.6-0.1,0.7,0.1c0.2,0.2,0.1,0.6-0.1,0.7
			c-0.7,0.5-1.3,1-2,1.5C114.1,173.3,114,173.4,113.9,173.4z M117.9,170.3c-0.2,0-0.3-0.1-0.4-0.2c-0.2-0.2-0.1-0.6,0.1-0.7
			c0.7-0.5,1.3-1,2-1.5c0.2-0.2,0.6-0.1,0.7,0.1c0.2,0.2,0.1,0.6-0.1,0.7c-0.7,0.5-1.3,1-2,1.5C118.1,170.2,118,170.3,117.9,170.3z
			 M121.9,167.2c-0.2,0-0.3-0.1-0.4-0.2c-0.2-0.2-0.1-0.6,0.1-0.7c0.7-0.5,1.4-1,2-1.5c0.2-0.2,0.6-0.1,0.7,0.1
			c0.2,0.2,0.1,0.6-0.1,0.7c-0.7,0.5-1.4,1-2,1.5C122.1,167.2,122,167.2,121.9,167.2z M126,164.2c-0.2,0-0.3-0.1-0.4-0.2
			c-0.2-0.2-0.1-0.6,0.1-0.7c0.7-0.5,1.4-1,2-1.5c0.2-0.2,0.6-0.1,0.7,0.1c0.2,0.2,0.1,0.6-0.1,0.7c-0.7,0.5-1.4,1-2,1.5
			C126.2,164.2,126.1,164.2,126,164.2z M130.1,161.2c-0.2,0-0.3-0.1-0.4-0.2c-0.2-0.2-0.1-0.6,0.1-0.7c0.7-0.5,1.4-1,2.1-1.5
			c0.2-0.2,0.6-0.1,0.7,0.1c0.2,0.2,0.1,0.6-0.1,0.7c-0.7,0.5-1.4,1-2.1,1.5C130.3,161.2,130.2,161.2,130.1,161.2z M134.2,158.3
			c-0.2,0-0.3-0.1-0.4-0.2c-0.2-0.2-0.1-0.6,0.1-0.7c0.7-0.5,1.4-1,2.1-1.4c0.2-0.2,0.6-0.1,0.7,0.1c0.2,0.2,0.1,0.6-0.1,0.7
			c-0.7,0.5-1.4,1-2.1,1.4C134.4,158.3,134.3,158.3,134.2,158.3z M138.4,155.4c-0.2,0-0.3-0.1-0.4-0.2c-0.2-0.2-0.1-0.6,0.1-0.7
			c0.7-0.5,1.4-0.9,2.1-1.4c0.2-0.2,0.6-0.1,0.7,0.1c0.2,0.2,0.1,0.6-0.1,0.7c-0.7,0.5-1.4,0.9-2.1,1.4
			C138.6,155.4,138.5,155.4,138.4,155.4z M142.6,152.6c-0.2,0-0.3-0.1-0.4-0.2c-0.2-0.2-0.1-0.6,0.2-0.7c0.7-0.5,1.4-0.9,2.1-1.4
			c0.2-0.2,0.6-0.1,0.7,0.2c0.2,0.2,0.1,0.6-0.2,0.7c-0.7,0.5-1.4,0.9-2.1,1.4C142.8,152.6,142.7,152.6,142.6,152.6z M146.8,149.9
			c-0.2,0-0.3-0.1-0.4-0.2c-0.2-0.2-0.1-0.6,0.2-0.7c0.7-0.5,1.4-0.9,2.1-1.3c0.2-0.2,0.6-0.1,0.7,0.2c0.2,0.2,0.1,0.6-0.2,0.7
			c-0.7,0.4-1.4,0.9-2.1,1.3C147,149.9,146.9,149.9,146.8,149.9z M151.2,147.2c-0.2,0-0.4-0.1-0.5-0.3c-0.2-0.2-0.1-0.6,0.2-0.7
			c0.7-0.4,1.5-0.9,2.2-1.3c0.3-0.1,0.6-0.1,0.7,0.2c0.1,0.3,0.1,0.6-0.2,0.7c-0.7,0.4-1.4,0.9-2.2,1.3
			C151.3,147.2,151.2,147.2,151.2,147.2z M155.5,144.6c-0.2,0-0.4-0.1-0.5-0.3c-0.1-0.3-0.1-0.6,0.2-0.7c0.7-0.4,1.5-0.8,2.2-1.2
			c0.3-0.1,0.6,0,0.7,0.2c0.1,0.3,0,0.6-0.2,0.7c-0.7,0.4-1.5,0.8-2.2,1.2C155.7,144.6,155.6,144.6,155.5,144.6z M159.9,142.2
			c-0.2,0-0.4-0.1-0.5-0.3c-0.1-0.3,0-0.6,0.2-0.7c0.8-0.4,1.5-0.8,2.2-1.2c0.3-0.1,0.6,0,0.7,0.2c0.1,0.3,0,0.6-0.2,0.7
			c-0.7,0.4-1.5,0.8-2.2,1.2C160.1,142.2,160,142.2,159.9,142.2z M164.4,139.9c-0.2,0-0.4-0.1-0.5-0.3c-0.1-0.3,0-0.6,0.2-0.7
			c0.8-0.4,1.5-0.7,2.3-1.1c0.3-0.1,0.6,0,0.7,0.3c0.1,0.3,0,0.6-0.3,0.7C166.1,139.1,165.3,139.5,164.4,139.9
			C164.6,139.9,164.5,139.9,164.4,139.9z M169,137.7c-0.2,0-0.4-0.1-0.5-0.3c-0.1-0.3,0-0.6,0.3-0.7c0.8-0.3,1.6-0.7,2.3-1
			c0.3-0.1,0.6,0,0.7,0.3c0.1,0.3,0,0.6-0.3,0.7c-0.8,0.3-1.5,0.6-2.3,1C169.2,137.7,169.1,137.7,169,137.7z M173.7,135.8
			c-0.2,0-0.4-0.1-0.5-0.3c-0.1-0.3,0-0.6,0.3-0.7c0.8-0.3,1.6-0.6,2.4-0.8c0.3-0.1,0.6,0.1,0.7,0.3c0.1,0.3-0.1,0.6-0.3,0.7
			c-0.8,0.3-1.6,0.5-2.4,0.8C173.8,135.8,173.8,135.8,173.7,135.8z M178.5,134.3c-0.2,0-0.4-0.2-0.5-0.4c-0.1-0.3,0.1-0.6,0.4-0.6
			c0.8-0.2,1.7-0.4,2.5-0.6c0.3-0.1,0.6,0.1,0.6,0.4c0.1,0.3-0.1,0.6-0.4,0.6c-0.8,0.2-1.6,0.4-2.4,0.6
			C178.6,134.3,178.6,134.3,178.5,134.3z M183.5,133.2c-0.3,0-0.5-0.2-0.5-0.4c0-0.3,0.2-0.6,0.4-0.6c0.3-0.1,0.6-0.1,1-0.1
			c0.3,0,0.6,0.2,0.6,0.5s-0.2,0.6-0.5,0.6C184.2,133.1,183.8,133.1,183.5,133.2L183.5,133.2z"/>
	</g>
	<g>
		<path class="st4" d="M81.9,239.2c-0.2,0-0.3-0.1-0.4-0.2c-0.2-0.2-0.1-0.6,0.1-0.7l2.1-1.5c0.2-0.2,0.6-0.1,0.7,0.1
			c0.2,0.2,0.1,0.6-0.1,0.7l-2.1,1.5C82.1,239.2,82,239.2,81.9,239.2z M86,236.3c-0.2,0-0.3-0.1-0.4-0.2c-0.2-0.2-0.1-0.6,0.1-0.7
			l2.1-1.5c0.2-0.2,0.6-0.1,0.7,0.1c0.2,0.2,0.1,0.6-0.1,0.7l-2.1,1.5C86.3,236.3,86.1,236.3,86,236.3z M90.2,233.4
			c-0.2,0-0.3-0.1-0.4-0.2c-0.2-0.2-0.1-0.6,0.1-0.7L92,231c0.2-0.2,0.6-0.1,0.7,0.1c0.2,0.2,0.1,0.6-0.1,0.7l-2.1,1.5
			C90.4,233.4,90.3,233.4,90.2,233.4z M94.3,230.5c-0.2,0-0.3-0.1-0.4-0.2c-0.2-0.2-0.1-0.6,0.1-0.7l2.1-1.5
			c0.2-0.2,0.6-0.1,0.7,0.1c0.2,0.2,0.1,0.6-0.1,0.7l-2.1,1.5C94.5,230.5,94.4,230.5,94.3,230.5z M98.5,227.6
			c-0.2,0-0.3-0.1-0.4-0.2c-0.2-0.2-0.1-0.6,0.1-0.7l2.1-1.5c0.2-0.2,0.6-0.1,0.7,0.1c0.2,0.2,0.1,0.6-0.1,0.7l-2.1,1.5
			C98.7,227.6,98.6,227.6,98.5,227.6z M102.6,224.7c-0.2,0-0.3-0.1-0.4-0.2c-0.2-0.2-0.1-0.6,0.1-0.7l2.1-1.5
			c0.2-0.2,0.6-0.1,0.7,0.1c0.2,0.2,0.1,0.6-0.1,0.7l-2.1,1.5C102.8,224.6,102.7,224.7,102.6,224.7z M106.7,221.8
			c-0.2,0-0.3-0.1-0.4-0.2c-0.2-0.2-0.1-0.6,0.1-0.7l2.1-1.5c0.2-0.2,0.6-0.1,0.7,0.1c0.2,0.2,0.1,0.6-0.1,0.7l-2.1,1.5
			C107,221.7,106.9,221.8,106.7,221.8z M110.9,218.9c-0.2,0-0.3-0.1-0.4-0.2c-0.2-0.2-0.1-0.6,0.1-0.7l2.1-1.5
			c0.2-0.2,0.6-0.1,0.7,0.1c0.2,0.2,0.1,0.6-0.1,0.7l-2.1,1.5C111.1,218.8,111,218.9,110.9,218.9z M115,216c-0.2,0-0.3-0.1-0.4-0.2
			c-0.2-0.2-0.1-0.6,0.1-0.7l2.1-1.5c0.2-0.2,0.6-0.1,0.7,0.1c0.2,0.2,0.1,0.6-0.1,0.7l-2.1,1.5C115.2,215.9,115.1,216,115,216z
			 M119.2,213.1c-0.2,0-0.3-0.1-0.4-0.2c-0.2-0.2-0.1-0.6,0.1-0.7l2.1-1.5c0.2-0.2,0.6-0.1,0.7,0.1c0.2,0.2,0.1,0.6-0.1,0.7
			l-2.1,1.5C119.4,213,119.3,213.1,119.2,213.1z M123.3,210.2c-0.2,0-0.3-0.1-0.4-0.2c-0.2-0.2-0.1-0.6,0.1-0.7l2.1-1.5
			c0.2-0.2,0.6-0.1,0.7,0.1c0.2,0.2,0.1,0.6-0.1,0.7l-2.1,1.5C123.5,210.1,123.4,210.2,123.3,210.2z M127.4,207.3
			c-0.2,0-0.3-0.1-0.4-0.2c-0.2-0.2-0.1-0.6,0.1-0.7l2.1-1.5c0.2-0.2,0.6-0.1,0.7,0.1c0.2,0.2,0.1,0.6-0.1,0.7l-2.1,1.5
			C127.7,207.2,127.6,207.3,127.4,207.3z M131.6,204.4c-0.2,0-0.3-0.1-0.4-0.2c-0.2-0.2-0.1-0.6,0.1-0.7l2.1-1.5
			c0.2-0.2,0.6-0.1,0.7,0.1c0.2,0.2,0.1,0.6-0.1,0.7l-2.1,1.5C131.8,204.3,131.7,204.4,131.6,204.4z M135.7,201.4
			c-0.2,0-0.3-0.1-0.4-0.2c-0.2-0.2-0.1-0.6,0.1-0.7l2.1-1.5c0.2-0.2,0.6-0.1,0.7,0.1c0.2,0.2,0.1,0.6-0.1,0.7l-2.1,1.5
			C135.9,201.4,135.8,201.4,135.7,201.4z M139.9,198.5c-0.2,0-0.3-0.1-0.4-0.2c-0.2-0.2-0.1-0.6,0.1-0.7l2.1-1.5
			c0.2-0.2,0.6-0.1,0.7,0.1c0.2,0.2,0.1,0.6-0.1,0.7l-2.1,1.5C140.1,198.5,140,198.5,139.9,198.5z M144,195.6
			c-0.2,0-0.3-0.1-0.4-0.2c-0.2-0.2-0.1-0.6,0.1-0.7l2.1-1.5c0.2-0.2,0.6-0.1,0.7,0.1c0.2,0.2,0.1,0.6-0.1,0.7l-2.1,1.5
			C144.2,195.6,144.1,195.6,144,195.6z M148.1,192.7c-0.2,0-0.3-0.1-0.4-0.2c-0.2-0.2-0.1-0.6,0.1-0.7l2.1-1.5
			c0.2-0.2,0.6-0.1,0.7,0.1c0.2,0.2,0.1,0.6-0.1,0.7l-2.1,1.5C148.4,192.7,148.3,192.7,148.1,192.7z M152.3,189.8
			c-0.2,0-0.3-0.1-0.4-0.2c-0.2-0.2-0.1-0.6,0.1-0.7l2.1-1.5c0.2-0.2,0.6-0.1,0.7,0.1c0.2,0.2,0.1,0.6-0.1,0.7l-2.1,1.5
			C152.5,189.8,152.4,189.8,152.3,189.8z M156.4,186.9c-0.2,0-0.3-0.1-0.4-0.2c-0.2-0.2-0.1-0.6,0.1-0.7l2.1-1.5
			c0.2-0.2,0.6-0.1,0.7,0.1c0.2,0.2,0.1,0.6-0.1,0.7l-2.1,1.5C156.6,186.9,156.5,186.9,156.4,186.9z M160.6,184
			c-0.2,0-0.3-0.1-0.4-0.2c-0.2-0.2-0.1-0.6,0.1-0.7l2.1-1.5c0.2-0.2,0.6-0.1,0.7,0.1c0.2,0.2,0.1,0.6-0.1,0.7l-2.1,1.5
			C160.8,184,160.7,184,160.6,184z M164.7,181.1c-0.2,0-0.3-0.1-0.4-0.2c-0.2-0.2-0.1-0.6,0.1-0.7l2.1-1.5c0.2-0.2,0.6-0.1,0.7,0.1
			c0.2,0.2,0.1,0.6-0.1,0.7L165,181C164.9,181.1,164.8,181.1,164.7,181.1z M168.8,178.2c-0.2,0-0.3-0.1-0.4-0.2
			c-0.2-0.2-0.1-0.6,0.1-0.7l2.1-1.5c0.2-0.2,0.6-0.1,0.7,0.1c0.2,0.2,0.1,0.6-0.1,0.7l-2.1,1.5C169.1,178.2,169,178.2,168.8,178.2z
			 M173,175.3c-0.2,0-0.3-0.1-0.4-0.2c-0.2-0.2-0.1-0.6,0.1-0.7l2.1-1.5c0.2-0.2,0.6-0.1,0.7,0.1c0.2,0.2,0.1,0.6-0.1,0.7l-2.1,1.5
			C173.2,175.3,173.1,175.3,173,175.3z M177.1,172.4c-0.2,0-0.3-0.1-0.4-0.2c-0.2-0.2-0.1-0.6,0.1-0.7l2.1-1.5
			c0.2-0.2,0.6-0.1,0.7,0.1c0.2,0.2,0.1,0.6-0.1,0.7l-2.1,1.5C177.3,172.4,177.2,172.4,177.1,172.4z M181.3,169.5
			c-0.2,0-0.3-0.1-0.4-0.2c-0.2-0.2-0.1-0.6,0.1-0.7l2.1-1.5c0.2-0.2,0.6-0.1,0.7,0.1c0.2,0.2,0.1,0.6-0.1,0.7l-2.1,1.5
			C181.5,169.5,181.4,169.5,181.3,169.5z M185.4,166.6c-0.2,0-0.3-0.1-0.4-0.2c-0.2-0.2-0.1-0.6,0.1-0.7l2.1-1.5
			c0.2-0.2,0.6-0.1,0.7,0.1c0.2,0.2,0.1,0.6-0.1,0.7l-2.1,1.5C185.6,166.6,185.5,166.6,185.4,166.6z M189.5,163.7
			c-0.2,0-0.3-0.1-0.4-0.2c-0.2-0.2-0.1-0.6,0.1-0.7l2.1-1.5c0.2-0.2,0.6-0.1,0.7,0.1c0.2,0.2,0.1,0.6-0.1,0.7l-2.1,1.5
			C189.8,163.7,189.7,163.7,189.5,163.7z M193.7,160.8c-0.2,0-0.3-0.1-0.4-0.2c-0.2-0.2-0.1-0.6,0.1-0.7l2.1-1.5
			c0.2-0.2,0.6-0.1,0.7,0.1c0.2,0.2,0.1,0.6-0.1,0.7l-2.1,1.5C193.9,160.8,193.8,160.8,193.7,160.8z M197.8,157.9
			c-0.2,0-0.3-0.1-0.4-0.2c-0.2-0.2-0.1-0.6,0.1-0.7l2.1-1.5c0.2-0.2,0.6-0.1,0.7,0.1c0.2,0.2,0.1,0.6-0.1,0.7l-2.1,1.5
			C198,157.9,197.9,157.9,197.8,157.9z"/>
	</g>
	<g>
		<path class="st4" d="M150.1,230.9c-0.2,0-0.3-0.1-0.4-0.2c-0.2-0.2-0.1-0.6,0.1-0.7l2-1.6c0.2-0.2,0.6-0.1,0.7,0.1
			c0.2,0.2,0.1,0.6-0.1,0.7l-2,1.6C150.3,230.8,150.2,230.9,150.1,230.9z M154.1,227.7c-0.2,0-0.3-0.1-0.4-0.2
			c-0.2-0.2-0.1-0.6,0.1-0.7l2-1.6c0.2-0.2,0.6-0.1,0.7,0.1c0.2,0.2,0.1,0.6-0.1,0.7l-2,1.6C154.3,227.7,154.2,227.7,154.1,227.7z
			 M158.1,224.6c-0.2,0-0.3-0.1-0.4-0.2c-0.2-0.2-0.1-0.6,0.1-0.7l2-1.6c0.2-0.2,0.6-0.1,0.7,0.1c0.2,0.2,0.1,0.6-0.1,0.7l-2,1.6
			C158.3,224.6,158.2,224.6,158.1,224.6z M162,221.5c-0.2,0-0.3-0.1-0.4-0.2c-0.2-0.2-0.1-0.6,0.1-0.7l2-1.6
			c0.2-0.2,0.6-0.1,0.7,0.1c0.2,0.2,0.1,0.6-0.1,0.7l-2,1.6C162.3,221.4,162.1,221.5,162,221.5z M166,218.4c-0.2,0-0.3-0.1-0.4-0.2
			c-0.2-0.2-0.1-0.6,0.1-0.7l2-1.6c0.2-0.2,0.6-0.1,0.7,0.1c0.2,0.2,0.1,0.6-0.1,0.7l-2,1.6C166.2,218.3,166.1,218.4,166,218.4z
			 M170,215.2c-0.2,0-0.3-0.1-0.4-0.2c-0.2-0.2-0.1-0.6,0.1-0.7l2-1.6c0.2-0.2,0.6-0.1,0.7,0.1c0.2,0.2,0.1,0.6-0.1,0.7l-2,1.6
			C170.2,215.2,170.1,215.2,170,215.2z M173.9,212.1c-0.2,0-0.3-0.1-0.4-0.2c-0.2-0.2-0.1-0.6,0.1-0.7l2-1.6
			c0.2-0.2,0.6-0.1,0.7,0.1c0.2,0.2,0.1,0.6-0.1,0.7l-2,1.6C174.2,212.1,174.1,212.1,173.9,212.1z M177.9,209
			c-0.2,0-0.3-0.1-0.4-0.2c-0.2-0.2-0.1-0.6,0.1-0.7l2-1.6c0.2-0.2,0.6-0.1,0.7,0.1c0.2,0.2,0.1,0.6-0.1,0.7l-2,1.6
			C178.1,208.9,178,209,177.9,209z M181.9,205.8c-0.2,0-0.3-0.1-0.4-0.2c-0.2-0.2-0.1-0.6,0.1-0.7l2-1.6c0.2-0.2,0.6-0.1,0.7,0.1
			c0.2,0.2,0.1,0.6-0.1,0.7l-2,1.6C182.1,205.8,182,205.8,181.9,205.8z M185.9,202.7c-0.2,0-0.3-0.1-0.4-0.2
			c-0.2-0.2-0.1-0.6,0.1-0.7l2-1.6c0.2-0.2,0.6-0.1,0.7,0.1c0.2,0.2,0.1,0.6-0.1,0.7l-2,1.6C186.1,202.7,186,202.7,185.9,202.7z
			 M189.8,199.6c-0.2,0-0.3-0.1-0.4-0.2c-0.2-0.2-0.1-0.6,0.1-0.7l2-1.6c0.2-0.2,0.6-0.1,0.7,0.1c0.2,0.2,0.1,0.6-0.1,0.7l-2,1.6
			C190.1,199.5,189.9,199.6,189.8,199.6z M193.8,196.4c-0.2,0-0.3-0.1-0.4-0.2c-0.2-0.2-0.1-0.6,0.1-0.7l2-1.6
			c0.2-0.2,0.6-0.1,0.7,0.1c0.2,0.2,0.1,0.6-0.1,0.7l-2,1.6C194,196.4,193.9,196.4,193.8,196.4z M197.8,193.3
			c-0.2,0-0.3-0.1-0.4-0.2c-0.2-0.2-0.1-0.6,0.1-0.7l2-1.6c0.2-0.2,0.6-0.1,0.7,0.1c0.2,0.2,0.1,0.6-0.1,0.7l-2,1.6
			C198,193.3,197.9,193.3,197.8,193.3z M201.7,190.2c-0.2,0-0.3-0.1-0.4-0.2c-0.2-0.2-0.1-0.6,0.1-0.7l2-1.6
			c0.2-0.2,0.6-0.1,0.7,0.1c0.2,0.2,0.1,0.6-0.1,0.7l-2,1.6C202,190.1,201.9,190.2,201.7,190.2z M205.7,187c-0.2,0-0.3-0.1-0.4-0.2
			c-0.2-0.2-0.1-0.6,0.1-0.7l2-1.6c0.2-0.2,0.6-0.1,0.7,0.1c0.2,0.2,0.1,0.6-0.1,0.7l-2,1.6C205.9,187,205.8,187,205.7,187z
			 M209.7,183.9c-0.2,0-0.3-0.1-0.4-0.2c-0.2-0.2-0.1-0.6,0.1-0.7l2-1.6c0.2-0.2,0.6-0.1,0.7,0.1c0.2,0.2,0.1,0.6-0.1,0.7l-2,1.6
			C209.9,183.9,209.8,183.9,209.7,183.9z"/>
	</g>
	<g>
		<g>
			<ellipse transform="matrix(0.3827 -0.9239 0.9239 0.3827 -45.2582 413.1389)" cx="286.5" cy="240.4" rx="4.3" ry="4.3"/>
		</g>
		<g>
			<path class="st5" d="M287.3,243.5c-2.3,0-4.3-1.9-4.3-4.3c0-0.6,0.1-1.2,0.4-1.7c-0.7,0.8-1.2,1.8-1.2,2.9c0,2.3,1.9,4.3,4.3,4.3
				c1.7,0,3.2-1,3.9-2.5C289.6,243,288.5,243.5,287.3,243.5z"/>
		</g>
	</g>
	<g>
		<g>
			<ellipse cx="315.6" cy="253.4" rx="4.3" ry="4.3"/>
		</g>
		<g>
			<path class="st5" d="M316.4,256.4c-2.3,0-4.3-1.9-4.3-4.3c0-0.6,0.1-1.2,0.4-1.7c-0.7,0.8-1.2,1.8-1.2,2.9c0,2.3,1.9,4.3,4.3,4.3
				c1.7,0,3.2-1,3.9-2.5C318.7,255.9,317.6,256.4,316.4,256.4z"/>
		</g>
	</g>
	<g>
		<g>
			<ellipse cx="345" cy="265.9" rx="4.3" ry="4.3"/>
		</g>
		<g>
			<path class="st5" d="M345.8,269c-2.3,0-4.3-1.9-4.3-4.3c0-0.6,0.1-1.2,0.4-1.7c-0.7,0.8-1.2,1.8-1.2,2.9c0,2.3,1.9,4.3,4.3,4.3
				c1.7,0,3.2-1,3.9-2.5C348.1,268.5,347,269,345.8,269z"/>
		</g>
	</g>
	<g>
		<path class="st6" d="M354,276.9c-0.1,0-0.1,0-0.2,0c-0.4-0.2-0.9-0.4-1.4-0.6c-0.3-0.1-0.4-0.4-0.3-0.7c0.1-0.3,0.4-0.4,0.7-0.3
			c0.5,0.2,0.9,0.4,1.4,0.6c0.3,0.1,0.4,0.4,0.3,0.7C354.4,276.8,354.2,276.9,354,276.9z M350.3,275.4c-0.1,0-0.1,0-0.2,0
			c-0.7-0.3-1.5-0.6-2.3-1c-0.3-0.1-0.4-0.4-0.3-0.7c0.1-0.3,0.4-0.4,0.7-0.3c0.8,0.3,1.6,0.7,2.3,1c0.3,0.1,0.4,0.4,0.3,0.7
			C350.7,275.2,350.5,275.4,350.3,275.4z M345.6,273.4c-0.1,0-0.1,0-0.2,0c-0.8-0.3-1.5-0.6-2.3-1c-0.3-0.1-0.4-0.4-0.3-0.7
			c0.1-0.3,0.4-0.4,0.7-0.3c0.8,0.3,1.6,0.7,2.3,1c0.3,0.1,0.4,0.4,0.3,0.7C346,273.3,345.8,273.4,345.6,273.4z M340.9,271.4
			c-0.1,0-0.1,0-0.2,0c-0.8-0.3-1.5-0.6-2.3-1c-0.3-0.1-0.4-0.4-0.3-0.7c0.1-0.3,0.4-0.4,0.7-0.3c0.8,0.3,1.6,0.7,2.3,1
			c0.3,0.1,0.4,0.4,0.3,0.7C341.3,271.3,341.1,271.4,340.9,271.4z M336.2,269.5c-0.1,0-0.1,0-0.2,0l-2.3-1c-0.3-0.1-0.4-0.4-0.3-0.7
			c0.1-0.3,0.4-0.4,0.7-0.3l2.3,1c0.3,0.1,0.4,0.4,0.3,0.7C336.6,269.3,336.4,269.5,336.2,269.5z M331.6,267.5c-0.1,0-0.1,0-0.2,0
			l-2.3-1c-0.3-0.1-0.4-0.4-0.3-0.7c0.1-0.3,0.4-0.4,0.7-0.3l2.3,1c0.3,0.1,0.4,0.4,0.3,0.7C332,267.4,331.8,267.5,331.6,267.5z
			 M326.9,265.6c-0.1,0-0.1,0-0.2,0l-2.3-1c-0.3-0.1-0.4-0.4-0.3-0.7c0.1-0.3,0.4-0.4,0.7-0.3l2.3,1c0.3,0.1,0.4,0.4,0.3,0.7
			C327.3,265.5,327.1,265.6,326.9,265.6z M322.2,263.6c-0.1,0-0.1,0-0.2,0l-2.3-1c-0.3-0.1-0.4-0.4-0.3-0.7c0.1-0.3,0.4-0.4,0.7-0.3
			l2.3,1c0.3,0.1,0.4,0.4,0.3,0.7C322.6,263.5,322.4,263.6,322.2,263.6z M317.5,261.7c-0.1,0-0.1,0-0.2,0l-2.3-1
			c-0.3-0.1-0.4-0.4-0.3-0.7c0.1-0.3,0.4-0.4,0.7-0.3l2.3,1c0.3,0.1,0.4,0.4,0.3,0.7C317.9,261.6,317.7,261.7,317.5,261.7z
			 M312.9,259.8c-0.1,0-0.1,0-0.2,0l-2.3-1c-0.3-0.1-0.4-0.4-0.3-0.7c0.1-0.3,0.4-0.4,0.7-0.3l2.3,1c0.3,0.1,0.4,0.4,0.3,0.7
			C313.3,259.6,313.1,259.8,312.9,259.8z M308.2,257.8c-0.1,0-0.1,0-0.2,0l-2.3-1c-0.3-0.1-0.4-0.4-0.3-0.7s0.4-0.4,0.7-0.3l2.3,1
			c0.3,0.1,0.4,0.4,0.3,0.7C308.6,257.7,308.4,257.8,308.2,257.8z M303.5,255.9c-0.1,0-0.1,0-0.2,0l-2.3-1c-0.3-0.1-0.4-0.4-0.3-0.7
			s0.4-0.4,0.7-0.3l2.3,1c0.3,0.1,0.4,0.4,0.3,0.7C303.9,255.8,303.7,255.9,303.5,255.9z M298.8,254c-0.1,0-0.1,0-0.2,0l-2.3-1
			c-0.3-0.1-0.4-0.4-0.3-0.7s0.4-0.4,0.7-0.3l2.3,1c0.3,0.1,0.4,0.4,0.3,0.7C299.2,253.9,299,254,298.8,254z M294.1,252
			c-0.1,0-0.1,0-0.2,0l-2.3-1c-0.3-0.1-0.4-0.4-0.3-0.7s0.4-0.4,0.7-0.3l2.3,1c0.3,0.1,0.4,0.4,0.3,0.7
			C294.5,251.9,294.3,252,294.1,252z M289.4,250.1c-0.1,0-0.1,0-0.2,0l-2.3-1c-0.3-0.1-0.4-0.4-0.3-0.7s0.4-0.4,0.7-0.3l2.3,1
			c0.3,0.1,0.4,0.4,0.3,0.7C289.9,250,289.7,250.1,289.4,250.1z M284.8,248.2c-0.1,0-0.1,0-0.2,0l-2.3-1c-0.3-0.1-0.4-0.4-0.3-0.7
			s0.4-0.4,0.7-0.3l2.3,1c0.3,0.1,0.4,0.4,0.3,0.7C285.2,248.1,285,248.2,284.8,248.2z M280.1,246.3c-0.1,0-0.1,0-0.2,0l-2.3-1
			c-0.3-0.1-0.4-0.4-0.3-0.7s0.4-0.4,0.7-0.3l2.3,1c0.3,0.1,0.4,0.4,0.3,0.7C280.5,246.2,280.3,246.3,280.1,246.3z M275.4,244.4
			c-0.1,0-0.1,0-0.2,0l-2.3-1c-0.3-0.1-0.4-0.4-0.3-0.7s0.4-0.4,0.7-0.3l2.3,1c0.3,0.1,0.4,0.4,0.3,0.7
			C275.8,244.2,275.6,244.4,275.4,244.4z M270.7,242.4c-0.1,0-0.1,0-0.2,0l-2.3-1c-0.3-0.1-0.4-0.4-0.3-0.7s0.4-0.4,0.7-0.3l2.3,1
			c0.3,0.1,0.4,0.4,0.3,0.7C271.1,242.3,270.9,242.4,270.7,242.4z M266,240.5c-0.1,0-0.1,0-0.2,0l-2.3-1c-0.3-0.1-0.4-0.4-0.3-0.7
			s0.4-0.4,0.7-0.3l2.3,1c0.3,0.1,0.4,0.4,0.3,0.7C266.4,240.4,266.2,240.5,266,240.5z M261.3,238.6c-0.1,0-0.1,0-0.2,0l-2.4-1
			c-0.3-0.1-0.4-0.4-0.3-0.7s0.4-0.4,0.7-0.3l2.4,1c0.3,0.1,0.4,0.4,0.3,0.7C261.7,238.5,261.5,238.6,261.3,238.6z"/>
	</g>
	<g>
		<path class="st6" d="M378.4,284.8L378.4,284.8c-0.8,0-1.7,0-2.6-0.1c-0.3,0-0.5-0.3-0.5-0.6c0-0.3,0.3-0.5,0.6-0.5
			c0.9,0,1.7,0.1,2.5,0.1c0.3,0,0.5,0.2,0.5,0.5C379,284.5,378.7,284.8,378.4,284.8z M381,284.7c-0.3,0-0.5-0.2-0.5-0.5
			s0.2-0.5,0.5-0.5c0.8,0,1.7-0.1,2.5-0.2c0.3,0,0.5,0.2,0.6,0.5c0,0.3-0.2,0.5-0.5,0.6C382.7,284.6,381.9,284.7,381,284.7
			L381,284.7z M373.4,284.5L373.4,284.5c-0.8-0.1-1.7-0.2-2.6-0.3c-0.3,0-0.5-0.3-0.5-0.6c0-0.3,0.3-0.5,0.6-0.5
			c0.9,0.1,1.7,0.2,2.5,0.2c0.3,0,0.5,0.3,0.5,0.6C373.9,284.3,373.7,284.5,373.4,284.5z M386,284.2c-0.3,0-0.5-0.2-0.5-0.4
			c0-0.3,0.2-0.6,0.4-0.6c0.8-0.1,1.6-0.3,2.5-0.5c0.3-0.1,0.6,0.1,0.6,0.4c0.1,0.3-0.1,0.6-0.4,0.6
			C387.8,284,386.9,284.1,386,284.2C386.1,284.2,386,284.2,386,284.2z M368.4,284C368.3,284,368.3,284,368.4,284
			c-0.9-0.1-1.7-0.2-2.6-0.4c-0.3,0-0.5-0.3-0.4-0.6c0-0.3,0.3-0.5,0.6-0.4c0.9,0.1,1.7,0.2,2.5,0.3c0.3,0,0.5,0.3,0.5,0.6
			C368.9,283.8,368.6,284,368.4,284z M363.4,283.2C363.3,283.2,363.3,283.2,363.4,283.2c-0.9-0.1-1.7-0.3-2.6-0.4
			c-0.3,0-0.5-0.3-0.4-0.6c0-0.3,0.3-0.5,0.6-0.4c0.8,0.1,1.7,0.3,2.5,0.4c0.3,0,0.5,0.3,0.4,0.6C363.8,283,363.6,283.2,363.4,283.2
			z M390.9,283.2c-0.2,0-0.4-0.2-0.5-0.4c-0.1-0.3,0.1-0.6,0.4-0.7c0.8-0.2,1.6-0.5,2.4-0.8c0.3-0.1,0.6,0,0.7,0.3s0,0.6-0.3,0.7
			c-0.8,0.3-1.6,0.5-2.4,0.8C391,283.2,391,283.2,390.9,283.2z M358.4,282.4C358.3,282.4,358.3,282.4,358.4,282.4
			c-0.9-0.1-1.7-0.3-2.6-0.5c-0.3-0.1-0.5-0.3-0.4-0.6c0.1-0.3,0.3-0.5,0.6-0.4c0.8,0.2,1.7,0.3,2.5,0.5c0.3,0,0.5,0.3,0.4,0.6
			C358.8,282.2,358.6,282.4,358.4,282.4z M395.7,281.5c-0.2,0-0.4-0.1-0.5-0.3c-0.1-0.3,0-0.6,0.3-0.7c0.8-0.3,1.5-0.7,2.3-1
			c0.3-0.1,0.6,0,0.7,0.2c0.1,0.3,0,0.6-0.2,0.7c-0.8,0.4-1.6,0.7-2.3,1.1C395.8,281.5,395.8,281.5,395.7,281.5z M353.4,281.4h-0.1
			c-0.8-0.2-1.6-0.4-2.5-0.6c-0.3-0.1-0.5-0.4-0.4-0.6c0.1-0.3,0.4-0.5,0.6-0.4c0.8,0.2,1.7,0.4,2.4,0.6c0.3,0.1,0.5,0.3,0.4,0.6
			C353.9,281.3,353.7,281.4,353.4,281.4z M348.5,280.1h-0.1c-0.8-0.2-1.6-0.5-2.4-0.7c-0.3-0.1-0.4-0.4-0.4-0.7
			c0.1-0.3,0.4-0.4,0.7-0.4c0.8,0.2,1.6,0.5,2.4,0.7c0.3,0.1,0.4,0.4,0.4,0.6C349,280,348.7,280.1,348.5,280.1z M400.2,279.3
			c-0.2,0-0.4-0.1-0.5-0.3c-0.1-0.3,0-0.6,0.2-0.7l0.3-0.2c0.3-0.1,0.6,0,0.7,0.2c0.1,0.3,0,0.6-0.2,0.7l-0.3,0.2
			C400.4,279.2,400.3,279.3,400.2,279.3z M343.7,278.7c-0.1,0-0.1,0-0.2,0c-0.8-0.2-1.6-0.5-2.4-0.8c-0.3-0.1-0.4-0.4-0.3-0.7
			c0.1-0.3,0.4-0.4,0.7-0.3c0.8,0.3,1.6,0.5,2.4,0.8c0.3,0.1,0.4,0.4,0.3,0.7C344.1,278.6,343.9,278.7,343.7,278.7z M338.9,277.1
			c-0.1,0-0.1,0-0.2,0c-0.8-0.3-1.6-0.5-2.4-0.8c-0.3-0.1-0.4-0.4-0.3-0.7c0.1-0.3,0.4-0.4,0.7-0.3c0.8,0.3,1.6,0.6,2.4,0.8
			c0.3,0.1,0.4,0.4,0.3,0.7C339.3,277,339.1,277.1,338.9,277.1z M334.1,275.5c-0.1,0-0.1,0-0.2,0c-0.8-0.3-1.6-0.6-2.4-0.9
			c-0.3-0.1-0.4-0.4-0.3-0.7c0.1-0.3,0.4-0.4,0.7-0.3c0.8,0.3,1.6,0.6,2.4,0.9c0.3,0.1,0.4,0.4,0.3,0.7
			C334.5,275.3,334.3,275.5,334.1,275.5z M329.3,273.7c-0.1,0-0.1,0-0.2,0c-0.8-0.3-1.6-0.6-2.4-0.9c-0.3-0.1-0.4-0.4-0.3-0.7
			c0.1-0.3,0.4-0.4,0.7-0.3c0.8,0.3,1.6,0.6,2.4,0.9c0.3,0.1,0.4,0.4,0.3,0.7C329.7,273.6,329.5,273.7,329.3,273.7z M324.6,271.9
			c-0.1,0-0.1,0-0.2,0c-0.8-0.3-1.6-0.6-2.4-0.9c-0.3-0.1-0.4-0.4-0.3-0.7c0.1-0.3,0.4-0.4,0.7-0.3c0.8,0.3,1.6,0.6,2.4,0.9
			c0.3,0.1,0.4,0.4,0.3,0.7C325,271.7,324.8,271.9,324.6,271.9z M319.9,270c-0.1,0-0.1,0-0.2,0c-0.8-0.3-1.6-0.6-2.3-1
			c-0.3-0.1-0.4-0.4-0.3-0.7c0.1-0.3,0.4-0.4,0.7-0.3c0.8,0.3,1.6,0.6,2.3,1c0.3,0.1,0.4,0.4,0.3,0.7
			C320.3,269.9,320.1,270,319.9,270z M315.2,268.1c-0.1,0-0.1,0-0.2,0c-0.8-0.3-1.6-0.7-2.3-1c-0.3-0.1-0.4-0.4-0.3-0.7
			c0.1-0.3,0.4-0.4,0.7-0.3c0.8,0.3,1.6,0.7,2.3,1c0.3,0.1,0.4,0.4,0.3,0.7C315.6,268,315.4,268.1,315.2,268.1z M310.6,266.1
			c-0.1,0-0.1,0-0.2,0c-0.8-0.3-1.6-0.7-2.3-1c-0.3-0.1-0.4-0.4-0.3-0.7c0.1-0.3,0.4-0.4,0.7-0.3c0.8,0.3,1.5,0.7,2.3,1
			c0.3,0.1,0.4,0.4,0.3,0.7C311,266,310.8,266.1,310.6,266.1z M305.9,264.1c-0.1,0-0.1,0-0.2,0c-0.8-0.3-1.6-0.7-2.3-1
			c-0.3-0.1-0.4-0.4-0.3-0.7c0.1-0.3,0.4-0.4,0.7-0.3c0.8,0.3,1.5,0.7,2.3,1c0.3,0.1,0.4,0.4,0.3,0.7
			C306.3,264,306.1,264.1,305.9,264.1z M301.3,262.1c-0.1,0-0.1,0-0.2,0c-0.8-0.3-1.6-0.7-2.3-1c-0.3-0.1-0.4-0.4-0.3-0.7
			c0.1-0.3,0.4-0.4,0.7-0.3c0.8,0.3,1.5,0.7,2.3,1c0.3,0.1,0.4,0.4,0.3,0.7C301.7,262,301.5,262.1,301.3,262.1z M296.7,260
			c-0.1,0-0.1,0-0.2,0c-0.8-0.4-1.6-0.7-2.3-1c-0.3-0.1-0.4-0.4-0.3-0.7c0.1-0.3,0.4-0.4,0.7-0.3c0.7,0.3,1.5,0.7,2.3,1
			c0.3,0.1,0.4,0.4,0.3,0.7C297,259.9,296.9,260,296.7,260z M292,257.9c-0.1,0-0.1,0-0.2,0l-2.3-1c-0.3-0.1-0.4-0.4-0.3-0.7
			c0.1-0.3,0.4-0.4,0.7-0.3l2.3,1c0.3,0.1,0.4,0.4,0.3,0.7C292.4,257.8,292.2,257.9,292,257.9z M287.4,255.9c-0.1,0-0.1,0-0.2,0
			c-0.8-0.3-1.5-0.7-2.3-1c-0.3-0.1-0.4-0.4-0.3-0.7s0.4-0.4,0.7-0.3c0.8,0.3,1.6,0.7,2.3,1c0.3,0.1,0.4,0.4,0.3,0.7
			C287.8,255.8,287.6,255.9,287.4,255.9z M282.8,253.9c-0.1,0-0.1,0-0.2,0c-0.8-0.3-1.6-0.6-2.3-1c-0.3-0.1-0.4-0.4-0.3-0.7
			s0.4-0.4,0.7-0.3c0.8,0.3,1.6,0.6,2.3,1c0.3,0.1,0.4,0.4,0.3,0.7C283.2,253.8,283,253.9,282.8,253.9z M278.1,252
			c-0.1,0-0.1,0-0.2,0c-0.8-0.3-1.6-0.6-2.4-0.9c-0.3-0.1-0.4-0.4-0.3-0.7s0.4-0.4,0.7-0.3c0.8,0.3,1.6,0.6,2.4,0.9
			c0.3,0.1,0.4,0.4,0.3,0.7C278.5,251.9,278.3,252,278.1,252z M273.4,250.1c-0.1,0-0.1,0-0.2,0c-0.8-0.3-1.6-0.6-2.4-0.9
			c-0.3-0.1-0.4-0.4-0.3-0.7s0.4-0.4,0.7-0.3c0.8,0.3,1.6,0.6,2.4,0.9c0.3,0.1,0.4,0.4,0.3,0.7C273.8,250,273.6,250.1,273.4,250.1z
			 M268.6,248.3c-0.1,0-0.1,0-0.2,0c-0.8-0.3-1.6-0.6-2.4-0.9c-0.3-0.1-0.4-0.4-0.3-0.7s0.4-0.4,0.7-0.3c0.8,0.3,1.6,0.6,2.4,0.9
			c0.3,0.1,0.4,0.4,0.3,0.7C269,248.2,268.8,248.3,268.6,248.3z M263.9,246.6c-0.1,0-0.1,0-0.2,0c-0.8-0.3-1.6-0.6-2.4-0.9
			c-0.3-0.1-0.4-0.4-0.3-0.7s0.4-0.4,0.7-0.3c0.8,0.3,1.6,0.6,2.4,0.9c0.3,0.1,0.4,0.4,0.3,0.7C264.3,246.5,264.1,246.6,263.9,246.6
			z M259.1,244.9c-0.1,0-0.1,0-0.2,0c-0.9-0.3-1.7-0.6-2.4-0.8c-0.3-0.1-0.4-0.4-0.3-0.7s0.4-0.4,0.7-0.3c0.7,0.3,1.5,0.5,2.4,0.8
			c0.3,0.1,0.4,0.4,0.3,0.7C259.5,244.8,259.3,244.9,259.1,244.9z M254.3,243.3c-0.1,0-0.1,0-0.2,0c-1.5-0.5-2.4-0.8-2.4-0.8
			c-0.3-0.1-0.4-0.4-0.3-0.7c0.1-0.3,0.4-0.4,0.7-0.3c0,0,0.9,0.3,2.4,0.8c0.3,0.1,0.4,0.4,0.3,0.7
			C254.7,243.1,254.5,243.3,254.3,243.3z"/>
	</g>
	<g>
		<g>
			<path class="st2" d="M227.1,269.9c0,0.9-0.7,1.6-1.6,1.6c-0.9,0-1.6-0.7-1.6-1.6s0.7-1.6,1.6-1.6
				C226.4,268.3,227.1,269,227.1,269.9z"/>
		</g>
		<g>
			<path class="st2" d="M240.9,272.5c0,0.9-0.7,1.6-1.6,1.6c-0.9,0-1.6-0.7-1.6-1.6s0.7-1.6,1.6-1.6S240.9,271.6,240.9,272.5z"/>
		</g>
		<g>
			<path class="st2" d="M254.5,275c0,0.9-0.7,1.6-1.6,1.6c-0.9,0-1.6-0.7-1.6-1.6s0.7-1.6,1.6-1.6S254.5,274.1,254.5,275z"/>
		</g>
		<g>
			<circle class="st2" cx="266.7" cy="276.6" r="1.6"/>
		</g>
		<g>
			<circle class="st2" cx="279.6" cy="279.7" r="1.6"/>
		</g>
		<g>
			<path class="st2" d="M294.9,282.3c0,0.9-0.7,1.6-1.6,1.6s-1.6-0.7-1.6-1.6s0.7-1.6,1.6-1.6S294.9,281.5,294.9,282.3z"/>
		</g>
		<g>
			<circle class="st2" cx="306" cy="285" r="1.6"/>
		</g>
		<g>
			<path class="st2" d="M320.7,287.1c0,0.9-0.7,1.6-1.6,1.6s-1.6-0.7-1.6-1.6s0.7-1.6,1.6-1.6S320.7,286.3,320.7,287.1z"/>
		</g>
		<g>
			<path class="st2" d="M333.3,288.7c0,0.9-0.7,1.6-1.6,1.6s-1.6-0.7-1.6-1.6s0.7-1.6,1.6-1.6C332.6,287.1,333.3,287.8,333.3,288.7z
				"/>
		</g>
		<g>
			<path class="st2" d="M346.1,289.3c0,0.9-0.7,1.6-1.6,1.6s-1.6-0.7-1.6-1.6s0.7-1.6,1.6-1.6S346.1,288.4,346.1,289.3z"/>
		</g>
		<g>
			<circle class="st2" cx="358.3" cy="290.3" r="1.6"/>
		</g>
		<g>
			<circle class="st2" cx="371.3" cy="290.3" r="1.6"/>
		</g>
		<g>
			<path class="st2" d="M385.3,290.3c0,0.9-0.7,1.6-1.6,1.6s-1.6-0.7-1.6-1.6s0.7-1.6,1.6-1.6C384.6,288.7,385.3,289.4,385.3,290.3z
				"/>
		</g>
		<g>
			<path class="st2" d="M399,289.3c0,0.9-0.7,1.6-1.6,1.6s-1.6-0.7-1.6-1.6s0.7-1.6,1.6-1.6C398.3,287.7,399,288.4,399,289.3z"/>
		</g>
		<g>
			<path class="st2" d="M410.4,287.1c0,0.9-0.7,1.6-1.6,1.6s-1.6-0.7-1.6-1.6s0.7-1.6,1.6-1.6C409.7,285.5,410.4,286.3,410.4,287.1z
				"/>
		</g>
		<g>
			<path class="st2" d="M422.2,285c0,0.9-0.7,1.6-1.6,1.6s-1.6-0.7-1.6-1.6s0.7-1.6,1.6-1.6S422.2,284.1,422.2,285z"/>
		</g>
		<g>
			<circle class="st2" cx="430.7" cy="283.4" r="1.6"/>
		</g>
	</g>
	<g>
		<ellipse class="st7" cx="184" cy="147.3" rx="4.7" ry="4.7"/>
	</g>
	<g>
		<g>
			<path d="M184,139.8c-4.1,0-7.4,3.3-7.4,7.4c0,4.1,3.3,7.4,7.4,7.4c4.1,0,7.4-3.3,7.4-7.4C191.5,143.1,188.1,139.8,184,139.8z
				 M184,151.1c-2.2,0-3.9-1.8-3.9-3.9c0-2.2,1.8-3.9,3.9-3.9c2.2,0,3.9,1.8,3.9,3.9C188,149.4,186.2,151.1,184,151.1z"/>
		</g>
		<g>
			<path class="st5" d="M184,142.2c-2.7,0-4.9,2.2-4.9,4.9s2.2,4.9,4.9,4.9s4.9-2.2,4.9-4.9S186.7,142.2,184,142.2z M184,151.1
				c-2.2,0-3.9-1.8-3.9-3.9c0-2.2,1.8-3.9,3.9-3.9c2.2,0,3.9,1.8,3.9,3.9C188,149.4,186.2,151.1,184,151.1z"/>
		</g>
	</g>
	<g>
		<g>
			<path d="M194.1,160c-4.1,0-7.4,3.3-7.4,7.4c0,4.1,3.3,7.4,7.4,7.4c4.1,0,7.4-3.3,7.4-7.4S198.2,160,194.1,160z M194.1,171.4
				c-2.2,0-3.9-1.8-3.9-3.9c0-2.2,1.8-3.9,3.9-3.9c2.2,0,3.9,1.8,3.9,3.9C198,169.6,196.2,171.4,194.1,171.4z"/>
		</g>
		<g>
			<path class="st5" d="M194.1,162.4c-2.7,0-4.9,2.2-4.9,4.9s2.2,4.9,4.9,4.9s4.9-2.2,4.9-4.9C199,164.6,196.8,162.4,194.1,162.4z
				 M194.1,171.4c-2.2,0-3.9-1.8-3.9-3.9c0-2.2,1.8-3.9,3.9-3.9c2.2,0,3.9,1.8,3.9,3.9C198,169.6,196.2,171.4,194.1,171.4z"/>
		</g>
	</g>
	<g>
		<g>
			<path d="M202.2,179.4c-4.1,0-7.4,3.3-7.4,7.4c0,4.1,3.3,7.4,7.4,7.4c4.1,0,7.4-3.3,7.4-7.4C209.6,182.8,206.3,179.4,202.2,179.4z
				 M202.2,190.8c-2.2,0-3.9-1.8-3.9-3.9c0-2.2,1.8-3.9,3.9-3.9c2.2,0,3.9,1.8,3.9,3.9C206.1,189,204.4,190.8,202.2,190.8z"/>
		</g>
		<g>
			<path class="st5" d="M202.2,181.9c-2.7,0-4.9,2.2-4.9,4.9s2.2,4.9,4.9,4.9s4.9-2.2,4.9-4.9C207.1,184,204.9,181.9,202.2,181.9z
				 M202.2,190.8c-2.2,0-3.9-1.8-3.9-3.9c0-2.2,1.8-3.9,3.9-3.9c2.2,0,3.9,1.8,3.9,3.9C206.1,189,204.4,190.8,202.2,190.8z"/>
		</g>
	</g>
	<g>
		<path class="st2" d="M34.8,246.1c0,0,76-4.1,120.2-14.8c44.2-10.8,69.7-23,85.1-20.3c16.1,2.8,27,4.4,30.3,10.8
			c3.1,6-8.6,8.6-25.1,21.5c-16.5,12.9-32.7,22-32.7,31.8s9.1,16.2,32.7,20.1c23.7,3.8,113.7,10.3,143.8,4.5L376,320.5l-212.4,3.1
			L49.3,278.1L34.8,246.1z"/>
		<path d="M163.5,326.2c-0.3,0-0.7-0.1-1-0.2L48.3,280.6c-0.7-0.3-1.2-0.8-1.5-1.4l-14.6-32c-0.4-0.8-0.3-1.8,0.2-2.6
			s1.3-1.3,2.2-1.3c0.8,0,76.2-4.2,119.7-14.7c16.6-4,30.3-8.2,42.4-11.9c20.2-6.2,33.6-10.2,43.8-8.5c0.8,0.1,1.6,0.3,2.4,0.4
			c15.8,2.7,26.2,4.5,29.9,11.8c1,2,1.6,5-1.7,8.3c-1.9,1.9-4.9,3.7-8.6,6c-4.3,2.6-9.6,5.9-15.5,10.6c-3.7,2.9-7.4,5.6-10.9,8.2
			c-11.1,8.2-20.7,15.2-20.7,21.4c0,5.8,3.5,13,30.4,17.4c10.9,1.8,38.8,4.4,69.2,5.8c34.7,1.6,60.8,1.2,73.7-1.3
			c1.1-0.2,2.2,0.2,2.8,1.1c0.6,0.9,0.6,2.1,0.1,3l-13.1,20.8c-0.5,0.8-1.4,1.3-2.3,1.3L163.5,326.2
			C163.6,326.2,163.6,326.2,163.5,326.2z M51.4,275.9l112.7,44.8l210.4-3.1l9.1-14.5c-19.2,2.3-50.7,1.3-68.9,0.5
			c-30.9-1.5-58.5-4.1-69.8-5.9c-12.1-1.9-20.7-4.6-26.3-8.2c-5.8-3.7-8.8-8.6-8.8-14.6c0-9,10.1-16.4,23-25.8
			c3.5-2.6,7.1-5.2,10.8-8.1c6.2-4.9,11.7-8.2,16-10.9c3.5-2.1,6.2-3.8,7.6-5.3c1.1-1.1,0.9-1.4,0.7-1.9c-2.5-4.8-12.4-6.5-26-8.9
			c-0.8-0.1-1.6-0.3-2.4-0.4c-8.9-1.5-22.5,2.6-41.2,8.3c-11.6,3.5-25.9,7.9-42.7,12c-38.1,9.3-100.4,13.6-116.7,14.6L51.4,275.9z"
			/>
	</g>
	<g>
		<g>
			<path class="st3" d="M308.3,347.5c-23.7,0-47.1-1.9-69.3-5.7c-0.2,0-0.4-0.1-0.6-0.2L176,314.9c-1.2-0.5-1.9-1.8-1.6-3
				c0.2-1.3,1.3-2.2,2.6-2.2s134.8-3.3,185.4-9.7c25.4-3.2,49.4-7,67.8-10.8c27.4-5.6,31.3-8.8,31.9-9.4c0.5-0.6,1.3-0.9,2.1-0.9
				c0.1,0,0.3,0,0.4,0c0.2,0,5.3,0.9,10.2,5.7c4.4,4.2,9.5,12.5,9.3,27.9c0,1.1-0.7,2.1-1.7,2.5c-0.2,0.1-19.4,8.3-50.3,16.3
				c-18.1,4.7-36.7,8.5-55.2,11.2C353.7,345.8,330.6,347.5,308.3,347.5z"/>
		</g>
		<path d="M483.9,293.9c-1.7-4.5-4.1-8.3-7.2-11.3c-5.4-5.3-11-6.3-11.7-6.4c-0.3,0-0.6-0.1-0.9-0.1c-1.5,0-3,0.6-4,1.8
			c-0.3,0.2-2.2,1.5-9.6,3.7c-5.6,1.6-13.1,3.4-22.2,5.3c-18.1,3.7-41.7,7.4-66.3,10.5c-50.4,6.3-183.7,9.6-185.1,9.6
			c-2.6,0.1-4.8,1.9-5.2,4.4c-0.5,2.5,0.9,5.1,3.2,6.1l62.4,26.7c0.4,0.2,0.8,0.3,1.2,0.4c22.4,3.8,45.9,5.8,69.8,5.8
			c22.5,0,45.7-1.7,69-5.1c18.6-2.7,37.3-6.5,55.5-11.2c31.1-8.1,49.9-16.1,50.7-16.4c2-0.9,3.3-2.8,3.3-5
			C486.9,305.4,485.9,299.2,483.9,293.9z M481.3,312.4c0,0-75.5,32.4-173,32.4c-22,0-45.2-1.7-68.9-5.7L177,312.4
			c0,0,134.4-3.2,185.6-9.7S459,287.3,464,281.6C464.1,281.6,481.7,284.5,481.3,312.4z"/>
	</g>
	<g>
		<g>
			<path class="st8" d="M464.1,281.6c-1.2,1.3-4.5,2.8-9.6,4.5c4.5,4.1,9.2,11.8,9,26.4c0,0-71,30.4-164.1,32.3
				c101.7,2.1,181.9-32.3,181.9-32.3C481.7,284.5,464.1,281.6,464.1,281.6z"/>
		</g>
	</g>
	<g>
		<path class="st0" d="M37.3,205.6l8.9,14.8l-1.7,22.5c0,0,58.2,44,107.5,59.7s87,18.9,98.6,20.9s41.7,1.9,37.2,20.2
			c0,0-115.6-11.9-142.9-10.5s-121.4-2.4-125.2-3.3s-6.7-29.6,0-61.6C26.3,236.2,37.3,219.5,37.3,205.6z"/>
		<path d="M287.7,346.5c-0.1,0-0.2,0-0.3,0c-1.2-0.1-115.7-11.9-142.4-10.5c-26.4,1.4-121.6-2.3-126-3.4c-2.2-0.5-3.6-2.8-4.6-7.6
			c-0.8-3.6-1.3-8.5-1.4-14.1c-0.2-7.8-0.1-23.7,4-43.1c3.4-16.1,7.8-28.4,11.4-38.3c3.5-9.6,6.2-17.3,6.2-23.7c0-1.2,0.8-2.3,2-2.6
			s2.4,0.2,3.1,1.2l8.9,14.8c0.3,0.5,0.4,1,0.4,1.6l-1.6,21c3.9,2.9,16.9,12.3,33.9,23c18.7,11.7,46.4,27.4,71.5,35.5
			c40.8,13.1,74.2,17.5,90.2,19.6c3.4,0.4,6,0.8,8,1.1c1.7,0.3,3.8,0.5,6.3,0.8c10.8,1.2,25.6,2.9,31.3,11.1
			c2.3,3.3,2.9,7.2,1.8,11.7C290,345.6,288.9,346.5,287.7,346.5z M150.2,330.3c31.6,0,118.6,8.7,135.1,10.4c0.1-1.9-0.3-3.5-1.3-5
			c-4.3-6.2-18.2-7.7-27.4-8.8c-2.5-0.3-4.7-0.5-6.6-0.8c-1.9-0.3-4.5-0.7-7.8-1.1c-16.2-2.2-49.9-6.6-91.2-19.9
			c-25.7-8.2-53.8-24.2-72.8-36.1c-20.6-12.9-35.3-24-35.5-24.1c-0.7-0.6-1.2-1.5-1.1-2.4l1.6-21.6l-4.3-7.2
			c-1.2,5.2-3.2,10.8-5.6,17.4c-3.5,9.7-7.9,21.8-11.2,37.5c-2.7,13.1-4.1,27.2-3.9,39.7c0.2,11.3,1.6,17.2,2.4,18.8
			c4.3,0.5,27.1,1.6,53.3,2.4c33.4,1.1,59.1,1.4,70.6,0.8C146.2,330.4,148.1,330.3,150.2,330.3z M21,327.6L21,327.6L21,327.6z"/>
	</g>
	<g>
		<g>
			<path class="st0" d="M38.8,271.7c2.2-10.7,4.9-19.7,7.6-27.4c-1.2-0.9-1.9-1.4-1.9-1.4l1.7-22.5l-8.9-14.8
				c0,13.9-11,30.6-17.7,62.6s-3.8,60.7,0,61.6c1,0.2,7.6,0.7,17.5,1.1C34.3,323.4,33.1,298.8,38.8,271.7z"/>
		</g>
		<g>
			<path class="st0" d="M269.7,327c1.8,0.3,4.1,0.5,6.6,0.8c-8.6-2.8-19.7-3.3-25.8-4.3c-4.9-0.8-14.6-1.9-27.9-4
				C245.8,324.2,262.6,325.8,269.7,327z"/>
		</g>
	</g>
	<g>
		<g>
			<path class="st9" d="M217.2,389.7c-74.4,0-153.4-2.1-155.6-2.2h-0.2c-2,0-12.6-0.1-23.3-2.2c-14.9-2.9-23.4-8.3-25.1-16.1
				c-3.6-16.5-4.7-35.8-4.7-36.6c0-0.3,0-0.5,0.1-0.8c0.6-2.6,3.2-7.5,8.6-7.5c0.2,0,0.5,0,0.7,0c0.4,0,40.6,3.3,70.9,3.3
				c6.2,0,11.7-0.1,16.2-0.4c2.7-0.2,6-0.2,10-0.2c39,0,131,7.7,152.8,10.3c11.3,1.3,23.5,2,36.3,2c22.1,0,46.9-2,73.7-5.9
				c51.7-7.6,99.9-24.4,104-26.9c0.4-0.3,0.9-0.4,1.4-0.4c0.2,0,0.5,0,0.7,0.1c0.7,0.2,1.3,0.7,1.7,1.4c0.3,0.5,6.8,13,6,26.2
				c-0.9,15.1-13.7,21.3-27.9,26.8c-8.6,3.3-37,10.1-72.5,16.2c-31,5.2-78,11.7-124.7,12.5C251.8,389.6,235.2,389.7,217.2,389.7z"/>
		</g>
		<path d="M487.9,306.2c-0.7-1.3-1.9-2.3-3.4-2.7c-0.5-0.1-1-0.2-1.4-0.2c-1,0-2,0.3-2.9,0.8c-1.7,1-13.9,5.6-34.1,11.4
			c-16.4,4.7-41.7,11.1-68.9,15.1c-26.7,3.9-51.4,5.9-73.3,5.9c-12.7,0-24.8-0.7-36-2c-10.7-1.3-39-3.8-70.2-6.1
			c-21.2-1.6-60.1-4.2-82.9-4.2c-4,0-7.5,0.1-10.2,0.2c-4.5,0.3-9.9,0.4-16,0.4c-30.2,0-70.3-3.2-70.7-3.3l0,0c-0.3,0-0.6,0-0.9,0
			c-3.8,0-7.1,1.8-9.3,5.1c-1.4,2.1-1.9,4.1-2,4.5c-0.1,0.5-0.2,1-0.1,1.6c0,0.8,1.1,20.3,4.8,37.1c1.9,8.9,11.1,15.1,27.2,18.2
			c11,2.1,21.8,2.2,23.8,2.2c0.1,0,0.1,0,0.2,0c3.1,0.1,81.6,2.2,155.6,2.2c18.1,0,34.6-0.1,49.2-0.4c46.9-0.8,94-7.3,125.2-12.7
			c35.7-6.1,64.3-13,73-16.4c7.3-2.8,14.8-6,20.3-10.7c5.9-4.9,9-11,9.4-18.5C495.1,319.9,488.2,306.8,487.9,306.2z M488.8,333.5
			c-0.7,12.5-10.4,18.3-26.2,24.4c-15.8,6.1-110.7,27.2-196.4,28.7c-15.6,0.3-32.3,0.4-49.1,0.4c-75.9,0-155.5-2.2-155.5-2.2
			s-0.1,0-0.2,0c-3.2,0-42.2-0.3-45.7-16.1c-3.6-16.5-4.7-36.2-4.7-36.2s1.3-5.4,6-5.4c0.2,0,0.3,0,0.5,0c0,0,40.3,3.3,71.1,3.3
			c5.9,0,11.5-0.1,16.3-0.4c2.7-0.2,6-0.2,9.9-0.2c38.9,0,130.3,7.7,152.5,10.3c10.2,1.2,22.3,2,36.6,2c20,0,44.3-1.6,74.1-6
			c51.2-7.5,100.3-24.4,105-27.2C483.1,308.8,489.5,321,488.8,333.5z"/>
	</g>
	<g>
		<path class="st4" d="M220.6,316.5c-0.3,0-0.5-0.2-0.5-0.5s0.2-0.5,0.5-0.5c0.8,0,1.6,0,2.5,0l0,0c0.3,0,0.5,0.2,0.5,0.5
			s-0.2,0.5-0.5,0.5C222.2,316.5,221.3,316.5,220.6,316.5L220.6,316.5z M218,316.5L218,316.5c-1.6,0-2.5,0-2.5,0
			c-0.3,0-0.5-0.2-0.5-0.5s0.2-0.5,0.5-0.5l0,0c0,0,0.9,0,2.5,0c0.3,0,0.5,0.2,0.5,0.5C218.6,316.3,218.3,316.5,218,316.5z
			 M225.6,316.5c-0.3,0-0.5-0.2-0.5-0.5s0.2-0.5,0.5-0.5c0.8,0,1.6,0,2.5,0l0,0c0.3,0,0.5,0.2,0.5,0.5s-0.2,0.5-0.5,0.5
			C227.3,316.5,226.4,316.5,225.6,316.5L225.6,316.5z M230.7,316.5c-0.3,0-0.5-0.2-0.5-0.5s0.2-0.5,0.5-0.5c0.8,0,1.7,0,2.5,0l0,0
			c0.3,0,0.5,0.2,0.5,0.5s-0.2,0.5-0.5,0.5C232.4,316.5,231.5,316.5,230.7,316.5L230.7,316.5z M235.8,316.5c-0.3,0-0.5-0.2-0.5-0.5
			s0.2-0.5,0.5-0.5c0.8,0,1.7,0,2.5,0l0,0c0.3,0,0.5,0.2,0.5,0.5s-0.2,0.5-0.5,0.5C237.4,316.4,236.6,316.4,235.8,316.5L235.8,316.5
			z M240.8,316.4c-0.3,0-0.5-0.2-0.5-0.5s0.2-0.5,0.5-0.5c0.8,0,1.7,0,2.5,0c0.3,0,0.5,0.2,0.5,0.5s-0.2,0.5-0.5,0.5
			C242.5,316.4,241.7,316.4,240.8,316.4L240.8,316.4z M245.9,316.3c-0.3,0-0.5-0.2-0.5-0.5s0.2-0.5,0.5-0.5c0.8,0,1.7,0,2.5,0l0,0
			c0.3,0,0.5,0.2,0.5,0.5s-0.2,0.5-0.5,0.5C247.6,316.3,246.7,316.3,245.9,316.3L245.9,316.3z M251,316.3c-0.3,0-0.5-0.2-0.5-0.5
			s0.2-0.5,0.5-0.5c0.8,0,1.7,0,2.5,0c0.3,0,0.5,0.2,0.5,0.5s-0.2,0.5-0.5,0.5C252.6,316.2,251.8,316.2,251,316.3L251,316.3z
			 M256,316.2c-0.3,0-0.5-0.2-0.5-0.5s0.2-0.5,0.5-0.5c0.8,0,1.7,0,2.5,0c0.3,0,0.5,0.2,0.5,0.5s-0.2,0.5-0.5,0.5
			C257.7,316.1,256.9,316.2,256,316.2L256,316.2z M261.1,316.1c-0.3,0-0.5-0.2-0.5-0.5s0.2-0.5,0.5-0.5c0.8,0,1.7,0,2.5-0.1
			c0.3,0,0.5,0.2,0.5,0.5s-0.2,0.5-0.5,0.5C262.8,316,261.9,316,261.1,316.1L261.1,316.1z M266.1,315.9c-0.3,0-0.5-0.2-0.5-0.5
			s0.2-0.5,0.5-0.5c0.8,0,1.7,0,2.5-0.1c0.3,0,0.5,0.2,0.5,0.5s-0.2,0.5-0.5,0.5C267.8,315.9,267,315.9,266.1,315.9L266.1,315.9z
			 M271.2,315.8c-0.3,0-0.5-0.2-0.5-0.5s0.2-0.5,0.5-0.5c0.8,0,1.7,0,2.5-0.1c0.3,0,0.5,0.2,0.5,0.5s-0.2,0.5-0.5,0.5
			C272.9,315.8,272.1,315.8,271.2,315.8L271.2,315.8z M276.3,315.7c-0.3,0-0.5-0.2-0.5-0.5s0.2-0.5,0.5-0.5c0.8,0,1.7-0.1,2.5-0.1
			c0.3,0,0.5,0.2,0.5,0.5s-0.2,0.5-0.5,0.5C278,315.6,277.1,315.7,276.3,315.7L276.3,315.7z M281.3,315.5c-0.3,0-0.5-0.2-0.5-0.5
			s0.2-0.5,0.5-0.5c0.8,0,1.7-0.1,2.5-0.1c0.3,0,0.5,0.2,0.5,0.5s-0.2,0.5-0.5,0.5C283,315.5,282.2,315.5,281.3,315.5L281.3,315.5z
			 M286.4,315.3c-0.3,0-0.5-0.2-0.5-0.5s0.2-0.5,0.5-0.5c0.8,0,1.7-0.1,2.5-0.1c0.3,0,0.5,0.2,0.5,0.5s-0.2,0.5-0.5,0.5
			C288.1,315.3,287.2,315.3,286.4,315.3L286.4,315.3z M291.4,315.2c-0.3,0-0.5-0.2-0.5-0.5s0.2-0.5,0.5-0.5c0.8,0,1.7-0.1,2.5-0.1
			c0.3,0,0.5,0.2,0.5,0.5s-0.2,0.5-0.5,0.5C293.1,315.1,292.3,315.1,291.4,315.2L291.4,315.2z M296.5,315c-0.3,0-0.5-0.2-0.5-0.5
			s0.2-0.5,0.5-0.5c0.8,0,1.7-0.1,2.5-0.1c0.3,0,0.5,0.2,0.5,0.5s-0.2,0.5-0.5,0.5C298.2,314.9,297.3,314.9,296.5,315L296.5,315z
			 M301.5,314.7c-0.3,0-0.5-0.2-0.5-0.5s0.2-0.5,0.5-0.6c0.8,0,1.7-0.1,2.5-0.1c0.3,0,0.5,0.2,0.6,0.5c0,0.3-0.2,0.5-0.5,0.6
			C303.2,314.7,302.4,314.7,301.5,314.7L301.5,314.7z M306.6,314.5c-0.3,0-0.5-0.2-0.5-0.5s0.2-0.5,0.5-0.6c0.8,0,1.7-0.1,2.5-0.1
			c0.3,0,0.5,0.2,0.6,0.5c0,0.3-0.2,0.5-0.5,0.6C308.3,314.4,307.5,314.4,306.6,314.5L306.6,314.5z M311.6,314.2
			c-0.3,0-0.5-0.2-0.5-0.5s0.2-0.5,0.5-0.6c0.8,0,1.7-0.1,2.5-0.1c0.3,0,0.5,0.2,0.6,0.5c0,0.3-0.2,0.5-0.5,0.6
			C313.4,314.1,312.5,314.2,311.6,314.2C311.7,314.2,311.7,314.2,311.6,314.2z M316.7,313.9c-0.3,0-0.5-0.2-0.5-0.5s0.2-0.5,0.5-0.6
			c0.8,0,1.7-0.1,2.5-0.2c0.3,0,0.5,0.2,0.6,0.5c0,0.3-0.2,0.5-0.5,0.6C318.4,313.8,317.6,313.9,316.7,313.9L316.7,313.9z
			 M321.8,313.6c-0.3,0-0.5-0.2-0.5-0.5s0.2-0.5,0.5-0.6c0.8-0.1,1.7-0.1,2.5-0.2c0.3,0,0.5,0.2,0.6,0.5c0,0.3-0.2,0.5-0.5,0.6
			C323.5,313.5,322.6,313.6,321.8,313.6L321.8,313.6z M326.8,313.3c-0.3,0-0.5-0.2-0.5-0.5s0.2-0.5,0.5-0.6c0.8-0.1,1.7-0.1,2.5-0.2
			c0.3,0,0.5,0.2,0.6,0.5c0,0.3-0.2,0.5-0.5,0.6C328.5,313.2,327.7,313.2,326.8,313.3L326.8,313.3z M331.9,312.9
			c-0.3,0-0.5-0.2-0.5-0.5s0.2-0.5,0.5-0.6c0.8-0.1,1.7-0.1,2.5-0.2c0.3,0,0.5,0.2,0.6,0.5c0,0.3-0.2,0.5-0.5,0.6
			C333.6,312.8,332.7,312.9,331.9,312.9L331.9,312.9z M336.9,312.6c-0.3,0-0.5-0.2-0.5-0.5s0.2-0.5,0.5-0.6c0.8-0.1,1.7-0.1,2.5-0.2
			c0.3,0,0.5,0.2,0.6,0.5c0,0.3-0.2,0.5-0.5,0.6C338.6,312.4,337.8,312.5,336.9,312.6L336.9,312.6z M341.9,312.1
			c-0.3,0-0.5-0.2-0.5-0.5s0.2-0.5,0.5-0.6c0.8-0.1,1.7-0.1,2.5-0.2c0.3,0,0.5,0.2,0.6,0.5c0,0.3-0.2,0.5-0.5,0.6
			C343.7,312,342.8,312.1,341.9,312.1C342,312.1,342,312.1,341.9,312.1z M347,311.7c-0.3,0-0.5-0.2-0.5-0.5s0.2-0.5,0.5-0.6
			c0.8-0.1,1.7-0.2,2.5-0.2c0.3,0,0.5,0.2,0.6,0.5s-0.2,0.5-0.5,0.6C348.7,311.5,347.9,311.6,347,311.7L347,311.7z M352,311.2
			c-0.3,0-0.5-0.2-0.5-0.5s0.2-0.5,0.5-0.6c0.8-0.1,1.7-0.2,2.5-0.3c0.3,0,0.5,0.2,0.6,0.5c0,0.3-0.2,0.5-0.5,0.6
			C353.8,311,352.9,311.1,352,311.2C352.1,311.2,352,311.2,352,311.2z M357,310.6c-0.3,0-0.5-0.2-0.5-0.5s0.2-0.6,0.5-0.6
			c0.8-0.1,1.7-0.2,2.5-0.3c0.3,0,0.6,0.2,0.6,0.5s-0.2,0.6-0.5,0.6C358.8,310.4,358,310.5,357,310.6
			C357.1,310.6,357.1,310.6,357,310.6z M362.1,310c-0.3,0-0.5-0.2-0.5-0.5s0.2-0.6,0.5-0.6c0.8-0.1,1.7-0.2,2.5-0.3
			c0.3,0,0.6,0.2,0.6,0.5s-0.2,0.6-0.5,0.6C363.8,309.8,363,309.9,362.1,310L362.1,310z M367.1,309.3c-0.3,0-0.5-0.2-0.5-0.5
			s0.2-0.6,0.4-0.6c0.8-0.1,1.7-0.2,2.5-0.4c0.3,0,0.6,0.2,0.6,0.4c0,0.3-0.2,0.6-0.4,0.6C368.8,309.1,368,309.2,367.1,309.3
			L367.1,309.3z M372.1,308.6c-0.3,0-0.5-0.2-0.5-0.4c0-0.3,0.2-0.6,0.4-0.6c0.8-0.1,1.7-0.3,2.5-0.4c0.3,0,0.6,0.2,0.6,0.4
			c0,0.3-0.2,0.6-0.4,0.6C373.8,308.3,373,308.4,372.1,308.6L372.1,308.6z M377.1,307.8c-0.3,0-0.5-0.2-0.5-0.4
			c0-0.3,0.2-0.6,0.4-0.6c0.8-0.1,1.7-0.3,2.5-0.4c0.3,0,0.6,0.2,0.6,0.4c0,0.3-0.2,0.6-0.4,0.6C378.8,307.5,378,307.6,377.1,307.8
			L377.1,307.8z M382.1,307c-0.3,0-0.5-0.2-0.5-0.4c0-0.3,0.1-0.6,0.4-0.6c0.8-0.1,1.7-0.3,2.5-0.4c0.3,0,0.6,0.1,0.6,0.4
			s-0.1,0.6-0.4,0.6C383.8,306.7,383,306.8,382.1,307L382.1,307z M387.1,306.2c-0.3,0-0.5-0.2-0.5-0.4c0-0.3,0.1-0.6,0.4-0.6
			c0.8-0.1,1.7-0.3,2.5-0.4c0.3,0,0.6,0.1,0.6,0.4s-0.1,0.6-0.4,0.6C388.8,305.9,388,306,387.1,306.2L387.1,306.2z M392.1,305.3
			c-0.3,0-0.5-0.2-0.5-0.4c0-0.3,0.1-0.6,0.4-0.6c0.8-0.1,1.7-0.3,2.5-0.4c0.3,0,0.6,0.1,0.6,0.4s-0.1,0.6-0.4,0.6
			C393.8,305.1,393,305.2,392.1,305.3L392.1,305.3z M397,304.5c-0.3,0-0.5-0.2-0.5-0.4c0-0.3,0.1-0.6,0.4-0.6
			c0.8-0.1,1.7-0.3,2.5-0.4c0.3-0.1,0.6,0.1,0.6,0.4s-0.1,0.6-0.4,0.6C398.8,304.2,398,304.3,397,304.5
			C397.1,304.5,397.1,304.5,397,304.5z M402,303.6c-0.3,0-0.5-0.2-0.5-0.4c-0.1-0.3,0.1-0.6,0.4-0.6c0.8-0.1,1.7-0.3,2.5-0.4
			c0.3-0.1,0.6,0.1,0.6,0.4c0.1,0.3-0.1,0.6-0.4,0.6C403.8,303.3,403,303.5,402,303.6C402.1,303.6,402.1,303.6,402,303.6z
			 M407,302.7c-0.3,0-0.5-0.2-0.5-0.4c-0.1-0.3,0.1-0.6,0.4-0.6c0.8-0.2,1.7-0.3,2.5-0.5c0.3-0.1,0.6,0.1,0.6,0.4
			c0.1,0.3-0.1,0.6-0.4,0.6C408.8,302.4,407.9,302.6,407,302.7C407.1,302.7,407,302.7,407,302.7z M412,301.8c-0.2,0-0.5-0.2-0.5-0.4
			c-0.1-0.3,0.1-0.6,0.4-0.6c0.8-0.2,1.7-0.3,2.5-0.5c0.3-0.1,0.6,0.1,0.6,0.4c0.1,0.3-0.1,0.6-0.4,0.6
			C413.7,301.5,412.9,301.7,412,301.8L412,301.8z M416.9,300.9c-0.2,0-0.5-0.2-0.5-0.4c-0.1-0.3,0.1-0.6,0.4-0.6
			c0.8-0.2,1.7-0.3,2.5-0.5c0.3-0.1,0.6,0.1,0.6,0.4c0.1,0.3-0.1,0.6-0.4,0.6C418.7,300.6,417.9,300.7,416.9,300.9
			C417,300.9,417,300.9,416.9,300.9z M421.9,299.9c-0.2,0-0.5-0.2-0.5-0.4c-0.1-0.3,0.1-0.6,0.4-0.6c0.8-0.2,1.7-0.3,2.5-0.5
			c0.3-0.1,0.6,0.1,0.6,0.4c0.1,0.3-0.1,0.6-0.4,0.6c-0.8,0.2-1.6,0.3-2.5,0.5H421.9z M426.9,298.9c-0.2,0-0.5-0.2-0.5-0.4
			c-0.1-0.3,0.1-0.6,0.4-0.6c0.8-0.2,1.7-0.3,2.5-0.5c0.3-0.1,0.6,0.1,0.6,0.4c0.1,0.3-0.1,0.6-0.4,0.6c-0.8,0.2-1.6,0.3-2.5,0.5
			C426.9,298.9,426.9,298.9,426.9,298.9z M431.8,297.9c-0.2,0-0.5-0.2-0.5-0.4c-0.1-0.3,0.1-0.6,0.4-0.6c0.8-0.2,1.7-0.4,2.5-0.5
			c0.3-0.1,0.6,0.1,0.6,0.4c0.1,0.3-0.1,0.6-0.4,0.6c-0.8,0.2-1.6,0.4-2.5,0.5C431.9,297.9,431.9,297.9,431.8,297.9z M436.8,296.8
			c-0.2,0-0.5-0.2-0.5-0.4c-0.1-0.3,0.1-0.6,0.4-0.6c0.8-0.2,1.7-0.4,2.5-0.6c0.3-0.1,0.6,0.1,0.6,0.4c0.1,0.3-0.1,0.6-0.4,0.6
			c-0.8,0.2-1.6,0.4-2.5,0.6C436.8,296.8,436.8,296.8,436.8,296.8z M441.7,295.7c-0.2,0-0.5-0.2-0.5-0.4c-0.1-0.3,0.1-0.6,0.4-0.6
			c0.8-0.2,1.7-0.4,2.5-0.6c0.3-0.1,0.6,0.1,0.6,0.4c0.1,0.3-0.1,0.6-0.4,0.6c-0.8,0.2-1.6,0.4-2.5,0.6
			C441.8,295.7,441.7,295.7,441.7,295.7z M446.6,294.5c-0.2,0-0.4-0.2-0.5-0.4c-0.1-0.3,0.1-0.6,0.4-0.6c0.8-0.2,1.6-0.4,2.4-0.6
			c0.3-0.1,0.6,0.1,0.6,0.4c0.1,0.3-0.1,0.6-0.4,0.6C448.3,294.1,447.5,294.3,446.6,294.5C446.7,294.5,446.6,294.5,446.6,294.5z
			 M451.5,293.2c-0.2,0-0.4-0.2-0.5-0.4c-0.1-0.3,0.1-0.6,0.4-0.6c0.8-0.2,1.6-0.5,2.4-0.7c0.3-0.1,0.6,0.1,0.7,0.4
			s-0.1,0.6-0.4,0.7c-0.8,0.2-1.6,0.5-2.4,0.7C451.6,293.2,451.5,293.2,451.5,293.2z M456.3,291.8c-0.2,0-0.4-0.1-0.5-0.4
			s0.1-0.6,0.4-0.7c0.8-0.3,1.6-0.5,2.4-0.8c0.3-0.1,0.6,0.1,0.7,0.3c0.1,0.3-0.1,0.6-0.3,0.7c-0.8,0.3-1.6,0.5-2.4,0.8
			C456.4,291.8,456.4,291.8,456.3,291.8z M461.2,290.2c-0.2,0-0.4-0.1-0.5-0.4s0-0.6,0.3-0.7c0.8-0.3,1.6-0.6,2.4-0.9
			c0.3-0.1,0.6,0,0.7,0.3s0,0.6-0.3,0.7c-0.7,0.3-1.5,0.6-2.4,0.9C461.3,290.2,461.2,290.2,461.2,290.2z M465.9,288.4
			c-0.2,0-0.4-0.1-0.5-0.3c-0.1-0.3,0-0.6,0.3-0.7c0.8-0.4,1.6-0.7,2.2-1.1c0.3-0.1,0.6,0,0.7,0.2c0.1,0.3,0,0.6-0.2,0.7
			c-0.7,0.4-1.5,0.7-2.3,1.1C466,288.3,465.9,288.4,465.9,288.4z"/>
	</g>
	<g>
		<path class="st4" d="M220.6,319.4c-0.3,0-0.5-0.2-0.5-0.5s0.2-0.5,0.5-0.5c0.8,0,1.6,0,2.5,0l0,0c0.3,0,0.5,0.2,0.5,0.5
			s-0.2,0.5-0.5,0.5C222.2,319.4,221.3,319.4,220.6,319.4L220.6,319.4z M218,319.4L218,319.4c-1.6,0-2.5,0-2.5,0
			c-0.3,0-0.5-0.2-0.5-0.5s0.2-0.5,0.5-0.5l0,0c0,0,0.9,0,2.5,0c0.3,0,0.5,0.2,0.5,0.5C218.6,319.2,218.3,319.4,218,319.4z
			 M225.6,319.4c-0.3,0-0.5-0.2-0.5-0.5s0.2-0.5,0.5-0.5c0.8,0,1.6,0,2.5,0l0,0c0.3,0,0.5,0.2,0.5,0.5s-0.2,0.5-0.5,0.5
			C227.3,319.4,226.4,319.4,225.6,319.4L225.6,319.4z M230.7,319.4c-0.3,0-0.5-0.2-0.5-0.5s0.2-0.5,0.5-0.5c0.8,0,1.7,0,2.5,0l0,0
			c0.3,0,0.5,0.2,0.5,0.5s-0.2,0.5-0.5,0.5C232.4,319.3,231.5,319.4,230.7,319.4L230.7,319.4z M235.8,319.3c-0.3,0-0.5-0.2-0.5-0.5
			s0.2-0.5,0.5-0.5c0.8,0,1.7,0,2.5,0c0.3,0,0.5,0.2,0.5,0.5s-0.2,0.5-0.5,0.5C237.4,319.3,236.6,319.3,235.8,319.3L235.8,319.3z
			 M240.8,319.3c-0.3,0-0.5-0.2-0.5-0.5s0.2-0.5,0.5-0.5c0.8,0,1.7,0,2.5,0l0,0c0.3,0,0.5,0.2,0.5,0.5s-0.2,0.5-0.5,0.5
			C242.5,319.2,241.7,319.3,240.8,319.3L240.8,319.3z M245.9,319.2c-0.3,0-0.5-0.2-0.5-0.5s0.2-0.5,0.5-0.5c0.8,0,1.7,0,2.5,0
			c0.3,0,0.5,0.2,0.5,0.5s-0.2,0.5-0.5,0.5C247.6,319.2,246.7,319.2,245.9,319.2L245.9,319.2z M251,319.1c-0.3,0-0.5-0.2-0.5-0.5
			s0.2-0.5,0.5-0.5c0.8,0,1.7,0,2.5,0c0.3,0,0.5,0.2,0.5,0.5s-0.2,0.5-0.5,0.5C252.6,319.1,251.8,319.1,251,319.1L251,319.1z
			 M256,319c-0.3,0-0.5-0.2-0.5-0.5s0.2-0.5,0.5-0.5c0.8,0,1.7,0,2.5,0l0,0c0.3,0,0.5,0.2,0.5,0.5s-0.2,0.5-0.5,0.5
			C257.7,319,256.9,319,256,319L256,319z M261.1,318.9c-0.3,0-0.5-0.2-0.5-0.5s0.2-0.5,0.5-0.5c0.8,0,1.7,0,2.5-0.1
			c0.3,0,0.5,0.2,0.5,0.5s-0.2,0.5-0.5,0.5C262.8,318.9,261.9,318.9,261.1,318.9L261.1,318.9z M266.1,318.8c-0.3,0-0.5-0.2-0.5-0.5
			s0.2-0.5,0.5-0.5c0.8,0,1.7,0,2.5-0.1c0.3,0,0.5,0.2,0.5,0.5s-0.2,0.5-0.5,0.5C267.8,318.8,267,318.8,266.1,318.8L266.1,318.8z
			 M271.2,318.7c-0.3,0-0.5-0.2-0.5-0.5s0.2-0.5,0.5-0.5c0.8,0,1.7,0,2.5-0.1c0.3,0,0.5,0.2,0.5,0.5s-0.2,0.5-0.5,0.5
			C272.9,318.6,272.1,318.7,271.2,318.7L271.2,318.7z M276.3,318.5c-0.3,0-0.5-0.2-0.5-0.5s0.2-0.5,0.5-0.5c0.8,0,1.7-0.1,2.5-0.1
			c0.3,0,0.5,0.2,0.5,0.5s-0.2,0.5-0.5,0.5C278,318.5,277.1,318.5,276.3,318.5L276.3,318.5z M281.3,318.4c-0.3,0-0.5-0.2-0.5-0.5
			s0.2-0.5,0.5-0.5c0.8,0,1.7-0.1,2.5-0.1c0.3,0,0.5,0.2,0.5,0.5s-0.2,0.5-0.5,0.5C283,318.3,282.2,318.4,281.3,318.4L281.3,318.4z
			 M286.4,318.2c-0.3,0-0.5-0.2-0.5-0.5s0.2-0.5,0.5-0.5c0.8,0,1.7-0.1,2.5-0.1c0.3,0,0.5,0.2,0.5,0.5s-0.2,0.5-0.5,0.5
			C288.1,318.1,287.2,318.2,286.4,318.2L286.4,318.2z M291.4,318c-0.3,0-0.5-0.2-0.5-0.5s0.2-0.5,0.5-0.5c0.8,0,1.7-0.1,2.5-0.1
			c0.3,0,0.5,0.2,0.5,0.5s-0.2,0.5-0.5,0.5C293.1,318,292.3,318,291.4,318L291.4,318z M296.5,317.8c-0.3,0-0.5-0.2-0.5-0.5
			s0.2-0.5,0.5-0.5c0.8,0,1.7-0.1,2.5-0.1c0.3,0,0.5,0.2,0.5,0.5s-0.2,0.5-0.5,0.5C298.2,317.7,297.3,317.8,296.5,317.8L296.5,317.8
			z M301.5,317.6c-0.3,0-0.5-0.2-0.5-0.5s0.2-0.5,0.5-0.6c0.8,0,1.7-0.1,2.5-0.1c0.3,0,0.5,0.2,0.6,0.5c0,0.3-0.2,0.5-0.5,0.6
			C303.2,317.5,302.4,317.6,301.5,317.6L301.5,317.6z M306.6,317.4c-0.3,0-0.5-0.2-0.5-0.5s0.2-0.5,0.5-0.6c0.8,0,1.7-0.1,2.5-0.1
			c0.3,0,0.5,0.2,0.6,0.5c0,0.3-0.2,0.5-0.5,0.6C308.3,317.3,307.5,317.3,306.6,317.4L306.6,317.4z M311.6,317.1
			c-0.3,0-0.5-0.2-0.5-0.5s0.2-0.5,0.5-0.6c0.8,0,1.7-0.1,2.5-0.1c0.3,0,0.5,0.2,0.6,0.5c0,0.3-0.2,0.5-0.5,0.6
			C313.4,317,312.5,317,311.6,317.1C311.7,317.1,311.7,317.1,311.6,317.1z M316.7,316.8c-0.3,0-0.5-0.2-0.5-0.5s0.2-0.5,0.5-0.6
			c0.8,0,1.7-0.1,2.5-0.2c0.3,0,0.5,0.2,0.6,0.5c0,0.3-0.2,0.5-0.5,0.6C318.4,316.7,317.6,316.8,316.7,316.8L316.7,316.8z
			 M321.8,316.5c-0.3,0-0.5-0.2-0.5-0.5s0.2-0.5,0.5-0.6c0.8-0.1,1.7-0.1,2.5-0.2c0.3,0,0.5,0.2,0.6,0.5c0,0.3-0.2,0.5-0.5,0.6
			C323.5,316.4,322.6,316.4,321.8,316.5L321.8,316.5z M326.8,316.2c-0.3,0-0.5-0.2-0.5-0.5s0.2-0.5,0.5-0.6c0.8-0.1,1.7-0.1,2.5-0.2
			c0.3,0,0.5,0.2,0.6,0.5c0,0.3-0.2,0.5-0.5,0.6C328.5,316.1,327.7,316.1,326.8,316.2L326.8,316.2z M331.9,315.8
			c-0.3,0-0.5-0.2-0.5-0.5s0.2-0.5,0.5-0.6c0.8-0.1,1.7-0.1,2.5-0.2c0.3,0,0.5,0.2,0.6,0.5c0,0.3-0.2,0.5-0.5,0.6
			C333.6,315.7,332.7,315.7,331.9,315.8L331.9,315.8z M336.9,315.4c-0.3,0-0.5-0.2-0.5-0.5s0.2-0.5,0.5-0.6c0.8-0.1,1.7-0.1,2.5-0.2
			c0.3,0,0.5,0.2,0.6,0.5c0,0.3-0.2,0.5-0.5,0.6C338.6,315.3,337.8,315.4,336.9,315.4L336.9,315.4z M341.9,315
			c-0.3,0-0.5-0.2-0.5-0.5s0.2-0.5,0.5-0.6c0.8-0.1,1.7-0.1,2.5-0.2c0.3,0,0.5,0.2,0.6,0.5c0,0.3-0.2,0.5-0.5,0.6
			C343.7,314.8,342.8,314.9,341.9,315C342,315,342,315,341.9,315z M347,314.5c-0.3,0-0.5-0.2-0.5-0.5s0.2-0.5,0.5-0.6
			c0.8-0.1,1.7-0.2,2.5-0.2c0.3,0,0.5,0.2,0.6,0.5c0,0.3-0.2,0.5-0.5,0.6C348.7,314.4,347.9,314.4,347,314.5L347,314.5z M352,314
			c-0.3,0-0.5-0.2-0.5-0.5s0.2-0.5,0.5-0.6c0.8-0.1,1.7-0.2,2.5-0.3c0.3,0,0.5,0.2,0.6,0.5c0,0.3-0.2,0.5-0.5,0.6
			C353.8,313.8,352.9,313.9,352,314C352.1,314,352,314,352,314z M357,313.5c-0.3,0-0.5-0.2-0.5-0.5s0.2-0.6,0.5-0.6
			c0.8-0.1,1.7-0.2,2.5-0.3c0.3,0,0.6,0.2,0.6,0.5s-0.2,0.6-0.5,0.6C358.8,313.3,358,313.4,357,313.5
			C357.1,313.5,357.1,313.5,357,313.5z M362.1,312.9c-0.3,0-0.5-0.2-0.5-0.5s0.2-0.6,0.5-0.6c0.8-0.1,1.7-0.2,2.5-0.3
			c0.3,0,0.6,0.2,0.6,0.5s-0.2,0.6-0.5,0.6C363.8,312.6,363,312.7,362.1,312.9L362.1,312.9z M367.1,312.2c-0.3,0-0.5-0.2-0.5-0.5
			s0.2-0.6,0.4-0.6c0.8-0.1,1.7-0.2,2.5-0.4c0.3,0,0.6,0.2,0.6,0.4c0,0.3-0.2,0.6-0.4,0.6C368.8,311.9,368,312,367.1,312.2
			L367.1,312.2z M372.1,311.4c-0.3,0-0.5-0.2-0.5-0.4c0-0.3,0.2-0.6,0.4-0.6c0.8-0.1,1.7-0.3,2.5-0.4c0.3,0,0.6,0.2,0.6,0.4
			c0,0.3-0.2,0.6-0.4,0.6C373.8,311.2,373,311.3,372.1,311.4L372.1,311.4z M377.1,310.6c-0.3,0-0.5-0.2-0.5-0.4
			c0-0.3,0.1-0.6,0.4-0.6c0.8-0.1,1.7-0.3,2.5-0.4c0.3,0,0.6,0.1,0.6,0.4s-0.1,0.6-0.4,0.6C378.8,310.4,378,310.5,377.1,310.6
			L377.1,310.6z M382.1,309.8c-0.3,0-0.5-0.2-0.5-0.4c0-0.3,0.1-0.6,0.4-0.6c0.8-0.1,1.7-0.3,2.5-0.4c0.3,0,0.6,0.1,0.6,0.4
			s-0.1,0.6-0.4,0.6C383.8,309.5,383,309.7,382.1,309.8L382.1,309.8z M387.1,309c-0.3,0-0.5-0.2-0.5-0.4c0-0.3,0.1-0.6,0.4-0.6
			c0.8-0.1,1.7-0.3,2.5-0.4c0.3,0,0.6,0.1,0.6,0.4s-0.1,0.6-0.4,0.6C388.8,308.7,388,308.8,387.1,309L387.1,309z M392,308.1
			c-0.3,0-0.5-0.2-0.5-0.4c0-0.3,0.1-0.6,0.4-0.6c0.8-0.1,1.7-0.3,2.5-0.4c0.3,0,0.6,0.1,0.6,0.4c0.1,0.3-0.1,0.6-0.4,0.6
			C393.8,307.9,393,308,392,308.1C392.1,308.1,392.1,308.1,392,308.1z M397,307.3c-0.3,0-0.5-0.2-0.5-0.4c-0.1-0.3,0.1-0.6,0.4-0.6
			c0.8-0.1,1.7-0.3,2.5-0.4c0.3-0.1,0.6,0.1,0.6,0.4c0.1,0.3-0.1,0.6-0.4,0.6C398.8,307,398,307.1,397,307.3
			C397.1,307.3,397.1,307.3,397,307.3z M402,306.4c-0.2,0-0.5-0.2-0.5-0.4c-0.1-0.3,0.1-0.6,0.4-0.6c0.8-0.2,1.7-0.3,2.5-0.5
			c0.3-0.1,0.6,0.1,0.6,0.4c0.1,0.3-0.1,0.6-0.4,0.6C403.8,306.1,402.9,306.2,402,306.4C402.1,306.4,402,306.4,402,306.4z
			 M407,305.5c-0.2,0-0.5-0.2-0.5-0.4c-0.1-0.3,0.1-0.6,0.4-0.6c0.8-0.2,1.7-0.3,2.5-0.5c0.3-0.1,0.6,0.1,0.6,0.4
			c0.1,0.3-0.1,0.6-0.4,0.6C408.7,305.1,407.9,305.3,407,305.5L407,305.5z M411.9,304.5c-0.2,0-0.5-0.2-0.5-0.4
			c-0.1-0.3,0.1-0.6,0.4-0.6c0.8-0.2,1.7-0.3,2.5-0.5c0.3-0.1,0.6,0.1,0.6,0.4c0.1,0.3-0.1,0.6-0.4,0.6c-0.8,0.2-1.6,0.3-2.5,0.5
			C412,304.5,412,304.5,411.9,304.5z M416.9,303.5c-0.2,0-0.5-0.2-0.5-0.4c-0.1-0.3,0.1-0.6,0.4-0.6c0.8-0.2,1.7-0.3,2.5-0.5
			c0.3-0.1,0.6,0.1,0.6,0.4c0.1,0.3-0.1,0.6-0.4,0.6c-0.8,0.2-1.6,0.3-2.5,0.5H416.9z M421.9,302.5c-0.2,0-0.5-0.2-0.5-0.4
			c-0.1-0.3,0.1-0.6,0.4-0.6c0.8-0.2,1.7-0.3,2.5-0.5c0.3-0.1,0.6,0.1,0.6,0.4c0.1,0.3-0.1,0.6-0.4,0.6c-0.8,0.2-1.6,0.3-2.5,0.5
			C421.9,302.5,421.9,302.5,421.9,302.5z M426.8,301.5c-0.2,0-0.5-0.2-0.5-0.4c-0.1-0.3,0.1-0.6,0.4-0.6c0.8-0.2,1.7-0.4,2.5-0.5
			c0.3-0.1,0.6,0.1,0.6,0.4c0.1,0.3-0.1,0.6-0.4,0.6c-0.8,0.2-1.6,0.4-2.5,0.5C426.9,301.5,426.9,301.5,426.8,301.5z M431.8,300.4
			c-0.2,0-0.5-0.2-0.5-0.4c-0.1-0.3,0.1-0.6,0.4-0.6c0.8-0.2,1.7-0.4,2.5-0.6c0.3-0.1,0.6,0.1,0.6,0.4c0.1,0.3-0.1,0.6-0.4,0.6
			c-0.8,0.2-1.6,0.4-2.5,0.6C431.8,300.4,431.8,300.4,431.8,300.4z M436.7,299.3c-0.2,0-0.5-0.2-0.5-0.4c-0.1-0.3,0.1-0.6,0.4-0.6
			c0.8-0.2,1.7-0.4,2.5-0.6c0.3-0.1,0.6,0.1,0.6,0.4c0.1,0.3-0.1,0.6-0.4,0.6c-0.8,0.2-1.6,0.4-2.5,0.6
			C436.8,299.3,436.7,299.3,436.7,299.3z M441.6,298.1c-0.2,0-0.5-0.2-0.5-0.4c-0.1-0.3,0.1-0.6,0.4-0.6c0.8-0.2,1.6-0.4,2.5-0.6
			c0.3-0.1,0.6,0.1,0.6,0.4c0.1,0.3-0.1,0.6-0.4,0.6c-0.8,0.2-1.6,0.4-2.5,0.6C441.7,298.1,441.7,298.1,441.6,298.1z M446.5,296.9
			c-0.2,0-0.4-0.2-0.5-0.4c-0.1-0.3,0.1-0.6,0.4-0.6c0.8-0.2,1.6-0.4,2.4-0.6c0.3-0.1,0.6,0.1,0.6,0.4c0.1,0.3-0.1,0.6-0.4,0.6
			C448.2,296.5,447.4,296.7,446.5,296.9C446.6,296.9,446.6,296.9,446.5,296.9z M451.4,295.6c-0.2,0-0.4-0.2-0.5-0.4
			c-0.1-0.3,0.1-0.6,0.4-0.6c0.8-0.2,1.6-0.5,2.4-0.7c0.3-0.1,0.6,0.1,0.6,0.4c0.1,0.3-0.1,0.6-0.4,0.7c-0.8,0.2-1.6,0.4-2.4,0.7
			C451.5,295.6,451.5,295.6,451.4,295.6z M456.3,294.2c-0.2,0-0.4-0.1-0.5-0.4s0.1-0.6,0.4-0.7c0.8-0.2,1.6-0.5,2.4-0.7
			c0.3-0.1,0.6,0.1,0.7,0.3c0.1,0.3-0.1,0.6-0.3,0.7c-0.8,0.2-1.6,0.5-2.4,0.7C456.4,294.2,456.3,294.2,456.3,294.2z M461.1,292.7
			c-0.2,0-0.4-0.1-0.5-0.4s0.1-0.6,0.3-0.7c0.8-0.3,1.6-0.5,2.4-0.8c0.3-0.1,0.6,0.1,0.7,0.3c0.1,0.3-0.1,0.6-0.3,0.7
			c-0.8,0.3-1.6,0.5-2.4,0.8C461.2,292.7,461.2,292.7,461.1,292.7z M465.9,291.1c-0.2,0-0.4-0.1-0.5-0.3c-0.1-0.3,0-0.6,0.3-0.7
			c0.8-0.3,1.6-0.6,2.3-0.9c0.3-0.1,0.6,0,0.7,0.3s0,0.6-0.3,0.7c-0.7,0.3-1.5,0.6-2.4,0.9C466,291.1,466,291.1,465.9,291.1z
			 M470.6,289.2c-0.2,0-0.4-0.1-0.5-0.3c-0.1-0.3,0-0.6,0.3-0.7c0.7-0.3,1.3-0.6,1.9-0.9c0.3-0.1,0.6,0,0.7,0.2
			c0.1,0.3,0,0.6-0.2,0.7c-0.6,0.3-1.2,0.6-1.9,1C470.7,289.2,470.7,289.2,470.6,289.2z"/>
	</g>
	<g>
		<g>
			<path d="M243.1,219.1c-4.1,0-7.4,3.3-7.4,7.4c0,4.1,3.3,7.4,7.4,7.4c4.1,0,7.4-3.3,7.4-7.4C250.6,222.4,247.3,219.1,243.1,219.1z
				 M243.1,230.5c-2.2,0-3.9-1.8-3.9-3.9c0-2.2,1.8-3.9,3.9-3.9c2.2,0,3.9,1.8,3.9,3.9C247.1,228.7,245.3,230.5,243.1,230.5z"/>
		</g>
		<g>
			<path class="st5" d="M243.1,221.5c-2.7,0-4.9,2.2-4.9,4.9s2.2,4.9,4.9,4.9s4.9-2.2,4.9-4.9S245.8,221.5,243.1,221.5z
				 M243.1,230.5c-2.2,0-3.9-1.8-3.9-3.9c0-2.2,1.8-3.9,3.9-3.9c2.2,0,3.9,1.8,3.9,3.9C247.1,228.7,245.3,230.5,243.1,230.5z"/>
		</g>
	</g>
	<g>
		<g>
			<path d="M370.1,270.8c-3.1,0-5.7,2.5-5.7,5.7c0,3.1,2.5,5.7,5.7,5.7c3.1,0,5.7-2.5,5.7-5.7C375.8,273.3,373.2,270.8,370.1,270.8z
				 M370.1,279.4c-1.7,0-3-1.3-3-3s1.3-3,3-3s3,1.3,3,3S371.8,279.4,370.1,279.4z"/>
		</g>
		<g>
			<path class="st5" d="M370.1,272.6c-2.1,0-3.7,1.7-3.7,3.7c0,2.1,1.7,3.7,3.7,3.7c2.1,0,3.7-1.7,3.7-3.7
				C373.8,274.3,372.2,272.6,370.1,272.6z M370.1,279.4c-1.7,0-3-1.3-3-3s1.3-3,3-3s3,1.3,3,3S371.8,279.4,370.1,279.4z"/>
		</g>
	</g>
	<g>
		<path d="M190.4,169.1c0,0-1.6-3.9,2.9-5.7s15.5-9.6,34.2-2l-0.6,7.6c0,0-18.5-0.3-27.2,1.4S190.4,169.1,190.4,169.1z"/>
	</g>
	<g>
		<path d="M226,161.1c0,0-3.6,9-15.4,15.5c-11.8,6.5-12.3,8.8-11.8,11.7c0.6,2.9,4.1,2.5,8.3,1.4c4.1-1,21.9-10.9,24-15.8
			C233.1,168.9,229.4,157.7,226,161.1z"/>
	</g>
	<g>
		<path d="M237.1,182.3c0,0,7.5,6.9,6.4,23s-9.4,18.5-1.4,24.2s13.7-17.7,13.6-20.8C255.6,205.7,244.6,178.6,237.1,182.3z"/>
	</g>
	<g>
		<path d="M262,209.2c0,0,12.4-1.5,19.4,5c6.9,6.5,12.9,10.9,12.7,18.3c-0.2,7.4-4.1,11.1-7.6,9.7c-3.5-1.4-4.4-4.5-4.5-14.6
			C281.9,217.6,262,209.2,262,209.2z"/>
	</g>
	<g>
		<path d="M295.2,223.1c0,0,11.1-2.3,17.2,3.4s13.2,13.3,11.1,22.7c-2.1,9.4-8.6,6.2-8.6,6.2s-3,0.1-3.7-13.7
			C310.6,227.9,295.2,223.1,295.2,223.1z"/>
	</g>
	<g>
		<path d="M344.6,268.2c0,0,7.8,0.2,5.9-9c-1.9-9.2-16.4-22.9-26.2-22.3c0,0,12,3.7,14.5,17.3C341.3,267.8,340.7,267,344.6,268.2z"
			/>
	</g>
	<g>
		<path d="M364,264.9l2.9,1.5c0,0-2.3,9.3,1.9,12.1s8.6-3.2,9-5.5s-1.4-6.8-9.8-9.9C368,263.2,361.3,262.2,364,264.9z"/>
	</g>
	<g>
		<path class="st10" d="M17.6,334.3c0,0,57.3,4.7,87.4,2.9s138,7.2,162.3,10c24.4,2.9,59.5,3.6,110.7-3.9s100.3-24.4,105-27.2
			c0,0,4.6,8.7,5.6,19c0.1-0.5,0.1-1,0.1-1.5c0.7-12.5-5.7-24.7-5.7-24.7c-4.7,2.9-53.8,19.7-105,27.2s-86.4,6.8-110.7,3.9
			c-24.4-2.9-132.2-11.8-162.3-10s-87.4-2.9-87.4-2.9c-5.1-0.4-6.5,5.4-6.5,5.4s0.1,2.3,0.4,5.9C12.3,336.7,14,334,17.6,334.3z"/>
	</g>
	<g>
		<g>
			<path class="st11" d="M128.7,331.3c8.3-0.5,22.5-0.2,39.3,0.6c-26.5-1.6-50.9-2.6-62.9-1.9c-12.9,0.8-30.9,0.3-47.1-0.4
				C77.2,330.8,108.8,332.4,128.7,331.3z"/>
		</g>
		<g>
			<path class="st11" d="M39.4,370c-3.6-16.5-4.7-36.2-4.7-36.2s1-4.2,4.4-5.2c-12.7-0.8-21.6-1.5-21.6-1.5
				c-5.1-0.4-6.5,5.4-6.5,5.4s1.1,19.7,4.7,36.2s45.9,16.1,45.9,16.1s2.5,0.1,7,0.2C56.4,383.4,41.5,379.4,39.4,370z"/>
		</g>
	</g>
	<g>
		<path class="st0" d="M313.6,378.6c-49.5,4.8-123.5,1.9-123.5,1.9s-0.5-4.8-57.3-5.3c-56.9-0.5-59.7,5.2-59.7,5.2
			c-33.7,0.3-49.9-5-56.6-8.2c0.3,1.5,0.7,3,1,4.6c0,0-4.7,10.4,50.9,11.1c55.5,0.7,193.9,2.2,229.4,0s184.2-14,191-47.7
			c1.2-6.2,1.4-11.1,0.7-15c-10.3,5-33.5,15.9-54.2,24.1C407.6,360.5,363.2,373.8,313.6,378.6z"/>
	</g>
	<path d="M487.9,306.2c-0.7-1.3-1.9-2.3-3.4-2.7c-0.5-0.1-1-0.2-1.4-0.2c-1,0-2,0.3-2.9,0.8c-1.7,1-13.9,5.6-34.1,11.4
		c-16.4,4.7-41.7,11.1-68.9,15.1c-26.7,3.9-51.4,5.9-73.3,5.9c-12.7,0-24.8-0.7-36-2c-10.7-1.3-39-3.8-70.2-6.1
		c-21.2-1.6-60.1-4.2-82.9-4.2c-4,0-7.5,0.1-10.2,0.2c-4.5,0.3-9.9,0.4-16,0.4c-30.2,0-70.3-3.2-70.7-3.3l0,0c-0.3,0-0.6,0-0.9,0
		c-3.8,0-7.1,1.8-9.3,5.1c-1.4,2.1-1.9,4.1-2,4.5c-0.1,0.5-0.2,1-0.1,1.6c0,0.8,1.1,20.3,4.8,37.1c1.9,8.9,11.1,15.1,27.2,18.2
		c11,2.1,21.8,2.2,23.8,2.2c0.1,0,0.1,0,0.2,0c3.1,0.1,81.6,2.2,155.6,2.2c18.1,0,34.6-0.1,49.2-0.4c46.9-0.8,94-7.3,125.2-12.7
		c35.7-6.1,64.3-13,73-16.4c7.3-2.8,14.8-6,20.3-10.7c5.9-4.9,9-11,9.4-18.5C495.1,319.9,488.2,306.8,487.9,306.2z M488.8,333.5
		c-0.7,12.5-10.4,18.3-26.2,24.4c-15.8,6.1-110.7,27.2-196.4,28.7c-15.6,0.3-32.3,0.4-49.1,0.4c-75.9,0-155.5-2.2-155.5-2.2
		s-0.1,0-0.2,0c-3.2,0-42.2-0.3-45.7-16.1c-3.6-16.5-4.7-36.2-4.7-36.2s1.3-5.4,6-5.4c0.2,0,0.3,0,0.5,0c0,0,40.3,3.3,71.1,3.3
		c5.9,0,11.5-0.1,16.3-0.4c2.7-0.2,6-0.2,9.9-0.2c38.9,0,130.3,7.7,152.5,10.3c10.2,1.2,22.3,2,36.6,2c20,0,44.3-1.6,74.1-6
		c51.2-7.5,100.3-24.4,105-27.2C483.1,308.8,489.5,321,488.8,333.5z"/>
</g>
</svg>
