<?xml version="1.0" encoding="UTF-8"?><svg id="Layer_1" xmlns="http://www.w3.org/2000/svg" xmlns:xlink="http://www.w3.org/1999/xlink" viewBox="0 0 1390 836"><defs><clipPath id="clippath"><rect x="-.5" y=".5" width="1390" height="836" fill="none" stroke-width="0"/></clipPath><filter id="drop-shadow-1" filterUnits="userSpaceOnUse"><feOffset dx="2" dy="7"/><feGaussianBlur result="blur" stdDeviation="15"/><feFlood flood-color="#1a202d" flood-opacity=".16"/><feComposite in2="blur" operator="in"/><feComposite in="SourceGraphic"/></filter><filter id="drop-shadow-2" filterUnits="userSpaceOnUse"><feOffset dx="2" dy="7"/><feGaussianBlur result="blur-2" stdDeviation="15"/><feFlood flood-color="#1a202d" flood-opacity=".07"/><feComposite in2="blur-2" operator="in"/><feComposite in="SourceGraphic"/></filter><filter id="drop-shadow-3" filterUnits="userSpaceOnUse"><feOffset dx="2" dy="7"/><feGaussianBlur result="blur-3" stdDeviation="15"/><feFlood flood-color="#1a202d" flood-opacity=".07"/><feComposite in2="blur-3" operator="in"/><feComposite in="SourceGraphic"/></filter><filter id="drop-shadow-4" filterUnits="userSpaceOnUse"><feOffset dx="2" dy="7"/><feGaussianBlur result="blur-4" stdDeviation="15"/><feFlood flood-color="#1a202d" flood-opacity=".07"/><feComposite in2="blur-4" operator="in"/><feComposite in="SourceGraphic"/></filter><filter id="drop-shadow-5" filterUnits="userSpaceOnUse"><feOffset dx="2" dy="7"/><feGaussianBlur result="blur-5" stdDeviation="15"/><feFlood flood-color="#1a202d" flood-opacity=".07"/><feComposite in2="blur-5" operator="in"/><feComposite in="SourceGraphic"/></filter><filter id="drop-shadow-6" filterUnits="userSpaceOnUse"><feOffset dx="2" dy="7"/><feGaussianBlur result="blur-6" stdDeviation="15"/><feFlood flood-color="#1a202d" flood-opacity=".07"/><feComposite in2="blur-6" operator="in"/><feComposite in="SourceGraphic"/></filter><filter id="drop-shadow-7" filterUnits="userSpaceOnUse"><feOffset dx="2" dy="7"/><feGaussianBlur result="blur-7" stdDeviation="15"/><feFlood flood-color="#1a202d" flood-opacity=".07"/><feComposite in2="blur-7" operator="in"/><feComposite in="SourceGraphic"/></filter><filter id="drop-shadow-8" filterUnits="userSpaceOnUse"><feOffset dx="2" dy="7"/><feGaussianBlur result="blur-8" stdDeviation="15"/><feFlood flood-color="#1a202d" flood-opacity=".07"/><feComposite in2="blur-8" operator="in"/><feComposite in="SourceGraphic"/></filter></defs><g clip-path="url(#clippath)"><circle cx="1152.5" cy="227.5" r="79" fill="#1e293b" filter="url(#drop-shadow-1)" stroke="#334155" stroke-miterlimit="10"/><circle cx="1152.5" cy="227.5" r="165" fill="none" stroke="#374151" stroke-dasharray="0 0 5.96 11.92" stroke-linecap="round" stroke-linejoin="round" stroke-width="2"/><circle cx="1152.5" cy="227.5" r="295" fill="none" stroke="#374151" stroke-dasharray="0 0 6 12" stroke-linecap="round" stroke-linejoin="round" stroke-width="2"/><circle cx="1152.5" cy="227.5" r="418.5" fill="none" stroke="#374151" stroke-dasharray="0 0 6 12.01" stroke-linecap="round" stroke-linejoin="round" stroke-width="2"/><circle cx="1152.5" cy="227.5" r="572.5" fill="none" stroke="#374151" stroke-dasharray="0 0 6 11.99" stroke-linecap="round" stroke-linejoin="round" stroke-width="2"/><circle cx="737" cy="296" r="56" fill="#242938" filter="url(#drop-shadow-2)" stroke-width="0"/><circle cx="904" cy="75" r="53" fill="#f0db4f" filter="url(#drop-shadow-3)" stroke-width="0"/><circle cx="584" cy="174" r="55" fill="#1e293b" filter="url(#drop-shadow-4)" stroke="#334155" stroke-miterlimit="10"/><circle cx="1033" cy="625" r="55" fill="#1e293b" filter="url(#drop-shadow-5)" stroke="#334155" stroke-miterlimit="10"/><circle cx="1260.5" cy="501.5" r="54.5" fill="#1e293b" filter="url(#drop-shadow-6)" stroke="#334155" stroke-miterlimit="10"/><circle cx="1031.5" cy="329.5" r="55.5" fill="#1e293b" filter="url(#drop-shadow-7)" stroke="#334155" stroke-miterlimit="10"/><circle cx="737" cy="618" r="64" fill="#1e293b" filter="url(#drop-shadow-8)" stroke="#334155" stroke-miterlimit="10"/><path d="m1146.72,198.56h13.42l15.86,46.32h-25.96v-9.81h10.11l-6.72-20.8-11,30.61h-12.53l16.81-46.32Z" fill="#7c6eff" stroke-width="0"/><path d="m895,104.39l5.34-3.23c1.03,1.83,1.97,3.37,4.22,3.37s3.51-.84,3.51-4.12v-22.3h6.56v22.39c0,6.79-3.98,9.88-9.79,9.88-5.25,0-8.29-2.72-9.84-6m23.19-.7l5.34-3.09c1.41,2.3,3.23,3.98,6.46,3.98,2.72,0,4.45-1.36,4.45-3.23,0-2.25-1.78-3.04-4.78-4.36l-1.64-.7c-4.73-2.01-7.87-4.54-7.87-9.88,0-4.92,3.75-8.67,9.6-8.67,4.17,0,7.17,1.45,9.32,5.25l-5.11,3.28c-1.12-2.01-2.34-2.81-4.22-2.81s-3.14,1.22-3.14,2.81c0,1.97,1.22,2.76,4.03,3.98l1.64.7c5.57,2.39,8.71,4.82,8.71,10.3,0,5.9-4.64,9.13-10.87,9.13s-10.02-2.9-11.94-6.7" fill="#323330" stroke-width="0"/><path d="m1236.38,481.08l18.55.06,5.27,9.1,5.37-9.1,18.43-.06-23.75,40.97-23.87-40.98Zm47.24.24h-9.06s-14.31,24.58-14.31,24.58l-14.31-24.57h-9.21s23.52,40.13,23.52,40.13l23.37-40.14Zm-9.36,0l-8.46.06-5.6,9.17-5.51-9.17-8.48-.06,14.04,23.99,14.02-23.99Zm-28.21-.06h8.56m-8.56,0h8.56" fill="none" stroke-width="0"/><path d="m1245.64,481.25h9.41s6.15,10.21,6.15,10.21l6.13-10.21h9.4s-15.48,26.86-15.48,26.86l-15.61-26.86Z" fill="#35495e" stroke-width="0"/><path d="m1235.38,481.32l10.25-.07,15.61,26.86,15.49-26.86h10.27s-25.76,44.22-25.76,44.22l-25.86-44.15Z" fill="#41b883" stroke-width="0"/><path d="m737,302.05c2.78,0,5.04-2.26,5.04-5.04s-2.26-5.04-5.04-5.04-5.04,2.26-5.04,5.04,2.26,5.04,5.04,5.04Z" fill="#00d8ff" stroke-width="0"/><path d="m737,286.77c6.76,0,13.05.97,17.78,2.6,5.71,1.96,9.22,4.94,9.22,7.64s-3.72,5.97-9.85,8.01c-4.63,1.54-10.73,2.34-17.15,2.34s-12.82-.75-17.5-2.35c-5.93-2.03-9.5-5.23-9.5-7.99s3.35-5.63,8.98-7.59c4.75-1.66,11.19-2.65,18.02-2.65,0,0,0,0,0,0Z" fill="none" stroke="#00d8ff" stroke-miterlimit="10" stroke-width="1.11"/><path d="m728.08,291.92c3.38-5.86,7.36-10.82,11.14-14.1,4.55-3.96,8.89-5.51,11.22-4.17,2.43,1.4,3.32,6.21,2.02,12.53-.98,4.78-3.34,10.46-6.54,16.02-3.29,5.7-7.05,10.73-10.78,13.98-4.72,4.12-9.28,5.62-11.67,4.24-2.32-1.34-3.2-5.72-2.09-11.57.94-4.95,3.3-11.02,6.71-16.94,0,0,0,0,0,0Z" fill="none" stroke="#00d8ff" stroke-miterlimit="10" stroke-width="1.11"/><path d="m728.09,302.22c-3.39-5.85-5.7-11.78-6.66-16.69-1.16-5.92-.34-10.45,1.99-11.8,2.43-1.41,7.03.23,11.86,4.51,3.65,3.24,7.4,8.12,10.62,13.67,3.3,5.7,5.77,11.47,6.73,16.32,1.22,6.15.23,10.84-2.15,12.22-2.31,1.34-6.55-.08-11.07-3.97-3.82-3.28-7.9-8.36-11.32-14.27Z" fill="none" stroke="#00d8ff" stroke-miterlimit="10" stroke-width="1.11"/><path d="m583.86,145.43c-15.52,0-28.14,12.62-28.14,28.14s12.62,28.14,28.14,28.14c4.92,0,9.54-1.28,13.54-3.47l-20.4-28.49v16.09h-2.99v-22.03h2.99l22.21,33.33c7.7-5.01,12.8-13.68,12.8-23.57,0-15.52-12.62-28.14-28.14-28.14Zm9.72,37.2l-3.3-4.97v-13.85h3.3v18.82Z" fill="#f7f8f9" stroke-width="0"/><path d="m1038.82,641.96h23.86c.76,0,1.5-.19,2.16-.56.65-.36,1.2-.89,1.58-1.53.38-.63.58-1.36.58-2.09,0-.74-.2-1.46-.58-2.09l-16.03-26.92c-.38-.64-.93-1.17-1.58-1.53-.66-.37-1.4-.56-2.16-.56-.76,0-1.5.19-2.16.56-.65.36-1.2.89-1.58,1.53l-4.1,6.89-8.01-13.47c-.38-.64-.93-1.17-1.58-1.53-.66-.37-1.4-.56-2.16-.56-.76,0-1.5.19-2.16.56-.65.36-1.2.89-1.58,1.53l-19.94,33.51c-.38.63-.58,1.36-.58,2.09,0,.74.2,1.46.58,2.09.38.64.93,1.17,1.58,1.53.66.37,1.4.56,2.16.56h14.98c5.93,0,10.31-2.53,13.32-7.46l7.31-12.28,3.92-6.57,11.75,19.74h-15.67s-3.92,6.57-3.92,6.57Zm-16.96-6.58h-10.45s15.67-26.33,15.67-26.33l7.82,13.16-5.23,8.8c-2,3.2-4.27,4.37-7.8,4.37h0Z" fill="#00dc82" stroke-width="0"/><path d="m1007.06,312.62l24.19-8.62,24.84,8.47-4.02,32-20.82,11.53-20.49-11.38-3.7-32Z" fill="#e23237" stroke-width="0"/><path d="m1056.09,312.47l-24.84-8.47v52l20.82-11.51s4.02-32.02,4.02-32.02Z" fill="#b52e31" stroke-width="0"/><path d="m1031.28,310.07l-15.07,33.54,5.63-.1,3.03-7.57h13.52l3.31,7.66,5.38.1s-15.8-33.63-15.8-33.63Zm.04,10.74l5.09,10.65h-9.58s4.48-10.65,4.48-10.65Z" fill="#fff" stroke-width="0"/><path d="m759.53,595.32c-5.84-8.35-17.36-10.83-25.7-5.52l-14.64,9.33c-4,2.52-6.75,6.6-7.59,11.25-.7,3.87-.08,7.87,1.74,11.35-1.25,1.9-2.11,4.04-2.51,6.28-.84,4.74.26,9.62,3.06,13.53,5.84,8.35,17.37,10.83,25.7,5.52l14.64-9.33c4-2.52,6.75-6.6,7.59-11.25.7-3.87.08-7.87-1.74-11.35,1.25-1.9,2.11-4.04,2.51-6.28.84-4.74-.26-9.62-3.06-13.53" fill="#ff3e00" stroke-width="0"/><path d="m732.4,642.34c-4.72,1.23-9.7-.62-12.48-4.63-1.68-2.36-2.35-5.29-1.84-8.14.08-.46.2-.92.35-1.37l.28-.84.75.55c1.73,1.27,3.67,2.24,5.73,2.86l.54.17-.05.54c-.07.77.14,1.54.59,2.18.84,1.21,2.34,1.76,3.76,1.4.32-.09.62-.22.9-.4l14.64-9.33c.72-.46,1.22-1.2,1.38-2.04.15-.86-.05-1.74-.55-2.45-.84-1.21-2.34-1.76-3.76-1.4-.32.09-.62.22-.9.39l-5.59,3.56c-.92.58-1.92,1.02-2.97,1.31-4.72,1.23-9.7-.62-12.48-4.63-1.68-2.36-2.35-5.29-1.84-8.14.5-2.8,2.16-5.25,4.56-6.77l14.64-9.33c.92-.59,1.92-1.03,2.98-1.31,4.72-1.23,9.7.62,12.48,4.63,1.68,2.36,2.35,5.29,1.84,8.14-.09.46-.2.92-.35,1.37l-.28.84-.75-.55c-1.73-1.27-3.67-2.24-5.73-2.86l-.54-.17.05-.54c.07-.77-.14-1.54-.59-2.18-.84-1.21-2.34-1.76-3.76-1.4-.32.09-.62.22-.9.4l-14.64,9.33c-.72.46-1.22,1.2-1.37,2.04-.15.86.05,1.74.55,2.45.84,1.21,2.34,1.76,3.76,1.4.32-.09.62-.22.9-.4l5.59-3.56c.92-.59,1.92-1.03,2.97-1.31,4.72-1.23,9.7.62,12.48,4.63,1.68,2.36,2.35,5.29,1.84,8.14-.5,2.8-2.16,5.25-4.56,6.77l-14.64,9.33c-.92.59-1.92,1.03-2.98,1.31" fill="#fff" stroke-width="0"/></g></svg>