<svg id="visual" viewBox="0 0 900 450" width="900" height="450" xmlns="http://www.w3.org/2000/svg" xmlns:xlink="http://www.w3.org/1999/xlink" version="1.1"><rect x="0" y="0" width="900" height="450" fill="#fff"></rect><defs><linearGradient id="grad1_0" x1="50%" y1="100%" x2="100%" y2="0%"><stop offset="10%" stop-color="#ffffff" stop-opacity="1"></stop><stop offset="90%" stop-color="#ffffff" stop-opacity="1"></stop></linearGradient></defs><defs><linearGradient id="grad2_0" x1="0%" y1="100%" x2="50%" y2="0%"><stop offset="10%" stop-color="#ffffff" stop-opacity="1"></stop><stop offset="90%" stop-color="#ffffff" stop-opacity="1"></stop></linearGradient></defs><g transform="translate(900, 450)"><path d="M-90 0C-86.1 -8.6 -82.2 -17.2 -78.9 -25.6C-75.7 -34.1 -73 -42.2 -68.8 -50C-64.5 -57.7 -58.7 -65 -51.7 -71.2C-44.7 -77.4 -36.6 -82.6 -27.8 -85.6C-19 -88.6 -9.5 -89.3 0 -90L0 0Z" fill="#f6da09"></path></g><g transform="translate(0, 0)"><path d="M90 0C85.8 8.1 81.6 16.2 79.9 26C78.2 35.7 78.9 47.1 72.8 52.9C66.7 58.7 53.9 58.8 45.3 62.3C36.6 65.8 32.2 72.8 25.3 78C18.5 83.2 9.2 86.6 0 90L0 0Z" fill="#f6da09"></path></g></svg>