<?xml version="1.0" encoding="UTF-8" standalone="no"?>
<!DOCTYPE svg PUBLIC "-//W3C//DTD SVG 1.1//EN" "http://www.w3.org/Graphics/SVG/1.1/DTD/svg11.dtd">
<svg xmlns="http://www.w3.org/2000/svg" version="1.1" viewBox="0 0 1211 383" width="1211.0pt" height="383.0pt">
<path d="M 0.00 0.00 L 309.92 0.00 C 305.46 0.55 300.96 0.97 296.51 1.71 C 278.36 5.02 261.13 14.02 248.07 27.07 C 230.97 44.18 221.84 68.89 223.68 93.01 C 224.28 110.25 229.94 127.77 240.44 141.55 C 252.24 157.31 269.76 169.00 288.78 174.01 C 288.76 157.50 288.82 141.00 288.75 124.49 C 279.35 117.00 273.32 106.07 272.35 94.04 C 270.76 79.69 275.33 64.97 286.26 55.26 C 300.75 42.19 323.92 40.89 339.80 52.21 C 343.93 54.98 347.29 58.54 350.31 62.47 C 367.81 62.54 385.32 62.49 402.82 62.50 C 397.80 46.73 388.77 32.57 376.15 21.82 C 360.27 8.41 340.04 0.97 319.33 0.05 L 318.63 0.02 L 317.75 0.00 L 522.47 0.00 C 505.65 0.51 488.58 5.27 474.32 14.31 C 456.71 25.09 443.16 42.65 437.38 62.49 C 454.87 62.50 472.37 62.53 489.86 62.48 C 495.74 54.38 504.25 48.34 513.99 45.93 C 523.89 43.42 534.98 44.22 544.16 48.83 C 552.98 52.91 559.93 60.28 563.93 69.09 C 570.08 83.43 569.66 100.77 560.99 114.01 C 555.35 122.97 546.07 129.41 535.77 131.77 C 529.34 133.52 522.27 133.26 515.75 132.17 C 503.73 129.98 493.77 122.03 487.71 111.59 C 470.61 111.39 453.50 111.54 436.39 111.51 C 441.01 129.73 451.41 146.20 466.34 157.69 C 479.21 168.21 494.73 174.05 511.02 176.68 C 538.78 180.55 568.48 172.37 589.22 153.23 C 600.49 142.62 608.98 129.18 613.19 114.25 C 617.94 98.02 617.51 80.19 613.12 63.94 C 608.64 47.38 598.89 32.23 585.61 21.35 C 574.08 11.74 559.78 4.90 545.06 1.97 C 540.88 1.13 536.57 0.80 532.33 0.21 L 530.42 0.00 L 1211.00 0.00 L 1211.00 383.00 L 0.00 383.00 L 0.00 93.17 C 0.79 108.79 4.44 123.96 12.55 137.44 C 17.85 146.52 24.97 154.29 33.19 160.80 C 39.95 166.12 47.98 170.02 55.97 173.13 C 70.36 177.97 86.29 179.02 101.08 175.43 C 115.08 172.31 129.29 165.01 138.26 153.55 C 138.15 167.89 137.05 182.32 130.25 195.25 C 124.42 206.35 113.34 213.96 101.07 216.12 C 91.60 217.58 82.38 218.05 73.21 214.78 C 60.99 210.82 51.06 202.45 45.18 191.02 C 31.94 196.77 18.69 202.49 5.47 208.26 C 15.77 230.50 35.37 247.92 58.77 255.26 C 70.15 259.24 82.01 260.22 94.00 259.98 C 106.55 259.44 118.95 257.21 130.72 252.74 C 145.15 246.99 157.91 237.51 166.70 224.62 C 182.30 202.46 186.14 174.48 186.00 148.00 C 186.00 100.17 186.00 52.33 186.00 4.50 C 170.07 4.49 154.14 4.49 138.21 4.50 C 138.22 11.14 138.19 17.78 138.23 24.42 C 129.69 13.15 116.01 6.02 102.53 2.60 C 86.79 -1.49 69.68 -0.12 54.49 5.49 C 40.56 10.46 28.31 19.57 18.96 30.96 C 7.49 45.31 1.30 63.25 0.00 81.48 L 0.00 0.00 Z"  />
<path d="M 309.92 0.00 L 317.75 0.00 L 318.63 0.02 L 319.33 0.05 C 340.04 0.97 360.27 8.41 376.15 21.82 C 388.77 32.57 397.80 46.73 402.82 62.50 C 385.32 62.49 367.81 62.54 350.31 62.47 C 347.29 58.54 343.93 54.98 339.80 52.21 C 323.92 40.89 300.75 42.19 286.26 55.26 C 275.33 64.97 270.76 79.69 272.35 94.04 C 273.32 106.07 279.35 117.00 288.75 124.49 C 288.82 141.00 288.76 157.50 288.78 174.01 C 269.76 169.00 252.24 157.31 240.44 141.55 C 229.94 127.77 224.28 110.25 223.68 93.01 C 221.84 68.89 230.97 44.18 248.07 27.07 C 261.13 14.02 278.36 5.02 296.51 1.71 C 300.96 0.97 305.46 0.55 309.92 0.00 Z" fill="#f0563e" />
<path d="M 522.47 0.00 L 530.42 0.00 L 532.33 0.21 C 536.57 0.80 540.88 1.13 545.06 1.97 C 559.78 4.90 574.08 11.74 585.61 21.35 C 598.89 32.23 608.64 47.38 613.12 63.94 C 617.51 80.19 617.94 98.02 613.19 114.25 C 608.98 129.18 600.49 142.62 589.22 153.23 C 568.48 172.37 538.78 180.55 511.02 176.68 C 494.73 174.05 479.21 168.21 466.34 157.69 C 451.41 146.20 441.01 129.73 436.39 111.51 C 453.50 111.54 470.61 111.39 487.71 111.59 C 493.77 122.03 503.73 129.98 515.75 132.17 C 522.27 133.26 529.34 133.52 535.77 131.77 C 546.07 129.41 555.35 122.97 560.99 114.01 C 569.66 100.77 570.08 83.43 563.93 69.09 C 559.93 60.28 552.98 52.91 544.16 48.83 C 534.98 44.22 523.89 43.42 513.99 45.93 C 504.25 48.34 495.74 54.38 489.86 62.48 C 472.37 62.53 454.87 62.50 437.38 62.49 C 443.16 42.65 456.71 25.09 474.32 14.31 C 488.58 5.27 505.65 0.51 522.47 0.00 Z" fill="#fca53a" />
<path d="M 102.53 2.60 C 116.01 6.02 129.69 13.15 138.23 24.42 C 138.19 17.78 138.22 11.14 138.21 4.50 C 154.14 4.49 170.07 4.49 186.00 4.50 C 186.00 52.33 186.00 100.17 186.00 148.00 C 186.14 174.48 182.30 202.46 166.70 224.62 C 157.91 237.51 145.15 246.99 130.72 252.74 C 118.95 257.21 106.55 259.44 94.00 259.98 C 82.01 260.22 70.15 259.24 58.77 255.26 C 35.37 247.92 15.77 230.50 5.47 208.26 C 18.69 202.49 31.94 196.77 45.18 191.02 C 51.06 202.45 60.99 210.82 73.21 214.78 C 82.38 218.05 91.60 217.58 101.07 216.12 C 113.34 213.96 124.42 206.35 130.25 195.25 C 137.05 182.32 138.15 167.89 138.26 153.55 C 129.29 165.01 115.08 172.31 101.08 175.43 C 86.29 179.02 70.36 177.97 55.97 173.13 C 47.98 170.02 39.95 166.12 33.19 160.80 C 24.97 154.29 17.85 146.52 12.55 137.44 C 4.44 123.96 0.79 108.79 0.00 93.17 L 0.00 81.48 C 1.30 63.25 7.49 45.31 18.96 30.96 C 28.31 19.57 40.56 10.46 54.49 5.49 C 69.68 -0.12 86.79 -1.49 102.53 2.60 Z" fill="#FFFFFF" />
<path d="M 85.47 45.81 C 103.24 42.94 121.85 51.52 130.83 67.18 C 140.24 83.24 138.16 104.74 125.56 118.52 C 118.88 125.88 109.77 130.61 100.05 132.46 C 88.56 134.39 76.48 131.88 67.00 125.01 C 60.42 120.15 55.00 113.60 51.90 106.00 C 46.33 92.60 47.56 76.75 55.67 64.64 C 62.55 54.59 73.41 47.67 85.47 45.81 Z"  />
<path d="M 352.70 111.59 C 369.73 111.37 386.80 111.55 403.84 111.51 C 400.23 125.35 393.45 138.20 383.69 148.68 C 371.36 161.95 355.11 170.74 337.60 175.03 C 337.59 159.04 337.58 143.05 337.61 127.06 C 344.00 123.07 348.71 117.92 352.70 111.59 Z" fill="#f0563e" />
<path d="M 337.61 207.77 C 338.59 208.03 339.58 208.30 340.56 208.57 C 356.05 212.86 371.19 220.95 382.28 232.72 C 396.07 246.71 404.29 265.46 406.03 284.98 C 407.89 301.58 404.97 318.60 397.61 333.61 C 390.81 347.05 380.60 358.72 368.01 367.01 C 358.41 372.99 348.12 377.67 337.03 380.04 C 310.17 386.55 280.84 380.70 258.42 364.60 C 244.23 354.11 233.18 339.07 227.86 322.22 C 223.36 308.49 222.58 293.46 224.58 279.21 C 227.49 260.01 237.11 241.60 251.73 228.73 C 262.32 219.12 275.07 212.48 288.77 208.51 C 288.83 223.67 288.72 238.84 288.84 254.00 C 288.85 255.31 288.77 256.60 288.60 257.88 C 286.79 260.52 283.95 262.43 281.96 264.97 C 271.72 277.36 269.59 295.24 274.79 310.20 C 277.99 319.02 284.04 327.04 292.20 331.82 C 309.69 342.61 334.18 339.35 347.57 323.56 C 359.63 309.60 361.18 288.31 352.86 272.13 C 349.40 265.31 344.01 259.86 337.64 255.72 C 337.54 239.74 337.59 223.75 337.61 207.77 Z" fill="#79cab9" />
<path d="M 652.44 211.46 C 658.46 209.59 665.56 211.73 668.48 217.56 C 671.68 223.52 669.25 231.24 663.19 234.20 C 656.35 237.60 647.26 235.12 644.28 227.77 C 641.47 221.03 645.51 213.34 652.44 211.46 Z" fill="#FFFFFF" />
<path d="M 1035.22 211.17 C 1041.09 209.83 1047.63 212.14 1050.32 217.77 C 1053.60 224.18 1050.48 232.29 1043.71 234.72 C 1036.57 237.54 1027.79 234.18 1025.59 226.53 C 1023.54 219.56 1028.27 212.59 1035.22 211.17 Z" fill="#FFFFFF" />
<path d="M 1080.40 222.00 C 1087.21 222.00 1094.03 222.00 1100.84 222.00 C 1100.84 232.17 1100.84 242.33 1100.84 252.50 C 1106.65 252.49 1112.46 252.50 1118.27 252.50 C 1118.27 257.92 1118.27 263.34 1118.27 268.75 C 1112.46 268.75 1106.65 268.76 1100.84 268.76 C 1100.83 290.76 1100.85 312.75 1100.84 334.75 C 1094.02 334.76 1087.21 334.76 1080.40 334.75 C 1080.40 312.75 1080.41 290.76 1080.40 268.76 C 1075.47 268.75 1070.54 268.76 1065.61 268.75 C 1065.60 263.34 1065.60 257.92 1065.61 252.50 C 1070.54 252.49 1075.47 252.50 1080.40 252.49 C 1080.40 242.33 1080.41 232.17 1080.40 222.00 Z" fill="#FFFFFF" />
<path d="M 597.79 251.51 C 607.15 252.85 615.34 259.22 619.20 267.80 C 622.57 275.22 623.21 282.94 623.28 291.00 C 623.27 305.58 623.28 320.17 623.27 334.75 C 616.46 334.76 609.65 334.76 602.84 334.75 C 602.84 320.83 602.83 306.92 602.85 292.99 C 602.83 288.19 602.39 283.35 600.03 279.05 C 597.99 275.33 594.61 272.56 590.51 271.42 C 583.50 269.58 575.81 271.62 570.40 276.37 C 566.51 280.03 564.74 285.75 564.78 290.99 C 564.81 305.77 564.80 319.98 564.79 334.75 C 557.98 334.76 551.17 334.76 544.36 334.75 C 544.36 307.33 544.36 279.91 544.37 252.50 C 551.18 252.50 557.98 252.49 564.79 252.50 C 564.80 256.79 564.83 261.07 564.73 265.36 C 570.81 253.53 585.34 248.99 597.79 251.51 Z" fill="#FFFFFF" />
<path d="M 837.83 255.19 C 846.80 259.55 853.77 267.46 857.14 276.82 C 859.80 284.27 860.42 292.54 859.29 300.33 C 858.12 300.98 856.33 300.69 855.01 300.79 C 835.22 300.72 815.43 300.76 795.65 300.77 C 797.24 306.85 800.34 312.10 806.09 315.03 C 817.60 320.66 833.25 318.04 841.41 307.80 C 845.96 311.20 850.45 314.68 854.95 318.16 C 850.01 325.39 843.48 330.39 835.25 333.36 C 819.07 339.27 799.22 336.73 786.73 324.27 C 775.81 313.45 772.62 297.50 775.79 282.76 C 777.92 273.38 783.30 264.82 791.10 259.13 C 804.29 249.41 823.17 248.02 837.83 255.19 Z" fill="#FFFFFF" />
<path d="M 935.95 253.41 C 934.62 259.84 933.24 266.25 931.91 272.67 C 927.41 270.72 922.98 269.20 917.97 269.89 C 912.40 270.18 907.45 274.01 904.74 278.72 C 900.66 285.48 899.39 294.23 899.13 301.99 C 899.13 312.91 899.16 323.83 899.14 334.75 C 892.27 334.76 885.40 334.75 878.53 334.76 C 878.53 307.34 878.53 279.92 878.53 252.50 C 885.34 252.49 892.15 252.50 898.96 252.49 C 898.96 258.31 899.00 264.13 898.92 269.94 C 901.35 263.11 904.93 257.01 911.46 253.43 C 918.84 249.31 928.35 250.53 935.95 253.41 Z" fill="#FFFFFF" />
<path d="M 980.01 250.90 C 988.21 251.90 996.99 255.10 1002.05 261.98 C 1005.24 266.22 1006.16 271.08 1006.67 276.24 C 1000.23 276.26 993.80 276.25 987.37 276.25 C 986.41 273.70 985.96 271.03 983.55 269.41 C 978.54 265.69 969.29 266.34 966.14 272.20 C 964.02 276.45 966.39 280.69 970.52 282.33 C 977.93 284.91 985.83 286.13 993.20 288.88 C 997.18 290.45 1000.88 293.08 1003.78 296.21 C 1007.91 300.75 1009.46 307.00 1009.11 313.02 C 1008.68 319.36 1005.06 325.27 1000.01 329.02 C 994.16 333.41 987.25 335.63 980.02 336.39 C 970.27 336.88 960.72 335.36 952.91 329.10 C 946.34 324.35 943.03 317.00 942.53 309.02 C 948.89 308.98 955.24 309.01 961.60 309.00 C 962.20 311.02 962.64 313.35 963.96 315.04 C 966.39 318.04 970.10 319.69 973.94 319.78 C 978.21 319.96 983.12 319.44 986.43 316.43 C 989.49 313.67 989.62 308.27 986.29 305.66 C 983.46 303.59 979.43 302.81 976.07 301.97 C 967.02 299.74 957.07 297.68 950.51 290.48 C 946.04 285.75 944.61 279.31 945.00 272.97 C 945.58 266.91 948.97 261.42 953.80 257.79 C 961.01 251.98 970.99 250.25 980.01 250.90 Z" fill="#FFFFFF" />
<path d="M 520.03 252.50 C 520.07 279.92 520.04 307.33 520.05 334.75 C 513.23 334.76 506.42 334.75 499.61 334.75 C 499.60 330.44 499.57 326.13 499.68 321.82 C 496.86 326.89 492.89 331.05 487.49 333.35 C 475.31 339.11 459.31 337.13 450.06 326.94 C 443.28 319.47 441.24 308.79 441.16 299.01 C 441.10 283.50 441.15 268.00 441.14 252.50 C 447.95 252.49 454.76 252.50 461.57 252.50 C 461.62 267.33 461.50 282.17 461.62 296.99 C 461.70 303.66 464.02 310.43 469.96 314.03 C 478.39 318.89 490.72 316.38 496.16 308.14 C 498.81 304.19 499.57 299.70 499.60 295.03 C 499.62 280.86 499.60 266.67 499.61 252.50 C 506.42 252.49 513.23 252.50 520.03 252.50 Z" fill="#FFFFFF" />
<path d="M 746.08 252.48 C 753.47 252.51 760.86 252.49 768.25 252.50 C 756.68 279.92 745.11 307.33 733.55 334.75 C 727.33 334.76 721.11 334.75 714.88 334.76 C 703.42 307.34 691.98 279.92 680.54 252.50 C 687.87 252.49 695.21 252.50 702.54 252.49 C 709.84 271.24 717.07 290.02 724.40 308.75 C 731.59 289.98 738.82 271.23 746.08 252.48 Z" fill="#FFFFFF" />
<path d="M 1188.37 252.63 C 1195.62 252.26 1202.96 252.61 1210.24 252.50 C 1193.18 293.24 1176.19 334.01 1159.14 374.76 C 1151.97 374.75 1144.81 374.76 1137.65 374.75 C 1143.80 359.50 1149.99 344.26 1156.14 329.00 C 1145.24 303.49 1134.29 278.01 1123.41 252.50 C 1130.85 252.49 1138.29 252.50 1145.74 252.49 C 1152.89 269.80 1159.91 287.17 1167.07 304.47 C 1173.08 289.70 1179.09 274.94 1185.08 260.16 C 1186.13 257.66 1186.99 254.98 1188.37 252.63 Z" fill="#FFFFFF" />
<path d="M 646.53 252.50 C 653.34 252.50 660.16 252.49 666.97 252.50 C 666.97 279.92 666.98 307.33 666.97 334.75 C 660.15 334.76 653.34 334.75 646.53 334.76 C 646.53 307.34 646.53 279.92 646.53 252.50 Z" fill="#FFFFFF" />
<path d="M 1028.26 252.50 C 1035.07 252.49 1041.88 252.50 1048.69 252.49 C 1048.71 279.91 1048.70 307.33 1048.70 334.75 C 1041.89 334.76 1035.07 334.75 1028.26 334.75 C 1028.26 307.34 1028.26 279.92 1028.26 252.50 Z" fill="#FFFFFF" />
<path d="M 832.63 273.36 C 836.79 276.72 838.55 281.37 839.54 286.48 C 824.91 286.52 810.28 286.50 795.65 286.49 C 797.21 280.02 800.19 274.34 806.35 271.24 C 814.35 267.29 825.51 267.69 832.63 273.36 Z"  />
</svg>