<svg version="1.1" id="Capa_1" xmlns="http://www.w3.org/2000/svg" x="0" y="0" viewBox="-73 165 464 464" style="enable-background:new -73 165 464 464" xml:space="preserve"><style>.st1{fill:#83c1ff}</style><path d="M298 327.5 228.5 258v46.3c0 12.7 10.4 23.2 23.2 23.2H298z" style="fill:#d7edff"/><path class="st1" d="M232.6 230.7c-.6-.6-1.2-.6-1.7-1.2h-.6c-.6 0-1.2 0-1.7-.6H43.1c-16.2 0-29 12.7-29 29V536c0 16.2 12.7 29 29 29h231.7c16.2 0 29-12.7 29-29V303.7c0-.6 0-1.2-.6-1.7v-.6c0-.6-.6-1.2-1.2-1.7l-69.4-69zm42.3 322.7H43.1c-9.8 0-17.4-7.5-17.4-17.4V258c0-9.8 7.5-17.4 17.4-17.4h179.6v40.6c0 16.2 12.7 29 29 29h40.6V536c-.1 9.9-7.6 17.4-17.4 17.4zm-23.2-254.9c-9.8 0-17.4-7.5-17.4-17.4v-32.4l49.8 49.8h-32.4z"/><path class="st1" d="M135.8 286.9h46.3c3.5 0 5.8-2.3 5.8-5.8s-2.3-5.8-5.8-5.8h-46.3c-3.5 0-5.8 2.3-5.8 5.8s2.4 5.8 5.8 5.8zM66.3 333.3h69.5c3.5 0 5.8-2.3 5.8-5.8s-2.3-5.8-5.8-5.8H66.3c-3.5 0-5.8 2.3-5.8 5.8s2.3 5.8 5.8 5.8zM66.3 379.6h139c3.5 0 5.8-2.3 5.8-5.8s-2.3-5.8-5.8-5.8h-139c-3.5 0-5.8 2.3-5.8 5.8s2.3 5.8 5.8 5.8zM251.7 368h-23.2c-3.5 0-5.8 2.3-5.8 5.8s2.3 5.8 5.8 5.8h23.2c3.5 0 5.8-2.3 5.8-5.8s-2.3-5.8-5.8-5.8zM66.3 426h115.9c3.5 0 5.8-2.3 5.8-5.8s-2.3-5.8-5.8-5.8H66.3c-3.5 0-5.8 2.3-5.8 5.8 0 3.4 2.3 5.8 5.8 5.8zM251.7 414.4h-46.3c-3.5 0-5.8 2.3-5.8 5.8s2.3 5.8 5.8 5.8h46.3c3.5 0 5.8-2.3 5.8-5.8s-2.3-5.8-5.8-5.8zM251.7 460.7H66.3c-3.5 0-5.8 2.3-5.8 5.8s2.3 5.8 5.8 5.8h185.4c3.5 0 5.8-2.3 5.8-5.8s-2.3-5.8-5.8-5.8zM89.5 507.1H66.3c-3.5 0-5.8 2.3-5.8 5.8s2.3 5.8 5.8 5.8h23.2c3.5 0 5.8-2.3 5.8-5.8s-2.3-5.8-5.8-5.8zM251.7 507.1h-139c-3.5 0-5.8 2.3-5.8 5.8s2.3 5.8 5.8 5.8h139c3.5 0 5.8-2.3 5.8-5.8s-2.3-5.8-5.8-5.8zM66.3 402.8h46.3c3.5 0 5.8-2.3 5.8-5.8s-2.3-5.8-5.8-5.8H66.3c-3.5 0-5.8 2.3-5.8 5.8s2.3 5.8 5.8 5.8zM251.7 391.2H135.8c-3.5 0-5.8 2.3-5.8 5.8s2.3 5.8 5.8 5.8h115.9c3.5 0 5.8-2.3 5.8-5.8s-2.3-5.8-5.8-5.8zM66.3 449.1h139c3.5 0 5.8-2.3 5.8-5.8s-2.3-5.8-5.8-5.8h-139c-3.5 0-5.8 2.3-5.8 5.8s2.3 5.8 5.8 5.8zM66.3 495.5h115.9c3.5 0 5.8-2.3 5.8-5.8s-2.3-5.8-5.8-5.8H66.3c-3.5 0-5.8 2.3-5.8 5.8s2.3 5.8 5.8 5.8zM251.7 483.9h-46.3c-3.5 0-5.8 2.3-5.8 5.8s2.3 5.8 5.8 5.8h46.3c3.5 0 5.8-2.3 5.8-5.8s-2.3-5.8-5.8-5.8z"/></svg>