<svg version="1.1" id="Capa_1" xmlns="http://www.w3.org/2000/svg" x="0" y="0" viewBox="-73 165 464 464" style="enable-background:new -73 165 464 464" xml:space="preserve"><style>.st0{fill:#d7edff}.st1{fill:#83c1ff}</style><path class="st0" d="M50.1 353.5h43.5v174.2H50.1zM137.2 353.5h43.5v174.2h-43.5zM224.3 353.5h43.5v174.2h-43.5z"/><path class="st1" d="m313 282.7-152.4-43.5h-3.3L5 282.7c-2.2 1.1-3.8 3.3-3.8 5.4V299c0 9.3 7.1 16.3 16.3 16.3h5.4v5.4c0 9.3 7.1 16.3 16.3 16.3h5.4v163.3h-5.4c-9.3 0-16.3 7.1-16.3 16.3v5.4h-5.4c-9.3 0-16.3 7.1-16.3 16.3v10.9c0 3.3 2.2 5.4 5.4 5.4h304.8c3.3 0 5.4-2.2 5.4-5.4v-10.9c0-9.3-7.1-16.3-16.3-16.3h-5.4v-5.4c0-9.3-7.1-16.3-16.3-16.3h-5.4V337.1h5.4c9.3 0 16.3-7.1 16.3-16.3v-5.4h5.4c9.3 0 16.3-7.1 16.3-16.3v-10.9c.1-2.2-1.6-4.4-3.8-5.5zM55.6 337.1h32.7v163.3H55.6V337.1zm76.2 0V348H99.1v-10.9h32.7zm87.1 0V348h-32.7v-10.9h32.7zm-32.7 163.3V358.9h32.7v141.5h-32.7zm-10.9 0h-32.7V337.1h32.7v163.3zm-76.2 0V358.9h32.7v141.5H99.1zM306 538.5v5.4H12v-5.4c0-3.3 2.2-5.4 5.4-5.4H300.5c3.3 0 5.5 2.2 5.5 5.4zm-21.8-21.7v5.4H33.8v-5.4c0-3.3 2.2-5.4 5.4-5.4h239.3c3.5-.1 5.7 2.1 5.7 5.4zm-21.8-16.4h-32.7V337.1h32.7v163.3zm21.8-179.6c0 3.3-2.2 5.4-5.4 5.4H39.2c-3.3 0-5.4-2.2-5.4-5.4v-5.4h250.4v5.4zM306 299c0 3.3-2.2 5.4-5.4 5.4H17.5c-3.3 0-5.4-2.2-5.4-5.4v-6.5L159 250l147 41.9v7.1z"/><path class="st1" d="M71.9 348c-3.3 0-5.4 2.2-5.4 5.4v65.3c0 3.3 2.2 5.4 5.4 5.4s5.4-2.2 5.4-5.4v-65.3c0-3.2-2.1-5.4-5.4-5.4zM71.9 435.1c-3.3 0-5.4 2.2-5.4 5.4V484c0 3.3 2.2 5.4 5.4 5.4s5.4-2.2 5.4-5.4v-43.5c0-3.2-2.1-5.4-5.4-5.4zM159 489.5c3.3 0 5.4-2.2 5.4-5.4V397c0-3.3-2.2-5.4-5.4-5.4s-5.4 2.2-5.4 5.4v87.1c0 3.3 2.1 5.4 5.4 5.4zM159 380.7c3.3 0 5.4-2.2 5.4-5.4v-21.8c0-3.3-2.2-5.4-5.4-5.4s-5.4 2.2-5.4 5.4v21.8c0 3.2 2.1 5.4 5.4 5.4zM246.1 489.5c3.3 0 5.4-2.2 5.4-5.4V353.5c0-3.3-2.2-5.4-5.4-5.4-3.3 0-5.4 2.2-5.4 5.4v130.6c0 3.3 2.1 5.4 5.4 5.4zM142.7 277.2c0 9.3 7.1 16.3 16.3 16.3s16.3-7.1 16.3-16.3c0-9.3-7.1-16.3-16.3-16.3s-16.3 7.1-16.3 16.3zm21.7 0c0 3.3-2.2 5.4-5.4 5.4s-5.4-2.2-5.4-5.4c0-3.3 2.2-5.4 5.4-5.4s5.4 2.2 5.4 5.4z"/></svg>