<?xml version="1.0" encoding="utf-8"?>
<!-- Generator: Adobe Illustrator 25.2.0, SVG Export Plug-In . SVG Version: 6.00 Build 0)  -->
<svg version="1.1" id="Layer_1" xmlns="http://www.w3.org/2000/svg" xmlns:xlink="http://www.w3.org/1999/xlink" x="0px" y="0px"
	 viewBox="0 0 1280 1280" style="enable-background:new 0 0 1280 1280;" xml:space="preserve">
<style type="text/css">
	.st0{fill-rule:evenodd;clip-rule:evenodd;fill:url(#SVGID_1_);}
	.st1{fill-rule:evenodd;clip-rule:evenodd;fill:#FF5D01;}
	.st2{fill-rule:evenodd;clip-rule:evenodd;fill:url(#SVGID_2_);}
</style>
<g>
	
		<linearGradient id="SVGID_1_" gradientUnits="userSpaceOnUse" x1="901.9882" y1="1320.4956" x2="639.9841" y2="418.8964" gradientTransform="matrix(1 0 0 -1 0 1280)">
		<stop  offset="0" style="stop-color:#000014"/>
		<stop  offset="1" style="stop-color:#150426"/>
	</linearGradient>
	<path class="st0" d="M829,32c10.4,13,15.8,30.4,26.4,65.4l232.5,763.7c-86-44.6-179.4-76.7-277.9-94.1L658.6,255.5
		c-2.5-8.4-10.2-14.1-18.9-14.1c-8.8,0-16.5,5.8-18.9,14.2L471.3,766.7c-99,17.3-192.9,49.5-279.2,94.2L425.7,97.2h0
		c10.7-34.9,16-52.3,26.4-65.3c9.2-11.4,21.2-20.3,34.8-25.8C502.4,0,520.6,0,557.1,0H724c36.5,0,54.8,0,70.2,6.2
		C807.8,11.7,819.8,20.6,829,32z"/>
	<path class="st1" d="M856.9,897.5c-38.3,32.8-114.8,55.1-202.9,55.1c-108.1,0-198.8-33.7-222.8-78.9c-8.6,26-10.5,55.7-10.5,74.6
		c0,0-5.7,93.2,59.1,158c0-33.6,27.3-60.9,60.9-60.9c57.7,0,57.6,50.3,57.6,91.1c0,1.2,0,2.4,0,3.6c0,62,37.9,115.1,91.7,137.5
		c-8-16.5-12.6-35.1-12.6-54.8c0-59.1,34.7-81.1,75-106.7l0,0c32.1-20.3,67.7-42.9,92.3-88.3c12.8-23.7,20.1-50.8,20.1-79.6
		C864.7,930.5,862,913.5,856.9,897.5z"/>
	
		<linearGradient id="SVGID_2_" gradientUnits="userSpaceOnUse" x1="835.0952" y1="741.9539" x2="608.1851" y2="266.9278" gradientTransform="matrix(1 0 0 -1 0 1280)">
		<stop  offset="0" style="stop-color:#FF1639"/>
		<stop  offset="1" style="stop-color:#FF1639;stop-opacity:0"/>
	</linearGradient>
	<path class="st2" d="M856.9,897.5c-38.3,32.8-114.8,55.1-202.9,55.1c-108.1,0-198.8-33.7-222.8-78.9c-8.6,26-10.5,55.7-10.5,74.6
		c0,0-5.7,93.2,59.1,158c0-33.6,27.3-60.9,60.9-60.9c57.7,0,57.6,50.3,57.6,91.1c0,1.2,0,2.4,0,3.6c0,62,37.9,115.1,91.7,137.5
		c-8-16.5-12.6-35.1-12.6-54.8c0-59.1,34.7-81.1,75-106.7l0,0c32.1-20.3,67.7-42.9,92.3-88.3c12.8-23.7,20.1-50.8,20.1-79.6
		C864.7,930.5,862,913.5,856.9,897.5z"/>
</g>
</svg>
