<?xml version="1.0" encoding="UTF-8"?><svg id="Layer_1" xmlns="http://www.w3.org/2000/svg" viewBox="0 0 201.09 53.66"><path d="m58.71,10.39c4.08,0,7.57,1.55,10.46,4.64,2.89,3.09,4.33,6.88,4.33,11.36s-1.44,8.27-4.33,11.36c-2.89,3.09-6.38,4.64-10.46,4.64s-7.52-1.47-9.82-4.42v15.7h-7.82V11.23h7.82v3.58c2.3-2.95,5.58-4.42,9.82-4.42h0Zm-7.46,22.15c1.58,1.6,3.58,2.39,6,2.39s4.43-.8,6.03-2.39c1.6-1.6,2.39-3.65,2.39-6.15s-.8-4.56-2.39-6.15c-1.6-1.6-3.61-2.39-6.03-2.39s-4.42.8-6,2.39c-1.58,1.6-2.36,3.65-2.36,6.15s.79,4.56,2.36,6.15h0Zm47.76-21.31h7.82v30.31h-7.82v-3.39c-1.9,2.83-4.91,4.24-9.03,4.24-3.31,0-6.05-1.11-8.21-3.33-2.16-2.22-3.24-5.29-3.24-9.21V11.23h7.82v17.64c0,2.02.55,3.57,1.64,4.64,1.09,1.07,2.55,1.61,4.36,1.61,2.02,0,3.64-.63,4.85-1.88,1.21-1.25,1.82-3.13,1.82-5.64V11.23h0Zm14.97,30.31V0h7.82v41.54h-7.82Zm22.19-21.7c0,.81.54,1.46,1.61,1.97,1.07.5,2.37.95,3.91,1.33,1.54.38,3.07.87,4.61,1.45,1.54.59,2.84,1.57,3.91,2.94,1.07,1.37,1.61,3.09,1.61,5.15,0,3.11-1.16,5.51-3.49,7.18-2.32,1.68-5.22,2.51-8.7,2.51-6.22,0-10.47-2.4-12.73-7.21l6.79-3.82c.89,2.63,2.87,3.94,5.94,3.94,2.79,0,4.18-.87,4.18-2.61,0-.81-.54-1.46-1.61-1.97-1.07-.51-2.37-.96-3.91-1.36-1.54-.4-3.07-.91-4.61-1.52-1.54-.61-2.84-1.57-3.91-2.88-1.07-1.31-1.61-2.96-1.61-4.94,0-2.99,1.1-5.34,3.3-7.06,2.2-1.72,4.94-2.58,8.21-2.58,2.47,0,4.71.56,6.73,1.67,2.02,1.11,3.62,2.7,4.79,4.76l-6.67,3.64c-.97-2.06-2.59-3.09-4.85-3.09-1.01,0-1.85.22-2.51.67-.67.44-1,1.05-1,1.82h0Zm27.58,9.76c1.05,3.8,3.9,5.7,8.55,5.7,2.99,0,5.25-1.01,6.79-3.03l6.3,3.64c-2.99,4.32-7.39,6.49-13.21,6.49-5.01,0-9.03-1.51-12.06-4.55-3.03-3.03-4.55-6.85-4.55-11.46s1.5-8.37,4.49-11.42c2.99-3.05,6.83-4.58,11.52-4.58,4.45,0,8.11,1.54,11,4.61,2.89,3.07,4.33,6.87,4.33,11.39,0,1.01-.1,2.08-.3,3.21h-22.85Zm-.12-6.06h15.46c-.44-2.06-1.36-3.6-2.76-4.61-1.39-1.01-2.98-1.51-4.76-1.51-2.1,0-3.84.54-5.21,1.61-1.37,1.07-2.28,2.58-2.73,4.52Z" fill="#231f20" stroke-width="0"/><polygon points="22.96 27.3 17.04 21.37 15.84 20.17 5.92 10.26 0 16.18 11.11 27.3 0 38.41 5.92 44.33 17.04 33.22 28.15 44.33 34.07 38.41 25.28 29.61 22.96 27.3" fill="#231f20" fillRule="evenodd" stroke-width="0"/><rect x="23.9" y="12.02" width="8.49" height="8.49" transform="translate(-3.26 24.67) rotate(-45)" fill="#4f35e6" stroke-width="0"/><rect x="190.84" y="32.08" width="8.49" height="8.49" transform="translate(31.46 148.59) rotate(-45)" fill="#4f35e6" stroke-width="0"/></svg>