<svg version="1.1" id="Layer_1" xmlns="http://www.w3.org/2000/svg" x="0" y="0" viewBox="0 0 100 100" style="enable-background:new 0 0 100 100" xml:space="preserve"><style>.st0{fill:#f90}.st1{fill-rule:evenodd;clip-rule:evenodd}</style><path class="st0" d="M70.2 67.9c-22.8 10.9-37 1.8-46.1-3.7-.6-.3-1.5.1-.7 1 3 3.7 12.9 12.5 25.8 12.5s20.6-7.1 21.6-8.3c1.1-1.3.4-1.9-.6-1.5zm6.5-3.6c-.6-.8-3.7-.9-5.7-.7-2 .2-4.9 1.4-4.7 2.2.1.3.4.1 1.7 0 1.4-.1 5.1-.6 5.9.4.8 1-1.2 6-1.6 6.8-.4.8.1 1 .8.5.7-.5 1.8-1.9 2.6-3.9.9-1.9 1.4-4.7 1-5.3z"/><path class="st1" d="M54.9 45.7c0 2.9.1 5.2-1.4 7.8-1.2 2.1-3 3.3-5.1 3.3-2.8 0-4.4-2.1-4.4-5.3 0-6.2 5.6-7.4 10.9-7.4v1.6zm7.4 17.8c-.5.4-1.2.5-1.7.2-2.4-2-2.9-3-4.2-4.9-4 4.1-6.9 5.3-12.1 5.3-6.2 0-10.9-3.8-10.9-11.4 0-5.9 3.2-10 7.8-12 4-1.7 9.5-2.1 13.8-2.5v-.9c0-1.7.1-3.8-.9-5.3-.9-1.3-2.6-1.9-4.1-1.9-2.8 0-5.3 1.4-5.9 4.4-.1.7-.6 1.3-1.3 1.3l-7.1-.8c-.6-.1-1.3-.6-1.1-1.5C36.2 24.9 44 22.3 51 22.3c3.6 0 8.2.9 11 3.6 3.6 3.3 3.2 7.8 3.2 12.6V50c0 3.4 1.4 4.9 2.8 6.8.5.7.6 1.5 0 1.9-1.6 1.2-4.2 3.6-5.7 4.8"/><path class="st0" d="M70.2 67.9c-22.8 10.9-37 1.8-46.1-3.7-.6-.3-1.5.1-.7 1 3 3.7 12.9 12.5 25.8 12.5s20.6-7.1 21.6-8.3c1.1-1.3.4-1.9-.6-1.5zm6.5-3.6c-.6-.8-3.7-.9-5.7-.7-2 .2-4.9 1.4-4.7 2.2.1.3.4.1 1.7 0 1.4-.1 5.1-.6 5.9.4.8 1-1.2 6-1.6 6.8-.4.8.1 1 .8.5.7-.5 1.8-1.9 2.6-3.9.9-1.9 1.4-4.7 1-5.3z"/><path class="st1" d="M54.9 45.7c0 2.9.1 5.2-1.4 7.8-1.2 2.1-3 3.3-5.1 3.3-2.8 0-4.4-2.1-4.4-5.3 0-6.2 5.6-7.4 10.9-7.4v1.6zm7.4 17.8c-.5.4-1.2.5-1.7.2-2.4-2-2.9-3-4.2-4.9-4 4.1-6.9 5.3-12.1 5.3-6.2 0-10.9-3.8-10.9-11.4 0-5.9 3.2-10 7.8-12 4-1.7 9.5-2.1 13.8-2.5v-.9c0-1.7.1-3.8-.9-5.3-.9-1.3-2.6-1.9-4.1-1.9-2.8 0-5.3 1.4-5.9 4.4-.1.7-.6 1.3-1.3 1.3l-7.1-.8c-.6-.1-1.3-.6-1.1-1.5C36.2 24.9 44 22.3 51 22.3c3.6 0 8.2.9 11 3.6 3.6 3.3 3.2 7.8 3.2 12.6V50c0 3.4 1.4 4.9 2.8 6.8.5.7.6 1.5 0 1.9-1.6 1.2-4.2 3.6-5.7 4.8"/></svg>