<svg version="1.1" id="Layer_1" xmlns="http://www.w3.org/2000/svg" x="0" y="0" viewBox="0 0 100 100" style="enable-background:new 0 0 100 100" xml:space="preserve"><style>.st0{fill:#cc071e}</style><g id="layer1" transform="translate(-4397.099 -577.112)"><g id="g45263" transform="translate(10.63 8.864)"><path id="path45125" class="st0" d="M4451.2 595.7c2.6-1.3 3.9-1.1 4 .2 0 1.7-.2 4-.4 5.6-1 8.9-2.6 16.2-2.7 25.4 4.3-11.2 7.9-18.9 12.6-28.5 1.5-3 2.4-2.5 3.6-3 4.7-2.1 4.9-.8 4.3 1.8-2.3 9.5-8.2 39.6-9.1 44.2-.3 1.3-1.7.8-2.1.2-1.7-2.3-3.6-2.4-3.4-3.9 1.1-7.7 4.9-27 5.8-31.6-5 10.4-10.3 23.3-13 30.6-.6 1.6-1.6 1.4-2.3.3-.9-1.6-2.7-2.4-3-4.3-.9-6 1.1-17.5 1.3-24.7-2.8 7.9-7.4 23.3-9.4 30.3-.8 2.9-3.6 2.4-2.9-.4 3.1-11.7 9.7-32.3 12.6-39.7.9-1.8 2.6-1.7 4.1-2.5"/><path id="path45127" class="st0" d="M4434.4 594.3c-.9-.2-3.5 1.2-5.1 1.5-.5.1-1 .6-1.2 1-2.5 5.8-4.8 11.4-6.8 16.5-2.5.4-5.5 1-8.8 1.7 2.4-6.1 4.8-12.1 7.1-17.8 1.1-2.8-1.9-3.1-3-.2-1.5 3.7-4.4 10.7-7.5 18.9-2.3.6-4.8 1.2-7.4 2-1.9.5-1.9 1-1.1 2.2.4.6 1.4.6 1.8 1 1.1 1.2 1.8 2.5 3.7 2.7-1.7 4.7-3.5 9.5-5.1 14.1-1 2.9 1.8 3.5 2.9.4 1.7-5 3.6-10 5.5-15 1.6-.4 5.4-1.2 8.9-2-2.8 7.7-4.6 13.5-5.3 16.3-.1.5.1.8.2 1.1.9 1.4 1.8 1.4 3.1 3.1.3.5 1.4.7 1.8-.4 2.6-7.8 5.3-15.2 7.7-21.8 1-.2 2.9-.7 4-2.4 2-3 2.6-2.4 3.1-3.3.6-1.1.2-2.2-2-2 0 0-.8.1-2.3.2 2.4-6.2 4.5-11.4 6-15.4.6-1.2.7-2.2-.2-2.4"/><path id="path45129" class="st0" d="M4430.9 634.3c.6 1.4 2.3 1 1.6-.7-.7-1.7-2.4-6.9-2.8-8.6-.6-2.3 2-1.6.7-.2-1.1 1.3-1.9 1.8-4 4.2-2 2.3-1.5 5.4.7 6 2.4.8 4.6-1.9 5.9-3.9 1.3-1.9 0-3-1.3-1.9-.8.7-1.8 1.8-2.8 2.4-.8.5-1.4 0-.4-1.5 1.2-1.7 2.6-3.1 3.6-4.7 2.1-3.2-2-5.1-3.8-3-.9 1.1-.7 2.2-.5 3.2.7 1.6 2.2 6.4 3.1 8.7"/></g></g></svg>