<svg version="1.1" id="Layer_1" xmlns="http://www.w3.org/2000/svg" x="0" y="0" viewBox="0 0 100 100" style="enable-background:new 0 0 100 100" xml:space="preserve"><style>.st0{fill:#e82127}</style><g id="T" transform="translate(-33.796 -64.797)"><path id="path35" class="st0" d="m83.8 142.5 7.8-43.7c7.4 0 9.7.8 10.1 4.1 0 0 5-1.9 7.5-5.6-9.8-4.5-19.6-4.7-19.6-4.7l-5.7 7-5.7-7s-9.8.2-19.6 4.7c2.5 3.8 7.5 5.6 7.5 5.6.3-3.3 2.7-4.1 10-4.1l7.7 43.7"/><path id="path37" class="st0" d="M83.8 90.5c7.9-.1 17 1.2 26.2 5.3 1.2-2.2 1.6-3.2 1.6-3.2-10.1-4-19.6-5.4-27.8-5.4S66.2 88.6 56 92.6c0 0 .5 1.2 1.6 3.2 9.2-4.1 18.3-5.4 26.2-5.3"/></g></svg>